<?xml version="1.0" encoding="UTF-8" standalone="no"?><svg xmlns="http://www.w3.org/2000/svg" xmlns:xlink="http://www.w3.org/1999/xlink" contentScriptType="application/ecmascript" contentStyleType="text/css" height="1178px" preserveAspectRatio="none" style="width:920px;height:1178px;background:#FFFFFF;" version="1.1" viewBox="0 0 920 1178" width="920px" zoomAndPan="magnify"><defs><filter height="300%" id="f1ji6p3c2adxmd" width="300%" x="-1" y="-1"><feGaussianBlur result="blurOut" stdDeviation="2.0"/><feColorMatrix in="blurOut" result="blurOut2" type="matrix" values="0 0 0 0 0 0 0 0 0 0 0 0 0 0 0 0 0 0 .4 0"/><feOffset dx="4.0" dy="4.0" in="blurOut2" result="blurOut3"/><feBlend in="SourceGraphic" in2="blurOut3" mode="normal"/></filter></defs><g><!--MD5=[02e4b9b7573f1156f41e60aa5b4e25a4]
class Company--><rect codeLine="1" fill="#FEFECE" filter="url(#f1ji6p3c2adxmd)" height="60.8047" id="Company" style="stroke:#A80036;stroke-width:1.5;" width="118" x="533.5" y="32.5"/><ellipse cx="562" cy="48.5" fill="#ADD1B2" rx="11" ry="11" style="stroke:#A80036;stroke-width:1.0;"/><path d="M564.3438,44.1719 C563.4063,43.7344 562.8125,43.5938 561.9375,43.5938 C559.3125,43.5938 557.3125,45.6719 557.3125,48.3906 L557.3125,49.5156 C557.3125,52.0938 559.4219,53.9844 562.3125,53.9844 C563.5313,53.9844 564.6875,53.6875 565.4375,53.1406 C566.0156,52.7344 566.3438,52.2813 566.3438,51.8906 C566.3438,51.4375 565.9531,51.0469 565.4844,51.0469 C565.2656,51.0469 565.0625,51.125 564.875,51.3125 C564.4219,51.7969 564.4219,51.7969 564.2344,51.8906 C563.8125,52.1563 563.125,52.2813 562.3594,52.2813 C560.3125,52.2813 559.0156,51.1875 559.0156,49.4844 L559.0156,48.3906 C559.0156,46.6094 560.2656,45.2969 562,45.2969 C562.5781,45.2969 563.1875,45.4531 563.6563,45.7031 C564.1406,45.9844 564.3125,46.2031 564.4063,46.6094 C564.4688,47.0156 564.5,47.1406 564.6406,47.2656 C564.7813,47.4063 565.0156,47.5156 565.2344,47.5156 C565.5,47.5156 565.7656,47.375 565.9375,47.1563 C566.0469,47 566.0781,46.8125 566.0781,46.3906 L566.0781,44.9688 C566.0781,44.5313 566.0625,44.4063 565.9688,44.25 C565.8125,43.9844 565.5313,43.8438 565.2344,43.8438 C564.9375,43.8438 564.7344,43.9375 564.5156,44.25 L564.3438,44.1719 Z " fill="#000000"/><text fill="#000000" font-family="sans-serif" font-size="12" lengthAdjust="spacing" textLength="56" x="579" y="52.6543">Company</text><line style="stroke:#A80036;stroke-width:1.5;" x1="534.5" x2="650.5" y1="64.5" y2="64.5"/><text fill="#000000" font-family="sans-serif" font-size="11" lengthAdjust="spacing" textLength="106" x="539.5" y="78.7104">String designation;</text><line style="stroke:#A80036;stroke-width:1.5;" x1="534.5" x2="650.5" y1="85.3047" y2="85.3047"/><!--MD5=[7421f545a0d8420c5bec41e74b387d9c]
class Employee--><rect codeLine="5" fill="#FEFECE" filter="url(#f1ji6p3c2adxmd)" height="124.8281" id="Employee" style="stroke:#A80036;stroke-width:1.5;" width="147" x="391" y="221.5"/><ellipse cx="430.75" cy="237.5" fill="#ADD1B2" rx="11" ry="11" style="stroke:#A80036;stroke-width:1.0;"/><path d="M433.0938,233.1719 C432.1563,232.7344 431.5625,232.5938 430.6875,232.5938 C428.0625,232.5938 426.0625,234.6719 426.0625,237.3906 L426.0625,238.5156 C426.0625,241.0938 428.1719,242.9844 431.0625,242.9844 C432.2813,242.9844 433.4375,242.6875 434.1875,242.1406 C434.7656,241.7344 435.0938,241.2813 435.0938,240.8906 C435.0938,240.4375 434.7031,240.0469 434.2344,240.0469 C434.0156,240.0469 433.8125,240.125 433.625,240.3125 C433.1719,240.7969 433.1719,240.7969 432.9844,240.8906 C432.5625,241.1563 431.875,241.2813 431.1094,241.2813 C429.0625,241.2813 427.7656,240.1875 427.7656,238.4844 L427.7656,237.3906 C427.7656,235.6094 429.0156,234.2969 430.75,234.2969 C431.3281,234.2969 431.9375,234.4531 432.4063,234.7031 C432.8906,234.9844 433.0625,235.2031 433.1563,235.6094 C433.2188,236.0156 433.25,236.1406 433.3906,236.2656 C433.5313,236.4063 433.7656,236.5156 433.9844,236.5156 C434.25,236.5156 434.5156,236.375 434.6875,236.1563 C434.7969,236 434.8281,235.8125 434.8281,235.3906 L434.8281,233.9688 C434.8281,233.5313 434.8125,233.4063 434.7188,233.25 C434.5625,232.9844 434.2813,232.8438 433.9844,232.8438 C433.6875,232.8438 433.4844,232.9375 433.2656,233.25 L433.0938,233.1719 Z " fill="#000000"/><text fill="#000000" font-family="sans-serif" font-size="12" lengthAdjust="spacing" textLength="60" x="450.25" y="241.6543">Employee</text><line style="stroke:#A80036;stroke-width:1.5;" x1="392" x2="537" y1="253.5" y2="253.5"/><text fill="#000000" font-family="sans-serif" font-size="11" lengthAdjust="spacing" textLength="92" x="397" y="267.7104">int employeeID;</text><text fill="#000000" font-family="sans-serif" font-size="11" lengthAdjust="spacing" textLength="135" x="397" y="280.5151">String organizationRole;</text><text fill="#000000" font-family="sans-serif" font-size="11" lengthAdjust="spacing" textLength="73" x="397" y="293.3198">String name;</text><text fill="#000000" font-family="sans-serif" font-size="11" lengthAdjust="spacing" textLength="78" x="397" y="306.1245">String adress;</text><text fill="#000000" font-family="sans-serif" font-size="11" lengthAdjust="spacing" textLength="102" x="397" y="318.9292">int phoneNumber;</text><text fill="#000000" font-family="sans-serif" font-size="11" lengthAdjust="spacing" textLength="74" x="397" y="331.7339">int codeSOC;</text><line style="stroke:#A80036;stroke-width:1.5;" x1="392" x2="537" y1="338.3281" y2="338.3281"/><!--MD5=[df38be88ccee13e832d6fafd6288a4ca]
class Test--><rect codeLine="14" fill="#FEFECE" filter="url(#f1ji6p3c2adxmd)" height="176.0469" id="Test" style="stroke:#A80036;stroke-width:1.5;" width="159" x="195" y="196"/><ellipse cx="257.25" cy="212" fill="#ADD1B2" rx="11" ry="11" style="stroke:#A80036;stroke-width:1.0;"/><path d="M259.5938,207.6719 C258.6563,207.2344 258.0625,207.0938 257.1875,207.0938 C254.5625,207.0938 252.5625,209.1719 252.5625,211.8906 L252.5625,213.0156 C252.5625,215.5938 254.6719,217.4844 257.5625,217.4844 C258.7813,217.4844 259.9375,217.1875 260.6875,216.6406 C261.2656,216.2344 261.5938,215.7813 261.5938,215.3906 C261.5938,214.9375 261.2031,214.5469 260.7344,214.5469 C260.5156,214.5469 260.3125,214.625 260.125,214.8125 C259.6719,215.2969 259.6719,215.2969 259.4844,215.3906 C259.0625,215.6563 258.375,215.7813 257.6094,215.7813 C255.5625,215.7813 254.2656,214.6875 254.2656,212.9844 L254.2656,211.8906 C254.2656,210.1094 255.5156,208.7969 257.25,208.7969 C257.8281,208.7969 258.4375,208.9531 258.9063,209.2031 C259.3906,209.4844 259.5625,209.7031 259.6563,210.1094 C259.7188,210.5156 259.75,210.6406 259.8906,210.7656 C260.0313,210.9063 260.2656,211.0156 260.4844,211.0156 C260.75,211.0156 261.0156,210.875 261.1875,210.6563 C261.2969,210.5 261.3281,210.3125 261.3281,209.8906 L261.3281,208.4688 C261.3281,208.0313 261.3125,207.9063 261.2188,207.75 C261.0625,207.4844 260.7813,207.3438 260.4844,207.3438 C260.1875,207.3438 259.9844,207.4375 259.7656,207.75 L259.5938,207.6719 Z " fill="#000000"/><text fill="#000000" font-family="sans-serif" font-size="12" lengthAdjust="spacing" textLength="26" x="277.75" y="216.1543">Test</text><line style="stroke:#A80036;stroke-width:1.5;" x1="196" x2="353" y1="228" y2="228"/><text fill="#000000" font-family="sans-serif" font-size="11" lengthAdjust="spacing" textLength="114" x="201" y="242.2104">String testNHScode;</text><text fill="#000000" font-family="sans-serif" font-size="11" lengthAdjust="spacing" textLength="92" x="201" y="255.0151">String testCode;</text><text fill="#000000" font-family="sans-serif" font-size="11" lengthAdjust="spacing" textLength="110" x="201" y="267.8198">String dateSample;</text><text fill="#000000" font-family="sans-serif" font-size="11" lengthAdjust="spacing" textLength="110" x="201" y="280.6245">String timeSmaple;</text><text fill="#000000" font-family="sans-serif" font-size="11" lengthAdjust="spacing" textLength="147" x="201" y="293.4292">String dateChemAnalysis;</text><text fill="#000000" font-family="sans-serif" font-size="11" lengthAdjust="spacing" textLength="147" x="201" y="306.2339">String timeChemAnalysis;</text><text fill="#000000" font-family="sans-serif" font-size="11" lengthAdjust="spacing" textLength="121" x="201" y="319.0386">String dateDiagnosis;</text><text fill="#000000" font-family="sans-serif" font-size="11" lengthAdjust="spacing" textLength="121" x="201" y="331.8433">String timeDiagnosis;</text><text fill="#000000" font-family="sans-serif" font-size="11" lengthAdjust="spacing" textLength="119" x="201" y="344.6479">String dateValidTest;</text><text fill="#000000" font-family="sans-serif" font-size="11" lengthAdjust="spacing" textLength="119" x="201" y="357.4526">String timeValidTest;</text><line style="stroke:#A80036;stroke-width:1.5;" x1="196" x2="353" y1="364.0469" y2="364.0469"/><!--MD5=[1934a092c0e7d4da7dc7075b6f4b6b03]
class ClinicalAnalysisLaboratory--><rect codeLine="27" fill="#FEFECE" filter="url(#f1ji6p3c2adxmd)" height="112.0234" id="ClinicalAnalysisLaboratory" style="stroke:#A80036;stroke-width:1.5;" width="187" x="7" y="7"/><ellipse cx="22" cy="23" fill="#ADD1B2" rx="11" ry="11" style="stroke:#A80036;stroke-width:1.0;"/><path d="M24.3438,18.6719 C23.4063,18.2344 22.8125,18.0938 21.9375,18.0938 C19.3125,18.0938 17.3125,20.1719 17.3125,22.8906 L17.3125,24.0156 C17.3125,26.5938 19.4219,28.4844 22.3125,28.4844 C23.5313,28.4844 24.6875,28.1875 25.4375,27.6406 C26.0156,27.2344 26.3438,26.7813 26.3438,26.3906 C26.3438,25.9375 25.9531,25.5469 25.4844,25.5469 C25.2656,25.5469 25.0625,25.625 24.875,25.8125 C24.4219,26.2969 24.4219,26.2969 24.2344,26.3906 C23.8125,26.6563 23.125,26.7813 22.3594,26.7813 C20.3125,26.7813 19.0156,25.6875 19.0156,23.9844 L19.0156,22.8906 C19.0156,21.1094 20.2656,19.7969 22,19.7969 C22.5781,19.7969 23.1875,19.9531 23.6563,20.2031 C24.1406,20.4844 24.3125,20.7031 24.4063,21.1094 C24.4688,21.5156 24.5,21.6406 24.6406,21.7656 C24.7813,21.9063 25.0156,22.0156 25.2344,22.0156 C25.5,22.0156 25.7656,21.875 25.9375,21.6563 C26.0469,21.5 26.0781,21.3125 26.0781,20.8906 L26.0781,19.4688 C26.0781,19.0313 26.0625,18.9063 25.9688,18.75 C25.8125,18.4844 25.5313,18.3438 25.2344,18.3438 C24.9375,18.3438 24.7344,18.4375 24.5156,18.75 L24.3438,18.6719 Z " fill="#000000"/><text fill="#000000" font-family="sans-serif" font-size="12" lengthAdjust="spacing" textLength="155" x="36" y="27.1543">ClinicalAnalysisLaboratory</text><line style="stroke:#A80036;stroke-width:1.5;" x1="8" x2="193" y1="39" y2="39"/><text fill="#000000" font-family="sans-serif" font-size="11" lengthAdjust="spacing" textLength="109" x="13" y="53.2104">String laboratoryID;</text><text fill="#000000" font-family="sans-serif" font-size="11" lengthAdjust="spacing" textLength="73" x="13" y="66.0151">String name;</text><text fill="#000000" font-family="sans-serif" font-size="11" lengthAdjust="spacing" textLength="78" x="13" y="78.8198">String adress;</text><text fill="#000000" font-family="sans-serif" font-size="11" lengthAdjust="spacing" textLength="121" x="13" y="91.6245">String phoneNumber;</text><text fill="#000000" font-family="sans-serif" font-size="11" lengthAdjust="spacing" textLength="102" x="13" y="104.4292">String numberTIN;</text><line style="stroke:#A80036;stroke-width:1.5;" x1="8" x2="193" y1="111.0234" y2="111.0234"/><!--MD5=[aeb3272166074d8737a70b61b1e71682]
class TestType--><rect codeLine="35" fill="#FEFECE" filter="url(#f1ji6p3c2adxmd)" height="86.4141" id="TestType" style="stroke:#A80036;stroke-width:1.5;" width="154" x="645.5" y="475"/><ellipse cx="690.25" cy="491" fill="#ADD1B2" rx="11" ry="11" style="stroke:#A80036;stroke-width:1.0;"/><path d="M692.5938,486.6719 C691.6563,486.2344 691.0625,486.0938 690.1875,486.0938 C687.5625,486.0938 685.5625,488.1719 685.5625,490.8906 L685.5625,492.0156 C685.5625,494.5938 687.6719,496.4844 690.5625,496.4844 C691.7813,496.4844 692.9375,496.1875 693.6875,495.6406 C694.2656,495.2344 694.5938,494.7813 694.5938,494.3906 C694.5938,493.9375 694.2031,493.5469 693.7344,493.5469 C693.5156,493.5469 693.3125,493.625 693.125,493.8125 C692.6719,494.2969 692.6719,494.2969 692.4844,494.3906 C692.0625,494.6563 691.375,494.7813 690.6094,494.7813 C688.5625,494.7813 687.2656,493.6875 687.2656,491.9844 L687.2656,490.8906 C687.2656,489.1094 688.5156,487.7969 690.25,487.7969 C690.8281,487.7969 691.4375,487.9531 691.9063,488.2031 C692.3906,488.4844 692.5625,488.7031 692.6563,489.1094 C692.7188,489.5156 692.75,489.6406 692.8906,489.7656 C693.0313,489.9063 693.2656,490.0156 693.4844,490.0156 C693.75,490.0156 694.0156,489.875 694.1875,489.6563 C694.2969,489.5 694.3281,489.3125 694.3281,488.8906 L694.3281,487.4688 C694.3281,487.0313 694.3125,486.9063 694.2188,486.75 C694.0625,486.4844 693.7813,486.3438 693.4844,486.3438 C693.1875,486.3438 692.9844,486.4375 692.7656,486.75 L692.5938,486.6719 Z " fill="#000000"/><text fill="#000000" font-family="sans-serif" font-size="12" lengthAdjust="spacing" textLength="56" x="710.75" y="495.1543">TestType</text><line style="stroke:#A80036;stroke-width:1.5;" x1="646.5" x2="798.5" y1="507" y2="507"/><text fill="#000000" font-family="sans-serif" font-size="11" lengthAdjust="spacing" textLength="106" x="651.5" y="521.2104">String designation;</text><text fill="#000000" font-family="sans-serif" font-size="11" lengthAdjust="spacing" textLength="68" x="651.5" y="534.0151">String code;</text><text fill="#000000" font-family="sans-serif" font-size="11" lengthAdjust="spacing" textLength="142" x="651.5" y="546.8198">String collectingMethods;</text><line style="stroke:#A80036;stroke-width:1.5;" x1="646.5" x2="798.5" y1="553.4141" y2="553.4141"/><!--MD5=[1f6362a5c8f21d8d6a0fce68f3a92a4e]
class Parameter--><rect codeLine="41" fill="#FEFECE" filter="url(#f1ji6p3c2adxmd)" height="73.6094" id="Parameter" style="stroke:#A80036;stroke-width:1.5;" width="118" x="520.5" y="914"/><ellipse cx="546.75" cy="930" fill="#ADD1B2" rx="11" ry="11" style="stroke:#A80036;stroke-width:1.0;"/><path d="M549.0938,925.6719 C548.1563,925.2344 547.5625,925.0938 546.6875,925.0938 C544.0625,925.0938 542.0625,927.1719 542.0625,929.8906 L542.0625,931.0156 C542.0625,933.5938 544.1719,935.4844 547.0625,935.4844 C548.2813,935.4844 549.4375,935.1875 550.1875,934.6406 C550.7656,934.2344 551.0938,933.7813 551.0938,933.3906 C551.0938,932.9375 550.7031,932.5469 550.2344,932.5469 C550.0156,932.5469 549.8125,932.625 549.625,932.8125 C549.1719,933.2969 549.1719,933.2969 548.9844,933.3906 C548.5625,933.6563 547.875,933.7813 547.1094,933.7813 C545.0625,933.7813 543.7656,932.6875 543.7656,930.9844 L543.7656,929.8906 C543.7656,928.1094 545.0156,926.7969 546.75,926.7969 C547.3281,926.7969 547.9375,926.9531 548.4063,927.2031 C548.8906,927.4844 549.0625,927.7031 549.1563,928.1094 C549.2188,928.5156 549.25,928.6406 549.3906,928.7656 C549.5313,928.9063 549.7656,929.0156 549.9844,929.0156 C550.25,929.0156 550.5156,928.875 550.6875,928.6563 C550.7969,928.5 550.8281,928.3125 550.8281,927.8906 L550.8281,926.4688 C550.8281,926.0313 550.8125,925.9063 550.7188,925.75 C550.5625,925.4844 550.2813,925.3438 549.9844,925.3438 C549.6875,925.3438 549.4844,925.4375 549.2656,925.75 L549.0938,925.6719 Z " fill="#000000"/><text fill="#000000" font-family="sans-serif" font-size="12" lengthAdjust="spacing" textLength="61" x="563.25" y="934.1543">Parameter</text><line style="stroke:#A80036;stroke-width:1.5;" x1="521.5" x2="637.5" y1="946" y2="946"/><text fill="#000000" font-family="sans-serif" font-size="11" lengthAdjust="spacing" textLength="106" x="526.5" y="960.2104">String designation;</text><text fill="#000000" font-family="sans-serif" font-size="11" lengthAdjust="spacing" textLength="65" x="526.5" y="973.0151">String code</text><line style="stroke:#A80036;stroke-width:1.5;" x1="521.5" x2="637.5" y1="979.6094" y2="979.6094"/><!--MD5=[36afb6bbd95a8ac778c4537c55a683d5]
class ParameterCategory--><rect codeLine="46" fill="#FEFECE" filter="url(#f1ji6p3c2adxmd)" height="86.4141" id="ParameterCategory" style="stroke:#A80036;stroke-width:1.5;" width="148" x="648.5" y="1071.5"/><ellipse cx="663.5" cy="1087.5" fill="#ADD1B2" rx="11" ry="11" style="stroke:#A80036;stroke-width:1.0;"/><path d="M665.8438,1083.1719 C664.9063,1082.7344 664.3125,1082.5938 663.4375,1082.5938 C660.8125,1082.5938 658.8125,1084.6719 658.8125,1087.3906 L658.8125,1088.5156 C658.8125,1091.0938 660.9219,1092.9844 663.8125,1092.9844 C665.0313,1092.9844 666.1875,1092.6875 666.9375,1092.1406 C667.5156,1091.7344 667.8438,1091.2813 667.8438,1090.8906 C667.8438,1090.4375 667.4531,1090.0469 666.9844,1090.0469 C666.7656,1090.0469 666.5625,1090.125 666.375,1090.3125 C665.9219,1090.7969 665.9219,1090.7969 665.7344,1090.8906 C665.3125,1091.1563 664.625,1091.2813 663.8594,1091.2813 C661.8125,1091.2813 660.5156,1090.1875 660.5156,1088.4844 L660.5156,1087.3906 C660.5156,1085.6094 661.7656,1084.2969 663.5,1084.2969 C664.0781,1084.2969 664.6875,1084.4531 665.1563,1084.7031 C665.6406,1084.9844 665.8125,1085.2031 665.9063,1085.6094 C665.9688,1086.0156 666,1086.1406 666.1406,1086.2656 C666.2813,1086.4063 666.5156,1086.5156 666.7344,1086.5156 C667,1086.5156 667.2656,1086.375 667.4375,1086.1563 C667.5469,1086 667.5781,1085.8125 667.5781,1085.3906 L667.5781,1083.9688 C667.5781,1083.5313 667.5625,1083.4063 667.4688,1083.25 C667.3125,1082.9844 667.0313,1082.8438 666.7344,1082.8438 C666.4375,1082.8438 666.2344,1082.9375 666.0156,1083.25 L665.8438,1083.1719 Z " fill="#000000"/><text fill="#000000" font-family="sans-serif" font-size="12" lengthAdjust="spacing" textLength="116" x="677.5" y="1091.6543">ParameterCategory</text><line style="stroke:#A80036;stroke-width:1.5;" x1="649.5" x2="795.5" y1="1103.5" y2="1103.5"/><text fill="#000000" font-family="sans-serif" font-size="11" lengthAdjust="spacing" textLength="68" x="654.5" y="1117.7104">String code;</text><text fill="#000000" font-family="sans-serif" font-size="11" lengthAdjust="spacing" textLength="106" x="654.5" y="1130.5151">String designation;</text><text fill="#000000" font-family="sans-serif" font-size="11" lengthAdjust="spacing" textLength="76" x="654.5" y="1143.3198">String NHSID;</text><line style="stroke:#A80036;stroke-width:1.5;" x1="649.5" x2="795.5" y1="1149.9141" y2="1149.9141"/><!--MD5=[ed6624c6556d5e7b1bd23032162d20b7]
class Client--><rect codeLine="52" fill="#FEFECE" filter="url(#f1ji6p3c2adxmd)" height="137.6328" id="Client" style="stroke:#A80036;stroke-width:1.5;" width="161" x="194" y="449"/><ellipse cx="253.75" cy="465" fill="#ADD1B2" rx="11" ry="11" style="stroke:#A80036;stroke-width:1.0;"/><path d="M256.0938,460.6719 C255.1563,460.2344 254.5625,460.0938 253.6875,460.0938 C251.0625,460.0938 249.0625,462.1719 249.0625,464.8906 L249.0625,466.0156 C249.0625,468.5938 251.1719,470.4844 254.0625,470.4844 C255.2813,470.4844 256.4375,470.1875 257.1875,469.6406 C257.7656,469.2344 258.0938,468.7813 258.0938,468.3906 C258.0938,467.9375 257.7031,467.5469 257.2344,467.5469 C257.0156,467.5469 256.8125,467.625 256.625,467.8125 C256.1719,468.2969 256.1719,468.2969 255.9844,468.3906 C255.5625,468.6563 254.875,468.7813 254.1094,468.7813 C252.0625,468.7813 250.7656,467.6875 250.7656,465.9844 L250.7656,464.8906 C250.7656,463.1094 252.0156,461.7969 253.75,461.7969 C254.3281,461.7969 254.9375,461.9531 255.4063,462.2031 C255.8906,462.4844 256.0625,462.7031 256.1563,463.1094 C256.2188,463.5156 256.25,463.6406 256.3906,463.7656 C256.5313,463.9063 256.7656,464.0156 256.9844,464.0156 C257.25,464.0156 257.5156,463.875 257.6875,463.6563 C257.7969,463.5 257.8281,463.3125 257.8281,462.8906 L257.8281,461.4688 C257.8281,461.0313 257.8125,460.9063 257.7188,460.75 C257.5625,460.4844 257.2813,460.3438 256.9844,460.3438 C256.6875,460.3438 256.4844,460.4375 256.2656,460.75 L256.0938,460.6719 Z " fill="#000000"/><text fill="#000000" font-family="sans-serif" font-size="12" lengthAdjust="spacing" textLength="33" x="274.25" y="469.1543">Client</text><line style="stroke:#A80036;stroke-width:1.5;" x1="195" x2="354" y1="481" y2="481"/><text fill="#000000" font-family="sans-serif" font-size="11" lengthAdjust="spacing" textLength="149" x="200" y="495.2104">String citizenCardNumber;</text><text fill="#000000" font-family="sans-serif" font-size="11" lengthAdjust="spacing" textLength="108" x="200" y="508.0151">String numberNHS;</text><text fill="#000000" font-family="sans-serif" font-size="11" lengthAdjust="spacing" textLength="102" x="200" y="520.8198">String numberTIN;</text><text fill="#000000" font-family="sans-serif" font-size="11" lengthAdjust="spacing" textLength="93" x="200" y="533.6245">String birthDate;</text><text fill="#000000" font-family="sans-serif" font-size="11" lengthAdjust="spacing" textLength="61" x="200" y="546.4292">String sex;</text><text fill="#000000" font-family="sans-serif" font-size="11" lengthAdjust="spacing" textLength="121" x="200" y="559.2339">String phoneNumber;</text><text fill="#000000" font-family="sans-serif" font-size="11" lengthAdjust="spacing" textLength="70" x="200" y="572.0386">String name</text><line style="stroke:#A80036;stroke-width:1.5;" x1="195" x2="354" y1="578.6328" y2="578.6328"/><!--MD5=[f00dbe8c0302c6aec2cb26b3c659c8fc]
class Report--><rect codeLine="62" fill="#FEFECE" filter="url(#f1ji6p3c2adxmd)" height="60.8047" id="Report" style="stroke:#A80036;stroke-width:1.5;" width="75" x="84" y="487.5"/><ellipse cx="100.35" cy="503.5" fill="#ADD1B2" rx="11" ry="11" style="stroke:#A80036;stroke-width:1.0;"/><path d="M102.6938,499.1719 C101.7563,498.7344 101.1625,498.5938 100.2875,498.5938 C97.6625,498.5938 95.6625,500.6719 95.6625,503.3906 L95.6625,504.5156 C95.6625,507.0938 97.7719,508.9844 100.6625,508.9844 C101.8813,508.9844 103.0375,508.6875 103.7875,508.1406 C104.3656,507.7344 104.6938,507.2813 104.6938,506.8906 C104.6938,506.4375 104.3031,506.0469 103.8344,506.0469 C103.6156,506.0469 103.4125,506.125 103.225,506.3125 C102.7719,506.7969 102.7719,506.7969 102.5844,506.8906 C102.1625,507.1563 101.475,507.2813 100.7094,507.2813 C98.6625,507.2813 97.3656,506.1875 97.3656,504.4844 L97.3656,503.3906 C97.3656,501.6094 98.6156,500.2969 100.35,500.2969 C100.9281,500.2969 101.5375,500.4531 102.0063,500.7031 C102.4906,500.9844 102.6625,501.2031 102.7563,501.6094 C102.8188,502.0156 102.85,502.1406 102.9906,502.2656 C103.1313,502.4063 103.3656,502.5156 103.5844,502.5156 C103.85,502.5156 104.1156,502.375 104.2875,502.1563 C104.3969,502 104.4281,501.8125 104.4281,501.3906 L104.4281,499.9688 C104.4281,499.5313 104.4125,499.4063 104.3188,499.25 C104.1625,498.9844 103.8813,498.8438 103.5844,498.8438 C103.2875,498.8438 103.0844,498.9375 102.8656,499.25 L102.6938,499.1719 Z " fill="#000000"/><text fill="#000000" font-family="sans-serif" font-size="12" lengthAdjust="spacing" textLength="40" x="114.65" y="507.6543">Report</text><line style="stroke:#A80036;stroke-width:1.5;" x1="85" x2="158" y1="519.5" y2="519.5"/><text fill="#000000" font-family="sans-serif" font-size="11" lengthAdjust="spacing" textLength="63" x="90" y="533.7104">String text;</text><line style="stroke:#A80036;stroke-width:1.5;" x1="85" x2="158" y1="540.3047" y2="540.3047"/><!--MD5=[10d06bcee75aaf74ab8f6040820ceef2]
class Diagnosis--><rect codeLine="66" fill="#FEFECE" filter="url(#f1ji6p3c2adxmd)" height="48" id="Diagnosis" style="stroke:#A80036;stroke-width:1.5;" width="91" x="170" y="664"/><ellipse cx="185" cy="680" fill="#ADD1B2" rx="11" ry="11" style="stroke:#A80036;stroke-width:1.0;"/><path d="M187.3438,675.6719 C186.4063,675.2344 185.8125,675.0938 184.9375,675.0938 C182.3125,675.0938 180.3125,677.1719 180.3125,679.8906 L180.3125,681.0156 C180.3125,683.5938 182.4219,685.4844 185.3125,685.4844 C186.5313,685.4844 187.6875,685.1875 188.4375,684.6406 C189.0156,684.2344 189.3438,683.7813 189.3438,683.3906 C189.3438,682.9375 188.9531,682.5469 188.4844,682.5469 C188.2656,682.5469 188.0625,682.625 187.875,682.8125 C187.4219,683.2969 187.4219,683.2969 187.2344,683.3906 C186.8125,683.6563 186.125,683.7813 185.3594,683.7813 C183.3125,683.7813 182.0156,682.6875 182.0156,680.9844 L182.0156,679.8906 C182.0156,678.1094 183.2656,676.7969 185,676.7969 C185.5781,676.7969 186.1875,676.9531 186.6563,677.2031 C187.1406,677.4844 187.3125,677.7031 187.4063,678.1094 C187.4688,678.5156 187.5,678.6406 187.6406,678.7656 C187.7813,678.9063 188.0156,679.0156 188.2344,679.0156 C188.5,679.0156 188.7656,678.875 188.9375,678.6563 C189.0469,678.5 189.0781,678.3125 189.0781,677.8906 L189.0781,676.4688 C189.0781,676.0313 189.0625,675.9063 188.9688,675.75 C188.8125,675.4844 188.5313,675.3438 188.2344,675.3438 C187.9375,675.3438 187.7344,675.4375 187.5156,675.75 L187.3438,675.6719 Z " fill="#000000"/><text fill="#000000" font-family="sans-serif" font-size="12" lengthAdjust="spacing" textLength="59" x="199" y="684.1543">Diagnosis</text><line style="stroke:#A80036;stroke-width:1.5;" x1="171" x2="260" y1="696" y2="696"/><line style="stroke:#A80036;stroke-width:1.5;" x1="171" x2="260" y1="704" y2="704"/><!--MD5=[0f07739f46effee96e095e9c408da841]
class TestParameter--><rect codeLine="69" fill="#FEFECE" filter="url(#f1ji6p3c2adxmd)" height="48" id="TestParameter" style="stroke:#A80036;stroke-width:1.5;" width="119" x="348" y="789"/><ellipse cx="363" cy="805" fill="#ADD1B2" rx="11" ry="11" style="stroke:#A80036;stroke-width:1.0;"/><path d="M365.3438,800.6719 C364.4063,800.2344 363.8125,800.0938 362.9375,800.0938 C360.3125,800.0938 358.3125,802.1719 358.3125,804.8906 L358.3125,806.0156 C358.3125,808.5938 360.4219,810.4844 363.3125,810.4844 C364.5313,810.4844 365.6875,810.1875 366.4375,809.6406 C367.0156,809.2344 367.3438,808.7813 367.3438,808.3906 C367.3438,807.9375 366.9531,807.5469 366.4844,807.5469 C366.2656,807.5469 366.0625,807.625 365.875,807.8125 C365.4219,808.2969 365.4219,808.2969 365.2344,808.3906 C364.8125,808.6563 364.125,808.7813 363.3594,808.7813 C361.3125,808.7813 360.0156,807.6875 360.0156,805.9844 L360.0156,804.8906 C360.0156,803.1094 361.2656,801.7969 363,801.7969 C363.5781,801.7969 364.1875,801.9531 364.6563,802.2031 C365.1406,802.4844 365.3125,802.7031 365.4063,803.1094 C365.4688,803.5156 365.5,803.6406 365.6406,803.7656 C365.7813,803.9063 366.0156,804.0156 366.2344,804.0156 C366.5,804.0156 366.7656,803.875 366.9375,803.6563 C367.0469,803.5 367.0781,803.3125 367.0781,802.8906 L367.0781,801.4688 C367.0781,801.0313 367.0625,800.9063 366.9688,800.75 C366.8125,800.4844 366.5313,800.3438 366.2344,800.3438 C365.9375,800.3438 365.7344,800.4375 365.5156,800.75 L365.3438,800.6719 Z " fill="#000000"/><text fill="#000000" font-family="sans-serif" font-size="12" lengthAdjust="spacing" textLength="87" x="377" y="809.1543">TestParameter</text><line style="stroke:#A80036;stroke-width:1.5;" x1="349" x2="466" y1="821" y2="821"/><line style="stroke:#A80036;stroke-width:1.5;" x1="349" x2="466" y1="829" y2="829"/><!--MD5=[4e608140b854dae633589343bce77383]
class TestParameterResult--><rect codeLine="72" fill="#FEFECE" filter="url(#f1ji6p3c2adxmd)" height="73.6094" id="TestParameterResult" style="stroke:#A80036;stroke-width:1.5;" width="155" x="330" y="914"/><ellipse cx="345" cy="930" fill="#ADD1B2" rx="11" ry="11" style="stroke:#A80036;stroke-width:1.0;"/><path d="M347.3438,925.6719 C346.4063,925.2344 345.8125,925.0938 344.9375,925.0938 C342.3125,925.0938 340.3125,927.1719 340.3125,929.8906 L340.3125,931.0156 C340.3125,933.5938 342.4219,935.4844 345.3125,935.4844 C346.5313,935.4844 347.6875,935.1875 348.4375,934.6406 C349.0156,934.2344 349.3438,933.7813 349.3438,933.3906 C349.3438,932.9375 348.9531,932.5469 348.4844,932.5469 C348.2656,932.5469 348.0625,932.625 347.875,932.8125 C347.4219,933.2969 347.4219,933.2969 347.2344,933.3906 C346.8125,933.6563 346.125,933.7813 345.3594,933.7813 C343.3125,933.7813 342.0156,932.6875 342.0156,930.9844 L342.0156,929.8906 C342.0156,928.1094 343.2656,926.7969 345,926.7969 C345.5781,926.7969 346.1875,926.9531 346.6563,927.2031 C347.1406,927.4844 347.3125,927.7031 347.4063,928.1094 C347.4688,928.5156 347.5,928.6406 347.6406,928.7656 C347.7813,928.9063 348.0156,929.0156 348.2344,929.0156 C348.5,929.0156 348.7656,928.875 348.9375,928.6563 C349.0469,928.5 349.0781,928.3125 349.0781,927.8906 L349.0781,926.4688 C349.0781,926.0313 349.0625,925.9063 348.9688,925.75 C348.8125,925.4844 348.5313,925.3438 348.2344,925.3438 C347.9375,925.3438 347.7344,925.4375 347.5156,925.75 L347.3438,925.6719 Z " fill="#000000"/><text fill="#000000" font-family="sans-serif" font-size="12" lengthAdjust="spacing" textLength="123" x="359" y="934.1543">TestParameterResult</text><line style="stroke:#A80036;stroke-width:1.5;" x1="331" x2="484" y1="946" y2="946"/><text fill="#000000" font-family="sans-serif" font-size="11" lengthAdjust="spacing" textLength="72" x="336" y="960.2104">String result;</text><text fill="#000000" font-family="sans-serif" font-size="11" lengthAdjust="spacing" textLength="76" x="336" y="973.0151">String metric;</text><line style="stroke:#A80036;stroke-width:1.5;" x1="331" x2="484" y1="979.6094" y2="979.6094"/><!--MD5=[1c357e7e7fdba398bcadd6e61afe49f5]
class ReferenceValue--><rect codeLine="77" fill="#FEFECE" filter="url(#f1ji6p3c2adxmd)" height="99.2188" id="ReferenceValue" style="stroke:#A80036;stroke-width:1.5;" width="127" x="344" y="1065"/><ellipse cx="359" cy="1081" fill="#ADD1B2" rx="11" ry="11" style="stroke:#A80036;stroke-width:1.0;"/><path d="M361.3438,1076.6719 C360.4063,1076.2344 359.8125,1076.0938 358.9375,1076.0938 C356.3125,1076.0938 354.3125,1078.1719 354.3125,1080.8906 L354.3125,1082.0156 C354.3125,1084.5938 356.4219,1086.4844 359.3125,1086.4844 C360.5313,1086.4844 361.6875,1086.1875 362.4375,1085.6406 C363.0156,1085.2344 363.3438,1084.7813 363.3438,1084.3906 C363.3438,1083.9375 362.9531,1083.5469 362.4844,1083.5469 C362.2656,1083.5469 362.0625,1083.625 361.875,1083.8125 C361.4219,1084.2969 361.4219,1084.2969 361.2344,1084.3906 C360.8125,1084.6563 360.125,1084.7813 359.3594,1084.7813 C357.3125,1084.7813 356.0156,1083.6875 356.0156,1081.9844 L356.0156,1080.8906 C356.0156,1079.1094 357.2656,1077.7969 359,1077.7969 C359.5781,1077.7969 360.1875,1077.9531 360.6563,1078.2031 C361.1406,1078.4844 361.3125,1078.7031 361.4063,1079.1094 C361.4688,1079.5156 361.5,1079.6406 361.6406,1079.7656 C361.7813,1079.9063 362.0156,1080.0156 362.2344,1080.0156 C362.5,1080.0156 362.7656,1079.875 362.9375,1079.6563 C363.0469,1079.5 363.0781,1079.3125 363.0781,1078.8906 L363.0781,1077.4688 C363.0781,1077.0313 363.0625,1076.9063 362.9688,1076.75 C362.8125,1076.4844 362.5313,1076.3438 362.2344,1076.3438 C361.9375,1076.3438 361.7344,1076.4375 361.5156,1076.75 L361.3438,1076.6719 Z " fill="#000000"/><text fill="#000000" font-family="sans-serif" font-size="12" lengthAdjust="spacing" textLength="95" x="373" y="1085.1543">ReferenceValue</text><line style="stroke:#A80036;stroke-width:1.5;" x1="345" x2="470" y1="1097" y2="1097"/><text fill="#000000" font-family="sans-serif" font-size="11" lengthAdjust="spacing" textLength="68" x="350" y="1111.2104">String code;</text><text fill="#000000" font-family="sans-serif" font-size="11" lengthAdjust="spacing" textLength="69" x="350" y="1124.0151">Double min;</text><text fill="#000000" font-family="sans-serif" font-size="11" lengthAdjust="spacing" textLength="73" x="350" y="1136.8198">Double max;</text><text fill="#000000" font-family="sans-serif" font-size="11" lengthAdjust="spacing" textLength="102" x="350" y="1149.6245">String usedMetric;</text><line style="stroke:#A80036;stroke-width:1.5;" x1="345" x2="470" y1="1156.2188" y2="1156.2188"/><!--MD5=[052425de1c0eb6cc1c1b48342b0bb88f]
class LaboratoryCoordinator--><rect fill="#FEFECE" filter="url(#f1ji6p3c2adxmd)" height="48" id="LaboratoryCoordinator" style="stroke:#A80036;stroke-width:1.5;" width="168" x="252.5" y="39"/><ellipse cx="267.5" cy="55" fill="#ADD1B2" rx="11" ry="11" style="stroke:#A80036;stroke-width:1.0;"/><path d="M269.8438,50.6719 C268.9063,50.2344 268.3125,50.0938 267.4375,50.0938 C264.8125,50.0938 262.8125,52.1719 262.8125,54.8906 L262.8125,56.0156 C262.8125,58.5938 264.9219,60.4844 267.8125,60.4844 C269.0313,60.4844 270.1875,60.1875 270.9375,59.6406 C271.5156,59.2344 271.8438,58.7813 271.8438,58.3906 C271.8438,57.9375 271.4531,57.5469 270.9844,57.5469 C270.7656,57.5469 270.5625,57.625 270.375,57.8125 C269.9219,58.2969 269.9219,58.2969 269.7344,58.3906 C269.3125,58.6563 268.625,58.7813 267.8594,58.7813 C265.8125,58.7813 264.5156,57.6875 264.5156,55.9844 L264.5156,54.8906 C264.5156,53.1094 265.7656,51.7969 267.5,51.7969 C268.0781,51.7969 268.6875,51.9531 269.1563,52.2031 C269.6406,52.4844 269.8125,52.7031 269.9063,53.1094 C269.9688,53.5156 270,53.6406 270.1406,53.7656 C270.2813,53.9063 270.5156,54.0156 270.7344,54.0156 C271,54.0156 271.2656,53.875 271.4375,53.6563 C271.5469,53.5 271.5781,53.3125 271.5781,52.8906 L271.5781,51.4688 C271.5781,51.0313 271.5625,50.9063 271.4688,50.75 C271.3125,50.4844 271.0313,50.3438 270.7344,50.3438 C270.4375,50.3438 270.2344,50.4375 270.0156,50.75 L269.8438,50.6719 Z " fill="#000000"/><text fill="#000000" font-family="sans-serif" font-size="12" lengthAdjust="spacing" textLength="136" x="281.5" y="59.1543">LaboratoryCoordinator</text><line style="stroke:#A80036;stroke-width:1.5;" x1="253.5" x2="419.5" y1="71" y2="71"/><line style="stroke:#A80036;stroke-width:1.5;" x1="253.5" x2="419.5" y1="79" y2="79"/><!--MD5=[7e4bc624457760b649895ff2ead938fa]
link Company to Test--><path codeLine="85" d="M534.858,93.67 C505.517,109.3 469.576,129.29 438.5,149 C408.394,168.093 401.365,173.764 373.5,196 C367.151,201.066 360.659,206.401 354.186,211.831 " fill="none" id="Company-Test" style="stroke:#A80036;stroke-width:1.0;"/><polygon fill="#000000" points="439.3155,160.3031,448.494,157.812,445.2768,152.8927,439.3155,160.3031" style="stroke:#000000;stroke-width:1.0;"/><text fill="#000000" font-family="sans-serif" font-size="13" lengthAdjust="spacing" textLength="59" x="452.5" y="162.0669">performs</text><text fill="#000000" font-family="sans-serif" font-size="13" lengthAdjust="spacing" textLength="8" x="517.4191" y="111.6068">1</text><text fill="#000000" font-family="sans-serif" font-size="13" lengthAdjust="spacing" textLength="7" x="362.1147" y="201.3085">*</text><!--MD5=[742a261f27a3dcd734c626287d811acd]
link Company to TestType--><path codeLine="86" d="M601.801,93.85 C606.83,110.13 613.099,130.64 618.5,149 C653.167,266.83 692.041,406.54 710.938,474.972 " fill="none" id="Company-TestType" style="stroke:#A80036;stroke-width:1.0;"/><polygon fill="#000000" points="687.8765,288.8732,688.2118,279.3686,682.5611,280.9867,687.8765,288.8732" style="stroke:#000000;stroke-width:1.0;"/><text fill="#000000" font-family="sans-serif" font-size="13" lengthAdjust="spacing" textLength="23" x="695.5" y="288.5669">has</text><text fill="#000000" font-family="sans-serif" font-size="13" lengthAdjust="spacing" textLength="8" x="594.8115" y="113.2586">1</text><text fill="#000000" font-family="sans-serif" font-size="13" lengthAdjust="spacing" textLength="8" x="700.4578" y="463.9636">1</text><!--MD5=[93b4f25fb503a8e0e9a46b1d30ff3f44]
link Company to ParameterCategory--><path codeLine="87" d="M651.826,80.65 C734.811,107.98 875.5,170.864 875.5,283 C875.5,283 875.5,283 875.5,952 C875.5,1002.403 835.741,1043.386 796.759,1071.4551 " fill="none" id="Company-ParameterCategory" style="stroke:#A80036;stroke-width:1.0;"/><polygon fill="#000000" points="881.2237,693.0138,882.8225,683.6385,877.0065,684.4893,881.2237,693.0138" style="stroke:#000000;stroke-width:1.0;"/><text fill="#000000" font-family="sans-serif" font-size="13" lengthAdjust="spacing" textLength="23" x="889.5" y="692.5669">has</text><text fill="#000000" font-family="sans-serif" font-size="13" lengthAdjust="spacing" textLength="8" x="659.5439" y="78.9739">1</text><text fill="#000000" font-family="sans-serif" font-size="13" lengthAdjust="spacing" textLength="8" x="799.9565" y="1060.4439">1</text><!--MD5=[12d76240d3c3c66074d4ec2ea8bf469c]
link Company to Parameter--><path codeLine="88" d="M592.5,93.75 C592.5,135.88 592.5,215.323 592.5,283 C592.5,283 592.5,283 592.5,814 C592.5,847.918 588.444,886.379 584.863,913.724 " fill="none" id="Company-Parameter" style="stroke:#A80036;stroke-width:1.0;"/><polygon fill="#000000" points="597.4534,630.5662,600.4765,621.5489,594.5989,621.4941,597.4534,630.5662" style="stroke:#000000;stroke-width:1.0;"/><text fill="#000000" font-family="sans-serif" font-size="13" lengthAdjust="spacing" textLength="23" x="606.5" y="630.0669">has</text><text fill="#000000" font-family="sans-serif" font-size="13" lengthAdjust="spacing" textLength="8" x="583.7125" y="113.3797">1</text><text fill="#000000" font-family="sans-serif" font-size="13" lengthAdjust="spacing" textLength="8" x="577.1058" y="902.8618">1</text><!--MD5=[6df8849671cb880f6936e94aa30db6f9]
link Parameter to ParameterCategory--><path codeLine="90" d="M569.24,988.087 C566.918,1003.524 567.191,1021.143 575.5,1035 C590.761,1060.45 617.389,1078.1072 643.827,1090.1315 " fill="none" id="Parameter-to-ParameterCategory" style="stroke:#A80036;stroke-width:1.0;"/><polygon fill="#A80036" points="648.412,1092.1622,641.8041,1084.8591,643.8407,1090.1366,638.5631,1092.1732,648.412,1092.1622" style="stroke:#A80036;stroke-width:1.0;"/><polygon fill="#000000" points="583.4505,1030.6031,580.4857,1021.5664,575.7403,1025.0349,583.4505,1030.6031" style="stroke:#000000;stroke-width:1.0;"/><text fill="#000000" font-family="sans-serif" font-size="13" lengthAdjust="spacing" textLength="106" x="589.5" y="1031.0669">presented under</text><text fill="#000000" font-family="sans-serif" font-size="13" lengthAdjust="spacing" textLength="7" x="559.961" y="1007.582">*</text><text fill="#000000" font-family="sans-serif" font-size="13" lengthAdjust="spacing" textLength="8" x="632.3592" y="1086.1376">1</text><!--MD5=[3994f36c72829dbcddd1cf7021dddf61]
link Test to Client--><path codeLine="92" d="M274.5,372.048 C274.5,397.378 274.5,424.675 274.5,448.675 " fill="none" id="Test-Client" style="stroke:#A80036;stroke-width:1.0;"/><polygon fill="#000000" points="279.5,415.5664,282.4389,406.5213,276.5611,406.5213,279.5,415.5664" style="stroke:#000000;stroke-width:1.0;"/><text fill="#000000" font-family="sans-serif" font-size="13" lengthAdjust="spacing" textLength="85" x="288.5" y="415.0669">requested by</text><text fill="#000000" font-family="sans-serif" font-size="13" lengthAdjust="spacing" textLength="7" x="267.2102" y="392.031">*</text><text fill="#000000" font-family="sans-serif" font-size="13" lengthAdjust="spacing" textLength="8" x="266.0875" y="437.8451">1</text><!--MD5=[e981d4f96c4342412d1e68160b30cf70]
link Test to TestType--><path codeLine="93" d="M354.116,358.732 C360.497,363.462 366.995,367.945 373.5,372 C397.721,387.097 550.246,448.658 645.472,486.546 " fill="none" id="Test-TestType" style="stroke:#A80036;stroke-width:1.0;"/><polygon fill="#000000" points="484.0788,412.5751,476.9763,406.25,474.615,411.6327,484.0788,412.5751" style="stroke:#000000;stroke-width:1.0;"/><text fill="#000000" font-family="sans-serif" font-size="13" lengthAdjust="spacing" textLength="27" x="488.5" y="415.0669">is of</text><text fill="#000000" font-family="sans-serif" font-size="13" lengthAdjust="spacing" textLength="8" x="362.0857" y="378.6407">1</text><text fill="#000000" font-family="sans-serif" font-size="13" lengthAdjust="spacing" textLength="8" x="629.4958" y="479.7645">1</text><!--MD5=[8aaf0efd5e2f3824be7ea3e488dcc283]
link TestType to ParameterCategory--><path codeLine="94" d="M722.5,561.116 C722.5,595.095 722.5,644.125 722.5,687 C722.5,687 722.5,687 722.5,952 C722.5,992.515 722.5,1038.748 722.5,1071.3346 " fill="none" id="TestType-ParameterCategory" style="stroke:#A80036;stroke-width:1.0;"/><polygon fill="#000000" points="727.5,818.0664,730.4389,809.0213,724.5611,809.0213,727.5,818.0664" style="stroke:#000000;stroke-width:1.0;"/><text fill="#000000" font-family="sans-serif" font-size="13" lengthAdjust="spacing" textLength="85" x="736.5" y="817.5669">measured by</text><text fill="#000000" font-family="sans-serif" font-size="13" lengthAdjust="spacing" textLength="8" x="713.8375" y="581.5429">1</text><text fill="#000000" font-family="sans-serif" font-size="13" lengthAdjust="spacing" textLength="8" x="713.8625" y="1060.3047">1</text><!--MD5=[72163acd41df4db10e2bb78c0e4b52d4]
link Test to Report--><path codeLine="95" d="M217.093,372.048 C190.298,412.678 160.165,458.371 141.021,487.4 " fill="none" id="Test-Report" style="stroke:#A80036;stroke-width:1.0;"/><polygon fill="#000000" points="195.7473,414.7405,203.1804,408.8075,198.2735,405.5715,195.7473,414.7405" style="stroke:#000000;stroke-width:1.0;"/><text fill="#000000" font-family="sans-serif" font-size="13" lengthAdjust="spacing" textLength="23" x="207.5" y="415.0669">has</text><text fill="#000000" font-family="sans-serif" font-size="13" lengthAdjust="spacing" textLength="8" x="204.0077" y="392.031">1</text><text fill="#000000" font-family="sans-serif" font-size="13" lengthAdjust="spacing" textLength="8" x="136.2222" y="476.6426">1</text><!--MD5=[f24c888dadeb846430474fe80a58922b]
link Test to TestParameter--><path codeLine="96" d="M354.18,356.586 C365.498,370.519 375.613,385.854 382.5,402 C440.694,538.438 420.827,723.828 411.331,788.553 " fill="none" id="Test-TestParameter" style="stroke:#A80036;stroke-width:1.0;"/><polygon fill="#000000" points="428.1558,630.5232,429.883,621.1708,424.0559,621.9417,428.1558,630.5232" style="stroke:#000000;stroke-width:1.0;"/><text fill="#000000" font-family="sans-serif" font-size="13" lengthAdjust="spacing" textLength="23" x="436.5" y="630.0669">has</text><text fill="#000000" font-family="sans-serif" font-size="13" lengthAdjust="spacing" textLength="8" x="361.8943" y="359.657">1</text><text fill="#000000" font-family="sans-serif" font-size="13" lengthAdjust="spacing" textLength="7" x="404.4117" y="777.849">*</text><!--MD5=[9ea131e34883d590a1cfd41d17f43241]
link Report to Diagnosis--><path codeLine="98" d="M138.089,548.648 C156.483,581.523 185.769,633.863 202.551,663.857 " fill="none" id="Report-Diagnosis" style="stroke:#A80036;stroke-width:1.0;"/><polygon fill="#000000" points="192.9414,629.9298,191.0896,620.6013,185.9601,623.4714,192.9414,629.9298" style="stroke:#000000;stroke-width:1.0;"/><text fill="#000000" font-family="sans-serif" font-size="13" lengthAdjust="spacing" textLength="23" x="199.5" y="630.0669">has</text><text fill="#000000" font-family="sans-serif" font-size="13" lengthAdjust="spacing" textLength="8" x="132.5675" y="568.2576">1</text><text fill="#000000" font-family="sans-serif" font-size="13" lengthAdjust="spacing" textLength="8" x="190.2078" y="652.8324">1</text><!--MD5=[14feee8412b59bb6a0d308f3873ac034]
link Diagnosis to TestParameter--><path codeLine="99" d="M246.251,712.25 C265.273,726.308 290.393,744.293 313.5,759 C329.779,769.362 348.175,779.965 364.35,788.938 " fill="none" id="Diagnosis-TestParameter" style="stroke:#A80036;stroke-width:1.0;"/><polygon fill="#000000" points="322.6935,753.2894,316.708,745.8986,313.5069,750.8283,322.6935,753.2894" style="stroke:#000000;stroke-width:1.0;"/><text fill="#000000" font-family="sans-serif" font-size="13" lengthAdjust="spacing" textLength="54" x="327.5" y="755.0669">contains</text><text fill="#000000" font-family="sans-serif" font-size="13" lengthAdjust="spacing" textLength="8" x="244.7716" y="732.0721">1</text><text fill="#000000" font-family="sans-serif" font-size="13" lengthAdjust="spacing" textLength="7" x="345.3959" y="777.9341">*</text><!--MD5=[92e8e476cc9e9004a7125f53a120ec97]
link TestParameter to Parameter--><path codeLine="102" d="M436.677,837.071 C463.322,858.138 503.139,889.621 533.968,913.998 " fill="none" id="TestParameter-Parameter" style="stroke:#A80036;stroke-width:1.0;"/><polygon fill="#000000" points="502.4221,878.6676,497.1498,870.7522,493.5041,875.3629,502.4221,878.6676" style="stroke:#000000;stroke-width:1.0;"/><text fill="#000000" font-family="sans-serif" font-size="13" lengthAdjust="spacing" textLength="23" x="507.5" y="880.0669">has</text><text fill="#000000" font-family="sans-serif" font-size="13" lengthAdjust="spacing" textLength="8" x="435.1286" y="857.245">1</text><text fill="#000000" font-family="sans-serif" font-size="13" lengthAdjust="spacing" textLength="8" x="516.8355" y="902.9081">1</text><!--MD5=[0e00e25ac6b8c14659aaff2cf7e5df08]
link TestParameter to TestParameterResult--><path codeLine="103" d="M407.5,837.071 C407.5,858.138 407.5,889.621 407.5,913.998 " fill="none" id="TestParameter-TestParameterResult" style="stroke:#A80036;stroke-width:1.0;"/><polygon fill="#000000" points="412.5,880.5664,415.4389,871.5213,409.5611,871.5213,412.5,880.5664" style="stroke:#000000;stroke-width:1.0;"/><text fill="#000000" font-family="sans-serif" font-size="13" lengthAdjust="spacing" textLength="23" x="421.5" y="880.0669">has</text><text fill="#000000" font-family="sans-serif" font-size="13" lengthAdjust="spacing" textLength="8" x="398.475" y="857.245">1</text><text fill="#000000" font-family="sans-serif" font-size="13" lengthAdjust="spacing" textLength="8" x="398.7625" y="902.9081">1</text><!--MD5=[52200cc2361fa0ac0481dd6ffcdb824b]
link TestParameterResult to ReferenceValue--><path codeLine="106" d="M407.5,988.244 C407.5,1010.843 407.5,1040.205 407.5,1064.8197 " fill="none" id="TestParameterResult-ReferenceValue" style="stroke:#A80036;stroke-width:1.0;"/><polygon fill="#000000" points="412.5,1031.5664,415.4389,1022.5213,409.5611,1022.5213,412.5,1031.5664" style="stroke:#000000;stroke-width:1.0;"/><text fill="#000000" font-family="sans-serif" font-size="13" lengthAdjust="spacing" textLength="23" x="421.5" y="1031.0669">has</text><text fill="#000000" font-family="sans-serif" font-size="13" lengthAdjust="spacing" textLength="8" x="398.8375" y="1007.765">1</text><text fill="#000000" font-family="sans-serif" font-size="13" lengthAdjust="spacing" textLength="8" x="398.9375" y="1053.8399">1</text><!--MD5=[09366576ee87d48d594df10cacc83f45]
link Company to Employee--><path codeLine="108" d="M567.862,93.65 C555.276,109.53 540.192,129.73 528.5,149 C514.656,171.811 501.545,198.08 490.837,221.283 " fill="none" id="Company-Employee" style="stroke:#A80036;stroke-width:1.0;"/><polygon fill="#000000" points="530.9166,161.8473,538.1063,155.6216,533.0738,152.5846,530.9166,161.8473" style="stroke:#000000;stroke-width:1.0;"/><text fill="#000000" font-family="sans-serif" font-size="13" lengthAdjust="spacing" textLength="23" x="542.5" y="162.0669">has</text><text fill="#000000" font-family="sans-serif" font-size="13" lengthAdjust="spacing" textLength="8" x="554.2239" y="113.26">1</text><text fill="#000000" font-family="sans-serif" font-size="13" lengthAdjust="spacing" textLength="7" x="486.4775" y="210.2487">*</text><!--MD5=[bc1c1d8da623d615fbfb1cbca2838790]
link LaboratoryCoordinator to Employee--><path codeLine="110" d="M345.231,87.33 C353.491,108.43 366.787,140.08 381.5,166 C388.769,178.806 397.107,191.937 405.633,204.561 " fill="none" id="LaboratoryCoordinator-to-Employee" style="stroke:#A80036;stroke-width:1.0;"/><polygon fill="none" points="411.653,200.957,417.294,221.382,400.147,208.933,411.653,200.957" style="stroke:#A80036;stroke-width:1.0;"/><!--MD5=[fe28b095a1a99c1f24c8c2245ad2ba4f]
link LaboratoryCoordinator to Test--><path codeLine="111" d="M280.297,87.09 C254.383,100.92 226.171,121.28 211.5,149 C203.563,164 203.906,180.166 208.787,195.908 " fill="none" id="LaboratoryCoordinator-Test" style="stroke:#A80036;stroke-width:1.0;"/><polygon fill="#000000" points="213.7541,161.7449,221.1776,155.7999,216.2654,152.5719,213.7541,161.7449" style="stroke:#000000;stroke-width:1.0;"/><text fill="#000000" font-family="sans-serif" font-size="13" lengthAdjust="spacing" textLength="107" x="225.5" y="162.0669">imports from file</text><text fill="#000000" font-family="sans-serif" font-size="13" lengthAdjust="spacing" textLength="8" x="257.6225" y="106.8731">1</text><text fill="#000000" font-family="sans-serif" font-size="13" lengthAdjust="spacing" textLength="7" x="196.0553" y="185.0622">*</text><!--MD5=[d480452e7d21fe720ba0207568bc7434]
link ClinicalAnalysisLaboratory to Test--><path codeLine="113" d="M106.4295,119.12 C109.957,135.14 115.57,152.06 124.5,166 C142.226,193.671 168.832,217.507 194.739,236.309 " fill="none" id="ClinicalAnalysisLaboratory-Test" style="stroke:#A80036;stroke-width:1.0;"/><polygon fill="#000000" points="132.5091,161.5596,129.4127,152.5672,124.7185,156.1046,132.5091,161.5596" style="stroke:#000000;stroke-width:1.0;"/><text fill="#000000" font-family="sans-serif" font-size="13" lengthAdjust="spacing" textLength="59" x="138.5" y="162.0669">performs</text><text fill="#000000" font-family="sans-serif" font-size="13" lengthAdjust="spacing" textLength="8" x="98.6647" y="138.9472">1</text><text fill="#000000" font-family="sans-serif" font-size="13" lengthAdjust="spacing" textLength="7" x="180.0634" y="228.2919">*</text><!--MD5=[55615952cea2755006f0b02851904b68]
@startuml
class Company{
String designation;
}

class Employee{
    int employeeID;
    String organizationRole;
    String name;
    String adress;
    int phoneNumber;
    int codeSOC;
}

class Test{
String testNHScode;
String testCode;
String dateSample;
String timeSmaple;
String dateChemAnalysis;
String timeChemAnalysis;
String dateDiagnosis;
String timeDiagnosis;
String dateValidTest;
String timeValidTest;
}

class ClinicalAnalysisLaboratory{
String laboratoryID;
String name;
String adress;
String phoneNumber;
String numberTIN;
}

class TestType {
    String designation;
    String code;
    String collectingMethods;
}

class Parameter{
    String designation;
    String code
}

class ParameterCategory{
    String code;
    String designation;
    String NHSID;
}

class Client{
    String citizenCardNumber;
    String numberNHS;
    String numberTIN;
    String birthDate;
    String sex;
    String phoneNumber;
    String name
}

class Report{
String text;
}

class Diagnosis{
}

class TestParameter{
}

class TestParameterResult{
String result;
String metric;
}

class ReferenceValue{
String code;
Double min;
Double max;
String usedMetric;
}


Company "1" - - "*" Test :performs >
Company "1" - - "1" TestType :has >
Company "1" - - "1" ParameterCategory :has >
Company "1" - - "1" Parameter :has >

Parameter "*" - -> "1" ParameterCategory :presented under >

Test "*" - - "1" Client :requested by >
Test "1" - - "1" TestType :is of >
TestType "1" - - "1" ParameterCategory :measured by >
Test "1" - - "1" Report :has >
Test "1" - - "*" TestParameter : has >

Report "1" - - "1" Diagnosis :has >
Diagnosis "1" - - "*" TestParameter :contains >


TestParameter "1" - - "1" Parameter :has >
TestParameter "1" - - "1" TestParameterResult :has >


TestParameterResult "1" - - "1" ReferenceValue: has >

Company "1" - - "*" Employee :has >

LaboratoryCoordinator  - -|> Employee
LaboratoryCoordinator "1" - - "*" Test :imports from file >

ClinicalAnalysisLaboratory "1" - - "*" Test: performs >
@enduml

PlantUML version 1.2021.7(Sun May 23 12:40:07 UTC 2021)
(GPL source distribution)
Java Runtime: Java(TM) SE Runtime Environment
JVM: Java HotSpot(TM) 64-Bit Server VM
Default Encoding: UTF-8
Language: en
Country: US
--></g></svg>