<?xml version="1.0" encoding="UTF-8" standalone="no"?><svg xmlns="http://www.w3.org/2000/svg" xmlns:xlink="http://www.w3.org/1999/xlink" contentScriptType="application/ecmascript" contentStyleType="text/css" height="1992px" preserveAspectRatio="none" style="width:1323px;height:1992px;background:#FFFFFF;" version="1.1" viewBox="0 0 1323 1992" width="1323px" zoomAndPan="magnify"><defs><filter height="300%" id="f1lh5kgnsy3qz2" width="300%" x="-1" y="-1"><feGaussianBlur result="blurOut" stdDeviation="2.0"/><feColorMatrix in="blurOut" result="blurOut2" type="matrix" values="0 0 0 0 0 0 0 0 0 0 0 0 0 0 0 0 0 0 .4 0"/><feOffset dx="4.0" dy="4.0" in="blurOut2" result="blurOut3"/><feBlend in="SourceGraphic" in2="blurOut3" mode="normal"/></filter></defs><g><!--MD5=[b6fb8ce4d0d44ac659edd91259bf20d1]
class TestFileUI--><rect codeLine="1" fill="#FEFECE" filter="url(#f1lh5kgnsy3qz2)" height="48" id="TestFileUI" style="stroke:#A80036;stroke-width:1.5;" width="91" x="651.5" y="7"/><ellipse cx="666.5" cy="23" fill="#ADD1B2" rx="11" ry="11" style="stroke:#A80036;stroke-width:1.0;"/><path d="M668.8438,18.6719 C667.9063,18.2344 667.3125,18.0938 666.4375,18.0938 C663.8125,18.0938 661.8125,20.1719 661.8125,22.8906 L661.8125,24.0156 C661.8125,26.5938 663.9219,28.4844 666.8125,28.4844 C668.0313,28.4844 669.1875,28.1875 669.9375,27.6406 C670.5156,27.2344 670.8438,26.7813 670.8438,26.3906 C670.8438,25.9375 670.4531,25.5469 669.9844,25.5469 C669.7656,25.5469 669.5625,25.625 669.375,25.8125 C668.9219,26.2969 668.9219,26.2969 668.7344,26.3906 C668.3125,26.6563 667.625,26.7813 666.8594,26.7813 C664.8125,26.7813 663.5156,25.6875 663.5156,23.9844 L663.5156,22.8906 C663.5156,21.1094 664.7656,19.7969 666.5,19.7969 C667.0781,19.7969 667.6875,19.9531 668.1563,20.2031 C668.6406,20.4844 668.8125,20.7031 668.9063,21.1094 C668.9688,21.5156 669,21.6406 669.1406,21.7656 C669.2813,21.9063 669.5156,22.0156 669.7344,22.0156 C670,22.0156 670.2656,21.875 670.4375,21.6563 C670.5469,21.5 670.5781,21.3125 670.5781,20.8906 L670.5781,19.4688 C670.5781,19.0313 670.5625,18.9063 670.4688,18.75 C670.3125,18.4844 670.0313,18.3438 669.7344,18.3438 C669.4375,18.3438 669.2344,18.4375 669.0156,18.75 L668.8438,18.6719 Z " fill="#000000"/><text fill="#000000" font-family="sans-serif" font-size="12" lengthAdjust="spacing" textLength="59" x="680.5" y="27.1543">TestFileUI</text><line style="stroke:#A80036;stroke-width:1.5;" x1="652.5" x2="741.5" y1="39" y2="39"/><line style="stroke:#A80036;stroke-width:1.5;" x1="652.5" x2="741.5" y1="47" y2="47"/><!--MD5=[8f608b8dc8a5b6bb1c55e9f6f580d7fc]
class TestFileController--><rect codeLine="4" fill="#FEFECE" filter="url(#f1lh5kgnsy3qz2)" height="176.0469" id="TestFileController" style="stroke:#A80036;stroke-width:1.5;" width="138" x="628" y="116"/><ellipse cx="643" cy="132" fill="#ADD1B2" rx="11" ry="11" style="stroke:#A80036;stroke-width:1.0;"/><path d="M645.3438,127.6719 C644.4063,127.2344 643.8125,127.0938 642.9375,127.0938 C640.3125,127.0938 638.3125,129.1719 638.3125,131.8906 L638.3125,133.0156 C638.3125,135.5938 640.4219,137.4844 643.3125,137.4844 C644.5313,137.4844 645.6875,137.1875 646.4375,136.6406 C647.0156,136.2344 647.3438,135.7813 647.3438,135.3906 C647.3438,134.9375 646.9531,134.5469 646.4844,134.5469 C646.2656,134.5469 646.0625,134.625 645.875,134.8125 C645.4219,135.2969 645.4219,135.2969 645.2344,135.3906 C644.8125,135.6563 644.125,135.7813 643.3594,135.7813 C641.3125,135.7813 640.0156,134.6875 640.0156,132.9844 L640.0156,131.8906 C640.0156,130.1094 641.2656,128.7969 643,128.7969 C643.5781,128.7969 644.1875,128.9531 644.6563,129.2031 C645.1406,129.4844 645.3125,129.7031 645.4063,130.1094 C645.4688,130.5156 645.5,130.6406 645.6406,130.7656 C645.7813,130.9063 646.0156,131.0156 646.2344,131.0156 C646.5,131.0156 646.7656,130.875 646.9375,130.6563 C647.0469,130.5 647.0781,130.3125 647.0781,129.8906 L647.0781,128.4688 C647.0781,128.0313 647.0625,127.9063 646.9688,127.75 C646.8125,127.4844 646.5313,127.3438 646.2344,127.3438 C645.9375,127.3438 645.7344,127.4375 645.5156,127.75 L645.3438,127.6719 Z " fill="#000000"/><text fill="#000000" font-family="sans-serif" font-size="12" lengthAdjust="spacing" textLength="106" x="657" y="136.1543">TestFileController</text><line style="stroke:#A80036;stroke-width:1.5;" x1="629" x2="765" y1="148" y2="148"/><text fill="#000000" font-family="sans-serif" font-size="11" lengthAdjust="spacing" textLength="69" x="634" y="162.2104">String[] line;</text><line style="stroke:#A80036;stroke-width:1.5;" x1="629" x2="765" y1="168.8047" y2="168.8047"/><text fill="#000000" font-family="sans-serif" font-size="11" lengthAdjust="spacing" textLength="76" x="634" y="183.0151">getTestLine()</text><text fill="#000000" font-family="sans-serif" font-size="11" lengthAdjust="spacing" textLength="65" x="634" y="195.8198">validCode()</text><text fill="#000000" font-family="sans-serif" font-size="11" lengthAdjust="spacing" textLength="55" x="634" y="208.6245">validLab()</text><text fill="#000000" font-family="sans-serif" font-size="11" lengthAdjust="spacing" textLength="68" x="634" y="221.4292">validClient()</text><text fill="#000000" font-family="sans-serif" font-size="11" lengthAdjust="spacing" textLength="89" x="634" y="234.2339">validTestType()</text><text fill="#000000" font-family="sans-serif" font-size="11" lengthAdjust="spacing" textLength="87" x="634" y="247.0386">validCategory()</text><text fill="#000000" font-family="sans-serif" font-size="11" lengthAdjust="spacing" textLength="94" x="634" y="259.8433">validParameter()</text><text fill="#000000" font-family="sans-serif" font-size="11" lengthAdjust="spacing" textLength="92" x="634" y="272.6479">validDateTime()</text><text fill="#000000" font-family="sans-serif" font-size="11" lengthAdjust="spacing" textLength="100" x="634" y="285.4526">addCreatedTest()</text><!--MD5=[60b59e3d7d8b95aff167b5157d975660]
class CSVReader--><rect codeLine="17" fill="#FEFECE" filter="url(#f1lh5kgnsy3qz2)" height="60.8047" id="CSVReader" style="stroke:#A80036;stroke-width:1.5;" width="130" x="7" y="397.5"/><ellipse cx="35.95" cy="413.5" fill="#ADD1B2" rx="11" ry="11" style="stroke:#A80036;stroke-width:1.0;"/><path d="M38.2938,409.1719 C37.3563,408.7344 36.7625,408.5938 35.8875,408.5938 C33.2625,408.5938 31.2625,410.6719 31.2625,413.3906 L31.2625,414.5156 C31.2625,417.0938 33.3719,418.9844 36.2625,418.9844 C37.4813,418.9844 38.6375,418.6875 39.3875,418.1406 C39.9656,417.7344 40.2938,417.2813 40.2938,416.8906 C40.2938,416.4375 39.9031,416.0469 39.4344,416.0469 C39.2156,416.0469 39.0125,416.125 38.825,416.3125 C38.3719,416.7969 38.3719,416.7969 38.1844,416.8906 C37.7625,417.1563 37.075,417.2813 36.3094,417.2813 C34.2625,417.2813 32.9656,416.1875 32.9656,414.4844 L32.9656,413.3906 C32.9656,411.6094 34.2156,410.2969 35.95,410.2969 C36.5281,410.2969 37.1375,410.4531 37.6063,410.7031 C38.0906,410.9844 38.2625,411.2031 38.3563,411.6094 C38.4188,412.0156 38.45,412.1406 38.5906,412.2656 C38.7313,412.4063 38.9656,412.5156 39.1844,412.5156 C39.45,412.5156 39.7156,412.375 39.8875,412.1563 C39.9969,412 40.0281,411.8125 40.0281,411.3906 L40.0281,409.9688 C40.0281,409.5313 40.0125,409.4063 39.9188,409.25 C39.7625,408.9844 39.4813,408.8438 39.1844,408.8438 C38.8875,408.8438 38.6844,408.9375 38.4656,409.25 L38.2938,409.1719 Z " fill="#000000"/><text fill="#000000" font-family="sans-serif" font-size="12" lengthAdjust="spacing" textLength="67" x="53.05" y="417.6543">CSVReader</text><line style="stroke:#A80036;stroke-width:1.5;" x1="8" x2="136" y1="429.5" y2="429.5"/><line style="stroke:#A80036;stroke-width:1.5;" x1="8" x2="136" y1="437.5" y2="437.5"/><text fill="#000000" font-family="sans-serif" font-size="11" lengthAdjust="spacing" textLength="118" x="13" y="451.7104">createTestFromFile()</text><!--MD5=[02e4b9b7573f1156f41e60aa5b4e25a4]
class Company--><rect codeLine="21" fill="#FEFECE" filter="url(#f1lh5kgnsy3qz2)" height="150.4375" id="Company" style="stroke:#A80036;stroke-width:1.5;" width="181" x="498.5" y="353"/><ellipse cx="556.75" cy="369" fill="#ADD1B2" rx="11" ry="11" style="stroke:#A80036;stroke-width:1.0;"/><path d="M559.0938,364.6719 C558.1563,364.2344 557.5625,364.0938 556.6875,364.0938 C554.0625,364.0938 552.0625,366.1719 552.0625,368.8906 L552.0625,370.0156 C552.0625,372.5938 554.1719,374.4844 557.0625,374.4844 C558.2813,374.4844 559.4375,374.1875 560.1875,373.6406 C560.7656,373.2344 561.0938,372.7813 561.0938,372.3906 C561.0938,371.9375 560.7031,371.5469 560.2344,371.5469 C560.0156,371.5469 559.8125,371.625 559.625,371.8125 C559.1719,372.2969 559.1719,372.2969 558.9844,372.3906 C558.5625,372.6563 557.875,372.7813 557.1094,372.7813 C555.0625,372.7813 553.7656,371.6875 553.7656,369.9844 L553.7656,368.8906 C553.7656,367.1094 555.0156,365.7969 556.75,365.7969 C557.3281,365.7969 557.9375,365.9531 558.4063,366.2031 C558.8906,366.4844 559.0625,366.7031 559.1563,367.1094 C559.2188,367.5156 559.25,367.6406 559.3906,367.7656 C559.5313,367.9063 559.7656,368.0156 559.9844,368.0156 C560.25,368.0156 560.5156,367.875 560.6875,367.6563 C560.7969,367.5 560.8281,367.3125 560.8281,366.8906 L560.8281,365.4688 C560.8281,365.0313 560.8125,364.9063 560.7188,364.75 C560.5625,364.4844 560.2813,364.3438 559.9844,364.3438 C559.6875,364.3438 559.4844,364.4375 559.2656,364.75 L559.0938,364.6719 Z " fill="#000000"/><text fill="#000000" font-family="sans-serif" font-size="12" lengthAdjust="spacing" textLength="56" x="577.25" y="373.1543">Company</text><line style="stroke:#A80036;stroke-width:1.5;" x1="499.5" x2="678.5" y1="385" y2="385"/><text fill="#000000" font-family="sans-serif" font-size="11" lengthAdjust="spacing" textLength="69" x="504.5" y="399.2104">designation;</text><line style="stroke:#A80036;stroke-width:1.5;" x1="499.5" x2="678.5" y1="405.8047" y2="405.8047"/><text fill="#000000" font-family="sans-serif" font-size="11" lengthAdjust="spacing" textLength="83" x="504.5" y="420.0151">getTestStore()</text><text fill="#000000" font-family="sans-serif" font-size="11" lengthAdjust="spacing" textLength="91" x="504.5" y="432.8198">getClientStore()</text><text fill="#000000" font-family="sans-serif" font-size="11" lengthAdjust="spacing" textLength="94" x="504.5" y="445.6245">getAuthFacade()</text><text fill="#000000" font-family="sans-serif" font-size="11" lengthAdjust="spacing" textLength="112" x="504.5" y="458.4292">getTestTypeStore()</text><text fill="#000000" font-family="sans-serif" font-size="11" lengthAdjust="spacing" textLength="169" x="504.5" y="471.2339">getParameterCategoryStore()</text><text fill="#000000" font-family="sans-serif" font-size="11" lengthAdjust="spacing" textLength="117" x="504.5" y="484.0386">getParameterStore()</text><text fill="#000000" font-family="sans-serif" font-size="11" lengthAdjust="spacing" textLength="91" x="504.5" y="496.8433">getTestVStore()</text><!--MD5=[0f6f7964b844a64b0496af0dda7914bd]
class TestStore--><rect codeLine="32" fill="#FEFECE" filter="url(#f1lh5kgnsy3qz2)" height="60.8047" id="TestStore" style="stroke:#A80036;stroke-width:1.5;" width="103" x="164.5" y="586.5"/><ellipse cx="184.9" cy="602.5" fill="#ADD1B2" rx="11" ry="11" style="stroke:#A80036;stroke-width:1.0;"/><path d="M187.2438,598.1719 C186.3063,597.7344 185.7125,597.5938 184.8375,597.5938 C182.2125,597.5938 180.2125,599.6719 180.2125,602.3906 L180.2125,603.5156 C180.2125,606.0938 182.3219,607.9844 185.2125,607.9844 C186.4313,607.9844 187.5875,607.6875 188.3375,607.1406 C188.9156,606.7344 189.2438,606.2813 189.2438,605.8906 C189.2438,605.4375 188.8531,605.0469 188.3844,605.0469 C188.1656,605.0469 187.9625,605.125 187.775,605.3125 C187.3219,605.7969 187.3219,605.7969 187.1344,605.8906 C186.7125,606.1563 186.025,606.2813 185.2594,606.2813 C183.2125,606.2813 181.9156,605.1875 181.9156,603.4844 L181.9156,602.3906 C181.9156,600.6094 183.1656,599.2969 184.9,599.2969 C185.4781,599.2969 186.0875,599.4531 186.5563,599.7031 C187.0406,599.9844 187.2125,600.2031 187.3063,600.6094 C187.3688,601.0156 187.4,601.1406 187.5406,601.2656 C187.6813,601.4063 187.9156,601.5156 188.1344,601.5156 C188.4,601.5156 188.6656,601.375 188.8375,601.1563 C188.9469,601 188.9781,600.8125 188.9781,600.3906 L188.9781,598.9688 C188.9781,598.5313 188.9625,598.4063 188.8688,598.25 C188.7125,597.9844 188.4313,597.8438 188.1344,597.8438 C187.8375,597.8438 187.6344,597.9375 187.4156,598.25 L187.2438,598.1719 Z " fill="#000000"/><text fill="#000000" font-family="sans-serif" font-size="12" lengthAdjust="spacing" textLength="59" x="200.1" y="606.6543">TestStore</text><line style="stroke:#A80036;stroke-width:1.5;" x1="165.5" x2="266.5" y1="618.5" y2="618.5"/><line style="stroke:#A80036;stroke-width:1.5;" x1="165.5" x2="266.5" y1="626.5" y2="626.5"/><text fill="#000000" font-family="sans-serif" font-size="11" lengthAdjust="spacing" textLength="91" x="170.5" y="640.7104">getTestByNHS()</text><!--MD5=[eeaa54ee0aa678e9ddb3a2f87e018790]
class RegisterClinicalStore--><rect codeLine="36" fill="#FEFECE" filter="url(#f1lh5kgnsy3qz2)" height="60.8047" id="RegisterClinicalStore" style="stroke:#A80036;stroke-width:1.5;" width="156" x="603" y="586.5"/><ellipse cx="618" cy="602.5" fill="#ADD1B2" rx="11" ry="11" style="stroke:#A80036;stroke-width:1.0;"/><path d="M620.3438,598.1719 C619.4063,597.7344 618.8125,597.5938 617.9375,597.5938 C615.3125,597.5938 613.3125,599.6719 613.3125,602.3906 L613.3125,603.5156 C613.3125,606.0938 615.4219,607.9844 618.3125,607.9844 C619.5313,607.9844 620.6875,607.6875 621.4375,607.1406 C622.0156,606.7344 622.3438,606.2813 622.3438,605.8906 C622.3438,605.4375 621.9531,605.0469 621.4844,605.0469 C621.2656,605.0469 621.0625,605.125 620.875,605.3125 C620.4219,605.7969 620.4219,605.7969 620.2344,605.8906 C619.8125,606.1563 619.125,606.2813 618.3594,606.2813 C616.3125,606.2813 615.0156,605.1875 615.0156,603.4844 L615.0156,602.3906 C615.0156,600.6094 616.2656,599.2969 618,599.2969 C618.5781,599.2969 619.1875,599.4531 619.6563,599.7031 C620.1406,599.9844 620.3125,600.2031 620.4063,600.6094 C620.4688,601.0156 620.5,601.1406 620.6406,601.2656 C620.7813,601.4063 621.0156,601.5156 621.2344,601.5156 C621.5,601.5156 621.7656,601.375 621.9375,601.1563 C622.0469,601 622.0781,600.8125 622.0781,600.3906 L622.0781,598.9688 C622.0781,598.5313 622.0625,598.4063 621.9688,598.25 C621.8125,597.9844 621.5313,597.8438 621.2344,597.8438 C620.9375,597.8438 620.7344,597.9375 620.5156,598.25 L620.3438,598.1719 Z " fill="#000000"/><text fill="#000000" font-family="sans-serif" font-size="12" lengthAdjust="spacing" textLength="124" x="632" y="606.6543">RegisterClinicalStore</text><line style="stroke:#A80036;stroke-width:1.5;" x1="604" x2="758" y1="618.5" y2="618.5"/><line style="stroke:#A80036;stroke-width:1.5;" x1="604" x2="758" y1="626.5" y2="626.5"/><text fill="#000000" font-family="sans-serif" font-size="11" lengthAdjust="spacing" textLength="82" x="609" y="640.7104">getClinicById()</text><!--MD5=[55cb992be19579b505cea3c5691093cb]
class ClientStore--><rect codeLine="40" fill="#FEFECE" filter="url(#f1lh5kgnsy3qz2)" height="60.8047" id="ClientStore" style="stroke:#A80036;stroke-width:1.5;" width="105" x="24.5" y="586.5"/><ellipse cx="42.65" cy="602.5" fill="#ADD1B2" rx="11" ry="11" style="stroke:#A80036;stroke-width:1.0;"/><path d="M44.9938,598.1719 C44.0563,597.7344 43.4625,597.5938 42.5875,597.5938 C39.9625,597.5938 37.9625,599.6719 37.9625,602.3906 L37.9625,603.5156 C37.9625,606.0938 40.0719,607.9844 42.9625,607.9844 C44.1813,607.9844 45.3375,607.6875 46.0875,607.1406 C46.6656,606.7344 46.9938,606.2813 46.9938,605.8906 C46.9938,605.4375 46.6031,605.0469 46.1344,605.0469 C45.9156,605.0469 45.7125,605.125 45.525,605.3125 C45.0719,605.7969 45.0719,605.7969 44.8844,605.8906 C44.4625,606.1563 43.775,606.2813 43.0094,606.2813 C40.9625,606.2813 39.6656,605.1875 39.6656,603.4844 L39.6656,602.3906 C39.6656,600.6094 40.9156,599.2969 42.65,599.2969 C43.2281,599.2969 43.8375,599.4531 44.3063,599.7031 C44.7906,599.9844 44.9625,600.2031 45.0563,600.6094 C45.1188,601.0156 45.15,601.1406 45.2906,601.2656 C45.4313,601.4063 45.6656,601.5156 45.8844,601.5156 C46.15,601.5156 46.4156,601.375 46.5875,601.1563 C46.6969,601 46.7281,600.8125 46.7281,600.3906 L46.7281,598.9688 C46.7281,598.5313 46.7125,598.4063 46.6188,598.25 C46.4625,597.9844 46.1813,597.8438 45.8844,597.8438 C45.5875,597.8438 45.3844,597.9375 45.1656,598.25 L44.9938,598.1719 Z " fill="#000000"/><text fill="#000000" font-family="sans-serif" font-size="12" lengthAdjust="spacing" textLength="66" x="57.35" y="606.6543">ClientStore</text><line style="stroke:#A80036;stroke-width:1.5;" x1="25.5" x2="128.5" y1="618.5" y2="618.5"/><line style="stroke:#A80036;stroke-width:1.5;" x1="25.5" x2="128.5" y1="626.5" y2="626.5"/><text fill="#000000" font-family="sans-serif" font-size="11" lengthAdjust="spacing" textLength="93" x="30.5" y="640.7104">getClientByTIN()</text><!--MD5=[6ba72ddf03822b91e8d41ca71de58ed3]
class TestTypeStore--><rect codeLine="44" fill="#FEFECE" filter="url(#f1lh5kgnsy3qz2)" height="60.8047" id="TestTypeStore" style="stroke:#A80036;stroke-width:1.5;" width="121" x="794.5" y="586.5"/><ellipse cx="809.5" cy="602.5" fill="#ADD1B2" rx="11" ry="11" style="stroke:#A80036;stroke-width:1.0;"/><path d="M811.8438,598.1719 C810.9063,597.7344 810.3125,597.5938 809.4375,597.5938 C806.8125,597.5938 804.8125,599.6719 804.8125,602.3906 L804.8125,603.5156 C804.8125,606.0938 806.9219,607.9844 809.8125,607.9844 C811.0313,607.9844 812.1875,607.6875 812.9375,607.1406 C813.5156,606.7344 813.8438,606.2813 813.8438,605.8906 C813.8438,605.4375 813.4531,605.0469 812.9844,605.0469 C812.7656,605.0469 812.5625,605.125 812.375,605.3125 C811.9219,605.7969 811.9219,605.7969 811.7344,605.8906 C811.3125,606.1563 810.625,606.2813 809.8594,606.2813 C807.8125,606.2813 806.5156,605.1875 806.5156,603.4844 L806.5156,602.3906 C806.5156,600.6094 807.7656,599.2969 809.5,599.2969 C810.0781,599.2969 810.6875,599.4531 811.1563,599.7031 C811.6406,599.9844 811.8125,600.2031 811.9063,600.6094 C811.9688,601.0156 812,601.1406 812.1406,601.2656 C812.2813,601.4063 812.5156,601.5156 812.7344,601.5156 C813,601.5156 813.2656,601.375 813.4375,601.1563 C813.5469,601 813.5781,600.8125 813.5781,600.3906 L813.5781,598.9688 C813.5781,598.5313 813.5625,598.4063 813.4688,598.25 C813.3125,597.9844 813.0313,597.8438 812.7344,597.8438 C812.4375,597.8438 812.2344,597.9375 812.0156,598.25 L811.8438,598.1719 Z " fill="#000000"/><text fill="#000000" font-family="sans-serif" font-size="12" lengthAdjust="spacing" textLength="89" x="823.5" y="606.6543">TestTypeStore</text><line style="stroke:#A80036;stroke-width:1.5;" x1="795.5" x2="914.5" y1="618.5" y2="618.5"/><line style="stroke:#A80036;stroke-width:1.5;" x1="795.5" x2="914.5" y1="626.5" y2="626.5"/><text fill="#000000" font-family="sans-serif" font-size="11" lengthAdjust="spacing" textLength="106" x="800.5" y="640.7104">getTestTypeById()</text><!--MD5=[d802db621b5b215a6f0466f93cefcb42]
class ParameterCategoryStore--><rect codeLine="48" fill="#FEFECE" filter="url(#f1lh5kgnsy3qz2)" height="60.8047" id="ParameterCategoryStore" style="stroke:#A80036;stroke-width:1.5;" width="181" x="950.5" y="586.5"/><ellipse cx="965.5" cy="602.5" fill="#ADD1B2" rx="11" ry="11" style="stroke:#A80036;stroke-width:1.0;"/><path d="M967.8438,598.1719 C966.9063,597.7344 966.3125,597.5938 965.4375,597.5938 C962.8125,597.5938 960.8125,599.6719 960.8125,602.3906 L960.8125,603.5156 C960.8125,606.0938 962.9219,607.9844 965.8125,607.9844 C967.0313,607.9844 968.1875,607.6875 968.9375,607.1406 C969.5156,606.7344 969.8438,606.2813 969.8438,605.8906 C969.8438,605.4375 969.4531,605.0469 968.9844,605.0469 C968.7656,605.0469 968.5625,605.125 968.375,605.3125 C967.9219,605.7969 967.9219,605.7969 967.7344,605.8906 C967.3125,606.1563 966.625,606.2813 965.8594,606.2813 C963.8125,606.2813 962.5156,605.1875 962.5156,603.4844 L962.5156,602.3906 C962.5156,600.6094 963.7656,599.2969 965.5,599.2969 C966.0781,599.2969 966.6875,599.4531 967.1563,599.7031 C967.6406,599.9844 967.8125,600.2031 967.9063,600.6094 C967.9688,601.0156 968,601.1406 968.1406,601.2656 C968.2813,601.4063 968.5156,601.5156 968.7344,601.5156 C969,601.5156 969.2656,601.375 969.4375,601.1563 C969.5469,601 969.5781,600.8125 969.5781,600.3906 L969.5781,598.9688 C969.5781,598.5313 969.5625,598.4063 969.4688,598.25 C969.3125,597.9844 969.0313,597.8438 968.7344,597.8438 C968.4375,597.8438 968.2344,597.9375 968.0156,598.25 L967.8438,598.1719 Z " fill="#000000"/><text fill="#000000" font-family="sans-serif" font-size="12" lengthAdjust="spacing" textLength="149" x="979.5" y="606.6543">ParameterCategoryStore</text><line style="stroke:#A80036;stroke-width:1.5;" x1="951.5" x2="1130.5" y1="618.5" y2="618.5"/><line style="stroke:#A80036;stroke-width:1.5;" x1="951.5" x2="1130.5" y1="626.5" y2="626.5"/><text fill="#000000" font-family="sans-serif" font-size="11" lengthAdjust="spacing" textLength="124" x="956.5" y="640.7104">getCategoryByCode()</text><!--MD5=[be7802b157a16874d39c59ca0e2b25be]
class ParameterStore--><rect codeLine="56" fill="#FEFECE" filter="url(#f1lh5kgnsy3qz2)" height="73.6094" id="ParameterStore" style="stroke:#A80036;stroke-width:1.5;" width="143" x="1166.5" y="580"/><ellipse cx="1189.15" cy="596" fill="#ADD1B2" rx="11" ry="11" style="stroke:#A80036;stroke-width:1.0;"/><path d="M1191.4938,591.6719 C1190.5563,591.2344 1189.9625,591.0938 1189.0875,591.0938 C1186.4625,591.0938 1184.4625,593.1719 1184.4625,595.8906 L1184.4625,597.0156 C1184.4625,599.5938 1186.5719,601.4844 1189.4625,601.4844 C1190.6813,601.4844 1191.8375,601.1875 1192.5875,600.6406 C1193.1656,600.2344 1193.4938,599.7813 1193.4938,599.3906 C1193.4938,598.9375 1193.1031,598.5469 1192.6344,598.5469 C1192.4156,598.5469 1192.2125,598.625 1192.025,598.8125 C1191.5719,599.2969 1191.5719,599.2969 1191.3844,599.3906 C1190.9625,599.6563 1190.275,599.7813 1189.5094,599.7813 C1187.4625,599.7813 1186.1656,598.6875 1186.1656,596.9844 L1186.1656,595.8906 C1186.1656,594.1094 1187.4156,592.7969 1189.15,592.7969 C1189.7281,592.7969 1190.3375,592.9531 1190.8063,593.2031 C1191.2906,593.4844 1191.4625,593.7031 1191.5563,594.1094 C1191.6188,594.5156 1191.65,594.6406 1191.7906,594.7656 C1191.9313,594.9063 1192.1656,595.0156 1192.3844,595.0156 C1192.65,595.0156 1192.9156,594.875 1193.0875,594.6563 C1193.1969,594.5 1193.2281,594.3125 1193.2281,593.8906 L1193.2281,592.4688 C1193.2281,592.0313 1193.2125,591.9063 1193.1188,591.75 C1192.9625,591.4844 1192.6813,591.3438 1192.3844,591.3438 C1192.0875,591.3438 1191.8844,591.4375 1191.6656,591.75 L1191.4938,591.6719 Z " fill="#000000"/><text fill="#000000" font-family="sans-serif" font-size="12" lengthAdjust="spacing" textLength="94" x="1204.85" y="600.1543">ParameterStore</text><line style="stroke:#A80036;stroke-width:1.5;" x1="1167.5" x2="1308.5" y1="612" y2="612"/><line style="stroke:#A80036;stroke-width:1.5;" x1="1167.5" x2="1308.5" y1="620" y2="620"/><text fill="#000000" font-family="sans-serif" font-size="11" lengthAdjust="spacing" textLength="131" x="1172.5" y="634.2104">getParameterByCode()</text><text fill="#000000" font-family="sans-serif" font-size="11" lengthAdjust="spacing" textLength="102" x="1172.5" y="647.0151">getClinicByCode()</text><!--MD5=[103cc62abc3c4e47394448103f866516]
class TestValideStore--><rect codeLine="60" fill="#FEFECE" filter="url(#f1lh5kgnsy3qz2)" height="60.8047" id="TestValideStore" style="stroke:#A80036;stroke-width:1.5;" width="128" x="303" y="586.5"/><ellipse cx="318" cy="602.5" fill="#ADD1B2" rx="11" ry="11" style="stroke:#A80036;stroke-width:1.0;"/><path d="M320.3438,598.1719 C319.4063,597.7344 318.8125,597.5938 317.9375,597.5938 C315.3125,597.5938 313.3125,599.6719 313.3125,602.3906 L313.3125,603.5156 C313.3125,606.0938 315.4219,607.9844 318.3125,607.9844 C319.5313,607.9844 320.6875,607.6875 321.4375,607.1406 C322.0156,606.7344 322.3438,606.2813 322.3438,605.8906 C322.3438,605.4375 321.9531,605.0469 321.4844,605.0469 C321.2656,605.0469 321.0625,605.125 320.875,605.3125 C320.4219,605.7969 320.4219,605.7969 320.2344,605.8906 C319.8125,606.1563 319.125,606.2813 318.3594,606.2813 C316.3125,606.2813 315.0156,605.1875 315.0156,603.4844 L315.0156,602.3906 C315.0156,600.6094 316.2656,599.2969 318,599.2969 C318.5781,599.2969 319.1875,599.4531 319.6563,599.7031 C320.1406,599.9844 320.3125,600.2031 320.4063,600.6094 C320.4688,601.0156 320.5,601.1406 320.6406,601.2656 C320.7813,601.4063 321.0156,601.5156 321.2344,601.5156 C321.5,601.5156 321.7656,601.375 321.9375,601.1563 C322.0469,601 322.0781,600.8125 322.0781,600.3906 L322.0781,598.9688 C322.0781,598.5313 322.0625,598.4063 321.9688,598.25 C321.8125,597.9844 321.5313,597.8438 321.2344,597.8438 C320.9375,597.8438 320.7344,597.9375 320.5156,598.25 L320.3438,598.1719 Z " fill="#000000"/><text fill="#000000" font-family="sans-serif" font-size="12" lengthAdjust="spacing" textLength="96" x="332" y="606.6543">TestValideStore</text><line style="stroke:#A80036;stroke-width:1.5;" x1="304" x2="430" y1="618.5" y2="618.5"/><line style="stroke:#A80036;stroke-width:1.5;" x1="304" x2="430" y1="626.5" y2="626.5"/><text fill="#000000" font-family="sans-serif" font-size="11" lengthAdjust="spacing" textLength="82" x="309" y="640.7104">saveTestVali()</text><!--MD5=[df38be88ccee13e832d6fafd6288a4ca]
class Test--><rect codeLine="64" fill="#FEFECE" filter="url(#f1lh5kgnsy3qz2)" height="265.6797" id="Test" style="stroke:#A80036;stroke-width:1.5;" width="159" x="488.5" y="920"/><ellipse cx="550.75" cy="936" fill="#ADD1B2" rx="11" ry="11" style="stroke:#A80036;stroke-width:1.0;"/><path d="M553.0938,931.6719 C552.1563,931.2344 551.5625,931.0938 550.6875,931.0938 C548.0625,931.0938 546.0625,933.1719 546.0625,935.8906 L546.0625,937.0156 C546.0625,939.5938 548.1719,941.4844 551.0625,941.4844 C552.2813,941.4844 553.4375,941.1875 554.1875,940.6406 C554.7656,940.2344 555.0938,939.7813 555.0938,939.3906 C555.0938,938.9375 554.7031,938.5469 554.2344,938.5469 C554.0156,938.5469 553.8125,938.625 553.625,938.8125 C553.1719,939.2969 553.1719,939.2969 552.9844,939.3906 C552.5625,939.6563 551.875,939.7813 551.1094,939.7813 C549.0625,939.7813 547.7656,938.6875 547.7656,936.9844 L547.7656,935.8906 C547.7656,934.1094 549.0156,932.7969 550.75,932.7969 C551.3281,932.7969 551.9375,932.9531 552.4063,933.2031 C552.8906,933.4844 553.0625,933.7031 553.1563,934.1094 C553.2188,934.5156 553.25,934.6406 553.3906,934.7656 C553.5313,934.9063 553.7656,935.0156 553.9844,935.0156 C554.25,935.0156 554.5156,934.875 554.6875,934.6563 C554.7969,934.5 554.8281,934.3125 554.8281,933.8906 L554.8281,932.4688 C554.8281,932.0313 554.8125,931.9063 554.7188,931.75 C554.5625,931.4844 554.2813,931.3438 553.9844,931.3438 C553.6875,931.3438 553.4844,931.4375 553.2656,931.75 L553.0938,931.6719 Z " fill="#000000"/><text fill="#000000" font-family="sans-serif" font-size="12" lengthAdjust="spacing" textLength="26" x="571.25" y="940.1543">Test</text><line style="stroke:#A80036;stroke-width:1.5;" x1="489.5" x2="646.5" y1="952" y2="952"/><text fill="#000000" font-family="sans-serif" font-size="11" lengthAdjust="spacing" textLength="114" x="494.5" y="966.2104">String testNHScode;</text><text fill="#000000" font-family="sans-serif" font-size="11" lengthAdjust="spacing" textLength="92" x="494.5" y="979.0151">String testCode;</text><text fill="#000000" font-family="sans-serif" font-size="11" lengthAdjust="spacing" textLength="110" x="494.5" y="991.8198">String dateSample;</text><text fill="#000000" font-family="sans-serif" font-size="11" lengthAdjust="spacing" textLength="110" x="494.5" y="1004.6245">String timeSmaple;</text><text fill="#000000" font-family="sans-serif" font-size="11" lengthAdjust="spacing" textLength="147" x="494.5" y="1017.4292">String dateChemAnalysis;</text><text fill="#000000" font-family="sans-serif" font-size="11" lengthAdjust="spacing" textLength="147" x="494.5" y="1030.2339">String timeChemAnalysis;</text><text fill="#000000" font-family="sans-serif" font-size="11" lengthAdjust="spacing" textLength="121" x="494.5" y="1043.0386">String dateDiagnosis;</text><text fill="#000000" font-family="sans-serif" font-size="11" lengthAdjust="spacing" textLength="121" x="494.5" y="1055.8433">String timeDiagnosis;</text><text fill="#000000" font-family="sans-serif" font-size="11" lengthAdjust="spacing" textLength="119" x="494.5" y="1068.6479">String dateValidTest;</text><text fill="#000000" font-family="sans-serif" font-size="11" lengthAdjust="spacing" textLength="119" x="494.5" y="1081.4526">String timeValidTest;</text><line style="stroke:#A80036;stroke-width:1.5;" x1="489.5" x2="646.5" y1="1088.0469" y2="1088.0469"/><text fill="#000000" font-family="sans-serif" font-size="11" lengthAdjust="spacing" textLength="56" x="494.5" y="1102.2573">setCode()</text><text fill="#000000" font-family="sans-serif" font-size="11" lengthAdjust="spacing" textLength="59" x="494.5" y="1115.062">setClient()</text><text fill="#000000" font-family="sans-serif" font-size="11" lengthAdjust="spacing" textLength="80" x="494.5" y="1127.8667">setTestType()</text><text fill="#000000" font-family="sans-serif" font-size="11" lengthAdjust="spacing" textLength="78" x="494.5" y="1140.6714">setCategory()</text><text fill="#000000" font-family="sans-serif" font-size="11" lengthAdjust="spacing" textLength="113" x="494.5" y="1153.4761">addTestParameter()</text><text fill="#000000" font-family="sans-serif" font-size="11" lengthAdjust="spacing" textLength="89" x="494.5" y="1166.2808">addTestResult()</text><text fill="#000000" font-family="sans-serif" font-size="11" lengthAdjust="spacing" textLength="97" x="494.5" y="1179.0854">setDateTimeAll()</text><!--MD5=[1934a092c0e7d4da7dc7075b6f4b6b03]
class ClinicalAnalysisLaboratory--><rect codeLine="84" fill="#FEFECE" filter="url(#f1lh5kgnsy3qz2)" height="112.0234" id="ClinicalAnalysisLaboratory" style="stroke:#A80036;stroke-width:1.5;" width="187" x="587.5" y="731"/><ellipse cx="602.5" cy="747" fill="#ADD1B2" rx="11" ry="11" style="stroke:#A80036;stroke-width:1.0;"/><path d="M604.8438,742.6719 C603.9063,742.2344 603.3125,742.0938 602.4375,742.0938 C599.8125,742.0938 597.8125,744.1719 597.8125,746.8906 L597.8125,748.0156 C597.8125,750.5938 599.9219,752.4844 602.8125,752.4844 C604.0313,752.4844 605.1875,752.1875 605.9375,751.6406 C606.5156,751.2344 606.8438,750.7813 606.8438,750.3906 C606.8438,749.9375 606.4531,749.5469 605.9844,749.5469 C605.7656,749.5469 605.5625,749.625 605.375,749.8125 C604.9219,750.2969 604.9219,750.2969 604.7344,750.3906 C604.3125,750.6563 603.625,750.7813 602.8594,750.7813 C600.8125,750.7813 599.5156,749.6875 599.5156,747.9844 L599.5156,746.8906 C599.5156,745.1094 600.7656,743.7969 602.5,743.7969 C603.0781,743.7969 603.6875,743.9531 604.1563,744.2031 C604.6406,744.4844 604.8125,744.7031 604.9063,745.1094 C604.9688,745.5156 605,745.6406 605.1406,745.7656 C605.2813,745.9063 605.5156,746.0156 605.7344,746.0156 C606,746.0156 606.2656,745.875 606.4375,745.6563 C606.5469,745.5 606.5781,745.3125 606.5781,744.8906 L606.5781,743.4688 C606.5781,743.0313 606.5625,742.9063 606.4688,742.75 C606.3125,742.4844 606.0313,742.3438 605.7344,742.3438 C605.4375,742.3438 605.2344,742.4375 605.0156,742.75 L604.8438,742.6719 Z " fill="#000000"/><text fill="#000000" font-family="sans-serif" font-size="12" lengthAdjust="spacing" textLength="155" x="616.5" y="751.1543">ClinicalAnalysisLaboratory</text><line style="stroke:#A80036;stroke-width:1.5;" x1="588.5" x2="773.5" y1="763" y2="763"/><text fill="#000000" font-family="sans-serif" font-size="11" lengthAdjust="spacing" textLength="109" x="593.5" y="777.2104">String laboratoryID;</text><text fill="#000000" font-family="sans-serif" font-size="11" lengthAdjust="spacing" textLength="73" x="593.5" y="790.0151">String name;</text><text fill="#000000" font-family="sans-serif" font-size="11" lengthAdjust="spacing" textLength="78" x="593.5" y="802.8198">String adress;</text><text fill="#000000" font-family="sans-serif" font-size="11" lengthAdjust="spacing" textLength="121" x="593.5" y="815.6245">String phoneNumber;</text><text fill="#000000" font-family="sans-serif" font-size="11" lengthAdjust="spacing" textLength="102" x="593.5" y="828.4292">String numberTIN;</text><line style="stroke:#A80036;stroke-width:1.5;" x1="588.5" x2="773.5" y1="835.0234" y2="835.0234"/><!--MD5=[8ae808d068a8995f06b9b3ec51357f0b]
class AuthFacade--><rect codeLine="92" fill="#FEFECE" filter="url(#f1lh5kgnsy3qz2)" height="60.8047" id="AuthFacade" style="stroke:#A80036;stroke-width:1.5;" width="102" x="466" y="586.5"/><ellipse cx="481" cy="602.5" fill="#ADD1B2" rx="11" ry="11" style="stroke:#A80036;stroke-width:1.0;"/><path d="M483.3438,598.1719 C482.4063,597.7344 481.8125,597.5938 480.9375,597.5938 C478.3125,597.5938 476.3125,599.6719 476.3125,602.3906 L476.3125,603.5156 C476.3125,606.0938 478.4219,607.9844 481.3125,607.9844 C482.5313,607.9844 483.6875,607.6875 484.4375,607.1406 C485.0156,606.7344 485.3438,606.2813 485.3438,605.8906 C485.3438,605.4375 484.9531,605.0469 484.4844,605.0469 C484.2656,605.0469 484.0625,605.125 483.875,605.3125 C483.4219,605.7969 483.4219,605.7969 483.2344,605.8906 C482.8125,606.1563 482.125,606.2813 481.3594,606.2813 C479.3125,606.2813 478.0156,605.1875 478.0156,603.4844 L478.0156,602.3906 C478.0156,600.6094 479.2656,599.2969 481,599.2969 C481.5781,599.2969 482.1875,599.4531 482.6563,599.7031 C483.1406,599.9844 483.3125,600.2031 483.4063,600.6094 C483.4688,601.0156 483.5,601.1406 483.6406,601.2656 C483.7813,601.4063 484.0156,601.5156 484.2344,601.5156 C484.5,601.5156 484.7656,601.375 484.9375,601.1563 C485.0469,601 485.0781,600.8125 485.0781,600.3906 L485.0781,598.9688 C485.0781,598.5313 485.0625,598.4063 484.9688,598.25 C484.8125,597.9844 484.5313,597.8438 484.2344,597.8438 C483.9375,597.8438 483.7344,597.9375 483.5156,598.25 L483.3438,598.1719 Z " fill="#000000"/><text fill="#000000" font-family="sans-serif" font-size="12" lengthAdjust="spacing" textLength="70" x="495" y="606.6543">AuthFacade</text><line style="stroke:#A80036;stroke-width:1.5;" x1="467" x2="567" y1="618.5" y2="618.5"/><line style="stroke:#A80036;stroke-width:1.5;" x1="467" x2="567" y1="626.5" y2="626.5"/><text fill="#000000" font-family="sans-serif" font-size="11" lengthAdjust="spacing" textLength="71" x="472" y="640.7104">createUser()</text><!--MD5=[93af8b4494db78ec46e98fad8955a5aa]
class UserStore--><rect codeLine="96" fill="#FEFECE" filter="url(#f1lh5kgnsy3qz2)" height="60.8047" id="UserStore" style="stroke:#A80036;stroke-width:1.5;" width="94" x="458" y="756.5"/><ellipse cx="473" cy="772.5" fill="#ADD1B2" rx="11" ry="11" style="stroke:#A80036;stroke-width:1.0;"/><path d="M475.3438,768.1719 C474.4063,767.7344 473.8125,767.5938 472.9375,767.5938 C470.3125,767.5938 468.3125,769.6719 468.3125,772.3906 L468.3125,773.5156 C468.3125,776.0938 470.4219,777.9844 473.3125,777.9844 C474.5313,777.9844 475.6875,777.6875 476.4375,777.1406 C477.0156,776.7344 477.3438,776.2813 477.3438,775.8906 C477.3438,775.4375 476.9531,775.0469 476.4844,775.0469 C476.2656,775.0469 476.0625,775.125 475.875,775.3125 C475.4219,775.7969 475.4219,775.7969 475.2344,775.8906 C474.8125,776.1563 474.125,776.2813 473.3594,776.2813 C471.3125,776.2813 470.0156,775.1875 470.0156,773.4844 L470.0156,772.3906 C470.0156,770.6094 471.2656,769.2969 473,769.2969 C473.5781,769.2969 474.1875,769.4531 474.6563,769.7031 C475.1406,769.9844 475.3125,770.2031 475.4063,770.6094 C475.4688,771.0156 475.5,771.1406 475.6406,771.2656 C475.7813,771.4063 476.0156,771.5156 476.2344,771.5156 C476.5,771.5156 476.7656,771.375 476.9375,771.1563 C477.0469,771 477.0781,770.8125 477.0781,770.3906 L477.0781,768.9688 C477.0781,768.5313 477.0625,768.4063 476.9688,768.25 C476.8125,767.9844 476.5313,767.8438 476.2344,767.8438 C475.9375,767.8438 475.7344,767.9375 475.5156,768.25 L475.3438,768.1719 Z " fill="#000000"/><text fill="#000000" font-family="sans-serif" font-size="12" lengthAdjust="spacing" textLength="62" x="487" y="776.6543">UserStore</text><line style="stroke:#A80036;stroke-width:1.5;" x1="459" x2="551" y1="788.5" y2="788.5"/><line style="stroke:#A80036;stroke-width:1.5;" x1="459" x2="551" y1="796.5" y2="796.5"/><text fill="#000000" font-family="sans-serif" font-size="11" lengthAdjust="spacing" textLength="71" x="464" y="810.7104">createUser()</text><!--MD5=[6775c6638a1da484a35f5fa25f36bc00]
class GeneratePassword--><rect codeLine="100" fill="#FEFECE" filter="url(#f1lh5kgnsy3qz2)" height="60.8047" id="GeneratePassword" style="stroke:#A80036;stroke-width:1.5;" width="146" x="1069" y="397.5"/><ellipse cx="1084" cy="413.5" fill="#ADD1B2" rx="11" ry="11" style="stroke:#A80036;stroke-width:1.0;"/><path d="M1086.3438,409.1719 C1085.4063,408.7344 1084.8125,408.5938 1083.9375,408.5938 C1081.3125,408.5938 1079.3125,410.6719 1079.3125,413.3906 L1079.3125,414.5156 C1079.3125,417.0938 1081.4219,418.9844 1084.3125,418.9844 C1085.5313,418.9844 1086.6875,418.6875 1087.4375,418.1406 C1088.0156,417.7344 1088.3438,417.2813 1088.3438,416.8906 C1088.3438,416.4375 1087.9531,416.0469 1087.4844,416.0469 C1087.2656,416.0469 1087.0625,416.125 1086.875,416.3125 C1086.4219,416.7969 1086.4219,416.7969 1086.2344,416.8906 C1085.8125,417.1563 1085.125,417.2813 1084.3594,417.2813 C1082.3125,417.2813 1081.0156,416.1875 1081.0156,414.4844 L1081.0156,413.3906 C1081.0156,411.6094 1082.2656,410.2969 1084,410.2969 C1084.5781,410.2969 1085.1875,410.4531 1085.6563,410.7031 C1086.1406,410.9844 1086.3125,411.2031 1086.4063,411.6094 C1086.4688,412.0156 1086.5,412.1406 1086.6406,412.2656 C1086.7813,412.4063 1087.0156,412.5156 1087.2344,412.5156 C1087.5,412.5156 1087.7656,412.375 1087.9375,412.1563 C1088.0469,412 1088.0781,411.8125 1088.0781,411.3906 L1088.0781,409.9688 C1088.0781,409.5313 1088.0625,409.4063 1087.9688,409.25 C1087.8125,408.9844 1087.5313,408.8438 1087.2344,408.8438 C1086.9375,408.8438 1086.7344,408.9375 1086.5156,409.25 L1086.3438,409.1719 Z " fill="#000000"/><text fill="#000000" font-family="sans-serif" font-size="12" lengthAdjust="spacing" textLength="114" x="1098" y="417.6543">GeneratePassword</text><line style="stroke:#A80036;stroke-width:1.5;" x1="1070" x2="1214" y1="429.5" y2="429.5"/><text fill="#000000" font-family="sans-serif" font-size="11" lengthAdjust="spacing" textLength="108" x="1075" y="443.7104">generatePassword;</text><line style="stroke:#A80036;stroke-width:1.5;" x1="1070" x2="1214" y1="450.3047" y2="450.3047"/><!--MD5=[f00dbe8c0302c6aec2cb26b3c659c8fc]
class Report--><rect codeLine="104" fill="#FEFECE" filter="url(#f1lh5kgnsy3qz2)" height="60.8047" id="Report" style="stroke:#A80036;stroke-width:1.5;" width="75" x="530.5" y="1301.5"/><ellipse cx="546.85" cy="1317.5" fill="#ADD1B2" rx="11" ry="11" style="stroke:#A80036;stroke-width:1.0;"/><path d="M549.1938,1313.1719 C548.2563,1312.7344 547.6625,1312.5938 546.7875,1312.5938 C544.1625,1312.5938 542.1625,1314.6719 542.1625,1317.3906 L542.1625,1318.5156 C542.1625,1321.0938 544.2719,1322.9844 547.1625,1322.9844 C548.3813,1322.9844 549.5375,1322.6875 550.2875,1322.1406 C550.8656,1321.7344 551.1938,1321.2813 551.1938,1320.8906 C551.1938,1320.4375 550.8031,1320.0469 550.3344,1320.0469 C550.1156,1320.0469 549.9125,1320.125 549.725,1320.3125 C549.2719,1320.7969 549.2719,1320.7969 549.0844,1320.8906 C548.6625,1321.1563 547.975,1321.2813 547.2094,1321.2813 C545.1625,1321.2813 543.8656,1320.1875 543.8656,1318.4844 L543.8656,1317.3906 C543.8656,1315.6094 545.1156,1314.2969 546.85,1314.2969 C547.4281,1314.2969 548.0375,1314.4531 548.5063,1314.7031 C548.9906,1314.9844 549.1625,1315.2031 549.2563,1315.6094 C549.3188,1316.0156 549.35,1316.1406 549.4906,1316.2656 C549.6313,1316.4063 549.8656,1316.5156 550.0844,1316.5156 C550.35,1316.5156 550.6156,1316.375 550.7875,1316.1563 C550.8969,1316 550.9281,1315.8125 550.9281,1315.3906 L550.9281,1313.9688 C550.9281,1313.5313 550.9125,1313.4063 550.8188,1313.25 C550.6625,1312.9844 550.3813,1312.8438 550.0844,1312.8438 C549.7875,1312.8438 549.5844,1312.9375 549.3656,1313.25 L549.1938,1313.1719 Z " fill="#000000"/><text fill="#000000" font-family="sans-serif" font-size="12" lengthAdjust="spacing" textLength="40" x="561.15" y="1321.6543">Report</text><line style="stroke:#A80036;stroke-width:1.5;" x1="531.5" x2="604.5" y1="1333.5" y2="1333.5"/><text fill="#000000" font-family="sans-serif" font-size="11" lengthAdjust="spacing" textLength="63" x="536.5" y="1347.7104">String text;</text><line style="stroke:#A80036;stroke-width:1.5;" x1="531.5" x2="604.5" y1="1354.3047" y2="1354.3047"/><!--MD5=[10d06bcee75aaf74ab8f6040820ceef2]
class Diagnosis--><rect codeLine="108" fill="#FEFECE" filter="url(#f1lh5kgnsy3qz2)" height="48" id="Diagnosis" style="stroke:#A80036;stroke-width:1.5;" width="91" x="522.5" y="1478"/><ellipse cx="537.5" cy="1494" fill="#ADD1B2" rx="11" ry="11" style="stroke:#A80036;stroke-width:1.0;"/><path d="M539.8438,1489.6719 C538.9063,1489.2344 538.3125,1489.0938 537.4375,1489.0938 C534.8125,1489.0938 532.8125,1491.1719 532.8125,1493.8906 L532.8125,1495.0156 C532.8125,1497.5938 534.9219,1499.4844 537.8125,1499.4844 C539.0313,1499.4844 540.1875,1499.1875 540.9375,1498.6406 C541.5156,1498.2344 541.8438,1497.7813 541.8438,1497.3906 C541.8438,1496.9375 541.4531,1496.5469 540.9844,1496.5469 C540.7656,1496.5469 540.5625,1496.625 540.375,1496.8125 C539.9219,1497.2969 539.9219,1497.2969 539.7344,1497.3906 C539.3125,1497.6563 538.625,1497.7813 537.8594,1497.7813 C535.8125,1497.7813 534.5156,1496.6875 534.5156,1494.9844 L534.5156,1493.8906 C534.5156,1492.1094 535.7656,1490.7969 537.5,1490.7969 C538.0781,1490.7969 538.6875,1490.9531 539.1563,1491.2031 C539.6406,1491.4844 539.8125,1491.7031 539.9063,1492.1094 C539.9688,1492.5156 540,1492.6406 540.1406,1492.7656 C540.2813,1492.9063 540.5156,1493.0156 540.7344,1493.0156 C541,1493.0156 541.2656,1492.875 541.4375,1492.6563 C541.5469,1492.5 541.5781,1492.3125 541.5781,1491.8906 L541.5781,1490.4688 C541.5781,1490.0313 541.5625,1489.9063 541.4688,1489.75 C541.3125,1489.4844 541.0313,1489.3438 540.7344,1489.3438 C540.4375,1489.3438 540.2344,1489.4375 540.0156,1489.75 L539.8438,1489.6719 Z " fill="#000000"/><text fill="#000000" font-family="sans-serif" font-size="12" lengthAdjust="spacing" textLength="59" x="551.5" y="1498.1543">Diagnosis</text><line style="stroke:#A80036;stroke-width:1.5;" x1="523.5" x2="612.5" y1="1510" y2="1510"/><line style="stroke:#A80036;stroke-width:1.5;" x1="523.5" x2="612.5" y1="1518" y2="1518"/><!--MD5=[0f07739f46effee96e095e9c408da841]
class TestParameter--><rect codeLine="111" fill="#FEFECE" filter="url(#f1lh5kgnsy3qz2)" height="48" id="TestParameter" style="stroke:#A80036;stroke-width:1.5;" width="119" x="466.5" y="1603"/><ellipse cx="481.5" cy="1619" fill="#ADD1B2" rx="11" ry="11" style="stroke:#A80036;stroke-width:1.0;"/><path d="M483.8438,1614.6719 C482.9063,1614.2344 482.3125,1614.0938 481.4375,1614.0938 C478.8125,1614.0938 476.8125,1616.1719 476.8125,1618.8906 L476.8125,1620.0156 C476.8125,1622.5938 478.9219,1624.4844 481.8125,1624.4844 C483.0313,1624.4844 484.1875,1624.1875 484.9375,1623.6406 C485.5156,1623.2344 485.8438,1622.7813 485.8438,1622.3906 C485.8438,1621.9375 485.4531,1621.5469 484.9844,1621.5469 C484.7656,1621.5469 484.5625,1621.625 484.375,1621.8125 C483.9219,1622.2969 483.9219,1622.2969 483.7344,1622.3906 C483.3125,1622.6563 482.625,1622.7813 481.8594,1622.7813 C479.8125,1622.7813 478.5156,1621.6875 478.5156,1619.9844 L478.5156,1618.8906 C478.5156,1617.1094 479.7656,1615.7969 481.5,1615.7969 C482.0781,1615.7969 482.6875,1615.9531 483.1563,1616.2031 C483.6406,1616.4844 483.8125,1616.7031 483.9063,1617.1094 C483.9688,1617.5156 484,1617.6406 484.1406,1617.7656 C484.2813,1617.9063 484.5156,1618.0156 484.7344,1618.0156 C485,1618.0156 485.2656,1617.875 485.4375,1617.6563 C485.5469,1617.5 485.5781,1617.3125 485.5781,1616.8906 L485.5781,1615.4688 C485.5781,1615.0313 485.5625,1614.9063 485.4688,1614.75 C485.3125,1614.4844 485.0313,1614.3438 484.7344,1614.3438 C484.4375,1614.3438 484.2344,1614.4375 484.0156,1614.75 L483.8438,1614.6719 Z " fill="#000000"/><text fill="#000000" font-family="sans-serif" font-size="12" lengthAdjust="spacing" textLength="87" x="495.5" y="1623.1543">TestParameter</text><line style="stroke:#A80036;stroke-width:1.5;" x1="467.5" x2="584.5" y1="1635" y2="1635"/><line style="stroke:#A80036;stroke-width:1.5;" x1="467.5" x2="584.5" y1="1643" y2="1643"/><!--MD5=[4e608140b854dae633589343bce77383]
class TestParameterResult--><rect codeLine="114" fill="#FEFECE" filter="url(#f1lh5kgnsy3qz2)" height="73.6094" id="TestParameterResult" style="stroke:#A80036;stroke-width:1.5;" width="155" x="438.5" y="1728"/><ellipse cx="453.5" cy="1744" fill="#ADD1B2" rx="11" ry="11" style="stroke:#A80036;stroke-width:1.0;"/><path d="M455.8438,1739.6719 C454.9063,1739.2344 454.3125,1739.0938 453.4375,1739.0938 C450.8125,1739.0938 448.8125,1741.1719 448.8125,1743.8906 L448.8125,1745.0156 C448.8125,1747.5938 450.9219,1749.4844 453.8125,1749.4844 C455.0313,1749.4844 456.1875,1749.1875 456.9375,1748.6406 C457.5156,1748.2344 457.8438,1747.7813 457.8438,1747.3906 C457.8438,1746.9375 457.4531,1746.5469 456.9844,1746.5469 C456.7656,1746.5469 456.5625,1746.625 456.375,1746.8125 C455.9219,1747.2969 455.9219,1747.2969 455.7344,1747.3906 C455.3125,1747.6563 454.625,1747.7813 453.8594,1747.7813 C451.8125,1747.7813 450.5156,1746.6875 450.5156,1744.9844 L450.5156,1743.8906 C450.5156,1742.1094 451.7656,1740.7969 453.5,1740.7969 C454.0781,1740.7969 454.6875,1740.9531 455.1563,1741.2031 C455.6406,1741.4844 455.8125,1741.7031 455.9063,1742.1094 C455.9688,1742.5156 456,1742.6406 456.1406,1742.7656 C456.2813,1742.9063 456.5156,1743.0156 456.7344,1743.0156 C457,1743.0156 457.2656,1742.875 457.4375,1742.6563 C457.5469,1742.5 457.5781,1742.3125 457.5781,1741.8906 L457.5781,1740.4688 C457.5781,1740.0313 457.5625,1739.9063 457.4688,1739.75 C457.3125,1739.4844 457.0313,1739.3438 456.7344,1739.3438 C456.4375,1739.3438 456.2344,1739.4375 456.0156,1739.75 L455.8438,1739.6719 Z " fill="#000000"/><text fill="#000000" font-family="sans-serif" font-size="12" lengthAdjust="spacing" textLength="123" x="467.5" y="1748.1543">TestParameterResult</text><line style="stroke:#A80036;stroke-width:1.5;" x1="439.5" x2="592.5" y1="1760" y2="1760"/><text fill="#000000" font-family="sans-serif" font-size="11" lengthAdjust="spacing" textLength="72" x="444.5" y="1774.2104">String result;</text><text fill="#000000" font-family="sans-serif" font-size="11" lengthAdjust="spacing" textLength="76" x="444.5" y="1787.0151">String metric;</text><line style="stroke:#A80036;stroke-width:1.5;" x1="439.5" x2="592.5" y1="1793.6094" y2="1793.6094"/><!--MD5=[1c357e7e7fdba398bcadd6e61afe49f5]
class ReferenceValue--><rect codeLine="119" fill="#FEFECE" filter="url(#f1lh5kgnsy3qz2)" height="99.2188" id="ReferenceValue" style="stroke:#A80036;stroke-width:1.5;" width="127" x="452.5" y="1879"/><ellipse cx="467.5" cy="1895" fill="#ADD1B2" rx="11" ry="11" style="stroke:#A80036;stroke-width:1.0;"/><path d="M469.8438,1890.6719 C468.9063,1890.2344 468.3125,1890.0938 467.4375,1890.0938 C464.8125,1890.0938 462.8125,1892.1719 462.8125,1894.8906 L462.8125,1896.0156 C462.8125,1898.5938 464.9219,1900.4844 467.8125,1900.4844 C469.0313,1900.4844 470.1875,1900.1875 470.9375,1899.6406 C471.5156,1899.2344 471.8438,1898.7813 471.8438,1898.3906 C471.8438,1897.9375 471.4531,1897.5469 470.9844,1897.5469 C470.7656,1897.5469 470.5625,1897.625 470.375,1897.8125 C469.9219,1898.2969 469.9219,1898.2969 469.7344,1898.3906 C469.3125,1898.6563 468.625,1898.7813 467.8594,1898.7813 C465.8125,1898.7813 464.5156,1897.6875 464.5156,1895.9844 L464.5156,1894.8906 C464.5156,1893.1094 465.7656,1891.7969 467.5,1891.7969 C468.0781,1891.7969 468.6875,1891.9531 469.1563,1892.2031 C469.6406,1892.4844 469.8125,1892.7031 469.9063,1893.1094 C469.9688,1893.5156 470,1893.6406 470.1406,1893.7656 C470.2813,1893.9063 470.5156,1894.0156 470.7344,1894.0156 C471,1894.0156 471.2656,1893.875 471.4375,1893.6563 C471.5469,1893.5 471.5781,1893.3125 471.5781,1892.8906 L471.5781,1891.4688 C471.5781,1891.0313 471.5625,1890.9063 471.4688,1890.75 C471.3125,1890.4844 471.0313,1890.3438 470.7344,1890.3438 C470.4375,1890.3438 470.2344,1890.4375 470.0156,1890.75 L469.8438,1890.6719 Z " fill="#000000"/><text fill="#000000" font-family="sans-serif" font-size="12" lengthAdjust="spacing" textLength="95" x="481.5" y="1899.1543">ReferenceValue</text><line style="stroke:#A80036;stroke-width:1.5;" x1="453.5" x2="578.5" y1="1911" y2="1911"/><text fill="#000000" font-family="sans-serif" font-size="11" lengthAdjust="spacing" textLength="68" x="458.5" y="1925.2104">String code;</text><text fill="#000000" font-family="sans-serif" font-size="11" lengthAdjust="spacing" textLength="69" x="458.5" y="1938.0151">Double min;</text><text fill="#000000" font-family="sans-serif" font-size="11" lengthAdjust="spacing" textLength="73" x="458.5" y="1950.8198">Double max;</text><text fill="#000000" font-family="sans-serif" font-size="11" lengthAdjust="spacing" textLength="102" x="458.5" y="1963.6245">String usedMetric;</text><line style="stroke:#A80036;stroke-width:1.5;" x1="453.5" x2="578.5" y1="1970.2188" y2="1970.2188"/><!--MD5=[ed6624c6556d5e7b1bd23032162d20b7]
class Client--><rect codeLine="126" fill="#FEFECE" filter="url(#f1lh5kgnsy3qz2)" height="137.6328" id="Client" style="stroke:#A80036;stroke-width:1.5;" width="161" x="141.5" y="1263"/><ellipse cx="201.25" cy="1279" fill="#ADD1B2" rx="11" ry="11" style="stroke:#A80036;stroke-width:1.0;"/><path d="M203.5938,1274.6719 C202.6563,1274.2344 202.0625,1274.0938 201.1875,1274.0938 C198.5625,1274.0938 196.5625,1276.1719 196.5625,1278.8906 L196.5625,1280.0156 C196.5625,1282.5938 198.6719,1284.4844 201.5625,1284.4844 C202.7813,1284.4844 203.9375,1284.1875 204.6875,1283.6406 C205.2656,1283.2344 205.5938,1282.7813 205.5938,1282.3906 C205.5938,1281.9375 205.2031,1281.5469 204.7344,1281.5469 C204.5156,1281.5469 204.3125,1281.625 204.125,1281.8125 C203.6719,1282.2969 203.6719,1282.2969 203.4844,1282.3906 C203.0625,1282.6563 202.375,1282.7813 201.6094,1282.7813 C199.5625,1282.7813 198.2656,1281.6875 198.2656,1279.9844 L198.2656,1278.8906 C198.2656,1277.1094 199.5156,1275.7969 201.25,1275.7969 C201.8281,1275.7969 202.4375,1275.9531 202.9063,1276.2031 C203.3906,1276.4844 203.5625,1276.7031 203.6563,1277.1094 C203.7188,1277.5156 203.75,1277.6406 203.8906,1277.7656 C204.0313,1277.9063 204.2656,1278.0156 204.4844,1278.0156 C204.75,1278.0156 205.0156,1277.875 205.1875,1277.6563 C205.2969,1277.5 205.3281,1277.3125 205.3281,1276.8906 L205.3281,1275.4688 C205.3281,1275.0313 205.3125,1274.9063 205.2188,1274.75 C205.0625,1274.4844 204.7813,1274.3438 204.4844,1274.3438 C204.1875,1274.3438 203.9844,1274.4375 203.7656,1274.75 L203.5938,1274.6719 Z " fill="#000000"/><text fill="#000000" font-family="sans-serif" font-size="12" lengthAdjust="spacing" textLength="33" x="221.75" y="1283.1543">Client</text><line style="stroke:#A80036;stroke-width:1.5;" x1="142.5" x2="301.5" y1="1295" y2="1295"/><text fill="#000000" font-family="sans-serif" font-size="11" lengthAdjust="spacing" textLength="149" x="147.5" y="1309.2104">String citizenCardNumber;</text><text fill="#000000" font-family="sans-serif" font-size="11" lengthAdjust="spacing" textLength="108" x="147.5" y="1322.0151">String numberNHS;</text><text fill="#000000" font-family="sans-serif" font-size="11" lengthAdjust="spacing" textLength="102" x="147.5" y="1334.8198">String numberTIN;</text><text fill="#000000" font-family="sans-serif" font-size="11" lengthAdjust="spacing" textLength="93" x="147.5" y="1347.6245">String birthDate;</text><text fill="#000000" font-family="sans-serif" font-size="11" lengthAdjust="spacing" textLength="61" x="147.5" y="1360.4292">String sex;</text><text fill="#000000" font-family="sans-serif" font-size="11" lengthAdjust="spacing" textLength="121" x="147.5" y="1373.2339">String phoneNumber;</text><text fill="#000000" font-family="sans-serif" font-size="11" lengthAdjust="spacing" textLength="73" x="147.5" y="1386.0386">String name;</text><line style="stroke:#A80036;stroke-width:1.5;" x1="142.5" x2="301.5" y1="1392.6328" y2="1392.6328"/><!--MD5=[aeb3272166074d8737a70b61b1e71682]
class TestType--><rect codeLine="136" fill="#FEFECE" filter="url(#f1lh5kgnsy3qz2)" height="86.4141" id="TestType" style="stroke:#A80036;stroke-width:1.5;" width="154" x="747" y="1289"/><ellipse cx="791.75" cy="1305" fill="#ADD1B2" rx="11" ry="11" style="stroke:#A80036;stroke-width:1.0;"/><path d="M794.0938,1300.6719 C793.1563,1300.2344 792.5625,1300.0938 791.6875,1300.0938 C789.0625,1300.0938 787.0625,1302.1719 787.0625,1304.8906 L787.0625,1306.0156 C787.0625,1308.5938 789.1719,1310.4844 792.0625,1310.4844 C793.2813,1310.4844 794.4375,1310.1875 795.1875,1309.6406 C795.7656,1309.2344 796.0938,1308.7813 796.0938,1308.3906 C796.0938,1307.9375 795.7031,1307.5469 795.2344,1307.5469 C795.0156,1307.5469 794.8125,1307.625 794.625,1307.8125 C794.1719,1308.2969 794.1719,1308.2969 793.9844,1308.3906 C793.5625,1308.6563 792.875,1308.7813 792.1094,1308.7813 C790.0625,1308.7813 788.7656,1307.6875 788.7656,1305.9844 L788.7656,1304.8906 C788.7656,1303.1094 790.0156,1301.7969 791.75,1301.7969 C792.3281,1301.7969 792.9375,1301.9531 793.4063,1302.2031 C793.8906,1302.4844 794.0625,1302.7031 794.1563,1303.1094 C794.2188,1303.5156 794.25,1303.6406 794.3906,1303.7656 C794.5313,1303.9063 794.7656,1304.0156 794.9844,1304.0156 C795.25,1304.0156 795.5156,1303.875 795.6875,1303.6563 C795.7969,1303.5 795.8281,1303.3125 795.8281,1302.8906 L795.8281,1301.4688 C795.8281,1301.0313 795.8125,1300.9063 795.7188,1300.75 C795.5625,1300.4844 795.2813,1300.3438 794.9844,1300.3438 C794.6875,1300.3438 794.4844,1300.4375 794.2656,1300.75 L794.0938,1300.6719 Z " fill="#000000"/><text fill="#000000" font-family="sans-serif" font-size="12" lengthAdjust="spacing" textLength="56" x="812.25" y="1309.1543">TestType</text><line style="stroke:#A80036;stroke-width:1.5;" x1="748" x2="900" y1="1321" y2="1321"/><text fill="#000000" font-family="sans-serif" font-size="11" lengthAdjust="spacing" textLength="106" x="753" y="1335.2104">String designation;</text><text fill="#000000" font-family="sans-serif" font-size="11" lengthAdjust="spacing" textLength="68" x="753" y="1348.0151">String code;</text><text fill="#000000" font-family="sans-serif" font-size="11" lengthAdjust="spacing" textLength="142" x="753" y="1360.8198">String collectingMethods;</text><line style="stroke:#A80036;stroke-width:1.5;" x1="748" x2="900" y1="1367.4141" y2="1367.4141"/><!--MD5=[1f6362a5c8f21d8d6a0fce68f3a92a4e]
class Parameter--><rect codeLine="142" fill="#FEFECE" filter="url(#f1lh5kgnsy3qz2)" height="73.6094" id="Parameter" style="stroke:#A80036;stroke-width:1.5;" width="118" x="629" y="1728"/><ellipse cx="655.25" cy="1744" fill="#ADD1B2" rx="11" ry="11" style="stroke:#A80036;stroke-width:1.0;"/><path d="M657.5938,1739.6719 C656.6563,1739.2344 656.0625,1739.0938 655.1875,1739.0938 C652.5625,1739.0938 650.5625,1741.1719 650.5625,1743.8906 L650.5625,1745.0156 C650.5625,1747.5938 652.6719,1749.4844 655.5625,1749.4844 C656.7813,1749.4844 657.9375,1749.1875 658.6875,1748.6406 C659.2656,1748.2344 659.5938,1747.7813 659.5938,1747.3906 C659.5938,1746.9375 659.2031,1746.5469 658.7344,1746.5469 C658.5156,1746.5469 658.3125,1746.625 658.125,1746.8125 C657.6719,1747.2969 657.6719,1747.2969 657.4844,1747.3906 C657.0625,1747.6563 656.375,1747.7813 655.6094,1747.7813 C653.5625,1747.7813 652.2656,1746.6875 652.2656,1744.9844 L652.2656,1743.8906 C652.2656,1742.1094 653.5156,1740.7969 655.25,1740.7969 C655.8281,1740.7969 656.4375,1740.9531 656.9063,1741.2031 C657.3906,1741.4844 657.5625,1741.7031 657.6563,1742.1094 C657.7188,1742.5156 657.75,1742.6406 657.8906,1742.7656 C658.0313,1742.9063 658.2656,1743.0156 658.4844,1743.0156 C658.75,1743.0156 659.0156,1742.875 659.1875,1742.6563 C659.2969,1742.5 659.3281,1742.3125 659.3281,1741.8906 L659.3281,1740.4688 C659.3281,1740.0313 659.3125,1739.9063 659.2188,1739.75 C659.0625,1739.4844 658.7813,1739.3438 658.4844,1739.3438 C658.1875,1739.3438 657.9844,1739.4375 657.7656,1739.75 L657.5938,1739.6719 Z " fill="#000000"/><text fill="#000000" font-family="sans-serif" font-size="12" lengthAdjust="spacing" textLength="61" x="671.75" y="1748.1543">Parameter</text><line style="stroke:#A80036;stroke-width:1.5;" x1="630" x2="746" y1="1760" y2="1760"/><text fill="#000000" font-family="sans-serif" font-size="11" lengthAdjust="spacing" textLength="106" x="635" y="1774.2104">String designation;</text><text fill="#000000" font-family="sans-serif" font-size="11" lengthAdjust="spacing" textLength="65" x="635" y="1787.0151">String code</text><line style="stroke:#A80036;stroke-width:1.5;" x1="630" x2="746" y1="1793.6094" y2="1793.6094"/><!--MD5=[36afb6bbd95a8ac778c4537c55a683d5]
class ParameterCategory--><rect codeLine="147" fill="#FEFECE" filter="url(#f1lh5kgnsy3qz2)" height="86.4141" id="ParameterCategory" style="stroke:#A80036;stroke-width:1.5;" width="148" x="941" y="1289"/><ellipse cx="956" cy="1305" fill="#ADD1B2" rx="11" ry="11" style="stroke:#A80036;stroke-width:1.0;"/><path d="M958.3438,1300.6719 C957.4063,1300.2344 956.8125,1300.0938 955.9375,1300.0938 C953.3125,1300.0938 951.3125,1302.1719 951.3125,1304.8906 L951.3125,1306.0156 C951.3125,1308.5938 953.4219,1310.4844 956.3125,1310.4844 C957.5313,1310.4844 958.6875,1310.1875 959.4375,1309.6406 C960.0156,1309.2344 960.3438,1308.7813 960.3438,1308.3906 C960.3438,1307.9375 959.9531,1307.5469 959.4844,1307.5469 C959.2656,1307.5469 959.0625,1307.625 958.875,1307.8125 C958.4219,1308.2969 958.4219,1308.2969 958.2344,1308.3906 C957.8125,1308.6563 957.125,1308.7813 956.3594,1308.7813 C954.3125,1308.7813 953.0156,1307.6875 953.0156,1305.9844 L953.0156,1304.8906 C953.0156,1303.1094 954.2656,1301.7969 956,1301.7969 C956.5781,1301.7969 957.1875,1301.9531 957.6563,1302.2031 C958.1406,1302.4844 958.3125,1302.7031 958.4063,1303.1094 C958.4688,1303.5156 958.5,1303.6406 958.6406,1303.7656 C958.7813,1303.9063 959.0156,1304.0156 959.2344,1304.0156 C959.5,1304.0156 959.7656,1303.875 959.9375,1303.6563 C960.0469,1303.5 960.0781,1303.3125 960.0781,1302.8906 L960.0781,1301.4688 C960.0781,1301.0313 960.0625,1300.9063 959.9688,1300.75 C959.8125,1300.4844 959.5313,1300.3438 959.2344,1300.3438 C958.9375,1300.3438 958.7344,1300.4375 958.5156,1300.75 L958.3438,1300.6719 Z " fill="#000000"/><text fill="#000000" font-family="sans-serif" font-size="12" lengthAdjust="spacing" textLength="116" x="970" y="1309.1543">ParameterCategory</text><line style="stroke:#A80036;stroke-width:1.5;" x1="942" x2="1088" y1="1321" y2="1321"/><text fill="#000000" font-family="sans-serif" font-size="11" lengthAdjust="spacing" textLength="68" x="947" y="1335.2104">String code;</text><text fill="#000000" font-family="sans-serif" font-size="11" lengthAdjust="spacing" textLength="106" x="947" y="1348.0151">String designation;</text><text fill="#000000" font-family="sans-serif" font-size="11" lengthAdjust="spacing" textLength="76" x="947" y="1360.8198">String NHSID;</text><line style="stroke:#A80036;stroke-width:1.5;" x1="942" x2="1088" y1="1367.4141" y2="1367.4141"/><!--MD5=[b8908052b9bbea607af284b5ea1943ca]
link TestFileUI to TestFileController--><path codeLine="153" d="M697,55.06 C697,69.83 697,90.07 697,110.83 " fill="none" id="TestFileUI-to-TestFileController" style="stroke:#A80036;stroke-width:1.0;stroke-dasharray:7.0,7.0;"/><polygon fill="#A80036" points="697,115.83,701,106.83,697,110.83,693,106.83,697,115.83" style="stroke:#A80036;stroke-width:1.0;"/><text fill="#000000" font-family="sans-serif" font-size="13" lengthAdjust="spacing" textLength="8" x="687.975" y="75.2312">1</text><text fill="#000000" font-family="sans-serif" font-size="13" lengthAdjust="spacing" textLength="8" x="688.6688" y="104.9778">1</text><!--MD5=[fec234d130399e7f9d71544f91d7a89c]
link TestFileController to Company--><path codeLine="155" d="M654.626,292.1 C645.637,310.58 636.196,329.99 627.367,348.14 " fill="none" id="TestFileController-to-Company" style="stroke:#A80036;stroke-width:1.0;stroke-dasharray:7.0,7.0;"/><polygon fill="#A80036" points="625.135,352.72,632.6668,346.3739,627.3206,348.223,625.4716,342.8769,625.135,352.72" style="stroke:#A80036;stroke-width:1.0;"/><text fill="#000000" font-family="sans-serif" font-size="13" lengthAdjust="spacing" textLength="8" x="642.7857" y="312.0873">1</text><text fill="#000000" font-family="sans-serif" font-size="13" lengthAdjust="spacing" textLength="8" x="620.1979" y="341.8824">1</text><!--MD5=[138bf41468b3f0fcfefeda27a0a46eb5]
link TestFileController to GeneratePassword--><path codeLine="156" d="M766.112,218.13 C839.007,234.25 955.117,266.51 1042,322 C1071.68,340.96 1098.79,370.55 1117.27,393.5 " fill="none" id="TestFileController-to-GeneratePassword" style="stroke:#A80036;stroke-width:1.0;stroke-dasharray:7.0,7.0;"/><polygon fill="#A80036" points="1120.39,397.41,1117.9167,387.8767,1117.277,393.4973,1111.6564,392.8576,1120.39,397.41" style="stroke:#A80036;stroke-width:1.0;"/><text fill="#000000" font-family="sans-serif" font-size="13" lengthAdjust="spacing" textLength="8" x="774.1086" y="215.9268">1</text><text fill="#000000" font-family="sans-serif" font-size="13" lengthAdjust="spacing" textLength="8" x="1107.1079" y="386.6547">1</text><!--MD5=[7f6cf7f175eae0af66201860de5de971]
link Company to TestStore--><path codeLine="158" d="M498.381,476.64 C454.446,499.38 400.752,526.66 352,550 C322.572,564.09 314.365,565.78 285,580 C280.892,581.99 276.666,584.08 272.426,586.21 " fill="none" id="Company-to-TestStore" style="stroke:#A80036;stroke-width:1.0;"/><polygon fill="#A80036" points="267.824,588.54,277.6604,588.045,272.2852,586.2822,274.048,580.907,267.824,588.54" style="stroke:#A80036;stroke-width:1.0;"/><text fill="#000000" font-family="sans-serif" font-size="13" lengthAdjust="spacing" textLength="23" x="386" y="546.0669">has</text><text fill="#000000" font-family="sans-serif" font-size="13" lengthAdjust="spacing" textLength="8" x="482.5454" y="477.1012">1</text><text fill="#000000" font-family="sans-serif" font-size="13" lengthAdjust="spacing" textLength="8" x="275.6743" y="580.5731">1</text><!--MD5=[6c5aafcbe69a26e6b95ee4dd0398da2e]
link Company to RegisterClinicalStore--><path codeLine="159" d="M599.518,503.31 C603.585,519.32 609.214,535.7 617,550 C623.402,561.76 632.479,572.89 641.79,582.55 " fill="none" id="Company-to-RegisterClinicalStore" style="stroke:#A80036;stroke-width:1.0;"/><polygon fill="#A80036" points="645.504,586.32,642.0279,577.105,641.9914,582.7617,636.3347,582.7251,645.504,586.32" style="stroke:#A80036;stroke-width:1.0;"/><text fill="#000000" font-family="sans-serif" font-size="13" lengthAdjust="spacing" textLength="23" x="618" y="546.0669">has</text><text fill="#000000" font-family="sans-serif" font-size="13" lengthAdjust="spacing" textLength="8" x="592.1596" y="523.5135">1</text><text fill="#000000" font-family="sans-serif" font-size="13" lengthAdjust="spacing" textLength="8" x="629.358" y="575.5461">1</text><!--MD5=[a11230341c8e65219708844feaa40162]
link Company to ClientStore--><path codeLine="160" d="M498.245,455.75 C407.865,483.37 265.837,529.46 147,580 C142.844,581.77 138.595,583.68 134.345,585.67 " fill="none" id="Company-to-ClientStore" style="stroke:#A80036;stroke-width:1.0;"/><polygon fill="#A80036" points="129.738,587.85,139.5838,587.6041,134.2549,585.7059,136.1532,580.377,129.738,587.85" style="stroke:#A80036;stroke-width:1.0;"/><text fill="#000000" font-family="sans-serif" font-size="13" lengthAdjust="spacing" textLength="23" x="268" y="546.0669">has</text><text fill="#000000" font-family="sans-serif" font-size="13" lengthAdjust="spacing" textLength="8" x="482.3981" y="454.4812">1</text><text fill="#000000" font-family="sans-serif" font-size="13" lengthAdjust="spacing" textLength="8" x="137.3622" y="580.0141">1</text><!--MD5=[141c3afa12b2b3c0a39ffce56dbd5f19]
link Company to TestTypeStore--><path codeLine="161" d="M663.976,503.15 C682.481,519.6 702.808,536.21 723,550 C735.102,558.26 762.741,572.32 789.618,585.34 " fill="none" id="Company-to-TestTypeStore" style="stroke:#A80036;stroke-width:1.0;"/><polygon fill="#A80036" points="794.272,587.59,787.9105,580.0713,789.7705,585.4136,784.4282,587.2736,794.272,587.59" style="stroke:#A80036;stroke-width:1.0;"/><text fill="#000000" font-family="sans-serif" font-size="13" lengthAdjust="spacing" textLength="23" x="724" y="546.0669">has</text><text fill="#000000" font-family="sans-serif" font-size="13" lengthAdjust="spacing" textLength="8" x="663.2954" y="523.7245">1</text><text fill="#000000" font-family="sans-serif" font-size="13" lengthAdjust="spacing" textLength="8" x="778.3833" y="580.1785">1</text><!--MD5=[d53d7490e5836ca5709858d7326f212b]
link Company to ParameterCategoryStore--><path codeLine="162" d="M679.764,479.79 C723.911,503.19 778.285,530.1 829,550 C873.783,567.57 887.06,565.72 933,580 C938.058,581.57 943.24,583.21 948.465,584.88 " fill="none" id="Company-to-ParameterCategoryStore" style="stroke:#A80036;stroke-width:1.0;"/><polygon fill="#A80036" points="953.273,586.42,945.9281,579.8585,948.5127,584.8904,943.4808,587.475,953.273,586.42" style="stroke:#A80036;stroke-width:1.0;"/><text fill="#000000" font-family="sans-serif" font-size="13" lengthAdjust="spacing" textLength="23" x="830" y="546.0669">has</text><text fill="#000000" font-family="sans-serif" font-size="13" lengthAdjust="spacing" textLength="8" x="687.6116" y="480.512">1</text><text fill="#000000" font-family="sans-serif" font-size="13" lengthAdjust="spacing" textLength="8" x="934.6671" y="579.1029">1</text><!--MD5=[daf3d7412afa2c7651483be0b6e971d1]
link Company to ParameterStore--><path codeLine="163" d="M679.851,462.47 C755.336,489.25 866.001,526.14 965,550 C1045.55,569.41 1069.21,557.66 1149,580 C1153.04,581.13 1157.14,582.39 1161.26,583.73 " fill="none" id="Company-to-ParameterStore" style="stroke:#A80036;stroke-width:1.0;"/><polygon fill="#A80036" points="1166.1,585.35,1158.8328,578.7026,1161.358,583.7646,1156.2961,586.2898,1166.1,585.35" style="stroke:#A80036;stroke-width:1.0;"/><text fill="#000000" font-family="sans-serif" font-size="13" lengthAdjust="spacing" textLength="23" x="966" y="546.0669">has</text><text fill="#000000" font-family="sans-serif" font-size="13" lengthAdjust="spacing" textLength="8" x="687.4094" y="461.6739">1</text><text fill="#000000" font-family="sans-serif" font-size="13" lengthAdjust="spacing" textLength="8" x="1150.2728" y="594.9534">1</text><!--MD5=[25a75a76c2224f356a77c97b133e1ff1]
link Company to TestValideStore--><path codeLine="164" d="M505.7,503.32 C487.808,518.92 468.896,535.14 451,550 C437.81,560.95 423.193,572.6 409.9,583.01 " fill="none" id="Company-to-TestValideStore" style="stroke:#A80036;stroke-width:1.0;"/><polygon fill="#A80036" points="405.82,586.2,415.3749,583.8118,409.7603,583.122,410.4501,577.5074,405.82,586.2" style="stroke:#A80036;stroke-width:1.0;"/><text fill="#000000" font-family="sans-serif" font-size="13" lengthAdjust="spacing" textLength="23" x="472" y="546.0669">has</text><text fill="#000000" font-family="sans-serif" font-size="13" lengthAdjust="spacing" textLength="8" x="489.1064" y="523.5245">1</text><text fill="#000000" font-family="sans-serif" font-size="13" lengthAdjust="spacing" textLength="8" x="405.0016" y="575.4014">1</text><!--MD5=[717d4b03d3c4372f4eafe5e342a0a7dd]
link Company to AuthFacade--><path codeLine="166" d="M560.44,503.18 C550.074,530.1 538.847,559.26 530.404,581.19 " fill="none" id="Company-to-AuthFacade" style="stroke:#A80036;stroke-width:1.0;"/><polygon fill="#A80036" points="528.537,586.03,535.5083,579.073,530.3367,581.3651,528.0445,576.1935,528.537,586.03" style="stroke:#A80036;stroke-width:1.0;"/><text fill="#000000" font-family="sans-serif" font-size="13" lengthAdjust="spacing" textLength="23" x="550" y="546.0669">has</text><text fill="#000000" font-family="sans-serif" font-size="13" lengthAdjust="spacing" textLength="8" x="549.0823" y="523.7576">1</text><text fill="#000000" font-family="sans-serif" font-size="13" lengthAdjust="spacing" textLength="8" x="522.0915" y="575.1963">1</text><!--MD5=[25ae6ae9e1e084c6076b23174f1bb2ad]
link TestFileController to TestStore--><path codeLine="169" d="M627.701,226.52 C561.368,249.71 461.277,291.72 391,353 C314.76,419.48 257.541,526.67 231.508,581.42 " fill="none" id="TestFileController-to-TestStore" style="stroke:#A80036;stroke-width:1.0;stroke-dasharray:7.0,7.0;"/><polygon fill="#A80036" points="229.236,586.23,236.6884,579.791,231.3657,581.7062,229.4504,576.3835,229.236,586.23" style="stroke:#A80036;stroke-width:1.0;"/><text fill="#000000" font-family="sans-serif" font-size="13" lengthAdjust="spacing" textLength="8" x="612.142" y="225.1403">1</text><text fill="#000000" font-family="sans-serif" font-size="13" lengthAdjust="spacing" textLength="8" x="223.1409" y="575.4375">1</text><!--MD5=[2c69bf4b20dcd1e7214fa1610f861617]
link TestFileController to RegisterClinicalStore--><path codeLine="170" d="M701.742,292.33 C705.083,358.39 709.259,451.37 711,533 C711.161,540.55 712.6,542.62 711,550 C708.687,560.68 704.494,571.7 699.962,581.61 " fill="none" id="TestFileController-to-RegisterClinicalStore" style="stroke:#A80036;stroke-width:1.0;stroke-dasharray:7.0,7.0;"/><polygon fill="#A80036" points="697.716,586.38,705.1669,579.9391,699.8446,581.8557,697.928,576.5334,697.716,586.38" style="stroke:#A80036;stroke-width:1.0;"/><text fill="#000000" font-family="sans-serif" font-size="13" lengthAdjust="spacing" textLength="8" x="693.8011" y="312.0368">1</text><text fill="#000000" font-family="sans-serif" font-size="13" lengthAdjust="spacing" textLength="8" x="692.3387" y="575.6185">1</text><!--MD5=[1d4025ebef3e9e8587d1a4b2a0bbb326]
link TestFileController to ClientStore--><path codeLine="171" d="M627.843,215.34 C537.263,231.68 376.957,270.52 266,353 C254.878,361.27 148.772,512.81 100.5933,582.03 " fill="none" id="TestFileController-to-ClientStore" style="stroke:#A80036;stroke-width:1.0;stroke-dasharray:7.0,7.0;"/><polygon fill="#A80036" points="97.5052,586.46,105.9301,581.359,100.3619,582.3565,99.3645,576.7882,97.5052,586.46" style="stroke:#A80036;stroke-width:1.0;"/><text fill="#000000" font-family="sans-serif" font-size="13" lengthAdjust="spacing" textLength="8" x="611.8415" y="212.8316">1</text><text fill="#000000" font-family="sans-serif" font-size="13" lengthAdjust="spacing" textLength="8" x="93.1157" y="575.2415">1</text><!--MD5=[82dd911cfbb62d4d2f8dbbf9b14739cf]
link TestFileController to TestTypeStore--><path codeLine="172" d="M730.508,292.16 C765.115,382.19 817.392,518.17 841.7,581.4 " fill="none" id="TestFileController-to-TestTypeStore" style="stroke:#A80036;stroke-width:1.0;stroke-dasharray:7.0,7.0;"/><polygon fill="#A80036" points="843.542,586.19,844.0617,576.3549,841.7552,581.5201,836.59,579.2137,843.542,586.19" style="stroke:#A80036;stroke-width:1.0;"/><text fill="#000000" font-family="sans-serif" font-size="13" lengthAdjust="spacing" textLength="8" x="724.9516" y="312.1523">1</text><text fill="#000000" font-family="sans-serif" font-size="13" lengthAdjust="spacing" textLength="8" x="832.3538" y="575.3893">1</text><!--MD5=[fafa4cecd8adc1454ef83126b747d4a2]
link TestFileController to ParameterCategoryStore--><path codeLine="173" d="M766.2,287.68 C841.841,378.05 959.38,518.48 1012.83,582.34 " fill="none" id="TestFileController-to-ParameterCategoryStore" style="stroke:#A80036;stroke-width:1.0;stroke-dasharray:7.0,7.0;"/><polygon fill="#A80036" points="1016.26,586.44,1013.5366,576.9752,1013.045,582.6106,1007.4096,582.1191,1016.26,586.44" style="stroke:#A80036;stroke-width:1.0;"/><text fill="#000000" font-family="sans-serif" font-size="13" lengthAdjust="spacing" textLength="8" x="774.2063" y="293.0838">1</text><text fill="#000000" font-family="sans-serif" font-size="13" lengthAdjust="spacing" textLength="8" x="1001.9731" y="575.2172">1</text><!--MD5=[40be29c9efddbad4419d9d5a34d7ef93]
link TestFileController to ParameterStore--><path codeLine="174" d="M766.343,247.89 C809.351,275.75 864.822,314.03 910,353 C979.281,412.76 979.851,445.47 1051,503 C1085.72,531.07 1128.05,557.22 1163.65,577.28 " fill="none" id="TestFileController-to-ParameterStore" style="stroke:#A80036;stroke-width:1.0;stroke-dasharray:7.0,7.0;"/><polygon fill="#A80036" points="1168.4,579.94,1162.4948,572.0578,1164.0353,577.5009,1158.5922,579.0414,1168.4,579.94" style="stroke:#A80036;stroke-width:1.0;"/><text fill="#000000" font-family="sans-serif" font-size="13" lengthAdjust="spacing" textLength="8" x="773.9065" y="248.714">1</text><text fill="#000000" font-family="sans-serif" font-size="13" lengthAdjust="spacing" textLength="8" x="1150.51" y="571.0543">1</text><!--MD5=[b724396581b0a05623137304cac05e96]
link TestFileController to TestValideStore--><path codeLine="175" d="M627.784,240.46 C581.741,266.71 522.351,305.98 481,353 C420.672,421.6 388.244,527.06 374.724,581.24 " fill="none" id="TestFileController-to-TestValideStore" style="stroke:#A80036;stroke-width:1.0;stroke-dasharray:7.0,7.0;"/><polygon fill="#A80036" points="373.475,586.32,379.5179,578.5429,374.6749,581.4661,371.7517,576.6231,373.475,586.32" style="stroke:#A80036;stroke-width:1.0;"/><text fill="#000000" font-family="sans-serif" font-size="13" lengthAdjust="spacing" textLength="8" x="611.776" y="257.3397">1</text><text fill="#000000" font-family="sans-serif" font-size="13" lengthAdjust="spacing" textLength="8" x="365.9855" y="575.5461">1</text><!--MD5=[f91795bc24774a325d868bbd441755c7]
link TestFileController to CSVReader--><path codeLine="176" d="M627.67,206.62 C520.92,211.97 313.057,233.92 164,322 C134.535,339.41 109.583,369.56 93.131,393.1 " fill="none" id="TestFileController-to-CSVReader" style="stroke:#A80036;stroke-width:1.0;stroke-dasharray:7.0,7.0;"/><polygon fill="#A80036" points="90.1588,397.41,98.5641,392.2766,92.9997,393.2955,91.9809,387.7312,90.1588,397.41" style="stroke:#A80036;stroke-width:1.0;"/><text fill="#000000" font-family="sans-serif" font-size="13" lengthAdjust="spacing" textLength="8" x="612.1078" y="203.1881">1</text><text fill="#000000" font-family="sans-serif" font-size="13" lengthAdjust="spacing" textLength="8" x="85.0791" y="386.6547">1</text><!--MD5=[b0f4f6db8206580012ef9cd998ed01c5]
link TestStore to Test--><path codeLine="179" d="M221.331,647.84 C230.631,693.47 253.251,781.72 298,843 C347.405,910.65 424.542,967.3 483.738,1004.48 " fill="none" id="TestStore-to-Test" style="stroke:#A80036;stroke-width:1.0;"/><polygon fill="#A80036" points="488.327,1007.346,482.813,999.1854,484.0864,1004.697,478.5747,1005.9704,488.327,1007.346" style="stroke:#A80036;stroke-width:1.0;"/><text fill="#000000" font-family="sans-serif" font-size="13" lengthAdjust="spacing" textLength="54" x="299" y="791.5669">contains</text><text fill="#000000" font-family="sans-serif" font-size="13" lengthAdjust="spacing" textLength="8" x="213.593" y="667.4874">1</text><text fill="#000000" font-family="sans-serif" font-size="13" lengthAdjust="spacing" textLength="7" x="473.3996" y="999.3682">*</text><!--MD5=[f22fcec12703159209526dd88d463995]
link RegisterClinicalStore to ClinicalAnalysisLaboratory--><path codeLine="180" d="M681,647.65 C681,669.2 681,699.11 681,725.61 " fill="none" id="RegisterClinicalStore-to-ClinicalAnalysisLaboratory" style="stroke:#A80036;stroke-width:1.0;"/><polygon fill="#A80036" points="681,730.86,685,721.86,681,725.86,677,721.86,681,730.86" style="stroke:#A80036;stroke-width:1.0;"/><text fill="#000000" font-family="sans-serif" font-size="13" lengthAdjust="spacing" textLength="54" x="682" y="697.0669">contains</text><text fill="#000000" font-family="sans-serif" font-size="13" lengthAdjust="spacing" textLength="8" x="672.2125" y="667.26">1</text><text fill="#000000" font-family="sans-serif" font-size="13" lengthAdjust="spacing" textLength="7" x="673.5516" y="719.78">*</text><!--MD5=[1d934105a045dbf126514c6917bd5072]
link ClientStore to Client--><path codeLine="181" d="M83.0459,647.73 C104.2814,752.15 175.858,1104.109 207.15,1257.977 " fill="none" id="ClientStore-to-Client" style="stroke:#A80036;stroke-width:1.0;"/><polygon fill="#A80036" points="208.155,1262.918,210.28,1253.3011,207.1579,1258.0184,202.4406,1254.8964,208.155,1262.918" style="stroke:#A80036;stroke-width:1.0;"/><text fill="#000000" font-family="sans-serif" font-size="13" lengthAdjust="spacing" textLength="54" x="133" y="886.0669">contains</text><text fill="#000000" font-family="sans-serif" font-size="13" lengthAdjust="spacing" textLength="8" x="75.4487" y="667.3557">1</text><text fill="#000000" font-family="sans-serif" font-size="13" lengthAdjust="spacing" textLength="7" x="199.3663" y="1252.1132">*</text><!--MD5=[3eebf0e5f359806b77b30e9524c37676]
link TestTypeStore to TestType--><path codeLine="182" d="M854.524,647.79 C852.975,736.76 847.326,1008.293 833,1233 C831.955,1249.391 830.426,1267.292 828.923,1283.256 " fill="none" id="TestTypeStore-to-TestType" style="stroke:#A80036;stroke-width:1.0;"/><polygon fill="#A80036" points="828.415,1288.591,833.2483,1280.0097,828.8879,1283.6134,825.2841,1279.253,828.415,1288.591" style="stroke:#A80036;stroke-width:1.0;"/><text fill="#000000" font-family="sans-serif" font-size="13" lengthAdjust="spacing" textLength="54" x="851" y="886.0669">contains</text><text fill="#000000" font-family="sans-serif" font-size="13" lengthAdjust="spacing" textLength="8" x="845.6428" y="667.4275">1</text><text fill="#000000" font-family="sans-serif" font-size="13" lengthAdjust="spacing" textLength="7" x="821.5551" y="1277.8409">*</text><!--MD5=[d6274e3b73b5bc8f467c6cfbf5bf003e]
link ParameterCategoryStore to ParameterCategory--><path codeLine="183" d="M1039.92,647.73 C1035.88,758.45 1021.69,1147.473 1016.73,1283.562 " fill="none" id="ParameterCategoryStore-to-ParameterCategory" style="stroke:#A80036;stroke-width:1.0;"/><polygon fill="#A80036" points="1016.54,1288.685,1020.8646,1279.8364,1016.7218,1283.6883,1012.8699,1279.5455,1016.54,1288.685" style="stroke:#A80036;stroke-width:1.0;"/><text fill="#000000" font-family="sans-serif" font-size="13" lengthAdjust="spacing" textLength="54" x="1033" y="886.0669">contains</text><text fill="#000000" font-family="sans-serif" font-size="13" lengthAdjust="spacing" textLength="8" x="1030.9199" y="667.3557">1</text><text fill="#000000" font-family="sans-serif" font-size="13" lengthAdjust="spacing" textLength="7" x="1009.2399" y="1277.9493">*</text><!--MD5=[a0992dda039fed1bb57aff5aacace800]
link ParameterStore to Parameter--><path codeLine="184" d="M1224.23,654.12 C1212.66,687.74 1198,739.53 1198,786 C1198,786 1198,786 1198,1628 C1198,1719.264 889.241,1750.842 752.202,1760.363 " fill="none" id="ParameterStore-to-Parameter" style="stroke:#A80036;stroke-width:1.0;"/><polygon fill="#A80036" points="747.002,1760.72,756.2551,1764.0935,751.9902,1760.3772,755.7066,1756.1123,747.002,1760.72" style="stroke:#A80036;stroke-width:1.0;"/><text fill="#000000" font-family="sans-serif" font-size="13" lengthAdjust="spacing" textLength="54" x="1199" y="1336.5669">contains</text><text fill="#000000" font-family="sans-serif" font-size="13" lengthAdjust="spacing" textLength="8" x="1213.2868" y="673.6204">1</text><text fill="#000000" font-family="sans-serif" font-size="13" lengthAdjust="spacing" textLength="7" x="755.0101" y="1756.3111">*</text><!--MD5=[ae38701770910d398b42321583ba1835]
link TestValideStore to Test--><path codeLine="185" d="M363.436,647.79 C359.375,692.24 356.477,777.66 384,843 C406.178,895.66 447.096,944.24 484.723,981.285 " fill="none" id="TestValideStore-to-Test" style="stroke:#A80036;stroke-width:1.0;"/><polygon fill="#A80036" points="488.353,984.834,484.7137,975.6822,484.7777,981.3387,479.1212,981.4027,488.353,984.834" style="stroke:#A80036;stroke-width:1.0;"/><text fill="#000000" font-family="sans-serif" font-size="13" lengthAdjust="spacing" textLength="54" x="385" y="791.5669">contains</text><text fill="#000000" font-family="sans-serif" font-size="13" lengthAdjust="spacing" textLength="8" x="353.9468" y="667.4275">1</text><text fill="#000000" font-family="sans-serif" font-size="13" lengthAdjust="spacing" textLength="7" x="473.4281" y="974.7062">*</text><!--MD5=[3994f36c72829dbcddd1cf7021dddf61]
link Test to Client--><path codeLine="188" d="M488.186,1117.897 C433.81,1161.43 361.927,1218.978 306.568,1263.297 " fill="none" id="Test-to-Client" style="stroke:#A80036;stroke-width:1.0;"/><polygon fill="#A80036" points="302.611,1266.465,312.1363,1263.9611,306.5137,1263.3394,307.1354,1257.7168,302.611,1266.465" style="stroke:#A80036;stroke-width:1.0;"/><text fill="#000000" font-family="sans-serif" font-size="13" lengthAdjust="spacing" textLength="23" x="366" y="1229.0669">has</text><text fill="#000000" font-family="sans-serif" font-size="13" lengthAdjust="spacing" textLength="8" x="472.4594" y="1120.2761">1</text><text fill="#000000" font-family="sans-serif" font-size="13" lengthAdjust="spacing" textLength="8" x="310.4111" y="1256.822">1</text><!--MD5=[e981d4f96c4342412d1e68160b30cf70]
link Test to TestType--><path codeLine="189" d="M647.597,1140.126 C691.818,1187.975 745.078,1245.603 781.427,1284.934 " fill="none" id="Test-to-TestType" style="stroke:#A80036;stroke-width:1.0;"/><polygon fill="#A80036" points="784.891,1288.682,781.7204,1279.3574,781.4975,1285.0099,775.8451,1284.787,784.891,1288.682" style="stroke:#A80036;stroke-width:1.0;"/><text fill="#000000" font-family="sans-serif" font-size="13" lengthAdjust="spacing" textLength="23" x="728" y="1229.0669">has</text><text fill="#000000" font-family="sans-serif" font-size="13" lengthAdjust="spacing" textLength="8" x="655.5648" y="1144.8038">1</text><text fill="#000000" font-family="sans-serif" font-size="13" lengthAdjust="spacing" textLength="8" x="770.2899" y="1277.9459">1</text><!--MD5=[8742b9b07f4ff1e96b776c10733812b1]
link Test to ParameterCategory--><path codeLine="190" d="M647.547,1099.277 C719.153,1140.557 826.825,1203.932 918,1263 C929.222,1270.27 941,1278.234 952.329,1286.069 " fill="none" id="Test-to-ParameterCategory" style="stroke:#A80036;stroke-width:1.0;"/><polygon fill="#A80036" points="956.48,1288.949,951.3649,1280.5326,952.3717,1286.0992,946.8051,1287.106,956.48,1288.949" style="stroke:#A80036;stroke-width:1.0;"/><text fill="#000000" font-family="sans-serif" font-size="13" lengthAdjust="spacing" textLength="23" x="863" y="1229.0669">has</text><text fill="#000000" font-family="sans-serif" font-size="13" lengthAdjust="spacing" textLength="8" x="655.5101" y="1100.0614">1</text><text fill="#000000" font-family="sans-serif" font-size="13" lengthAdjust="spacing" textLength="8" x="938.5159" y="1277.9369">1</text><!--MD5=[c23963f6e403fc3ebec8dae22c30ade6]
link Test to Parameter--><path codeLine="191" d="M647.615,1185.402 C667.857,1230.019 684,1281.209 684,1331 C684,1331 684,1331 684,1628 C684,1659.778 685.105,1695.715 686.153,1722.663 " fill="none" id="Test-to-Parameter" style="stroke:#A80036;stroke-width:1.0;"/><polygon fill="#A80036" points="686.362,1727.929,690.0014,1718.7772,686.1634,1722.9329,682.0077,1719.095,686.362,1727.929" style="stroke:#A80036;stroke-width:1.0;"/><text fill="#000000" font-family="sans-serif" font-size="13" lengthAdjust="spacing" textLength="23" x="685" y="1506.5669">has</text><text fill="#000000" font-family="sans-serif" font-size="13" lengthAdjust="spacing" textLength="8" x="643.9865" y="1205.5701">1</text><text fill="#000000" font-family="sans-serif" font-size="13" lengthAdjust="spacing" textLength="7" x="678.4147" y="1716.8264">*</text><!--MD5=[72163acd41df4db10e2bb78c0e4b52d4]
link Test to Report--><path codeLine="193" d="M568,1186.01 C568,1226.676 568,1268.089 568,1296.186 " fill="none" id="Test-to-Report" style="stroke:#A80036;stroke-width:1.0;"/><polygon fill="#A80036" points="568,1301.274,572,1292.274,568,1296.274,564,1292.274,568,1301.274" style="stroke:#A80036;stroke-width:1.0;"/><text fill="#000000" font-family="sans-serif" font-size="13" lengthAdjust="spacing" textLength="23" x="569" y="1229.0669">has</text><text fill="#000000" font-family="sans-serif" font-size="13" lengthAdjust="spacing" textLength="8" x="559.7813" y="1205.7734">1</text><text fill="#000000" font-family="sans-serif" font-size="13" lengthAdjust="spacing" textLength="8" x="559.175" y="1290.4906">1</text><!--MD5=[f24c888dadeb846430474fe80a58922b]
link Test to TestParameter--><path codeLine="194" d="M528.568,1186.043 C522.338,1211.381 516.73,1237.855 513,1263 C498.97,1357.587 506.778,1382.395 505,1478 C504.603,1499.33 502.796,1504.781 505,1526 C507.551,1550.562 513.537,1577.98 518.468,1597.886 " fill="none" id="Test-to-TestParameter" style="stroke:#A80036;stroke-width:1.0;"/><polygon fill="#A80036" points="519.696,1602.778,521.385,1593.075,518.479,1597.9284,513.6256,1595.0223,519.696,1602.778" style="stroke:#A80036;stroke-width:1.0;"/><text fill="#000000" font-family="sans-serif" font-size="13" lengthAdjust="spacing" textLength="23" x="507" y="1444.0669">has</text><text fill="#000000" font-family="sans-serif" font-size="13" lengthAdjust="spacing" textLength="8" x="518.1928" y="1205.8082">1</text><text fill="#000000" font-family="sans-serif" font-size="13" lengthAdjust="spacing" textLength="7" x="510.3063" y="1592.1288">*</text><!--MD5=[9ea131e34883d590a1cfd41d17f43241]
link Report to Diagnosis--><path codeLine="196" d="M568,1362.648 C568,1395.523 568,1447.863 568,1477.857 " fill="none" id="Report-Diagnosis" style="stroke:#A80036;stroke-width:1.0;"/><text fill="#000000" font-family="sans-serif" font-size="13" lengthAdjust="spacing" textLength="23" x="569" y="1444.0669">has</text><text fill="#000000" font-family="sans-serif" font-size="13" lengthAdjust="spacing" textLength="8" x="559.2125" y="1382.2576">1</text><text fill="#000000" font-family="sans-serif" font-size="13" lengthAdjust="spacing" textLength="8" x="558.975" y="1466.8324">1</text><!--MD5=[14feee8412b59bb6a0d308f3873ac034]
link Diagnosis to TestParameter--><path codeLine="197" d="M560.1,1526.135 C552.591,1548.126 541.362,1581.012 533.864,1602.968 " fill="none" id="Diagnosis-TestParameter" style="stroke:#A80036;stroke-width:1.0;"/><text fill="#000000" font-family="sans-serif" font-size="13" lengthAdjust="spacing" textLength="54" x="551" y="1569.0669">contains</text><text fill="#000000" font-family="sans-serif" font-size="13" lengthAdjust="spacing" textLength="8" x="549.1994" y="1545.9291">1</text><text fill="#000000" font-family="sans-serif" font-size="13" lengthAdjust="spacing" textLength="7" x="527.9823" y="1591.9718">*</text><!--MD5=[8fa5194589bffb331f8c271d11ca426a]
link AuthFacade to UserStore--><path codeLine="199" d="M514.882,647.65 C512.815,676.59 509.671,720.61 507.486,751.2 " fill="none" id="AuthFacade-to-UserStore" style="stroke:#A80036;stroke-width:1.0;"/><polygon fill="#A80036" points="507.117,756.37,511.7495,747.6786,507.474,751.3828,503.7699,747.1073,507.117,756.37" style="stroke:#A80036;stroke-width:1.0;"/><text fill="#000000" font-family="sans-serif" font-size="13" lengthAdjust="spacing" textLength="23" x="514" y="697.0669">has</text><text fill="#000000" font-family="sans-serif" font-size="13" lengthAdjust="spacing" textLength="8" x="505.6775" y="667.26">1</text><text fill="#000000" font-family="sans-serif" font-size="13" lengthAdjust="spacing" textLength="8" x="498.7286" y="745.6064">1</text><!--MD5=[92e8e476cc9e9004a7125f53a120ec97]
link TestParameter to Parameter--><path codeLine="202" d="M553.481,1651.071 C577.4,1671.151 612.59,1700.693 640.978,1724.525 " fill="none" id="TestParameter-to-Parameter" style="stroke:#A80036;stroke-width:1.0;"/><polygon fill="#A80036" points="645.115,1727.998,640.796,1719.1466,641.2863,1724.7822,635.6508,1725.2725,645.115,1727.998" style="stroke:#A80036;stroke-width:1.0;"/><text fill="#000000" font-family="sans-serif" font-size="13" lengthAdjust="spacing" textLength="23" x="608" y="1694.0669">has</text><text fill="#000000" font-family="sans-serif" font-size="13" lengthAdjust="spacing" textLength="8" x="551.498" y="1671.245">1</text><text fill="#000000" font-family="sans-serif" font-size="13" lengthAdjust="spacing" textLength="8" x="628.4706" y="1716.9081">1</text><!--MD5=[0e00e25ac6b8c14659aaff2cf7e5df08]
link TestParameter to TestParameterResult--><path codeLine="203" d="M524.304,1651.071 C522.863,1670.657 520.761,1699.245 519.033,1722.757 " fill="none" id="TestParameter-to-TestParameterResult" style="stroke:#A80036;stroke-width:1.0;"/><polygon fill="#A80036" points="518.647,1727.998,523.2972,1719.3161,519.0142,1723.0115,515.3188,1718.7285,518.647,1727.998" style="stroke:#A80036;stroke-width:1.0;"/><text fill="#000000" font-family="sans-serif" font-size="13" lengthAdjust="spacing" textLength="23" x="523" y="1694.0669">has</text><text fill="#000000" font-family="sans-serif" font-size="13" lengthAdjust="spacing" textLength="8" x="514.8444" y="1671.245">1</text><text fill="#000000" font-family="sans-serif" font-size="13" lengthAdjust="spacing" textLength="8" x="510.3975" y="1716.9081">1</text><!--MD5=[52200cc2361fa0ac0481dd6ffcdb824b]
link TestParameterResult to ReferenceValue--><path codeLine="206" d="M516,1802.244 C516,1823.254 516,1850.109 516,1873.561 " fill="none" id="TestParameterResult-to-ReferenceValue" style="stroke:#A80036;stroke-width:1.0;"/><polygon fill="#A80036" points="516,1878.8197,520,1869.8197,516,1873.8197,512,1869.8197,516,1878.8197" style="stroke:#A80036;stroke-width:1.0;"/><text fill="#000000" font-family="sans-serif" font-size="13" lengthAdjust="spacing" textLength="23" x="517" y="1845.0669">has</text><text fill="#000000" font-family="sans-serif" font-size="13" lengthAdjust="spacing" textLength="8" x="507.3375" y="1821.765">1</text><text fill="#000000" font-family="sans-serif" font-size="13" lengthAdjust="spacing" textLength="8" x="507.4375" y="1867.8399">1</text><!--MD5=[d480452e7d21fe720ba0207568bc7434]
link ClinicalAnalysisLaboratory to Test--><path codeLine="208" d="M657.449,843.02 C648.376,864.22 637.561,889.49 626.639,915 " fill="none" id="ClinicalAnalysisLaboratory-to-Test" style="stroke:#A80036;stroke-width:1.0;"/><polygon fill="#A80036" points="624.599,919.77,631.8224,913.075,626.5696,915.1747,624.4699,909.922,624.599,919.77" style="stroke:#A80036;stroke-width:1.0;"/><text fill="#000000" font-family="sans-serif" font-size="13" lengthAdjust="spacing" textLength="59" x="646" y="886.0669">performs</text><text fill="#000000" font-family="sans-serif" font-size="13" lengthAdjust="spacing" textLength="8" x="645.919" y="863.2324">1</text><text fill="#000000" font-family="sans-serif" font-size="13" lengthAdjust="spacing" textLength="7" x="620.5029" y="909.1531">*</text><!--MD5=[9167e2b7c9b526126a00db7fce3e9d0e]
@startuml
class TestFileUI{
}

class TestFileController{
String[] line;
getTestLine()
validCode()
validLab()
validClient()
validTestType()
validCategory()
validParameter()
validDateTime()
addCreatedTest()
}

class CSVReader{
createTestFromFile()
}

class Company{
designation;
getTestStore()
getClientStore()
getAuthFacade()
getTestTypeStore()
getParameterCategoryStore()
getParameterStore()
getTestVStore()
}

class TestStore{
getTestByNHS()
}

class RegisterClinicalStore{
getClinicById()
}

class ClientStore{
getClientByTIN()
}

class TestTypeStore{
getTestTypeById()
}

class ParameterCategoryStore{
getCategoryByCode()
}

class ParameterStore{
getParameterByCode()
}

class ParameterStore{
getClinicByCode()
}

class TestValideStore{
saveTestVali()
}

class Test{
String testNHScode;
String testCode;
String dateSample;
String timeSmaple;
String dateChemAnalysis;
String timeChemAnalysis;
String dateDiagnosis;
String timeDiagnosis;
String dateValidTest;
String timeValidTest;
setCode()
setClient()
setTestType()
setCategory()
addTestParameter()
addTestResult()
setDateTimeAll()
}

class ClinicalAnalysisLaboratory{
String laboratoryID;
String name;
String adress;
String phoneNumber;
String numberTIN;
}

class AuthFacade{
createUser()
}

class UserStore{
createUser()
}

class GeneratePassword{
generatePassword;
}

class Report{
String text;
}

class Diagnosis{
}

class TestParameter{
}

class TestParameterResult{
String result;
String metric;
}

class ReferenceValue{
String code;
Double min;
Double max;
String usedMetric;
}

class Client{
    String citizenCardNumber;
    String numberNHS;
    String numberTIN;
    String birthDate;
    String sex;
    String phoneNumber;
    String name;
}

class TestType {
    String designation;
    String code;
    String collectingMethods;
}

class Parameter{
    String designation;
    String code
}

class ParameterCategory{
    String code;
    String designation;
    String NHSID;
}

TestFileUI "1" ..> "1" TestFileController

TestFileController "1" ..> "1" Company
TestFileController "1" ..> "1" GeneratePassword

Company "1" - -> "1" TestStore :has
Company "1" - -> "1" RegisterClinicalStore :has
Company "1" - -> "1" ClientStore :has
Company "1" - -> "1" TestTypeStore :has
Company "1" - -> "1" ParameterCategoryStore :has
Company "1" - -> "1" ParameterStore :has
Company "1" - -> "1" TestValideStore :has

Company "1" - -> "1" AuthFacade :has


TestFileController "1" ..> "1" TestStore
TestFileController "1" ..> "1" RegisterClinicalStore
TestFileController "1" ..> "1" ClientStore
TestFileController "1" ..> "1" TestTypeStore
TestFileController "1" ..> "1" ParameterCategoryStore
TestFileController "1" ..> "1" ParameterStore
TestFileController "1" ..> "1" TestValideStore
TestFileController "1" ..> "1" CSVReader


TestStore "1" - -> "*" Test :contains
RegisterClinicalStore "1" - -> "*" ClinicalAnalysisLaboratory :contains
ClientStore "1" - -> "*" Client :contains
TestTypeStore "1" - -> "*" TestType :contains
ParameterCategoryStore "1" - -> "*" ParameterCategory :contains
ParameterStore "1" - -> "*" Parameter :contains
TestValideStore "1" - -> "*" Test :contains


Test "1" - -> "1" Client :has
Test "1" - -> "1" TestType :has
Test "1" - -> "1" ParameterCategory :has
Test "1" - -> "*" Parameter :has

Test "1" - -> "1" Report :has
Test "1" - -> "*" TestParameter : has

Report "1" - - "1" Diagnosis :has
Diagnosis "1" - - "*" TestParameter :contains

AuthFacade "1" - -> "1" UserStore :has


TestParameter "1" - -> "1" Parameter :has 
TestParameter "1" - -> "1" TestParameterResult :has 


TestParameterResult "1" - -> "1" ReferenceValue: has

ClinicalAnalysisLaboratory "1" - -> "*" Test: performs
@enduml

PlantUML version 1.2021.7(Sun May 23 12:40:07 UTC 2021)
(GPL source distribution)
Java Runtime: Java(TM) SE Runtime Environment
JVM: Java HotSpot(TM) 64-Bit Server VM
Default Encoding: UTF-8
Language: en
Country: US
--></g></svg>