<?xml version="1.0" encoding="UTF-8" standalone="no"?><svg xmlns="http://www.w3.org/2000/svg" xmlns:xlink="http://www.w3.org/1999/xlink" contentScriptType="application/ecmascript" contentStyleType="text/css" height="1239px" preserveAspectRatio="none" style="width:1653px;height:1239px;background:#FFFFFF;" version="1.1" viewBox="0 0 1653 1239" width="1653px" zoomAndPan="magnify"><defs><filter height="300%" id="fozqrruk9aqs6" width="300%" x="-1" y="-1"><feGaussianBlur result="blurOut" stdDeviation="2.0"/><feColorMatrix in="blurOut" result="blurOut2" type="matrix" values="0 0 0 0 0 0 0 0 0 0 0 0 0 0 0 0 0 0 .4 0"/><feOffset dx="4.0" dy="4.0" in="blurOut2" result="blurOut3"/><feBlend in="SourceGraphic" in2="blurOut3" mode="normal"/></filter></defs><g><text fill="#000000" font-family="sans-serif" font-size="18" lengthAdjust="spacing" textLength="189" x="725.5" y="16.708">UC7 - Class Diagram</text><!--MD5=[a126dd63c8621c017159ae62771fbe54]
class RegisterEmployeeUI--><rect codeLine="3" fill="#FEFECE" filter="url(#fozqrruk9aqs6)" height="48" id="RegisterEmployeeUI" style="stroke:#A80036;stroke-width:1.5;" width="154" x="1351" y="27.9531"/><ellipse cx="1366" cy="43.9531" fill="#ADD1B2" rx="11" ry="11" style="stroke:#A80036;stroke-width:1.0;"/><path d="M1368.3438,39.625 C1367.4063,39.1875 1366.8125,39.0469 1365.9375,39.0469 C1363.3125,39.0469 1361.3125,41.125 1361.3125,43.8438 L1361.3125,44.9688 C1361.3125,47.5469 1363.4219,49.4375 1366.3125,49.4375 C1367.5313,49.4375 1368.6875,49.1406 1369.4375,48.5938 C1370.0156,48.1875 1370.3438,47.7344 1370.3438,47.3438 C1370.3438,46.8906 1369.9531,46.5 1369.4844,46.5 C1369.2656,46.5 1369.0625,46.5781 1368.875,46.7656 C1368.4219,47.25 1368.4219,47.25 1368.2344,47.3438 C1367.8125,47.6094 1367.125,47.7344 1366.3594,47.7344 C1364.3125,47.7344 1363.0156,46.6406 1363.0156,44.9375 L1363.0156,43.8438 C1363.0156,42.0625 1364.2656,40.75 1366,40.75 C1366.5781,40.75 1367.1875,40.9063 1367.6563,41.1563 C1368.1406,41.4375 1368.3125,41.6563 1368.4063,42.0625 C1368.4688,42.4688 1368.5,42.5938 1368.6406,42.7188 C1368.7813,42.8594 1369.0156,42.9688 1369.2344,42.9688 C1369.5,42.9688 1369.7656,42.8281 1369.9375,42.6094 C1370.0469,42.4531 1370.0781,42.2656 1370.0781,41.8438 L1370.0781,40.4219 C1370.0781,39.9844 1370.0625,39.8594 1369.9688,39.7031 C1369.8125,39.4375 1369.5313,39.2969 1369.2344,39.2969 C1368.9375,39.2969 1368.7344,39.3906 1368.5156,39.7031 L1368.3438,39.625 Z " fill="#000000"/><text fill="#000000" font-family="sans-serif" font-size="12" lengthAdjust="spacing" textLength="122" x="1380" y="48.1074">RegisterEmployeeUI</text><line style="stroke:#A80036;stroke-width:1.5;" x1="1352" x2="1504" y1="59.9531" y2="59.9531"/><line style="stroke:#A80036;stroke-width:1.5;" x1="1352" x2="1504" y1="67.9531" y2="67.9531"/><!--MD5=[6a4e699b59c2ecf8286aba2faa72e4bd]
class RegisterEmployeeController--><rect codeLine="5" fill="#FEFECE" filter="url(#fozqrruk9aqs6)" height="112.0234" id="RegisterEmployeeController" style="stroke:#A80036;stroke-width:1.5;" width="201" x="877.5" y="136.9531"/><ellipse cx="892.5" cy="152.9531" fill="#ADD1B2" rx="11" ry="11" style="stroke:#A80036;stroke-width:1.0;"/><path d="M894.8438,148.625 C893.9063,148.1875 893.3125,148.0469 892.4375,148.0469 C889.8125,148.0469 887.8125,150.125 887.8125,152.8438 L887.8125,153.9688 C887.8125,156.5469 889.9219,158.4375 892.8125,158.4375 C894.0313,158.4375 895.1875,158.1406 895.9375,157.5938 C896.5156,157.1875 896.8438,156.7344 896.8438,156.3438 C896.8438,155.8906 896.4531,155.5 895.9844,155.5 C895.7656,155.5 895.5625,155.5781 895.375,155.7656 C894.9219,156.25 894.9219,156.25 894.7344,156.3438 C894.3125,156.6094 893.625,156.7344 892.8594,156.7344 C890.8125,156.7344 889.5156,155.6406 889.5156,153.9375 L889.5156,152.8438 C889.5156,151.0625 890.7656,149.75 892.5,149.75 C893.0781,149.75 893.6875,149.9063 894.1563,150.1563 C894.6406,150.4375 894.8125,150.6563 894.9063,151.0625 C894.9688,151.4688 895,151.5938 895.1406,151.7188 C895.2813,151.8594 895.5156,151.9688 895.7344,151.9688 C896,151.9688 896.2656,151.8281 896.4375,151.6094 C896.5469,151.4531 896.5781,151.2656 896.5781,150.8438 L896.5781,149.4219 C896.5781,148.9844 896.5625,148.8594 896.4688,148.7031 C896.3125,148.4375 896.0313,148.2969 895.7344,148.2969 C895.4375,148.2969 895.2344,148.3906 895.0156,148.7031 L894.8438,148.625 Z " fill="#000000"/><text fill="#000000" font-family="sans-serif" font-size="12" lengthAdjust="spacing" textLength="169" x="906.5" y="157.1074">RegisterEmployeeController</text><line style="stroke:#A80036;stroke-width:1.5;" x1="878.5" x2="1077.5" y1="168.9531" y2="168.9531"/><line style="stroke:#A80036;stroke-width:1.5;" x1="878.5" x2="1077.5" y1="176.9531" y2="176.9531"/><ellipse cx="888.5" cy="187.9531" fill="#84BE84" rx="3" ry="3" style="stroke:#038048;stroke-width:1.0;"/><text fill="#000000" font-family="sans-serif" font-size="11" lengthAdjust="spacing" textLength="80" x="897.5" y="191.1636">validateUser()</text><ellipse cx="888.5" cy="200.7578" fill="#84BE84" rx="3" ry="3" style="stroke:#038048;stroke-width:1.0;"/><text fill="#000000" font-family="sans-serif" font-size="11" lengthAdjust="spacing" textLength="58" x="897.5" y="203.9683">getRoles()</text><ellipse cx="888.5" cy="213.5625" fill="#84BE84" rx="3" ry="3" style="stroke:#038048;stroke-width:1.0;"/><text fill="#000000" font-family="sans-serif" font-size="11" lengthAdjust="spacing" textLength="154" x="897.5" y="216.7729">createEmployee(empDTO)</text><ellipse cx="888.5" cy="226.3672" fill="#84BE84" rx="3" ry="3" style="stroke:#038048;stroke-width:1.0;"/><text fill="#000000" font-family="sans-serif" font-size="11" lengthAdjust="spacing" textLength="94" x="897.5" y="229.5776">saveEmployee()</text><ellipse cx="888.5" cy="239.1719" fill="#84BE84" rx="3" ry="3" style="stroke:#038048;stroke-width:1.0;"/><text fill="#000000" font-family="sans-serif" font-size="11" lengthAdjust="spacing" textLength="71" x="897.5" y="242.3823">createUser()</text><!--MD5=[335f4d9be48430461c68bf6d6fdba145]
class App--><rect codeLine="13" fill="#FEFECE" filter="url(#fozqrruk9aqs6)" height="73.6094" id="App" style="stroke:#A80036;stroke-width:1.5;" width="166" x="146" y="322.4531"/><ellipse cx="212.75" cy="338.4531" fill="#ADD1B2" rx="11" ry="11" style="stroke:#A80036;stroke-width:1.0;"/><path d="M215.0938,334.125 C214.1563,333.6875 213.5625,333.5469 212.6875,333.5469 C210.0625,333.5469 208.0625,335.625 208.0625,338.3438 L208.0625,339.4688 C208.0625,342.0469 210.1719,343.9375 213.0625,343.9375 C214.2813,343.9375 215.4375,343.6406 216.1875,343.0938 C216.7656,342.6875 217.0938,342.2344 217.0938,341.8438 C217.0938,341.3906 216.7031,341 216.2344,341 C216.0156,341 215.8125,341.0781 215.625,341.2656 C215.1719,341.75 215.1719,341.75 214.9844,341.8438 C214.5625,342.1094 213.875,342.2344 213.1094,342.2344 C211.0625,342.2344 209.7656,341.1406 209.7656,339.4375 L209.7656,338.3438 C209.7656,336.5625 211.0156,335.25 212.75,335.25 C213.3281,335.25 213.9375,335.4063 214.4063,335.6563 C214.8906,335.9375 215.0625,336.1563 215.1563,336.5625 C215.2188,336.9688 215.25,337.0938 215.3906,337.2188 C215.5313,337.3594 215.7656,337.4688 215.9844,337.4688 C216.25,337.4688 216.5156,337.3281 216.6875,337.1094 C216.7969,336.9531 216.8281,336.7656 216.8281,336.3438 L216.8281,334.9219 C216.8281,334.4844 216.8125,334.3594 216.7188,334.2031 C216.5625,333.9375 216.2813,333.7969 215.9844,333.7969 C215.6875,333.7969 215.4844,333.8906 215.2656,334.2031 L215.0938,334.125 Z " fill="#000000"/><text fill="#000000" font-family="sans-serif" font-size="12" lengthAdjust="spacing" textLength="24" x="233.25" y="342.6074">App</text><line style="stroke:#A80036;stroke-width:1.5;" x1="147" x2="311" y1="354.4531" y2="354.4531"/><line style="stroke:#A80036;stroke-width:1.5;" x1="147" x2="311" y1="362.4531" y2="362.4531"/><ellipse cx="157" cy="373.4531" fill="#84BE84" rx="3" ry="3" style="stroke:#038048;stroke-width:1.0;"/><text fill="#000000" font-family="sans-serif" font-size="11" lengthAdjust="spacing" textLength="81" x="166" y="376.6636">getCompany()</text><ellipse cx="157" cy="386.2578" fill="#84BE84" rx="3" ry="3" style="stroke:#038048;stroke-width:1.0;"/><text fill="#000000" font-family="sans-serif" font-size="11" lengthAdjust="spacing" textLength="140" x="166" y="389.4683">getCurrentUserSession()</text><!--MD5=[c5b08e60048ef1bcd788d24cf324082e]
class UserSession--><rect codeLine="18" fill="#FEFECE" filter="url(#fozqrruk9aqs6)" height="60.8047" id="UserSession" style="stroke:#A80036;stroke-width:1.5;" width="238" x="258" y="674.4531"/><ellipse cx="334.25" cy="690.4531" fill="#ADD1B2" rx="11" ry="11" style="stroke:#A80036;stroke-width:1.0;"/><path d="M336.5938,686.125 C335.6563,685.6875 335.0625,685.5469 334.1875,685.5469 C331.5625,685.5469 329.5625,687.625 329.5625,690.3438 L329.5625,691.4688 C329.5625,694.0469 331.6719,695.9375 334.5625,695.9375 C335.7813,695.9375 336.9375,695.6406 337.6875,695.0938 C338.2656,694.6875 338.5938,694.2344 338.5938,693.8438 C338.5938,693.3906 338.2031,693 337.7344,693 C337.5156,693 337.3125,693.0781 337.125,693.2656 C336.6719,693.75 336.6719,693.75 336.4844,693.8438 C336.0625,694.1094 335.375,694.2344 334.6094,694.2344 C332.5625,694.2344 331.2656,693.1406 331.2656,691.4375 L331.2656,690.3438 C331.2656,688.5625 332.5156,687.25 334.25,687.25 C334.8281,687.25 335.4375,687.4063 335.9063,687.6563 C336.3906,687.9375 336.5625,688.1563 336.6563,688.5625 C336.7188,688.9688 336.75,689.0938 336.8906,689.2188 C337.0313,689.3594 337.2656,689.4688 337.4844,689.4688 C337.75,689.4688 338.0156,689.3281 338.1875,689.1094 C338.2969,688.9531 338.3281,688.7656 338.3281,688.3438 L338.3281,686.9219 C338.3281,686.4844 338.3125,686.3594 338.2188,686.2031 C338.0625,685.9375 337.7813,685.7969 337.4844,685.7969 C337.1875,685.7969 336.9844,685.8906 336.7656,686.2031 L336.5938,686.125 Z " fill="#000000"/><text fill="#000000" font-family="sans-serif" font-size="12" lengthAdjust="spacing" textLength="77" x="354.75" y="694.6074">UserSession</text><line style="stroke:#A80036;stroke-width:1.5;" x1="259" x2="495" y1="706.4531" y2="706.4531"/><line style="stroke:#A80036;stroke-width:1.5;" x1="259" x2="495" y1="714.4531" y2="714.4531"/><ellipse cx="269" cy="725.4531" fill="#84BE84" rx="3" ry="3" style="stroke:#038048;stroke-width:1.0;"/><text fill="#000000" font-family="sans-serif" font-size="11" lengthAdjust="spacing" textLength="212" x="278" y="728.6636">isLoggedInWithRole(ADMINISTRATOR)</text><!--MD5=[02e4b9b7573f1156f41e60aa5b4e25a4]
class Company--><rect codeLine="22" fill="#FEFECE" filter="url(#fozqrruk9aqs6)" height="99.2188" id="Company" style="stroke:#A80036;stroke-width:1.5;" width="181" x="426.5" y="309.9531"/><ellipse cx="484.75" cy="325.9531" fill="#ADD1B2" rx="11" ry="11" style="stroke:#A80036;stroke-width:1.0;"/><path d="M487.0938,321.625 C486.1563,321.1875 485.5625,321.0469 484.6875,321.0469 C482.0625,321.0469 480.0625,323.125 480.0625,325.8438 L480.0625,326.9688 C480.0625,329.5469 482.1719,331.4375 485.0625,331.4375 C486.2813,331.4375 487.4375,331.1406 488.1875,330.5938 C488.7656,330.1875 489.0938,329.7344 489.0938,329.3438 C489.0938,328.8906 488.7031,328.5 488.2344,328.5 C488.0156,328.5 487.8125,328.5781 487.625,328.7656 C487.1719,329.25 487.1719,329.25 486.9844,329.3438 C486.5625,329.6094 485.875,329.7344 485.1094,329.7344 C483.0625,329.7344 481.7656,328.6406 481.7656,326.9375 L481.7656,325.8438 C481.7656,324.0625 483.0156,322.75 484.75,322.75 C485.3281,322.75 485.9375,322.9063 486.4063,323.1563 C486.8906,323.4375 487.0625,323.6563 487.1563,324.0625 C487.2188,324.4688 487.25,324.5938 487.3906,324.7188 C487.5313,324.8594 487.7656,324.9688 487.9844,324.9688 C488.25,324.9688 488.5156,324.8281 488.6875,324.6094 C488.7969,324.4531 488.8281,324.2656 488.8281,323.8438 L488.8281,322.4219 C488.8281,321.9844 488.8125,321.8594 488.7188,321.7031 C488.5625,321.4375 488.2813,321.2969 487.9844,321.2969 C487.6875,321.2969 487.4844,321.3906 487.2656,321.7031 L487.0938,321.625 Z " fill="#000000"/><text fill="#000000" font-family="sans-serif" font-size="12" lengthAdjust="spacing" textLength="56" x="505.25" y="330.1074">Company</text><line style="stroke:#A80036;stroke-width:1.5;" x1="427.5" x2="606.5" y1="341.9531" y2="341.9531"/><text fill="#000000" font-family="sans-serif" font-size="11" lengthAdjust="spacing" textLength="104" x="432.5" y="356.1636">string designation;</text><line style="stroke:#A80036;stroke-width:1.5;" x1="427.5" x2="606.5" y1="362.7578" y2="362.7578"/><ellipse cx="437.5" cy="373.7578" fill="#84BE84" rx="3" ry="3" style="stroke:#038048;stroke-width:1.0;"/><text fill="#000000" font-family="sans-serif" font-size="11" lengthAdjust="spacing" textLength="155" x="446.5" y="376.9683">getOrganizationRoleStore()</text><ellipse cx="437.5" cy="386.5625" fill="#84BE84" rx="3" ry="3" style="stroke:#038048;stroke-width:1.0;"/><text fill="#000000" font-family="sans-serif" font-size="11" lengthAdjust="spacing" textLength="116" x="446.5" y="389.7729">getEmployeeStore()</text><ellipse cx="437.5" cy="399.3672" fill="#84BE84" rx="3" ry="3" style="stroke:#038048;stroke-width:1.0;"/><text fill="#000000" font-family="sans-serif" font-size="11" lengthAdjust="spacing" textLength="94" x="446.5" y="402.5776">getAuthFacade()</text><!--MD5=[aca3c536c007fb05376992ab6634e449]
class OrganizationRoleStore--><rect codeLine="29" fill="#FEFECE" filter="url(#fozqrruk9aqs6)" height="86.4141" id="OrganizationRoleStore" style="stroke:#A80036;stroke-width:1.5;" width="193" x="991.5" y="485.9531"/><ellipse cx="1018.2" cy="501.9531" fill="#ADD1B2" rx="11" ry="11" style="stroke:#A80036;stroke-width:1.0;"/><path d="M1020.5438,497.625 C1019.6063,497.1875 1019.0125,497.0469 1018.1375,497.0469 C1015.5125,497.0469 1013.5125,499.125 1013.5125,501.8438 L1013.5125,502.9688 C1013.5125,505.5469 1015.6219,507.4375 1018.5125,507.4375 C1019.7313,507.4375 1020.8875,507.1406 1021.6375,506.5938 C1022.2156,506.1875 1022.5438,505.7344 1022.5438,505.3438 C1022.5438,504.8906 1022.1531,504.5 1021.6844,504.5 C1021.4656,504.5 1021.2625,504.5781 1021.075,504.7656 C1020.6219,505.25 1020.6219,505.25 1020.4344,505.3438 C1020.0125,505.6094 1019.325,505.7344 1018.5594,505.7344 C1016.5125,505.7344 1015.2156,504.6406 1015.2156,502.9375 L1015.2156,501.8438 C1015.2156,500.0625 1016.4656,498.75 1018.2,498.75 C1018.7781,498.75 1019.3875,498.9063 1019.8563,499.1563 C1020.3406,499.4375 1020.5125,499.6563 1020.6063,500.0625 C1020.6688,500.4688 1020.7,500.5938 1020.8406,500.7188 C1020.9813,500.8594 1021.2156,500.9688 1021.4344,500.9688 C1021.7,500.9688 1021.9656,500.8281 1022.1375,500.6094 C1022.2469,500.4531 1022.2781,500.2656 1022.2781,499.8438 L1022.2781,498.4219 C1022.2781,497.9844 1022.2625,497.8594 1022.1688,497.7031 C1022.0125,497.4375 1021.7313,497.2969 1021.4344,497.2969 C1021.1375,497.2969 1020.9344,497.3906 1020.7156,497.7031 L1020.5438,497.625 Z " fill="#000000"/><text fill="#000000" font-family="sans-serif" font-size="12" lengthAdjust="spacing" textLength="135" x="1034.8" y="506.1074">OrganizationRoleStore</text><line style="stroke:#A80036;stroke-width:1.5;" x1="992.5" x2="1183.5" y1="517.9531" y2="517.9531"/><line style="stroke:#A80036;stroke-width:1.5;" x1="992.5" x2="1183.5" y1="525.9531" y2="525.9531"/><ellipse cx="1002.5" cy="536.9531" fill="#84BE84" rx="3" ry="3" style="stroke:#038048;stroke-width:1.0;"/><text fill="#000000" font-family="sans-serif" font-size="11" lengthAdjust="spacing" textLength="58" x="1011.5" y="540.1636">getRoles()</text><ellipse cx="1002.5" cy="549.7578" fill="#84BE84" rx="3" ry="3" style="stroke:#038048;stroke-width:1.0;"/><text fill="#000000" font-family="sans-serif" font-size="11" lengthAdjust="spacing" textLength="109" x="1011.5" y="552.9683">getRoleById(roleId)</text><ellipse cx="1002.5" cy="562.5625" fill="#84BE84" rx="3" ry="3" style="stroke:#038048;stroke-width:1.0;"/><text fill="#000000" font-family="sans-serif" font-size="11" lengthAdjust="spacing" textLength="167" x="1011.5" y="565.7729">validateEmployeeAttributes()</text><!--MD5=[829fb52c07ade3ad64ef85b99d1fca10]
class EmployeeStore--><rect codeLine="35" fill="#FEFECE" filter="url(#fozqrruk9aqs6)" height="86.4141" id="EmployeeStore" style="stroke:#A80036;stroke-width:1.5;" width="164" x="782" y="485.9531"/><ellipse cx="814.55" cy="501.9531" fill="#ADD1B2" rx="11" ry="11" style="stroke:#A80036;stroke-width:1.0;"/><path d="M816.8938,497.625 C815.9563,497.1875 815.3625,497.0469 814.4875,497.0469 C811.8625,497.0469 809.8625,499.125 809.8625,501.8438 L809.8625,502.9688 C809.8625,505.5469 811.9719,507.4375 814.8625,507.4375 C816.0813,507.4375 817.2375,507.1406 817.9875,506.5938 C818.5656,506.1875 818.8938,505.7344 818.8938,505.3438 C818.8938,504.8906 818.5031,504.5 818.0344,504.5 C817.8156,504.5 817.6125,504.5781 817.425,504.7656 C816.9719,505.25 816.9719,505.25 816.7844,505.3438 C816.3625,505.6094 815.675,505.7344 814.9094,505.7344 C812.8625,505.7344 811.5656,504.6406 811.5656,502.9375 L811.5656,501.8438 C811.5656,500.0625 812.8156,498.75 814.55,498.75 C815.1281,498.75 815.7375,498.9063 816.2063,499.1563 C816.6906,499.4375 816.8625,499.6563 816.9563,500.0625 C817.0188,500.4688 817.05,500.5938 817.1906,500.7188 C817.3313,500.8594 817.5656,500.9688 817.7844,500.9688 C818.05,500.9688 818.3156,500.8281 818.4875,500.6094 C818.5969,500.4531 818.6281,500.2656 818.6281,499.8438 L818.6281,498.4219 C818.6281,497.9844 818.6125,497.8594 818.5188,497.7031 C818.3625,497.4375 818.0813,497.2969 817.7844,497.2969 C817.4875,497.2969 817.2844,497.3906 817.0656,497.7031 L816.8938,497.625 Z " fill="#000000"/><text fill="#000000" font-family="sans-serif" font-size="12" lengthAdjust="spacing" textLength="93" x="832.45" y="506.1074">EmployeeStore</text><line style="stroke:#A80036;stroke-width:1.5;" x1="783" x2="945" y1="517.9531" y2="517.9531"/><line style="stroke:#A80036;stroke-width:1.5;" x1="783" x2="945" y1="525.9531" y2="525.9531"/><ellipse cx="793" cy="536.9531" fill="#84BE84" rx="3" ry="3" style="stroke:#038048;stroke-width:1.0;"/><text fill="#000000" font-family="sans-serif" font-size="11" lengthAdjust="spacing" textLength="120" x="802" y="540.1636">saveEmployee(emp)</text><rect fill="#F24D5C" height="6" style="stroke:#C82930;stroke-width:1.0;" width="6" x="790" y="546.7578"/><text fill="#000000" font-family="sans-serif" font-size="11" lengthAdjust="spacing" textLength="138" x="802" y="552.9683">validateEmployee(emp)</text><rect fill="#F24D5C" height="6" style="stroke:#C82930;stroke-width:1.0;" width="6" x="790" y="559.5625"/><text fill="#000000" font-family="sans-serif" font-size="11" lengthAdjust="spacing" textLength="113" x="802" y="565.7729">addEmployee(emp)</text><!--MD5=[0af8f8019f740f778e383a70d6c8693f]
class RolesMapper--><rect codeLine="41" fill="#FEFECE" filter="url(#fozqrruk9aqs6)" height="60.8047" id="RolesMapper" style="stroke:#A80036;stroke-width:1.5;" width="111" x="1481.5" y="162.4531"/><ellipse cx="1496.5" cy="178.4531" fill="#ADD1B2" rx="11" ry="11" style="stroke:#A80036;stroke-width:1.0;"/><path d="M1498.8438,174.125 C1497.9063,173.6875 1497.3125,173.5469 1496.4375,173.5469 C1493.8125,173.5469 1491.8125,175.625 1491.8125,178.3438 L1491.8125,179.4688 C1491.8125,182.0469 1493.9219,183.9375 1496.8125,183.9375 C1498.0313,183.9375 1499.1875,183.6406 1499.9375,183.0938 C1500.5156,182.6875 1500.8438,182.2344 1500.8438,181.8438 C1500.8438,181.3906 1500.4531,181 1499.9844,181 C1499.7656,181 1499.5625,181.0781 1499.375,181.2656 C1498.9219,181.75 1498.9219,181.75 1498.7344,181.8438 C1498.3125,182.1094 1497.625,182.2344 1496.8594,182.2344 C1494.8125,182.2344 1493.5156,181.1406 1493.5156,179.4375 L1493.5156,178.3438 C1493.5156,176.5625 1494.7656,175.25 1496.5,175.25 C1497.0781,175.25 1497.6875,175.4063 1498.1563,175.6563 C1498.6406,175.9375 1498.8125,176.1563 1498.9063,176.5625 C1498.9688,176.9688 1499,177.0938 1499.1406,177.2188 C1499.2813,177.3594 1499.5156,177.4688 1499.7344,177.4688 C1500,177.4688 1500.2656,177.3281 1500.4375,177.1094 C1500.5469,176.9531 1500.5781,176.7656 1500.5781,176.3438 L1500.5781,174.9219 C1500.5781,174.4844 1500.5625,174.3594 1500.4688,174.2031 C1500.3125,173.9375 1500.0313,173.7969 1499.7344,173.7969 C1499.4375,173.7969 1499.2344,173.8906 1499.0156,174.2031 L1498.8438,174.125 Z " fill="#000000"/><text fill="#000000" font-family="sans-serif" font-size="12" lengthAdjust="spacing" textLength="79" x="1510.5" y="182.6074">RolesMapper</text><line style="stroke:#A80036;stroke-width:1.5;" x1="1482.5" x2="1591.5" y1="194.4531" y2="194.4531"/><line style="stroke:#A80036;stroke-width:1.5;" x1="1482.5" x2="1591.5" y1="202.4531" y2="202.4531"/><ellipse cx="1492.5" cy="213.4531" fill="#84BE84" rx="3" ry="3" style="stroke:#038048;stroke-width:1.0;"/><text fill="#000000" font-family="sans-serif" font-size="11" lengthAdjust="spacing" textLength="72" x="1501.5" y="216.6636">toDTO(roles)</text><!--MD5=[eb444bae08416c185ecbbb5b6c94e731]
class OrganizationRoleDTO--><rect codeLine="45" fill="#FEFECE" filter="url(#fozqrruk9aqs6)" height="73.6094" id="OrganizationRoleDTO" style="stroke:#A80036;stroke-width:1.5;" width="160" x="1362" y="322.4531"/><ellipse cx="1377" cy="338.4531" fill="#ADD1B2" rx="11" ry="11" style="stroke:#A80036;stroke-width:1.0;"/><path d="M1379.3438,334.125 C1378.4063,333.6875 1377.8125,333.5469 1376.9375,333.5469 C1374.3125,333.5469 1372.3125,335.625 1372.3125,338.3438 L1372.3125,339.4688 C1372.3125,342.0469 1374.4219,343.9375 1377.3125,343.9375 C1378.5313,343.9375 1379.6875,343.6406 1380.4375,343.0938 C1381.0156,342.6875 1381.3438,342.2344 1381.3438,341.8438 C1381.3438,341.3906 1380.9531,341 1380.4844,341 C1380.2656,341 1380.0625,341.0781 1379.875,341.2656 C1379.4219,341.75 1379.4219,341.75 1379.2344,341.8438 C1378.8125,342.1094 1378.125,342.2344 1377.3594,342.2344 C1375.3125,342.2344 1374.0156,341.1406 1374.0156,339.4375 L1374.0156,338.3438 C1374.0156,336.5625 1375.2656,335.25 1377,335.25 C1377.5781,335.25 1378.1875,335.4063 1378.6563,335.6563 C1379.1406,335.9375 1379.3125,336.1563 1379.4063,336.5625 C1379.4688,336.9688 1379.5,337.0938 1379.6406,337.2188 C1379.7813,337.3594 1380.0156,337.4688 1380.2344,337.4688 C1380.5,337.4688 1380.7656,337.3281 1380.9375,337.1094 C1381.0469,336.9531 1381.0781,336.7656 1381.0781,336.3438 L1381.0781,334.9219 C1381.0781,334.4844 1381.0625,334.3594 1380.9688,334.2031 C1380.8125,333.9375 1380.5313,333.7969 1380.2344,333.7969 C1379.9375,333.7969 1379.7344,333.8906 1379.5156,334.2031 L1379.3438,334.125 Z " fill="#000000"/><text fill="#000000" font-family="sans-serif" font-size="12" lengthAdjust="spacing" textLength="128" x="1391" y="342.6074">OrganizationRoleDTO</text><line style="stroke:#A80036;stroke-width:1.5;" x1="1363" x2="1521" y1="354.4531" y2="354.4531"/><ellipse cx="1373" cy="365.4531" rx="3" ry="3" style="stroke:#038048;stroke-width:1.0;fill:none;"/><text fill="#000000" font-family="sans-serif" font-size="11" lengthAdjust="spacing" textLength="50" x="1382" y="368.6636">String id;</text><ellipse cx="1373" cy="378.2578" rx="3" ry="3" style="stroke:#038048;stroke-width:1.0;fill:none;"/><text fill="#000000" font-family="sans-serif" font-size="11" lengthAdjust="spacing" textLength="102" x="1382" y="381.4683">String description;</text><line style="stroke:#A80036;stroke-width:1.5;" x1="1363" x2="1521" y1="388.0625" y2="388.0625"/><!--MD5=[00f5a8d890e3e1ee187254d4d2c6b7cb]
class EmployeeDTO--><rect codeLine="50" fill="#FEFECE" filter="url(#fozqrruk9aqs6)" height="227.2656" id="EmployeeDTO" style="stroke:#A80036;stroke-width:1.5;" width="168" x="1297" y="997.9531"/><ellipse cx="1334.5" cy="1013.9531" fill="#ADD1B2" rx="11" ry="11" style="stroke:#A80036;stroke-width:1.0;"/><path d="M1336.8438,1009.625 C1335.9063,1009.1875 1335.3125,1009.0469 1334.4375,1009.0469 C1331.8125,1009.0469 1329.8125,1011.125 1329.8125,1013.8438 L1329.8125,1014.9688 C1329.8125,1017.5469 1331.9219,1019.4375 1334.8125,1019.4375 C1336.0313,1019.4375 1337.1875,1019.1406 1337.9375,1018.5938 C1338.5156,1018.1875 1338.8438,1017.7344 1338.8438,1017.3438 C1338.8438,1016.8906 1338.4531,1016.5 1337.9844,1016.5 C1337.7656,1016.5 1337.5625,1016.5781 1337.375,1016.7656 C1336.9219,1017.25 1336.9219,1017.25 1336.7344,1017.3438 C1336.3125,1017.6094 1335.625,1017.7344 1334.8594,1017.7344 C1332.8125,1017.7344 1331.5156,1016.6406 1331.5156,1014.9375 L1331.5156,1013.8438 C1331.5156,1012.0625 1332.7656,1010.75 1334.5,1010.75 C1335.0781,1010.75 1335.6875,1010.9063 1336.1563,1011.1563 C1336.6406,1011.4375 1336.8125,1011.6563 1336.9063,1012.0625 C1336.9688,1012.4688 1337,1012.5938 1337.1406,1012.7188 C1337.2813,1012.8594 1337.5156,1012.9688 1337.7344,1012.9688 C1338,1012.9688 1338.2656,1012.8281 1338.4375,1012.6094 C1338.5469,1012.4531 1338.5781,1012.2656 1338.5781,1011.8438 L1338.5781,1010.4219 C1338.5781,1009.9844 1338.5625,1009.8594 1338.4688,1009.7031 C1338.3125,1009.4375 1338.0313,1009.2969 1337.7344,1009.2969 C1337.4375,1009.2969 1337.2344,1009.3906 1337.0156,1009.7031 L1336.8438,1009.625 Z " fill="#000000"/><text fill="#000000" font-family="sans-serif" font-size="12" lengthAdjust="spacing" textLength="86" x="1353.5" y="1018.1074">EmployeeDTO</text><line style="stroke:#A80036;stroke-width:1.5;" x1="1298" x2="1464" y1="1029.9531" y2="1029.9531"/><text fill="#000000" font-family="sans-serif" font-size="11" lengthAdjust="spacing" textLength="135" x="1303" y="1044.1636">String organizationRole;</text><text fill="#000000" font-family="sans-serif" font-size="11" lengthAdjust="spacing" textLength="73" x="1303" y="1056.9683">String name;</text><text fill="#000000" font-family="sans-serif" font-size="11" lengthAdjust="spacing" textLength="85" x="1303" y="1069.7729">String address;</text><text fill="#000000" font-family="sans-serif" font-size="11" lengthAdjust="spacing" textLength="102" x="1303" y="1082.5776">int phoneNumber;</text><text fill="#000000" font-family="sans-serif" font-size="11" lengthAdjust="spacing" textLength="72" x="1303" y="1095.3823">String email;</text><text fill="#000000" font-family="sans-serif" font-size="11" lengthAdjust="spacing" textLength="93" x="1303" y="1108.187">String codeSOC;</text><text fill="#000000" font-family="sans-serif" font-size="11" lengthAdjust="spacing" textLength="156" x="1303" y="1120.9917">String doctorIndexNumbee;</text><line style="stroke:#A80036;stroke-width:1.5;" x1="1298" x2="1464" y1="1127.5859" y2="1127.5859"/><ellipse cx="1308" cy="1138.5859" fill="#84BE84" rx="3" ry="3" style="stroke:#038048;stroke-width:1.0;"/><text fill="#000000" font-family="sans-serif" font-size="11" lengthAdjust="spacing" textLength="124" x="1317" y="1141.7964">getOrganizationRole()</text><ellipse cx="1308" cy="1151.3906" fill="#84BE84" rx="3" ry="3" style="stroke:#038048;stroke-width:1.0;"/><text fill="#000000" font-family="sans-serif" font-size="11" lengthAdjust="spacing" textLength="61" x="1317" y="1154.6011">getName()</text><ellipse cx="1308" cy="1164.1953" fill="#84BE84" rx="3" ry="3" style="stroke:#038048;stroke-width:1.0;"/><text fill="#000000" font-family="sans-serif" font-size="11" lengthAdjust="spacing" textLength="73" x="1317" y="1167.4058">getAddress()</text><ellipse cx="1308" cy="1177" fill="#84BE84" rx="3" ry="3" style="stroke:#038048;stroke-width:1.0;"/><text fill="#000000" font-family="sans-serif" font-size="11" lengthAdjust="spacing" textLength="107" x="1317" y="1180.2104">getPhoneNumber()</text><ellipse cx="1308" cy="1189.8047" fill="#84BE84" rx="3" ry="3" style="stroke:#038048;stroke-width:1.0;"/><text fill="#000000" font-family="sans-serif" font-size="11" lengthAdjust="spacing" textLength="58" x="1317" y="1193.0151">getEmail()</text><ellipse cx="1308" cy="1202.6094" fill="#84BE84" rx="3" ry="3" style="stroke:#038048;stroke-width:1.0;"/><text fill="#000000" font-family="sans-serif" font-size="11" lengthAdjust="spacing" textLength="80" x="1317" y="1205.8198">getcodeSOC()</text><ellipse cx="1308" cy="1215.4141" fill="#84BE84" rx="3" ry="3" style="stroke:#038048;stroke-width:1.0;"/><text fill="#000000" font-family="sans-serif" font-size="11" lengthAdjust="spacing" textLength="141" x="1317" y="1218.6245">getDoctorIndexNumber()</text><!--MD5=[12e90e92236ca84f203192a07d84ec5e]
class OrganizationRole--><rect codeLine="67" fill="#FEFECE" filter="url(#fozqrruk9aqs6)" height="99.2188" id="OrganizationRole" style="stroke:#A80036;stroke-width:1.5;" width="180" x="1148" y="837.9531"/><ellipse cx="1183.7" cy="853.9531" fill="#ADD1B2" rx="11" ry="11" style="stroke:#A80036;stroke-width:1.0;"/><path d="M1186.0438,849.625 C1185.1063,849.1875 1184.5125,849.0469 1183.6375,849.0469 C1181.0125,849.0469 1179.0125,851.125 1179.0125,853.8438 L1179.0125,854.9688 C1179.0125,857.5469 1181.1219,859.4375 1184.0125,859.4375 C1185.2313,859.4375 1186.3875,859.1406 1187.1375,858.5938 C1187.7156,858.1875 1188.0438,857.7344 1188.0438,857.3438 C1188.0438,856.8906 1187.6531,856.5 1187.1844,856.5 C1186.9656,856.5 1186.7625,856.5781 1186.575,856.7656 C1186.1219,857.25 1186.1219,857.25 1185.9344,857.3438 C1185.5125,857.6094 1184.825,857.7344 1184.0594,857.7344 C1182.0125,857.7344 1180.7156,856.6406 1180.7156,854.9375 L1180.7156,853.8438 C1180.7156,852.0625 1181.9656,850.75 1183.7,850.75 C1184.2781,850.75 1184.8875,850.9063 1185.3563,851.1563 C1185.8406,851.4375 1186.0125,851.6563 1186.1063,852.0625 C1186.1688,852.4688 1186.2,852.5938 1186.3406,852.7188 C1186.4813,852.8594 1186.7156,852.9688 1186.9344,852.9688 C1187.2,852.9688 1187.4656,852.8281 1187.6375,852.6094 C1187.7469,852.4531 1187.7781,852.2656 1187.7781,851.8438 L1187.7781,850.4219 C1187.7781,849.9844 1187.7625,849.8594 1187.6688,849.7031 C1187.5125,849.4375 1187.2313,849.2969 1186.9344,849.2969 C1186.6375,849.2969 1186.4344,849.3906 1186.2156,849.7031 L1186.0438,849.625 Z " fill="#000000"/><text fill="#000000" font-family="sans-serif" font-size="12" lengthAdjust="spacing" textLength="102" x="1202.3" y="858.1074">OrganizationRole</text><line style="stroke:#A80036;stroke-width:1.5;" x1="1149" x2="1327" y1="869.9531" y2="869.9531"/><text fill="#000000" font-family="sans-serif" font-size="11" lengthAdjust="spacing" textLength="50" x="1154" y="884.1636">String id;</text><text fill="#000000" font-family="sans-serif" font-size="11" lengthAdjust="spacing" textLength="102" x="1154" y="896.9683">String description;</text><text fill="#000000" font-family="sans-serif" font-size="11" lengthAdjust="spacing" textLength="102" x="1154" y="909.7729">String className;</text><line style="stroke:#A80036;stroke-width:1.5;" x1="1149" x2="1327" y1="916.3672" y2="916.3672"/><ellipse cx="1159" cy="927.3672" fill="#84BE84" rx="3" ry="3" style="stroke:#038048;stroke-width:1.0;"/><text fill="#000000" font-family="sans-serif" font-size="11" lengthAdjust="spacing" textLength="154" x="1168" y="930.5776">createEmployee(empDTO)</text><!--MD5=[8ae808d068a8995f06b9b3ec51357f0b]
class AuthFacade--><rect codeLine="74" fill="#FEFECE" filter="url(#fozqrruk9aqs6)" height="60.8047" id="AuthFacade" style="stroke:#A80036;stroke-width:1.5;" width="200" x="124" y="498.4531"/><ellipse cx="184.75" cy="514.4531" fill="#ADD1B2" rx="11" ry="11" style="stroke:#A80036;stroke-width:1.0;"/><path d="M187.0938,510.125 C186.1563,509.6875 185.5625,509.5469 184.6875,509.5469 C182.0625,509.5469 180.0625,511.625 180.0625,514.3438 L180.0625,515.4688 C180.0625,518.0469 182.1719,519.9375 185.0625,519.9375 C186.2813,519.9375 187.4375,519.6406 188.1875,519.0938 C188.7656,518.6875 189.0938,518.2344 189.0938,517.8438 C189.0938,517.3906 188.7031,517 188.2344,517 C188.0156,517 187.8125,517.0781 187.625,517.2656 C187.1719,517.75 187.1719,517.75 186.9844,517.8438 C186.5625,518.1094 185.875,518.2344 185.1094,518.2344 C183.0625,518.2344 181.7656,517.1406 181.7656,515.4375 L181.7656,514.3438 C181.7656,512.5625 183.0156,511.25 184.75,511.25 C185.3281,511.25 185.9375,511.4063 186.4063,511.6563 C186.8906,511.9375 187.0625,512.1563 187.1563,512.5625 C187.2188,512.9688 187.25,513.0938 187.3906,513.2188 C187.5313,513.3594 187.7656,513.4688 187.9844,513.4688 C188.25,513.4688 188.5156,513.3281 188.6875,513.1094 C188.7969,512.9531 188.8281,512.7656 188.8281,512.3438 L188.8281,510.9219 C188.8281,510.4844 188.8125,510.3594 188.7188,510.2031 C188.5625,509.9375 188.2813,509.7969 187.9844,509.7969 C187.6875,509.7969 187.4844,509.8906 187.2656,510.2031 L187.0938,510.125 Z " fill="#000000"/><text fill="#000000" font-family="sans-serif" font-size="12" lengthAdjust="spacing" textLength="70" x="205.25" y="518.6074">AuthFacade</text><line style="stroke:#A80036;stroke-width:1.5;" x1="125" x2="323" y1="530.4531" y2="530.4531"/><line style="stroke:#A80036;stroke-width:1.5;" x1="125" x2="323" y1="538.4531" y2="538.4531"/><ellipse cx="135" cy="549.4531" fill="#84BE84" rx="3" ry="3" style="stroke:#038048;stroke-width:1.0;"/><text fill="#000000" font-family="sans-serif" font-size="11" lengthAdjust="spacing" textLength="174" x="144" y="552.6636">addUser(name, emailstr, pass)</text><!--MD5=[78bec0fde86ad92ec1dc3fb343b83709]
class Email--><rect codeLine="78" fill="#FEFECE" filter="url(#fozqrruk9aqs6)" height="73.6094" id="Email" style="stroke:#A80036;stroke-width:1.5;" width="84" x="779" y="1074.4531"/><ellipse cx="803.45" cy="1090.4531" fill="#ADD1B2" rx="11" ry="11" style="stroke:#A80036;stroke-width:1.0;"/><path d="M805.7938,1086.125 C804.8563,1085.6875 804.2625,1085.5469 803.3875,1085.5469 C800.7625,1085.5469 798.7625,1087.625 798.7625,1090.3438 L798.7625,1091.4688 C798.7625,1094.0469 800.8719,1095.9375 803.7625,1095.9375 C804.9813,1095.9375 806.1375,1095.6406 806.8875,1095.0938 C807.4656,1094.6875 807.7938,1094.2344 807.7938,1093.8438 C807.7938,1093.3906 807.4031,1093 806.9344,1093 C806.7156,1093 806.5125,1093.0781 806.325,1093.2656 C805.8719,1093.75 805.8719,1093.75 805.6844,1093.8438 C805.2625,1094.1094 804.575,1094.2344 803.8094,1094.2344 C801.7625,1094.2344 800.4656,1093.1406 800.4656,1091.4375 L800.4656,1090.3438 C800.4656,1088.5625 801.7156,1087.25 803.45,1087.25 C804.0281,1087.25 804.6375,1087.4063 805.1063,1087.6563 C805.5906,1087.9375 805.7625,1088.1563 805.8563,1088.5625 C805.9188,1088.9688 805.95,1089.0938 806.0906,1089.2188 C806.2313,1089.3594 806.4656,1089.4688 806.6844,1089.4688 C806.95,1089.4688 807.2156,1089.3281 807.3875,1089.1094 C807.4969,1088.9531 807.5281,1088.7656 807.5281,1088.3438 L807.5281,1086.9219 C807.5281,1086.4844 807.5125,1086.3594 807.4188,1086.2031 C807.2625,1085.9375 806.9813,1085.7969 806.6844,1085.7969 C806.3875,1085.7969 806.1844,1085.8906 805.9656,1086.2031 L805.7938,1086.125 Z " fill="#000000"/><text fill="#000000" font-family="sans-serif" font-size="12" lengthAdjust="spacing" textLength="31" x="819.55" y="1094.6074">Email</text><line style="stroke:#A80036;stroke-width:1.5;" x1="780" x2="862" y1="1106.4531" y2="1106.4531"/><text fill="#000000" font-family="sans-serif" font-size="11" lengthAdjust="spacing" textLength="72" x="785" y="1120.6636">String email;</text><line style="stroke:#A80036;stroke-width:1.5;" x1="780" x2="862" y1="1127.2578" y2="1127.2578"/><ellipse cx="790" cy="1138.2578" fill="#84BE84" rx="3" ry="3" style="stroke:#038048;stroke-width:1.0;"/><text fill="#000000" font-family="sans-serif" font-size="11" lengthAdjust="spacing" textLength="58" x="799" y="1141.4683">getEmail()</text><!--MD5=[2f01b1126ff33a0669651ec2488a5ef9]
class Password--><rect codeLine="83" fill="#FEFECE" filter="url(#fozqrruk9aqs6)" height="60.8047" id="Password" style="stroke:#A80036;stroke-width:1.5;" width="119" x="541.5" y="1080.9531"/><ellipse cx="569.55" cy="1096.9531" fill="#ADD1B2" rx="11" ry="11" style="stroke:#A80036;stroke-width:1.0;"/><path d="M571.8938,1092.625 C570.9563,1092.1875 570.3625,1092.0469 569.4875,1092.0469 C566.8625,1092.0469 564.8625,1094.125 564.8625,1096.8438 L564.8625,1097.9688 C564.8625,1100.5469 566.9719,1102.4375 569.8625,1102.4375 C571.0813,1102.4375 572.2375,1102.1406 572.9875,1101.5938 C573.5656,1101.1875 573.8938,1100.7344 573.8938,1100.3438 C573.8938,1099.8906 573.5031,1099.5 573.0344,1099.5 C572.8156,1099.5 572.6125,1099.5781 572.425,1099.7656 C571.9719,1100.25 571.9719,1100.25 571.7844,1100.3438 C571.3625,1100.6094 570.675,1100.7344 569.9094,1100.7344 C567.8625,1100.7344 566.5656,1099.6406 566.5656,1097.9375 L566.5656,1096.8438 C566.5656,1095.0625 567.8156,1093.75 569.55,1093.75 C570.1281,1093.75 570.7375,1093.9063 571.2063,1094.1563 C571.6906,1094.4375 571.8625,1094.6563 571.9563,1095.0625 C572.0188,1095.4688 572.05,1095.5938 572.1906,1095.7188 C572.3313,1095.8594 572.5656,1095.9688 572.7844,1095.9688 C573.05,1095.9688 573.3156,1095.8281 573.4875,1095.6094 C573.5969,1095.4531 573.6281,1095.2656 573.6281,1094.8438 L573.6281,1093.4219 C573.6281,1092.9844 573.6125,1092.8594 573.5188,1092.7031 C573.3625,1092.4375 573.0813,1092.2969 572.7844,1092.2969 C572.4875,1092.2969 572.2844,1092.3906 572.0656,1092.7031 L571.8938,1092.625 Z " fill="#000000"/><text fill="#000000" font-family="sans-serif" font-size="12" lengthAdjust="spacing" textLength="58" x="586.45" y="1101.1074">Password</text><line style="stroke:#A80036;stroke-width:1.5;" x1="542.5" x2="659.5" y1="1112.9531" y2="1112.9531"/><ellipse cx="552.5" cy="1123.9531" rx="3" ry="3" style="stroke:#038048;stroke-width:1.0;fill:none;"/><text fill="#000000" font-family="sans-serif" font-size="11" lengthAdjust="spacing" textLength="93" x="561.5" y="1127.1636">String password;</text><line style="stroke:#A80036;stroke-width:1.5;" x1="542.5" x2="659.5" y1="1133.7578" y2="1133.7578"/><!--MD5=[7e2bc2f128e759c5889ccd6a2666d576]
class EmailNotification--><rect codeLine="87" fill="#FEFECE" filter="url(#fozqrruk9aqs6)" height="60.8047" id="EmailNotification" style="stroke:#A80036;stroke-width:1.5;" width="219" x="642.5" y="328.9531"/><ellipse cx="699.25" cy="344.9531" fill="#ADD1B2" rx="11" ry="11" style="stroke:#A80036;stroke-width:1.0;"/><path d="M701.5938,340.625 C700.6563,340.1875 700.0625,340.0469 699.1875,340.0469 C696.5625,340.0469 694.5625,342.125 694.5625,344.8438 L694.5625,345.9688 C694.5625,348.5469 696.6719,350.4375 699.5625,350.4375 C700.7813,350.4375 701.9375,350.1406 702.6875,349.5938 C703.2656,349.1875 703.5938,348.7344 703.5938,348.3438 C703.5938,347.8906 703.2031,347.5 702.7344,347.5 C702.5156,347.5 702.3125,347.5781 702.125,347.7656 C701.6719,348.25 701.6719,348.25 701.4844,348.3438 C701.0625,348.6094 700.375,348.7344 699.6094,348.7344 C697.5625,348.7344 696.2656,347.6406 696.2656,345.9375 L696.2656,344.8438 C696.2656,343.0625 697.5156,341.75 699.25,341.75 C699.8281,341.75 700.4375,341.9063 700.9063,342.1563 C701.3906,342.4375 701.5625,342.6563 701.6563,343.0625 C701.7188,343.4688 701.75,343.5938 701.8906,343.7188 C702.0313,343.8594 702.2656,343.9688 702.4844,343.9688 C702.75,343.9688 703.0156,343.8281 703.1875,343.6094 C703.2969,343.4531 703.3281,343.2656 703.3281,342.8438 L703.3281,341.4219 C703.3281,340.9844 703.3125,340.8594 703.2188,340.7031 C703.0625,340.4375 702.7813,340.2969 702.4844,340.2969 C702.1875,340.2969 701.9844,340.3906 701.7656,340.7031 L701.5938,340.625 Z " fill="#000000"/><text fill="#000000" font-family="sans-serif" font-size="12" lengthAdjust="spacing" textLength="97" x="719.75" y="349.1074">EmailNotification</text><line style="stroke:#A80036;stroke-width:1.5;" x1="643.5" x2="860.5" y1="360.9531" y2="360.9531"/><line style="stroke:#A80036;stroke-width:1.5;" x1="643.5" x2="860.5" y1="368.9531" y2="368.9531"/><ellipse cx="653.5" cy="379.9531" fill="#84BE84" rx="3" ry="3" style="stroke:#038048;stroke-width:1.0;"/><text fill="#000000" font-family="sans-serif" font-size="11" lengthAdjust="spacing" textLength="193" x="662.5" y="383.1636">sendEmailToClient(emailstr, pass)</text><!--MD5=[6775c6638a1da484a35f5fa25f36bc00]
class GeneratePassword--><rect codeLine="91" fill="#FEFECE" filter="url(#fozqrruk9aqs6)" height="60.8047" id="GeneratePassword" style="stroke:#A80036;stroke-width:1.5;" width="146" x="968" y="328.9531"/><ellipse cx="983" cy="344.9531" fill="#ADD1B2" rx="11" ry="11" style="stroke:#A80036;stroke-width:1.0;"/><path d="M985.3438,340.625 C984.4063,340.1875 983.8125,340.0469 982.9375,340.0469 C980.3125,340.0469 978.3125,342.125 978.3125,344.8438 L978.3125,345.9688 C978.3125,348.5469 980.4219,350.4375 983.3125,350.4375 C984.5313,350.4375 985.6875,350.1406 986.4375,349.5938 C987.0156,349.1875 987.3438,348.7344 987.3438,348.3438 C987.3438,347.8906 986.9531,347.5 986.4844,347.5 C986.2656,347.5 986.0625,347.5781 985.875,347.7656 C985.4219,348.25 985.4219,348.25 985.2344,348.3438 C984.8125,348.6094 984.125,348.7344 983.3594,348.7344 C981.3125,348.7344 980.0156,347.6406 980.0156,345.9375 L980.0156,344.8438 C980.0156,343.0625 981.2656,341.75 983,341.75 C983.5781,341.75 984.1875,341.9063 984.6563,342.1563 C985.1406,342.4375 985.3125,342.6563 985.4063,343.0625 C985.4688,343.4688 985.5,343.5938 985.6406,343.7188 C985.7813,343.8594 986.0156,343.9688 986.2344,343.9688 C986.5,343.9688 986.7656,343.8281 986.9375,343.6094 C987.0469,343.4531 987.0781,343.2656 987.0781,342.8438 L987.0781,341.4219 C987.0781,340.9844 987.0625,340.8594 986.9688,340.7031 C986.8125,340.4375 986.5313,340.2969 986.2344,340.2969 C985.9375,340.2969 985.7344,340.3906 985.5156,340.7031 L985.3438,340.625 Z " fill="#000000"/><text fill="#000000" font-family="sans-serif" font-size="12" lengthAdjust="spacing" textLength="114" x="997" y="349.1074">GeneratePassword</text><line style="stroke:#A80036;stroke-width:1.5;" x1="969" x2="1113" y1="360.9531" y2="360.9531"/><line style="stroke:#A80036;stroke-width:1.5;" x1="969" x2="1113" y1="368.9531" y2="368.9531"/><ellipse cx="979" cy="379.9531" fill="#84BE84" rx="3" ry="3" style="stroke:#038048;stroke-width:1.0;"/><text fill="#000000" font-family="sans-serif" font-size="11" lengthAdjust="spacing" textLength="113" x="988" y="383.1636">generatePassowrd()</text><!--MD5=[93af8b4494db78ec46e98fad8955a5aa]
class UserStore--><rect codeLine="95" fill="#FEFECE" filter="url(#fozqrruk9aqs6)" height="60.8047" id="UserStore" style="stroke:#A80036;stroke-width:1.5;" width="216" x="7" y="674.4531"/><ellipse cx="79.75" cy="690.4531" fill="#ADD1B2" rx="11" ry="11" style="stroke:#A80036;stroke-width:1.0;"/><path d="M82.0938,686.125 C81.1563,685.6875 80.5625,685.5469 79.6875,685.5469 C77.0625,685.5469 75.0625,687.625 75.0625,690.3438 L75.0625,691.4688 C75.0625,694.0469 77.1719,695.9375 80.0625,695.9375 C81.2813,695.9375 82.4375,695.6406 83.1875,695.0938 C83.7656,694.6875 84.0938,694.2344 84.0938,693.8438 C84.0938,693.3906 83.7031,693 83.2344,693 C83.0156,693 82.8125,693.0781 82.625,693.2656 C82.1719,693.75 82.1719,693.75 81.9844,693.8438 C81.5625,694.1094 80.875,694.2344 80.1094,694.2344 C78.0625,694.2344 76.7656,693.1406 76.7656,691.4375 L76.7656,690.3438 C76.7656,688.5625 78.0156,687.25 79.75,687.25 C80.3281,687.25 80.9375,687.4063 81.4063,687.6563 C81.8906,687.9375 82.0625,688.1563 82.1563,688.5625 C82.2188,688.9688 82.25,689.0938 82.3906,689.2188 C82.5313,689.3594 82.7656,689.4688 82.9844,689.4688 C83.25,689.4688 83.5156,689.3281 83.6875,689.1094 C83.7969,688.9531 83.8281,688.7656 83.8281,688.3438 L83.8281,686.9219 C83.8281,686.4844 83.8125,686.3594 83.7188,686.2031 C83.5625,685.9375 83.2813,685.7969 82.9844,685.7969 C82.6875,685.7969 82.4844,685.8906 82.2656,686.2031 L82.0938,686.125 Z " fill="#000000"/><text fill="#000000" font-family="sans-serif" font-size="12" lengthAdjust="spacing" textLength="62" x="100.25" y="694.6074">UserStore</text><line style="stroke:#A80036;stroke-width:1.5;" x1="8" x2="222" y1="706.4531" y2="706.4531"/><line style="stroke:#A80036;stroke-width:1.5;" x1="8" x2="222" y1="714.4531" y2="714.4531"/><ellipse cx="18" cy="725.4531" fill="#84BE84" rx="3" ry="3" style="stroke:#038048;stroke-width:1.0;"/><text fill="#000000" font-family="sans-serif" font-size="11" lengthAdjust="spacing" textLength="190" x="27" y="728.6636">createUser(name, emailstr, pass)</text><!--MD5=[7421f545a0d8420c5bec41e74b387d9c]
class Employee--><rect codeLine="99" fill="#FEFECE" filter="url(#fozqrruk9aqs6)" height="112.0234" id="Employee" style="stroke:#A80036;stroke-width:1.5;" width="133" x="797.5" y="648.9531"/><ellipse cx="830.95" cy="664.9531" fill="#ADD1B2" rx="11" ry="11" style="stroke:#A80036;stroke-width:1.0;"/><path d="M833.2938,660.625 C832.3563,660.1875 831.7625,660.0469 830.8875,660.0469 C828.2625,660.0469 826.2625,662.125 826.2625,664.8438 L826.2625,665.9688 C826.2625,668.5469 828.3719,670.4375 831.2625,670.4375 C832.4813,670.4375 833.6375,670.1406 834.3875,669.5938 C834.9656,669.1875 835.2938,668.7344 835.2938,668.3438 C835.2938,667.8906 834.9031,667.5 834.4344,667.5 C834.2156,667.5 834.0125,667.5781 833.825,667.7656 C833.3719,668.25 833.3719,668.25 833.1844,668.3438 C832.7625,668.6094 832.075,668.7344 831.3094,668.7344 C829.2625,668.7344 827.9656,667.6406 827.9656,665.9375 L827.9656,664.8438 C827.9656,663.0625 829.2156,661.75 830.95,661.75 C831.5281,661.75 832.1375,661.9063 832.6063,662.1563 C833.0906,662.4375 833.2625,662.6563 833.3563,663.0625 C833.4188,663.4688 833.45,663.5938 833.5906,663.7188 C833.7313,663.8594 833.9656,663.9688 834.1844,663.9688 C834.45,663.9688 834.7156,663.8281 834.8875,663.6094 C834.9969,663.4531 835.0281,663.2656 835.0281,662.8438 L835.0281,661.4219 C835.0281,660.9844 835.0125,660.8594 834.9188,660.7031 C834.7625,660.4375 834.4813,660.2969 834.1844,660.2969 C833.8875,660.2969 833.6844,660.3906 833.4656,660.7031 L833.2938,660.625 Z " fill="#000000"/><text fill="#000000" font-family="sans-serif" font-size="12" lengthAdjust="spacing" textLength="60" x="849.05" y="669.1074">Employee</text><line style="stroke:#A80036;stroke-width:1.5;" x1="798.5" x2="929.5" y1="680.9531" y2="680.9531"/><text fill="#000000" font-family="sans-serif" font-size="11" lengthAdjust="spacing" textLength="111" x="803.5" y="695.1636">String employeeID;</text><text fill="#000000" font-family="sans-serif" font-size="11" lengthAdjust="spacing" textLength="73" x="803.5" y="707.9683">String name;</text><text fill="#000000" font-family="sans-serif" font-size="11" lengthAdjust="spacing" textLength="85" x="803.5" y="720.7729">String address;</text><text fill="#000000" font-family="sans-serif" font-size="11" lengthAdjust="spacing" textLength="121" x="803.5" y="733.5776">String phoneNumber;</text><text fill="#000000" font-family="sans-serif" font-size="11" lengthAdjust="spacing" textLength="93" x="803.5" y="746.3823">String codeSOC;</text><line style="stroke:#A80036;stroke-width:1.5;" x1="798.5" x2="929.5" y1="752.9766" y2="752.9766"/><!--MD5=[7d96fd15f3014691d2fcaf89c5791e2a]
class SpecialistDoctor--><rect codeLine="107" fill="#FEFECE" filter="url(#fozqrruk9aqs6)" height="60.8047" id="SpecialistDoctor" style="stroke:#A80036;stroke-width:1.5;" width="145" x="678.5" y="856.9531"/><ellipse cx="699.8" cy="872.9531" fill="#ADD1B2" rx="11" ry="11" style="stroke:#A80036;stroke-width:1.0;"/><path d="M702.1438,868.625 C701.2063,868.1875 700.6125,868.0469 699.7375,868.0469 C697.1125,868.0469 695.1125,870.125 695.1125,872.8438 L695.1125,873.9688 C695.1125,876.5469 697.2219,878.4375 700.1125,878.4375 C701.3313,878.4375 702.4875,878.1406 703.2375,877.5938 C703.8156,877.1875 704.1438,876.7344 704.1438,876.3438 C704.1438,875.8906 703.7531,875.5 703.2844,875.5 C703.0656,875.5 702.8625,875.5781 702.675,875.7656 C702.2219,876.25 702.2219,876.25 702.0344,876.3438 C701.6125,876.6094 700.925,876.7344 700.1594,876.7344 C698.1125,876.7344 696.8156,875.6406 696.8156,873.9375 L696.8156,872.8438 C696.8156,871.0625 698.0656,869.75 699.8,869.75 C700.3781,869.75 700.9875,869.9063 701.4563,870.1563 C701.9406,870.4375 702.1125,870.6563 702.2063,871.0625 C702.2688,871.4688 702.3,871.5938 702.4406,871.7188 C702.5813,871.8594 702.8156,871.9688 703.0344,871.9688 C703.3,871.9688 703.5656,871.8281 703.7375,871.6094 C703.8469,871.4531 703.8781,871.2656 703.8781,870.8438 L703.8781,869.4219 C703.8781,868.9844 703.8625,868.8594 703.7688,868.7031 C703.6125,868.4375 703.3313,868.2969 703.0344,868.2969 C702.7375,868.2969 702.5344,868.3906 702.3156,868.7031 L702.1438,868.625 Z " fill="#000000"/><text fill="#000000" font-family="sans-serif" font-size="12" lengthAdjust="spacing" textLength="99" x="715.2" y="877.1074">SpecialistDoctor</text><line style="stroke:#A80036;stroke-width:1.5;" x1="679.5" x2="822.5" y1="888.9531" y2="888.9531"/><text fill="#000000" font-family="sans-serif" font-size="11" lengthAdjust="spacing" textLength="133" x="684.5" y="903.1636">int doctorIndexNumber;</text><line style="stroke:#A80036;stroke-width:1.5;" x1="679.5" x2="822.5" y1="909.7578" y2="909.7578"/><!--MD5=[3fd616f346a44cd59a91eb10b19e157c]
class User--><rect codeLine="111" fill="#FEFECE" filter="url(#fozqrruk9aqs6)" height="60.8047" id="User" style="stroke:#A80036;stroke-width:1.5;" width="85" x="558.5" y="856.9531"/><ellipse cx="584.3" cy="872.9531" fill="#ADD1B2" rx="11" ry="11" style="stroke:#A80036;stroke-width:1.0;"/><path d="M586.6438,868.625 C585.7063,868.1875 585.1125,868.0469 584.2375,868.0469 C581.6125,868.0469 579.6125,870.125 579.6125,872.8438 L579.6125,873.9688 C579.6125,876.5469 581.7219,878.4375 584.6125,878.4375 C585.8313,878.4375 586.9875,878.1406 587.7375,877.5938 C588.3156,877.1875 588.6438,876.7344 588.6438,876.3438 C588.6438,875.8906 588.2531,875.5 587.7844,875.5 C587.5656,875.5 587.3625,875.5781 587.175,875.7656 C586.7219,876.25 586.7219,876.25 586.5344,876.3438 C586.1125,876.6094 585.425,876.7344 584.6594,876.7344 C582.6125,876.7344 581.3156,875.6406 581.3156,873.9375 L581.3156,872.8438 C581.3156,871.0625 582.5656,869.75 584.3,869.75 C584.8781,869.75 585.4875,869.9063 585.9563,870.1563 C586.4406,870.4375 586.6125,870.6563 586.7063,871.0625 C586.7688,871.4688 586.8,871.5938 586.9406,871.7188 C587.0813,871.8594 587.3156,871.9688 587.5344,871.9688 C587.8,871.9688 588.0656,871.8281 588.2375,871.6094 C588.3469,871.4531 588.3781,871.2656 588.3781,870.8438 L588.3781,869.4219 C588.3781,868.9844 588.3625,868.8594 588.2688,868.7031 C588.1125,868.4375 587.8313,868.2969 587.5344,868.2969 C587.2375,868.2969 587.0344,868.3906 586.8156,868.7031 L586.6438,868.625 Z " fill="#000000"/><text fill="#000000" font-family="sans-serif" font-size="12" lengthAdjust="spacing" textLength="29" x="600.7" y="877.1074">User</text><line style="stroke:#A80036;stroke-width:1.5;" x1="559.5" x2="642.5" y1="888.9531" y2="888.9531"/><text fill="#000000" font-family="sans-serif" font-size="11" lengthAdjust="spacing" textLength="73" x="564.5" y="903.1636">String name;</text><line style="stroke:#A80036;stroke-width:1.5;" x1="559.5" x2="642.5" y1="909.7578" y2="909.7578"/><!--MD5=[3fd241ca11f270f6bde54c00b8a8581a]
link RegisterEmployeeUI to RegisterEmployeeController--><path codeLine="115" d="M1353.44,75.9831 C1279.85,98.7131 1166.63,133.6831 1083.76,159.2831 " fill="none" id="RegisterEmployeeUI-to-RegisterEmployeeController" style="stroke:#A80036;stroke-width:1.0;stroke-dasharray:7.0,7.0;"/><polygon fill="#A80036" points="1078.84,160.8031,1088.6213,161.9549,1083.6152,159.3207,1086.2494,154.3146,1078.84,160.8031" style="stroke:#A80036;stroke-width:1.0;"/><!--MD5=[fef6d65c7157109c6e5e0010a551f9d8]
link RegisterEmployeeUI to EmployeeDTO--><path codeLine="116" d="M1505.17,68.9131 C1567.88,86.9231 1646,123.1631 1646,191.9531 C1646,191.9531 1646,191.9531 1646,888.4531 C1646,982.2711 1547.19,1044.2891 1470.25,1078.3611 " fill="none" id="RegisterEmployeeUI-to-EmployeeDTO" style="stroke:#A80036;stroke-width:1.0;stroke-dasharray:7.0,7.0;"/><polygon fill="#A80036" points="1465.21,1080.5651,1475.0586,1080.6303,1469.7924,1078.5647,1471.858,1073.2985,1465.21,1080.5651" style="stroke:#A80036;stroke-width:1.0;"/><!--MD5=[8f277cededc133da58b00e6b3179b285]
link RegisterEmployeeUI to OrganizationRoleDTO--><path codeLine="117" d="M1429.06,76.1631 C1431.42,127.6331 1437.12,251.9001 1440.1,317.0391 " fill="none" id="RegisterEmployeeUI-to-OrganizationRoleDTO" style="stroke:#A80036;stroke-width:1.0;stroke-dasharray:7.0,7.0;"/><polygon fill="#A80036" points="1440.35,322.3901,1443.9348,313.2168,1440.1217,317.3953,1435.9432,313.5822,1440.35,322.3901" style="stroke:#A80036;stroke-width:1.0;"/><!--MD5=[969ee03aa52aee79b0e607297418cbd4]
link RegisterEmployeeController to Company--><path codeLine="119" d="M877.352,223.9531 C806.188,245.9061 708.907,277.4291 625,309.9531 C620.937,311.5281 616.805,313.1751 612.645,314.8711 " fill="none" id="RegisterEmployeeController-to-Company" style="stroke:#A80036;stroke-width:1.0;stroke-dasharray:7.0,7.0;"/><polygon fill="#A80036" points="607.751,316.8831,617.596,317.16,612.3753,314.9817,614.5536,309.761,607.751,316.8831" style="stroke:#A80036;stroke-width:1.0;"/><!--MD5=[15cee3433b0a3ff2dea58cbc07b398d3]
link RegisterEmployeeController to OrganizationRoleStore--><path codeLine="120" d="M1078.69,249.1841 C1099.75,265.7861 1119.14,286.0701 1131,309.9531 C1158.21,364.7311 1135.22,435.2801 1113.78,481.0511 " fill="none" id="RegisterEmployeeController-to-OrganizationRoleStore" style="stroke:#A80036;stroke-width:1.0;stroke-dasharray:7.0,7.0;"/><polygon fill="#A80036" points="1111.57,485.6781,1119.0496,479.2706,1113.7188,481.1634,1111.826,475.8326,1111.57,485.6781" style="stroke:#A80036;stroke-width:1.0;"/><!--MD5=[2d8a53e9624ba54287d0a5c6da82a9db]
link RegisterEmployeeController to EmployeeStore--><path codeLine="121" d="M959.175,249.1061 C937.093,313.8041 900.862,419.9521 880.053,480.9201 " fill="none" id="RegisterEmployeeController-to-EmployeeStore" style="stroke:#A80036;stroke-width:1.0;stroke-dasharray:7.0,7.0;"/><polygon fill="#A80036" points="878.335,485.9531,885.0262,478.7263,879.9491,481.2208,877.4545,476.1437,878.335,485.9531" style="stroke:#A80036;stroke-width:1.0;"/><!--MD5=[b4d3535b622e3950b34b7834f4c913a3]
link RegisterEmployeeController to UserStore--><path codeLine="122" d="M877.25,200.8231 C663.486,216.3831 179.762,257.0651 128,309.9531 C32.3244,407.7101 78.115,592.9741 102.7987,669.5251 " fill="none" id="RegisterEmployeeController-to-UserStore" style="stroke:#A80036;stroke-width:1.0;stroke-dasharray:7.0,7.0;"/><polygon fill="#A80036" points="104.3923,674.4081,105.4023,664.6112,102.8408,669.6549,97.7971,667.0935,104.3923,674.4081" style="stroke:#A80036;stroke-width:1.0;"/><!--MD5=[6a744cf3b6afae20336255b80b7b1c31]
link RegisterEmployeeController to App--><path codeLine="123" d="M877.283,193.5531 C749.767,196.1431 525.226,211.1731 347,278.9531 C321.891,288.5011 296.821,304.2841 276.287,319.2811 " fill="none" id="RegisterEmployeeController-to-App" style="stroke:#A80036;stroke-width:1.0;stroke-dasharray:7.0,7.0;"/><polygon fill="#A80036" points="272.243,322.2681,281.859,320.139,276.265,319.2977,277.1063,313.7037,272.243,322.2681" style="stroke:#A80036;stroke-width:1.0;"/><!--MD5=[05d3f7653ac06d8db0ef91b4517c77fc]
link RegisterEmployeeController to UserSession--><path codeLine="124" d="M877.306,200.3831 C730.931,211.9631 470.138,241.8041 409,309.9531 C317.813,411.5971 349.044,593.2561 367.482,669.1431 " fill="none" id="RegisterEmployeeController-to-UserSession" style="stroke:#A80036;stroke-width:1.0;stroke-dasharray:7.0,7.0;"/><polygon fill="#A80036" points="368.786,674.4211,370.512,664.7247,367.5874,669.5669,362.7452,666.6424,368.786,674.4211" style="stroke:#A80036;stroke-width:1.0;"/><!--MD5=[d130a9b18324af2bf45e59b54d67c878]
link RegisterEmployeeController to EmailNotification--><path codeLine="125" d="M902.431,248.9581 C867.452,274.4181 827.078,303.8061 796.969,325.7211 " fill="none" id="RegisterEmployeeController-to-EmailNotification" style="stroke:#A80036;stroke-width:1.0;stroke-dasharray:7.0,7.0;"/><polygon fill="#A80036" points="792.603,328.8991,802.2336,326.8371,796.6456,325.9568,797.5259,320.3689,792.603,328.8991" style="stroke:#A80036;stroke-width:1.0;"/><!--MD5=[891ae92da17f5d38314b3b77b1a528a3]
link RegisterEmployeeController to GeneratePassword--><path codeLine="126" d="M999.153,249.1871 C1008.59,273.8311 1019.42,302.1151 1027.7,323.7321 " fill="none" id="RegisterEmployeeController-to-GeneratePassword" style="stroke:#A80036;stroke-width:1.0;stroke-dasharray:7.0,7.0;"/><polygon fill="#A80036" points="1029.54,328.5171,1030.0575,318.6819,1027.7522,323.8477,1022.5864,321.5424,1029.54,328.5171" style="stroke:#A80036;stroke-width:1.0;"/><!--MD5=[85969734ec2704a10d63aeaaa3a4eda4]
link RegisterEmployeeController to OrganizationRoleDTO--><path codeLine="127" d="M1078.55,206.7631 C1152.13,218.7431 1253.01,240.7151 1335,278.9531 C1357.13,289.2741 1379.2,304.5941 1397.49,319.0381 " fill="none" id="RegisterEmployeeController-to-OrganizationRoleDTO" style="stroke:#A80036;stroke-width:1.0;stroke-dasharray:7.0,7.0;"/><polygon fill="#A80036" points="1401.58,322.2971,1397.0338,313.5603,1397.6695,319.1813,1392.0485,319.8171,1401.58,322.2971" style="stroke:#A80036;stroke-width:1.0;"/><!--MD5=[f6b78b49c74acf7d7ba5ba8759d6e2d5]
link RegisterEmployeeController to OrganizationRole--><path codeLine="128" d="M1078.52,215.0931 C1151.69,237.0591 1238,279.6661 1238,358.4531 C1238,358.4531 1238,358.4531 1238,705.9531 C1238,748.5151 1238,796.7221 1238,832.6041 " fill="none" id="RegisterEmployeeController-to-OrganizationRole" style="stroke:#A80036;stroke-width:1.0;stroke-dasharray:7.0,7.0;"/><polygon fill="#A80036" points="1238,837.8061,1242,828.8061,1238,832.8061,1234,828.8061,1238,837.8061" style="stroke:#A80036;stroke-width:1.0;"/><!--MD5=[2a0400330eae91a613df1a5851f9981c]
link RegisterEmployeeController to EmployeeDTO--><path codeLine="129" d="M1078.53,203.4931 C1144.6,215.9431 1224.76,244.5081 1258,309.9531 C1370.75,531.9441 1386.37,829.8361 1385.28,992.4131 " fill="none" id="RegisterEmployeeController-to-EmployeeDTO" style="stroke:#A80036;stroke-width:1.0;stroke-dasharray:7.0,7.0;"/><polygon fill="#A80036" points="1385.24,997.6611,1389.3119,988.6934,1385.28,992.6613,1381.3121,988.6294,1385.24,997.6611" style="stroke:#A80036;stroke-width:1.0;"/><!--MD5=[1c6634e41ea173d211257c54b2312dae]
link OrganizationRoleStore to OrganizationRole--><path codeLine="131" d="M1092.73,572.1521 C1099.26,619.8321 1113.71,698.8761 1143,760.9531 C1155.94,788.3861 1175.52,815.6231 1193.55,837.6781 " fill="none" id="OrganizationRoleStore-OrganizationRole" style="stroke:#A80036;stroke-width:1.0;"/><polygon fill="#000000" points="1149.7749,709.6939,1149.3116,700.1946,1143.8166,702.2811,1149.7749,709.6939" style="stroke:#000000;stroke-width:1.0;"/><text fill="#000000" font-family="sans-serif" font-size="13" lengthAdjust="spacing" textLength="54" x="1157" y="709.52">contains</text><text fill="#000000" font-family="sans-serif" font-size="13" lengthAdjust="spacing" textLength="8" x="1084.8463" y="592.2768">1</text><text fill="#000000" font-family="sans-serif" font-size="13" lengthAdjust="spacing" textLength="7" x="1180.1067" y="827.0429">*</text><!--MD5=[2f3bac1bdf76f0b867b8cadb6fadb6bc]
link EmployeeStore to Employee--><path codeLine="132" d="M864,572.0741 C864,595.1061 864,623.9171 864,648.7301 " fill="none" id="EmployeeStore-Employee" style="stroke:#A80036;stroke-width:1.0;"/><polygon fill="#000000" points="869,615.5195,871.9389,606.4744,866.0611,606.4744,869,615.5195" style="stroke:#000000;stroke-width:1.0;"/><text fill="#000000" font-family="sans-serif" font-size="13" lengthAdjust="spacing" textLength="54" x="878" y="615.02">contains</text><text fill="#000000" font-family="sans-serif" font-size="13" lengthAdjust="spacing" textLength="8" x="855.3375" y="592.5018">1</text><text fill="#000000" font-family="sans-serif" font-size="13" lengthAdjust="spacing" textLength="7" x="856.5734" y="638.0374">*</text><!--MD5=[d1e0f6ecc4becbdb384d024f9b519f21]
link UserStore to User--><path codeLine="133" d="M179.464,735.4921 C198.796,744.0311 220.141,753.1461 240,760.9531 C353.626,805.6191 490.408,850.9111 558.359,872.8551 " fill="none" id="UserStore-User" style="stroke:#A80036;stroke-width:1.0;"/><polygon fill="#000000" points="368.7006,801.2237,361.1988,795.3779,359.1954,800.9038,368.7006,801.2237" style="stroke:#000000;stroke-width:1.0;"/><text fill="#000000" font-family="sans-serif" font-size="13" lengthAdjust="spacing" textLength="54" x="373" y="804.02">contains</text><text fill="#000000" font-family="sans-serif" font-size="13" lengthAdjust="spacing" textLength="8" x="183.9347" y="755.4384">1</text><text fill="#000000" font-family="sans-serif" font-size="13" lengthAdjust="spacing" textLength="7" x="543.4285" y="866.1521">*</text><!--MD5=[791833a825fb80e97ccae54226c6f9b1]
link Company to OrganizationRoleStore--><path codeLine="135" d="M607.525,402.6491 C613.391,404.9031 619.25,407.0281 625,408.9531 C771.102,457.8621 814.679,444.2541 963,485.9531 C972.256,488.5551 981.84,491.4341 991.395,494.4291 " fill="none" id="Company-OrganizationRoleStore" style="stroke:#A80036;stroke-width:1.0;"/><polygon fill="#000000" points="837.8629,448.6822,829.7492,443.7205,828.3824,449.4373,837.8629,448.6822" style="stroke:#000000;stroke-width:1.0;"/><text fill="#000000" font-family="sans-serif" font-size="13" lengthAdjust="spacing" textLength="23" x="842" y="452.02">has</text><text fill="#000000" font-family="sans-serif" font-size="13" lengthAdjust="spacing" textLength="8" x="615.3529" y="402.6685">1</text><text fill="#000000" font-family="sans-serif" font-size="13" lengthAdjust="spacing" textLength="8" x="975.378" y="488.136">1</text><!--MD5=[ce859576cba61219b3cb4d2d23fdcd81]
link Company to EmployeeStore--><path codeLine="136" d="M584.602,409.0351 C608.916,425.2371 637.014,442.5541 664,455.9531 C701.516,474.5801 745.079,490.8431 781.953,503.1761 " fill="none" id="Company-EmployeeStore" style="stroke:#A80036;stroke-width:1.0;"/><polygon fill="#000000" points="673.5128,449.6723,666.6144,443.1254,664.0837,448.4305,673.5128,449.6723" style="stroke:#000000;stroke-width:1.0;"/><text fill="#000000" font-family="sans-serif" font-size="13" lengthAdjust="spacing" textLength="23" x="678" y="452.02">has</text><text fill="#000000" font-family="sans-serif" font-size="13" lengthAdjust="spacing" textLength="8" x="585.546" y="429.1231">1</text><text fill="#000000" font-family="sans-serif" font-size="13" lengthAdjust="spacing" textLength="8" x="766.0205" y="497.1623">1</text><!--MD5=[717d4b03d3c4372f4eafe5e342a0a7dd]
link Company to AuthFacade--><path codeLine="137" d="M431.859,409.1261 C381.339,438.0071 318.937,473.6801 275.76,498.3631 " fill="none" id="Company-AuthFacade" style="stroke:#A80036;stroke-width:1.0;"/><polygon fill="#000000" points="380.6592,450.001,389.9703,448.0634,387.0532,442.9605,380.6592,450.001" style="stroke:#000000;stroke-width:1.0;"/><text fill="#000000" font-family="sans-serif" font-size="13" lengthAdjust="spacing" textLength="23" x="394" y="452.02">has</text><text fill="#000000" font-family="sans-serif" font-size="13" lengthAdjust="spacing" textLength="8" x="411.3235" y="429.2269">1</text><text fill="#000000" font-family="sans-serif" font-size="13" lengthAdjust="spacing" textLength="8" x="277.6105" y="487.6078">1</text><!--MD5=[8fa5194589bffb331f8c271d11ca426a]
link AuthFacade to UserStore--><path codeLine="139" d="M205.51,559.4701 C185.466,591.4661 153.66,642.2391 133.581,674.2911 " fill="none" id="AuthFacade-UserStore" style="stroke:#A80036;stroke-width:1.0;"/><polygon fill="#000000" points="179.3456,614.7568,186.638,608.6517,181.6569,605.5313,179.3456,614.7568" style="stroke:#000000;stroke-width:1.0;"/><text fill="#000000" font-family="sans-serif" font-size="13" lengthAdjust="spacing" textLength="23" x="191" y="615.02">has</text><text fill="#000000" font-family="sans-serif" font-size="13" lengthAdjust="spacing" textLength="8" x="192.8714" y="579.4119">1</text><text fill="#000000" font-family="sans-serif" font-size="13" lengthAdjust="spacing" textLength="8" x="128.5883" y="663.5209">1</text><!--MD5=[434feadd2b6df9bf2f29d4ac96be7aa9]
link AuthFacade to UserSession--><path codeLine="140" d="M249.954,559.4701 C278.089,591.4661 322.734,642.2391 350.918,674.2911 " fill="none" id="AuthFacade-UserSession" style="stroke:#A80036;stroke-width:1.0;"/><polygon fill="#000000" points="309.3017,614.2744,305.5359,605.5411,301.1218,609.4225,309.3017,614.2744" style="stroke:#000000;stroke-width:1.0;"/><text fill="#000000" font-family="sans-serif" font-size="13" lengthAdjust="spacing" textLength="23" x="315" y="615.02">has</text><text fill="#000000" font-family="sans-serif" font-size="13" lengthAdjust="spacing" textLength="8" x="246.482" y="579.4119">1</text><text fill="#000000" font-family="sans-serif" font-size="13" lengthAdjust="spacing" textLength="8" x="336.7136" y="663.5209">1</text><!--MD5=[372bd27a178b4208a6d241b4516ac7e6]
reverse link Employee to SpecialistDoctor--><path codeLine="142" d="M818.75,778.2341 C801.564,805.6841 782.932,835.4471 769.565,856.7991 " fill="none" id="Employee-backto-SpecialistDoctor" style="stroke:#A80036;stroke-width:1.0;"/><polygon fill="none" points="812.936,774.3271,829.482,761.0901,824.803,781.7561,812.936,774.3271" style="stroke:#A80036;stroke-width:1.0;"/><!--MD5=[22fb9506fac029fc1d2ae00f0eb8d606]
link Employee to User--><path codeLine="143" d="M797.381,746.6441 C757.143,771.8631 705.255,805.5321 661,837.9531 C652.896,843.8901 644.391,850.5111 636.415,856.9061 " fill="none" id="Employee-User" style="stroke:#A80036;stroke-width:1.0;"/><polygon fill="#000000" points="727.875,802.3452,736.9981,799.6582,733.6763,794.8089,727.875,802.3452" style="stroke:#000000;stroke-width:1.0;"/><text fill="#000000" font-family="sans-serif" font-size="13" lengthAdjust="spacing" textLength="46" x="741" y="804.02">acts as</text><text fill="#000000" font-family="sans-serif" font-size="13" lengthAdjust="spacing" textLength="24" x="765.2734" y="747.2426">0..1</text><text fill="#000000" font-family="sans-serif" font-size="13" lengthAdjust="spacing" textLength="8" x="635.287" y="845.6861">1</text><!--MD5=[241b49406f7a05442b1e788ffaf3787c]
link Employee to OrganizationRole--><path codeLine="144" d="M930.829,748.4341 C962.649,767.7961 1001.62,790.2841 1038,807.9531 C1073.06,824.9821 1112.83,841.1891 1147.61,854.4071 " fill="none" id="Employee-OrganizationRole" style="stroke:#A80036;stroke-width:1.0;"/><polygon fill="#000000" points="1047.492,801.7154,1040.6566,795.1027,1038.0752,800.3833,1047.492,801.7154" style="stroke:#000000;stroke-width:1.0;"/><text fill="#000000" font-family="sans-serif" font-size="13" lengthAdjust="spacing" textLength="23" x="1052" y="804.02">has</text><text fill="#000000" font-family="sans-serif" font-size="13" lengthAdjust="spacing" textLength="7" x="938.5212" y="749.4424">*</text><text fill="#000000" font-family="sans-serif" font-size="13" lengthAdjust="spacing" textLength="8" x="1132.0883" y="848.2396">1</text><!--MD5=[66cbc168a202ff7e0cd9272912f2f0b9]
link Employee to Email--><path codeLine="145" d="M858.756,761.0531 C854.243,807.8691 847.456,876.8451 841,936.9531 C835.9,984.4351 829.505,1039.1641 825.339,1074.2501 " fill="none" id="Employee-Email" style="stroke:#A80036;stroke-width:1.0;"/><polygon fill="#000000" points="856.4695,892.4913,860.3515,883.8091,854.5068,883.1855,856.4695,892.4913" style="stroke:#000000;stroke-width:1.0;"/><text fill="#000000" font-family="sans-serif" font-size="13" lengthAdjust="spacing" textLength="23" x="866" y="892.02">has</text><text fill="#000000" font-family="sans-serif" font-size="13" lengthAdjust="spacing" textLength="8" x="849.6294" y="780.8779">1</text><text fill="#000000" font-family="sans-serif" font-size="13" lengthAdjust="spacing" textLength="8" x="817.3994" y="1063.4009">1</text><!--MD5=[6c5d27f78e6c3a406d99ad6c3b79b329]
link OrganizationRole to EmployeeDTO--><path codeLine="147" d="M1269.38,937.1721 C1280.16,953.9031 1292.73,973.4261 1305.48,993.2131 " fill="none" id="OrganizationRole-to-EmployeeDTO" style="stroke:#A80036;stroke-width:1.0;stroke-dasharray:7.0,7.0;"/><polygon fill="#A80036" points="1308.37,997.7061,1306.8539,987.9747,1305.6601,993.5041,1300.1307,992.3104,1308.37,997.7061" style="stroke:#A80036;stroke-width:1.0;"/><!--MD5=[53d5d62bd72dd727415a1072542a3753]
link RolesMapper to OrganizationRoleDTO--><path codeLine="149" d="M1519.8,223.7431 C1504.62,250.0201 1482.36,288.5591 1465.54,317.6911 " fill="none" id="RolesMapper-to-OrganizationRoleDTO" style="stroke:#A80036;stroke-width:1.0;stroke-dasharray:7.0,7.0;"/><polygon fill="#A80036" points="1462.89,322.2821,1470.8467,316.4778,1465.3845,317.9488,1463.9135,312.4866,1462.89,322.2821" style="stroke:#A80036;stroke-width:1.0;"/><!--MD5=[04f43edd2ed757b78fa8c9c931749700]
link RolesMapper to OrganizationRole--><path codeLine="150" d="M1542.76,223.5431 C1549.77,265.6731 1558.54,344.9501 1540,408.9531 C1490.1,581.2221 1357.41,751.0021 1285.66,833.9661 " fill="none" id="RolesMapper-to-OrganizationRole" style="stroke:#A80036;stroke-width:1.0;stroke-dasharray:7.0,7.0;"/><polygon fill="#A80036" points="1282.29,837.8511,1291.2125,833.6812,1285.5695,834.0769,1285.1738,828.4339,1282.29,837.8511" style="stroke:#A80036;stroke-width:1.0;"/><!--MD5=[407f5cddcdb18dfe0f3a2e42bd3fef57]
link App to AuthFacade--><path codeLine="151" d="M227.915,396.7981 C227.061,425.4211 225.877,465.0591 225.036,493.2501 " fill="none" id="App-to-AuthFacade" style="stroke:#A80036;stroke-width:1.0;stroke-dasharray:7.0,7.0;"/><polygon fill="#A80036" points="224.883,498.3751,229.1487,489.498,225.0316,493.3773,221.1522,489.2602,224.883,498.3751" style="stroke:#A80036;stroke-width:1.0;"/><!--MD5=[dbc364445409b51c9b407d19a07b4adf]
link User to Email--><path codeLine="153" d="M630.67,918.3931 C670.782,958.8691 742.229,1030.9661 785.252,1074.3801 " fill="none" id="User-Email" style="stroke:#A80036;stroke-width:1.0;"/><text fill="#000000" font-family="sans-serif" font-size="13" lengthAdjust="spacing" textLength="8" x="627.5633" y="937.8189">1</text><text fill="#000000" font-family="sans-serif" font-size="13" lengthAdjust="spacing" textLength="8" x="769.9235" y="1063.2771">1</text><!--MD5=[5ab1f46e477a8163e64d30b24bef4255]
link User to Password--><path codeLine="154" d="M601,918.3931 C601,960.8811 601,1038.2111 601,1080.6341 " fill="none" id="User-Password" style="stroke:#A80036;stroke-width:1.0;"/><text fill="#000000" font-family="sans-serif" font-size="13" lengthAdjust="spacing" textLength="8" x="592.2375" y="937.8189">1</text><text fill="#000000" font-family="sans-serif" font-size="13" lengthAdjust="spacing" textLength="8" x="592.175" y="1069.8316">1</text><!--MD5=[a3afbc7d10bf0fc32e42743732e14e2a]
@startuml
title UC7 - Class Diagram

class RegisterEmployeeUI

class RegisterEmployeeController {
    + validateUser()
    + getRoles()
    + createEmployee(empDTO)
    + saveEmployee()
    + createUser()
}

class App {
    + getCompany()
    + getCurrentUserSession()
}

class UserSession {
    + isLoggedInWithRole(ADMINISTRATOR)
}

class Company {
    string designation;
    + getOrganizationRoleStore()
    + getEmployeeStore()
    + getAuthFacade()
}

class OrganizationRoleStore {
    + getRoles()
    + getRoleById(roleId)
    + validateEmployeeAttributes()
}

class EmployeeStore {
    + saveEmployee(emp)
    - validateEmployee(emp)
    - addEmployee(emp)
}

class RolesMapper {
    + toDTO(roles)
}

class OrganizationRoleDTO {
    + String id;
    + String description;
}

class EmployeeDTO {
    String organizationRole;
    String name;
    String address;
    int phoneNumber;
    String email;
    String codeSOC;
    String doctorIndexNumbee;
    + getOrganizationRole()
    + getName()
    + getAddress()
    + getPhoneNumber()
    + getEmail()
    + getcodeSOC()
    + getDoctorIndexNumber()
}

class OrganizationRole {
    String id;
    String description;
    String className;
    + createEmployee(empDTO)
}

class AuthFacade {
    + addUser(name, emailstr, pass)
}

class Email {
    String email;
    + getEmail()
}

class Password {
    + String password;
}

class EmailNotification {
    + sendEmailToClient(emailstr, pass)
}

class GeneratePassword {
    + generatePassowrd()
}

class UserStore {
    + createUser(name, emailstr, pass)
}

class Employee {
    String employeeID;
    String name;
    String address;
    String phoneNumber;
    String codeSOC;
}

class SpecialistDoctor {
    int doctorIndexNumber;
}

class User {
  String name;
}

RegisterEmployeeUI .-> RegisterEmployeeController
RegisterEmployeeUI .-> EmployeeDTO
RegisterEmployeeUI .-> OrganizationRoleDTO

RegisterEmployeeController .-> Company 
RegisterEmployeeController .-> OrganizationRoleStore 
RegisterEmployeeController .-> EmployeeStore
RegisterEmployeeController .-> UserStore 
RegisterEmployeeController .-> App 
RegisterEmployeeController .-> UserSession 
RegisterEmployeeController .-> EmailNotification
RegisterEmployeeController .-> GeneratePassword
RegisterEmployeeController .-> OrganizationRoleDTO
RegisterEmployeeController .-> OrganizationRole
RegisterEmployeeController .-> EmployeeDTO

OrganizationRoleStore "1" - - "*" OrganizationRole: contains >
EmployeeStore "1" - - "*" Employee: contains >
UserStore "1" - - "*" User: contains >

Company "1" - - "1" OrganizationRoleStore: has >
Company "1" - - "1" EmployeeStore: has >
Company "1" - - "1" AuthFacade : has >

AuthFacade "1" - - "1" UserStore: has >
AuthFacade "1" - - "1" UserSession : has >

Employee <|- - SpecialistDoctor
Employee "0..1" - - "1" User: acts as >
Employee "*" - - "1" OrganizationRole: has >
Employee "1" - - "1" Email: has >

OrganizationRole .-> EmployeeDTO

RolesMapper .-> OrganizationRoleDTO
RolesMapper .-> OrganizationRole
App .-> AuthFacade

User "1" - - "1" Email
User "1" - - "1" Password
@enduml

PlantUML version 1.2021.6beta6(Unknown compile time)
(GPL source distribution)
Java Runtime: Java(TM) SE Runtime Environment
JVM: Java HotSpot(TM) 64-Bit Server VM
Default Encoding: UTF-8
Language: en
Country: US
--></g></svg>