<?xml version="1.0" encoding="UTF-8" standalone="no"?><svg xmlns="http://www.w3.org/2000/svg" xmlns:xlink="http://www.w3.org/1999/xlink" contentScriptType="application/ecmascript" contentStyleType="text/css" height="1555px" preserveAspectRatio="none" style="width:772px;height:1555px;background:#FFFFFF;" version="1.1" viewBox="0 0 772 1555" width="772px" zoomAndPan="magnify"><defs><filter height="300%" id="f1v526gyo8yb40" width="300%" x="-1" y="-1"><feGaussianBlur result="blurOut" stdDeviation="2.0"/><feColorMatrix in="blurOut" result="blurOut2" type="matrix" values="0 0 0 0 0 0 0 0 0 0 0 0 0 0 0 0 0 0 .4 0"/><feOffset dx="4.0" dy="4.0" in="blurOut2" result="blurOut3"/><feBlend in="SourceGraphic" in2="blurOut3" mode="normal"/></filter></defs><g><!--MD5=[8ae77ada6169822435c3d3bcb01b6727]
cluster system--><rect fill="#FFFFFF" filter="url(#f1v526gyo8yb40)" height="1536" style="stroke:#000000;stroke-width:1.5;" width="484" x="276" y="7"/><text fill="#000000" font-family="sans-serif" font-size="14" font-weight="bold" lengthAdjust="spacing" textLength="59" x="488.5" y="21.9951">system</text><ellipse cx="518.1527" cy="1170.9305" fill="#FEFECE" filter="url(#f1v526gyo8yb40)" rx="152.6527" ry="32.9305" style="stroke:#A80036;stroke-width:1.5;"/><text fill="#000000" font-family="sans-serif" font-size="14" lengthAdjust="spacing" textLength="276" x="380.1527" y="1173.7772">UC4,UC6,UC13,UC17: Check the results</text><ellipse cx="518.211" cy="818.9422" fill="#FEFECE" filter="url(#f1v526gyo8yb40)" rx="97.711" ry="21.9422" style="stroke:#A80036;stroke-width:1.5;"/><text fill="#000000" font-family="sans-serif" font-size="14" lengthAdjust="spacing" textLength="159" x="438.711" y="821.7889">UC3 : Register a client</text><ellipse cx="517.8318" cy="896.8664" fill="#FEFECE" filter="url(#f1v526gyo8yb40)" rx="92.3318" ry="20.8664" style="stroke:#A80036;stroke-width:1.5;"/><text fill="#000000" font-family="sans-serif" font-size="14" lengthAdjust="spacing" textLength="147" x="444.3318" y="899.713">UC2 : Register a test</text><ellipse cx="517.9086" cy="1378.0817" fill="#FEFECE" filter="url(#f1v526gyo8yb40)" rx="105.9086" ry="23.5817" style="stroke:#A80036;stroke-width:1.5;"/><text fill="#000000" font-family="sans-serif" font-size="14" lengthAdjust="spacing" textLength="177" x="429.4086" y="1380.9284">UC1 : Record the sample</text><ellipse cx="518.0533" cy="1278.9107" fill="#FEFECE" filter="url(#f1v526gyo8yb40)" rx="187.5533" ry="39.9107" style="stroke:#A80036;stroke-width:1.5;"/><text fill="#000000" font-family="sans-serif" font-size="14" lengthAdjust="spacing" textLength="348" x="344.0533" y="1281.7573">UC5 : Record the results of the chemical analysis</text><ellipse cx="517.8631" cy="406.8726" fill="#FEFECE" filter="url(#f1v526gyo8yb40)" rx="127.3631" ry="27.8726" style="stroke:#A80036;stroke-width:1.5;"/><text fill="#000000" font-family="sans-serif" font-size="14" lengthAdjust="spacing" textLength="223" x="406.3631" y="409.7193">UC7 : Register a new employee</text><ellipse cx="518.1671" cy="509.0334" fill="#FEFECE" filter="url(#f1v526gyo8yb40)" rx="183.1671" ry="39.0334" style="stroke:#A80036;stroke-width:1.5;"/><text fill="#000000" font-family="sans-serif" font-size="14" lengthAdjust="spacing" textLength="339" x="348.6671" y="511.8801">UC8 : Register a new Clinical analysis laboratory</text><ellipse cx="517.7575" cy="631.0515" fill="#FEFECE" filter="url(#f1v526gyo8yb40)" rx="225.7575" ry="47.5515" style="stroke:#A80036;stroke-width:1.5;"/><text fill="#000000" font-family="sans-serif" font-size="14" lengthAdjust="spacing" textLength="426" x="304.7575" y="633.8982">UC9 : Specify a new type of test and its collecting methods</text><ellipse cx="518.1279" cy="86.1256" fill="#FEFECE" filter="url(#f1v526gyo8yb40)" rx="206.1279" ry="43.6256" style="stroke:#A80036;stroke-width:1.5;"/><text fill="#000000" font-family="sans-serif" font-size="14" lengthAdjust="spacing" textLength="386" x="325.1279" y="88.9723">UC10 :Specify a new test parameter and categorize it</text><ellipse cx="517.7652" cy="200.053" fill="#FEFECE" filter="url(#f1v526gyo8yb40)" rx="163.2652" ry="35.053" style="stroke:#A80036;stroke-width:1.5;"/><text fill="#000000" font-family="sans-serif" font-size="14" lengthAdjust="spacing" textLength="298" x="368.7652" y="202.8997">UC11 : Specify a new parameter category</text><ellipse cx="517.834" cy="979.8668" fill="#FEFECE" filter="url(#f1v526gyo8yb40)" rx="119.834" ry="26.3668" style="stroke:#A80036;stroke-width:1.5;"/><text fill="#000000" font-family="sans-serif" font-size="14" lengthAdjust="spacing" textLength="207" x="414.334" y="982.7135">UC12 : Validate the diagnosis</text><ellipse cx="518.1316" cy="738.2263" fill="#FEFECE" filter="url(#f1v526gyo8yb40)" rx="109.1316" ry="24.2263" style="stroke:#A80036;stroke-width:1.5;"/><text fill="#000000" font-family="sans-serif" font-size="14" lengthAdjust="spacing" textLength="184" x="426.1316" y="741.073">UC14 : Consult the results</text><ellipse cx="517.9998" cy="307.2" fill="#FEFECE" filter="url(#f1v526gyo8yb40)" rx="171.4998" ry="36.7" style="stroke:#A80036;stroke-width:1.5;"/><text fill="#000000" font-family="sans-serif" font-size="14" lengthAdjust="spacing" textLength="315" x="360.4998" y="310.0466">UC15 : Summarize and report Covid-19 data</text><ellipse cx="517.9714" cy="1482.1943" fill="#FEFECE" filter="url(#f1v526gyo8yb40)" rx="213.9714" ry="45.1943" style="stroke:#A80036;stroke-width:1.5;"/><text fill="#000000" font-family="sans-serif" font-size="14" lengthAdjust="spacing" textLength="402" x="316.9714" y="1485.041">UC16 : Generate daily automatic reports about covid-19</text><ellipse cx="518.1446" cy="1072.1289" fill="#FEFECE" filter="url(#f1v526gyo8yb40)" rx="141.1446" ry="30.6289" style="stroke:#A80036;stroke-width:1.5;"/><text fill="#000000" font-family="sans-serif" font-size="14" lengthAdjust="spacing" textLength="252" x="392.1446" y="1074.9756">UC18 : Write a report and diagnosis</text><!--MD5=[a2a1127a9e0c3d5a4af797120761d109]
entity ad--><ellipse cx="119" cy="326" fill="#FEFECE" filter="url(#f1v526gyo8yb40)" rx="8" ry="8" style="stroke:#A80036;stroke-width:1.5;"/><path d="M119,334 L119,361 M106,342 L132,342 M119,361 L106,376 M119,361 L132,376 " fill="none" filter="url(#f1v526gyo8yb40)" style="stroke:#A80036;stroke-width:1.5;"/><text fill="#000000" font-family="sans-serif" font-size="14" lengthAdjust="spacing" textLength="100" x="69" y="394.4951">Administrator</text><!--MD5=[979c31051cf8d07bdf927ed864b836ec]
entity cl--><ellipse cx="119" cy="707" fill="#FEFECE" filter="url(#f1v526gyo8yb40)" rx="8" ry="8" style="stroke:#A80036;stroke-width:1.5;"/><path d="M119,715 L119,742 M106,723 L132,723 M119,742 L106,757 M119,742 L132,757 " fill="none" filter="url(#f1v526gyo8yb40)" style="stroke:#A80036;stroke-width:1.5;"/><text fill="#000000" font-family="sans-serif" font-size="14" lengthAdjust="spacing" textLength="43" x="97.5" y="775.4951">Client</text><!--MD5=[619de47f7aa1106b4a43be6225b576c0]
entity rc--><ellipse cx="119" cy="850" fill="#FEFECE" filter="url(#f1v526gyo8yb40)" rx="8" ry="8" style="stroke:#A80036;stroke-width:1.5;"/><path d="M119,858 L119,885 M106,866 L132,866 M119,885 L106,900 M119,885 L132,900 " fill="none" filter="url(#f1v526gyo8yb40)" style="stroke:#A80036;stroke-width:1.5;"/><text fill="#000000" font-family="sans-serif" font-size="14" lengthAdjust="spacing" textLength="93" x="72.5" y="918.4951">Receptionist</text><!--MD5=[9b765648a409d02f5ba0bbb9cb84ff33]
entity lc--><ellipse cx="119" cy="966" fill="#FEFECE" filter="url(#f1v526gyo8yb40)" rx="8" ry="8" style="stroke:#A80036;stroke-width:1.5;"/><path d="M119,974 L119,1001 M106,982 L132,982 M119,1001 L106,1016 M119,1001 L132,1016 " fill="none" filter="url(#f1v526gyo8yb40)" style="stroke:#A80036;stroke-width:1.5;"/><text fill="#000000" font-family="sans-serif" font-size="14" lengthAdjust="spacing" textLength="169" x="34.5" y="1034.4951">Laboratory Coordinator</text><!--MD5=[1865ce58b93b46dbf0f89b42133fbc97]
entity sd--><ellipse cx="119" cy="1083" fill="#FEFECE" filter="url(#f1v526gyo8yb40)" rx="8" ry="8" style="stroke:#A80036;stroke-width:1.5;"/><path d="M119,1091 L119,1118 M106,1099 L132,1099 M119,1118 L106,1133 M119,1118 L132,1133 " fill="none" filter="url(#f1v526gyo8yb40)" style="stroke:#A80036;stroke-width:1.5;"/><text fill="#000000" font-family="sans-serif" font-size="14" lengthAdjust="spacing" textLength="124" x="57" y="1151.4951">Specialist Doctor</text><!--MD5=[72bd50b8814dffd24ca46f995a9a7d84]
entity cct--><ellipse cx="119" cy="1200" fill="#FEFECE" filter="url(#f1v526gyo8yb40)" rx="8" ry="8" style="stroke:#A80036;stroke-width:1.5;"/><path d="M119,1208 L119,1235 M106,1216 L132,1216 M119,1235 L106,1250 M119,1235 L132,1250 " fill="none" filter="url(#f1v526gyo8yb40)" style="stroke:#A80036;stroke-width:1.5;"/><text fill="#000000" font-family="sans-serif" font-size="14" lengthAdjust="spacing" textLength="226" x="6" y="1268.4951">Clinical Chemistry Technologist</text><!--MD5=[ddc0993abd4478baf117d835cc4f0442]
entity mlt--><ellipse cx="119" cy="1318" fill="#FEFECE" filter="url(#f1v526gyo8yb40)" rx="8" ry="8" style="stroke:#A80036;stroke-width:1.5;"/><path d="M119,1326 L119,1353 M106,1334 L132,1334 M119,1353 L106,1368 M119,1353 L132,1368 " fill="none" filter="url(#f1v526gyo8yb40)" style="stroke:#A80036;stroke-width:1.5;"/><text fill="#000000" font-family="sans-serif" font-size="14" lengthAdjust="spacing" textLength="165" x="36.5" y="1386.4951">Medical Lab Technician</text><!--MD5=[3ae3c4fcda79e9281b7e36fb82444fac]
entity ti--><ellipse cx="119" cy="1451" fill="#FEFECE" filter="url(#f1v526gyo8yb40)" rx="8" ry="8" style="stroke:#A80036;stroke-width:1.5;"/><path d="M119,1459 L119,1486 M106,1467 L132,1467 M119,1486 L106,1501 M119,1486 L132,1501 " fill="none" filter="url(#f1v526gyo8yb40)" style="stroke:#A80036;stroke-width:1.5;"/><text fill="#000000" font-family="sans-serif" font-size="14" lengthAdjust="spacing" textLength="42" x="98" y="1519.4951">Timer</text><!--MD5=[b43b0ea0b90807c9d86f7da41924f218]
link mlt to UC1--><path d="M201.777,1354.974 C262.613,1359.418 346.136,1365.519 411.923,1370.324 " fill="none" id="mlt-to-UC1" style="stroke:#A80036;stroke-width:1.0;"/><polygon fill="#A80036" points="417.027,1370.697,408.3424,1366.0518,412.0403,1370.3326,407.7594,1374.0305,417.027,1370.697" style="stroke:#A80036;stroke-width:1.0;"/><!--MD5=[1506b88fc324a70dcdd063915afaae5f]
link rc to UC2--><path d="M165.541,882.835 C227.621,885.337 340.347,889.881 421.416,893.148 " fill="none" id="rc-to-UC2" style="stroke:#A80036;stroke-width:1.0;"/><polygon fill="#A80036" points="426.709,893.361,417.8775,889.0017,421.7131,893.1596,417.5552,896.9952,426.709,893.361" style="stroke:#A80036;stroke-width:1.0;"/><!--MD5=[15d860c8eb8b87374ddcd2df280e2dae]
link rc to UC3--><path d="M165.541,873.888 C230.411,863.757 350.583,844.99 432.147,832.252 " fill="none" id="rc-to-UC3" style="stroke:#A80036;stroke-width:1.0;"/><polygon fill="#A80036" points="437.463,831.421,427.9536,828.8575,432.5229,832.1924,429.1879,836.7617,437.463,831.421" style="stroke:#A80036;stroke-width:1.0;"/><!--MD5=[556265132f4d4f1cf7e81def76603f73]
link mlt to UC--><path d="M201.688,1312.706 C212.616,1305.788 223.104,1297.885 232,1289 C255.918,1265.112 240.884,1242.185 268,1222 C296.087,1201.093 330.684,1188.247 365.057,1180.473 " fill="none" id="mlt-to-UC" style="stroke:#A80036;stroke-width:1.0;"/><polygon fill="#A80036" points="370.126,1179.363,360.4784,1177.3822,365.2419,1180.4333,362.1908,1185.1968,370.126,1179.363" style="stroke:#A80036;stroke-width:1.0;"/><!--MD5=[414b3548c350edb90d2c9edd67650f93]
link cct to UC5--><path d="M232.172,1244.562 C268.49,1248.953 309.595,1253.923 349.05,1258.694 " fill="none" id="cct-to-UC5" style="stroke:#A80036;stroke-width:1.0;"/><polygon fill="#A80036" points="354.354,1259.335,345.899,1254.284,349.3901,1258.735,344.9391,1262.2262,354.354,1259.335" style="stroke:#A80036;stroke-width:1.0;"/><!--MD5=[bbd4bae931f902f5ce326d1e03e4f38f]
link cct to UC--><path d="M232.172,1214.047 C280.498,1206.743 337.302,1198.158 387.416,1190.585 " fill="none" id="cct-to-UC" style="stroke:#A80036;stroke-width:1.0;"/><polygon fill="#A80036" points="392.555,1189.808,383.0583,1187.1981,387.6112,1190.5553,384.2539,1195.1082,392.555,1189.808" style="stroke:#A80036;stroke-width:1.0;"/><!--MD5=[b78c0d2d118275592b8e40ea280e2469]
link ad to UC7--><path d="M169.078,363.18 C226.831,370.45 324.64,382.77 401.871,392.5 " fill="none" id="ad-to-UC7" style="stroke:#A80036;stroke-width:1.0;"/><polygon fill="#A80036" points="406.928,393.14,398.4998,388.0444,401.9674,392.5138,397.4979,395.9814,406.928,393.14" style="stroke:#A80036;stroke-width:1.0;"/><!--MD5=[46a2fed7010a998cf677797a483e92c5]
link ad to UC8--><path d="M169.294,394.79 C196.994,414.4 232.956,437.27 268,452 C299.564,465.26 334.735,475.71 368.469,483.84 " fill="none" id="ad-to-UC8" style="stroke:#A80036;stroke-width:1.0;"/><polygon fill="#A80036" points="373.435,485.02,365.6087,479.041,368.5714,483.8599,363.7525,486.8227,373.435,485.02" style="stroke:#A80036;stroke-width:1.0;"/><!--MD5=[95a1ca5f4b72cf115fa0f3400b707d49]
link ad to UC9--><path d="M138.121,397.54 C161.385,444.91 206.244,522.23 268,565 C288.767,579.383 312.491,590.632 336.858,599.429 " fill="none" id="ad-to-UC9" style="stroke:#A80036;stroke-width:1.0;"/><polygon fill="#A80036" points="341.739,601.157,334.59,594.3826,337.0257,599.4883,331.92,601.9239,341.739,601.157" style="stroke:#A80036;stroke-width:1.0;"/><!--MD5=[52d608acc25e468c1480cac0571af098]
link ad to UC10--><path d="M137.677,316.29 C160.647,268.31 205.358,189.72 268,147 C290.24,131.83 315.871,120.43 342.049,111.85 " fill="none" id="ad-to-UC10" style="stroke:#A80036;stroke-width:1.0;"/><polygon fill="#A80036" points="346.943,110.28,337.1514,109.2197,342.1819,111.807,339.5946,116.8375,346.943,110.28" style="stroke:#A80036;stroke-width:1.0;"/><!--MD5=[8db4e90104465dac0bd6550155280890]
link ad to UC11--><path d="M167.345,316.27 C195.02,294.46 231.584,268.88 268,253 C301.402,238.44 339.116,227.76 374.899,219.97 " fill="none" id="ad-to-UC11" style="stroke:#A80036;stroke-width:1.0;"/><polygon fill="#A80036" points="380.164,218.84,370.525,216.8176,375.2753,219.8892,372.2037,224.6395,380.164,218.84" style="stroke:#A80036;stroke-width:1.0;"/><!--MD5=[a517e667c29553d4f74f2d70116d866e]
link lc to UC12--><path d="M203.708,993.416 C259.137,991.042 332.759,987.889 394.707,985.237 " fill="none" id="lc-to-UC12" style="stroke:#A80036;stroke-width:1.0;"/><polygon fill="#A80036" points="399.903,985.014,390.7409,981.4007,394.9075,985.2268,391.0814,989.3935,399.903,985.014" style="stroke:#A80036;stroke-width:1.0;"/><!--MD5=[15d11631404bfdea92a463e00bfb997e]
link lc to UC--><path d="M203.55,1033.956 C213.775,1040.452 223.572,1047.801 232,1056 C255.393,1078.757 241.634,1100.767 268,1120 C296.372,1140.696 331.169,1153.453 365.654,1161.207 " fill="none" id="lc-to-UC" style="stroke:#A80036;stroke-width:1.0;"/><polygon fill="#A80036" points="370.738,1162.315,362.7976,1156.4884,365.8529,1161.2491,361.0922,1164.3045,370.738,1162.315" style="stroke:#A80036;stroke-width:1.0;"/><!--MD5=[70ce99909c47e6d8a0b0f41dfe025b98]
link cl to UC14--><path d="M140.508,738 C188.505,738 311.062,738 403.408,738 " fill="none" id="cl-to-UC14" style="stroke:#A80036;stroke-width:1.0;"/><polygon fill="#A80036" points="408.612,738,399.612,734,403.612,738,399.612,742,408.612,738" style="stroke:#A80036;stroke-width:1.0;"/><!--MD5=[987b2809234e3aa15141569ec76c770b]
link ad to UC15--><path d="M169.078,350.82 C217.903,344.67 295.356,334.91 364.802,326.17 " fill="none" id="ad-to-UC15" style="stroke:#A80036;stroke-width:1.0;"/><polygon fill="#A80036" points="369.788,325.54,360.3579,322.6986,364.8274,326.1662,361.3598,330.6356,369.788,325.54" style="stroke:#A80036;stroke-width:1.0;"/><!--MD5=[1cb4f8d89ba4dd4ec50797c169d88dde]
link ti to UC16--><path d="M140.233,1482 C171.187,1482 233.609,1482 298.888,1482 " fill="none" id="ti-to-UC16" style="stroke:#A80036;stroke-width:1.0;"/><polygon fill="#A80036" points="303.996,1482,294.996,1478,298.996,1482,294.996,1486,303.996,1482" style="stroke:#A80036;stroke-width:1.0;"/><!--MD5=[9ace638415073f8f463276de27e5c510]
link sd to UC--><path d="M181.161,1122.781 C235.322,1130.558 316.24,1142.175 385.076,1152.059 " fill="none" id="sd-to-UC" style="stroke:#A80036;stroke-width:1.0;"/><polygon fill="#A80036" points="390.431,1152.828,382.0903,1147.5904,385.4817,1152.1179,380.9541,1155.5093,390.431,1152.828" style="stroke:#A80036;stroke-width:1.0;"/><!--MD5=[70a2d05d560b373e31e79593734050ec]
link sd to UC18--><path d="M181.161,1107.53 C235.428,1101.788 316.556,1093.206 385.48,1085.914 " fill="none" id="sd-to-UC18" style="stroke:#A80036;stroke-width:1.0;"/><polygon fill="#A80036" points="390.841,1085.347,381.4703,1082.3156,385.8687,1085.8728,382.3115,1090.2713,390.841,1085.347" style="stroke:#A80036;stroke-width:1.0;"/><!--MD5=[1919d1a135ec798b2d39cb654b25b3a2]
@startuml
left to right direction
actor "Administrator" as ad
actor "Client" as cl
actor "Receptionist" as rc
actor "Laboratory Coordinator" as lc
actor "Specialist Doctor" as sd
actor "Clinical Chemistry Technologist" as cct
actor "Medical Lab Technician" as mlt
actor "Timer" as ti

rectangle system {
  usecase "UC4,UC6,UC13,UC17: Check the results" as UC
  usecase "UC3 : Register a client" as UC3
  usecase "UC2 : Register a test" as UC2
  usecase "UC1 : Record the sample" as UC1
  usecase "UC5 : Record the results of the chemical analysis" as UC5
  usecase "UC7 : Register a new employee" as UC7
  usecase "UC8 : Register a new Clinical analysis laboratory" as UC8
  usecase "UC9 : Specify a new type of test and its collecting methods" as UC9
  usecase "UC10 :Specify a new test parameter and categorize it" as UC10
  usecase "UC11 : Specify a new parameter category" as UC11
  usecase "UC12 : Validate the diagnosis" as UC12
  usecase "UC14 : Consult the results" as UC14
  usecase "UC15 : Summarize and report Covid-19 data" as UC15
  usecase "UC16 : Generate daily automatic reports about covid-19" as UC16
  usecase "UC18 : Write a report and diagnosis" as UC18
  
}

mlt - -> UC1
rc - -> UC2
rc - -> UC3
mlt - -> UC
cct - -> UC5
cct - -> UC
ad - -> UC7
ad - -> UC8
ad - -> UC9
ad - -> UC10
ad - -> UC11
lc - -> UC12
lc - -> UC
cl - -> UC14
ad - -> UC15
ti - -> UC16
sd - -> UC
sd - -> UC18
@enduml

PlantUML version 1.2021.6beta6(Unknown compile time)
(GPL source distribution)
Java Runtime: Java(TM) SE Runtime Environment
JVM: Java HotSpot(TM) 64-Bit Server VM
Default Encoding: UTF-8
Language: en
Country: US
--></g></svg>