<?xml version="1.0" encoding="UTF-8" standalone="no"?><svg xmlns="http://www.w3.org/2000/svg" xmlns:xlink="http://www.w3.org/1999/xlink" contentScriptType="application/ecmascript" contentStyleType="text/css" height="580px" preserveAspectRatio="none" style="width:286px;height:580px;background:#FFFFFF;" version="1.1" viewBox="0 0 286 580" width="286px" zoomAndPan="magnify"><defs><filter height="300%" id="f16r08caa5c0w" width="300%" x="-1" y="-1"><feGaussianBlur result="blurOut" stdDeviation="2.0"/><feColorMatrix in="blurOut" result="blurOut2" type="matrix" values="0 0 0 0 0 0 0 0 0 0 0 0 0 0 0 0 0 0 .4 0"/><feOffset dx="4.0" dy="4.0" in="blurOut2" result="blurOut3"/><feBlend in="SourceGraphic" in2="blurOut3" mode="normal"/></filter></defs><g><text fill="#000000" font-family="sans-serif" font-size="18" lengthAdjust="spacing" textLength="277" x="2" y="16.708">Relationships - Class Diagram</text><!--MD5=[ed6624c6556d5e7b1bd23032162d20b7]
class Client--><rect codeLine="3" fill="#FEFECE" filter="url(#f16r08caa5c0w)" height="137.6328" id="Client" style="stroke:#A80036;stroke-width:1.5;" width="161" x="63" y="165.9531"/><ellipse cx="122.75" cy="181.9531" fill="#ADD1B2" rx="11" ry="11" style="stroke:#A80036;stroke-width:1.0;"/><path d="M125.0938,177.625 C124.1563,177.1875 123.5625,177.0469 122.6875,177.0469 C120.0625,177.0469 118.0625,179.125 118.0625,181.8438 L118.0625,182.9688 C118.0625,185.5469 120.1719,187.4375 123.0625,187.4375 C124.2813,187.4375 125.4375,187.1406 126.1875,186.5938 C126.7656,186.1875 127.0938,185.7344 127.0938,185.3438 C127.0938,184.8906 126.7031,184.5 126.2344,184.5 C126.0156,184.5 125.8125,184.5781 125.625,184.7656 C125.1719,185.25 125.1719,185.25 124.9844,185.3438 C124.5625,185.6094 123.875,185.7344 123.1094,185.7344 C121.0625,185.7344 119.7656,184.6406 119.7656,182.9375 L119.7656,181.8438 C119.7656,180.0625 121.0156,178.75 122.75,178.75 C123.3281,178.75 123.9375,178.9063 124.4063,179.1563 C124.8906,179.4375 125.0625,179.6563 125.1563,180.0625 C125.2188,180.4688 125.25,180.5938 125.3906,180.7188 C125.5313,180.8594 125.7656,180.9688 125.9844,180.9688 C126.25,180.9688 126.5156,180.8281 126.6875,180.6094 C126.7969,180.4531 126.8281,180.2656 126.8281,179.8438 L126.8281,178.4219 C126.8281,177.9844 126.8125,177.8594 126.7188,177.7031 C126.5625,177.4375 126.2813,177.2969 125.9844,177.2969 C125.6875,177.2969 125.4844,177.3906 125.2656,177.7031 L125.0938,177.625 Z " fill="#000000"/><text fill="#000000" font-family="sans-serif" font-size="12" lengthAdjust="spacing" textLength="33" x="143.25" y="186.1074">Client</text><line style="stroke:#A80036;stroke-width:1.5;" x1="64" x2="223" y1="197.9531" y2="197.9531"/><text fill="#000000" font-family="sans-serif" font-size="11" lengthAdjust="spacing" textLength="149" x="69" y="212.1636">String citizenCardNumber;</text><text fill="#000000" font-family="sans-serif" font-size="11" lengthAdjust="spacing" textLength="108" x="69" y="224.9683">String numberNHS;</text><text fill="#000000" font-family="sans-serif" font-size="11" lengthAdjust="spacing" textLength="102" x="69" y="237.7729">String numberTIN;</text><text fill="#000000" font-family="sans-serif" font-size="11" lengthAdjust="spacing" textLength="93" x="69" y="250.5776">String birthDate;</text><text fill="#000000" font-family="sans-serif" font-size="11" lengthAdjust="spacing" textLength="59" x="69" y="263.3823">string sex;</text><text fill="#000000" font-family="sans-serif" font-size="11" lengthAdjust="spacing" textLength="121" x="69" y="276.187">String phoneNumber;</text><text fill="#000000" font-family="sans-serif" font-size="11" lengthAdjust="spacing" textLength="71" x="69" y="288.9917">string name;</text><line style="stroke:#A80036;stroke-width:1.5;" x1="64" x2="223" y1="295.5859" y2="295.5859"/><!--MD5=[02e4b9b7573f1156f41e60aa5b4e25a4]
class Company--><rect codeLine="13" fill="#FEFECE" filter="url(#f16r08caa5c0w)" height="60.8047" id="Company" style="stroke:#A80036;stroke-width:1.5;" width="118" x="84.5" y="27.9531"/><ellipse cx="113" cy="43.9531" fill="#ADD1B2" rx="11" ry="11" style="stroke:#A80036;stroke-width:1.0;"/><path d="M115.3438,39.625 C114.4063,39.1875 113.8125,39.0469 112.9375,39.0469 C110.3125,39.0469 108.3125,41.125 108.3125,43.8438 L108.3125,44.9688 C108.3125,47.5469 110.4219,49.4375 113.3125,49.4375 C114.5313,49.4375 115.6875,49.1406 116.4375,48.5938 C117.0156,48.1875 117.3438,47.7344 117.3438,47.3438 C117.3438,46.8906 116.9531,46.5 116.4844,46.5 C116.2656,46.5 116.0625,46.5781 115.875,46.7656 C115.4219,47.25 115.4219,47.25 115.2344,47.3438 C114.8125,47.6094 114.125,47.7344 113.3594,47.7344 C111.3125,47.7344 110.0156,46.6406 110.0156,44.9375 L110.0156,43.8438 C110.0156,42.0625 111.2656,40.75 113,40.75 C113.5781,40.75 114.1875,40.9063 114.6563,41.1563 C115.1406,41.4375 115.3125,41.6563 115.4063,42.0625 C115.4688,42.4688 115.5,42.5938 115.6406,42.7188 C115.7813,42.8594 116.0156,42.9688 116.2344,42.9688 C116.5,42.9688 116.7656,42.8281 116.9375,42.6094 C117.0469,42.4531 117.0781,42.2656 117.0781,41.8438 L117.0781,40.4219 C117.0781,39.9844 117.0625,39.8594 116.9688,39.7031 C116.8125,39.4375 116.5313,39.2969 116.2344,39.2969 C115.9375,39.2969 115.7344,39.3906 115.5156,39.7031 L115.3438,39.625 Z " fill="#000000"/><text fill="#000000" font-family="sans-serif" font-size="12" lengthAdjust="spacing" textLength="56" x="130" y="48.1074">Company</text><line style="stroke:#A80036;stroke-width:1.5;" x1="85.5" x2="201.5" y1="59.9531" y2="59.9531"/><text fill="#000000" font-family="sans-serif" font-size="11" lengthAdjust="spacing" textLength="106" x="90.5" y="74.1636">String designation;</text><line style="stroke:#A80036;stroke-width:1.5;" x1="85.5" x2="201.5" y1="80.7578" y2="80.7578"/><!--MD5=[78bec0fde86ad92ec1dc3fb343b83709]
class Email--><rect codeLine="17" fill="#FEFECE" filter="url(#f16r08caa5c0w)" height="60.8047" id="Email" style="stroke:#A80036;stroke-width:1.5;" width="84" x="101.5" y="505.9531"/><ellipse cx="125.95" cy="521.9531" fill="#ADD1B2" rx="11" ry="11" style="stroke:#A80036;stroke-width:1.0;"/><path d="M128.2938,517.625 C127.3563,517.1875 126.7625,517.0469 125.8875,517.0469 C123.2625,517.0469 121.2625,519.125 121.2625,521.8438 L121.2625,522.9688 C121.2625,525.5469 123.3719,527.4375 126.2625,527.4375 C127.4813,527.4375 128.6375,527.1406 129.3875,526.5938 C129.9656,526.1875 130.2938,525.7344 130.2938,525.3438 C130.2938,524.8906 129.9031,524.5 129.4344,524.5 C129.2156,524.5 129.0125,524.5781 128.825,524.7656 C128.3719,525.25 128.3719,525.25 128.1844,525.3438 C127.7625,525.6094 127.075,525.7344 126.3094,525.7344 C124.2625,525.7344 122.9656,524.6406 122.9656,522.9375 L122.9656,521.8438 C122.9656,520.0625 124.2156,518.75 125.95,518.75 C126.5281,518.75 127.1375,518.9063 127.6063,519.1563 C128.0906,519.4375 128.2625,519.6563 128.3563,520.0625 C128.4188,520.4688 128.45,520.5938 128.5906,520.7188 C128.7313,520.8594 128.9656,520.9688 129.1844,520.9688 C129.45,520.9688 129.7156,520.8281 129.8875,520.6094 C129.9969,520.4531 130.0281,520.2656 130.0281,519.8438 L130.0281,518.4219 C130.0281,517.9844 130.0125,517.8594 129.9188,517.7031 C129.7625,517.4375 129.4813,517.2969 129.1844,517.2969 C128.8875,517.2969 128.6844,517.3906 128.4656,517.7031 L128.2938,517.625 Z " fill="#000000"/><text fill="#000000" font-family="sans-serif" font-size="12" lengthAdjust="spacing" textLength="31" x="142.05" y="526.1074">Email</text><line style="stroke:#A80036;stroke-width:1.5;" x1="102.5" x2="184.5" y1="537.9531" y2="537.9531"/><text fill="#000000" font-family="sans-serif" font-size="11" lengthAdjust="spacing" textLength="72" x="107.5" y="552.1636">String email;</text><line style="stroke:#A80036;stroke-width:1.5;" x1="102.5" x2="184.5" y1="558.7578" y2="558.7578"/><!--MD5=[3fd616f346a44cd59a91eb10b19e157c]
class User--><rect fill="#FEFECE" filter="url(#f16r08caa5c0w)" height="48" id="User" style="stroke:#A80036;stroke-width:1.5;" width="61" x="113" y="380.9531"/><ellipse cx="128" cy="396.9531" fill="#ADD1B2" rx="11" ry="11" style="stroke:#A80036;stroke-width:1.0;"/><path d="M130.3438,392.625 C129.4063,392.1875 128.8125,392.0469 127.9375,392.0469 C125.3125,392.0469 123.3125,394.125 123.3125,396.8438 L123.3125,397.9688 C123.3125,400.5469 125.4219,402.4375 128.3125,402.4375 C129.5313,402.4375 130.6875,402.1406 131.4375,401.5938 C132.0156,401.1875 132.3438,400.7344 132.3438,400.3438 C132.3438,399.8906 131.9531,399.5 131.4844,399.5 C131.2656,399.5 131.0625,399.5781 130.875,399.7656 C130.4219,400.25 130.4219,400.25 130.2344,400.3438 C129.8125,400.6094 129.125,400.7344 128.3594,400.7344 C126.3125,400.7344 125.0156,399.6406 125.0156,397.9375 L125.0156,396.8438 C125.0156,395.0625 126.2656,393.75 128,393.75 C128.5781,393.75 129.1875,393.9063 129.6563,394.1563 C130.1406,394.4375 130.3125,394.6563 130.4063,395.0625 C130.4688,395.4688 130.5,395.5938 130.6406,395.7188 C130.7813,395.8594 131.0156,395.9688 131.2344,395.9688 C131.5,395.9688 131.7656,395.8281 131.9375,395.6094 C132.0469,395.4531 132.0781,395.2656 132.0781,394.8438 L132.0781,393.4219 C132.0781,392.9844 132.0625,392.8594 131.9688,392.7031 C131.8125,392.4375 131.5313,392.2969 131.2344,392.2969 C130.9375,392.2969 130.7344,392.3906 130.5156,392.7031 L130.3438,392.625 Z " fill="#000000"/><text fill="#000000" font-family="sans-serif" font-size="12" lengthAdjust="spacing" textLength="29" x="142" y="401.1074">User</text><line style="stroke:#A80036;stroke-width:1.5;" x1="114" x2="173" y1="412.9531" y2="412.9531"/><line style="stroke:#A80036;stroke-width:1.5;" x1="114" x2="173" y1="420.9531" y2="420.9531"/><!--MD5=[6eee883fdf517d3604e8bd0f2058e9aa]
link Company to Client--><path codeLine="21" d="M143.5,89.0551 C143.5,110.0581 143.5,139.1281 143.5,165.7211 " fill="none" id="Company-Client" style="stroke:#A80036;stroke-width:1.0;"/><polygon fill="#000000" points="148.5,132.5195,151.4389,123.4744,145.5611,123.4744,148.5,132.5195" style="stroke:#000000;stroke-width:1.0;"/><text fill="#000000" font-family="sans-serif" font-size="13" lengthAdjust="spacing" textLength="32" x="157.5" y="132.02">have</text><text fill="#000000" font-family="sans-serif" font-size="13" lengthAdjust="spacing" textLength="8" x="134.675" y="109.0144">1</text><text fill="#000000" font-family="sans-serif" font-size="13" lengthAdjust="spacing" textLength="7" x="136.1391" y="154.9008">*</text><!--MD5=[9a8dc34b38f85b9f3fcdb440f4bffc6a]
link Client to User--><path codeLine="22" d="M143.5,304.2851 C143.5,331.5381 143.5,361.0721 143.5,380.8581 " fill="none" id="Client-User" style="stroke:#A80036;stroke-width:1.0;"/><polygon fill="#000000" points="148.5,347.5195,151.4389,338.4744,145.5611,338.4744,148.5,347.5195" style="stroke:#000000;stroke-width:1.0;"/><text fill="#000000" font-family="sans-serif" font-size="13" lengthAdjust="spacing" textLength="22" x="157.5" y="347.02">is a</text><text fill="#000000" font-family="sans-serif" font-size="13" lengthAdjust="spacing" textLength="8" x="135.1188" y="323.6989">1</text><text fill="#000000" font-family="sans-serif" font-size="13" lengthAdjust="spacing" textLength="8" x="134.475" y="369.8458">1</text><!--MD5=[dbc364445409b51c9b407d19a07b4adf]
link User to Email--><path codeLine="23" d="M143.5,429.1051 C143.5,450.4941 143.5,482.385 143.5,505.6645 " fill="none" id="User-Email" style="stroke:#A80036;stroke-width:1.0;"/><polygon fill="#000000" points="148.5,472.5195,151.4389,463.4744,145.5611,463.4744,148.5,472.5195" style="stroke:#000000;stroke-width:1.0;"/><text fill="#000000" font-family="sans-serif" font-size="13" lengthAdjust="spacing" textLength="23" x="157.5" y="472.02">has</text><text fill="#000000" font-family="sans-serif" font-size="13" lengthAdjust="spacing" textLength="8" x="134.525" y="448.9034">1</text><text fill="#000000" font-family="sans-serif" font-size="13" lengthAdjust="spacing" textLength="8" x="134.675" y="494.8682">1</text><!--MD5=[ac1765ebb3a6f450087d5408c4c11509]
@startuml
title Relationships - Class Diagram

class Client {
    String citizenCardNumber;
    String numberNHS;
    String numberTIN;
    String birthDate;
    string sex;
    String phoneNumber;
    string name;
}

class Company {
    String designation;
}

class Email {
  String email;
}

Company "1" - - "*" Client: have >
Client "1" - - "1" User: is a >
User "1" - - "1" Email: has >
@enduml

PlantUML version 1.2021.7(Sun May 23 12:40:07 UTC 2021)
(GPL source distribution)
Java Runtime: Java(TM) SE Runtime Environment
JVM: Java HotSpot(TM) 64-Bit Server VM
Default Encoding: UTF-8
Language: en
Country: US
--></g></svg>