<?xml version="1.0" encoding="UTF-8" standalone="no"?><svg xmlns="http://www.w3.org/2000/svg" xmlns:xlink="http://www.w3.org/1999/xlink" contentScriptType="application/ecmascript" contentStyleType="text/css" height="1573px" preserveAspectRatio="none" style="width:1646px;height:1573px;background:#FFFFFF;" version="1.1" viewBox="0 0 1646 1573" width="1646px" zoomAndPan="magnify"><defs><filter height="300%" id="ffn76g3k7u6nt" width="300%" x="-1" y="-1"><feGaussianBlur result="blurOut" stdDeviation="2.0"/><feColorMatrix in="blurOut" result="blurOut2" type="matrix" values="0 0 0 0 0 0 0 0 0 0 0 0 0 0 0 0 0 0 .4 0"/><feOffset dx="4.0" dy="4.0" in="blurOut2" result="blurOut3"/><feBlend in="SourceGraphic" in2="blurOut3" mode="normal"/></filter></defs><g><text fill="#000000" font-family="sans-serif" font-size="18" lengthAdjust="spacing" textLength="190" x="721.545" y="16.708">UC5 - Class Diagram</text><!--MD5=[05ffea613565d111e9c4a041147710d4]
class RecordSampleUI--><rect codeLine="3" fill="#FEFECE" filter="url(#ffn76g3k7u6nt)" height="48" id="RecordSampleUI" style="stroke:#A80036;stroke-width:1.5;" width="132" x="1355.5" y="27.9531"/><ellipse cx="1370.5" cy="43.9531" fill="#ADD1B2" rx="11" ry="11" style="stroke:#A80036;stroke-width:1.0;"/><path d="M1372.8438,39.625 C1371.9063,39.1875 1371.3125,39.0469 1370.4375,39.0469 C1367.8125,39.0469 1365.8125,41.125 1365.8125,43.8438 L1365.8125,44.9688 C1365.8125,47.5469 1367.9219,49.4375 1370.8125,49.4375 C1372.0313,49.4375 1373.1875,49.1406 1373.9375,48.5938 C1374.5156,48.1875 1374.8438,47.7344 1374.8438,47.3438 C1374.8438,46.8906 1374.4531,46.5 1373.9844,46.5 C1373.7656,46.5 1373.5625,46.5781 1373.375,46.7656 C1372.9219,47.25 1372.9219,47.25 1372.7344,47.3438 C1372.3125,47.6094 1371.625,47.7344 1370.8594,47.7344 C1368.8125,47.7344 1367.5156,46.6406 1367.5156,44.9375 L1367.5156,43.8438 C1367.5156,42.0625 1368.7656,40.75 1370.5,40.75 C1371.0781,40.75 1371.6875,40.9063 1372.1563,41.1563 C1372.6406,41.4375 1372.8125,41.6563 1372.9063,42.0625 C1372.9688,42.4688 1373,42.5938 1373.1406,42.7188 C1373.2813,42.8594 1373.5156,42.9688 1373.7344,42.9688 C1374,42.9688 1374.2656,42.8281 1374.4375,42.6094 C1374.5469,42.4531 1374.5781,42.2656 1374.5781,41.8438 L1374.5781,40.4219 C1374.5781,39.9844 1374.5625,39.8594 1374.4688,39.7031 C1374.3125,39.4375 1374.0313,39.2969 1373.7344,39.2969 C1373.4375,39.2969 1373.2344,39.3906 1373.0156,39.7031 L1372.8438,39.625 Z " fill="#000000"/><text fill="#000000" font-family="sans-serif" font-size="12" lengthAdjust="spacing" textLength="100" x="1384.5" y="48.1074">RecordSampleUI</text><line style="stroke:#A80036;stroke-width:1.5;" x1="1356.5" x2="1486.5" y1="59.9531" y2="59.9531"/><line style="stroke:#A80036;stroke-width:1.5;" x1="1356.5" x2="1486.5" y1="67.9531" y2="67.9531"/><!--MD5=[ecb4b8913618184ce1e3f8e48e5e993f]
class RecordSampleController--><rect codeLine="5" fill="#FEFECE" filter="url(#ffn76g3k7u6nt)" height="112.0234" id="RecordSampleController" style="stroke:#A80036;stroke-width:1.5;" width="179" x="872" y="136.9531"/><ellipse cx="887" cy="152.9531" fill="#ADD1B2" rx="11" ry="11" style="stroke:#A80036;stroke-width:1.0;"/><path d="M889.3438,148.625 C888.4063,148.1875 887.8125,148.0469 886.9375,148.0469 C884.3125,148.0469 882.3125,150.125 882.3125,152.8438 L882.3125,153.9688 C882.3125,156.5469 884.4219,158.4375 887.3125,158.4375 C888.5313,158.4375 889.6875,158.1406 890.4375,157.5938 C891.0156,157.1875 891.3438,156.7344 891.3438,156.3438 C891.3438,155.8906 890.9531,155.5 890.4844,155.5 C890.2656,155.5 890.0625,155.5781 889.875,155.7656 C889.4219,156.25 889.4219,156.25 889.2344,156.3438 C888.8125,156.6094 888.125,156.7344 887.3594,156.7344 C885.3125,156.7344 884.0156,155.6406 884.0156,153.9375 L884.0156,152.8438 C884.0156,151.0625 885.2656,149.75 887,149.75 C887.5781,149.75 888.1875,149.9063 888.6563,150.1563 C889.1406,150.4375 889.3125,150.6563 889.4063,151.0625 C889.4688,151.4688 889.5,151.5938 889.6406,151.7188 C889.7813,151.8594 890.0156,151.9688 890.2344,151.9688 C890.5,151.9688 890.7656,151.8281 890.9375,151.6094 C891.0469,151.4531 891.0781,151.2656 891.0781,150.8438 L891.0781,149.4219 C891.0781,148.9844 891.0625,148.8594 890.9688,148.7031 C890.8125,148.4375 890.5313,148.2969 890.2344,148.2969 C889.9375,148.2969 889.7344,148.3906 889.5156,148.7031 L889.3438,148.625 Z " fill="#000000"/><text fill="#000000" font-family="sans-serif" font-size="12" lengthAdjust="spacing" textLength="147" x="901" y="157.1074">RecordSampleController</text><line style="stroke:#A80036;stroke-width:1.5;" x1="873" x2="1050" y1="168.9531" y2="168.9531"/><line style="stroke:#A80036;stroke-width:1.5;" x1="873" x2="1050" y1="176.9531" y2="176.9531"/><ellipse cx="883" cy="187.9531" fill="#84BE84" rx="3" ry="3" style="stroke:#038048;stroke-width:1.0;"/><text fill="#000000" font-family="sans-serif" font-size="11" lengthAdjust="spacing" textLength="80" x="892" y="191.1636">validateUser()</text><ellipse cx="883" cy="200.7578" fill="#84BE84" rx="3" ry="3" style="stroke:#038048;stroke-width:1.0;"/><text fill="#000000" font-family="sans-serif" font-size="11" lengthAdjust="spacing" textLength="58" x="892" y="203.9683">getTests()</text><ellipse cx="883" cy="213.5625" fill="#84BE84" rx="3" ry="3" style="stroke:#038048;stroke-width:1.0;"/><text fill="#000000" font-family="sans-serif" font-size="11" lengthAdjust="spacing" textLength="92" x="892" y="216.7729">getTest(testdto)</text><ellipse cx="883" cy="226.3672" fill="#84BE84" rx="3" ry="3" style="stroke:#038048;stroke-width:1.0;"/><text fill="#000000" font-family="sans-serif" font-size="11" lengthAdjust="spacing" textLength="108" x="892" y="229.5776">generateBarcode()</text><ellipse cx="883" cy="239.1719" fill="#84BE84" rx="3" ry="3" style="stroke:#038048;stroke-width:1.0;"/><text fill="#000000" font-family="sans-serif" font-size="11" lengthAdjust="spacing" textLength="97" x="892" y="242.3823">setSampleData()</text><!--MD5=[335f4d9be48430461c68bf6d6fdba145]
class App--><rect codeLine="13" fill="#FEFECE" filter="url(#ffn76g3k7u6nt)" height="73.6094" id="App" style="stroke:#A80036;stroke-width:1.5;" width="166" x="1052.5" y="309.9531"/><ellipse cx="1119.25" cy="325.9531" fill="#ADD1B2" rx="11" ry="11" style="stroke:#A80036;stroke-width:1.0;"/><path d="M1121.5938,321.625 C1120.6563,321.1875 1120.0625,321.0469 1119.1875,321.0469 C1116.5625,321.0469 1114.5625,323.125 1114.5625,325.8438 L1114.5625,326.9688 C1114.5625,329.5469 1116.6719,331.4375 1119.5625,331.4375 C1120.7813,331.4375 1121.9375,331.1406 1122.6875,330.5938 C1123.2656,330.1875 1123.5938,329.7344 1123.5938,329.3438 C1123.5938,328.8906 1123.2031,328.5 1122.7344,328.5 C1122.5156,328.5 1122.3125,328.5781 1122.125,328.7656 C1121.6719,329.25 1121.6719,329.25 1121.4844,329.3438 C1121.0625,329.6094 1120.375,329.7344 1119.6094,329.7344 C1117.5625,329.7344 1116.2656,328.6406 1116.2656,326.9375 L1116.2656,325.8438 C1116.2656,324.0625 1117.5156,322.75 1119.25,322.75 C1119.8281,322.75 1120.4375,322.9063 1120.9063,323.1563 C1121.3906,323.4375 1121.5625,323.6563 1121.6563,324.0625 C1121.7188,324.4688 1121.75,324.5938 1121.8906,324.7188 C1122.0313,324.8594 1122.2656,324.9688 1122.4844,324.9688 C1122.75,324.9688 1123.0156,324.8281 1123.1875,324.6094 C1123.2969,324.4531 1123.3281,324.2656 1123.3281,323.8438 L1123.3281,322.4219 C1123.3281,321.9844 1123.3125,321.8594 1123.2188,321.7031 C1123.0625,321.4375 1122.7813,321.2969 1122.4844,321.2969 C1122.1875,321.2969 1121.9844,321.3906 1121.7656,321.7031 L1121.5938,321.625 Z " fill="#000000"/><text fill="#000000" font-family="sans-serif" font-size="12" lengthAdjust="spacing" textLength="24" x="1139.75" y="330.1074">App</text><line style="stroke:#A80036;stroke-width:1.5;" x1="1053.5" x2="1217.5" y1="341.9531" y2="341.9531"/><line style="stroke:#A80036;stroke-width:1.5;" x1="1053.5" x2="1217.5" y1="349.9531" y2="349.9531"/><ellipse cx="1063.5" cy="360.9531" fill="#84BE84" rx="3" ry="3" style="stroke:#038048;stroke-width:1.0;"/><text fill="#000000" font-family="sans-serif" font-size="11" lengthAdjust="spacing" textLength="81" x="1072.5" y="364.1636">getCompany()</text><ellipse cx="1063.5" cy="373.7578" fill="#84BE84" rx="3" ry="3" style="stroke:#038048;stroke-width:1.0;"/><text fill="#000000" font-family="sans-serif" font-size="11" lengthAdjust="spacing" textLength="140" x="1072.5" y="376.9683">getCurrentUserSession()</text><!--MD5=[c5b08e60048ef1bcd788d24cf324082e]
class UserSession--><rect codeLine="18" fill="#FEFECE" filter="url(#ffn76g3k7u6nt)" height="60.8047" id="UserSession" style="stroke:#A80036;stroke-width:1.5;" width="293" x="1254" y="316.4531"/><ellipse cx="1357.75" cy="332.4531" fill="#ADD1B2" rx="11" ry="11" style="stroke:#A80036;stroke-width:1.0;"/><path d="M1360.0938,328.125 C1359.1563,327.6875 1358.5625,327.5469 1357.6875,327.5469 C1355.0625,327.5469 1353.0625,329.625 1353.0625,332.3438 L1353.0625,333.4688 C1353.0625,336.0469 1355.1719,337.9375 1358.0625,337.9375 C1359.2813,337.9375 1360.4375,337.6406 1361.1875,337.0938 C1361.7656,336.6875 1362.0938,336.2344 1362.0938,335.8438 C1362.0938,335.3906 1361.7031,335 1361.2344,335 C1361.0156,335 1360.8125,335.0781 1360.625,335.2656 C1360.1719,335.75 1360.1719,335.75 1359.9844,335.8438 C1359.5625,336.1094 1358.875,336.2344 1358.1094,336.2344 C1356.0625,336.2344 1354.7656,335.1406 1354.7656,333.4375 L1354.7656,332.3438 C1354.7656,330.5625 1356.0156,329.25 1357.75,329.25 C1358.3281,329.25 1358.9375,329.4063 1359.4063,329.6563 C1359.8906,329.9375 1360.0625,330.1563 1360.1563,330.5625 C1360.2188,330.9688 1360.25,331.0938 1360.3906,331.2188 C1360.5313,331.3594 1360.7656,331.4688 1360.9844,331.4688 C1361.25,331.4688 1361.5156,331.3281 1361.6875,331.1094 C1361.7969,330.9531 1361.8281,330.7656 1361.8281,330.3438 L1361.8281,328.9219 C1361.8281,328.4844 1361.8125,328.3594 1361.7188,328.2031 C1361.5625,327.9375 1361.2813,327.7969 1360.9844,327.7969 C1360.6875,327.7969 1360.4844,327.8906 1360.2656,328.2031 L1360.0938,328.125 Z " fill="#000000"/><text fill="#000000" font-family="sans-serif" font-size="12" lengthAdjust="spacing" textLength="77" x="1378.25" y="336.6074">UserSession</text><line style="stroke:#A80036;stroke-width:1.5;" x1="1255" x2="1546" y1="348.4531" y2="348.4531"/><line style="stroke:#A80036;stroke-width:1.5;" x1="1255" x2="1546" y1="356.4531" y2="356.4531"/><ellipse cx="1265" cy="367.4531" fill="#84BE84" rx="3" ry="3" style="stroke:#038048;stroke-width:1.0;"/><text fill="#000000" font-family="sans-serif" font-size="11" lengthAdjust="spacing" textLength="267" x="1274" y="370.6636">isLoggedInWithRole(MEDICAL LAB TECHNICIAN)</text><!--MD5=[7421f545a0d8420c5bec41e74b387d9c]
class Employee--><rect codeLine="22" fill="#FEFECE" filter="url(#ffn76g3k7u6nt)" height="112.0234" id="Employee" style="stroke:#A80036;stroke-width:1.5;" width="133" x="7" y="479.9531"/><ellipse cx="40.45" cy="495.9531" fill="#ADD1B2" rx="11" ry="11" style="stroke:#A80036;stroke-width:1.0;"/><path d="M42.7938,491.625 C41.8563,491.1875 41.2625,491.0469 40.3875,491.0469 C37.7625,491.0469 35.7625,493.125 35.7625,495.8438 L35.7625,496.9688 C35.7625,499.5469 37.8719,501.4375 40.7625,501.4375 C41.9813,501.4375 43.1375,501.1406 43.8875,500.5938 C44.4656,500.1875 44.7938,499.7344 44.7938,499.3438 C44.7938,498.8906 44.4031,498.5 43.9344,498.5 C43.7156,498.5 43.5125,498.5781 43.325,498.7656 C42.8719,499.25 42.8719,499.25 42.6844,499.3438 C42.2625,499.6094 41.575,499.7344 40.8094,499.7344 C38.7625,499.7344 37.4656,498.6406 37.4656,496.9375 L37.4656,495.8438 C37.4656,494.0625 38.7156,492.75 40.45,492.75 C41.0281,492.75 41.6375,492.9063 42.1063,493.1563 C42.5906,493.4375 42.7625,493.6563 42.8563,494.0625 C42.9188,494.4688 42.95,494.5938 43.0906,494.7188 C43.2313,494.8594 43.4656,494.9688 43.6844,494.9688 C43.95,494.9688 44.2156,494.8281 44.3875,494.6094 C44.4969,494.4531 44.5281,494.2656 44.5281,493.8438 L44.5281,492.4219 C44.5281,491.9844 44.5125,491.8594 44.4188,491.7031 C44.2625,491.4375 43.9813,491.2969 43.6844,491.2969 C43.3875,491.2969 43.1844,491.3906 42.9656,491.7031 L42.7938,491.625 Z " fill="#000000"/><text fill="#000000" font-family="sans-serif" font-size="12" lengthAdjust="spacing" textLength="60" x="58.55" y="500.1074">Employee</text><line style="stroke:#A80036;stroke-width:1.5;" x1="8" x2="139" y1="511.9531" y2="511.9531"/><text fill="#000000" font-family="sans-serif" font-size="11" lengthAdjust="spacing" textLength="111" x="13" y="526.1636">String employeeID;</text><text fill="#000000" font-family="sans-serif" font-size="11" lengthAdjust="spacing" textLength="73" x="13" y="538.9683">String name;</text><text fill="#000000" font-family="sans-serif" font-size="11" lengthAdjust="spacing" textLength="85" x="13" y="551.7729">String address;</text><text fill="#000000" font-family="sans-serif" font-size="11" lengthAdjust="spacing" textLength="121" x="13" y="564.5776">String phoneNumber;</text><text fill="#000000" font-family="sans-serif" font-size="11" lengthAdjust="spacing" textLength="93" x="13" y="577.3823">String codeSOC;</text><line style="stroke:#A80036;stroke-width:1.5;" x1="8" x2="139" y1="583.9766" y2="583.9766"/><!--MD5=[02e4b9b7573f1156f41e60aa5b4e25a4]
class Company--><rect codeLine="30" fill="#FEFECE" filter="url(#ffn76g3k7u6nt)" height="73.6094" id="Company" style="stroke:#A80036;stroke-width:1.5;" width="116" x="331.5" y="309.9531"/><ellipse cx="359.1" cy="325.9531" fill="#ADD1B2" rx="11" ry="11" style="stroke:#A80036;stroke-width:1.0;"/><path d="M361.4438,321.625 C360.5063,321.1875 359.9125,321.0469 359.0375,321.0469 C356.4125,321.0469 354.4125,323.125 354.4125,325.8438 L354.4125,326.9688 C354.4125,329.5469 356.5219,331.4375 359.4125,331.4375 C360.6313,331.4375 361.7875,331.1406 362.5375,330.5938 C363.1156,330.1875 363.4438,329.7344 363.4438,329.3438 C363.4438,328.8906 363.0531,328.5 362.5844,328.5 C362.3656,328.5 362.1625,328.5781 361.975,328.7656 C361.5219,329.25 361.5219,329.25 361.3344,329.3438 C360.9125,329.6094 360.225,329.7344 359.4594,329.7344 C357.4125,329.7344 356.1156,328.6406 356.1156,326.9375 L356.1156,325.8438 C356.1156,324.0625 357.3656,322.75 359.1,322.75 C359.6781,322.75 360.2875,322.9063 360.7563,323.1563 C361.2406,323.4375 361.4125,323.6563 361.5063,324.0625 C361.5688,324.4688 361.6,324.5938 361.7406,324.7188 C361.8813,324.8594 362.1156,324.9688 362.3344,324.9688 C362.6,324.9688 362.8656,324.8281 363.0375,324.6094 C363.1469,324.4531 363.1781,324.2656 363.1781,323.8438 L363.1781,322.4219 C363.1781,321.9844 363.1625,321.8594 363.0688,321.7031 C362.9125,321.4375 362.6313,321.2969 362.3344,321.2969 C362.0375,321.2969 361.8344,321.3906 361.6156,321.7031 L361.4438,321.625 Z " fill="#000000"/><text fill="#000000" font-family="sans-serif" font-size="12" lengthAdjust="spacing" textLength="56" x="375.9" y="330.1074">Company</text><line style="stroke:#A80036;stroke-width:1.5;" x1="332.5" x2="446.5" y1="341.9531" y2="341.9531"/><text fill="#000000" font-family="sans-serif" font-size="11" lengthAdjust="spacing" textLength="104" x="337.5" y="356.1636">string designation;</text><line style="stroke:#A80036;stroke-width:1.5;" x1="332.5" x2="446.5" y1="362.7578" y2="362.7578"/><ellipse cx="342.5" cy="373.7578" fill="#84BE84" rx="3" ry="3" style="stroke:#038048;stroke-width:1.0;"/><text fill="#000000" font-family="sans-serif" font-size="11" lengthAdjust="spacing" textLength="83" x="351.5" y="376.9683">getTestStore()</text><!--MD5=[0f6f7964b844a64b0496af0dda7914bd]
class TestStore--><rect codeLine="35" fill="#FEFECE" filter="url(#ffn76g3k7u6nt)" height="73.6094" id="TestStore" style="stroke:#A80036;stroke-width:1.5;" width="151" x="450" y="498.9531"/><ellipse cx="492" cy="514.9531" fill="#ADD1B2" rx="11" ry="11" style="stroke:#A80036;stroke-width:1.0;"/><path d="M494.3438,510.625 C493.4063,510.1875 492.8125,510.0469 491.9375,510.0469 C489.3125,510.0469 487.3125,512.125 487.3125,514.8438 L487.3125,515.9688 C487.3125,518.5469 489.4219,520.4375 492.3125,520.4375 C493.5313,520.4375 494.6875,520.1406 495.4375,519.5938 C496.0156,519.1875 496.3438,518.7344 496.3438,518.3438 C496.3438,517.8906 495.9531,517.5 495.4844,517.5 C495.2656,517.5 495.0625,517.5781 494.875,517.7656 C494.4219,518.25 494.4219,518.25 494.2344,518.3438 C493.8125,518.6094 493.125,518.7344 492.3594,518.7344 C490.3125,518.7344 489.0156,517.6406 489.0156,515.9375 L489.0156,514.8438 C489.0156,513.0625 490.2656,511.75 492,511.75 C492.5781,511.75 493.1875,511.9063 493.6563,512.1563 C494.1406,512.4375 494.3125,512.6563 494.4063,513.0625 C494.4688,513.4688 494.5,513.5938 494.6406,513.7188 C494.7813,513.8594 495.0156,513.9688 495.2344,513.9688 C495.5,513.9688 495.7656,513.8281 495.9375,513.6094 C496.0469,513.4531 496.0781,513.2656 496.0781,512.8438 L496.0781,511.4219 C496.0781,510.9844 496.0625,510.8594 495.9688,510.7031 C495.8125,510.4375 495.5313,510.2969 495.2344,510.2969 C494.9375,510.2969 494.7344,510.3906 494.5156,510.7031 L494.3438,510.625 Z " fill="#000000"/><text fill="#000000" font-family="sans-serif" font-size="12" lengthAdjust="spacing" textLength="59" x="512" y="519.1074">TestStore</text><line style="stroke:#A80036;stroke-width:1.5;" x1="451" x2="600" y1="530.9531" y2="530.9531"/><line style="stroke:#A80036;stroke-width:1.5;" x1="451" x2="600" y1="538.9531" y2="538.9531"/><ellipse cx="461" cy="549.9531" fill="#84BE84" rx="3" ry="3" style="stroke:#038048;stroke-width:1.0;"/><text fill="#000000" font-family="sans-serif" font-size="11" lengthAdjust="spacing" textLength="125" x="470" y="553.1636">getTestByCode(code)</text><ellipse cx="461" cy="562.7578" fill="#84BE84" rx="3" ry="3" style="stroke:#038048;stroke-width:1.0;"/><text fill="#000000" font-family="sans-serif" font-size="11" lengthAdjust="spacing" textLength="58" x="470" y="565.9683">getTests()</text><!--MD5=[ef95b384ce27454f94ed9cb02a480d91]
class TestsMapper--><rect codeLine="40" fill="#FEFECE" filter="url(#ffn76g3k7u6nt)" height="60.8047" id="TestsMapper" style="stroke:#A80036;stroke-width:1.5;" width="111" x="835" y="316.4531"/><ellipse cx="850" cy="332.4531" fill="#ADD1B2" rx="11" ry="11" style="stroke:#A80036;stroke-width:1.0;"/><path d="M852.3438,328.125 C851.4063,327.6875 850.8125,327.5469 849.9375,327.5469 C847.3125,327.5469 845.3125,329.625 845.3125,332.3438 L845.3125,333.4688 C845.3125,336.0469 847.4219,337.9375 850.3125,337.9375 C851.5313,337.9375 852.6875,337.6406 853.4375,337.0938 C854.0156,336.6875 854.3438,336.2344 854.3438,335.8438 C854.3438,335.3906 853.9531,335 853.4844,335 C853.2656,335 853.0625,335.0781 852.875,335.2656 C852.4219,335.75 852.4219,335.75 852.2344,335.8438 C851.8125,336.1094 851.125,336.2344 850.3594,336.2344 C848.3125,336.2344 847.0156,335.1406 847.0156,333.4375 L847.0156,332.3438 C847.0156,330.5625 848.2656,329.25 850,329.25 C850.5781,329.25 851.1875,329.4063 851.6563,329.6563 C852.1406,329.9375 852.3125,330.1563 852.4063,330.5625 C852.4688,330.9688 852.5,331.0938 852.6406,331.2188 C852.7813,331.3594 853.0156,331.4688 853.2344,331.4688 C853.5,331.4688 853.7656,331.3281 853.9375,331.1094 C854.0469,330.9531 854.0781,330.7656 854.0781,330.3438 L854.0781,328.9219 C854.0781,328.4844 854.0625,328.3594 853.9688,328.2031 C853.8125,327.9375 853.5313,327.7969 853.2344,327.7969 C852.9375,327.7969 852.7344,327.8906 852.5156,328.2031 L852.3438,328.125 Z " fill="#000000"/><text fill="#000000" font-family="sans-serif" font-size="12" lengthAdjust="spacing" textLength="79" x="864" y="336.6074">TestsMapper</text><line style="stroke:#A80036;stroke-width:1.5;" x1="836" x2="945" y1="348.4531" y2="348.4531"/><line style="stroke:#A80036;stroke-width:1.5;" x1="836" x2="945" y1="356.4531" y2="356.4531"/><ellipse cx="846" cy="367.4531" fill="#84BE84" rx="3" ry="3" style="stroke:#038048;stroke-width:1.0;"/><text fill="#000000" font-family="sans-serif" font-size="11" lengthAdjust="spacing" textLength="72" x="855" y="370.6636">toDTO(tests)</text><!--MD5=[1c12089db2c736560768c81d4e725a2c]
class ParametersMapper--><rect codeLine="44" fill="#FEFECE" filter="url(#ffn76g3k7u6nt)" height="60.8047" id="ParametersMapper" style="stroke:#A80036;stroke-width:1.5;" width="146" x="778.5" y="505.4531"/><ellipse cx="793.5" cy="521.4531" fill="#ADD1B2" rx="11" ry="11" style="stroke:#A80036;stroke-width:1.0;"/><path d="M795.8438,517.125 C794.9063,516.6875 794.3125,516.5469 793.4375,516.5469 C790.8125,516.5469 788.8125,518.625 788.8125,521.3438 L788.8125,522.4688 C788.8125,525.0469 790.9219,526.9375 793.8125,526.9375 C795.0313,526.9375 796.1875,526.6406 796.9375,526.0938 C797.5156,525.6875 797.8438,525.2344 797.8438,524.8438 C797.8438,524.3906 797.4531,524 796.9844,524 C796.7656,524 796.5625,524.0781 796.375,524.2656 C795.9219,524.75 795.9219,524.75 795.7344,524.8438 C795.3125,525.1094 794.625,525.2344 793.8594,525.2344 C791.8125,525.2344 790.5156,524.1406 790.5156,522.4375 L790.5156,521.3438 C790.5156,519.5625 791.7656,518.25 793.5,518.25 C794.0781,518.25 794.6875,518.4063 795.1563,518.6563 C795.6406,518.9375 795.8125,519.1563 795.9063,519.5625 C795.9688,519.9688 796,520.0938 796.1406,520.2188 C796.2813,520.3594 796.5156,520.4688 796.7344,520.4688 C797,520.4688 797.2656,520.3281 797.4375,520.1094 C797.5469,519.9531 797.5781,519.7656 797.5781,519.3438 L797.5781,517.9219 C797.5781,517.4844 797.5625,517.3594 797.4688,517.2031 C797.3125,516.9375 797.0313,516.7969 796.7344,516.7969 C796.4375,516.7969 796.2344,516.8906 796.0156,517.2031 L795.8438,517.125 Z " fill="#000000"/><text fill="#000000" font-family="sans-serif" font-size="12" lengthAdjust="spacing" textLength="114" x="807.5" y="525.6074">ParametersMapper</text><line style="stroke:#A80036;stroke-width:1.5;" x1="779.5" x2="923.5" y1="537.4531" y2="537.4531"/><line style="stroke:#A80036;stroke-width:1.5;" x1="779.5" x2="923.5" y1="545.4531" y2="545.4531"/><ellipse cx="789.5" cy="556.4531" fill="#84BE84" rx="3" ry="3" style="stroke:#038048;stroke-width:1.0;"/><text fill="#000000" font-family="sans-serif" font-size="11" lengthAdjust="spacing" textLength="110" x="798.5" y="559.6636">toDTO(parameters)</text><!--MD5=[9fb704ffefcaf68bf1a361787afa998b]
class TestDTO--><rect codeLine="56" fill="#FEFECE" filter="url(#ffn76g3k7u6nt)" height="137.6328" id="TestDTO" style="stroke:#A80036;stroke-width:1.5;" width="156" x="1030.5" y="466.9531"/><ellipse cx="1078.25" cy="482.9531" fill="#ADD1B2" rx="11" ry="11" style="stroke:#A80036;stroke-width:1.0;"/><path d="M1080.5938,478.625 C1079.6563,478.1875 1079.0625,478.0469 1078.1875,478.0469 C1075.5625,478.0469 1073.5625,480.125 1073.5625,482.8438 L1073.5625,483.9688 C1073.5625,486.5469 1075.6719,488.4375 1078.5625,488.4375 C1079.7813,488.4375 1080.9375,488.1406 1081.6875,487.5938 C1082.2656,487.1875 1082.5938,486.7344 1082.5938,486.3438 C1082.5938,485.8906 1082.2031,485.5 1081.7344,485.5 C1081.5156,485.5 1081.3125,485.5781 1081.125,485.7656 C1080.6719,486.25 1080.6719,486.25 1080.4844,486.3438 C1080.0625,486.6094 1079.375,486.7344 1078.6094,486.7344 C1076.5625,486.7344 1075.2656,485.6406 1075.2656,483.9375 L1075.2656,482.8438 C1075.2656,481.0625 1076.5156,479.75 1078.25,479.75 C1078.8281,479.75 1079.4375,479.9063 1079.9063,480.1563 C1080.3906,480.4375 1080.5625,480.6563 1080.6563,481.0625 C1080.7188,481.4688 1080.75,481.5938 1080.8906,481.7188 C1081.0313,481.8594 1081.2656,481.9688 1081.4844,481.9688 C1081.75,481.9688 1082.0156,481.8281 1082.1875,481.6094 C1082.2969,481.4531 1082.3281,481.2656 1082.3281,480.8438 L1082.3281,479.4219 C1082.3281,478.9844 1082.3125,478.8594 1082.2188,478.7031 C1082.0625,478.4375 1081.7813,478.2969 1081.4844,478.2969 C1081.1875,478.2969 1080.9844,478.3906 1080.7656,478.7031 L1080.5938,478.625 Z " fill="#000000"/><text fill="#000000" font-family="sans-serif" font-size="12" lengthAdjust="spacing" textLength="52" x="1098.75" y="487.1074">TestDTO</text><line style="stroke:#A80036;stroke-width:1.5;" x1="1031.5" x2="1185.5" y1="498.9531" y2="498.9531"/><ellipse cx="1041.5" cy="509.9531" rx="3" ry="3" style="stroke:#038048;stroke-width:1.0;fill:none;"/><text fill="#000000" font-family="sans-serif" font-size="11" lengthAdjust="spacing" textLength="92" x="1050.5" y="513.1636">String testCode;</text><ellipse cx="1041.5" cy="522.7578" rx="3" ry="3" style="stroke:#038048;stroke-width:1.0;fill:none;"/><text fill="#000000" font-family="sans-serif" font-size="11" lengthAdjust="spacing" textLength="112" x="1050.5" y="525.9683">String testnhsCode;</text><ellipse cx="1041.5" cy="535.5625" rx="3" ry="3" style="stroke:#038048;stroke-width:1.0;fill:none;"/><text fill="#000000" font-family="sans-serif" font-size="11" lengthAdjust="spacing" textLength="126" x="1050.5" y="538.7729">String testDescription;</text><ellipse cx="1041.5" cy="548.3672" rx="3" ry="3" style="stroke:#038048;stroke-width:1.0;fill:none;"/><text fill="#000000" font-family="sans-serif" font-size="11" lengthAdjust="spacing" textLength="106" x="1050.5" y="551.5776">String nameClient;</text><ellipse cx="1041.5" cy="561.1719" rx="3" ry="3" style="stroke:#038048;stroke-width:1.0;fill:none;"/><text fill="#000000" font-family="sans-serif" font-size="11" lengthAdjust="spacing" textLength="96" x="1050.5" y="564.3823">String typeCode;</text><ellipse cx="1041.5" cy="573.9766" rx="3" ry="3" style="stroke:#038048;stroke-width:1.0;fill:none;"/><text fill="#000000" font-family="sans-serif" font-size="11" lengthAdjust="spacing" textLength="130" x="1050.5" y="577.187">String typeDescription;</text><line style="stroke:#A80036;stroke-width:1.5;" x1="1031.5" x2="1185.5" y1="583.7813" y2="583.7813"/><ellipse cx="1041.5" cy="594.7813" fill="#84BE84" rx="3" ry="3" style="stroke:#038048;stroke-width:1.0;"/><text fill="#000000" font-family="sans-serif" font-size="11" lengthAdjust="spacing" textLength="57" x="1050.5" y="597.9917">getCode()</text><!--MD5=[5d1067525748def49708bb23e378646e]
class ExternalModuleBarcode--><rect codeLine="61" fill="#FEFECE" filter="url(#ffn76g3k7u6nt)" height="66.7422" id="ExternalModuleBarcode" style="stroke:#A80036;stroke-width:1.5;" width="174" x="320.5" y="1475.9531"/><ellipse cx="335.5" cy="1494.9219" fill="#B4A7E5" rx="11" ry="11" style="stroke:#A80036;stroke-width:1.0;"/><path d="M336.4531,1491.7031 L338.1719,1491.7031 C338.5625,1491.7031 338.75,1491.6719 338.875,1491.5938 C339.1406,1491.4375 339.2813,1491.1563 339.2813,1490.8594 C339.2813,1490.5938 339.1719,1490.3281 338.9375,1490.1563 C338.7656,1490.0469 338.625,1490.0156 338.1719,1490.0156 L333.0313,1490.0156 C332.5938,1490.0156 332.4688,1490.0313 332.3125,1490.125 C332.0625,1490.2813 331.9063,1490.5781 331.9063,1490.8594 C331.9063,1491.1406 332.0469,1491.3906 332.2656,1491.5625 C332.4219,1491.6719 332.6094,1491.7031 333.0313,1491.7031 L334.75,1491.7031 L334.75,1498.2188 L333.0313,1498.2188 C332.5938,1498.2188 332.4688,1498.2344 332.3125,1498.3438 C332.0625,1498.5 331.9063,1498.7813 331.9063,1499.0781 C331.9063,1499.3281 332.0469,1499.5938 332.2656,1499.75 C332.4219,1499.875 332.625,1499.9219 333.0313,1499.9219 L338.1719,1499.9219 C338.9219,1499.9219 339.2813,1499.6406 339.2813,1499.0781 C339.2813,1498.7969 339.1719,1498.5469 338.9375,1498.375 C338.7656,1498.25 338.625,1498.2188 338.1719,1498.2188 L336.4531,1498.2188 L336.4531,1491.7031 Z " fill="#000000"/><text fill="#000000" font-family="sans-serif" font-size="12" font-style="italic" lengthAdjust="spacing" textLength="67" x="387" y="1492.0918">«interface»</text><text fill="#000000" font-family="sans-serif" font-size="12" font-style="italic" lengthAdjust="spacing" textLength="142" x="349.5" y="1506.0605">ExternalModuleBarcode</text><line style="stroke:#A80036;stroke-width:1.5;" x1="321.5" x2="493.5" y1="1513.8906" y2="1513.8906"/><line style="stroke:#A80036;stroke-width:1.5;" x1="321.5" x2="493.5" y1="1521.8906" y2="1521.8906"/><ellipse cx="331.5" cy="1532.8906" fill="#84BE84" rx="3" ry="3" style="stroke:#038048;stroke-width:1.0;"/><text fill="#000000" font-family="sans-serif" font-size="11" lengthAdjust="spacing" textLength="145" x="340.5" y="1536.1011">String generateBarcode()</text><!--MD5=[df38be88ccee13e832d6fafd6288a4ca]
class Test--><rect codeLine="65" fill="#FEFECE" filter="url(#ffn76g3k7u6nt)" height="329.7031" id="Test" style="stroke:#A80036;stroke-width:1.5;" width="159" x="477" y="850.9531"/><ellipse cx="539.25" cy="866.9531" fill="#ADD1B2" rx="11" ry="11" style="stroke:#A80036;stroke-width:1.0;"/><path d="M541.5938,862.625 C540.6563,862.1875 540.0625,862.0469 539.1875,862.0469 C536.5625,862.0469 534.5625,864.125 534.5625,866.8438 L534.5625,867.9688 C534.5625,870.5469 536.6719,872.4375 539.5625,872.4375 C540.7813,872.4375 541.9375,872.1406 542.6875,871.5938 C543.2656,871.1875 543.5938,870.7344 543.5938,870.3438 C543.5938,869.8906 543.2031,869.5 542.7344,869.5 C542.5156,869.5 542.3125,869.5781 542.125,869.7656 C541.6719,870.25 541.6719,870.25 541.4844,870.3438 C541.0625,870.6094 540.375,870.7344 539.6094,870.7344 C537.5625,870.7344 536.2656,869.6406 536.2656,867.9375 L536.2656,866.8438 C536.2656,865.0625 537.5156,863.75 539.25,863.75 C539.8281,863.75 540.4375,863.9063 540.9063,864.1563 C541.3906,864.4375 541.5625,864.6563 541.6563,865.0625 C541.7188,865.4688 541.75,865.5938 541.8906,865.7188 C542.0313,865.8594 542.2656,865.9688 542.4844,865.9688 C542.75,865.9688 543.0156,865.8281 543.1875,865.6094 C543.2969,865.4531 543.3281,865.2656 543.3281,864.8438 L543.3281,863.4219 C543.3281,862.9844 543.3125,862.8594 543.2188,862.7031 C543.0625,862.4375 542.7813,862.2969 542.4844,862.2969 C542.1875,862.2969 541.9844,862.3906 541.7656,862.7031 L541.5938,862.625 Z " fill="#000000"/><text fill="#000000" font-family="sans-serif" font-size="12" lengthAdjust="spacing" textLength="26" x="559.75" y="871.1074">Test</text><line style="stroke:#A80036;stroke-width:1.5;" x1="478" x2="635" y1="882.9531" y2="882.9531"/><text fill="#000000" font-family="sans-serif" font-size="11" lengthAdjust="spacing" textLength="68" x="483" y="897.1636">String code;</text><text fill="#000000" font-family="sans-serif" font-size="11" lengthAdjust="spacing" textLength="94" x="483" y="909.9683">String NHSCode;</text><text fill="#000000" font-family="sans-serif" font-size="11" lengthAdjust="spacing" textLength="94" x="483" y="922.7729">String testResult</text><text fill="#000000" font-family="sans-serif" font-size="11" lengthAdjust="spacing" textLength="110" x="483" y="935.5776">String dateSample;</text><text fill="#000000" font-family="sans-serif" font-size="11" lengthAdjust="spacing" textLength="110" x="483" y="948.3823">String timeSmaple;</text><text fill="#000000" font-family="sans-serif" font-size="11" lengthAdjust="spacing" textLength="147" x="483" y="961.187">String dateChemAnalysis;</text><text fill="#000000" font-family="sans-serif" font-size="11" lengthAdjust="spacing" textLength="147" x="483" y="973.9917">String timeChemAnalysis;</text><text fill="#000000" font-family="sans-serif" font-size="11" lengthAdjust="spacing" textLength="121" x="483" y="986.7964">String dateDiagnosis;</text><text fill="#000000" font-family="sans-serif" font-size="11" lengthAdjust="spacing" textLength="121" x="483" y="999.6011">String timeDiagnosis;</text><text fill="#000000" font-family="sans-serif" font-size="11" lengthAdjust="spacing" textLength="119" x="483" y="1012.4058">String dateValidTest;</text><text fill="#000000" font-family="sans-serif" font-size="11" lengthAdjust="spacing" textLength="119" x="483" y="1025.2104">String timeValidTest;</text><line style="stroke:#A80036;stroke-width:1.5;" x1="478" x2="635" y1="1031.8047" y2="1031.8047"/><ellipse cx="488" cy="1042.8047" fill="#84BE84" rx="3" ry="3" style="stroke:#038048;stroke-width:1.0;"/><text fill="#000000" font-family="sans-serif" font-size="11" lengthAdjust="spacing" textLength="89" x="497" y="1046.0151">createSample()</text><ellipse cx="488" cy="1055.6094" fill="#84BE84" rx="3" ry="3" style="stroke:#038048;stroke-width:1.0;"/><text fill="#000000" font-family="sans-serif" font-size="11" lengthAdjust="spacing" textLength="73" x="497" y="1058.8198">addSample()</text><ellipse cx="488" cy="1068.4141" fill="#84BE84" rx="3" ry="3" style="stroke:#038048;stroke-width:1.0;"/><text fill="#000000" font-family="sans-serif" font-size="11" lengthAdjust="spacing" textLength="98" x="497" y="1071.6245">setDateSample()</text><ellipse cx="488" cy="1081.2188" fill="#84BE84" rx="3" ry="3" style="stroke:#038048;stroke-width:1.0;"/><text fill="#000000" font-family="sans-serif" font-size="11" lengthAdjust="spacing" textLength="99" x="497" y="1084.4292">setTimeSample()</text><ellipse cx="488" cy="1094.0234" fill="#84BE84" rx="3" ry="3" style="stroke:#038048;stroke-width:1.0;"/><text fill="#000000" font-family="sans-serif" font-size="11" lengthAdjust="spacing" textLength="81" x="497" y="1097.2339">getTestType()</text><ellipse cx="488" cy="1106.8281" fill="#84BE84" rx="3" ry="3" style="stroke:#038048;stroke-width:1.0;"/><text fill="#000000" font-family="sans-serif" font-size="11" lengthAdjust="spacing" textLength="57" x="497" y="1110.0386">getCode()</text><ellipse cx="488" cy="1119.6328" fill="#84BE84" rx="3" ry="3" style="stroke:#038048;stroke-width:1.0;"/><text fill="#000000" font-family="sans-serif" font-size="11" lengthAdjust="spacing" textLength="81" x="497" y="1122.8433">getNHSCode()</text><ellipse cx="488" cy="1132.4375" fill="#84BE84" rx="3" ry="3" style="stroke:#038048;stroke-width:1.0;"/><text fill="#000000" font-family="sans-serif" font-size="11" lengthAdjust="spacing" textLength="91" x="497" y="1135.6479">getDescription()</text><ellipse cx="488" cy="1145.2422" fill="#84BE84" rx="3" ry="3" style="stroke:#038048;stroke-width:1.0;"/><text fill="#000000" font-family="sans-serif" font-size="11" lengthAdjust="spacing" textLength="81" x="497" y="1148.4526">getTestType()</text><ellipse cx="488" cy="1158.0469" fill="#84BE84" rx="3" ry="3" style="stroke:#038048;stroke-width:1.0;"/><text fill="#000000" font-family="sans-serif" font-size="11" lengthAdjust="spacing" textLength="60" x="497" y="1161.2573">getClient()</text><ellipse cx="488" cy="1170.8516" fill="#84BE84" rx="3" ry="3" style="stroke:#038048;stroke-width:1.0;"/><text fill="#000000" font-family="sans-serif" font-size="11" lengthAdjust="spacing" textLength="97" x="497" y="1174.062">checkTestState()</text><!--MD5=[9681492165142af2a4a3a169d90ee8d4]
class Sample--><rect codeLine="90" fill="#FEFECE" filter="url(#ffn76g3k7u6nt)" height="60.8047" id="Sample" style="stroke:#A80036;stroke-width:1.5;" width="145" x="207" y="1289.9531"/><ellipse cx="252.75" cy="1305.9531" fill="#ADD1B2" rx="11" ry="11" style="stroke:#A80036;stroke-width:1.0;"/><path d="M255.0938,1301.625 C254.1563,1301.1875 253.5625,1301.0469 252.6875,1301.0469 C250.0625,1301.0469 248.0625,1303.125 248.0625,1305.8438 L248.0625,1306.9688 C248.0625,1309.5469 250.1719,1311.4375 253.0625,1311.4375 C254.2813,1311.4375 255.4375,1311.1406 256.1875,1310.5938 C256.7656,1310.1875 257.0938,1309.7344 257.0938,1309.3438 C257.0938,1308.8906 256.7031,1308.5 256.2344,1308.5 C256.0156,1308.5 255.8125,1308.5781 255.625,1308.7656 C255.1719,1309.25 255.1719,1309.25 254.9844,1309.3438 C254.5625,1309.6094 253.875,1309.7344 253.1094,1309.7344 C251.0625,1309.7344 249.7656,1308.6406 249.7656,1306.9375 L249.7656,1305.8438 C249.7656,1304.0625 251.0156,1302.75 252.75,1302.75 C253.3281,1302.75 253.9375,1302.9063 254.4063,1303.1563 C254.8906,1303.4375 255.0625,1303.6563 255.1563,1304.0625 C255.2188,1304.4688 255.25,1304.5938 255.3906,1304.7188 C255.5313,1304.8594 255.7656,1304.9688 255.9844,1304.9688 C256.25,1304.9688 256.5156,1304.8281 256.6875,1304.6094 C256.7969,1304.4531 256.8281,1304.2656 256.8281,1303.8438 L256.8281,1302.4219 C256.8281,1301.9844 256.8125,1301.8594 256.7188,1301.7031 C256.5625,1301.4375 256.2813,1301.2969 255.9844,1301.2969 C255.6875,1301.2969 255.4844,1301.3906 255.2656,1301.7031 L255.0938,1301.625 Z " fill="#000000"/><text fill="#000000" font-family="sans-serif" font-size="12" lengthAdjust="spacing" textLength="45" x="273.25" y="1310.1074">Sample</text><line style="stroke:#A80036;stroke-width:1.5;" x1="208" x2="351" y1="1321.9531" y2="1321.9531"/><text fill="#000000" font-family="sans-serif" font-size="11" lengthAdjust="spacing" textLength="133" x="213" y="1336.1636">String number_barcode</text><line style="stroke:#A80036;stroke-width:1.5;" x1="208" x2="351" y1="1342.7578" y2="1342.7578"/><!--MD5=[ed6624c6556d5e7b1bd23032162d20b7]
class Client--><rect codeLine="94" fill="#FEFECE" filter="url(#ffn76g3k7u6nt)" height="150.4375" id="Client" style="stroke:#A80036;stroke-width:1.5;" width="161" x="175" y="460.9531"/><ellipse cx="234.75" cy="476.9531" fill="#ADD1B2" rx="11" ry="11" style="stroke:#A80036;stroke-width:1.0;"/><path d="M237.0938,472.625 C236.1563,472.1875 235.5625,472.0469 234.6875,472.0469 C232.0625,472.0469 230.0625,474.125 230.0625,476.8438 L230.0625,477.9688 C230.0625,480.5469 232.1719,482.4375 235.0625,482.4375 C236.2813,482.4375 237.4375,482.1406 238.1875,481.5938 C238.7656,481.1875 239.0938,480.7344 239.0938,480.3438 C239.0938,479.8906 238.7031,479.5 238.2344,479.5 C238.0156,479.5 237.8125,479.5781 237.625,479.7656 C237.1719,480.25 237.1719,480.25 236.9844,480.3438 C236.5625,480.6094 235.875,480.7344 235.1094,480.7344 C233.0625,480.7344 231.7656,479.6406 231.7656,477.9375 L231.7656,476.8438 C231.7656,475.0625 233.0156,473.75 234.75,473.75 C235.3281,473.75 235.9375,473.9063 236.4063,474.1563 C236.8906,474.4375 237.0625,474.6563 237.1563,475.0625 C237.2188,475.4688 237.25,475.5938 237.3906,475.7188 C237.5313,475.8594 237.7656,475.9688 237.9844,475.9688 C238.25,475.9688 238.5156,475.8281 238.6875,475.6094 C238.7969,475.4531 238.8281,475.2656 238.8281,474.8438 L238.8281,473.4219 C238.8281,472.9844 238.8125,472.8594 238.7188,472.7031 C238.5625,472.4375 238.2813,472.2969 237.9844,472.2969 C237.6875,472.2969 237.4844,472.3906 237.2656,472.7031 L237.0938,472.625 Z " fill="#000000"/><text fill="#000000" font-family="sans-serif" font-size="12" lengthAdjust="spacing" textLength="33" x="255.25" y="481.1074">Client</text><line style="stroke:#A80036;stroke-width:1.5;" x1="176" x2="335" y1="492.9531" y2="492.9531"/><text fill="#000000" font-family="sans-serif" font-size="11" lengthAdjust="spacing" textLength="149" x="181" y="507.1636">String citizenCardNumber;</text><text fill="#000000" font-family="sans-serif" font-size="11" lengthAdjust="spacing" textLength="108" x="181" y="519.9683">String numberNHS;</text><text fill="#000000" font-family="sans-serif" font-size="11" lengthAdjust="spacing" textLength="102" x="181" y="532.7729">String numberTIN;</text><text fill="#000000" font-family="sans-serif" font-size="11" lengthAdjust="spacing" textLength="93" x="181" y="545.5776">String birthDate;</text><text fill="#000000" font-family="sans-serif" font-size="11" lengthAdjust="spacing" textLength="59" x="181" y="558.3823">string sex;</text><text fill="#000000" font-family="sans-serif" font-size="11" lengthAdjust="spacing" textLength="121" x="181" y="571.187">String phoneNumber;</text><text fill="#000000" font-family="sans-serif" font-size="11" lengthAdjust="spacing" textLength="71" x="181" y="583.9917">string name;</text><line style="stroke:#A80036;stroke-width:1.5;" x1="176" x2="335" y1="590.5859" y2="590.5859"/><ellipse cx="186" cy="601.5859" fill="#84BE84" rx="3" ry="3" style="stroke:#038048;stroke-width:1.0;"/><text fill="#000000" font-family="sans-serif" font-size="11" lengthAdjust="spacing" textLength="61" x="195" y="604.7964">getName()</text><!--MD5=[aeb3272166074d8737a70b61b1e71682]
class TestType--><rect codeLine="105" fill="#FEFECE" filter="url(#ffn76g3k7u6nt)" height="124.8281" id="TestType" style="stroke:#A80036;stroke-width:1.5;" width="154" x="397.5" y="1257.9531"/><ellipse cx="442.25" cy="1273.9531" fill="#ADD1B2" rx="11" ry="11" style="stroke:#A80036;stroke-width:1.0;"/><path d="M444.5938,1269.625 C443.6563,1269.1875 443.0625,1269.0469 442.1875,1269.0469 C439.5625,1269.0469 437.5625,1271.125 437.5625,1273.8438 L437.5625,1274.9688 C437.5625,1277.5469 439.6719,1279.4375 442.5625,1279.4375 C443.7813,1279.4375 444.9375,1279.1406 445.6875,1278.5938 C446.2656,1278.1875 446.5938,1277.7344 446.5938,1277.3438 C446.5938,1276.8906 446.2031,1276.5 445.7344,1276.5 C445.5156,1276.5 445.3125,1276.5781 445.125,1276.7656 C444.6719,1277.25 444.6719,1277.25 444.4844,1277.3438 C444.0625,1277.6094 443.375,1277.7344 442.6094,1277.7344 C440.5625,1277.7344 439.2656,1276.6406 439.2656,1274.9375 L439.2656,1273.8438 C439.2656,1272.0625 440.5156,1270.75 442.25,1270.75 C442.8281,1270.75 443.4375,1270.9063 443.9063,1271.1563 C444.3906,1271.4375 444.5625,1271.6563 444.6563,1272.0625 C444.7188,1272.4688 444.75,1272.5938 444.8906,1272.7188 C445.0313,1272.8594 445.2656,1272.9688 445.4844,1272.9688 C445.75,1272.9688 446.0156,1272.8281 446.1875,1272.6094 C446.2969,1272.4531 446.3281,1272.2656 446.3281,1271.8438 L446.3281,1270.4219 C446.3281,1269.9844 446.3125,1269.8594 446.2188,1269.7031 C446.0625,1269.4375 445.7813,1269.2969 445.4844,1269.2969 C445.1875,1269.2969 444.9844,1269.3906 444.7656,1269.7031 L444.5938,1269.625 Z " fill="#000000"/><text fill="#000000" font-family="sans-serif" font-size="12" lengthAdjust="spacing" textLength="56" x="462.75" y="1278.1074">TestType</text><line style="stroke:#A80036;stroke-width:1.5;" x1="398.5" x2="550.5" y1="1289.9531" y2="1289.9531"/><text fill="#000000" font-family="sans-serif" font-size="11" lengthAdjust="spacing" textLength="106" x="403.5" y="1304.1636">String designation;</text><text fill="#000000" font-family="sans-serif" font-size="11" lengthAdjust="spacing" textLength="68" x="403.5" y="1316.9683">String code;</text><text fill="#000000" font-family="sans-serif" font-size="11" lengthAdjust="spacing" textLength="142" x="403.5" y="1329.7729">String collectingMethods;</text><line style="stroke:#A80036;stroke-width:1.5;" x1="398.5" x2="550.5" y1="1336.3672" y2="1336.3672"/><ellipse cx="408.5" cy="1347.3672" fill="#84BE84" rx="3" ry="3" style="stroke:#038048;stroke-width:1.0;"/><text fill="#000000" font-family="sans-serif" font-size="11" lengthAdjust="spacing" textLength="57" x="417.5" y="1350.5776">getCode()</text><ellipse cx="408.5" cy="1360.1719" fill="#84BE84" rx="3" ry="3" style="stroke:#038048;stroke-width:1.0;"/><text fill="#000000" font-family="sans-serif" font-size="11" lengthAdjust="spacing" textLength="91" x="417.5" y="1363.3823">getDescription()</text><ellipse cx="408.5" cy="1372.9766" fill="#84BE84" rx="3" ry="3" style="stroke:#038048;stroke-width:1.0;"/><text fill="#000000" font-family="sans-serif" font-size="11" lengthAdjust="spacing" textLength="75" x="417.5" y="1376.187">getMethods()</text><!--MD5=[d0024740988d3925690046e9afae9c9c]
class TestTypeDTO--><rect codeLine="114" fill="#FEFECE" filter="url(#ffn76g3k7u6nt)" height="86.4141" id="TestTypeDTO" style="stroke:#A80036;stroke-width:1.5;" width="154" x="1050.5" y="687.9531"/><ellipse cx="1083.5" cy="703.9531" fill="#ADD1B2" rx="11" ry="11" style="stroke:#A80036;stroke-width:1.0;"/><path d="M1085.8438,699.625 C1084.9063,699.1875 1084.3125,699.0469 1083.4375,699.0469 C1080.8125,699.0469 1078.8125,701.125 1078.8125,703.8438 L1078.8125,704.9688 C1078.8125,707.5469 1080.9219,709.4375 1083.8125,709.4375 C1085.0313,709.4375 1086.1875,709.1406 1086.9375,708.5938 C1087.5156,708.1875 1087.8438,707.7344 1087.8438,707.3438 C1087.8438,706.8906 1087.4531,706.5 1086.9844,706.5 C1086.7656,706.5 1086.5625,706.5781 1086.375,706.7656 C1085.9219,707.25 1085.9219,707.25 1085.7344,707.3438 C1085.3125,707.6094 1084.625,707.7344 1083.8594,707.7344 C1081.8125,707.7344 1080.5156,706.6406 1080.5156,704.9375 L1080.5156,703.8438 C1080.5156,702.0625 1081.7656,700.75 1083.5,700.75 C1084.0781,700.75 1084.6875,700.9063 1085.1563,701.1563 C1085.6406,701.4375 1085.8125,701.6563 1085.9063,702.0625 C1085.9688,702.4688 1086,702.5938 1086.1406,702.7188 C1086.2813,702.8594 1086.5156,702.9688 1086.7344,702.9688 C1087,702.9688 1087.2656,702.8281 1087.4375,702.6094 C1087.5469,702.4531 1087.5781,702.2656 1087.5781,701.8438 L1087.5781,700.4219 C1087.5781,699.9844 1087.5625,699.8594 1087.4688,699.7031 C1087.3125,699.4375 1087.0313,699.2969 1086.7344,699.2969 C1086.4375,699.2969 1086.2344,699.3906 1086.0156,699.7031 L1085.8438,699.625 Z " fill="#000000"/><text fill="#000000" font-family="sans-serif" font-size="12" lengthAdjust="spacing" textLength="82" x="1101.5" y="708.1074">TestTypeDTO</text><line style="stroke:#A80036;stroke-width:1.5;" x1="1051.5" x2="1203.5" y1="719.9531" y2="719.9531"/><text fill="#000000" font-family="sans-serif" font-size="11" lengthAdjust="spacing" textLength="106" x="1056.5" y="734.1636">String designation;</text><text fill="#000000" font-family="sans-serif" font-size="11" lengthAdjust="spacing" textLength="68" x="1056.5" y="746.9683">String code;</text><text fill="#000000" font-family="sans-serif" font-size="11" lengthAdjust="spacing" textLength="142" x="1056.5" y="759.7729">String collectingMethods;</text><line style="stroke:#A80036;stroke-width:1.5;" x1="1051.5" x2="1203.5" y1="766.3672" y2="766.3672"/><!--MD5=[1f6362a5c8f21d8d6a0fce68f3a92a4e]
class Parameter--><rect codeLine="120" fill="#FEFECE" filter="url(#ffn76g3k7u6nt)" height="112.0234" id="Parameter" style="stroke:#A80036;stroke-width:1.5;" width="164" x="701.5" y="1264.4531"/><ellipse cx="748.75" cy="1280.4531" fill="#ADD1B2" rx="11" ry="11" style="stroke:#A80036;stroke-width:1.0;"/><path d="M751.0938,1276.125 C750.1563,1275.6875 749.5625,1275.5469 748.6875,1275.5469 C746.0625,1275.5469 744.0625,1277.625 744.0625,1280.3438 L744.0625,1281.4688 C744.0625,1284.0469 746.1719,1285.9375 749.0625,1285.9375 C750.2813,1285.9375 751.4375,1285.6406 752.1875,1285.0938 C752.7656,1284.6875 753.0938,1284.2344 753.0938,1283.8438 C753.0938,1283.3906 752.7031,1283 752.2344,1283 C752.0156,1283 751.8125,1283.0781 751.625,1283.2656 C751.1719,1283.75 751.1719,1283.75 750.9844,1283.8438 C750.5625,1284.1094 749.875,1284.2344 749.1094,1284.2344 C747.0625,1284.2344 745.7656,1283.1406 745.7656,1281.4375 L745.7656,1280.3438 C745.7656,1278.5625 747.0156,1277.25 748.75,1277.25 C749.3281,1277.25 749.9375,1277.4063 750.4063,1277.6563 C750.8906,1277.9375 751.0625,1278.1563 751.1563,1278.5625 C751.2188,1278.9688 751.25,1279.0938 751.3906,1279.2188 C751.5313,1279.3594 751.7656,1279.4688 751.9844,1279.4688 C752.25,1279.4688 752.5156,1279.3281 752.6875,1279.1094 C752.7969,1278.9531 752.8281,1278.7656 752.8281,1278.3438 L752.8281,1276.9219 C752.8281,1276.4844 752.8125,1276.3594 752.7188,1276.2031 C752.5625,1275.9375 752.2813,1275.7969 751.9844,1275.7969 C751.6875,1275.7969 751.4844,1275.8906 751.2656,1276.2031 L751.0938,1276.125 Z " fill="#000000"/><text fill="#000000" font-family="sans-serif" font-size="12" lengthAdjust="spacing" textLength="61" x="769.25" y="1284.6074">Parameter</text><line style="stroke:#A80036;stroke-width:1.5;" x1="702.5" x2="864.5" y1="1296.4531" y2="1296.4531"/><text fill="#000000" font-family="sans-serif" font-size="11" lengthAdjust="spacing" textLength="106" x="707.5" y="1310.6636">String designation;</text><text fill="#000000" font-family="sans-serif" font-size="11" lengthAdjust="spacing" textLength="68" x="707.5" y="1323.4683">String code;</text><line style="stroke:#A80036;stroke-width:1.5;" x1="702.5" x2="864.5" y1="1330.0625" y2="1330.0625"/><ellipse cx="712.5" cy="1341.0625" fill="#84BE84" rx="3" ry="3" style="stroke:#038048;stroke-width:1.0;"/><text fill="#000000" font-family="sans-serif" font-size="11" lengthAdjust="spacing" textLength="57" x="721.5" y="1344.2729">getCode()</text><ellipse cx="712.5" cy="1353.8672" fill="#84BE84" rx="3" ry="3" style="stroke:#038048;stroke-width:1.0;"/><text fill="#000000" font-family="sans-serif" font-size="11" lengthAdjust="spacing" textLength="91" x="721.5" y="1357.0776">getDescription()</text><ellipse cx="712.5" cy="1366.6719" fill="#84BE84" rx="3" ry="3" style="stroke:#038048;stroke-width:1.0;"/><text fill="#000000" font-family="sans-serif" font-size="11" lengthAdjust="spacing" textLength="138" x="721.5" y="1369.8823">getParameterCategory()</text><!--MD5=[e82331375a7233007428e4f15d504621]
class ParameterDTO--><rect codeLine="128" fill="#FEFECE" filter="url(#ffn76g3k7u6nt)" height="86.4141" id="ParameterDTO" style="stroke:#A80036;stroke-width:1.5;" width="166" x="849.5" y="687.9531"/><ellipse cx="885.65" cy="703.9531" fill="#ADD1B2" rx="11" ry="11" style="stroke:#A80036;stroke-width:1.0;"/><path d="M887.9938,699.625 C887.0563,699.1875 886.4625,699.0469 885.5875,699.0469 C882.9625,699.0469 880.9625,701.125 880.9625,703.8438 L880.9625,704.9688 C880.9625,707.5469 883.0719,709.4375 885.9625,709.4375 C887.1813,709.4375 888.3375,709.1406 889.0875,708.5938 C889.6656,708.1875 889.9938,707.7344 889.9938,707.3438 C889.9938,706.8906 889.6031,706.5 889.1344,706.5 C888.9156,706.5 888.7125,706.5781 888.525,706.7656 C888.0719,707.25 888.0719,707.25 887.8844,707.3438 C887.4625,707.6094 886.775,707.7344 886.0094,707.7344 C883.9625,707.7344 882.6656,706.6406 882.6656,704.9375 L882.6656,703.8438 C882.6656,702.0625 883.9156,700.75 885.65,700.75 C886.2281,700.75 886.8375,700.9063 887.3063,701.1563 C887.7906,701.4375 887.9625,701.6563 888.0563,702.0625 C888.1188,702.4688 888.15,702.5938 888.2906,702.7188 C888.4313,702.8594 888.6656,702.9688 888.8844,702.9688 C889.15,702.9688 889.4156,702.8281 889.5875,702.6094 C889.6969,702.4531 889.7281,702.2656 889.7281,701.8438 L889.7281,700.4219 C889.7281,699.9844 889.7125,699.8594 889.6188,699.7031 C889.4625,699.4375 889.1813,699.2969 888.8844,699.2969 C888.5875,699.2969 888.3844,699.3906 888.1656,699.7031 L887.9938,699.625 Z " fill="#000000"/><text fill="#000000" font-family="sans-serif" font-size="12" lengthAdjust="spacing" textLength="87" x="904.35" y="708.1074">ParameterDTO</text><line style="stroke:#A80036;stroke-width:1.5;" x1="850.5" x2="1014.5" y1="719.9531" y2="719.9531"/><text fill="#000000" font-family="sans-serif" font-size="11" lengthAdjust="spacing" textLength="106" x="855.5" y="734.1636">String designation;</text><text fill="#000000" font-family="sans-serif" font-size="11" lengthAdjust="spacing" textLength="68" x="855.5" y="746.9683">String code;</text><text fill="#000000" font-family="sans-serif" font-size="11" lengthAdjust="spacing" textLength="154" x="855.5" y="759.7729">String categoryDescription;</text><line style="stroke:#A80036;stroke-width:1.5;" x1="850.5" x2="1014.5" y1="766.3672" y2="766.3672"/><!--MD5=[36afb6bbd95a8ac778c4537c55a683d5]
class ParameterCategory--><rect codeLine="134" fill="#FEFECE" filter="url(#ffn76g3k7u6nt)" height="99.2188" id="ParameterCategory" style="stroke:#A80036;stroke-width:1.5;" width="148" x="544.5" y="1459.9531"/><ellipse cx="559.5" cy="1475.9531" fill="#ADD1B2" rx="11" ry="11" style="stroke:#A80036;stroke-width:1.0;"/><path d="M561.8438,1471.625 C560.9063,1471.1875 560.3125,1471.0469 559.4375,1471.0469 C556.8125,1471.0469 554.8125,1473.125 554.8125,1475.8438 L554.8125,1476.9688 C554.8125,1479.5469 556.9219,1481.4375 559.8125,1481.4375 C561.0313,1481.4375 562.1875,1481.1406 562.9375,1480.5938 C563.5156,1480.1875 563.8438,1479.7344 563.8438,1479.3438 C563.8438,1478.8906 563.4531,1478.5 562.9844,1478.5 C562.7656,1478.5 562.5625,1478.5781 562.375,1478.7656 C561.9219,1479.25 561.9219,1479.25 561.7344,1479.3438 C561.3125,1479.6094 560.625,1479.7344 559.8594,1479.7344 C557.8125,1479.7344 556.5156,1478.6406 556.5156,1476.9375 L556.5156,1475.8438 C556.5156,1474.0625 557.7656,1472.75 559.5,1472.75 C560.0781,1472.75 560.6875,1472.9063 561.1563,1473.1563 C561.6406,1473.4375 561.8125,1473.6563 561.9063,1474.0625 C561.9688,1474.4688 562,1474.5938 562.1406,1474.7188 C562.2813,1474.8594 562.5156,1474.9688 562.7344,1474.9688 C563,1474.9688 563.2656,1474.8281 563.4375,1474.6094 C563.5469,1474.4531 563.5781,1474.2656 563.5781,1473.8438 L563.5781,1472.4219 C563.5781,1471.9844 563.5625,1471.8594 563.4688,1471.7031 C563.3125,1471.4375 563.0313,1471.2969 562.7344,1471.2969 C562.4375,1471.2969 562.2344,1471.3906 562.0156,1471.7031 L561.8438,1471.625 Z " fill="#000000"/><text fill="#000000" font-family="sans-serif" font-size="12" lengthAdjust="spacing" textLength="116" x="573.5" y="1480.1074">ParameterCategory</text><line style="stroke:#A80036;stroke-width:1.5;" x1="545.5" x2="691.5" y1="1491.9531" y2="1491.9531"/><text fill="#000000" font-family="sans-serif" font-size="11" lengthAdjust="spacing" textLength="68" x="550.5" y="1506.1636">String code;</text><text fill="#000000" font-family="sans-serif" font-size="11" lengthAdjust="spacing" textLength="100" x="550.5" y="1518.9683">string description;</text><text fill="#000000" font-family="sans-serif" font-size="11" lengthAdjust="spacing" textLength="76" x="550.5" y="1531.7729">String NHSID;</text><line style="stroke:#A80036;stroke-width:1.5;" x1="545.5" x2="691.5" y1="1538.3672" y2="1538.3672"/><ellipse cx="555.5" cy="1549.3672" fill="#84BE84" rx="3" ry="3" style="stroke:#038048;stroke-width:1.0;"/><text fill="#000000" font-family="sans-serif" font-size="11" lengthAdjust="spacing" textLength="105" x="564.5" y="1552.5776">getDescriptionPC()</text><!--MD5=[01931d41e78f8996acd44f6f0fd8de28]
class MedicalLabTechnician--><rect fill="#FEFECE" filter="url(#ffn76g3k7u6nt)" height="48" id="MedicalLabTechnician" style="stroke:#A80036;stroke-width:1.5;" width="162" x="22.5" y="706.9531"/><ellipse cx="37.5" cy="722.9531" fill="#ADD1B2" rx="11" ry="11" style="stroke:#A80036;stroke-width:1.0;"/><path d="M39.8438,718.625 C38.9063,718.1875 38.3125,718.0469 37.4375,718.0469 C34.8125,718.0469 32.8125,720.125 32.8125,722.8438 L32.8125,723.9688 C32.8125,726.5469 34.9219,728.4375 37.8125,728.4375 C39.0313,728.4375 40.1875,728.1406 40.9375,727.5938 C41.5156,727.1875 41.8438,726.7344 41.8438,726.3438 C41.8438,725.8906 41.4531,725.5 40.9844,725.5 C40.7656,725.5 40.5625,725.5781 40.375,725.7656 C39.9219,726.25 39.9219,726.25 39.7344,726.3438 C39.3125,726.6094 38.625,726.7344 37.8594,726.7344 C35.8125,726.7344 34.5156,725.6406 34.5156,723.9375 L34.5156,722.8438 C34.5156,721.0625 35.7656,719.75 37.5,719.75 C38.0781,719.75 38.6875,719.9063 39.1563,720.1563 C39.6406,720.4375 39.8125,720.6563 39.9063,721.0625 C39.9688,721.4688 40,721.5938 40.1406,721.7188 C40.2813,721.8594 40.5156,721.9688 40.7344,721.9688 C41,721.9688 41.2656,721.8281 41.4375,721.6094 C41.5469,721.4531 41.5781,721.2656 41.5781,720.8438 L41.5781,719.4219 C41.5781,718.9844 41.5625,718.8594 41.4688,718.7031 C41.3125,718.4375 41.0313,718.2969 40.7344,718.2969 C40.4375,718.2969 40.2344,718.3906 40.0156,718.7031 L39.8438,718.625 Z " fill="#000000"/><text fill="#000000" font-family="sans-serif" font-size="12" lengthAdjust="spacing" textLength="130" x="51.5" y="727.1074">MedicalLabTechnician</text><line style="stroke:#A80036;stroke-width:1.5;" x1="23.5" x2="183.5" y1="738.9531" y2="738.9531"/><line style="stroke:#A80036;stroke-width:1.5;" x1="23.5" x2="183.5" y1="746.9531" y2="746.9531"/><!--MD5=[b07fc2b2aa91da2436cc249a96980d64]
link RecordSampleUI to RecordSampleController--><path codeLine="142" d="M1355.1,73.0131 C1276.6,96.7431 1145.36,136.3931 1056.21,163.3331 " fill="none" id="RecordSampleUI-to-RecordSampleController" style="stroke:#A80036;stroke-width:1.0;stroke-dasharray:7.0,7.0;"/><polygon fill="#A80036" points="1051.2,164.8531,1060.9715,166.0849,1055.9872,163.4098,1058.6623,158.4255,1051.2,164.8531" style="stroke:#A80036;stroke-width:1.0;"/><!--MD5=[6d89e5da8e6b6c740cd48cd2120910ce]
link RecordSampleUI to TestDTO--><path codeLine="143" d="M1446.49,75.9731 C1504.73,132.4331 1639.09,280.6831 1564.5,383.9531 C1479.3,501.9131 1298.42,529.2231 1191.85,534.6531 " fill="none" id="RecordSampleUI-to-TestDTO" style="stroke:#A80036;stroke-width:1.0;stroke-dasharray:7.0,7.0;"/><polygon fill="#A80036" points="1186.83,534.8931,1196.0135,538.4518,1191.8241,534.6506,1195.6253,530.4612,1186.83,534.8931" style="stroke:#A80036;stroke-width:1.0;"/><!--MD5=[ccf558741c2fb5a5f538be9d3a954f59]
link RecordSampleController to Company--><path codeLine="145" d="M871.714,206.0131 C785.058,219.0431 650.837,242.9131 538.5,278.9531 C509.516,288.2531 478.647,301.5331 452.568,313.8131 " fill="none" id="RecordSampleController-to-Company" style="stroke:#A80036;stroke-width:1.0;stroke-dasharray:7.0,7.0;"/><polygon fill="#A80036" points="447.755,316.0931,457.6009,315.8498,452.2725,313.9502,454.1721,308.6218,447.755,316.0931" style="stroke:#A80036;stroke-width:1.0;"/><!--MD5=[5bb931d09ab0aebfaada3d823529a93c]
link RecordSampleController to TestStore--><path codeLine="146" d="M871.771,195.3131 C798.25,201.0131 695.727,220.0931 628.5,278.9531 C564.295,335.1631 539.571,437.0931 530.471,493.9031 " fill="none" id="RecordSampleController-to-TestStore" style="stroke:#A80036;stroke-width:1.0;stroke-dasharray:7.0,7.0;"/><polygon fill="#A80036" points="529.689,498.9231,535.0063,490.633,530.4465,493.9808,527.0987,489.421,529.689,498.9231" style="stroke:#A80036;stroke-width:1.0;"/><!--MD5=[26bdb232b81b936178e848541513fae4]
link RecordSampleController to App--><path codeLine="147" d="M1024.81,249.2631 C1046.49,268.2031 1070.3,288.9931 1090.26,306.4331 " fill="none" id="RecordSampleController-to-App" style="stroke:#A80036;stroke-width:1.0;stroke-dasharray:7.0,7.0;"/><polygon fill="#A80036" points="1094.2,309.8731,1090.0416,300.9452,1090.43,306.5887,1084.7865,306.9771,1094.2,309.8731" style="stroke:#A80036;stroke-width:1.0;"/><!--MD5=[b9de9404f5b7fd74e14bf09d5fb31a85]
link RecordSampleController to UserSession--><path codeLine="148" d="M1051.13,224.9831 C1126.71,251.1531 1234.37,288.4331 1310.15,314.6731 " fill="none" id="RecordSampleController-to-UserSession" style="stroke:#A80036;stroke-width:1.0;stroke-dasharray:7.0,7.0;"/><polygon fill="#A80036" points="1315.09,316.3831,1307.8831,309.6704,1310.3625,314.7549,1305.278,317.2344,1315.09,316.3831" style="stroke:#A80036;stroke-width:1.0;"/><!--MD5=[1b994d31a4480b28023ddd683493aaaf]
link RecordSampleController to Test--><path codeLine="149" d="M871.878,200.8331 C781.262,213.2531 654.5,248.1231 654.5,345.9531 C654.5,345.9531 654.5,345.9531 654.5,731.9531 C654.5,769.7711 646.589,808.9441 635.263,845.6491 " fill="none" id="RecordSampleController-to-Test" style="stroke:#A80036;stroke-width:1.0;stroke-dasharray:7.0,7.0;"/><polygon fill="#A80036" points="633.717,850.5781,640.228,843.1884,635.2139,845.8075,632.5949,840.7934,633.717,850.5781" style="stroke:#A80036;stroke-width:1.0;"/><!--MD5=[ee84a3552a039e5067b406ba5694657c]
link RecordSampleController to TestDTO--><path codeLine="150" d="M981.737,249.2931 C996.01,287.4531 1015.99,339.1631 1035.5,383.9531 C1046.72,409.7131 1059.86,437.5031 1071.87,462.1431 " fill="none" id="RecordSampleController-to-TestDTO" style="stroke:#A80036;stroke-width:1.0;stroke-dasharray:7.0,7.0;"/><polygon fill="#A80036" points="1074.09,466.7031,1073.7183,456.8613,1071.8883,462.214,1066.5356,460.384,1074.09,466.7031" style="stroke:#A80036;stroke-width:1.0;"/><!--MD5=[17f512f27b0a08152b449e3998ee7594]
link RecordSampleController to TestsMapper--><path codeLine="151" d="M935.667,249.2631 C925.944,270.0731 915.174,293.1331 906.59,311.5031 " fill="none" id="RecordSampleController-to-TestsMapper" style="stroke:#A80036;stroke-width:1.0;stroke-dasharray:7.0,7.0;"/><polygon fill="#A80036" points="904.456,316.0731,911.887,309.6094,906.5707,311.5423,904.6377,306.2259,904.456,316.0731" style="stroke:#A80036;stroke-width:1.0;"/><!--MD5=[b0f4f6db8206580012ef9cd998ed01c5]
link TestStore to Test--><path codeLine="153" d="M527.855,573.2731 C531.66,631.9341 539.385,751.0441 545.854,850.8021 " fill="none" id="TestStore-Test" style="stroke:#A80036;stroke-width:1.0;"/><polygon fill="#000000" points="545.8236,736.009,548.171,726.7927,542.3054,727.1731,545.8236,736.009" style="stroke:#000000;stroke-width:1.0;"/><text fill="#000000" font-family="sans-serif" font-size="13" lengthAdjust="spacing" textLength="54" x="554.5" y="735.52">contains</text><text fill="#000000" font-family="sans-serif" font-size="13" lengthAdjust="spacing" textLength="8" x="519.5928" y="592.5249">1</text><text fill="#000000" font-family="sans-serif" font-size="13" lengthAdjust="spacing" textLength="7" x="538.213" y="840.0555">*</text><!--MD5=[b72ac8ab7fb5921fceb5036a3902baea]
link Test to Sample--><path codeLine="154" d="M476.752,1104.0431 C419.534,1166.5281 345.894,1246.9471 306.771,1289.6711 " fill="none" id="Test-Sample" style="stroke:#A80036;stroke-width:1.0;"/><polygon fill="#000000" points="379.1233,1223.2071,387.3993,1218.521,383.0643,1214.5515,379.1233,1223.2071" style="stroke:#000000;stroke-width:1.0;"/><text fill="#000000" font-family="sans-serif" font-size="13" lengthAdjust="spacing" textLength="54" x="391.5" y="1224.02">contains</text><text fill="#000000" font-family="sans-serif" font-size="13" lengthAdjust="spacing" textLength="8" x="461.0315" y="1108.5592">1</text><text fill="#000000" font-family="sans-serif" font-size="13" lengthAdjust="spacing" textLength="7" x="304.6738" y="1278.8762">*</text><!--MD5=[3cc8f96b708561bea99f9426918314ed]
link Test to ExternalModuleBarcode--><path codeLine="155" d="M620.588,1180.9701 C641.237,1262.1061 647.926,1357.8361 599.5,1429.9531 C599.388,1430.1191 539.91,1454.4241 487.191,1475.9421 " fill="none" id="Test-ExternalModuleBarcode" style="stroke:#A80036;stroke-width:1.0;"/><polygon fill="#000000" points="639.4397,1325.0753,645.8446,1318.0448,640.489,1315.6228,639.4397,1325.0753" style="stroke:#000000;stroke-width:1.0;"/><text fill="#000000" font-family="sans-serif" font-size="13" lengthAdjust="spacing" textLength="30" x="650.5" y="1325.02">uses</text><text fill="#000000" font-family="sans-serif" font-size="13" lengthAdjust="spacing" textLength="7" x="616.3334" y="1200.8639">*</text><text fill="#000000" font-family="sans-serif" font-size="13" lengthAdjust="spacing" textLength="8" x="494.0927" y="1464.9734">1</text><!--MD5=[c23963f6e403fc3ebec8dae22c30ade6]
link Test to Parameter--><path codeLine="156" d="M636.213,1123.1781 C671.982,1170.8451 712.679,1225.0761 742.215,1264.4371 " fill="none" id="Test-Parameter" style="stroke:#A80036;stroke-width:1.0;"/><polygon fill="#000000" points="718.501,1223.5187,715.4228,1214.5201,710.7214,1218.0481,718.501,1223.5187" style="stroke:#000000;stroke-width:1.0;"/><text fill="#000000" font-family="sans-serif" font-size="13" lengthAdjust="spacing" textLength="23" x="724.5" y="1224.02">has</text><text fill="#000000" font-family="sans-serif" font-size="13" lengthAdjust="spacing" textLength="8" x="643.9303" y="1129.4582">1</text><text fill="#000000" font-family="sans-serif" font-size="13" lengthAdjust="spacing" textLength="23" x="712.4519" y="1253.373">1..*</text><!--MD5=[e981d4f96c4342412d1e68160b30cf70]
link Test to TestType--><path codeLine="157" d="M530.478,1180.9871 C526.657,1196.9971 522.346,1212.8801 517.5,1227.9531 C514.331,1237.8121 510.338,1247.9861 506.07,1257.8081 " fill="none" id="Test-TestType" style="stroke:#A80036;stroke-width:1.0;"/><polygon fill="#000000" points="526.986,1224.2848,532.5258,1216.5543,526.9239,1214.7744,526.986,1224.2848" style="stroke:#000000;stroke-width:1.0;"/><text fill="#000000" font-family="sans-serif" font-size="13" lengthAdjust="spacing" textLength="27" x="537.5" y="1224.02">is of</text><text fill="#000000" font-family="sans-serif" font-size="13" lengthAdjust="spacing" textLength="8" x="521.1176" y="1200.8817">1</text><text fill="#000000" font-family="sans-serif" font-size="13" lengthAdjust="spacing" textLength="8" x="501.2578" y="1246.7821">1</text><!--MD5=[7f6cf7f175eae0af66201860de5de971]
link Company to TestStore--><path codeLine="159" d="M415.722,384.0131 C439.727,417.0131 475.074,465.6131 499.127,498.6931 " fill="none" id="Company-TestStore" style="stroke:#A80036;stroke-width:1.0;"/><polygon fill="#000000" points="457.4409,426.5632,454.4976,417.5195,449.744,420.9768,457.4409,426.5632" style="stroke:#000000;stroke-width:1.0;"/><text fill="#000000" font-family="sans-serif" font-size="13" lengthAdjust="spacing" textLength="23" x="463.5" y="427.02">has</text><text fill="#000000" font-family="sans-serif" font-size="13" lengthAdjust="spacing" textLength="8" x="411.4025" y="403.5036">1</text><text fill="#000000" font-family="sans-serif" font-size="13" lengthAdjust="spacing" textLength="8" x="485.7168" y="487.8338">1</text><!--MD5=[09366576ee87d48d594df10cacc83f45]
link Company to Employee--><path codeLine="160" d="M331.392,371.0731 C282.998,391.5131 213.24,423.8131 157.5,460.9531 C148.928,466.6631 140.305,473.1831 132.019,479.9331 " fill="none" id="Company-Employee" style="stroke:#A80036;stroke-width:1.0;"/><polygon fill="#000000" points="238.1116,424.9157,247.4587,423.1605,244.6419,418.0015,238.1116,424.9157" style="stroke:#000000;stroke-width:1.0;"/><text fill="#000000" font-family="sans-serif" font-size="13" lengthAdjust="spacing" textLength="23" x="251.5" y="427.02">has</text><text fill="#000000" font-family="sans-serif" font-size="13" lengthAdjust="spacing" textLength="8" x="315.4344" y="370.303">1</text><text fill="#000000" font-family="sans-serif" font-size="13" lengthAdjust="spacing" textLength="7" x="132.0683" y="468.8685">*</text><!--MD5=[8c76900db13228c02bafda6909b4bb57]
reverse link Employee to MedicalLabTechnician--><path codeLine="161" d="M85.1397,611.8351 C90.3842,645.5751 96.2064,683.0311 99.8596,706.5331 " fill="none" id="Employee-backto-MedicalLabTechnician" style="stroke:#A80036;stroke-width:1.0;"/><polygon fill="none" points="78.2117,612.8391,82.0566,592.0011,92.0456,610.6881,78.2117,612.8391" style="stroke:#A80036;stroke-width:1.0;"/><text fill="#000000" font-family="sans-serif" font-size="13" lengthAdjust="spacing" textLength="8" x="74.6404" y="612.2171">1</text><text fill="#000000" font-family="sans-serif" font-size="13" lengthAdjust="spacing" textLength="7" x="91.1191" y="695.8357">*</text><!--MD5=[0a29b4543c1af9e8341b856b8b8ec05c]
link MedicalLabTechnician to Sample--><path codeLine="162" d="M110.399,754.9841 C137.918,846.8441 239.835,1187.0471 270.63,1289.8451 " fill="none" id="MedicalLabTechnician-Sample" style="stroke:#A80036;stroke-width:1.0;"/><polygon fill="#000000" points="242.9349,1020.8092,243.1545,1011.3012,237.5239,1012.988,242.9349,1020.8092" style="stroke:#000000;stroke-width:1.0;"/><text fill="#000000" font-family="sans-serif" font-size="13" lengthAdjust="spacing" textLength="48" x="250.5" y="1020.52">records</text><text fill="#000000" font-family="sans-serif" font-size="13" lengthAdjust="spacing" textLength="8" x="103.1424" y="775.1479">1</text><text fill="#000000" font-family="sans-serif" font-size="13" lengthAdjust="spacing" textLength="7" x="261.0787" y="1279.0861">*</text><!--MD5=[4d919ce9634ce3b6a19089589632ad48]
link MedicalLabTechnician to Test--><path codeLine="163" d="M111.547,754.9621 C119.4,774.6081 133.023,802.5291 152.5,820.9531 C246.332,909.7081 388.346,964.9311 476.602,992.7891 " fill="none" id="MedicalLabTechnician-Test" style="stroke:#A80036;stroke-width:1.0;"/><text fill="#000000" font-family="sans-serif" font-size="13" lengthAdjust="spacing" textLength="81" x="153.5" y="817.02">has access&gt;</text><text fill="#000000" font-family="sans-serif" font-size="13" lengthAdjust="spacing" textLength="8" x="114.634" y="775.1202">1</text><text fill="#000000" font-family="sans-serif" font-size="13" lengthAdjust="spacing" textLength="7" x="461.9137" y="987.049">*</text><!--MD5=[9d72cf744bf9ddb1fce4cda31d5373e7]
link TestsMapper to TestDTO--><path codeLine="165" d="M925.043,377.5831 C952.265,400.9331 991.355,434.4631 1026.46,464.5831 " fill="none" id="TestsMapper-to-TestDTO" style="stroke:#A80036;stroke-width:1.0;stroke-dasharray:7.0,7.0;"/><polygon fill="#A80036" points="1030.28,467.8631,1026.0499,458.969,1026.4837,464.6092,1020.8435,465.043,1030.28,467.8631" style="stroke:#A80036;stroke-width:1.0;"/><!--MD5=[f56df1b43df9d6d505252d2d22f078ff]
link TestsMapper to Test--><path codeLine="166" d="M843.396,377.4731 C815.138,397.6131 780.844,426.7731 760.5,460.9531 C676.66,601.7901 743.374,669.5891 680.5,820.9531 C669.302,847.9101 654.403,875.2741 638.825,900.6191 " fill="none" id="TestsMapper-to-Test" style="stroke:#A80036;stroke-width:1.0;stroke-dasharray:7.0,7.0;"/><polygon fill="#A80036" points="636.116,904.9971,644.2539,899.4496,638.7475,900.7456,637.4515,895.2392,636.116,904.9971" style="stroke:#A80036;stroke-width:1.0;"/><!--MD5=[3b5f8fe4acc1e72012f4da448111e7eb]
link TestsMapper to ParametersMapper--><path codeLine="167" d="M884.32,377.5831 C877.38,410.8631 866.129,464.8131 858.771,500.0831 " fill="none" id="TestsMapper-to-ParametersMapper" style="stroke:#A80036;stroke-width:1.0;stroke-dasharray:7.0,7.0;"/><polygon fill="#A80036" points="857.715,505.1531,863.4581,497.1521,858.7296,500.2572,855.6246,495.5287,857.715,505.1531" style="stroke:#A80036;stroke-width:1.0;"/><!--MD5=[99e6579650d6dac1401e42d07e5f4773]
link TestsMapper to TestTypeDTO--><path codeLine="168" d="M905.651,377.6531 C916.761,400.1431 931.723,432.0131 942.5,460.9531 C974.307,546.3731 942.897,586.5121 999.5,657.9531 C1006.743,667.0951 1025.16,678.8991 1045.83,690.2941 " fill="none" id="TestsMapper-to-TestTypeDTO" style="stroke:#A80036;stroke-width:1.0;stroke-dasharray:7.0,7.0;"/><polygon fill="#A80036" points="1050.28,692.7191,1044.3029,684.8913,1045.8931,690.3201,1040.4644,691.9103,1050.28,692.7191" style="stroke:#A80036;stroke-width:1.0;"/><!--MD5=[35cd3d1c62c150a589c0a21796715ac3]
link ParametersMapper to ParameterDTO--><path codeLine="169" d="M863.979,566.6861 C876.975,597.6521 897.521,646.6081 912.729,682.8441 " fill="none" id="ParametersMapper-to-ParameterDTO" style="stroke:#A80036;stroke-width:1.0;stroke-dasharray:7.0,7.0;"/><polygon fill="#A80036" points="914.744,687.6451,914.9477,677.7984,912.8083,683.035,907.5716,680.8956,914.744,687.6451" style="stroke:#A80036;stroke-width:1.0;"/><!--MD5=[f5a55d2f170b87dd53a07d428bee88b1]
link ParametersMapper to Parameter--><path codeLine="170" d="M847.331,566.7021 C843.168,597.1221 836.789,645.7631 832.5,687.9531 C811.235,897.1441 794.4,1146.1511 787.24,1258.7851 " fill="none" id="ParametersMapper-to-Parameter" style="stroke:#A80036;stroke-width:1.0;stroke-dasharray:7.0,7.0;"/><polygon fill="#A80036" points="786.907,1264.0451,791.4698,1255.317,787.2241,1259.0552,783.4859,1254.8095,786.907,1264.0451" style="stroke:#A80036;stroke-width:1.0;"/><!--MD5=[7bee0648d868ad920d8f2cf478398e5c]
link Sample to ExternalModuleBarcode--><path codeLine="172" d="M270.802,1351.0761 C265.821,1374.0921 262.938,1406.0161 276.5,1429.9531 C287.413,1449.2151 305.144,1464.2635 324.084,1475.7973 " fill="none" id="Sample-ExternalModuleBarcode" style="stroke:#A80036;stroke-width:1.0;"/><text fill="#000000" font-family="sans-serif" font-size="13" lengthAdjust="spacing" textLength="185" x="277.5" y="1426.02">keeps the data returned by&gt;</text><text fill="#000000" font-family="sans-serif" font-size="13" lengthAdjust="spacing" textLength="7" x="261.2862" y="1371.0397">*</text><text fill="#000000" font-family="sans-serif" font-size="13" lengthAdjust="spacing" textLength="8" x="304.3375" y="1467.3602">1</text><!--MD5=[502b51bc079239060389dab43b7d3470]
link Client to Test--><path codeLine="174" d="M252.974,611.2001 C254.307,660.0561 261.943,723.9681 288.5,773.9531 C331.951,855.7361 414.735,923.5061 476.851,966.1321 " fill="none" id="Client-Test" style="stroke:#A80036;stroke-width:1.0;"/><polygon fill="#000000" points="296.1675,735.2485,293.8277,726.0303,288.8562,729.1661,296.1675,735.2485" style="stroke:#000000;stroke-width:1.0;"/><text fill="#000000" font-family="sans-serif" font-size="13" lengthAdjust="spacing" textLength="43" x="302.5" y="735.52">does a</text><text fill="#000000" font-family="sans-serif" font-size="13" lengthAdjust="spacing" textLength="8" x="244.3316" y="631.3974">1</text><text fill="#000000" font-family="sans-serif" font-size="13" lengthAdjust="spacing" textLength="7" x="461.9259" y="957.7561">*</text><!--MD5=[e52cd98f5e4db129e41a52bcc4458335]
link Client to MedicalLabTechnician--><path codeLine="175" d="M174.803,606.3811 C164.259,617.3571 154.137,629.0361 145.5,640.9531 C130.66,661.4271 118.941,687.9741 111.695,706.7301 " fill="none" id="Client-MedicalLabTechnician" style="stroke:#A80036;stroke-width:1.0;"/><polygon fill="#000000" points="147.8382,653.7521,155.1413,647.6599,150.1656,644.5307,147.8382,653.7521" style="stroke:#000000;stroke-width:1.0;"/><text fill="#000000" font-family="sans-serif" font-size="13" lengthAdjust="spacing" textLength="75" x="159.5" y="654.02">is tested by</text><text fill="#000000" font-family="sans-serif" font-size="13" lengthAdjust="spacing" textLength="7" x="160.0411" y="609.2352">*</text><text fill="#000000" font-family="sans-serif" font-size="13" lengthAdjust="spacing" textLength="8" x="104.7173" y="696.0807">1</text><!--MD5=[6df8849671cb880f6936e94aa30db6f9]
link Parameter to ParameterCategory--><path codeLine="177" d="M734.887,1376.5481 C711.597,1402.9431 683.946,1434.2801 661.441,1459.7864 " fill="none" id="Parameter-ParameterCategory" style="stroke:#A80036;stroke-width:1.0;"/><polygon fill="#000000" points="703.1919,1425.2687,711.38,1420.4308,706.9726,1416.5419,703.1919,1425.2687" style="stroke:#000000;stroke-width:1.0;"/><text fill="#000000" font-family="sans-serif" font-size="13" lengthAdjust="spacing" textLength="106" x="715.5" y="1426.02">presented under</text><text fill="#000000" font-family="sans-serif" font-size="13" lengthAdjust="spacing" textLength="7" x="721.5357" y="1396.3723">*</text><text fill="#000000" font-family="sans-serif" font-size="13" lengthAdjust="spacing" textLength="8" x="658.9171" y="1448.8079">1</text><!--MD5=[8aaf0efd5e2f3824be7ea3e488dcc283]
link TestType to ParameterCategory--><path codeLine="178" d="M522.05,1383.2021 C541.22,1408.0961 563.013,1436.3981 581.028,1459.7921 " fill="none" id="TestType-ParameterCategory" style="stroke:#A80036;stroke-width:1.0;"/><polygon fill="#000000" points="563.5506,1425.4811,560.3606,1416.5215,555.7035,1420.1077,563.5506,1425.4811" style="stroke:#000000;stroke-width:1.0;"/><text fill="#000000" font-family="sans-serif" font-size="13" lengthAdjust="spacing" textLength="77" x="569.5" y="1426.02">measure by</text><text fill="#000000" font-family="sans-serif" font-size="13" lengthAdjust="spacing" textLength="7" x="519.868" y="1402.9692">*</text><text fill="#000000" font-family="sans-serif" font-size="13" lengthAdjust="spacing" textLength="7" x="568.2663" y="1448.8147">*</text><!--MD5=[6eee883fdf517d3604e8bd0f2058e9aa]
link Company to Client--><path codeLine="179" d="M351.261,384.2031 C342.337,393.5031 333.199,403.7631 325.5,413.9531 C314.525,428.4731 303.972,444.8731 294.536,460.8031 " fill="none" id="Company-Client" style="stroke:#A80036;stroke-width:1.0;"/><polygon fill="#000000" points="327.5244,426.5377,335.2691,421.0178,330.5455,417.5197,327.5244,426.5377" style="stroke:#000000;stroke-width:1.0;"/><text fill="#000000" font-family="sans-serif" font-size="13" lengthAdjust="spacing" textLength="23" x="339.5" y="427.02">has</text><text fill="#000000" font-family="sans-serif" font-size="13" lengthAdjust="spacing" textLength="8" x="336.2652" y="403.7251">1</text><text fill="#000000" font-family="sans-serif" font-size="13" lengthAdjust="spacing" textLength="7" x="290.923" y="449.9779">*</text><!--MD5=[742a261f27a3dcd734c626287d811acd]
link Company to TestType--><path codeLine="180" d="M389.5,384.1531 C389.5,421.8231 389.5,482.5231 389.5,534.9531 C389.5,534.9531 389.5,534.9531 389.5,1016.9531 C389.5,1111.2391 378.865,1139.4951 411.5,1227.9531 C415.238,1238.0861 420.356,1248.1641 426.07,1257.7271 " fill="none" id="Company-TestType" style="stroke:#A80036;stroke-width:1.0;"/><polygon fill="#000000" points="394.7091,736.0152,397.2672,726.8551,391.3945,727.1009,394.7091,736.0152" style="stroke:#000000;stroke-width:1.0;"/><text fill="#000000" font-family="sans-serif" font-size="13" lengthAdjust="spacing" textLength="58" x="403.5" y="735.52">conducts</text><text fill="#000000" font-family="sans-serif" font-size="13" lengthAdjust="spacing" textLength="8" x="380.8375" y="403.6668">1</text><text fill="#000000" font-family="sans-serif" font-size="13" lengthAdjust="spacing" textLength="7" x="413.0656" y="1246.6918">*</text><!--MD5=[e762ad85e04cfcc7dafcd50fb023d188]
link TestDTO to TestTypeDTO--><path codeLine="181" d="M1115.2,604.9981 C1117.91,632.5631 1120.96,663.5311 1123.34,687.7421 " fill="none" id="TestDTO-TestTypeDTO" style="stroke:#A80036;stroke-width:1.0;"/><polygon fill="#000000" points="1124.9895,654.4955,1127.0288,645.2061,1121.1792,645.7816,1124.9895,654.4955" style="stroke:#000000;stroke-width:1.0;"/><text fill="#000000" font-family="sans-serif" font-size="13" lengthAdjust="spacing" textLength="23" x="1133.5" y="654.02">has</text><text fill="#000000" font-family="sans-serif" font-size="13" lengthAdjust="spacing" textLength="8" x="1107.4658" y="624.6245">1</text><text fill="#000000" font-family="sans-serif" font-size="13" lengthAdjust="spacing" textLength="8" x="1114.0905" y="677.0224">1</text><!--MD5=[f1e3c231cdc5ae0235e8d278a6ba3656]
link TestDTO to ParameterDTO--><path codeLine="182" d="M1046.45,604.9981 C1021.31,632.5631 993.071,663.5311 970.993,687.7421 " fill="none" id="TestDTO-ParameterDTO" style="stroke:#A80036;stroke-width:1.0;"/><polygon fill="#000000" points="1011.1309,653.214,1019.3972,648.511,1015.0541,644.5503,1011.1309,653.214" style="stroke:#000000;stroke-width:1.0;"/><text fill="#000000" font-family="sans-serif" font-size="13" lengthAdjust="spacing" textLength="23" x="1023.5" y="654.02">has</text><text fill="#000000" font-family="sans-serif" font-size="13" lengthAdjust="spacing" textLength="8" x="1031.9482" y="624.6245">1</text><text fill="#000000" font-family="sans-serif" font-size="13" lengthAdjust="spacing" textLength="8" x="968.2747" y="677.0224">1</text><!--MD5=[185b2b6c1556ca77a74d0f00c423144b]
@startuml
title UC5 - Class Diagram

class RecordSampleUI

class RecordSampleController{
    + validateUser()
    + getTests()
    + getTest(testdto)
    + generateBarcode()
    + setSampleData()
}

class App {
    + getCompany()
    + getCurrentUserSession()
}

class UserSession {
    + isLoggedInWithRole(MEDICAL LAB TECHNICIAN)
}

class Employee {
    String employeeID;
    String name;
    String address;
    String phoneNumber;
    String codeSOC;
}

class Company {
    string designation;
    + getTestStore()
}

class TestStore {
    + getTestByCode(code)
    + getTests()
}

class TestsMapper {
    + toDTO(tests)
}

class ParametersMapper {
    + toDTO(parameters)
}

class TestDTO {
    + String testCode;
    + String testnhsCode;
    + String testDescription;
    + String nameClient;
    + getCode()
}

class TestDTO {
    + String typeCode;
    + String typeDescription;
}

interface ExternalModuleBarcode << interface >>{
    + String generateBarcode()
}

class Test {
    String code;
    String NHSCode;
    String testResult
    String dateSample;
    String timeSmaple;
    String dateChemAnalysis;
    String timeChemAnalysis;
    String dateDiagnosis;
    String timeDiagnosis;
    String dateValidTest;
    String timeValidTest;
    + createSample()
    + addSample()
    + setDateSample()
    + setTimeSample()
    + getTestType()
    + getCode()
    + getNHSCode()
    + getDescription()
    + getTestType()
    + getClient()
    + checkTestState()
}

class Sample {
    String number_barcode
}

class Client {
    String citizenCardNumber;
    String numberNHS;
    String numberTIN;
    String birthDate;
    string sex;
    String phoneNumber;
    string name;
    + getName()
}

class TestType {
    String designation;
    String code;
    String collectingMethods;
    + getCode()
    + getDescription()
    + getMethods()
}

class TestTypeDTO {
    String designation;
    String code;
    String collectingMethods;
}

class Parameter {
    String designation;
    String code;
    + getCode()
    + getDescription()
    + getParameterCategory()
}

class ParameterDTO {
    String designation;
    String code;
    String categoryDescription;
}

class ParameterCategory {
    String code;
    string description;
    String NHSID;
    + getDescriptionPC()
}


RecordSampleUI .-> RecordSampleController
RecordSampleUI .-> TestDTO

RecordSampleController.-> Company
RecordSampleController.-> TestStore
RecordSampleController.-> App
RecordSampleController.-> UserSession
RecordSampleController.-> Test
RecordSampleController.-> TestDTO
RecordSampleController.-> TestsMapper

TestStore "1" - - "*" Test: contains >
Test "1" - - "*" Sample: contains >
Test "*" - - "1" ExternalModuleBarcode: uses >
Test "1" - - "1..*" Parameter: has >
Test "1" - - "1" TestType: is of >

Company "1" - - "1" TestStore: has >
Company "1" - - "*" Employee: has >
Employee "1" <|- - "*" MedicalLabTechnician
MedicalLabTechnician "1" - - "*" Sample: records >
MedicalLabTechnician "1" - - "*" Test: has access>

TestsMapper .-> TestDTO
TestsMapper .-> Test
TestsMapper .-> ParametersMapper
TestsMapper .-> TestTypeDTO
ParametersMapper .-> ParameterDTO
ParametersMapper .-> Parameter

Sample "*" - - "1" ExternalModuleBarcode: keeps the data returned by>

Client "1" - - "*" Test: does a >
Client "*" - - "1" MedicalLabTechnician: is tested by >

Parameter "*" - - "1" ParameterCategory: presented under >
TestType "*" - - "*"  ParameterCategory: measure by >
Company "1" - - "*" Client: has >
Company "1" - - "*" TestType: conducts >
TestDTO "1" - - "1" TestTypeDTO: has >
TestDTO "1" - - "1" ParameterDTO: has >
@enduml

PlantUML version 1.2021.7(Sun May 23 12:40:07 UTC 2021)
(GPL source distribution)
Java Runtime: Java(TM) SE Runtime Environment
JVM: Java HotSpot(TM) 64-Bit Server VM
Default Encoding: UTF-8
Language: en
Country: US
--></g></svg>