<?xml version="1.0" encoding="UTF-8" standalone="no"?><svg xmlns="http://www.w3.org/2000/svg" xmlns:xlink="http://www.w3.org/1999/xlink" contentScriptType="application/ecmascript" contentStyleType="text/css" height="329px" preserveAspectRatio="none" style="width:470px;height:329px;background:#FFFFFF;" version="1.1" viewBox="0 0 470 329" width="470px" zoomAndPan="magnify"><defs><filter height="300%" id="fw0i0fegusg7t" width="300%" x="-1" y="-1"><feGaussianBlur result="blurOut" stdDeviation="2.0"/><feColorMatrix in="blurOut" result="blurOut2" type="matrix" values="0 0 0 0 0 0 0 0 0 0 0 0 0 0 0 0 0 0 .4 0"/><feOffset dx="4.0" dy="4.0" in="blurOut2" result="blurOut3"/><feBlend in="SourceGraphic" in2="blurOut3" mode="normal"/></filter></defs><g><!--MD5=[5d1067525748def49708bb23e378646e]
class ExternalModuleBarcode--><rect codeLine="11" fill="#FEFECE" filter="url(#fw0i0fegusg7t)" height="58.7422" id="ExternalModuleBarcode" style="stroke:#A80036;stroke-width:1.5;" width="174" x="265" y="12"/><ellipse cx="280" cy="30.9688" fill="#B4A7E5" rx="11" ry="11" style="stroke:#A80036;stroke-width:1.0;"/><path d="M280.9531,27.75 L282.6719,27.75 C283.0625,27.75 283.25,27.7188 283.375,27.6406 C283.6406,27.4844 283.7813,27.2031 283.7813,26.9063 C283.7813,26.6406 283.6719,26.375 283.4375,26.2031 C283.2656,26.0938 283.125,26.0625 282.6719,26.0625 L277.5313,26.0625 C277.0938,26.0625 276.9688,26.0781 276.8125,26.1719 C276.5625,26.3281 276.4063,26.625 276.4063,26.9063 C276.4063,27.1875 276.5469,27.4375 276.7656,27.6094 C276.9219,27.7188 277.1094,27.75 277.5313,27.75 L279.25,27.75 L279.25,34.2656 L277.5313,34.2656 C277.0938,34.2656 276.9688,34.2813 276.8125,34.3906 C276.5625,34.5469 276.4063,34.8281 276.4063,35.125 C276.4063,35.375 276.5469,35.6406 276.7656,35.7969 C276.9219,35.9219 277.125,35.9688 277.5313,35.9688 L282.6719,35.9688 C283.4219,35.9688 283.7813,35.6875 283.7813,35.125 C283.7813,34.8438 283.6719,34.5938 283.4375,34.4219 C283.2656,34.2969 283.125,34.2656 282.6719,34.2656 L280.9531,34.2656 L280.9531,27.75 Z " fill="#000000"/><text fill="#000000" font-family="sans-serif" font-size="12" font-style="italic" lengthAdjust="spacing" textLength="67" x="331.5" y="28.1387">«interface»</text><text fill="#000000" font-family="sans-serif" font-size="12" font-style="italic" lengthAdjust="spacing" textLength="142" x="294" y="42.1074">ExternalModuleBarcode</text><line style="stroke:#A80036;stroke-width:1.5;" x1="266" x2="438" y1="49.9375" y2="49.9375"/><text fill="#000000" font-family="sans-serif" font-size="11" lengthAdjust="spacing" textLength="154" x="271" y="64.1479">+String generateBarcode()</text><path d="M6,6 L6,76.5313 A0,0 0 0 0 6,76.5313 L230,76.5313 A0,0 0 0 0 230,76.5313 L230,45.5 L264.621,41.5 L230,37.5 L230,16 L220,6 L6,6 A0,0 0 0 0 6,6 " fill="#FBFB77" filter="url(#fw0i0fegusg7t)" style="stroke:#A80036;stroke-width:1.0;"/><path d="M220,6 L220,16 L230,16 L220,6 " fill="#FBFB77" style="stroke:#A80036;stroke-width:1.0;"/><text fill="#000000" font-family="sans-serif" font-size="13" lengthAdjust="spacing" textLength="190" x="12" y="23.0669">This interface will be targeted</text><text fill="#000000" font-family="sans-serif" font-size="13" lengthAdjust="spacing" textLength="184" x="12" y="38.1997">of multiple implementations,</text><text fill="#000000" font-family="sans-serif" font-size="13" lengthAdjust="spacing" textLength="203" x="12" y="53.3325">one for each external algorithm</text><text fill="#000000" font-family="sans-serif" font-size="13" lengthAdjust="spacing" textLength="163" x="12" y="68.4653">that has to be supported.</text><!--MD5=[ad943ab9de17df2d06f3af5e01f9cd58]
class GenerateBarcode--><rect codeLine="16" fill="#FEFECE" filter="url(#fw0i0fegusg7t)" height="65.6094" id="GenerateBarcode" style="stroke:#A80036;stroke-width:1.5;" width="177" x="263.5" y="137"/><ellipse cx="295.6" cy="153" fill="#ADD1B2" rx="11" ry="11" style="stroke:#A80036;stroke-width:1.0;"/><path d="M297.9438,148.6719 C297.0063,148.2344 296.4125,148.0938 295.5375,148.0938 C292.9125,148.0938 290.9125,150.1719 290.9125,152.8906 L290.9125,154.0156 C290.9125,156.5938 293.0219,158.4844 295.9125,158.4844 C297.1313,158.4844 298.2875,158.1875 299.0375,157.6406 C299.6156,157.2344 299.9438,156.7813 299.9438,156.3906 C299.9438,155.9375 299.5531,155.5469 299.0844,155.5469 C298.8656,155.5469 298.6625,155.625 298.475,155.8125 C298.0219,156.2969 298.0219,156.2969 297.8344,156.3906 C297.4125,156.6563 296.725,156.7813 295.9594,156.7813 C293.9125,156.7813 292.6156,155.6875 292.6156,153.9844 L292.6156,152.8906 C292.6156,151.1094 293.8656,149.7969 295.6,149.7969 C296.1781,149.7969 296.7875,149.9531 297.2563,150.2031 C297.7406,150.4844 297.9125,150.7031 298.0063,151.1094 C298.0688,151.5156 298.1,151.6406 298.2406,151.7656 C298.3813,151.9063 298.6156,152.0156 298.8344,152.0156 C299.1,152.0156 299.3656,151.875 299.5375,151.6563 C299.6469,151.5 299.6781,151.3125 299.6781,150.8906 L299.6781,149.4688 C299.6781,149.0313 299.6625,148.9063 299.5688,148.75 C299.4125,148.4844 299.1313,148.3438 298.8344,148.3438 C298.5375,148.3438 298.3344,148.4375 298.1156,148.75 L297.9438,148.6719 Z " fill="#000000"/><text fill="#000000" font-family="sans-serif" font-size="12" lengthAdjust="spacing" textLength="107" x="313.4" y="157.1543">GenerateBarcode</text><line style="stroke:#A80036;stroke-width:1.5;" x1="264.5" x2="439.5" y1="169" y2="169"/><text fill="#000000" font-family="sans-serif" font-size="11" lengthAdjust="spacing" textLength="154" x="269.5" y="183.2104">+String generateBarcode()</text><text fill="#000000" font-family="sans-serif" font-size="11" lengthAdjust="spacing" textLength="165" x="269.5" y="196.0151">+String getNumberBarcode()</text><!--MD5=[ceec499941a4b1e23bf576f2990db842]
class BarbecueAPI--><rect codeLine="21" fill="#FEFECE" filter="url(#fw0i0fegusg7t)" height="52.8047" id="BarbecueAPI" style="stroke:#A80036;stroke-width:1.5;" width="209" x="247.5" y="263"/><ellipse cx="310.25" cy="279" fill="#ADD1B2" rx="11" ry="11" style="stroke:#A80036;stroke-width:1.0;"/><path d="M312.5938,274.6719 C311.6563,274.2344 311.0625,274.0938 310.1875,274.0938 C307.5625,274.0938 305.5625,276.1719 305.5625,278.8906 L305.5625,280.0156 C305.5625,282.5938 307.6719,284.4844 310.5625,284.4844 C311.7813,284.4844 312.9375,284.1875 313.6875,283.6406 C314.2656,283.2344 314.5938,282.7813 314.5938,282.3906 C314.5938,281.9375 314.2031,281.5469 313.7344,281.5469 C313.5156,281.5469 313.3125,281.625 313.125,281.8125 C312.6719,282.2969 312.6719,282.2969 312.4844,282.3906 C312.0625,282.6563 311.375,282.7813 310.6094,282.7813 C308.5625,282.7813 307.2656,281.6875 307.2656,279.9844 L307.2656,278.8906 C307.2656,277.1094 308.5156,275.7969 310.25,275.7969 C310.8281,275.7969 311.4375,275.9531 311.9063,276.2031 C312.3906,276.4844 312.5625,276.7031 312.6563,277.1094 C312.7188,277.5156 312.75,277.6406 312.8906,277.7656 C313.0313,277.9063 313.2656,278.0156 313.4844,278.0156 C313.75,278.0156 314.0156,277.875 314.1875,277.6563 C314.2969,277.5 314.3281,277.3125 314.3281,276.8906 L314.3281,275.4688 C314.3281,275.0313 314.3125,274.9063 314.2188,274.75 C314.0625,274.4844 313.7813,274.3438 313.4844,274.3438 C313.1875,274.3438 312.9844,274.4375 312.7656,274.75 L312.5938,274.6719 Z " fill="#000000"/><text fill="#000000" font-family="sans-serif" font-size="12" lengthAdjust="spacing" textLength="75" x="330.75" y="283.1543">BarbecueAPI</text><line style="stroke:#A80036;stroke-width:1.5;" x1="248.5" x2="455.5" y1="295" y2="295"/><text fill="#000000" font-family="sans-serif" font-size="11" lengthAdjust="spacing" textLength="197" x="253.5" y="309.2104">+Barcode createUPCA(String data)</text><!--MD5=[55fa1df5cea00d9436ce8cc813974526]
reverse link ExternalModuleBarcode to GenerateBarcode--><path codeLine="25" d="M352,91.274 C352,106.552 352,123.02 352,136.849 " fill="none" id="ExternalModuleBarcode-backto-GenerateBarcode" style="stroke:#A80036;stroke-width:1.0;stroke-dasharray:7.0,7.0;"/><polygon fill="none" points="345,91.205,352,71.205,359,91.205,345,91.205" style="stroke:#A80036;stroke-width:1.0;"/><!--MD5=[f85ddc93fbce26ee613af9c534dad4d9]
link GenerateBarcode to BarbecueAPI--><path codeLine="26" d="M352,203.107 C352,220.103 352,240.8726 352,257.6726 " fill="none" id="GenerateBarcode-to-BarbecueAPI" style="stroke:#A80036;stroke-width:1.0;"/><polygon fill="#A80036" points="352,262.7505,356,253.7505,352,257.7505,348,253.7505,352,262.7505" style="stroke:#A80036;stroke-width:1.0;"/><!--MD5=[161ba82bc300ec13bd682a7c05fafe2e]
@startuml
skinparam classAttributeIconSize 0
hide attributes

note left of ExternalModuleBarcode 
This interface will be targeted
of multiple implementations,
one for each external algorithm
that has to be supported.
end note

interface ExternalModuleBarcode << interface >> {
    +String generateBarcode()
}


class GenerateBarcode{
    + String generateBarcode()
    + String getNumberBarcode()
}

class BarbecueAPI {
   +Barcode createUPCA(String data)
}

ExternalModuleBarcode <|.. GenerateBarcode
GenerateBarcode-d->  BarbecueAPI
@enduml

PlantUML version 1.2021.7(Sun May 23 12:40:07 UTC 2021)
(GPL source distribution)
Java Runtime: Java(TM) SE Runtime Environment
JVM: Java HotSpot(TM) 64-Bit Server VM
Default Encoding: UTF-8
Language: en
Country: US
--></g></svg>