<?xml version="1.0" encoding="UTF-8" standalone="no"?><svg xmlns="http://www.w3.org/2000/svg" xmlns:xlink="http://www.w3.org/1999/xlink" contentScriptType="application/ecmascript" contentStyleType="text/css" height="873px" preserveAspectRatio="none" style="width:550px;height:873px;background:#FFFFFF;" version="1.1" viewBox="0 0 550 873" width="550px" zoomAndPan="magnify"><defs><filter height="300%" id="fmueinl0jh45l" width="300%" x="-1" y="-1"><feGaussianBlur result="blurOut" stdDeviation="2.0"/><feColorMatrix in="blurOut" result="blurOut2" type="matrix" values="0 0 0 0 0 0 0 0 0 0 0 0 0 0 0 0 0 0 .4 0"/><feOffset dx="4.0" dy="4.0" in="blurOut2" result="blurOut3"/><feBlend in="SourceGraphic" in2="blurOut3" mode="normal"/></filter></defs><g><!--MD5=[7421f545a0d8420c5bec41e74b387d9c]
class Employee--><rect codeLine="1" fill="#FEFECE" filter="url(#fmueinl0jh45l)" height="112.0234" id="Employee" style="stroke:#A80036;stroke-width:1.5;" width="133" x="283.7805" y="145"/><ellipse cx="317.2305" cy="161" fill="#ADD1B2" rx="11" ry="11" style="stroke:#A80036;stroke-width:1.0;"/><path d="M319.5743,156.6719 C318.6368,156.2344 318.043,156.0938 317.168,156.0938 C314.543,156.0938 312.543,158.1719 312.543,160.8906 L312.543,162.0156 C312.543,164.5938 314.6524,166.4844 317.543,166.4844 C318.7618,166.4844 319.918,166.1875 320.668,165.6406 C321.2462,165.2344 321.5743,164.7813 321.5743,164.3906 C321.5743,163.9375 321.1837,163.5469 320.7149,163.5469 C320.4962,163.5469 320.293,163.625 320.1055,163.8125 C319.6524,164.2969 319.6524,164.2969 319.4649,164.3906 C319.043,164.6563 318.3555,164.7813 317.5899,164.7813 C315.543,164.7813 314.2462,163.6875 314.2462,161.9844 L314.2462,160.8906 C314.2462,159.1094 315.4962,157.7969 317.2305,157.7969 C317.8087,157.7969 318.418,157.9531 318.8868,158.2031 C319.3712,158.4844 319.543,158.7031 319.6368,159.1094 C319.6993,159.5156 319.7305,159.6406 319.8712,159.7656 C320.0118,159.9063 320.2462,160.0156 320.4649,160.0156 C320.7305,160.0156 320.9962,159.875 321.168,159.6563 C321.2774,159.5 321.3087,159.3125 321.3087,158.8906 L321.3087,157.4688 C321.3087,157.0313 321.293,156.9063 321.1993,156.75 C321.043,156.4844 320.7618,156.3438 320.4649,156.3438 C320.168,156.3438 319.9649,156.4375 319.7462,156.75 L319.5743,156.6719 Z " fill="#000000"/><text fill="#000000" font-family="sans-serif" font-size="12" lengthAdjust="spacing" textLength="60" x="335.3305" y="165.1543">Employee</text><line style="stroke:#A80036;stroke-width:1.5;" x1="284.7805" x2="415.7805" y1="177" y2="177"/><text fill="#000000" font-family="sans-serif" font-size="11" lengthAdjust="spacing" textLength="111" x="289.7805" y="191.2104">String employeeID;</text><text fill="#000000" font-family="sans-serif" font-size="11" lengthAdjust="spacing" textLength="73" x="289.7805" y="204.0151">String name;</text><text fill="#000000" font-family="sans-serif" font-size="11" lengthAdjust="spacing" textLength="78" x="289.7805" y="216.8198">String adress;</text><text fill="#000000" font-family="sans-serif" font-size="11" lengthAdjust="spacing" textLength="121" x="289.7805" y="229.6245">String phoneNumber;</text><text fill="#000000" font-family="sans-serif" font-size="11" lengthAdjust="spacing" textLength="93" x="289.7805" y="242.4292">String codeSOC;</text><line style="stroke:#A80036;stroke-width:1.5;" x1="284.7805" x2="415.7805" y1="249.0234" y2="249.0234"/><!--MD5=[ed6624c6556d5e7b1bd23032162d20b7]
class Client--><rect codeLine="10" fill="#FEFECE" filter="url(#fmueinl0jh45l)" height="137.6328" id="Client" style="stroke:#A80036;stroke-width:1.5;" width="161" x="13.781" y="722"/><ellipse cx="73.531" cy="738" fill="#ADD1B2" rx="11" ry="11" style="stroke:#A80036;stroke-width:1.0;"/><path d="M75.8748,733.6719 C74.9373,733.2344 74.3435,733.0938 73.4685,733.0938 C70.8435,733.0938 68.8435,735.1719 68.8435,737.8906 L68.8435,739.0156 C68.8435,741.5938 70.9529,743.4844 73.8435,743.4844 C75.0623,743.4844 76.2185,743.1875 76.9685,742.6406 C77.5466,742.2344 77.8748,741.7813 77.8748,741.3906 C77.8748,740.9375 77.4841,740.5469 77.0154,740.5469 C76.7966,740.5469 76.5935,740.625 76.406,740.8125 C75.9529,741.2969 75.9529,741.2969 75.7654,741.3906 C75.3435,741.6563 74.656,741.7813 73.8904,741.7813 C71.8435,741.7813 70.5466,740.6875 70.5466,738.9844 L70.5466,737.8906 C70.5466,736.1094 71.7966,734.7969 73.531,734.7969 C74.1091,734.7969 74.7185,734.9531 75.1873,735.2031 C75.6716,735.4844 75.8435,735.7031 75.9373,736.1094 C75.9998,736.5156 76.031,736.6406 76.1716,736.7656 C76.3123,736.9063 76.5466,737.0156 76.7654,737.0156 C77.031,737.0156 77.2966,736.875 77.4685,736.6563 C77.5779,736.5 77.6091,736.3125 77.6091,735.8906 L77.6091,734.4688 C77.6091,734.0313 77.5935,733.9063 77.4998,733.75 C77.3435,733.4844 77.0623,733.3438 76.7654,733.3438 C76.4685,733.3438 76.2654,733.4375 76.0466,733.75 L75.8748,733.6719 Z " fill="#000000"/><text fill="#000000" font-family="sans-serif" font-size="12" lengthAdjust="spacing" textLength="33" x="94.031" y="742.1543">Client</text><line style="stroke:#A80036;stroke-width:1.5;" x1="14.781" x2="173.781" y1="754" y2="754"/><text fill="#000000" font-family="sans-serif" font-size="11" lengthAdjust="spacing" textLength="149" x="19.781" y="768.2104">String citizenCardNumber;</text><text fill="#000000" font-family="sans-serif" font-size="11" lengthAdjust="spacing" textLength="108" x="19.781" y="781.0151">String numberNHS;</text><text fill="#000000" font-family="sans-serif" font-size="11" lengthAdjust="spacing" textLength="102" x="19.781" y="793.8198">String numberTIN;</text><text fill="#000000" font-family="sans-serif" font-size="11" lengthAdjust="spacing" textLength="93" x="19.781" y="806.6245">String birthDate;</text><text fill="#000000" font-family="sans-serif" font-size="11" lengthAdjust="spacing" textLength="59" x="19.781" y="819.4292">string sex;</text><text fill="#000000" font-family="sans-serif" font-size="11" lengthAdjust="spacing" textLength="121" x="19.781" y="832.2339">String phoneNumber;</text><text fill="#000000" font-family="sans-serif" font-size="11" lengthAdjust="spacing" textLength="71" x="19.781" y="845.0386">string name;</text><line style="stroke:#A80036;stroke-width:1.5;" x1="14.781" x2="173.781" y1="851.6328" y2="851.6328"/><!--MD5=[02e4b9b7573f1156f41e60aa5b4e25a4]
class Company--><rect codeLine="20" fill="#FEFECE" filter="url(#fmueinl0jh45l)" height="60.8047" id="Company" style="stroke:#A80036;stroke-width:1.5;" width="118" x="291.2805" y="7"/><ellipse cx="319.7805" cy="23" fill="#ADD1B2" rx="11" ry="11" style="stroke:#A80036;stroke-width:1.0;"/><path d="M322.1243,18.6719 C321.1868,18.2344 320.593,18.0938 319.718,18.0938 C317.093,18.0938 315.093,20.1719 315.093,22.8906 L315.093,24.0156 C315.093,26.5938 317.2024,28.4844 320.093,28.4844 C321.3118,28.4844 322.468,28.1875 323.218,27.6406 C323.7962,27.2344 324.1243,26.7813 324.1243,26.3906 C324.1243,25.9375 323.7337,25.5469 323.2649,25.5469 C323.0462,25.5469 322.843,25.625 322.6555,25.8125 C322.2024,26.2969 322.2024,26.2969 322.0149,26.3906 C321.593,26.6563 320.9055,26.7813 320.1399,26.7813 C318.093,26.7813 316.7962,25.6875 316.7962,23.9844 L316.7962,22.8906 C316.7962,21.1094 318.0462,19.7969 319.7805,19.7969 C320.3587,19.7969 320.968,19.9531 321.4368,20.2031 C321.9212,20.4844 322.093,20.7031 322.1868,21.1094 C322.2493,21.5156 322.2805,21.6406 322.4212,21.7656 C322.5618,21.9063 322.7962,22.0156 323.0149,22.0156 C323.2805,22.0156 323.5462,21.875 323.718,21.6563 C323.8274,21.5 323.8587,21.3125 323.8587,20.8906 L323.8587,19.4688 C323.8587,19.0313 323.843,18.9063 323.7493,18.75 C323.593,18.4844 323.3118,18.3438 323.0149,18.3438 C322.718,18.3438 322.5149,18.4375 322.2962,18.75 L322.1243,18.6719 Z " fill="#000000"/><text fill="#000000" font-family="sans-serif" font-size="12" lengthAdjust="spacing" textLength="56" x="336.7805" y="27.1543">Company</text><line style="stroke:#A80036;stroke-width:1.5;" x1="292.2805" x2="408.2805" y1="39" y2="39"/><text fill="#000000" font-family="sans-serif" font-size="11" lengthAdjust="spacing" textLength="106" x="297.2805" y="53.2104">String designation;</text><line style="stroke:#A80036;stroke-width:1.5;" x1="292.2805" x2="408.2805" y1="59.8047" y2="59.8047"/><!--MD5=[df38be88ccee13e832d6fafd6288a4ca]
class Test--><rect codeLine="26" fill="#FEFECE" filter="url(#fmueinl0jh45l)" height="188.8516" id="Test" style="stroke:#A80036;stroke-width:1.5;" width="159" x="57.781" y="456"/><ellipse cx="120.031" cy="472" fill="#ADD1B2" rx="11" ry="11" style="stroke:#A80036;stroke-width:1.0;"/><path d="M122.3748,467.6719 C121.4373,467.2344 120.8435,467.0938 119.9685,467.0938 C117.3435,467.0938 115.3435,469.1719 115.3435,471.8906 L115.3435,473.0156 C115.3435,475.5938 117.4529,477.4844 120.3435,477.4844 C121.5623,477.4844 122.7185,477.1875 123.4685,476.6406 C124.0467,476.2344 124.3748,475.7813 124.3748,475.3906 C124.3748,474.9375 123.9842,474.5469 123.5154,474.5469 C123.2967,474.5469 123.0935,474.625 122.906,474.8125 C122.4529,475.2969 122.4529,475.2969 122.2654,475.3906 C121.8435,475.6563 121.156,475.7813 120.3904,475.7813 C118.3435,475.7813 117.0467,474.6875 117.0467,472.9844 L117.0467,471.8906 C117.0467,470.1094 118.2967,468.7969 120.031,468.7969 C120.6092,468.7969 121.2185,468.9531 121.6873,469.2031 C122.1717,469.4844 122.3435,469.7031 122.4373,470.1094 C122.4998,470.5156 122.531,470.6406 122.6717,470.7656 C122.8123,470.9063 123.0467,471.0156 123.2654,471.0156 C123.531,471.0156 123.7967,470.875 123.9685,470.6563 C124.0779,470.5 124.1092,470.3125 124.1092,469.8906 L124.1092,468.4688 C124.1092,468.0313 124.0935,467.9063 123.9998,467.75 C123.8435,467.4844 123.5623,467.3438 123.2654,467.3438 C122.9685,467.3438 122.7654,467.4375 122.5467,467.75 L122.3748,467.6719 Z " fill="#000000"/><text fill="#000000" font-family="sans-serif" font-size="12" lengthAdjust="spacing" textLength="26" x="140.531" y="476.1543">Test</text><line style="stroke:#A80036;stroke-width:1.5;" x1="58.781" x2="215.781" y1="488" y2="488"/><text fill="#000000" font-family="sans-serif" font-size="11" lengthAdjust="spacing" textLength="68" x="63.781" y="502.2104">String code;</text><text fill="#000000" font-family="sans-serif" font-size="11" lengthAdjust="spacing" textLength="94" x="63.781" y="515.0151">String NHSCode;</text><text fill="#000000" font-family="sans-serif" font-size="11" lengthAdjust="spacing" textLength="102" x="63.781" y="527.8198">String description;</text><text fill="#000000" font-family="sans-serif" font-size="11" lengthAdjust="spacing" textLength="110" x="63.781" y="540.6245">String dateSample;</text><text fill="#000000" font-family="sans-serif" font-size="11" lengthAdjust="spacing" textLength="110" x="63.781" y="553.4292">String timeSmaple;</text><text fill="#000000" font-family="sans-serif" font-size="11" lengthAdjust="spacing" textLength="147" x="63.781" y="566.2339">String dateChemAnalysis;</text><text fill="#000000" font-family="sans-serif" font-size="11" lengthAdjust="spacing" textLength="147" x="63.781" y="579.0386">String timeChemAnalysis;</text><text fill="#000000" font-family="sans-serif" font-size="11" lengthAdjust="spacing" textLength="121" x="63.781" y="591.8433">String dateDiagnosis;</text><text fill="#000000" font-family="sans-serif" font-size="11" lengthAdjust="spacing" textLength="121" x="63.781" y="604.6479">String timeDiagnosis;</text><text fill="#000000" font-family="sans-serif" font-size="11" lengthAdjust="spacing" textLength="119" x="63.781" y="617.4526">String dateValidTest;</text><text fill="#000000" font-family="sans-serif" font-size="11" lengthAdjust="spacing" textLength="119" x="63.781" y="630.2573">String timeValidTest;</text><line style="stroke:#A80036;stroke-width:1.5;" x1="58.781" x2="215.781" y1="636.8516" y2="636.8516"/><!--MD5=[f00dbe8c0302c6aec2cb26b3c659c8fc]
class Report--><rect codeLine="40" fill="#FEFECE" filter="url(#fmueinl0jh45l)" height="60.8047" id="Report" style="stroke:#A80036;stroke-width:1.5;" width="75" x="251.7805" y="520"/><ellipse cx="268.1305" cy="536" fill="#ADD1B2" rx="11" ry="11" style="stroke:#A80036;stroke-width:1.0;"/><path d="M270.4743,531.6719 C269.5368,531.2344 268.943,531.0938 268.068,531.0938 C265.443,531.0938 263.443,533.1719 263.443,535.8906 L263.443,537.0156 C263.443,539.5938 265.5524,541.4844 268.443,541.4844 C269.6618,541.4844 270.818,541.1875 271.568,540.6406 C272.1462,540.2344 272.4743,539.7813 272.4743,539.3906 C272.4743,538.9375 272.0837,538.5469 271.6149,538.5469 C271.3962,538.5469 271.193,538.625 271.0055,538.8125 C270.5524,539.2969 270.5524,539.2969 270.3649,539.3906 C269.943,539.6563 269.2555,539.7813 268.4899,539.7813 C266.443,539.7813 265.1462,538.6875 265.1462,536.9844 L265.1462,535.8906 C265.1462,534.1094 266.3962,532.7969 268.1305,532.7969 C268.7087,532.7969 269.318,532.9531 269.7868,533.2031 C270.2712,533.4844 270.443,533.7031 270.5368,534.1094 C270.5993,534.5156 270.6305,534.6406 270.7712,534.7656 C270.9118,534.9063 271.1462,535.0156 271.3649,535.0156 C271.6305,535.0156 271.8962,534.875 272.068,534.6563 C272.1774,534.5 272.2087,534.3125 272.2087,533.8906 L272.2087,532.4688 C272.2087,532.0313 272.193,531.9063 272.0993,531.75 C271.943,531.4844 271.6618,531.3438 271.3649,531.3438 C271.068,531.3438 270.8649,531.4375 270.6462,531.75 L270.4743,531.6719 Z " fill="#000000"/><text fill="#000000" font-family="sans-serif" font-size="12" lengthAdjust="spacing" textLength="40" x="282.4305" y="540.1543">Report</text><line style="stroke:#A80036;stroke-width:1.5;" x1="252.7805" x2="325.7805" y1="552" y2="552"/><text fill="#000000" font-family="sans-serif" font-size="11" lengthAdjust="spacing" textLength="63" x="257.7805" y="566.2104">String text;</text><line style="stroke:#A80036;stroke-width:1.5;" x1="252.7805" x2="325.7805" y1="572.8047" y2="572.8047"/><!--MD5=[10d06bcee75aaf74ab8f6040820ceef2]
class Diagnosis--><rect codeLine="43" fill="#FEFECE" filter="url(#fmueinl0jh45l)" height="48" id="Diagnosis" style="stroke:#A80036;stroke-width:1.5;" width="91" x="351.7805" y="767"/><ellipse cx="366.7805" cy="783" fill="#ADD1B2" rx="11" ry="11" style="stroke:#A80036;stroke-width:1.0;"/><path d="M369.1243,778.6719 C368.1868,778.2344 367.593,778.0938 366.718,778.0938 C364.093,778.0938 362.093,780.1719 362.093,782.8906 L362.093,784.0156 C362.093,786.5938 364.2024,788.4844 367.093,788.4844 C368.3118,788.4844 369.468,788.1875 370.218,787.6406 C370.7962,787.2344 371.1243,786.7813 371.1243,786.3906 C371.1243,785.9375 370.7337,785.5469 370.2649,785.5469 C370.0462,785.5469 369.843,785.625 369.6555,785.8125 C369.2024,786.2969 369.2024,786.2969 369.0149,786.3906 C368.593,786.6563 367.9055,786.7813 367.1399,786.7813 C365.093,786.7813 363.7962,785.6875 363.7962,783.9844 L363.7962,782.8906 C363.7962,781.1094 365.0462,779.7969 366.7805,779.7969 C367.3587,779.7969 367.968,779.9531 368.4368,780.2031 C368.9212,780.4844 369.093,780.7031 369.1868,781.1094 C369.2493,781.5156 369.2805,781.6406 369.4212,781.7656 C369.5618,781.9063 369.7962,782.0156 370.0149,782.0156 C370.2805,782.0156 370.5462,781.875 370.718,781.6563 C370.8274,781.5 370.8587,781.3125 370.8587,780.8906 L370.8587,779.4688 C370.8587,779.0313 370.843,778.9063 370.7493,778.75 C370.593,778.4844 370.3118,778.3438 370.0149,778.3438 C369.718,778.3438 369.5149,778.4375 369.2962,778.75 L369.1243,778.6719 Z " fill="#000000"/><text fill="#000000" font-family="sans-serif" font-size="12" lengthAdjust="spacing" textLength="59" x="380.7805" y="787.1543">Diagnosis</text><line style="stroke:#A80036;stroke-width:1.5;" x1="352.7805" x2="441.7805" y1="799" y2="799"/><line style="stroke:#A80036;stroke-width:1.5;" x1="352.7805" x2="441.7805" y1="807" y2="807"/><!--MD5=[7d96fd15f3014691d2fcaf89c5791e2a]
class SpecialistDoctor--><rect codeLine="45" fill="#FEFECE" filter="url(#fmueinl0jh45l)" height="60.8047" id="SpecialistDoctor" style="stroke:#A80036;stroke-width:1.5;" width="145" x="277.7805" y="318"/><ellipse cx="299.0805" cy="334" fill="#ADD1B2" rx="11" ry="11" style="stroke:#A80036;stroke-width:1.0;"/><path d="M301.4243,329.6719 C300.4868,329.2344 299.893,329.0938 299.018,329.0938 C296.393,329.0938 294.393,331.1719 294.393,333.8906 L294.393,335.0156 C294.393,337.5938 296.5024,339.4844 299.393,339.4844 C300.6118,339.4844 301.768,339.1875 302.518,338.6406 C303.0962,338.2344 303.4243,337.7813 303.4243,337.3906 C303.4243,336.9375 303.0337,336.5469 302.5649,336.5469 C302.3462,336.5469 302.143,336.625 301.9555,336.8125 C301.5024,337.2969 301.5024,337.2969 301.3149,337.3906 C300.893,337.6563 300.2055,337.7813 299.4399,337.7813 C297.393,337.7813 296.0962,336.6875 296.0962,334.9844 L296.0962,333.8906 C296.0962,332.1094 297.3462,330.7969 299.0805,330.7969 C299.6587,330.7969 300.268,330.9531 300.7368,331.2031 C301.2212,331.4844 301.393,331.7031 301.4868,332.1094 C301.5493,332.5156 301.5805,332.6406 301.7212,332.7656 C301.8618,332.9063 302.0962,333.0156 302.3149,333.0156 C302.5805,333.0156 302.8462,332.875 303.018,332.6563 C303.1274,332.5 303.1587,332.3125 303.1587,331.8906 L303.1587,330.4688 C303.1587,330.0313 303.143,329.9063 303.0493,329.75 C302.893,329.4844 302.6118,329.3438 302.3149,329.3438 C302.018,329.3438 301.8149,329.4375 301.5962,329.75 L301.4243,329.6719 Z " fill="#000000"/><text fill="#000000" font-family="sans-serif" font-size="12" lengthAdjust="spacing" textLength="99" x="314.4805" y="338.1543">SpecialistDoctor</text><line style="stroke:#A80036;stroke-width:1.5;" x1="278.7805" x2="421.7805" y1="350" y2="350"/><text fill="#000000" font-family="sans-serif" font-size="11" lengthAdjust="spacing" textLength="133" x="283.7805" y="364.2104">int doctorIndexNumber;</text><line style="stroke:#A80036;stroke-width:1.5;" x1="278.7805" x2="421.7805" y1="370.8047" y2="370.8047"/><!--MD5=[502b51bc079239060389dab43b7d3470]
link Client to Test--><path codeLine="49" d="M117.9205,721.965 C120.7605,712.005 123.3365,701.802 125.2805,692 C128.2575,676.992 130.4955,660.937 132.1795,645.242 " fill="none" id="Client-Test" style="stroke:#A80036;stroke-width:1.0;"/><polygon fill="#000000" points="134.1941,678.6506,129.652,687.0064,135.4309,688.0804,134.1941,678.6506" style="stroke:#000000;stroke-width:1.0;"/><text fill="#000000" font-family="sans-serif" font-size="13" lengthAdjust="spacing" textLength="43" x="142.2805" y="688.0669">does a</text><text fill="#000000" font-family="sans-serif" font-size="13" lengthAdjust="spacing" textLength="8" x="111.9455" y="711.165">1</text><text fill="#000000" font-family="sans-serif" font-size="13" lengthAdjust="spacing" textLength="7" x="124.5479" y="664.8276">*</text><!--MD5=[3994f36c72829dbcddd1cf7021dddf61]
link Test to Client--><path codeLine="59" d="M57.5562,615.262 C41.1773,632.723 26.2182,652.977 17.281,675 C10.8209,690.919 13.9759,706.916 21.879,721.706 " fill="none" id="Test-Client" style="stroke:#A80036;stroke-width:1.0;"/><polygon fill="#000000" points="20.692,688.3072,26.3531,680.665,20.78,678.797,20.692,688.3072" style="stroke:#000000;stroke-width:1.0;"/><text fill="#000000" font-family="sans-serif" font-size="13" lengthAdjust="spacing" textLength="85" x="31.281" y="688.0669">requested by</text><text fill="#000000" font-family="sans-serif" font-size="13" lengthAdjust="spacing" textLength="7" x="42.8839" y="617.6207">*</text><text fill="#000000" font-family="sans-serif" font-size="13" lengthAdjust="spacing" textLength="8" x="6" y="710.8793">1</text><!--MD5=[372bd27a178b4208a6d241b4516ac7e6]
reverse link Employee to SpecialistDoctor--><path codeLine="51" d="M350.2805,277.191 C350.2805,291.573 350.2805,305.829 350.2805,317.705 " fill="none" id="Employee-backto-SpecialistDoctor" style="stroke:#A80036;stroke-width:1.0;"/><polygon fill="none" points="343.2815,277.007,350.2805,257.007,357.2815,277.007,343.2815,277.007" style="stroke:#A80036;stroke-width:1.0;"/><text fill="#000000" font-family="sans-serif" font-size="13" lengthAdjust="spacing" textLength="8" x="341.768" y="277.2177">1</text><text fill="#000000" font-family="sans-serif" font-size="13" lengthAdjust="spacing" textLength="7" x="342.5587" y="306.9074">*</text><!--MD5=[09366576ee87d48d594df10cacc83f45]
link Company to Employee--><path codeLine="53" d="M350.2805,68.122 C350.2805,89.521 350.2805,119.059 350.2805,144.756 " fill="none" id="Company-Employee" style="stroke:#A80036;stroke-width:1.0;"/><polygon fill="#000000" points="355.2805,111.5664,358.2195,102.5213,352.3416,102.5213,355.2805,111.5664" style="stroke:#000000;stroke-width:1.0;"/><text fill="#000000" font-family="sans-serif" font-size="13" lengthAdjust="spacing" textLength="23" x="364.2805" y="111.0669">has</text><text fill="#000000" font-family="sans-serif" font-size="13" lengthAdjust="spacing" textLength="8" x="341.4555" y="88.0854">1</text><text fill="#000000" font-family="sans-serif" font-size="13" lengthAdjust="spacing" textLength="7" x="342.854" y="134.0608">*</text><!--MD5=[9ea131e34883d590a1cfd41d17f43241]
link Report to Diagnosis--><path codeLine="54" d="M286.4705,581.209 C284.9265,610.698 285.9555,656.502 302.2805,692 C316.2415,722.355 343.6425,749.001 365.4435,766.8158 " fill="none" id="Report-Diagnosis" style="stroke:#A80036;stroke-width:1.0;"/><polygon fill="#000000" points="309.2381,688.1673,308.4011,678.6936,302.9925,680.9949,309.2381,688.1673" style="stroke:#000000;stroke-width:1.0;"/><text fill="#000000" font-family="sans-serif" font-size="13" lengthAdjust="spacing" textLength="54" x="316.2805" y="688.0669">contains</text><text fill="#000000" font-family="sans-serif" font-size="13" lengthAdjust="spacing" textLength="8" x="277.1298" y="600.8306">1</text><text fill="#000000" font-family="sans-serif" font-size="13" lengthAdjust="spacing" textLength="8" x="348.2603" y="755.7809">1</text><!--MD5=[ea4a37a070b547a484eb1acc58a2b0bb]
link SpecialistDoctor to Diagnosis--><path codeLine="55" d="M365.0505,379.106 C369.0705,388.449 372.9535,398.958 375.2805,409 C406.0195,541.641 401.5845,706.841 398.6385,766.8556 " fill="none" id="SpecialistDoctor-Diagnosis" style="stroke:#A80036;stroke-width:1.0;"/><polygon fill="#000000" points="406.712,555.5478,408.8594,546.2828,403.0035,546.79,406.712,555.5478" style="stroke:#000000;stroke-width:1.0;"/><text fill="#000000" font-family="sans-serif" font-size="13" lengthAdjust="spacing" textLength="44" x="415.2805" y="555.0669">checks</text><text fill="#000000" font-family="sans-serif" font-size="13" lengthAdjust="spacing" textLength="8" x="359.2718" y="399.0661">1</text><text fill="#000000" font-family="sans-serif" font-size="13" lengthAdjust="spacing" textLength="7" x="391.0896" y="755.8311">*</text><!--MD5=[ea4a37a070b547a484eb1acc58a2b0bb]
link SpecialistDoctor to Diagnosis--><path codeLine="56" d="M399.4325,379.197 C425.1225,397.722 454.1015,424.101 468.2805,456 C502.4015,532.758 487.2405,563.168 468.2805,645 C457.6525,690.874 430.3965,738.985 412.9145,766.6402 " fill="none" id="SpecialistDoctor-Diagnosis-1" style="stroke:#A80036;stroke-width:1.0;"/><polygon fill="#000000" points="494.4544,555.5634,497.077,546.4216,491.2027,546.626,494.4544,555.5634" style="stroke:#000000;stroke-width:1.0;"/><text fill="#000000" font-family="sans-serif" font-size="13" lengthAdjust="spacing" textLength="39" x="503.2805" y="555.0669">writes</text><text fill="#000000" font-family="sans-serif" font-size="13" lengthAdjust="spacing" textLength="8" x="400.3218" y="398.8162">1</text><text fill="#000000" font-family="sans-serif" font-size="13" lengthAdjust="spacing" textLength="7" x="408.8722" y="755.9572">*</text><!--MD5=[35c5d5b78cc27fdb07caaeeaa436e174]
link SpecialistDoctor to Report--><path codeLine="57" d="M331.4385,379.213 C326.2225,388.473 320.9825,398.908 317.2805,409 C303.7055,446.011 296.2075,491.051 292.4645,519.99 " fill="none" id="SpecialistDoctor-Report" style="stroke:#A80036;stroke-width:1.0;"/><polygon fill="#000000" points="320.9465,422.3851,326.1922,414.4521,320.5274,412.8838,320.9465,422.3851" style="stroke:#000000;stroke-width:1.0;"/><text fill="#000000" font-family="sans-serif" font-size="13" lengthAdjust="spacing" textLength="39" x="331.2805" y="422.0669">writes</text><text fill="#000000" font-family="sans-serif" font-size="13" lengthAdjust="spacing" textLength="8" x="318.9415" y="398.8354">1</text><text fill="#000000" font-family="sans-serif" font-size="13" lengthAdjust="spacing" textLength="7" x="285.3954" y="508.7781">*</text><!--MD5=[314a253aad72a26024b6c8da1dd928d1]
link SpecialistDoctor to Test--><path codeLine="58" d="M278.0015,379.101 C262.2995,387.42 246.4625,397.418 233.2805,409 C217.9685,422.455 203.9355,438.864 191.6065,455.657 " fill="none" id="SpecialistDoctor-Test" style="stroke:#A80036;stroke-width:1.0;"/><polygon fill="#000000" points="234.5383,420.8824,243.2571,417.0833,239.3589,412.6841,234.5383,420.8824" style="stroke:#000000;stroke-width:1.0;"/><text fill="#000000" font-family="sans-serif" font-size="13" lengthAdjust="spacing" textLength="57" x="247.2805" y="422.0669">analyzes</text><text fill="#000000" font-family="sans-serif" font-size="13" lengthAdjust="spacing" textLength="8" x="261.6585" y="378.7125">1</text><text fill="#000000" font-family="sans-serif" font-size="13" lengthAdjust="spacing" textLength="7" x="188.4979" y="444.899">*</text><!--MD5=[6921a89f02b6e15b607e86079187c1c6]
@startuml
class Employee {
    String employeeID;
    String name;
    String adress;
    String phoneNumber;
    String codeSOC;
}


class Client {
    String citizenCardNumber;
    String numberNHS;
    String numberTIN;
    String birthDate;
    string sex;
    String phoneNumber;
    string name;
}

class Company {
    String designation;
}



class Test {
    String code;
    String NHSCode;
    String description;
    String dateSample;
    String timeSmaple;
    String dateChemAnalysis;
    String timeChemAnalysis;
    String dateDiagnosis;
    String timeDiagnosis;
    String dateValidTest;
    String timeValidTest;
}

class Report {
	String text;
}
class Diagnosis

class SpecialistDoctor {
    int doctorIndexNumber;
}    

Client "1" - - "*" Test: does a >

Employee "1" <|- - "*" SpecialistDoctor

Company "1" - - "*" Employee: has >
Report "1" - - "1" Diagnosis: contains >
SpecialistDoctor "1" - - "*" Diagnosis: checks >
SpecialistDoctor "1" - - "*" Diagnosis: writes >
SpecialistDoctor "1" - - "*" Report: writes >
SpecialistDoctor "1" - - "*" Test: analyzes >
Test "*" - - "1" Client: requested by >
@enduml

PlantUML version 1.2021.7beta2(Unknown compile time)
(GPL source distribution)
Java Runtime: Java(TM) SE Runtime Environment
JVM: Java HotSpot(TM) 64-Bit Server VM
Default Encoding: UTF-8
Language: en
Country: US
--></g></svg>