<?xml version="1.0" encoding="UTF-8" standalone="no"?><svg xmlns="http://www.w3.org/2000/svg" xmlns:xlink="http://www.w3.org/1999/xlink" contentScriptType="application/ecmascript" contentStyleType="text/css" height="1549px" preserveAspectRatio="none" style="width:772px;height:1549px;background:#FFFFFF;" version="1.1" viewBox="0 0 772 1549" width="772px" zoomAndPan="magnify"><defs><filter height="300%" id="fpvz4v1gzcrt0" width="300%" x="-1" y="-1"><feGaussianBlur result="blurOut" stdDeviation="2.0"/><feColorMatrix in="blurOut" result="blurOut2" type="matrix" values="0 0 0 0 0 0 0 0 0 0 0 0 0 0 0 0 0 0 .4 0"/><feOffset dx="4.0" dy="4.0" in="blurOut2" result="blurOut3"/><feBlend in="SourceGraphic" in2="blurOut3" mode="normal"/></filter></defs><g><!--MD5=[8ae77ada6169822435c3d3bcb01b6727]
cluster system--><rect fill="#FFFFFF" filter="url(#fpvz4v1gzcrt0)" height="1530" style="stroke:#000000;stroke-width:1.5;" width="484" x="276" y="7"/><text fill="#000000" font-family="sans-serif" font-size="14" font-weight="bold" lengthAdjust="spacing" textLength="59" x="488.5" y="21.9951">system</text><ellipse cx="518.1527" cy="1164.9305" fill="#FEFECE" filter="url(#fpvz4v1gzcrt0)" rx="152.6527" ry="32.9305" style="stroke:#A80036;stroke-width:1.5;"/><text fill="#000000" font-family="sans-serif" font-size="14" lengthAdjust="spacing" textLength="276" x="380.1527" y="1167.7772">UC2,UC6,UC13,UC17: Check the results</text><ellipse cx="518.211" cy="818.9422" fill="#FEFECE" filter="url(#fpvz4v1gzcrt0)" rx="97.711" ry="21.9422" style="stroke:#A80036;stroke-width:1.5;"/><text fill="#000000" font-family="sans-serif" font-size="14" lengthAdjust="spacing" textLength="159" x="438.711" y="821.7889">UC3 : Register a client</text><ellipse cx="517.8318" cy="896.8664" fill="#FEFECE" filter="url(#fpvz4v1gzcrt0)" rx="92.3318" ry="20.8664" style="stroke:#A80036;stroke-width:1.5;"/><text fill="#000000" font-family="sans-serif" font-size="14" lengthAdjust="spacing" textLength="147" x="444.3318" y="899.713">UC4 : Register a test</text><ellipse cx="517.9086" cy="1372.0817" fill="#FEFECE" filter="url(#fpvz4v1gzcrt0)" rx="105.9086" ry="23.5817" style="stroke:#A80036;stroke-width:1.5;"/><text fill="#000000" font-family="sans-serif" font-size="14" lengthAdjust="spacing" textLength="177" x="429.4086" y="1374.9284">UC5 : Record the sample</text><ellipse cx="518.0533" cy="1272.9107" fill="#FEFECE" filter="url(#fpvz4v1gzcrt0)" rx="187.5533" ry="39.9107" style="stroke:#A80036;stroke-width:1.5;"/><text fill="#000000" font-family="sans-serif" font-size="14" lengthAdjust="spacing" textLength="348" x="344.0533" y="1275.7573">UC1 : Record the results of the chemical analysis</text><ellipse cx="517.8631" cy="406.8726" fill="#FEFECE" filter="url(#fpvz4v1gzcrt0)" rx="127.3631" ry="27.8726" style="stroke:#A80036;stroke-width:1.5;"/><text fill="#000000" font-family="sans-serif" font-size="14" lengthAdjust="spacing" textLength="223" x="406.3631" y="409.7193">UC7 : Register a new employee</text><ellipse cx="518.1671" cy="509.0334" fill="#FEFECE" filter="url(#fpvz4v1gzcrt0)" rx="183.1671" ry="39.0334" style="stroke:#A80036;stroke-width:1.5;"/><text fill="#000000" font-family="sans-serif" font-size="14" lengthAdjust="spacing" textLength="339" x="348.6671" y="511.8801">UC8 : Register a new Clinical analysis laboratory</text><ellipse cx="517.7575" cy="631.0515" fill="#FEFECE" filter="url(#fpvz4v1gzcrt0)" rx="225.7575" ry="47.5515" style="stroke:#A80036;stroke-width:1.5;"/><text fill="#000000" font-family="sans-serif" font-size="14" lengthAdjust="spacing" textLength="426" x="304.7575" y="633.8982">UC9 : Specify a new type of test and its collecting methods</text><ellipse cx="518.0876" cy="86.0175" fill="#FEFECE" filter="url(#fpvz4v1gzcrt0)" rx="208.0876" ry="44.0175" style="stroke:#A80036;stroke-width:1.5;"/><text fill="#000000" font-family="sans-serif" font-size="14" lengthAdjust="spacing" textLength="390" x="323.0876" y="88.8642">UC10 : Specify a new test parameter and categorize it</text><ellipse cx="517.7652" cy="200.053" fill="#FEFECE" filter="url(#fpvz4v1gzcrt0)" rx="163.2652" ry="35.053" style="stroke:#A80036;stroke-width:1.5;"/><text fill="#000000" font-family="sans-serif" font-size="14" lengthAdjust="spacing" textLength="298" x="368.7652" y="202.8997">UC11 : Specify a new parameter category</text><ellipse cx="517.9086" cy="977.0817" fill="#FEFECE" filter="url(#fpvz4v1gzcrt0)" rx="105.9086" ry="23.5817" style="stroke:#A80036;stroke-width:1.5;"/><text fill="#000000" font-family="sans-serif" font-size="14" lengthAdjust="spacing" textLength="177" x="429.4086" y="979.9284">UC15 : Validate the work</text><ellipse cx="518.1316" cy="738.2263" fill="#FEFECE" filter="url(#fpvz4v1gzcrt0)" rx="109.1316" ry="24.2263" style="stroke:#A80036;stroke-width:1.5;"/><text fill="#000000" font-family="sans-serif" font-size="14" lengthAdjust="spacing" textLength="184" x="426.1316" y="741.073">UC18 : Consult the results</text><ellipse cx="518.0147" cy="307.1029" fill="#FEFECE" filter="url(#fpvz4v1gzcrt0)" rx="171.0147" ry="36.6029" style="stroke:#A80036;stroke-width:1.5;"/><text fill="#000000" font-family="sans-serif" font-size="14" lengthAdjust="spacing" textLength="314" x="361.0147" y="309.9496">UC12 : Summarize and report Covid-19 data</text><ellipse cx="517.9714" cy="1476.1943" fill="#FEFECE" filter="url(#fpvz4v1gzcrt0)" rx="213.9714" ry="45.1943" style="stroke:#A80036;stroke-width:1.5;"/><text fill="#000000" font-family="sans-serif" font-size="14" lengthAdjust="spacing" textLength="402" x="316.9714" y="1479.041">UC16 : Generate daily automatic reports about covid-19</text><ellipse cx="518.1446" cy="1066.1289" fill="#FEFECE" filter="url(#fpvz4v1gzcrt0)" rx="141.1446" ry="30.6289" style="stroke:#A80036;stroke-width:1.5;"/><text fill="#000000" font-family="sans-serif" font-size="14" lengthAdjust="spacing" textLength="252" x="392.1446" y="1068.9756">UC14 : Write a report and diagnosis</text><!--MD5=[a2a1127a9e0c3d5a4af797120761d109]
entity ad--><ellipse cx="119" cy="326" fill="#FEFECE" filter="url(#fpvz4v1gzcrt0)" rx="8" ry="8" style="stroke:#A80036;stroke-width:1.5;"/><path d="M119,334 L119,361 M106,342 L132,342 M119,361 L106,376 M119,361 L132,376 " fill="none" filter="url(#fpvz4v1gzcrt0)" style="stroke:#A80036;stroke-width:1.5;"/><text fill="#000000" font-family="sans-serif" font-size="14" lengthAdjust="spacing" textLength="100" x="69" y="394.4951">Administrator</text><!--MD5=[979c31051cf8d07bdf927ed864b836ec]
entity cl--><ellipse cx="119" cy="707" fill="#FEFECE" filter="url(#fpvz4v1gzcrt0)" rx="8" ry="8" style="stroke:#A80036;stroke-width:1.5;"/><path d="M119,715 L119,742 M106,723 L132,723 M119,742 L106,757 M119,742 L132,757 " fill="none" filter="url(#fpvz4v1gzcrt0)" style="stroke:#A80036;stroke-width:1.5;"/><text fill="#000000" font-family="sans-serif" font-size="14" lengthAdjust="spacing" textLength="43" x="97.5" y="775.4951">Client</text><!--MD5=[619de47f7aa1106b4a43be6225b576c0]
entity rc--><ellipse cx="119" cy="826" fill="#FEFECE" filter="url(#fpvz4v1gzcrt0)" rx="8" ry="8" style="stroke:#A80036;stroke-width:1.5;"/><path d="M119,834 L119,861 M106,842 L132,842 M119,861 L106,876 M119,861 L132,876 " fill="none" filter="url(#fpvz4v1gzcrt0)" style="stroke:#A80036;stroke-width:1.5;"/><text fill="#000000" font-family="sans-serif" font-size="14" lengthAdjust="spacing" textLength="93" x="72.5" y="894.4951">Receptionist</text><!--MD5=[9b765648a409d02f5ba0bbb9cb84ff33]
entity lc--><ellipse cx="119" cy="948" fill="#FEFECE" filter="url(#fpvz4v1gzcrt0)" rx="8" ry="8" style="stroke:#A80036;stroke-width:1.5;"/><path d="M119,956 L119,983 M106,964 L132,964 M119,983 L106,998 M119,983 L132,998 " fill="none" filter="url(#fpvz4v1gzcrt0)" style="stroke:#A80036;stroke-width:1.5;"/><text fill="#000000" font-family="sans-serif" font-size="14" lengthAdjust="spacing" textLength="169" x="34.5" y="1016.4951">Laboratory Coordinator</text><!--MD5=[1865ce58b93b46dbf0f89b42133fbc97]
entity sd--><ellipse cx="119" cy="1068" fill="#FEFECE" filter="url(#fpvz4v1gzcrt0)" rx="8" ry="8" style="stroke:#A80036;stroke-width:1.5;"/><path d="M119,1076 L119,1103 M106,1084 L132,1084 M119,1103 L106,1118 M119,1103 L132,1118 " fill="none" filter="url(#fpvz4v1gzcrt0)" style="stroke:#A80036;stroke-width:1.5;"/><text fill="#000000" font-family="sans-serif" font-size="14" lengthAdjust="spacing" textLength="124" x="57" y="1136.4951">Specialist Doctor</text><!--MD5=[72bd50b8814dffd24ca46f995a9a7d84]
entity cct--><ellipse cx="119" cy="1193" fill="#FEFECE" filter="url(#fpvz4v1gzcrt0)" rx="8" ry="8" style="stroke:#A80036;stroke-width:1.5;"/><path d="M119,1201 L119,1228 M106,1209 L132,1209 M119,1228 L106,1243 M119,1228 L132,1243 " fill="none" filter="url(#fpvz4v1gzcrt0)" style="stroke:#A80036;stroke-width:1.5;"/><text fill="#000000" font-family="sans-serif" font-size="14" lengthAdjust="spacing" textLength="226" x="6" y="1261.4951">Clinical Chemistry Technologist</text><!--MD5=[ddc0993abd4478baf117d835cc4f0442]
entity mlt--><ellipse cx="119" cy="1326" fill="#FEFECE" filter="url(#fpvz4v1gzcrt0)" rx="8" ry="8" style="stroke:#A80036;stroke-width:1.5;"/><path d="M119,1334 L119,1361 M106,1342 L132,1342 M119,1361 L106,1376 M119,1361 L132,1376 " fill="none" filter="url(#fpvz4v1gzcrt0)" style="stroke:#A80036;stroke-width:1.5;"/><text fill="#000000" font-family="sans-serif" font-size="14" lengthAdjust="spacing" textLength="165" x="36.5" y="1394.4951">Medical Lab Technician</text><!--MD5=[3ae3c4fcda79e9281b7e36fb82444fac]
entity ti--><ellipse cx="119" cy="1445" fill="#FEFECE" filter="url(#fpvz4v1gzcrt0)" rx="8" ry="8" style="stroke:#A80036;stroke-width:1.5;"/><path d="M119,1453 L119,1480 M106,1461 L132,1461 M119,1480 L106,1495 M119,1480 L132,1495 " fill="none" filter="url(#fpvz4v1gzcrt0)" style="stroke:#A80036;stroke-width:1.5;"/><text fill="#000000" font-family="sans-serif" font-size="14" lengthAdjust="spacing" textLength="42" x="98" y="1513.4951">Timer</text><!--MD5=[43e4a0a253e2e04defdb68c6fbb6f182]
link mlt to UC5--><path d="M201.777,1360.09 C261.507,1362.347 343.106,1365.43 408.317,1367.894 " fill="none" id="mlt-to-UC5" style="stroke:#A80036;stroke-width:1.0;"/><polygon fill="#A80036" points="413.379,1368.085,404.5362,1363.7485,408.3826,1367.8965,404.2346,1371.7428,413.379,1368.085" style="stroke:#A80036;stroke-width:1.0;"/><!--MD5=[beff728da458c12e20425170c712c680]
link rc to UC4--><path d="M165.541,861.589 C229.215,868.004 346.171,879.788 427.598,887.992 " fill="none" id="rc-to-UC4" style="stroke:#A80036;stroke-width:1.0;"/><polygon fill="#A80036" points="432.909,888.527,424.3556,883.6445,427.9342,888.0255,423.5532,891.6042,432.909,888.527" style="stroke:#A80036;stroke-width:1.0;"/><!--MD5=[15d860c8eb8b87374ddcd2df280e2dae]
link rc to UC3--><path d="M165.541,852.641 C227.92,846.67 341.434,835.805 422.585,828.037 " fill="none" id="rc-to-UC3" style="stroke:#A80036;stroke-width:1.0;"/><polygon fill="#A80036" points="427.882,827.53,418.5414,824.4071,422.9048,828.0071,419.3048,832.3706,427.882,827.53" style="stroke:#A80036;stroke-width:1.0;"/><!--MD5=[556265132f4d4f1cf7e81def76603f73]
link mlt to UC--><path d="M191.921,1316.362 C206.231,1306.292 220.402,1294.701 232,1282 C254.531,1257.326 241.134,1235.867 268,1216 C296.237,1195.119 330.982,1182.293 365.46,1174.53 " fill="none" id="mlt-to-UC" style="stroke:#A80036;stroke-width:1.0;"/><polygon fill="#A80036" points="370.545,1173.421,360.8997,1171.4288,365.6596,1174.4855,362.603,1179.2454,370.545,1173.421" style="stroke:#A80036;stroke-width:1.0;"/><!--MD5=[4b7061113a6e53411f47f9c8087da062]
link cct to UC1--><path d="M232.172,1237.845 C268.709,1242.355 310.092,1247.462 349.765,1252.359 " fill="none" id="cct-to-UC1" style="stroke:#A80036;stroke-width:1.0;"/><polygon fill="#A80036" points="355.098,1253.017,346.6548,1247.9462,350.1355,1252.4054,345.6763,1255.8862,355.098,1253.017" style="stroke:#A80036;stroke-width:1.0;"/><!--MD5=[bbd4bae931f902f5ce326d1e03e4f38f]
link cct to UC--><path d="M232.172,1207.33 C280.277,1200.181 336.781,1191.783 386.726,1184.361 " fill="none" id="cct-to-UC" style="stroke:#A80036;stroke-width:1.0;"/><polygon fill="#A80036" points="391.848,1183.599,382.3581,1180.9641,386.9022,1184.3333,383.533,1188.8774,391.848,1183.599" style="stroke:#A80036;stroke-width:1.0;"/><!--MD5=[b78c0d2d118275592b8e40ea280e2469]
link ad to UC7--><path d="M169.078,363.18 C226.831,370.45 324.64,382.77 401.871,392.5 " fill="none" id="ad-to-UC7" style="stroke:#A80036;stroke-width:1.0;"/><polygon fill="#A80036" points="406.928,393.14,398.4998,388.0444,401.9674,392.5138,397.4979,395.9814,406.928,393.14" style="stroke:#A80036;stroke-width:1.0;"/><!--MD5=[46a2fed7010a998cf677797a483e92c5]
link ad to UC8--><path d="M169.294,394.79 C196.994,414.4 232.956,437.27 268,452 C299.564,465.26 334.735,475.71 368.469,483.84 " fill="none" id="ad-to-UC8" style="stroke:#A80036;stroke-width:1.0;"/><polygon fill="#A80036" points="373.435,485.02,365.6087,479.041,368.5714,483.8599,363.7525,486.8227,373.435,485.02" style="stroke:#A80036;stroke-width:1.0;"/><!--MD5=[95a1ca5f4b72cf115fa0f3400b707d49]
link ad to UC9--><path d="M138.121,397.54 C161.385,444.91 206.244,522.23 268,565 C288.767,579.383 312.491,590.632 336.858,599.429 " fill="none" id="ad-to-UC9" style="stroke:#A80036;stroke-width:1.0;"/><polygon fill="#A80036" points="341.739,601.157,334.59,594.3826,337.0257,599.4883,331.92,601.9239,341.739,601.157" style="stroke:#A80036;stroke-width:1.0;"/><!--MD5=[52d608acc25e468c1480cac0571af098]
link ad to UC10--><path d="M137.677,316.29 C160.647,268.31 205.358,189.72 268,147 C289.894,132.07 315.074,120.78 340.827,112.25 " fill="none" id="ad-to-UC10" style="stroke:#A80036;stroke-width:1.0;"/><polygon fill="#A80036" points="345.642,110.69,335.8473,109.659,340.8855,112.2312,338.3132,117.2694,345.642,110.69" style="stroke:#A80036;stroke-width:1.0;"/><!--MD5=[8db4e90104465dac0bd6550155280890]
link ad to UC11--><path d="M167.345,316.27 C195.02,294.46 231.584,268.88 268,253 C301.402,238.44 339.116,227.76 374.899,219.97 " fill="none" id="ad-to-UC11" style="stroke:#A80036;stroke-width:1.0;"/><polygon fill="#A80036" points="380.164,218.84,370.525,216.8176,375.2753,219.8892,372.2037,224.6395,380.164,218.84" style="stroke:#A80036;stroke-width:1.0;"/><!--MD5=[fbfcbefe6e44cd7f8011c65cd31ab8b3]
link lc to UC15--><path d="M203.708,978.578 C262.677,978.281 342.238,977.88 406.426,977.557 " fill="none" id="lc-to-UC15" style="stroke:#A80036;stroke-width:1.0;"/><polygon fill="#A80036" points="411.802,977.53,402.7827,973.5738,406.8021,977.5543,402.8215,981.5737,411.802,977.53" style="stroke:#A80036;stroke-width:1.0;"/><!--MD5=[15d11631404bfdea92a463e00bfb997e]
link lc to UC--><path d="M203.681,1017.665 C213.945,1024.535 223.717,1032.315 232,1041 C256.966,1067.179 239.363,1091.897 268,1114 C295.717,1135.394 330.174,1148.425 364.53,1156.222 " fill="none" id="lc-to-UC" style="stroke:#A80036;stroke-width:1.0;"/><polygon fill="#A80036" points="369.597,1157.335,361.6647,1151.4973,364.7134,1156.2623,359.9484,1159.311,369.597,1157.335" style="stroke:#A80036;stroke-width:1.0;"/><!--MD5=[d22b069cb77885e1264b7d7567d0cfee]
link cl to UC18--><path d="M140.508,738 C188.505,738 311.062,738 403.408,738 " fill="none" id="cl-to-UC18" style="stroke:#A80036;stroke-width:1.0;"/><polygon fill="#A80036" points="408.612,738,399.612,734,403.612,738,399.612,742,408.612,738" style="stroke:#A80036;stroke-width:1.0;"/><!--MD5=[2a4c2b18049ed4a6dc5e19061a2f8e27]
link ad to UC12--><path d="M169.078,350.82 C218.005,344.66 295.678,334.87 365.234,326.11 " fill="none" id="ad-to-UC12" style="stroke:#A80036;stroke-width:1.0;"/><polygon fill="#A80036" points="370.228,325.49,360.7989,322.6452,365.2671,326.1144,361.798,330.5826,370.228,325.49" style="stroke:#A80036;stroke-width:1.0;"/><!--MD5=[1cb4f8d89ba4dd4ec50797c169d88dde]
link ti to UC16--><path d="M140.233,1476 C171.187,1476 233.609,1476 298.888,1476 " fill="none" id="ti-to-UC16" style="stroke:#A80036;stroke-width:1.0;"/><polygon fill="#A80036" points="303.996,1476,294.996,1472,298.996,1476,294.996,1480,303.996,1476" style="stroke:#A80036;stroke-width:1.0;"/><!--MD5=[9ace638415073f8f463276de27e5c510]
link sd to UC--><path d="M181.161,1109.168 C237.024,1118.455 321.35,1132.474 391.527,1144.14 " fill="none" id="sd-to-UC" style="stroke:#A80036;stroke-width:1.0;"/><polygon fill="#A80036" points="396.555,1144.976,388.3328,1139.5543,391.6227,1144.1561,387.0209,1147.446,396.555,1144.976" style="stroke:#A80036;stroke-width:1.0;"/><!--MD5=[3f6943baec589ab84a4740f783a38bfc]
link sd to UC14--><path d="M181.161,1093.916 C234.156,1089.511 312.768,1082.976 380.614,1077.337 " fill="none" id="sd-to-UC14" style="stroke:#A80036;stroke-width:1.0;"/><polygon fill="#A80036" points="385.894,1076.898,376.5935,1073.6575,380.9112,1077.3123,377.2564,1081.63,385.894,1076.898" style="stroke:#A80036;stroke-width:1.0;"/><!--MD5=[022dfcb83e59eeb794a733de8c4c15e3]
@startuml
left to right direction
actor "Administrator" as ad
actor "Client" as cl
actor "Receptionist" as rc
actor "Laboratory Coordinator" as lc
actor "Specialist Doctor" as sd
actor "Clinical Chemistry Technologist" as cct
actor "Medical Lab Technician" as mlt
actor "Timer" as ti

rectangle system {
  usecase "UC2,UC6,UC13,UC17: Check the results" as UC
  usecase "UC3 : Register a client" as UC3
  usecase "UC4 : Register a test" as UC4
  usecase "UC5 : Record the sample" as UC5
  usecase "UC1 : Record the results of the chemical analysis" as UC1
  usecase "UC7 : Register a new employee" as UC7
  usecase "UC8 : Register a new Clinical analysis laboratory" as UC8
  usecase "UC9 : Specify a new type of test and its collecting methods" as UC9
  usecase "UC10 : Specify a new test parameter and categorize it" as UC10
  usecase "UC11 : Specify a new parameter category" as UC11
  usecase "UC15 : Validate the work" as UC15
  usecase "UC18 : Consult the results" as UC18
  usecase "UC12 : Summarize and report Covid-19 data" as UC12
  usecase "UC16 : Generate daily automatic reports about covid-19" as UC16
  usecase "UC14 : Write a report and diagnosis" as UC14

}

mlt - -> UC5
rc - -> UC4
rc - -> UC3
mlt - -> UC
cct - -> UC1
cct - -> UC
ad - -> UC7
ad - -> UC8
ad - -> UC9
ad - -> UC10
ad - -> UC11
lc - -> UC15
lc - -> UC
cl - -> UC18
ad - -> UC12
ti - -> UC16
sd - -> UC
sd - -> UC14
@enduml

PlantUML version 1.2021.7(Sun May 23 12:40:07 UTC 2021)
(GPL source distribution)
Java Runtime: Java(TM) SE Runtime Environment
JVM: Java HotSpot(TM) 64-Bit Server VM
Default Encoding: UTF-8
Language: en
Country: US
--></g></svg>