<?xml version="1.0" encoding="UTF-8" standalone="no"?><svg xmlns="http://www.w3.org/2000/svg" xmlns:xlink="http://www.w3.org/1999/xlink" contentScriptType="application/ecmascript" contentStyleType="text/css" height="265px" preserveAspectRatio="none" style="width:1298px;height:265px;background:#FFFFFF;" version="1.1" viewBox="0 0 1298 265" width="1298px" zoomAndPan="magnify"><defs><filter height="300%" id="fm2g04qwjoego" width="300%" x="-1" y="-1"><feGaussianBlur result="blurOut" stdDeviation="2.0"/><feColorMatrix in="blurOut" result="blurOut2" type="matrix" values="0 0 0 0 0 0 0 0 0 0 0 0 0 0 0 0 0 0 .4 0"/><feOffset dx="4.0" dy="4.0" in="blurOut2" result="blurOut3"/><feBlend in="SourceGraphic" in2="blurOut3" mode="normal"/></filter></defs><g><!--MD5=[02e4b9b7573f1156f41e60aa5b4e25a4]
class Company--><rect codeLine="6" fill="#FEFECE" filter="url(#fm2g04qwjoego)" height="52.8047" id="Company" style="stroke:#A80036;stroke-width:1.5;" width="119" x="7" y="151"/><ellipse cx="35.95" cy="167" fill="#ADD1B2" rx="11" ry="11" style="stroke:#A80036;stroke-width:1.0;"/><path d="M38.2938,162.6719 C37.3563,162.2344 36.7625,162.0938 35.8875,162.0938 C33.2625,162.0938 31.2625,164.1719 31.2625,166.8906 L31.2625,168.0156 C31.2625,170.5938 33.3719,172.4844 36.2625,172.4844 C37.4813,172.4844 38.6375,172.1875 39.3875,171.6406 C39.9656,171.2344 40.2938,170.7813 40.2938,170.3906 C40.2938,169.9375 39.9031,169.5469 39.4344,169.5469 C39.2156,169.5469 39.0125,169.625 38.825,169.8125 C38.3719,170.2969 38.3719,170.2969 38.1844,170.3906 C37.7625,170.6563 37.075,170.7813 36.3094,170.7813 C34.2625,170.7813 32.9656,169.6875 32.9656,167.9844 L32.9656,166.8906 C32.9656,165.1094 34.2156,163.7969 35.95,163.7969 C36.5281,163.7969 37.1375,163.9531 37.6063,164.2031 C38.0906,164.4844 38.2625,164.7031 38.3563,165.1094 C38.4188,165.5156 38.45,165.6406 38.5906,165.7656 C38.7313,165.9063 38.9656,166.0156 39.1844,166.0156 C39.45,166.0156 39.7156,165.875 39.8875,165.6563 C39.9969,165.5 40.0281,165.3125 40.0281,164.8906 L40.0281,163.4688 C40.0281,163.0313 40.0125,162.9063 39.9188,162.75 C39.7625,162.4844 39.4813,162.3438 39.1844,162.3438 C38.8875,162.3438 38.6844,162.4375 38.4656,162.75 L38.2938,162.6719 Z " fill="#000000"/><text fill="#000000" font-family="sans-serif" font-size="12" lengthAdjust="spacing" textLength="56" x="53.05" y="171.1543">Company</text><line style="stroke:#A80036;stroke-width:1.5;" x1="8" x2="125" y1="183" y2="183"/><text fill="#000000" font-family="sans-serif" font-size="11" lengthAdjust="spacing" textLength="107" x="13" y="197.2104">-String designation</text><!--MD5=[0caf3a413731a0de34fc6162fe213ed9]
class Laboratory--><rect codeLine="9" fill="#FEFECE" filter="url(#fm2g04qwjoego)" height="91.2188" id="Laboratory" style="stroke:#A80036;stroke-width:1.5;" width="134" x="437" y="125"/><ellipse cx="468.65" cy="141" fill="#ADD1B2" rx="11" ry="11" style="stroke:#A80036;stroke-width:1.0;"/><path d="M470.9938,136.6719 C470.0563,136.2344 469.4625,136.0938 468.5875,136.0938 C465.9625,136.0938 463.9625,138.1719 463.9625,140.8906 L463.9625,142.0156 C463.9625,144.5938 466.0719,146.4844 468.9625,146.4844 C470.1813,146.4844 471.3375,146.1875 472.0875,145.6406 C472.6656,145.2344 472.9938,144.7813 472.9938,144.3906 C472.9938,143.9375 472.6031,143.5469 472.1344,143.5469 C471.9156,143.5469 471.7125,143.625 471.525,143.8125 C471.0719,144.2969 471.0719,144.2969 470.8844,144.3906 C470.4625,144.6563 469.775,144.7813 469.0094,144.7813 C466.9625,144.7813 465.6656,143.6875 465.6656,141.9844 L465.6656,140.8906 C465.6656,139.1094 466.9156,137.7969 468.65,137.7969 C469.2281,137.7969 469.8375,137.9531 470.3063,138.2031 C470.7906,138.4844 470.9625,138.7031 471.0563,139.1094 C471.1188,139.5156 471.15,139.6406 471.2906,139.7656 C471.4313,139.9063 471.6656,140.0156 471.8844,140.0156 C472.15,140.0156 472.4156,139.875 472.5875,139.6563 C472.6969,139.5 472.7281,139.3125 472.7281,138.8906 L472.7281,137.4688 C472.7281,137.0313 472.7125,136.9063 472.6188,136.75 C472.4625,136.4844 472.1813,136.3438 471.8844,136.3438 C471.5875,136.3438 471.3844,136.4375 471.1656,136.75 L470.9938,136.6719 Z " fill="#000000"/><text fill="#000000" font-family="sans-serif" font-size="12" lengthAdjust="spacing" textLength="65" x="486.35" y="145.1543">Laboratory</text><line style="stroke:#A80036;stroke-width:1.5;" x1="438" x2="570" y1="157" y2="157"/><text fill="#000000" font-family="sans-serif" font-size="11" lengthAdjust="spacing" textLength="74" x="443" y="171.2104">-String name</text><text fill="#000000" font-family="sans-serif" font-size="11" lengthAdjust="spacing" textLength="122" x="443" y="184.0151">-String phoneNumber</text><text fill="#000000" font-family="sans-serif" font-size="11" lengthAdjust="spacing" textLength="103" x="443" y="196.8198">-String numberTIN</text><text fill="#000000" font-family="sans-serif" font-size="11" lengthAdjust="spacing" textLength="86" x="443" y="209.6245">-String address</text><!--MD5=[ea49300750997b8dbaf7ea3c7722a254]
class ClinicalAnalisysLaboratory--><rect codeLine="16" fill="#FEFECE" filter="url(#fm2g04qwjoego)" height="52.8047" id="ClinicalAnalisysLaboratory" style="stroke:#A80036;stroke-width:1.5;" width="187" x="844" y="135"/><ellipse cx="859" cy="151" fill="#ADD1B2" rx="11" ry="11" style="stroke:#A80036;stroke-width:1.0;"/><path d="M861.3438,146.6719 C860.4063,146.2344 859.8125,146.0938 858.9375,146.0938 C856.3125,146.0938 854.3125,148.1719 854.3125,150.8906 L854.3125,152.0156 C854.3125,154.5938 856.4219,156.4844 859.3125,156.4844 C860.5313,156.4844 861.6875,156.1875 862.4375,155.6406 C863.0156,155.2344 863.3438,154.7813 863.3438,154.3906 C863.3438,153.9375 862.9531,153.5469 862.4844,153.5469 C862.2656,153.5469 862.0625,153.625 861.875,153.8125 C861.4219,154.2969 861.4219,154.2969 861.2344,154.3906 C860.8125,154.6563 860.125,154.7813 859.3594,154.7813 C857.3125,154.7813 856.0156,153.6875 856.0156,151.9844 L856.0156,150.8906 C856.0156,149.1094 857.2656,147.7969 859,147.7969 C859.5781,147.7969 860.1875,147.9531 860.6563,148.2031 C861.1406,148.4844 861.3125,148.7031 861.4063,149.1094 C861.4688,149.5156 861.5,149.6406 861.6406,149.7656 C861.7813,149.9063 862.0156,150.0156 862.2344,150.0156 C862.5,150.0156 862.7656,149.875 862.9375,149.6563 C863.0469,149.5 863.0781,149.3125 863.0781,148.8906 L863.0781,147.4688 C863.0781,147.0313 863.0625,146.9063 862.9688,146.75 C862.8125,146.4844 862.5313,146.3438 862.2344,146.3438 C861.9375,146.3438 861.7344,146.4375 861.5156,146.75 L861.3438,146.6719 Z " fill="#000000"/><text fill="#000000" font-family="sans-serif" font-size="12" lengthAdjust="spacing" textLength="155" x="873" y="155.1543">ClinicalAnalisysLaboratory</text><line style="stroke:#A80036;stroke-width:1.5;" x1="845" x2="1030" y1="167" y2="167"/><text fill="#000000" font-family="sans-serif" font-size="11" lengthAdjust="spacing" textLength="110" x="850" y="181.2104">-String laboratoryID</text><!--MD5=[aeb3272166074d8737a70b61b1e71682]
class TestType--><rect codeLine="20" fill="#FEFECE" filter="url(#fm2g04qwjoego)" height="78.4141" id="TestType" style="stroke:#A80036;stroke-width:1.5;" width="155" x="1129" y="173.5"/><ellipse cx="1174.25" cy="189.5" fill="#ADD1B2" rx="11" ry="11" style="stroke:#A80036;stroke-width:1.0;"/><path d="M1176.5938,185.1719 C1175.6563,184.7344 1175.0625,184.5938 1174.1875,184.5938 C1171.5625,184.5938 1169.5625,186.6719 1169.5625,189.3906 L1169.5625,190.5156 C1169.5625,193.0938 1171.6719,194.9844 1174.5625,194.9844 C1175.7813,194.9844 1176.9375,194.6875 1177.6875,194.1406 C1178.2656,193.7344 1178.5938,193.2813 1178.5938,192.8906 C1178.5938,192.4375 1178.2031,192.0469 1177.7344,192.0469 C1177.5156,192.0469 1177.3125,192.125 1177.125,192.3125 C1176.6719,192.7969 1176.6719,192.7969 1176.4844,192.8906 C1176.0625,193.1563 1175.375,193.2813 1174.6094,193.2813 C1172.5625,193.2813 1171.2656,192.1875 1171.2656,190.4844 L1171.2656,189.3906 C1171.2656,187.6094 1172.5156,186.2969 1174.25,186.2969 C1174.8281,186.2969 1175.4375,186.4531 1175.9063,186.7031 C1176.3906,186.9844 1176.5625,187.2031 1176.6563,187.6094 C1176.7188,188.0156 1176.75,188.1406 1176.8906,188.2656 C1177.0313,188.4063 1177.2656,188.5156 1177.4844,188.5156 C1177.75,188.5156 1178.0156,188.375 1178.1875,188.1563 C1178.2969,188 1178.3281,187.8125 1178.3281,187.3906 L1178.3281,185.9688 C1178.3281,185.5313 1178.3125,185.4063 1178.2188,185.25 C1178.0625,184.9844 1177.7813,184.8438 1177.4844,184.8438 C1177.1875,184.8438 1176.9844,184.9375 1176.7656,185.25 L1176.5938,185.1719 Z " fill="#000000"/><text fill="#000000" font-family="sans-serif" font-size="12" lengthAdjust="spacing" textLength="56" x="1194.75" y="193.6543">TestType</text><line style="stroke:#A80036;stroke-width:1.5;" x1="1130" x2="1283" y1="205.5" y2="205.5"/><text fill="#000000" font-family="sans-serif" font-size="11" lengthAdjust="spacing" textLength="103" x="1135" y="219.7104">-String description</text><text fill="#000000" font-family="sans-serif" font-size="11" lengthAdjust="spacing" textLength="69" x="1135" y="232.5151">-String code</text><text fill="#000000" font-family="sans-serif" font-size="11" lengthAdjust="spacing" textLength="143" x="1135" y="245.3198">-String collectingMethods</text><!--MD5=[da547346deef918ea16944ba046651ef]
class Administrator--><rect codeLine="26" fill="#FEFECE" filter="url(#fm2g04qwjoego)" height="40" id="Administrator" style="stroke:#A80036;stroke-width:1.5;" width="112" x="601" y="63.5"/><ellipse cx="616" cy="79.5" fill="#ADD1B2" rx="11" ry="11" style="stroke:#A80036;stroke-width:1.0;"/><path d="M618.3438,75.1719 C617.4063,74.7344 616.8125,74.5938 615.9375,74.5938 C613.3125,74.5938 611.3125,76.6719 611.3125,79.3906 L611.3125,80.5156 C611.3125,83.0938 613.4219,84.9844 616.3125,84.9844 C617.5313,84.9844 618.6875,84.6875 619.4375,84.1406 C620.0156,83.7344 620.3438,83.2813 620.3438,82.8906 C620.3438,82.4375 619.9531,82.0469 619.4844,82.0469 C619.2656,82.0469 619.0625,82.125 618.875,82.3125 C618.4219,82.7969 618.4219,82.7969 618.2344,82.8906 C617.8125,83.1563 617.125,83.2813 616.3594,83.2813 C614.3125,83.2813 613.0156,82.1875 613.0156,80.4844 L613.0156,79.3906 C613.0156,77.6094 614.2656,76.2969 616,76.2969 C616.5781,76.2969 617.1875,76.4531 617.6563,76.7031 C618.1406,76.9844 618.3125,77.2031 618.4063,77.6094 C618.4688,78.0156 618.5,78.1406 618.6406,78.2656 C618.7813,78.4063 619.0156,78.5156 619.2344,78.5156 C619.5,78.5156 619.7656,78.375 619.9375,78.1563 C620.0469,78 620.0781,77.8125 620.0781,77.3906 L620.0781,75.9688 C620.0781,75.5313 620.0625,75.4063 619.9688,75.25 C619.8125,74.9844 619.5313,74.8438 619.2344,74.8438 C618.9375,74.8438 618.7344,74.9375 618.5156,75.25 L618.3438,75.1719 Z " fill="#000000"/><text fill="#000000" font-family="sans-serif" font-size="12" lengthAdjust="spacing" textLength="80" x="630" y="83.6543">Administrator</text><line style="stroke:#A80036;stroke-width:1.5;" x1="602" x2="712" y1="95.5" y2="95.5"/><!--MD5=[7421f545a0d8420c5bec41e74b387d9c]
class Employee--><rect codeLine="30" fill="#FEFECE" filter="url(#fm2g04qwjoego)" height="116.8281" id="Employee" style="stroke:#A80036;stroke-width:1.5;" width="151" x="256" y="7"/><ellipse cx="297.55" cy="23" fill="#ADD1B2" rx="11" ry="11" style="stroke:#A80036;stroke-width:1.0;"/><path d="M299.8938,18.6719 C298.9563,18.2344 298.3625,18.0938 297.4875,18.0938 C294.8625,18.0938 292.8625,20.1719 292.8625,22.8906 L292.8625,24.0156 C292.8625,26.5938 294.9719,28.4844 297.8625,28.4844 C299.0813,28.4844 300.2375,28.1875 300.9875,27.6406 C301.5656,27.2344 301.8938,26.7813 301.8938,26.3906 C301.8938,25.9375 301.5031,25.5469 301.0344,25.5469 C300.8156,25.5469 300.6125,25.625 300.425,25.8125 C299.9719,26.2969 299.9719,26.2969 299.7844,26.3906 C299.3625,26.6563 298.675,26.7813 297.9094,26.7813 C295.8625,26.7813 294.5656,25.6875 294.5656,23.9844 L294.5656,22.8906 C294.5656,21.1094 295.8156,19.7969 297.55,19.7969 C298.1281,19.7969 298.7375,19.9531 299.2063,20.2031 C299.6906,20.4844 299.8625,20.7031 299.9563,21.1094 C300.0188,21.5156 300.05,21.6406 300.1906,21.7656 C300.3313,21.9063 300.5656,22.0156 300.7844,22.0156 C301.05,22.0156 301.3156,21.875 301.4875,21.6563 C301.5969,21.5 301.6281,21.3125 301.6281,20.8906 L301.6281,19.4688 C301.6281,19.0313 301.6125,18.9063 301.5188,18.75 C301.3625,18.4844 301.0813,18.3438 300.7844,18.3438 C300.4875,18.3438 300.2844,18.4375 300.0656,18.75 L299.8938,18.6719 Z " fill="#000000"/><text fill="#000000" font-family="sans-serif" font-size="12" lengthAdjust="spacing" textLength="60" x="317.45" y="27.1543">Employee</text><line style="stroke:#A80036;stroke-width:1.5;" x1="257" x2="406" y1="39" y2="39"/><text fill="#000000" font-family="sans-serif" font-size="11" lengthAdjust="spacing" textLength="115" x="262" y="53.2104">-String employeeID;</text><text fill="#000000" font-family="sans-serif" font-size="11" lengthAdjust="spacing" textLength="139" x="262" y="66.0151">-String organizationRole;</text><text fill="#000000" font-family="sans-serif" font-size="11" lengthAdjust="spacing" textLength="77" x="262" y="78.8198">-String name;</text><text fill="#000000" font-family="sans-serif" font-size="11" lengthAdjust="spacing" textLength="82" x="262" y="91.6245">-String adress;</text><text fill="#000000" font-family="sans-serif" font-size="11" lengthAdjust="spacing" textLength="125" x="262" y="104.4292">-String phoneNumber;</text><text fill="#000000" font-family="sans-serif" font-size="11" lengthAdjust="spacing" textLength="78" x="262" y="117.2339">-int codeSOC;</text><!--MD5=[09366576ee87d48d594df10cacc83f45]
link Company to Employee--><path codeLine="41" d="M126.195,152.5044 C164.497,136.193 214.832,114.758 255.956,97.245 " fill="none" id="Company-Employee" style="stroke:#A80036;stroke-width:1.0;"/><polygon fill="#000000" points="165.6002,100.1074,156.1268,100.9473,158.4298,106.3553,165.6002,100.1074" style="stroke:#000000;stroke-width:1.0;"/><text fill="#000000" font-family="sans-serif" font-size="13" lengthAdjust="spacing" textLength="55" x="170" y="106.5669">employs</text><text fill="#000000" font-family="sans-serif" font-size="13" lengthAdjust="spacing" textLength="8" x="133.9578" y="162.459">1</text><text fill="#000000" font-family="sans-serif" font-size="13" lengthAdjust="spacing" textLength="7" x="240.8046" y="113.3747">*</text><!--MD5=[f7fb1bbd8b4f4021e9754ae6fe2871a0]
reverse link Employee to Administrator--><path codeLine="42" d="M427.262,70.773 C483.727,73.914 553.419,77.792 600.937,80.436 " fill="none" id="Employee-backto-Administrator" style="stroke:#A80036;stroke-width:1.0;"/><polygon fill="none" points="426.704,77.753,407.124,69.652,427.482,63.774,426.704,77.753" style="stroke:#A80036;stroke-width:1.0;"/><polygon fill="#000000" points="494.9923,62.3442,486.1244,58.9073,485.7979,64.7761,494.9923,62.3442" style="stroke:#000000;stroke-width:1.0;"/><text fill="#000000" font-family="sans-serif" font-size="13" lengthAdjust="spacing" textLength="23" x="499" y="66.5669">has</text><text fill="#000000" font-family="sans-serif" font-size="13" lengthAdjust="spacing" textLength="8" x="414.962" y="82.8809">1</text><text fill="#000000" font-family="sans-serif" font-size="13" lengthAdjust="spacing" textLength="7" x="585.9332" y="93.1079">*</text><!--MD5=[bf8244ff5a3533f1151151ad173a54b4]
link Administrator to ClinicalAnalisysLaboratory--><path codeLine="43" d="M713.023,98.91 C750.275,109.344 800.41,123.385 843.754,135.525 " fill="none" id="Administrator-ClinicalAnalisysLaboratory" style="stroke:#A80036;stroke-width:1.0;"/><polygon fill="#000000" points="752.8147,101.4149,744.8974,96.1454,743.3122,101.8055,752.8147,101.4149" style="stroke:#000000;stroke-width:1.0;"/><text fill="#000000" font-family="sans-serif" font-size="13" lengthAdjust="spacing" textLength="56" x="757" y="104.5669">registers</text><text fill="#000000" font-family="sans-serif" font-size="13" lengthAdjust="spacing" textLength="8" x="721.0886" y="114.0643">1</text><text fill="#000000" font-family="sans-serif" font-size="13" lengthAdjust="spacing" textLength="23" x="813.025" y="146.2472">1..*</text><!--MD5=[53e758e6f50d28d341d5d9ef70a3bc50]
reverse link Laboratory to ClinicalAnalisysLaboratory--><path codeLine="44" d="M591.196,168.7022 C664.262,167.1782 768.812,164.9976 843.698,163.4356 " fill="none" id="Laboratory-backto-ClinicalAnalisysLaboratory" style="stroke:#A80036;stroke-width:1.0;"/><polygon fill="none" points="591.147,175.7046,571.005,169.1233,590.855,161.7077,591.147,175.7046" style="stroke:#A80036;stroke-width:1.0;"/><polygon fill="#000000" points="647.9989,156.9621,638.8945,154.2125,639.0171,160.089,647.9989,156.9621" style="stroke:#000000;stroke-width:1.0;"/><text fill="#000000" font-family="sans-serif" font-size="13" lengthAdjust="spacing" textLength="23" x="652" y="161.5669">has</text><text fill="#000000" font-family="sans-serif" font-size="13" lengthAdjust="spacing" textLength="8" x="579.215" y="181.8932">1</text><text fill="#000000" font-family="sans-serif" font-size="13" lengthAdjust="spacing" textLength="7" x="828.9442" y="176.2675">*</text><!--MD5=[6a823ae8a034033592da2bd52399d543]
link ClinicalAnalisysLaboratory to TestType--><path codeLine="45" d="M1031.13,179.1942 C1063.07,185.2933 1098.45,192.0518 1128.95,197.878 " fill="none" id="ClinicalAnalisysLaboratory-TestType" style="stroke:#A80036;stroke-width:1.0;"/><polygon fill="#000000" points="1070.9112,177.0045,1062.5781,172.4208,1061.4754,178.1942,1070.9112,177.0045" style="stroke:#000000;stroke-width:1.0;"/><text fill="#000000" font-family="sans-serif" font-size="13" lengthAdjust="spacing" textLength="23" x="1075" y="180.5669">has</text><text fill="#000000" font-family="sans-serif" font-size="13" lengthAdjust="spacing" textLength="8" x="1038.9099" y="193.2818">1</text><text fill="#000000" font-family="sans-serif" font-size="13" lengthAdjust="spacing" textLength="7" x="1113.9716" y="209.23">*</text><!--MD5=[742a261f27a3dcd734c626287d811acd]
link Company to TestType--><path codeLine="47" d="M126.081,202.8319 C178.592,223.2221 258.258,248.5 330.5,248.5 C330.5,248.5 330.5,248.5 938.5,248.5 C1003.048,248.5 1075.59,238.0388 1128.75,228.3949 " fill="none" id="Company-TestType" style="stroke:#A80036;stroke-width:1.0;"/><polygon fill="#000000" points="633.9984,240.1938,625.0311,237.0253,624.8813,242.9013,633.9984,240.1938" style="stroke:#000000;stroke-width:1.0;"/><text fill="#000000" font-family="sans-serif" font-size="13" lengthAdjust="spacing" textLength="51" x="638" y="244.5669">conduts</text><text fill="#000000" font-family="sans-serif" font-size="13" lengthAdjust="spacing" textLength="8" x="133.8299" y="218.9202">1</text><text fill="#000000" font-family="sans-serif" font-size="13" lengthAdjust="spacing" textLength="23" x="1098.0801" y="242.4602">1..*</text><!--MD5=[b921f878c1b19577ef94d929b3e93a58]
link Company to Laboratory--><path codeLine="48" d="M126.233,176.5559 C207.03,175.2573 352.05,172.9263 436.664,171.5662 " fill="none" id="Company-Laboratory" style="stroke:#A80036;stroke-width:1.0;"/><polygon fill="#000000" points="176.4994,165.986,167.4082,163.1929,167.5027,169.07,176.4994,165.986" style="stroke:#000000;stroke-width:1.0;"/><text fill="#000000" font-family="sans-serif" font-size="13" lengthAdjust="spacing" textLength="34" x="180.5" y="170.5669">owns</text><text fill="#000000" font-family="sans-serif" font-size="13" lengthAdjust="spacing" textLength="8" x="134.0005" y="189.4418">1</text><text fill="#000000" font-family="sans-serif" font-size="13" lengthAdjust="spacing" textLength="7" x="421.9163" y="184.5653">*</text><!--MD5=[10f97cfb8582b40a9e2a333387063ea9]
@startuml
hide methods
left to right direction
skinparam classAttributeIconSize 0


class Company {
  -String designation
}
class Laboratory{
  -String name
  -String phoneNumber
  -String numberTIN
  -String address
}

class ClinicalAnalisysLaboratory {
  -String laboratoryID
}

class TestType {
  -String description
  -String code
  -String collectingMethods
}

class Administrator {
}


class Employee{
  -String employeeID;
  -String organizationRole;
  -String name;
  -String adress;
  -String phoneNumber;
  -int codeSOC;
}



Company "1" - - "*" Employee: employs >
Employee "1" <|- - "*" Administrator: has >
Administrator "1" - - "1..*" ClinicalAnalisysLaboratory : registers >
Laboratory "1" <|- - "*" ClinicalAnalisysLaboratory : has >
ClinicalAnalisysLaboratory "1" - - "*" TestType : has >

Company "1" - - "1..*" TestType : conduts >
Company "1" - - "*" Laboratory : owns >
@enduml

PlantUML version 1.2021.7(Sun May 23 12:40:07 UTC 2021)
(GPL source distribution)
Java Runtime: Java(TM) SE Runtime Environment
JVM: Java HotSpot(TM) 64-Bit Server VM
Default Encoding: UTF-8
Language: en
Country: US
--></g></svg>