<?xml version="1.0" encoding="UTF-8" standalone="no"?><svg xmlns="http://www.w3.org/2000/svg" xmlns:xlink="http://www.w3.org/1999/xlink" contentScriptType="application/ecmascript" contentStyleType="text/css" height="425px" preserveAspectRatio="none" style="width:636px;height:425px;" version="1.1" viewBox="0 0 636 425" width="636px" zoomAndPan="magnify"><defs><filter height="300%" id="f1q3oduq33wspb" width="300%" x="-1" y="-1"><feGaussianBlur result="blurOut" stdDeviation="2.0"/><feColorMatrix in="blurOut" result="blurOut2" type="matrix" values="0 0 0 0 0 0 0 0 0 0 0 0 0 0 0 0 0 0 .4 0"/><feOffset dx="4.0" dy="4.0" in="blurOut2" result="blurOut3"/><feBlend in="SourceGraphic" in2="blurOut3" mode="normal"/></filter></defs><g><rect fill="#FFFFFF" filter="url(#f1q3oduq33wspb)" height="225.0625" style="stroke:#A80036;stroke-width:1.0;" width="10" x="53" y="98.2969"/><rect fill="#FFFFFF" filter="url(#f1q3oduq33wspb)" height="29.1328" style="stroke:#A80036;stroke-width:1.0;" width="10" x="583" y="119.4297"/><rect fill="#FFFFFF" filter="url(#f1q3oduq33wspb)" height="29.1328" style="stroke:#A80036;stroke-width:1.0;" width="10" x="583" y="177.6953"/><rect fill="#FFFFFF" filter="url(#f1q3oduq33wspb)" height="29.1328" style="stroke:#A80036;stroke-width:1.0;" width="10" x="583" y="235.9609"/><rect fill="#FFFFFF" filter="url(#f1q3oduq33wspb)" height="29.1328" style="stroke:#A80036;stroke-width:1.0;" width="10" x="583" y="294.2266"/><line style="stroke:#A80036;stroke-width:1.0;stroke-dasharray:5.0,5.0;" x1="58" x2="58" y1="88.2969" y2="341.3594"/><line style="stroke:#A80036;stroke-width:1.0;stroke-dasharray:5.0,5.0;" x1="587.5" x2="587.5" y1="88.2969" y2="341.3594"/><text fill="#000000" font-family="sans-serif" font-size="14" lengthAdjust="spacing" textLength="100" x="5" y="84.9951">Administrator</text><ellipse cx="58" cy="15" fill="#FEFECE" filter="url(#f1q3oduq33wspb)" rx="8" ry="8" style="stroke:#A80036;stroke-width:2.0;"/><path d="M58,23 L58,50 M45,31 L71,31 M58,50 L45,65 M58,50 L71,65 " fill="none" filter="url(#f1q3oduq33wspb)" style="stroke:#A80036;stroke-width:2.0;"/><text fill="#000000" font-family="sans-serif" font-size="14" lengthAdjust="spacing" textLength="100" x="5" y="353.3545">Administrator</text><ellipse cx="58" cy="366.6563" fill="#FEFECE" filter="url(#f1q3oduq33wspb)" rx="8" ry="8" style="stroke:#A80036;stroke-width:2.0;"/><path d="M58,374.6563 L58,401.6563 M45,382.6563 L71,382.6563 M58,401.6563 L45,416.6563 M58,401.6563 L71,416.6563 " fill="none" filter="url(#f1q3oduq33wspb)" style="stroke:#A80036;stroke-width:2.0;"/><rect fill="#FEFECE" filter="url(#f1q3oduq33wspb)" height="30.2969" style="stroke:#A80036;stroke-width:1.5;" width="73" x="549.5" y="53"/><text fill="#000000" font-family="sans-serif" font-size="14" lengthAdjust="spacing" textLength="59" x="556.5" y="72.9951">:System</text><rect fill="#FEFECE" filter="url(#f1q3oduq33wspb)" height="30.2969" style="stroke:#A80036;stroke-width:1.5;" width="73" x="549.5" y="340.3594"/><text fill="#000000" font-family="sans-serif" font-size="14" lengthAdjust="spacing" textLength="59" x="556.5" y="360.3545">:System</text><rect fill="#FFFFFF" filter="url(#f1q3oduq33wspb)" height="225.0625" style="stroke:#A80036;stroke-width:1.0;" width="10" x="53" y="98.2969"/><rect fill="#FFFFFF" filter="url(#f1q3oduq33wspb)" height="29.1328" style="stroke:#A80036;stroke-width:1.0;" width="10" x="583" y="119.4297"/><rect fill="#FFFFFF" filter="url(#f1q3oduq33wspb)" height="29.1328" style="stroke:#A80036;stroke-width:1.0;" width="10" x="583" y="177.6953"/><rect fill="#FFFFFF" filter="url(#f1q3oduq33wspb)" height="29.1328" style="stroke:#A80036;stroke-width:1.0;" width="10" x="583" y="235.9609"/><rect fill="#FFFFFF" filter="url(#f1q3oduq33wspb)" height="29.1328" style="stroke:#A80036;stroke-width:1.0;" width="10" x="583" y="294.2266"/><polygon fill="#A80036" points="571,115.4297,581,119.4297,571,123.4297,575,119.4297" style="stroke:#A80036;stroke-width:1.0;"/><line style="stroke:#A80036;stroke-width:1.0;" x1="63" x2="577" y1="119.4297" y2="119.4297"/><text fill="#000000" font-family="sans-serif" font-size="13" font-weight="bold" lengthAdjust="spacing" textLength="9" x="70" y="114.3638">1</text><text fill="#000000" font-family="sans-serif" font-size="13" lengthAdjust="spacing" textLength="315" x="83" y="114.3638">Starts registering new Clinical analisys laboratory</text><polygon fill="#A80036" points="74,144.5625,64,148.5625,74,152.5625,70,148.5625" style="stroke:#A80036;stroke-width:1.0;"/><line style="stroke:#A80036;stroke-width:1.0;stroke-dasharray:2.0,2.0;" x1="68" x2="587" y1="148.5625" y2="148.5625"/><text fill="#000000" font-family="sans-serif" font-size="13" font-weight="bold" lengthAdjust="spacing" textLength="9" x="80" y="143.4966">2</text><text fill="#000000" font-family="sans-serif" font-size="13" lengthAdjust="spacing" textLength="483" x="93" y="143.4966">requests data (LaboratoryId; Name; Address; Phone Number; TIN number.)</text><polygon fill="#A80036" points="571,173.6953,581,177.6953,571,181.6953,575,177.6953" style="stroke:#A80036;stroke-width:1.0;"/><line style="stroke:#A80036;stroke-width:1.0;" x1="63" x2="577" y1="177.6953" y2="177.6953"/><text fill="#000000" font-family="sans-serif" font-size="13" font-weight="bold" lengthAdjust="spacing" textLength="8" x="70" y="172.6294">3</text><text fill="#000000" font-family="sans-serif" font-size="13" lengthAdjust="spacing" textLength="138" x="82" y="172.6294">types requested data</text><polygon fill="#A80036" points="74,202.8281,64,206.8281,74,210.8281,70,206.8281" style="stroke:#A80036;stroke-width:1.0;"/><line style="stroke:#A80036;stroke-width:1.0;stroke-dasharray:2.0,2.0;" x1="68" x2="587" y1="206.8281" y2="206.8281"/><text fill="#000000" font-family="sans-serif" font-size="13" font-weight="bold" lengthAdjust="spacing" textLength="9" x="80" y="201.7622">4</text><text fill="#000000" font-family="sans-serif" font-size="13" lengthAdjust="spacing" textLength="321" x="93" y="201.7622">shows type test list and ask to select one or more</text><polygon fill="#A80036" points="571,231.9609,581,235.9609,571,239.9609,575,235.9609" style="stroke:#A80036;stroke-width:1.0;"/><line style="stroke:#A80036;stroke-width:1.0;" x1="63" x2="577" y1="235.9609" y2="235.9609"/><text fill="#000000" font-family="sans-serif" font-size="13" font-weight="bold" lengthAdjust="spacing" textLength="9" x="70" y="230.895">5</text><text fill="#000000" font-family="sans-serif" font-size="13" lengthAdjust="spacing" textLength="158" x="83" y="230.895">selects type(s) of test(s)</text><polygon fill="#A80036" points="74,261.0938,64,265.0938,74,269.0938,70,265.0938" style="stroke:#A80036;stroke-width:1.0;"/><line style="stroke:#A80036;stroke-width:1.0;stroke-dasharray:2.0,2.0;" x1="68" x2="587" y1="265.0938" y2="265.0938"/><text fill="#000000" font-family="sans-serif" font-size="13" font-weight="bold" lengthAdjust="spacing" textLength="9" x="80" y="260.0278">6</text><text fill="#000000" font-family="sans-serif" font-size="13" lengthAdjust="spacing" textLength="265" x="93" y="260.0278">shows all data and requests confirmation</text><polygon fill="#A80036" points="571,290.2266,581,294.2266,571,298.2266,575,294.2266" style="stroke:#A80036;stroke-width:1.0;"/><line style="stroke:#A80036;stroke-width:1.0;" x1="63" x2="577" y1="294.2266" y2="294.2266"/><text fill="#000000" font-family="sans-serif" font-size="13" font-weight="bold" lengthAdjust="spacing" textLength="9" x="70" y="289.1606">7</text><text fill="#000000" font-family="sans-serif" font-size="13" lengthAdjust="spacing" textLength="114" x="83" y="289.1606">confirms the data</text><polygon fill="#A80036" points="69,319.3594,59,323.3594,69,327.3594,65,323.3594" style="stroke:#A80036;stroke-width:1.0;"/><line style="stroke:#A80036;stroke-width:1.0;stroke-dasharray:2.0,2.0;" x1="63" x2="587" y1="323.3594" y2="323.3594"/><text fill="#000000" font-family="sans-serif" font-size="13" font-weight="bold" lengthAdjust="spacing" textLength="9" x="75" y="318.2935">8</text><text fill="#000000" font-family="sans-serif" font-size="13" lengthAdjust="spacing" textLength="169" x="88" y="318.2935">informs operation success</text><!--MD5=[9fab9618067a1af1985ff6319ef65ae7]
@startuml
autonumber
actor "Administrator" as AD

activate AD
AD -> ":System" : Starts registering new Clinical analisys laboratory
activate ":System"
":System" - -> AD : requests data (LaboratoryId; Name; Address; Phone Number; TIN number.)
deactivate ":System"

AD -> ":System" : types requested data
activate ":System"
":System" - -> AD : shows type test list and ask to select one or more
deactivate ":System"

AD -> ":System" : selects type(s) of test(s) 
activate ":System"
":System" - -> AD : shows all data and requests confirmation
deactivate ":System"

AD -> ":System" : confirms the data
activate ":System"
":System" - -> AD : informs operation success
deactivate ":System"

deactivate AD
@enduml

PlantUML version 1.2021.5beta3(Unknown compile time)
(GPL source distribution)
Java Runtime: Java(TM) SE Runtime Environment
JVM: Java HotSpot(TM) 64-Bit Server VM
Default Encoding: UTF-8
Language: en
Country: US
--></g></svg>