<?xml version="1.0" encoding="UTF-8" standalone="no"?><svg xmlns="http://www.w3.org/2000/svg" xmlns:xlink="http://www.w3.org/1999/xlink" contentScriptType="application/ecmascript" contentStyleType="text/css" height="333px" preserveAspectRatio="none" style="width:2133px;height:333px;background:#FFFFFF;" version="1.1" viewBox="0 0 2133 333" width="2133px" zoomAndPan="magnify"><defs><filter height="300%" id="f6ajmxxmjgs8p" width="300%" x="-1" y="-1"><feGaussianBlur result="blurOut" stdDeviation="2.0"/><feColorMatrix in="blurOut" result="blurOut2" type="matrix" values="0 0 0 0 0 0 0 0 0 0 0 0 0 0 0 0 0 0 .4 0"/><feOffset dx="4.0" dy="4.0" in="blurOut2" result="blurOut3"/><feBlend in="SourceGraphic" in2="blurOut3" mode="normal"/></filter></defs><g><!--MD5=[02e4b9b7573f1156f41e60aa5b4e25a4]
class Company--><rect codeLine="6" fill="#FEFECE" filter="url(#f6ajmxxmjgs8p)" height="52.8047" id="Company" style="stroke:#A80036;stroke-width:1.5;" width="119" x="7" y="183"/><ellipse cx="35.95" cy="199" fill="#ADD1B2" rx="11" ry="11" style="stroke:#A80036;stroke-width:1.0;"/><path d="M38.2938,194.6719 C37.3563,194.2344 36.7625,194.0938 35.8875,194.0938 C33.2625,194.0938 31.2625,196.1719 31.2625,198.8906 L31.2625,200.0156 C31.2625,202.5938 33.3719,204.4844 36.2625,204.4844 C37.4813,204.4844 38.6375,204.1875 39.3875,203.6406 C39.9656,203.2344 40.2938,202.7813 40.2938,202.3906 C40.2938,201.9375 39.9031,201.5469 39.4344,201.5469 C39.2156,201.5469 39.0125,201.625 38.825,201.8125 C38.3719,202.2969 38.3719,202.2969 38.1844,202.3906 C37.7625,202.6563 37.075,202.7813 36.3094,202.7813 C34.2625,202.7813 32.9656,201.6875 32.9656,199.9844 L32.9656,198.8906 C32.9656,197.1094 34.2156,195.7969 35.95,195.7969 C36.5281,195.7969 37.1375,195.9531 37.6063,196.2031 C38.0906,196.4844 38.2625,196.7031 38.3563,197.1094 C38.4188,197.5156 38.45,197.6406 38.5906,197.7656 C38.7313,197.9063 38.9656,198.0156 39.1844,198.0156 C39.45,198.0156 39.7156,197.875 39.8875,197.6563 C39.9969,197.5 40.0281,197.3125 40.0281,196.8906 L40.0281,195.4688 C40.0281,195.0313 40.0125,194.9063 39.9188,194.75 C39.7625,194.4844 39.4813,194.3438 39.1844,194.3438 C38.8875,194.3438 38.6844,194.4375 38.4656,194.75 L38.2938,194.6719 Z " fill="#000000"/><text fill="#000000" font-family="sans-serif" font-size="12" lengthAdjust="spacing" textLength="56" x="53.05" y="203.1543">Company</text><line style="stroke:#A80036;stroke-width:1.5;" x1="8" x2="125" y1="215" y2="215"/><text fill="#000000" font-family="sans-serif" font-size="11" lengthAdjust="spacing" textLength="107" x="13" y="229.2104">-String designation</text><!--MD5=[df38be88ccee13e832d6fafd6288a4ca]
class Test--><rect codeLine="11" fill="#FEFECE" filter="url(#f6ajmxxmjgs8p)" height="180.8516" id="Test" style="stroke:#A80036;stroke-width:1.5;" width="160" x="1239" y="7"/><ellipse cx="1301.75" cy="23" fill="#ADD1B2" rx="11" ry="11" style="stroke:#A80036;stroke-width:1.0;"/><path d="M1304.0938,18.6719 C1303.1563,18.2344 1302.5625,18.0938 1301.6875,18.0938 C1299.0625,18.0938 1297.0625,20.1719 1297.0625,22.8906 L1297.0625,24.0156 C1297.0625,26.5938 1299.1719,28.4844 1302.0625,28.4844 C1303.2813,28.4844 1304.4375,28.1875 1305.1875,27.6406 C1305.7656,27.2344 1306.0938,26.7813 1306.0938,26.3906 C1306.0938,25.9375 1305.7031,25.5469 1305.2344,25.5469 C1305.0156,25.5469 1304.8125,25.625 1304.625,25.8125 C1304.1719,26.2969 1304.1719,26.2969 1303.9844,26.3906 C1303.5625,26.6563 1302.875,26.7813 1302.1094,26.7813 C1300.0625,26.7813 1298.7656,25.6875 1298.7656,23.9844 L1298.7656,22.8906 C1298.7656,21.1094 1300.0156,19.7969 1301.75,19.7969 C1302.3281,19.7969 1302.9375,19.9531 1303.4063,20.2031 C1303.8906,20.4844 1304.0625,20.7031 1304.1563,21.1094 C1304.2188,21.5156 1304.25,21.6406 1304.3906,21.7656 C1304.5313,21.9063 1304.7656,22.0156 1304.9844,22.0156 C1305.25,22.0156 1305.5156,21.875 1305.6875,21.6563 C1305.7969,21.5 1305.8281,21.3125 1305.8281,20.8906 L1305.8281,19.4688 C1305.8281,19.0313 1305.8125,18.9063 1305.7188,18.75 C1305.5625,18.4844 1305.2813,18.3438 1304.9844,18.3438 C1304.6875,18.3438 1304.4844,18.4375 1304.2656,18.75 L1304.0938,18.6719 Z " fill="#000000"/><text fill="#000000" font-family="sans-serif" font-size="12" lengthAdjust="spacing" textLength="26" x="1322.25" y="27.1543">Test</text><line style="stroke:#A80036;stroke-width:1.5;" x1="1240" x2="1398" y1="39" y2="39"/><text fill="#000000" font-family="sans-serif" font-size="11" lengthAdjust="spacing" textLength="69" x="1245" y="53.2104">-String code</text><text fill="#000000" font-family="sans-serif" font-size="11" lengthAdjust="spacing" textLength="95" x="1245" y="66.0151">-String NHSCode</text><text fill="#000000" font-family="sans-serif" font-size="11" lengthAdjust="spacing" textLength="103" x="1245" y="78.8198">-String description</text><text fill="#000000" font-family="sans-serif" font-size="11" lengthAdjust="spacing" textLength="111" x="1245" y="91.6245">-String dateSample</text><text fill="#000000" font-family="sans-serif" font-size="11" lengthAdjust="spacing" textLength="111" x="1245" y="104.4292">-String timeSmaple</text><text fill="#000000" font-family="sans-serif" font-size="11" lengthAdjust="spacing" textLength="148" x="1245" y="117.2339">-String dateChemAnalysis</text><text fill="#000000" font-family="sans-serif" font-size="11" lengthAdjust="spacing" textLength="148" x="1245" y="130.0386">-String timeChemAnalysis</text><text fill="#000000" font-family="sans-serif" font-size="11" lengthAdjust="spacing" textLength="122" x="1245" y="142.8433">-String dateDiagnosis</text><text fill="#000000" font-family="sans-serif" font-size="11" lengthAdjust="spacing" textLength="122" x="1245" y="155.6479">-String timeDiagnosis</text><text fill="#000000" font-family="sans-serif" font-size="11" lengthAdjust="spacing" textLength="120" x="1245" y="168.4526">-String dateValidTest</text><text fill="#000000" font-family="sans-serif" font-size="11" lengthAdjust="spacing" textLength="120" x="1245" y="181.2573">-String timeValidTest</text><!--MD5=[7421f545a0d8420c5bec41e74b387d9c]
class Employee--><rect codeLine="24" fill="#FEFECE" filter="url(#f6ajmxxmjgs8p)" height="116.8281" id="Employee" style="stroke:#A80036;stroke-width:1.5;" width="151" x="256" y="151"/><ellipse cx="297.55" cy="167" fill="#ADD1B2" rx="11" ry="11" style="stroke:#A80036;stroke-width:1.0;"/><path d="M299.8938,162.6719 C298.9563,162.2344 298.3625,162.0938 297.4875,162.0938 C294.8625,162.0938 292.8625,164.1719 292.8625,166.8906 L292.8625,168.0156 C292.8625,170.5938 294.9719,172.4844 297.8625,172.4844 C299.0813,172.4844 300.2375,172.1875 300.9875,171.6406 C301.5656,171.2344 301.8938,170.7813 301.8938,170.3906 C301.8938,169.9375 301.5031,169.5469 301.0344,169.5469 C300.8156,169.5469 300.6125,169.625 300.425,169.8125 C299.9719,170.2969 299.9719,170.2969 299.7844,170.3906 C299.3625,170.6563 298.675,170.7813 297.9094,170.7813 C295.8625,170.7813 294.5656,169.6875 294.5656,167.9844 L294.5656,166.8906 C294.5656,165.1094 295.8156,163.7969 297.55,163.7969 C298.1281,163.7969 298.7375,163.9531 299.2063,164.2031 C299.6906,164.4844 299.8625,164.7031 299.9563,165.1094 C300.0188,165.5156 300.05,165.6406 300.1906,165.7656 C300.3313,165.9063 300.5656,166.0156 300.7844,166.0156 C301.05,166.0156 301.3156,165.875 301.4875,165.6563 C301.5969,165.5 301.6281,165.3125 301.6281,164.8906 L301.6281,163.4688 C301.6281,163.0313 301.6125,162.9063 301.5188,162.75 C301.3625,162.4844 301.0813,162.3438 300.7844,162.3438 C300.4875,162.3438 300.2844,162.4375 300.0656,162.75 L299.8938,162.6719 Z " fill="#000000"/><text fill="#000000" font-family="sans-serif" font-size="12" lengthAdjust="spacing" textLength="60" x="317.45" y="171.1543">Employee</text><line style="stroke:#A80036;stroke-width:1.5;" x1="257" x2="406" y1="183" y2="183"/><text fill="#000000" font-family="sans-serif" font-size="11" lengthAdjust="spacing" textLength="115" x="262" y="197.2104">-String employeeID;</text><text fill="#000000" font-family="sans-serif" font-size="11" lengthAdjust="spacing" textLength="139" x="262" y="210.0151">-String organizationRole;</text><text fill="#000000" font-family="sans-serif" font-size="11" lengthAdjust="spacing" textLength="77" x="262" y="222.8198">-String name;</text><text fill="#000000" font-family="sans-serif" font-size="11" lengthAdjust="spacing" textLength="82" x="262" y="235.6245">-String adress;</text><text fill="#000000" font-family="sans-serif" font-size="11" lengthAdjust="spacing" textLength="125" x="262" y="248.4292">-String phoneNumber;</text><text fill="#000000" font-family="sans-serif" font-size="11" lengthAdjust="spacing" textLength="78" x="262" y="261.2339">-int codeSOC;</text><!--MD5=[052425de1c0eb6cc1c1b48342b0bb88f]
class LaboratoryCoordinator--><rect codeLine="32" fill="#FEFECE" filter="url(#f6ajmxxmjgs8p)" height="40" id="LaboratoryCoordinator" style="stroke:#A80036;stroke-width:1.5;" width="168" x="521" y="208.5002"/><ellipse cx="536" cy="224.5002" fill="#ADD1B2" rx="11" ry="11" style="stroke:#A80036;stroke-width:1.0;"/><path d="M538.3438,220.1721 C537.4063,219.7346 536.8125,219.594 535.9375,219.594 C533.3125,219.594 531.3125,221.6721 531.3125,224.3908 L531.3125,225.5158 C531.3125,228.094 533.4219,229.9846 536.3125,229.9846 C537.5313,229.9846 538.6875,229.6877 539.4375,229.1408 C540.0156,228.7346 540.3438,228.2815 540.3438,227.8908 C540.3438,227.4377 539.9531,227.0471 539.4844,227.0471 C539.2656,227.0471 539.0625,227.1252 538.875,227.3127 C538.4219,227.7971 538.4219,227.7971 538.2344,227.8908 C537.8125,228.1565 537.125,228.2815 536.3594,228.2815 C534.3125,228.2815 533.0156,227.1877 533.0156,225.4846 L533.0156,224.3908 C533.0156,222.6096 534.2656,221.2971 536,221.2971 C536.5781,221.2971 537.1875,221.4533 537.6563,221.7033 C538.1406,221.9846 538.3125,222.2033 538.4063,222.6096 C538.4688,223.0158 538.5,223.1408 538.6406,223.2658 C538.7813,223.4065 539.0156,223.5158 539.2344,223.5158 C539.5,223.5158 539.7656,223.3752 539.9375,223.1565 C540.0469,223.0002 540.0781,222.8127 540.0781,222.3908 L540.0781,220.969 C540.0781,220.5315 540.0625,220.4065 539.9688,220.2502 C539.8125,219.9846 539.5313,219.844 539.2344,219.844 C538.9375,219.844 538.7344,219.9377 538.5156,220.2502 L538.3438,220.1721 Z " fill="#000000"/><text fill="#000000" font-family="sans-serif" font-size="12" lengthAdjust="spacing" textLength="136" x="550" y="228.6545">LaboratoryCoordinator</text><line style="stroke:#A80036;stroke-width:1.5;" x1="522" x2="688" y1="240.5002" y2="240.5002"/><!--MD5=[0f07739f46effee96e095e9c408da841]
class TestParameter--><rect codeLine="34" fill="#FEFECE" filter="url(#f6ajmxxmjgs8p)" height="40" id="TestParameter" style="stroke:#A80036;stroke-width:1.5;" width="119" x="1497" y="170.5"/><ellipse cx="1512" cy="186.5" fill="#ADD1B2" rx="11" ry="11" style="stroke:#A80036;stroke-width:1.0;"/><path d="M1514.3438,182.1719 C1513.4063,181.7344 1512.8125,181.5938 1511.9375,181.5938 C1509.3125,181.5938 1507.3125,183.6719 1507.3125,186.3906 L1507.3125,187.5156 C1507.3125,190.0938 1509.4219,191.9844 1512.3125,191.9844 C1513.5313,191.9844 1514.6875,191.6875 1515.4375,191.1406 C1516.0156,190.7344 1516.3438,190.2813 1516.3438,189.8906 C1516.3438,189.4375 1515.9531,189.0469 1515.4844,189.0469 C1515.2656,189.0469 1515.0625,189.125 1514.875,189.3125 C1514.4219,189.7969 1514.4219,189.7969 1514.2344,189.8906 C1513.8125,190.1563 1513.125,190.2813 1512.3594,190.2813 C1510.3125,190.2813 1509.0156,189.1875 1509.0156,187.4844 L1509.0156,186.3906 C1509.0156,184.6094 1510.2656,183.2969 1512,183.2969 C1512.5781,183.2969 1513.1875,183.4531 1513.6563,183.7031 C1514.1406,183.9844 1514.3125,184.2031 1514.4063,184.6094 C1514.4688,185.0156 1514.5,185.1406 1514.6406,185.2656 C1514.7813,185.4063 1515.0156,185.5156 1515.2344,185.5156 C1515.5,185.5156 1515.7656,185.375 1515.9375,185.1563 C1516.0469,185 1516.0781,184.8125 1516.0781,184.3906 L1516.0781,182.9688 C1516.0781,182.5313 1516.0625,182.4063 1515.9688,182.25 C1515.8125,181.9844 1515.5313,181.8438 1515.2344,181.8438 C1514.9375,181.8438 1514.7344,181.9375 1514.5156,182.25 L1514.3438,182.1719 Z " fill="#000000"/><text fill="#000000" font-family="sans-serif" font-size="12" lengthAdjust="spacing" textLength="87" x="1526" y="190.6543">TestParameter</text><line style="stroke:#A80036;stroke-width:1.5;" x1="1498" x2="1615" y1="202.5" y2="202.5"/><!--MD5=[10d06bcee75aaf74ab8f6040820ceef2]
class Diagnosis--><rect codeLine="37" fill="#FEFECE" filter="url(#f6ajmxxmjgs8p)" height="40" id="Diagnosis" style="stroke:#A80036;stroke-width:1.5;" width="91" x="1028" y="218.5002"/><ellipse cx="1043" cy="234.5002" fill="#ADD1B2" rx="11" ry="11" style="stroke:#A80036;stroke-width:1.0;"/><path d="M1045.3438,230.1721 C1044.4063,229.7346 1043.8125,229.594 1042.9375,229.594 C1040.3125,229.594 1038.3125,231.6721 1038.3125,234.3908 L1038.3125,235.5158 C1038.3125,238.094 1040.4219,239.9846 1043.3125,239.9846 C1044.5313,239.9846 1045.6875,239.6877 1046.4375,239.1408 C1047.0156,238.7346 1047.3438,238.2815 1047.3438,237.8908 C1047.3438,237.4377 1046.9531,237.0471 1046.4844,237.0471 C1046.2656,237.0471 1046.0625,237.1252 1045.875,237.3127 C1045.4219,237.7971 1045.4219,237.7971 1045.2344,237.8908 C1044.8125,238.1565 1044.125,238.2815 1043.3594,238.2815 C1041.3125,238.2815 1040.0156,237.1877 1040.0156,235.4846 L1040.0156,234.3908 C1040.0156,232.6096 1041.2656,231.2971 1043,231.2971 C1043.5781,231.2971 1044.1875,231.4533 1044.6563,231.7033 C1045.1406,231.9846 1045.3125,232.2033 1045.4063,232.6096 C1045.4688,233.0158 1045.5,233.1408 1045.6406,233.2658 C1045.7813,233.4065 1046.0156,233.5158 1046.2344,233.5158 C1046.5,233.5158 1046.7656,233.3752 1046.9375,233.1565 C1047.0469,233.0002 1047.0781,232.8127 1047.0781,232.3908 L1047.0781,230.969 C1047.0781,230.5315 1047.0625,230.4065 1046.9688,230.2502 C1046.8125,229.9846 1046.5313,229.844 1046.2344,229.844 C1045.9375,229.844 1045.7344,229.9377 1045.5156,230.2502 L1045.3438,230.1721 Z " fill="#000000"/><text fill="#000000" font-family="sans-serif" font-size="12" lengthAdjust="spacing" textLength="59" x="1057" y="238.6545">Diagnosis</text><line style="stroke:#A80036;stroke-width:1.5;" x1="1029" x2="1118" y1="250.5002" y2="250.5002"/><!--MD5=[f00dbe8c0302c6aec2cb26b3c659c8fc]
class Report--><rect codeLine="39" fill="#FEFECE" filter="url(#f6ajmxxmjgs8p)" height="52.8047" id="Report" style="stroke:#A80036;stroke-width:1.5;" width="76" x="823" y="212.0002"/><ellipse cx="839.8" cy="228.0002" fill="#ADD1B2" rx="11" ry="11" style="stroke:#A80036;stroke-width:1.0;"/><path d="M842.1438,223.6721 C841.2063,223.2346 840.6125,223.094 839.7375,223.094 C837.1125,223.094 835.1125,225.1721 835.1125,227.8908 L835.1125,229.0158 C835.1125,231.594 837.2219,233.4846 840.1125,233.4846 C841.3313,233.4846 842.4875,233.1877 843.2375,232.6408 C843.8156,232.2346 844.1438,231.7815 844.1438,231.3908 C844.1438,230.9377 843.7531,230.5471 843.2844,230.5471 C843.0656,230.5471 842.8625,230.6252 842.675,230.8127 C842.2219,231.2971 842.2219,231.2971 842.0344,231.3908 C841.6125,231.6565 840.925,231.7815 840.1594,231.7815 C838.1125,231.7815 836.8156,230.6877 836.8156,228.9846 L836.8156,227.8908 C836.8156,226.1096 838.0656,224.7971 839.8,224.7971 C840.3781,224.7971 840.9875,224.9533 841.4563,225.2033 C841.9406,225.4846 842.1125,225.7033 842.2063,226.1096 C842.2688,226.5158 842.3,226.6408 842.4406,226.7658 C842.5813,226.9065 842.8156,227.0158 843.0344,227.0158 C843.3,227.0158 843.5656,226.8752 843.7375,226.6565 C843.8469,226.5002 843.8781,226.3127 843.8781,225.8908 L843.8781,224.469 C843.8781,224.0315 843.8625,223.9065 843.7688,223.7502 C843.6125,223.4846 843.3313,223.344 843.0344,223.344 C842.7375,223.344 842.5344,223.4377 842.3156,223.7502 L842.1438,223.6721 Z " fill="#000000"/><text fill="#000000" font-family="sans-serif" font-size="12" lengthAdjust="spacing" textLength="40" x="854.2" y="232.1545">Report</text><line style="stroke:#A80036;stroke-width:1.5;" x1="824" x2="898" y1="244.0002" y2="244.0002"/><text fill="#000000" font-family="sans-serif" font-size="11" lengthAdjust="spacing" textLength="64" x="829" y="258.2106">-String text</text><!--MD5=[4e608140b854dae633589343bce77383]
class TestParameterResult--><rect codeLine="42" fill="#FEFECE" filter="url(#f6ajmxxmjgs8p)" height="65.6094" id="TestParameterResult" style="stroke:#A80036;stroke-width:1.5;" width="155" x="1714" y="157.5"/><ellipse cx="1729" cy="173.5" fill="#ADD1B2" rx="11" ry="11" style="stroke:#A80036;stroke-width:1.0;"/><path d="M1731.3438,169.1719 C1730.4063,168.7344 1729.8125,168.5938 1728.9375,168.5938 C1726.3125,168.5938 1724.3125,170.6719 1724.3125,173.3906 L1724.3125,174.5156 C1724.3125,177.0938 1726.4219,178.9844 1729.3125,178.9844 C1730.5313,178.9844 1731.6875,178.6875 1732.4375,178.1406 C1733.0156,177.7344 1733.3438,177.2813 1733.3438,176.8906 C1733.3438,176.4375 1732.9531,176.0469 1732.4844,176.0469 C1732.2656,176.0469 1732.0625,176.125 1731.875,176.3125 C1731.4219,176.7969 1731.4219,176.7969 1731.2344,176.8906 C1730.8125,177.1563 1730.125,177.2813 1729.3594,177.2813 C1727.3125,177.2813 1726.0156,176.1875 1726.0156,174.4844 L1726.0156,173.3906 C1726.0156,171.6094 1727.2656,170.2969 1729,170.2969 C1729.5781,170.2969 1730.1875,170.4531 1730.6563,170.7031 C1731.1406,170.9844 1731.3125,171.2031 1731.4063,171.6094 C1731.4688,172.0156 1731.5,172.1406 1731.6406,172.2656 C1731.7813,172.4063 1732.0156,172.5156 1732.2344,172.5156 C1732.5,172.5156 1732.7656,172.375 1732.9375,172.1563 C1733.0469,172 1733.0781,171.8125 1733.0781,171.3906 L1733.0781,169.9688 C1733.0781,169.5313 1733.0625,169.4063 1732.9688,169.25 C1732.8125,168.9844 1732.5313,168.8438 1732.2344,168.8438 C1731.9375,168.8438 1731.7344,168.9375 1731.5156,169.25 L1731.3438,169.1719 Z " fill="#000000"/><text fill="#000000" font-family="sans-serif" font-size="12" lengthAdjust="spacing" textLength="123" x="1743" y="177.6543">TestParameterResult</text><line style="stroke:#A80036;stroke-width:1.5;" x1="1715" x2="1868" y1="189.5" y2="189.5"/><text fill="#000000" font-family="sans-serif" font-size="11" lengthAdjust="spacing" textLength="74" x="1720" y="203.7104">-String Value</text><text fill="#000000" font-family="sans-serif" font-size="11" lengthAdjust="spacing" textLength="77" x="1720" y="216.5151">-String metric</text><!--MD5=[1c357e7e7fdba398bcadd6e61afe49f5]
class ReferenceValue--><rect codeLine="47" fill="#FEFECE" filter="url(#f6ajmxxmjgs8p)" height="40" id="ReferenceValue" style="stroke:#A80036;stroke-width:1.5;" width="127" x="1992" y="170.5"/><ellipse cx="2007" cy="186.5" fill="#ADD1B2" rx="11" ry="11" style="stroke:#A80036;stroke-width:1.0;"/><path d="M2009.3438,182.1719 C2008.4063,181.7344 2007.8125,181.5938 2006.9375,181.5938 C2004.3125,181.5938 2002.3125,183.6719 2002.3125,186.3906 L2002.3125,187.5156 C2002.3125,190.0938 2004.4219,191.9844 2007.3125,191.9844 C2008.5313,191.9844 2009.6875,191.6875 2010.4375,191.1406 C2011.0156,190.7344 2011.3438,190.2813 2011.3438,189.8906 C2011.3438,189.4375 2010.9531,189.0469 2010.4844,189.0469 C2010.2656,189.0469 2010.0625,189.125 2009.875,189.3125 C2009.4219,189.7969 2009.4219,189.7969 2009.2344,189.8906 C2008.8125,190.1563 2008.125,190.2813 2007.3594,190.2813 C2005.3125,190.2813 2004.0156,189.1875 2004.0156,187.4844 L2004.0156,186.3906 C2004.0156,184.6094 2005.2656,183.2969 2007,183.2969 C2007.5781,183.2969 2008.1875,183.4531 2008.6563,183.7031 C2009.1406,183.9844 2009.3125,184.2031 2009.4063,184.6094 C2009.4688,185.0156 2009.5,185.1406 2009.6406,185.2656 C2009.7813,185.4063 2010.0156,185.5156 2010.2344,185.5156 C2010.5,185.5156 2010.7656,185.375 2010.9375,185.1563 C2011.0469,185 2011.0781,184.8125 2011.0781,184.3906 L2011.0781,182.9688 C2011.0781,182.5313 2011.0625,182.4063 2010.9688,182.25 C2010.8125,181.9844 2010.5313,181.8438 2010.2344,181.8438 C2009.9375,181.8438 2009.7344,181.9375 2009.5156,182.25 L2009.3438,182.1719 Z " fill="#000000"/><text fill="#000000" font-family="sans-serif" font-size="12" lengthAdjust="spacing" textLength="95" x="2021" y="190.6543">ReferenceValue</text><line style="stroke:#A80036;stroke-width:1.5;" x1="1993" x2="2118" y1="202.5" y2="202.5"/><!--MD5=[09366576ee87d48d594df10cacc83f45]
link Company to Employee--><path codeLine="52" d="M126.195,209.5002 C164.497,209.5002 214.832,209.5002 255.956,209.5002 " fill="none" id="Company-Employee" style="stroke:#A80036;stroke-width:1.0;"/><polygon fill="#000000" points="166,201.0664,156.9549,198.1275,156.9549,204.0053,166,201.0664" style="stroke:#000000;stroke-width:1.0;"/><text fill="#000000" font-family="sans-serif" font-size="13" lengthAdjust="spacing" textLength="55" x="170" y="205.5669">employs</text><text fill="#000000" font-family="sans-serif" font-size="13" lengthAdjust="spacing" textLength="8" x="133.9578" y="222.5012">1</text><text fill="#000000" font-family="sans-serif" font-size="13" lengthAdjust="spacing" textLength="7" x="240.8046" y="222.3563">*</text><!--MD5=[670dbdf7395d3fcbb40104f0a070263e]
link Company to Report--><path codeLine="53" d="M118.267,236.1857 C155.306,254.0882 207.331,276.0583 256,285.5002 C467.669,326.5648 727.652,271.7231 822.839,248.2424 " fill="none" id="Company-Report" style="stroke:#A80036;stroke-width:1.0;"/><polygon fill="#000000" points="446.9993,290.1522,438.0058,287.0589,437.9052,292.9359,446.9993,290.1522" style="stroke:#000000;stroke-width:1.0;"/><text fill="#000000" font-family="sans-serif" font-size="13" lengthAdjust="spacing" textLength="39" x="451" y="294.5671">wants</text><text fill="#000000" font-family="sans-serif" font-size="13" lengthAdjust="spacing" textLength="8" x="120.716" y="255.7666">1</text><text fill="#000000" font-family="sans-serif" font-size="13" lengthAdjust="spacing" textLength="7" x="807.8974" y="263.6274">*</text><!--MD5=[7e4bc624457760b649895ff2ead938fa]
link Company to Test--><path codeLine="54" d="M103.7434,182.958 C152.641,149.838 243.652,97.5 330.5,97.5 C330.5,97.5 330.5,97.5 1074.5,97.5 C1129.35,97.5 1191.15,97.5 1238.77,97.5 " fill="none" id="Company-Test" style="stroke:#A80036;stroke-width:1.0;"/><polygon fill="#000000" points="728.9859,88.691,719.7457,86.4395,720.187,92.3007,728.9859,88.691" style="stroke:#000000;stroke-width:1.0;"/><text fill="#000000" font-family="sans-serif" font-size="13" lengthAdjust="spacing" textLength="59" x="733" y="93.5669">performs</text><text fill="#000000" font-family="sans-serif" font-size="13" lengthAdjust="spacing" textLength="8" x="103.8465" y="171.7671">1</text><text fill="#000000" font-family="sans-serif" font-size="13" lengthAdjust="spacing" textLength="7" x="1224.0511" y="110.2713">*</text><!--MD5=[7dae17bb55c59b06af656d7c83a51371]
reverse link Employee to LaboratoryCoordinator--><path codeLine="55" d="M427.037,216.1161 C457.47,218.2458 490.956,220.5893 520.534,222.6592 " fill="none" id="Employee-backto-LaboratoryCoordinator" style="stroke:#A80036;stroke-width:1.0;"/><polygon fill="none" points="426.51,223.0964,407.048,214.7172,427.488,209.1306,426.51,223.0964" style="stroke:#A80036;stroke-width:1.0;"/><polygon fill="#000000" points="454.9878,208.4155,446.17,204.8523,445.7596,210.7158,454.9878,208.4155" style="stroke:#000000;stroke-width:1.0;"/><text fill="#000000" font-family="sans-serif" font-size="13" lengthAdjust="spacing" textLength="23" x="459" y="212.5669">has</text><text fill="#000000" font-family="sans-serif" font-size="13" lengthAdjust="spacing" textLength="8" x="414.8785" y="228.0509">1</text><text fill="#000000" font-family="sans-serif" font-size="13" lengthAdjust="spacing" textLength="7" x="505.9744" y="234.8744">*</text><!--MD5=[848c8065b29fb9bba3c9b45c1c07083f]
link LaboratoryCoordinator to Report--><path codeLine="56" d="M689.169,231.7746 C734.31,233.5518 787.871,235.6605 822.828,237.0368 " fill="none" id="LaboratoryCoordinator-Report" style="stroke:#A80036;stroke-width:1.0;"/><polygon fill="#000000" points="728.9961,224.2633,720.0737,220.9708,719.8424,226.8441,728.9961,224.2633" style="stroke:#000000;stroke-width:1.0;"/><text fill="#000000" font-family="sans-serif" font-size="13" lengthAdjust="spacing" textLength="59" x="733" y="228.5671">Validates</text><text fill="#000000" font-family="sans-serif" font-size="13" lengthAdjust="spacing" textLength="8" x="697.0216" y="244.807">1</text><text fill="#000000" font-family="sans-serif" font-size="13" lengthAdjust="spacing" textLength="23" x="791.9115" y="232.7013">1..*</text><!--MD5=[f24c888dadeb846430474fe80a58922b]
link Test to TestParameter--><path codeLine="57" d="M1399.07,128.727 C1433.95,142.499 1473.92,158.283 1504.72,170.448 " fill="none" id="Test-TestParameter" style="stroke:#A80036;stroke-width:1.0;"/><polygon fill="#000000" points="1438.6505,134.9029,1431.3171,128.8472,1429.1582,134.3142,1438.6505,134.9029" style="stroke:#000000;stroke-width:1.0;"/><text fill="#000000" font-family="sans-serif" font-size="13" lengthAdjust="spacing" textLength="23" x="1443" y="137.5669">has</text><text fill="#000000" font-family="sans-serif" font-size="13" lengthAdjust="spacing" textLength="8" x="1407.0829" y="144.4985">1</text><text fill="#000000" font-family="sans-serif" font-size="13" lengthAdjust="spacing" textLength="23" x="1466.2955" y="160.8153">1..*</text><!--MD5=[0e00e25ac6b8c14659aaff2cf7e5df08]
link TestParameter to TestParameterResult--><path codeLine="58" d="M1616.3,190.5 C1645.82,190.5 1681.96,190.5 1713.65,190.5 " fill="none" id="TestParameter-TestParameterResult" style="stroke:#A80036;stroke-width:1.0;"/><polygon fill="#000000" points="1656,182.0664,1646.9549,179.1275,1646.9549,185.0053,1656,182.0664" style="stroke:#000000;stroke-width:1.0;"/><text fill="#000000" font-family="sans-serif" font-size="13" lengthAdjust="spacing" textLength="23" x="1660" y="186.5669">has</text><text fill="#000000" font-family="sans-serif" font-size="13" lengthAdjust="spacing" textLength="8" x="1624.0756" y="203.4891">1</text><text fill="#000000" font-family="sans-serif" font-size="13" lengthAdjust="spacing" textLength="8" x="1698.1045" y="203.2824">1</text><!--MD5=[52200cc2361fa0ac0481dd6ffcdb824b]
link TestParameterResult to ReferenceValue--><path codeLine="59" d="M1869.34,190.5 C1908.29,190.5 1955.01,190.5 1991.77,190.5 " fill="none" id="TestParameterResult-ReferenceValue" style="stroke:#A80036;stroke-width:1.0;"/><polygon fill="#000000" points="1909,182.0664,1899.9549,179.1275,1899.9549,185.0053,1909,182.0664" style="stroke:#000000;stroke-width:1.0;"/><text fill="#000000" font-family="sans-serif" font-size="13" lengthAdjust="spacing" textLength="48" x="1913" y="186.5669">records</text><text fill="#000000" font-family="sans-serif" font-size="13" lengthAdjust="spacing" textLength="8" x="1876.8846" y="203.2824">1</text><text fill="#000000" font-family="sans-serif" font-size="13" lengthAdjust="spacing" textLength="8" x="1975.9387" y="203.4418">1</text><!--MD5=[9ea131e34883d590a1cfd41d17f43241]
link Report to Diagnosis--><path codeLine="60" d="M899.149,238.5002 C935.029,238.5002 989.415,238.5002 1027.68,238.5002 " fill="none" id="Report-Diagnosis" style="stroke:#A80036;stroke-width:1.0;"/><polygon fill="#000000" points="939,230.0666,929.9549,227.1277,929.9549,233.0055,939,230.0666" style="stroke:#000000;stroke-width:1.0;"/><text fill="#000000" font-family="sans-serif" font-size="13" lengthAdjust="spacing" textLength="54" x="943" y="234.5671">contains</text><text fill="#000000" font-family="sans-serif" font-size="13" lengthAdjust="spacing" textLength="8" x="906.9202" y="251.9802">1</text><text fill="#000000" font-family="sans-serif" font-size="13" lengthAdjust="spacing" textLength="8" x="1012.0513" y="251.7257">1</text><!--MD5=[6a792874ec670501550ba3cef1907474]
link Diagnosis to Test--><path codeLine="61" d="M1109.13,218.4481 C1142.74,198.984 1194.96,168.747 1238.77,143.376 " fill="none" id="Diagnosis-Test" style="stroke:#A80036;stroke-width:1.0;"/><polygon fill="#000000" points="1158.3269,152.5608,1149.0267,154.5502,1151.9722,159.6368,1158.3269,152.5608" style="stroke:#000000;stroke-width:1.0;"/><text fill="#000000" font-family="sans-serif" font-size="13" lengthAdjust="spacing" textLength="45" x="1163" y="159.5669">is from</text><text fill="#000000" font-family="sans-serif" font-size="13" lengthAdjust="spacing" textLength="7" x="1111.5682" y="207.4411">*</text><text fill="#000000" font-family="sans-serif" font-size="13" lengthAdjust="spacing" textLength="8" x="1223.005" y="160.3765">1</text><!--MD5=[14feee8412b59bb6a0d308f3873ac034]
link Diagnosis to TestParameter--><path codeLine="62" d="M1119.04,238.4464 C1181.75,237.8846 1299.53,235.0479 1399,222.5002 C1431.6,218.3874 1467.56,211.2256 1496.77,204.7188 " fill="none" id="Diagnosis-TestParameter" style="stroke:#A80036;stroke-width:1.0;"/><polygon fill="#000000" points="1271.5198,214.5113,1280.7904,216.6341,1280.2677,210.7796,1271.5198,214.5113" style="stroke:#000000;stroke-width:1.0;"/><text fill="#000000" font-family="sans-serif" font-size="13" lengthAdjust="spacing" textLength="80" x="1285.5" y="218.5671">created with</text><text fill="#000000" font-family="sans-serif" font-size="13" lengthAdjust="spacing" textLength="8" x="1126.9354" y="251.7106">1</text><text fill="#000000" font-family="sans-serif" font-size="13" lengthAdjust="spacing" textLength="8" x="1481.0029" y="219.4408">1</text><!--MD5=[2a11543cf743ce950152af8a9193b12c]
@startuml
hide methods
left to right direction
skinparam classAttributeIconSize 0


class Company {
  -String designation
}


class Test{
  -String code
  -String NHSCode
  -String description 
  -String dateSample 
  -String timeSmaple
  -String dateChemAnalysis
  -String timeChemAnalysis
  -String dateDiagnosis 
  -String timeDiagnosis 
  -String dateValidTest 
  -String timeValidTest
}
class Employee{
  -String employeeID;
  -String organizationRole;
  -String name;
  -String adress;
  -String phoneNumber;
  -int codeSOC;
}
class LaboratoryCoordinator{
}
class TestParameter{
 
}
class Diagnosis{
}
class Report{
  -String text
}
class TestParameterResult{
  -String Value
  -String metric
  
}
class ReferenceValue{
}



Company "1" - - "*" Employee: employs >
Company "1" - - "*" Report: wants >
Company "1" - - "*" Test: performs >
Employee "1" <|- - "*" LaboratoryCoordinator: has >
LaboratoryCoordinator "1" - - "1..*" Report : Validates >
Test "1" - - "1..*" TestParameter: has >
TestParameter "1" - - "1" TestParameterResult: has >
TestParameterResult "1" - - "1" ReferenceValue: records >
Report "1" - - "1" Diagnosis : contains >
Diagnosis "*" - - "1" Test : is from >
Diagnosis "1" - - "1" TestParameter: created with <
@enduml

PlantUML version 1.2021.7(Sun May 23 12:40:07 UTC 2021)
(GPL source distribution)
Java Runtime: Java(TM) SE Runtime Environment
JVM: Java HotSpot(TM) 64-Bit Server VM
Default Encoding: UTF-8
Language: en
Country: US
--></g></svg>