<?xml version="1.0" encoding="UTF-8" standalone="no"?><svg xmlns="http://www.w3.org/2000/svg" xmlns:xlink="http://www.w3.org/1999/xlink" contentScriptType="application/ecmascript" contentStyleType="text/css" height="1067px" preserveAspectRatio="none" style="width:576px;height:1067px;background:#FFFFFF;" version="1.1" viewBox="0 0 576 1067" width="576px" zoomAndPan="magnify"><defs><filter height="300%" id="f11jckem7wya3z" width="300%" x="-1" y="-1"><feGaussianBlur result="blurOut" stdDeviation="2.0"/><feColorMatrix in="blurOut" result="blurOut2" type="matrix" values="0 0 0 0 0 0 0 0 0 0 0 0 0 0 0 0 0 0 .4 0"/><feOffset dx="4.0" dy="4.0" in="blurOut2" result="blurOut3"/><feBlend in="SourceGraphic" in2="blurOut3" mode="normal"/></filter></defs><g><!--MD5=[9136cf5af53fd3ae684263c8e2108a52]
class ValidatingWorkController--><rect codeLine="3" fill="#FEFECE" filter="url(#f11jckem7wya3z)" height="188.8516" id="ValidatingWorkController" style="stroke:#A80036;stroke-width:1.5;" width="181" x="264" y="116"/><ellipse cx="279" cy="132" fill="#ADD1B2" rx="11" ry="11" style="stroke:#A80036;stroke-width:1.0;"/><path d="M281.3438,127.6719 C280.4063,127.2344 279.8125,127.0938 278.9375,127.0938 C276.3125,127.0938 274.3125,129.1719 274.3125,131.8906 L274.3125,133.0156 C274.3125,135.5938 276.4219,137.4844 279.3125,137.4844 C280.5313,137.4844 281.6875,137.1875 282.4375,136.6406 C283.0156,136.2344 283.3438,135.7813 283.3438,135.3906 C283.3438,134.9375 282.9531,134.5469 282.4844,134.5469 C282.2656,134.5469 282.0625,134.625 281.875,134.8125 C281.4219,135.2969 281.4219,135.2969 281.2344,135.3906 C280.8125,135.6563 280.125,135.7813 279.3594,135.7813 C277.3125,135.7813 276.0156,134.6875 276.0156,132.9844 L276.0156,131.8906 C276.0156,130.1094 277.2656,128.7969 279,128.7969 C279.5781,128.7969 280.1875,128.9531 280.6563,129.2031 C281.1406,129.4844 281.3125,129.7031 281.4063,130.1094 C281.4688,130.5156 281.5,130.6406 281.6406,130.7656 C281.7813,130.9063 282.0156,131.0156 282.2344,131.0156 C282.5,131.0156 282.7656,130.875 282.9375,130.6563 C283.0469,130.5 283.0781,130.3125 283.0781,129.8906 L283.0781,128.4688 C283.0781,128.0313 283.0625,127.9063 282.9688,127.75 C282.8125,127.4844 282.5313,127.3438 282.2344,127.3438 C281.9375,127.3438 281.7344,127.4375 281.5156,127.75 L281.3438,127.6719 Z " fill="#000000"/><text fill="#000000" font-family="sans-serif" font-size="12" lengthAdjust="spacing" textLength="149" x="293" y="136.1543">ValidatingWorkController</text><line style="stroke:#A80036;stroke-width:1.5;" x1="265" x2="444" y1="148" y2="148"/><text fill="#000000" font-family="sans-serif" font-size="11" lengthAdjust="spacing" textLength="136" x="270" y="162.2104">-TestValideStore store1</text><text fill="#000000" font-family="sans-serif" font-size="11" lengthAdjust="spacing" textLength="93" x="270" y="175.0151">-TestStore store</text><text fill="#000000" font-family="sans-serif" font-size="11" lengthAdjust="spacing" textLength="114" x="270" y="187.8198">-Company company</text><text fill="#000000" font-family="sans-serif" font-size="11" lengthAdjust="spacing" textLength="44" x="270" y="200.6245">-Test t1</text><text fill="#000000" font-family="sans-serif" font-size="11" lengthAdjust="spacing" textLength="50" x="270" y="213.4292">-Client cl</text><line style="stroke:#A80036;stroke-width:1.5;" x1="265" x2="444" y1="220.0234" y2="220.0234"/><text fill="#000000" font-family="sans-serif" font-size="11" lengthAdjust="spacing" textLength="67" x="270" y="234.2339">+getTests()</text><text fill="#000000" font-family="sans-serif" font-size="11" lengthAdjust="spacing" textLength="116" x="270" y="247.0386">+validateTest(code)</text><text fill="#000000" font-family="sans-serif" font-size="11" lengthAdjust="spacing" textLength="63" x="270" y="259.8433">+addTest()</text><text fill="#000000" font-family="sans-serif" font-size="11" lengthAdjust="spacing" textLength="85" x="270" y="272.6479">+sendEmail(cl)</text><text fill="#000000" font-family="sans-serif" font-size="11" lengthAdjust="spacing" textLength="69" x="270" y="285.4526">+getClient()</text><text fill="#000000" font-family="sans-serif" font-size="11" lengthAdjust="spacing" textLength="46" x="270" y="298.2573">+show()</text><!--MD5=[07c1849584b4a86f8ebd28fa0b41d3eb]
class ValidatingWorkUI--><rect codeLine="16" fill="#FEFECE" filter="url(#f11jckem7wya3z)" height="48" id="ValidatingWorkUI" style="stroke:#A80036;stroke-width:1.5;" width="134" x="193.5" y="7"/><ellipse cx="208.5" cy="23" fill="#ADD1B2" rx="11" ry="11" style="stroke:#A80036;stroke-width:1.0;"/><path d="M210.8438,18.6719 C209.9063,18.2344 209.3125,18.0938 208.4375,18.0938 C205.8125,18.0938 203.8125,20.1719 203.8125,22.8906 L203.8125,24.0156 C203.8125,26.5938 205.9219,28.4844 208.8125,28.4844 C210.0313,28.4844 211.1875,28.1875 211.9375,27.6406 C212.5156,27.2344 212.8438,26.7813 212.8438,26.3906 C212.8438,25.9375 212.4531,25.5469 211.9844,25.5469 C211.7656,25.5469 211.5625,25.625 211.375,25.8125 C210.9219,26.2969 210.9219,26.2969 210.7344,26.3906 C210.3125,26.6563 209.625,26.7813 208.8594,26.7813 C206.8125,26.7813 205.5156,25.6875 205.5156,23.9844 L205.5156,22.8906 C205.5156,21.1094 206.7656,19.7969 208.5,19.7969 C209.0781,19.7969 209.6875,19.9531 210.1563,20.2031 C210.6406,20.4844 210.8125,20.7031 210.9063,21.1094 C210.9688,21.5156 211,21.6406 211.1406,21.7656 C211.2813,21.9063 211.5156,22.0156 211.7344,22.0156 C212,22.0156 212.2656,21.875 212.4375,21.6563 C212.5469,21.5 212.5781,21.3125 212.5781,20.8906 L212.5781,19.4688 C212.5781,19.0313 212.5625,18.9063 212.4688,18.75 C212.3125,18.4844 212.0313,18.3438 211.7344,18.3438 C211.4375,18.3438 211.2344,18.4375 211.0156,18.75 L210.8438,18.6719 Z " fill="#000000"/><text fill="#000000" font-family="sans-serif" font-size="12" lengthAdjust="spacing" textLength="102" x="222.5" y="27.1543">ValidatingWorkUI</text><line style="stroke:#A80036;stroke-width:1.5;" x1="194.5" x2="326.5" y1="39" y2="39"/><line style="stroke:#A80036;stroke-width:1.5;" x1="194.5" x2="326.5" y1="47" y2="47"/><!--MD5=[df38be88ccee13e832d6fafd6288a4ca]
class Test--><rect codeLine="18" fill="#FEFECE" filter="url(#f11jckem7wya3z)" height="86.4141" id="Test" style="stroke:#A80036;stroke-width:1.5;" width="150" x="242.5" y="705"/><ellipse cx="300.25" cy="721" fill="#ADD1B2" rx="11" ry="11" style="stroke:#A80036;stroke-width:1.0;"/><path d="M302.5938,716.6719 C301.6563,716.2344 301.0625,716.0938 300.1875,716.0938 C297.5625,716.0938 295.5625,718.1719 295.5625,720.8906 L295.5625,722.0156 C295.5625,724.5938 297.6719,726.4844 300.5625,726.4844 C301.7813,726.4844 302.9375,726.1875 303.6875,725.6406 C304.2656,725.2344 304.5938,724.7813 304.5938,724.3906 C304.5938,723.9375 304.2031,723.5469 303.7344,723.5469 C303.5156,723.5469 303.3125,723.625 303.125,723.8125 C302.6719,724.2969 302.6719,724.2969 302.4844,724.3906 C302.0625,724.6563 301.375,724.7813 300.6094,724.7813 C298.5625,724.7813 297.2656,723.6875 297.2656,721.9844 L297.2656,720.8906 C297.2656,719.1094 298.5156,717.7969 300.25,717.7969 C300.8281,717.7969 301.4375,717.9531 301.9063,718.2031 C302.3906,718.4844 302.5625,718.7031 302.6563,719.1094 C302.7188,719.5156 302.75,719.6406 302.8906,719.7656 C303.0313,719.9063 303.2656,720.0156 303.4844,720.0156 C303.75,720.0156 304.0156,719.875 304.1875,719.6563 C304.2969,719.5 304.3281,719.3125 304.3281,718.8906 L304.3281,717.4688 C304.3281,717.0313 304.3125,716.9063 304.2188,716.75 C304.0625,716.4844 303.7813,716.3438 303.4844,716.3438 C303.1875,716.3438 302.9844,716.4375 302.7656,716.75 L302.5938,716.6719 Z " fill="#000000"/><text fill="#000000" font-family="sans-serif" font-size="12" lengthAdjust="spacing" textLength="26" x="320.75" y="725.1543">Test</text><line style="stroke:#A80036;stroke-width:1.5;" x1="243.5" x2="391.5" y1="737" y2="737"/><line style="stroke:#A80036;stroke-width:1.5;" x1="243.5" x2="391.5" y1="745" y2="745"/><text fill="#000000" font-family="sans-serif" font-size="11" lengthAdjust="spacing" textLength="69" x="248.5" y="759.2104">+getClient()</text><text fill="#000000" font-family="sans-serif" font-size="11" lengthAdjust="spacing" textLength="137" x="248.5" y="772.0151">+SetDateValidateTest()</text><text fill="#000000" font-family="sans-serif" font-size="11" lengthAdjust="spacing" textLength="138" x="248.5" y="784.8198">+SetTimeValidateTest()</text><!--MD5=[02e4b9b7573f1156f41e60aa5b4e25a4]
class Company--><rect codeLine="23" fill="#FEFECE" filter="url(#f11jckem7wya3z)" height="86.4141" id="Company" style="stroke:#A80036;stroke-width:1.5;" width="140" x="314.5" y="372.5"/><ellipse cx="352.9" cy="388.5" fill="#ADD1B2" rx="11" ry="11" style="stroke:#A80036;stroke-width:1.0;"/><path d="M355.2438,384.1719 C354.3063,383.7344 353.7125,383.5938 352.8375,383.5938 C350.2125,383.5938 348.2125,385.6719 348.2125,388.3906 L348.2125,389.5156 C348.2125,392.0938 350.3219,393.9844 353.2125,393.9844 C354.4313,393.9844 355.5875,393.6875 356.3375,393.1406 C356.9156,392.7344 357.2438,392.2813 357.2438,391.8906 C357.2438,391.4375 356.8531,391.0469 356.3844,391.0469 C356.1656,391.0469 355.9625,391.125 355.775,391.3125 C355.3219,391.7969 355.3219,391.7969 355.1344,391.8906 C354.7125,392.1563 354.025,392.2813 353.2594,392.2813 C351.2125,392.2813 349.9156,391.1875 349.9156,389.4844 L349.9156,388.3906 C349.9156,386.6094 351.1656,385.2969 352.9,385.2969 C353.4781,385.2969 354.0875,385.4531 354.5563,385.7031 C355.0406,385.9844 355.2125,386.2031 355.3063,386.6094 C355.3688,387.0156 355.4,387.1406 355.5406,387.2656 C355.6813,387.4063 355.9156,387.5156 356.1344,387.5156 C356.4,387.5156 356.6656,387.375 356.8375,387.1563 C356.9469,387 356.9781,386.8125 356.9781,386.3906 L356.9781,384.9688 C356.9781,384.5313 356.9625,384.4063 356.8688,384.25 C356.7125,383.9844 356.4313,383.8438 356.1344,383.8438 C355.8375,383.8438 355.6344,383.9375 355.4156,384.25 L355.2438,384.1719 Z " fill="#000000"/><text fill="#000000" font-family="sans-serif" font-size="12" lengthAdjust="spacing" textLength="56" x="372.1" y="392.6543">Company</text><line style="stroke:#A80036;stroke-width:1.5;" x1="315.5" x2="453.5" y1="404.5" y2="404.5"/><text fill="#000000" font-family="sans-serif" font-size="11" lengthAdjust="spacing" textLength="107" x="320.5" y="418.7104">-String designation</text><line style="stroke:#A80036;stroke-width:1.5;" x1="315.5" x2="453.5" y1="425.3047" y2="425.3047"/><text fill="#000000" font-family="sans-serif" font-size="11" lengthAdjust="spacing" textLength="128" x="320.5" y="439.5151">+getTestValideStore()</text><text fill="#000000" font-family="sans-serif" font-size="11" lengthAdjust="spacing" textLength="92" x="320.5" y="452.3198">+getTestStore()</text><!--MD5=[ed6624c6556d5e7b1bd23032162d20b7]
class Client--><rect codeLine="28" fill="#FEFECE" filter="url(#f11jckem7wya3z)" height="48" id="Client" style="stroke:#A80036;stroke-width:1.5;" width="65" x="367" y="868"/><ellipse cx="382" cy="884" fill="#ADD1B2" rx="11" ry="11" style="stroke:#A80036;stroke-width:1.0;"/><path d="M384.3438,879.6719 C383.4063,879.2344 382.8125,879.0938 381.9375,879.0938 C379.3125,879.0938 377.3125,881.1719 377.3125,883.8906 L377.3125,885.0156 C377.3125,887.5938 379.4219,889.4844 382.3125,889.4844 C383.5313,889.4844 384.6875,889.1875 385.4375,888.6406 C386.0156,888.2344 386.3438,887.7813 386.3438,887.3906 C386.3438,886.9375 385.9531,886.5469 385.4844,886.5469 C385.2656,886.5469 385.0625,886.625 384.875,886.8125 C384.4219,887.2969 384.4219,887.2969 384.2344,887.3906 C383.8125,887.6563 383.125,887.7813 382.3594,887.7813 C380.3125,887.7813 379.0156,886.6875 379.0156,884.9844 L379.0156,883.8906 C379.0156,882.1094 380.2656,880.7969 382,880.7969 C382.5781,880.7969 383.1875,880.9531 383.6563,881.2031 C384.1406,881.4844 384.3125,881.7031 384.4063,882.1094 C384.4688,882.5156 384.5,882.6406 384.6406,882.7656 C384.7813,882.9063 385.0156,883.0156 385.2344,883.0156 C385.5,883.0156 385.7656,882.875 385.9375,882.6563 C386.0469,882.5 386.0781,882.3125 386.0781,881.8906 L386.0781,880.4688 C386.0781,880.0313 386.0625,879.9063 385.9688,879.75 C385.8125,879.4844 385.5313,879.3438 385.2344,879.3438 C384.9375,879.3438 384.7344,879.4375 384.5156,879.75 L384.3438,879.6719 Z " fill="#000000"/><text fill="#000000" font-family="sans-serif" font-size="12" lengthAdjust="spacing" textLength="33" x="396" y="888.1543">Client</text><line style="stroke:#A80036;stroke-width:1.5;" x1="368" x2="431" y1="900" y2="900"/><line style="stroke:#A80036;stroke-width:1.5;" x1="368" x2="431" y1="908" y2="908"/><!--MD5=[7e2bc2f128e759c5889ccd6a2666d576]
class EmailNotification--><rect codeLine="30" fill="#FEFECE" filter="url(#f11jckem7wya3z)" height="60.8047" id="EmailNotification" style="stroke:#A80036;stroke-width:1.5;" width="188" x="374.5" y="993"/><ellipse cx="416.05" cy="1009" fill="#ADD1B2" rx="11" ry="11" style="stroke:#A80036;stroke-width:1.0;"/><path d="M418.3938,1004.6719 C417.4563,1004.2344 416.8625,1004.0938 415.9875,1004.0938 C413.3625,1004.0938 411.3625,1006.1719 411.3625,1008.8906 L411.3625,1010.0156 C411.3625,1012.5938 413.4719,1014.4844 416.3625,1014.4844 C417.5813,1014.4844 418.7375,1014.1875 419.4875,1013.6406 C420.0656,1013.2344 420.3938,1012.7813 420.3938,1012.3906 C420.3938,1011.9375 420.0031,1011.5469 419.5344,1011.5469 C419.3156,1011.5469 419.1125,1011.625 418.925,1011.8125 C418.4719,1012.2969 418.4719,1012.2969 418.2844,1012.3906 C417.8625,1012.6563 417.175,1012.7813 416.4094,1012.7813 C414.3625,1012.7813 413.0656,1011.6875 413.0656,1009.9844 L413.0656,1008.8906 C413.0656,1007.1094 414.3156,1005.7969 416.05,1005.7969 C416.6281,1005.7969 417.2375,1005.9531 417.7063,1006.2031 C418.1906,1006.4844 418.3625,1006.7031 418.4563,1007.1094 C418.5188,1007.5156 418.55,1007.6406 418.6906,1007.7656 C418.8313,1007.9063 419.0656,1008.0156 419.2844,1008.0156 C419.55,1008.0156 419.8156,1007.875 419.9875,1007.6563 C420.0969,1007.5 420.1281,1007.3125 420.1281,1006.8906 L420.1281,1005.4688 C420.1281,1005.0313 420.1125,1004.9063 420.0188,1004.75 C419.8625,1004.4844 419.5813,1004.3438 419.2844,1004.3438 C418.9875,1004.3438 418.7844,1004.4375 418.5656,1004.75 L418.3938,1004.6719 Z " fill="#000000"/><text fill="#000000" font-family="sans-serif" font-size="12" lengthAdjust="spacing" textLength="97" x="435.95" y="1013.1543">EmailNotification</text><line style="stroke:#A80036;stroke-width:1.5;" x1="375.5" x2="561.5" y1="1025" y2="1025"/><line style="stroke:#A80036;stroke-width:1.5;" x1="375.5" x2="561.5" y1="1033" y2="1033"/><text fill="#000000" font-family="sans-serif" font-size="11" lengthAdjust="spacing" textLength="176" x="380.5" y="1047.2104">+sendEmailToClient(message)</text><!--MD5=[103cc62abc3c4e47394448103f866516]
class TestValideStore--><rect codeLine="33" fill="#FEFECE" filter="url(#f11jckem7wya3z)" height="86.4141" id="TestValideStore" style="stroke:#A80036;stroke-width:1.5;" width="159" x="119" y="542"/><ellipse cx="147.95" cy="558" fill="#ADD1B2" rx="11" ry="11" style="stroke:#A80036;stroke-width:1.0;"/><path d="M150.2938,553.6719 C149.3563,553.2344 148.7625,553.0938 147.8875,553.0938 C145.2625,553.0938 143.2625,555.1719 143.2625,557.8906 L143.2625,559.0156 C143.2625,561.5938 145.3719,563.4844 148.2625,563.4844 C149.4813,563.4844 150.6375,563.1875 151.3875,562.6406 C151.9656,562.2344 152.2938,561.7813 152.2938,561.3906 C152.2938,560.9375 151.9031,560.5469 151.4344,560.5469 C151.2156,560.5469 151.0125,560.625 150.825,560.8125 C150.3719,561.2969 150.3719,561.2969 150.1844,561.3906 C149.7625,561.6563 149.075,561.7813 148.3094,561.7813 C146.2625,561.7813 144.9656,560.6875 144.9656,558.9844 L144.9656,557.8906 C144.9656,556.1094 146.2156,554.7969 147.95,554.7969 C148.5281,554.7969 149.1375,554.9531 149.6063,555.2031 C150.0906,555.4844 150.2625,555.7031 150.3563,556.1094 C150.4188,556.5156 150.45,556.6406 150.5906,556.7656 C150.7313,556.9063 150.9656,557.0156 151.1844,557.0156 C151.45,557.0156 151.7156,556.875 151.8875,556.6563 C151.9969,556.5 152.0281,556.3125 152.0281,555.8906 L152.0281,554.4688 C152.0281,554.0313 152.0125,553.9063 151.9188,553.75 C151.7625,553.4844 151.4813,553.3438 151.1844,553.3438 C150.8875,553.3438 150.6844,553.4375 150.4656,553.75 L150.2938,553.6719 Z " fill="#000000"/><text fill="#000000" font-family="sans-serif" font-size="12" lengthAdjust="spacing" textLength="96" x="165.05" y="562.1543">TestValideStore</text><line style="stroke:#A80036;stroke-width:1.5;" x1="120" x2="277" y1="574" y2="574"/><text fill="#000000" font-family="sans-serif" font-size="11" lengthAdjust="spacing" textLength="147" x="125" y="588.2104">-List&lt;Test&gt; testValideList</text><line style="stroke:#A80036;stroke-width:1.5;" x1="120" x2="277" y1="594.8047" y2="594.8047"/><text fill="#000000" font-family="sans-serif" font-size="11" lengthAdjust="spacing" textLength="110" x="125" y="609.0151">+validateValide(t1)</text><text fill="#000000" font-family="sans-serif" font-size="11" lengthAdjust="spacing" textLength="85" x="125" y="621.8198">+addValide(t1)</text><!--MD5=[0f6f7964b844a64b0496af0dda7914bd]
class TestStore--><rect codeLine="38" fill="#FEFECE" filter="url(#f11jckem7wya3z)" height="73.6094" id="TestStore" style="stroke:#A80036;stroke-width:1.5;" width="146" x="313.5" y="548"/><ellipse cx="353.25" cy="564" fill="#ADD1B2" rx="11" ry="11" style="stroke:#A80036;stroke-width:1.0;"/><path d="M355.5938,559.6719 C354.6563,559.2344 354.0625,559.0938 353.1875,559.0938 C350.5625,559.0938 348.5625,561.1719 348.5625,563.8906 L348.5625,565.0156 C348.5625,567.5938 350.6719,569.4844 353.5625,569.4844 C354.7813,569.4844 355.9375,569.1875 356.6875,568.6406 C357.2656,568.2344 357.5938,567.7813 357.5938,567.3906 C357.5938,566.9375 357.2031,566.5469 356.7344,566.5469 C356.5156,566.5469 356.3125,566.625 356.125,566.8125 C355.6719,567.2969 355.6719,567.2969 355.4844,567.3906 C355.0625,567.6563 354.375,567.7813 353.6094,567.7813 C351.5625,567.7813 350.2656,566.6875 350.2656,564.9844 L350.2656,563.8906 C350.2656,562.1094 351.5156,560.7969 353.25,560.7969 C353.8281,560.7969 354.4375,560.9531 354.9063,561.2031 C355.3906,561.4844 355.5625,561.7031 355.6563,562.1094 C355.7188,562.5156 355.75,562.6406 355.8906,562.7656 C356.0313,562.9063 356.2656,563.0156 356.4844,563.0156 C356.75,563.0156 357.0156,562.875 357.1875,562.6563 C357.2969,562.5 357.3281,562.3125 357.3281,561.8906 L357.3281,560.4688 C357.3281,560.0313 357.3125,559.9063 357.2188,559.75 C357.0625,559.4844 356.7813,559.3438 356.4844,559.3438 C356.1875,559.3438 355.9844,559.4375 355.7656,559.75 L355.5938,559.6719 Z " fill="#000000"/><text fill="#000000" font-family="sans-serif" font-size="12" lengthAdjust="spacing" textLength="59" x="372.75" y="568.1543">TestStore</text><line style="stroke:#A80036;stroke-width:1.5;" x1="314.5" x2="458.5" y1="580" y2="580"/><line style="stroke:#A80036;stroke-width:1.5;" x1="314.5" x2="458.5" y1="588" y2="588"/><text fill="#000000" font-family="sans-serif" font-size="11" lengthAdjust="spacing" textLength="67" x="319.5" y="602.2104">+getTests()</text><text fill="#000000" font-family="sans-serif" font-size="11" lengthAdjust="spacing" textLength="134" x="319.5" y="615.0151">+getTestByCode(code)</text><!--MD5=[87ab243517adae9bb4100797fc4f356f]
class ValidTestMapper--><rect codeLine="42" fill="#FEFECE" filter="url(#f11jckem7wya3z)" height="60.8047" id="ValidTestMapper" style="stroke:#A80036;stroke-width:1.5;" width="133" x="7" y="180"/><ellipse cx="22" cy="196" fill="#ADD1B2" rx="11" ry="11" style="stroke:#A80036;stroke-width:1.0;"/><path d="M24.3438,191.6719 C23.4063,191.2344 22.8125,191.0938 21.9375,191.0938 C19.3125,191.0938 17.3125,193.1719 17.3125,195.8906 L17.3125,197.0156 C17.3125,199.5938 19.4219,201.4844 22.3125,201.4844 C23.5313,201.4844 24.6875,201.1875 25.4375,200.6406 C26.0156,200.2344 26.3438,199.7813 26.3438,199.3906 C26.3438,198.9375 25.9531,198.5469 25.4844,198.5469 C25.2656,198.5469 25.0625,198.625 24.875,198.8125 C24.4219,199.2969 24.4219,199.2969 24.2344,199.3906 C23.8125,199.6563 23.125,199.7813 22.3594,199.7813 C20.3125,199.7813 19.0156,198.6875 19.0156,196.9844 L19.0156,195.8906 C19.0156,194.1094 20.2656,192.7969 22,192.7969 C22.5781,192.7969 23.1875,192.9531 23.6563,193.2031 C24.1406,193.4844 24.3125,193.7031 24.4063,194.1094 C24.4688,194.5156 24.5,194.6406 24.6406,194.7656 C24.7813,194.9063 25.0156,195.0156 25.2344,195.0156 C25.5,195.0156 25.7656,194.875 25.9375,194.6563 C26.0469,194.5 26.0781,194.3125 26.0781,193.8906 L26.0781,192.4688 C26.0781,192.0313 26.0625,191.9063 25.9688,191.75 C25.8125,191.4844 25.5313,191.3438 25.2344,191.3438 C24.9375,191.3438 24.7344,191.4375 24.5156,191.75 L24.3438,191.6719 Z " fill="#000000"/><text fill="#000000" font-family="sans-serif" font-size="12" lengthAdjust="spacing" textLength="101" x="36" y="200.1543">ValidTestMapper</text><line style="stroke:#A80036;stroke-width:1.5;" x1="8" x2="139" y1="212" y2="212"/><line style="stroke:#A80036;stroke-width:1.5;" x1="8" x2="139" y1="220" y2="220"/><text fill="#000000" font-family="sans-serif" font-size="11" lengthAdjust="spacing" textLength="81" x="13" y="234.2104">+toDTO(tests)</text><!--MD5=[a1759c77eb8fab01f2de7bf4a3daafe1]
class TestDateDTO--><rect codeLine="45" fill="#FEFECE" filter="url(#f11jckem7wya3z)" height="99.2188" id="TestDateDTO" style="stroke:#A80036;stroke-width:1.5;" width="160" x="119.5" y="366"/><ellipse cx="156.1" cy="382" fill="#ADD1B2" rx="11" ry="11" style="stroke:#A80036;stroke-width:1.0;"/><path d="M158.4438,377.6719 C157.5063,377.2344 156.9125,377.0938 156.0375,377.0938 C153.4125,377.0938 151.4125,379.1719 151.4125,381.8906 L151.4125,383.0156 C151.4125,385.5938 153.5219,387.4844 156.4125,387.4844 C157.6313,387.4844 158.7875,387.1875 159.5375,386.6406 C160.1156,386.2344 160.4438,385.7813 160.4438,385.3906 C160.4438,384.9375 160.0531,384.5469 159.5844,384.5469 C159.3656,384.5469 159.1625,384.625 158.975,384.8125 C158.5219,385.2969 158.5219,385.2969 158.3344,385.3906 C157.9125,385.6563 157.225,385.7813 156.4594,385.7813 C154.4125,385.7813 153.1156,384.6875 153.1156,382.9844 L153.1156,381.8906 C153.1156,380.1094 154.3656,378.7969 156.1,378.7969 C156.6781,378.7969 157.2875,378.9531 157.7563,379.2031 C158.2406,379.4844 158.4125,379.7031 158.5063,380.1094 C158.5688,380.5156 158.6,380.6406 158.7406,380.7656 C158.8813,380.9063 159.1156,381.0156 159.3344,381.0156 C159.6,381.0156 159.8656,380.875 160.0375,380.6563 C160.1469,380.5 160.1781,380.3125 160.1781,379.8906 L160.1781,378.4688 C160.1781,378.0313 160.1625,377.9063 160.0688,377.75 C159.9125,377.4844 159.6313,377.3438 159.3344,377.3438 C159.0375,377.3438 158.8344,377.4375 158.6156,377.75 L158.4438,377.6719 Z " fill="#000000"/><text fill="#000000" font-family="sans-serif" font-size="12" lengthAdjust="spacing" textLength="80" x="174.9" y="386.1543">TestDateDTO</text><line style="stroke:#A80036;stroke-width:1.5;" x1="120.5" x2="278.5" y1="398" y2="398"/><text fill="#000000" font-family="sans-serif" font-size="11" lengthAdjust="spacing" textLength="93" x="125.5" y="412.2104">-String testCode</text><text fill="#000000" font-family="sans-serif" font-size="11" lengthAdjust="spacing" textLength="122" x="125.5" y="425.0151">-String dateDiagnosis</text><text fill="#000000" font-family="sans-serif" font-size="11" lengthAdjust="spacing" textLength="148" x="125.5" y="437.8198">-String dateChemAnalysis</text><text fill="#000000" font-family="sans-serif" font-size="11" lengthAdjust="spacing" textLength="111" x="125.5" y="450.6245">-String dateSample</text><line style="stroke:#A80036;stroke-width:1.5;" x1="120.5" x2="278.5" y1="457.2188" y2="457.2188"/><!--MD5=[e51eb95d6cd4428cc1392a7e8be17419]
link ValidatingWorkUI to ValidatingWorkController--><path codeLine="52" d="M272.789,55.205 C280.641,70.032 291.413,90.372 302.56,111.421 " fill="none" id="ValidatingWorkUI-to-ValidatingWorkController" style="stroke:#A80036;stroke-width:1.0;stroke-dasharray:7.0,7.0;"/><polygon fill="#A80036" points="304.943,115.922,304.2658,106.0964,302.603,111.5034,297.196,109.8405,304.943,115.922" style="stroke:#A80036;stroke-width:1.0;"/><!--MD5=[f76df50819c9249cec1f0f2a0f095d44]
link ValidatingWorkController to EmailNotification--><path codeLine="53" d="M445.035,281.209 C480.338,316.559 512.5,362.918 512.5,414.5 C512.5,414.5 512.5,414.5 512.5,893 C512.5,926.642 499.023,962.7121 486.986,988.218 " fill="none" id="ValidatingWorkController-to-EmailNotification" style="stroke:#A80036;stroke-width:1.0;stroke-dasharray:7.0,7.0;"/><polygon fill="#A80036" points="484.759,992.8545,492.2615,986.4738,486.9239,988.3475,485.0503,983.01,484.759,992.8545" style="stroke:#A80036;stroke-width:1.0;"/><!--MD5=[51e0d4131e474b697f73f081acd24483]
link ValidatingWorkController to Company--><path codeLine="54" d="M368.358,305.275 C371.53,326.736 374.77,348.66 377.507,367.179 " fill="none" id="ValidatingWorkController-to-Company" style="stroke:#A80036;stroke-width:1.0;stroke-dasharray:7.0,7.0;"/><polygon fill="#A80036" points="378.265,372.309,380.9053,362.8206,377.5335,367.3628,372.9913,363.991,378.265,372.309" style="stroke:#A80036;stroke-width:1.0;"/><!--MD5=[7f6cf7f175eae0af66201860de5de971]
link Company to TestStore--><path codeLine="55" d="M385.005,458.767 C385.313,484.571 385.705,517.403 386.01,542.976 " fill="none" id="Company-to-TestStore" style="stroke:#A80036;stroke-width:1.0;"/><polygon fill="#A80036" points="386.07,547.99,389.9617,538.9427,386.01,542.9904,381.9623,539.0386,386.07,547.99" style="stroke:#A80036;stroke-width:1.0;"/><polygon fill="#000000" points="391.5597,508.5661,394.3904,499.4865,388.513,499.5567,391.5597,508.5661" style="stroke:#000000;stroke-width:1.0;"/><text fill="#000000" font-family="sans-serif" font-size="13" lengthAdjust="spacing" textLength="23" x="400.5" y="508.0669">has</text><text fill="#000000" font-family="sans-serif" font-size="13" lengthAdjust="spacing" textLength="8" x="376.448" y="478.9025">1</text><text fill="#000000" font-family="sans-serif" font-size="13" lengthAdjust="spacing" textLength="8" x="377.2532" y="536.8986">1</text><!--MD5=[25a75a76c2224f356a77c97b133e1ff1]
link Company to TestValideStore--><path codeLine="56" d="M337.564,458.767 C310.69,482.969 276.949,513.353 249.434,538.132 " fill="none" id="Company-to-TestValideStore" style="stroke:#A80036;stroke-width:1.0;"/><polygon fill="#A80036" points="245.421,541.746,254.7858,538.6963,249.1367,538.4003,249.4327,532.7512,245.421,541.746" style="stroke:#A80036;stroke-width:1.0;"/><polygon fill="#000000" points="298.7845,506.9123,307.4726,503.0434,303.5392,498.6756,298.7845,506.9123" style="stroke:#000000;stroke-width:1.0;"/><text fill="#000000" font-family="sans-serif" font-size="13" lengthAdjust="spacing" textLength="23" x="311.5" y="508.0669">has</text><text fill="#000000" font-family="sans-serif" font-size="13" lengthAdjust="spacing" textLength="8" x="321.4461" y="478.9025">1</text><text fill="#000000" font-family="sans-serif" font-size="13" lengthAdjust="spacing" textLength="8" x="243.9933" y="531.0197">1</text><!--MD5=[b0f4f6db8206580012ef9cd998ed01c5]
link TestStore to Test--><path codeLine="57" d="M371.015,622.132 C361.181,645.078 348.349,675.018 337.716,699.829 " fill="none" id="TestStore-to-Test" style="stroke:#A80036;stroke-width:1.0;"/><polygon fill="#A80036" points="335.62,704.719,342.8424,698.0229,337.5899,700.1234,335.4894,694.871,335.62,704.719" style="stroke:#A80036;stroke-width:1.0;"/><polygon fill="#000000" points="357.5304,671.1621,363.7947,664.0061,358.3922,661.6907,357.5304,671.1621" style="stroke:#000000;stroke-width:1.0;"/><text fill="#000000" font-family="sans-serif" font-size="13" lengthAdjust="spacing" textLength="54" x="368.5" y="671.0669">contains</text><text fill="#000000" font-family="sans-serif" font-size="13" lengthAdjust="spacing" textLength="8" x="359.7878" y="641.6344">1</text><text fill="#000000" font-family="sans-serif" font-size="13" lengthAdjust="spacing" textLength="7" x="330.8587" y="693.9885">*</text><!--MD5=[d29c0c056cd0cafe03eb402b273cef1b]
link ValidatingWorkController to TestDateDTO--><path codeLine="58" d="M282.898,305.275 C268.127,324.621 253.068,344.343 239.885,361.608 " fill="none" id="ValidatingWorkController-to-TestDateDTO" style="stroke:#A80036;stroke-width:1.0;stroke-dasharray:7.0,7.0;"/><polygon fill="#A80036" points="236.576,365.943,245.2168,361.2169,239.6102,361.9689,238.8582,356.3622,236.576,365.943" style="stroke:#A80036;stroke-width:1.0;"/><!--MD5=[87bf36b60ae49b7aa2a03ab74f24eaf2]
link ValidatingWorkUI to TestDateDTO--><path codeLine="59" d="M256.582,55.166 C253.743,72.03 249.835,95.422 246.5,116 C232.623,201.629 217.065,301.173 207.786,360.934 " fill="none" id="ValidatingWorkUI-to-TestDateDTO" style="stroke:#A80036;stroke-width:1.0;stroke-dasharray:7.0,7.0;"/><polygon fill="#A80036" points="207.018,365.878,212.3513,357.5982,207.785,360.9372,204.446,356.3709,207.018,365.878" style="stroke:#A80036;stroke-width:1.0;"/><!--MD5=[155bc6a5dc157bb1f7fb4b4d6143280f]
link ValidTestMapper to TestDateDTO--><path codeLine="60" d="M91.8215,241.018 C111.301,272.401 142.521,322.701 166.341,361.077 " fill="none" id="ValidTestMapper-to-TestDateDTO" style="stroke:#A80036;stroke-width:1.0;stroke-dasharray:7.0,7.0;"/><polygon fill="#A80036" points="169.208,365.696,167.8601,355.9398,166.5711,361.4478,161.0631,360.1588,169.208,365.696" style="stroke:#A80036;stroke-width:1.0;"/><!--MD5=[dbcb61c58cfe47da0dd27dec34be9a7d]
link ValidTestMapper to Test--><path codeLine="61" d="M66.5526,241.171 C51.3078,313.795 22.2645,503.612 101.5,628 C132.189,676.178 189.559,706.46 237.463,724.415 " fill="none" id="ValidTestMapper-to-Test" style="stroke:#A80036;stroke-width:1.0;stroke-dasharray:7.0,7.0;"/><polygon fill="#A80036" points="242.363,726.221,235.3009,719.3561,237.6713,724.4923,232.5351,726.8627,242.363,726.221" style="stroke:#A80036;stroke-width:1.0;"/><!--MD5=[046f1426d7198af2f58a8c09756be431]
link Client to EmailNotification--><path codeLine="62" d="M411.836,916.152 C422.52,936.204 438.122,965.4865 450.251,988.2502 " fill="none" id="Client-to-EmailNotification" style="stroke:#A80036;stroke-width:1.0;"/><polygon fill="#A80036" points="452.628,992.7114,451.926,982.8876,450.2768,988.2987,444.8657,986.6495,452.628,992.7114" style="stroke:#A80036;stroke-width:1.0;"/><polygon fill="#000000" points="442.8512,958.9791,441.1916,949.6145,436.0041,952.3784,442.8512,958.9791" style="stroke:#000000;stroke-width:1.0;"/><text fill="#000000" font-family="sans-serif" font-size="13" lengthAdjust="spacing" textLength="23" x="449.5" y="959.0669">has</text><text fill="#000000" font-family="sans-serif" font-size="13" lengthAdjust="spacing" textLength="8" x="405.8679" y="935.9503">1</text><text fill="#000000" font-family="sans-serif" font-size="13" lengthAdjust="spacing" textLength="8" x="440.5294" y="981.9151">1</text><!--MD5=[3994f36c72829dbcddd1cf7021dddf61]
link Test to Client--><path codeLine="63" d="M341.881,791.22 C355.311,814.478 371.605,842.695 383.435,863.18 " fill="none" id="Test-to-Client" style="stroke:#A80036;stroke-width:1.0;"/><polygon fill="#A80036" points="386.039,867.69,385.0006,857.896,383.5379,863.3605,378.0734,861.8978,386.039,867.69" style="stroke:#A80036;stroke-width:1.0;"/><polygon fill="#000000" points="376.0004,833.8963,374.0222,824.5938,368.9321,827.5331,376.0004,833.8963" style="stroke:#000000;stroke-width:1.0;"/><text fill="#000000" font-family="sans-serif" font-size="13" lengthAdjust="spacing" textLength="45" x="382.5" y="834.0669">is form</text><text fill="#000000" font-family="sans-serif" font-size="13" lengthAdjust="spacing" textLength="8" x="337.1292" y="811.348">1</text><text fill="#000000" font-family="sans-serif" font-size="13" lengthAdjust="spacing" textLength="8" x="373.7829" y="857.0194">1</text><!--MD5=[ae38701770910d398b42321583ba1835]
link TestValideStore to Test--><path codeLine="64" d="M229.766,628.301 C246.232,650.579 266.454,677.938 283.332,700.773 " fill="none" id="TestValideStore-to-Test" style="stroke:#A80036;stroke-width:1.0;"/><polygon fill="#A80036" points="286.443,704.982,284.31,695.3669,283.471,700.9612,277.8767,700.1222,286.443,704.982" style="stroke:#A80036;stroke-width:1.0;"/><polygon fill="#000000" points="270.4719,670.5873,267.4591,661.5666,262.7322,665.0603,270.4719,670.5873" style="stroke:#000000;stroke-width:1.0;"/><text fill="#000000" font-family="sans-serif" font-size="13" lengthAdjust="spacing" textLength="30" x="276.5" y="671.0669">uses</text><text fill="#000000" font-family="sans-serif" font-size="13" lengthAdjust="spacing" textLength="8" x="226.1115" y="648.4419">1</text><text fill="#000000" font-family="sans-serif" font-size="13" lengthAdjust="spacing" textLength="7" x="273.9355" y="693.9752">*</text><!--MD5=[d2f3c9733c0382ed91a05de6dd96a937]
@startuml
skinparam classAttributeIconSize 0

class ValidatingWorkController {
  -TestValideStore store1
  -TestStore store
  -Company company
  -Test t1
  -Client cl
  +getTests()
  +validateTest(code)
  +addTest() 
  +sendEmail(cl)
  +getClient()
  +show()
}
class ValidatingWorkUI{
}
class Test {
  +getClient()
  +SetDateValidateTest()
  +SetTimeValidateTest()
}
class Company {
  -String designation
  +getTestValideStore()
  +getTestStore()
}
class Client {
}
class EmailNotification{
  +sendEmailToClient(message)
}
class TestValideStore {
  -List<Test> testValideList
  +validateValide(t1)
  +addValide(t1)
}
class TestStore{
  +getTests()
  +getTestByCode(code)
}
class ValidTestMapper{
  +toDTO(tests)
}
class TestDateDTO{
  -String testCode
  -String dateDiagnosis
  -String dateChemAnalysis
  -String dateSample
}

ValidatingWorkUI ..> ValidatingWorkController
ValidatingWorkController ..> EmailNotification
ValidatingWorkController ..> Company
Company "1" - -> "1" TestStore: has >
Company "1" - -> "1" TestValideStore: has >
TestStore "1" - -> "*" Test: contains >
ValidatingWorkController ..> TestDateDTO
ValidatingWorkUI ..> TestDateDTO
ValidTestMapper ..> TestDateDTO
ValidTestMapper ..> Test
Client "1" - -> "1" EmailNotification: has >
Test "1" - -> "1" Client: is form > 
TestValideStore "1" - -> "*" Test: uses >
@enduml

PlantUML version 1.2021.7(Sun May 23 12:40:07 UTC 2021)
(GPL source distribution)
Java Runtime: Java(TM) SE Runtime Environment
JVM: Java HotSpot(TM) 64-Bit Server VM
Default Encoding: UTF-8
Language: en
Country: US
--></g></svg>