<?xml version="1.0" encoding="UTF-8" standalone="no"?><svg xmlns="http://www.w3.org/2000/svg" xmlns:xlink="http://www.w3.org/1999/xlink" contentScriptType="application/ecmascript" contentStyleType="text/css" height="1320px" preserveAspectRatio="none" style="width:731px;height:1320px;" version="1.1" viewBox="0 0 731 1320" width="731px" zoomAndPan="magnify"><defs><filter height="300%" id="f3h6jyt4cw110" width="300%" x="-1" y="-1"><feGaussianBlur result="blurOut" stdDeviation="2.0"/><feColorMatrix in="blurOut" result="blurOut2" type="matrix" values="0 0 0 0 0 0 0 0 0 0 0 0 0 0 0 0 0 0 .4 0"/><feOffset dx="4.0" dy="4.0" in="blurOut2" result="blurOut3"/><feBlend in="SourceGraphic" in2="blurOut3" mode="normal"/></filter></defs><g><!--MD5=[8ae77ada6169822435c3d3bcb01b6727]
cluster system--><rect fill="#FFFFFF" filter="url(#f3h6jyt4cw110)" height="1301" style="stroke:#000000;stroke-width:1.5;" width="443" x="276" y="7"/><text fill="#000000" font-family="sans-serif" font-size="14" font-weight="bold" lengthAdjust="spacing" textLength="59" x="468" y="21.9951">system</text><ellipse cx="497.6379" cy="776.0276" fill="#FEFECE" filter="url(#f3h6jyt4cw110)" rx="83.1379" ry="19.0276" style="stroke:#A80036;stroke-width:1.5;"/><text fill="#000000" font-family="sans-serif" font-size="14" lengthAdjust="spacing" textLength="126" x="434.0914" y="779.0594">Check the results</text><ellipse cx="497.2839" cy="466.8568" fill="#FEFECE" filter="url(#f3h6jyt4cw110)" rx="79.7839" ry="18.3568" style="stroke:#A80036;stroke-width:1.5;"/><text fill="#000000" font-family="sans-serif" font-size="14" lengthAdjust="spacing" textLength="118" x="436.5356" y="470.2613">Register a client</text><ellipse cx="497.3844" cy="537.9769" fill="#FEFECE" filter="url(#f3h6jyt4cw110)" rx="75.3844" ry="17.4769" style="stroke:#A80036;stroke-width:1.5;"/><text fill="#000000" font-family="sans-serif" font-size="14" lengthAdjust="spacing" textLength="107" x="440.8844" y="541.7244">Register a test</text><ellipse cx="497.4744" cy="956.8949" fill="#FEFECE" filter="url(#f3h6jyt4cw110)" rx="87.4744" ry="19.8949" style="stroke:#A80036;stroke-width:1.5;"/><text fill="#000000" font-family="sans-serif" font-size="14" lengthAdjust="spacing" textLength="136" x="429.4744" y="959.7416">Record the sample</text><ellipse cx="497.6213" cy="865.9243" fill="#FEFECE" filter="url(#f3h6jyt4cw110)" rx="167.6213" ry="35.9243" style="stroke:#A80036;stroke-width:1.5;"/><text fill="#000000" font-family="sans-serif" font-size="14" lengthAdjust="spacing" textLength="307" x="344.1213" y="868.7709">Record the results of the chemical analysis</text><ellipse cx="497.4616" cy="695.9923" fill="#FEFECE" filter="url(#f3h6jyt4cw110)" rx="117.9616" ry="25.9923" style="stroke:#A80036;stroke-width:1.5;"/><text fill="#000000" font-family="sans-serif" font-size="14" lengthAdjust="spacing" textLength="203" x="395.9616" y="698.839">Write a report and diagnosis</text><ellipse cx="497.2599" cy="612.852" fill="#FEFECE" filter="url(#f3h6jyt4cw110)" rx="97.2599" ry="21.852" style="stroke:#A80036;stroke-width:1.5;"/><text fill="#000000" font-family="sans-serif" font-size="14" lengthAdjust="spacing" textLength="158" x="418.2599" y="615.6987">Validate the diagnosis</text><ellipse cx="497.5368" cy="392.8074" fill="#FEFECE" filter="url(#f3h6jyt4cw110)" rx="87.0368" ry="19.8074" style="stroke:#A80036;stroke-width:1.5;"/><text fill="#000000" font-family="sans-serif" font-size="14" lengthAdjust="spacing" textLength="135" x="430.0368" y="395.654">Consult the results</text><ellipse cx="497.638" cy="181.0276" fill="#FEFECE" filter="url(#f3h6jyt4cw110)" rx="205.638" ry="43.5276" style="stroke:#A80036;stroke-width:1.5;"/><text fill="#000000" font-family="sans-serif" font-size="14" lengthAdjust="spacing" textLength="385" x="305.138" y="183.8743">Specify a new type of test and its collecting methods</text><ellipse cx="497.6542" cy="299.1308" fill="#FEFECE" filter="url(#f3h6jyt4cw110)" rx="183.6542" ry="39.1308" style="stroke:#A80036;stroke-width:1.5;"/><text fill="#000000" font-family="sans-serif" font-size="14" lengthAdjust="spacing" textLength="340" x="327.6542" y="301.9775">Specify a new test parameter and categorize it</text><ellipse cx="497.7348" cy="72.247" fill="#FEFECE" filter="url(#f3h6jyt4cw110)" rx="139.2348" ry="30.247" style="stroke:#A80036;stroke-width:1.5;"/><text fill="#000000" font-family="sans-serif" font-size="14" lengthAdjust="spacing" textLength="248" x="373.7348" y="75.0936">Specify a new parameter category</text><ellipse cx="497.3682" cy="1259.8736" fill="#FEFECE" filter="url(#f3h6jyt4cw110)" rx="147.3682" ry="31.8736" style="stroke:#A80036;stroke-width:1.5;"/><text fill="#000000" font-family="sans-serif" font-size="14" lengthAdjust="spacing" textLength="265" x="364.8682" y="1262.7203">Summarize and report Covid-19 data</text><ellipse cx="497.5045" cy="1151.8009" fill="#FEFECE" filter="url(#f3h6jyt4cw110)" rx="189.5045" ry="40.3009" style="stroke:#A80036;stroke-width:1.5;"/><text fill="#000000" font-family="sans-serif" font-size="14" lengthAdjust="spacing" textLength="352" x="321.5045" y="1154.6476">Generate daily automatic reports about covid-19</text><ellipse cx="497.3886" cy="1043.7777" fill="#FEFECE" filter="url(#f3h6jyt4cw110)" rx="146.8886" ry="31.7777" style="stroke:#A80036;stroke-width:1.5;"/><text fill="#000000" font-family="sans-serif" font-size="14" lengthAdjust="spacing" textLength="264" x="365.3886" y="1046.6244">Receive daily reports about covid-19</text><!--MD5=[a2a1127a9e0c3d5a4af797120761d109]
entity ad--><ellipse cx="119" cy="150" fill="#FEFECE" filter="url(#f3h6jyt4cw110)" rx="8" ry="8" style="stroke:#A80036;stroke-width:1.5;"/><path d="M119,158 L119,185 M106,166 L132,166 M119,185 L106,200 M119,185 L132,200 " fill="none" filter="url(#f3h6jyt4cw110)" style="stroke:#A80036;stroke-width:1.5;"/><text fill="#000000" font-family="sans-serif" font-size="14" lengthAdjust="spacing" textLength="100" x="69" y="218.4951">Administrator</text><!--MD5=[979c31051cf8d07bdf927ed864b836ec]
entity cl--><ellipse cx="119" cy="348" fill="#FEFECE" filter="url(#f3h6jyt4cw110)" rx="8" ry="8" style="stroke:#A80036;stroke-width:1.5;"/><path d="M119,356 L119,383 M106,364 L132,364 M119,383 L106,398 M119,383 L132,398 " fill="none" filter="url(#f3h6jyt4cw110)" style="stroke:#A80036;stroke-width:1.5;"/><text fill="#000000" font-family="sans-serif" font-size="14" lengthAdjust="spacing" textLength="43" x="97.5" y="416.4951">Client</text><!--MD5=[619de47f7aa1106b4a43be6225b576c0]
entity rc--><ellipse cx="119" cy="464" fill="#FEFECE" filter="url(#f3h6jyt4cw110)" rx="8" ry="8" style="stroke:#A80036;stroke-width:1.5;"/><path d="M119,472 L119,499 M106,480 L132,480 M119,499 L106,514 M119,499 L132,514 " fill="none" filter="url(#f3h6jyt4cw110)" style="stroke:#A80036;stroke-width:1.5;"/><text fill="#000000" font-family="sans-serif" font-size="14" lengthAdjust="spacing" textLength="93" x="72.5" y="532.4951">Receptionist</text><!--MD5=[9b765648a409d02f5ba0bbb9cb84ff33]
entity lc--><ellipse cx="119" cy="580" fill="#FEFECE" filter="url(#f3h6jyt4cw110)" rx="8" ry="8" style="stroke:#A80036;stroke-width:1.5;"/><path d="M119,588 L119,615 M106,596 L132,596 M119,615 L106,630 M119,615 L132,630 " fill="none" filter="url(#f3h6jyt4cw110)" style="stroke:#A80036;stroke-width:1.5;"/><text fill="#000000" font-family="sans-serif" font-size="14" lengthAdjust="spacing" textLength="169" x="34.5" y="648.4951">Laboratory Coordinator</text><!--MD5=[1865ce58b93b46dbf0f89b42133fbc97]
entity sd--><ellipse cx="119" cy="696" fill="#FEFECE" filter="url(#f3h6jyt4cw110)" rx="8" ry="8" style="stroke:#A80036;stroke-width:1.5;"/><path d="M119,704 L119,731 M106,712 L132,712 M119,731 L106,746 M119,731 L132,746 " fill="none" filter="url(#f3h6jyt4cw110)" style="stroke:#A80036;stroke-width:1.5;"/><text fill="#000000" font-family="sans-serif" font-size="14" lengthAdjust="spacing" textLength="124" x="57" y="764.4951">Specialist Doctor</text><!--MD5=[72bd50b8814dffd24ca46f995a9a7d84]
entity cct--><ellipse cx="119" cy="812" fill="#FEFECE" filter="url(#f3h6jyt4cw110)" rx="8" ry="8" style="stroke:#A80036;stroke-width:1.5;"/><path d="M119,820 L119,847 M106,828 L132,828 M119,847 L106,862 M119,847 L132,862 " fill="none" filter="url(#f3h6jyt4cw110)" style="stroke:#A80036;stroke-width:1.5;"/><text fill="#000000" font-family="sans-serif" font-size="14" lengthAdjust="spacing" textLength="226" x="6" y="880.4951">Clinical Chemistry Technologist</text><!--MD5=[ddc0993abd4478baf117d835cc4f0442]
entity mlt--><ellipse cx="119" cy="928" fill="#FEFECE" filter="url(#f3h6jyt4cw110)" rx="8" ry="8" style="stroke:#A80036;stroke-width:1.5;"/><path d="M119,936 L119,963 M106,944 L132,944 M119,963 L106,978 M119,963 L132,978 " fill="none" filter="url(#f3h6jyt4cw110)" style="stroke:#A80036;stroke-width:1.5;"/><text fill="#000000" font-family="sans-serif" font-size="14" lengthAdjust="spacing" textLength="165" x="36.5" y="996.4951">Medical Lab Technician</text><!--MD5=[c1a3dfe7578872261f25d41e0202d48d]
entity nhs--><ellipse cx="119" cy="1044" fill="#FEFECE" filter="url(#f3h6jyt4cw110)" rx="8" ry="8" style="stroke:#A80036;stroke-width:1.5;"/><path d="M119,1052 L119,1079 M106,1060 L132,1060 M119,1079 L106,1094 M119,1079 L132,1094 " fill="none" filter="url(#f3h6jyt4cw110)" style="stroke:#A80036;stroke-width:1.5;"/><text fill="#000000" font-family="sans-serif" font-size="14" lengthAdjust="spacing" textLength="29" x="104.5" y="1112.4951">NHS</text><!--MD5=[4541fb81c80c07473fe4b07432ef0971]
entity app--><ellipse cx="119" cy="1193" fill="#FEFECE" filter="url(#f3h6jyt4cw110)" rx="8" ry="8" style="stroke:#A80036;stroke-width:1.5;"/><path d="M119,1201 L119,1228 M106,1209 L132,1209 M119,1228 L106,1243 M119,1228 L132,1243 " fill="none" filter="url(#f3h6jyt4cw110)" style="stroke:#A80036;stroke-width:1.5;"/><text fill="#000000" font-family="sans-serif" font-size="14" lengthAdjust="spacing" textLength="83" x="77.5" y="1261.4951">Application</text><!--MD5=[9dba071a8f4e608b1208e19b00c86d10]
link rc to UC1--><path d="M165.79,491.595 C227.797,486.983 339.464,478.679 415.733,473.007 " fill="none" id="rc-to-UC1" style="stroke:#A80036;stroke-width:1.0;"/><polygon fill="#A80036" points="421.162,472.603,411.8906,469.28,416.1757,472.973,412.4827,477.2581,421.162,472.603" style="stroke:#A80036;stroke-width:1.0;"/><!--MD5=[1506b88fc324a70dcdd063915afaae5f]
link rc to UC2--><path d="M165.79,500.23 C230.093,507.574 347.804,521.017 424.057,529.726 " fill="none" id="rc-to-UC2" style="stroke:#A80036;stroke-width:1.0;"/><polygon fill="#A80036" points="429.474,530.345,420.9859,525.3498,424.5063,529.7778,420.0783,533.2982,429.474,530.345" style="stroke:#A80036;stroke-width:1.0;"/><!--MD5=[2a86949458b438a8b723a7ecaad15844]
link mlt to UC3--><path d="M201.695,958.566 C261.437,958.249 342.527,957.818 404.541,957.488 " fill="none" id="mlt-to-UC3" style="stroke:#A80036;stroke-width:1.0;"/><polygon fill="#A80036" points="409.724,957.461,400.7024,953.5099,404.7241,957.4881,400.7458,961.5098,409.724,957.461" style="stroke:#A80036;stroke-width:1.0;"/><!--MD5=[556265132f4d4f1cf7e81def76603f73]
link mlt to UC--><path d="M201.694,925.583 C212.815,918.616 223.356,910.454 232,901 C260.514,869.813 234.917,839.291 268,813 C308.449,780.855 365.901,771.665 413.076,770.481 " fill="none" id="mlt-to-UC" style="stroke:#A80036;stroke-width:1.0;"/><polygon fill="#A80036" points="418.191,770.383,409.1161,766.556,413.1919,770.4787,409.2692,774.5545,418.191,770.383" style="stroke:#A80036;stroke-width:1.0;"/><!--MD5=[414b3548c350edb90d2c9edd67650f93]
link cct to UC5--><path d="M232.198,849.854 C263.158,851.745 297.418,853.838 330.725,855.873 " fill="none" id="cct-to-UC5" style="stroke:#A80036;stroke-width:1.0;"/><polygon fill="#A80036" points="336.062,856.199,327.3221,851.6588,331.0713,855.8948,326.8353,859.6439,336.062,856.199" style="stroke:#A80036;stroke-width:1.0;"/><!--MD5=[bbd4bae931f902f5ce326d1e03e4f38f]
link cct to UC--><path d="M232.234,819.766 C244.294,817.414 256.394,815.115 268,813 C319.583,803.599 377.939,794.17 422.766,787.183 " fill="none" id="cct-to-UC" style="stroke:#A80036;stroke-width:1.0;"/><polygon fill="#A80036" points="427.888,786.387,418.3802,783.8177,422.9474,787.1554,419.6097,791.7227,427.888,786.387" style="stroke:#A80036;stroke-width:1.0;"/><!--MD5=[9ace638415073f8f463276de27e5c510]
link sd to UC--><path d="M181.329,734.982 C246.445,743.456 349.484,756.866 419.896,766.03 " fill="none" id="sd-to-UC" style="stroke:#A80036;stroke-width:1.0;"/><polygon fill="#A80036" points="424.908,766.683,416.4999,761.5543,419.9499,766.0373,415.4668,769.4873,424.908,766.683" style="stroke:#A80036;stroke-width:1.0;"/><!--MD5=[73ac47ed6ce679b4aa237d7663bab52f]
link sd to UC8--><path d="M181.329,721.95 C235.348,717.503 315.467,710.906 381.405,705.477 " fill="none" id="sd-to-UC8" style="stroke:#A80036;stroke-width:1.0;"/><polygon fill="#A80036" points="386.529,705.055,377.2304,701.8092,381.546,705.4664,377.8887,709.782,386.529,705.055" style="stroke:#A80036;stroke-width:1.0;"/><!--MD5=[a4413e8f1868143f3e74353f66654015]
link lc to UC9--><path d="M203.558,611.444 C260.03,611.744 334.932,612.142 394.86,612.46 " fill="none" id="lc-to-UC9" style="stroke:#A80036;stroke-width:1.0;"/><polygon fill="#A80036" points="399.878,612.487,390.8998,608.4382,394.8781,612.4599,390.8564,616.4381,399.878,612.487" style="stroke:#A80036;stroke-width:1.0;"/><!--MD5=[15d11631404bfdea92a463e00bfb997e]
link lc to UC--><path d="M203.602,646.663 C213.878,653.168 223.675,660.603 232,669 C256.91,694.124 239.389,719.188 268,740 C309.126,769.916 365.478,779.044 411.929,780.63 " fill="none" id="lc-to-UC" style="stroke:#A80036;stroke-width:1.0;"/><polygon fill="#A80036" points="416.966,780.774,408.0839,776.5185,411.968,780.6312,407.8554,784.5153,416.966,780.774" style="stroke:#A80036;stroke-width:1.0;"/><!--MD5=[3d698ea8604af66616c96fe4064d6bd5]
link cl to UC11--><path d="M140.51,379.763 C189.934,381.6 318.051,386.364 406.296,389.646 " fill="none" id="cl-to-UC11" style="stroke:#A80036;stroke-width:1.0;"/><polygon fill="#A80036" points="411.521,389.84,402.6758,385.5085,406.5244,389.6543,402.3787,393.503,411.521,389.84" style="stroke:#A80036;stroke-width:1.0;"/><!--MD5=[2a4c2b18049ed4a6dc5e19061a2f8e27]
link ad to UC12--><path d="M169.221,181 C200.217,181 242.576,181 286.536,181 " fill="none" id="ad-to-UC12" style="stroke:#A80036;stroke-width:1.0;"/><polygon fill="#A80036" points="291.625,181,282.625,177,286.625,181,282.625,185,291.625,181" style="stroke:#A80036;stroke-width:1.0;"/><!--MD5=[9948e7e8f24dee04176944df306a9094]
link ad to UC13--><path d="M169.326,203.46 C197.785,215.88 234.471,230.97 268,242 C298.969,252.18 332.813,261.55 364.737,269.63 " fill="none" id="ad-to-UC13" style="stroke:#A80036;stroke-width:1.0;"/><polygon fill="#A80036" points="369.843,270.91,362.0928,264.8326,364.9945,269.6886,360.1385,272.5902,369.843,270.91" style="stroke:#A80036;stroke-width:1.0;"/><!--MD5=[47664cd5131bf75fd468557619108b71]
link ad to UC14--><path d="M169.174,158.06 C197.583,145.49 234.271,130.4 268,120 C304.888,108.63 345.949,99.08 382.975,91.56 " fill="none" id="ad-to-UC14" style="stroke:#A80036;stroke-width:1.0;"/><polygon fill="#A80036" points="387.937,90.56,378.3255,88.4108,383.0349,91.5447,379.901,96.2541,387.937,90.56" style="stroke:#A80036;stroke-width:1.0;"/><!--MD5=[dd1741ab9db08252e1be4433ef6af8d5]
link app to UC15--><path d="M160.65,1227.8868 C207.536,1232.37 287.16,1239.9834 357.112,1246.6721 " fill="none" id="app-to-UC15" style="stroke:#A80036;stroke-width:1.0;"/><polygon fill="#A80036" points="362.132,1247.152,353.5534,1242.3139,357.1547,1246.6763,352.7923,1250.2776,362.132,1247.152" style="stroke:#A80036;stroke-width:1.0;"/><!--MD5=[1c53928db5c3f4f2671929fb8b932796]
link app to UC16--><path d="M160.65,1216.226 C206.053,1207.544 282.153,1192.991 350.444,1179.931 " fill="none" id="app-to-UC16" style="stroke:#A80036;stroke-width:1.0;"/><polygon fill="#A80036" points="355.765,1178.914,346.1742,1176.6744,350.8539,1179.8525,347.6758,1184.5322,355.765,1178.914" style="stroke:#A80036;stroke-width:1.0;"/><!--MD5=[f8cc8137490664dbe8046b5a8061f672]
link nhs to UC17--><path d="M133.846,1073.86 C169.747,1070.904 269.005,1062.731 354.618,1055.682 " fill="none" id="nhs-to-UC17" style="stroke:#A80036;stroke-width:1.0;"/><polygon fill="#A80036" points="359.718,1055.262,350.4203,1052.0135,354.7348,1055.672,351.0763,1059.9866,359.718,1055.262" style="stroke:#A80036;stroke-width:1.0;"/><!--MD5=[e81c67be57b582f88eff3f28c0dcc0b7]
@startuml
left to right direction
actor "Administrator" as ad
actor "Client" as cl
actor "Receptionist" as rc
actor "Laboratory Coordinator" as lc
actor "Specialist Doctor" as sd
actor "Clinical Chemistry Technologist" as cct
actor "Medical Lab Technician" as mlt
actor "NHS" as nhs
actor "Application" as app

rectangle system {
  usecase "Check the results" as UC
  usecase "Register a client" as UC1
  usecase "Register a test" as UC2
  usecase "Record the sample" as UC3
  usecase "Record the results of the chemical analysis" as UC5
  usecase "Write a report and diagnosis" as UC8
  usecase "Validate the diagnosis" as UC9
  usecase "Consult the results" as UC11
  usecase "Specify a new type of test and its collecting methods" as UC12
  usecase "Specify a new test parameter and categorize it" as UC13
  usecase "Specify a new parameter category" as UC14
  usecase "Summarize and report Covid-19 data" as UC15
  usecase "Generate daily automatic reports about covid-19" as UC16
  usecase "Receive daily reports about covid-19" as UC17
}

rc - -> UC1
rc - -> UC2
mlt - -> UC3
mlt - -> UC
cct - -> UC5
cct - -> UC
sd - -> UC
sd - -> UC8
lc - -> UC9
lc - -> UC
cl - -> UC11
ad - -> UC12
ad - -> UC13
ad - -> UC14
app - -> UC15
app - -> UC16
nhs - -> UC17
@enduml

PlantUML version 1.2021.5beta3(Unknown compile time)
(GPL source distribution)
Java Runtime: Java(TM) SE Runtime Environment
JVM: Java HotSpot(TM) 64-Bit Server VM
Default Encoding: UTF-8
Language: en
Country: US
--></g></svg>