<?xml version="1.0" encoding="UTF-8" standalone="no"?><svg xmlns="http://www.w3.org/2000/svg" xmlns:xlink="http://www.w3.org/1999/xlink" contentScriptType="application/ecmascript" contentStyleType="text/css" height="782px" preserveAspectRatio="none" style="width:286px;height:782px;" version="1.1" viewBox="0 0 286 782" width="286px" zoomAndPan="magnify"><defs><filter height="300%" id="fntrcwi940y4u" width="300%" x="-1" y="-1"><feGaussianBlur result="blurOut" stdDeviation="2.0"/><feColorMatrix in="blurOut" result="blurOut2" type="matrix" values="0 0 0 0 0 0 0 0 0 0 0 0 0 0 0 0 0 0 .4 0"/><feOffset dx="4.0" dy="4.0" in="blurOut2" result="blurOut3"/><feBlend in="SourceGraphic" in2="blurOut3" mode="normal"/></filter></defs><g><text fill="#000000" font-family="sans-serif" font-size="18" lengthAdjust="spacing" textLength="277" x="2" y="16.708">Relationships - Class Diagram</text><!--MD5=[7421f545a0d8420c5bec41e74b387d9c]
class Employee--><rect codeLine="3" fill="#FEFECE" filter="url(#fntrcwi940y4u)" height="124.8281" id="Employee" style="stroke:#A80036;stroke-width:1.5;" width="147" x="27.25" y="165.9531"/><ellipse cx="67" cy="181.9531" fill="#ADD1B2" rx="11" ry="11" style="stroke:#A80036;stroke-width:1.0;"/><path d="M69.3438,177.625 C68.4063,177.1875 67.8125,177.0469 66.9375,177.0469 C64.3125,177.0469 62.3125,179.125 62.3125,181.8438 L62.3125,182.9688 C62.3125,185.5469 64.4219,187.4375 67.3125,187.4375 C68.5313,187.4375 69.6875,187.1406 70.4375,186.5938 C71.0156,186.1875 71.3438,185.7344 71.3438,185.3438 C71.3438,184.8906 70.9531,184.5 70.4844,184.5 C70.2656,184.5 70.0625,184.5781 69.875,184.7656 C69.4219,185.25 69.4219,185.25 69.2344,185.3438 C68.8125,185.6094 68.125,185.7344 67.3594,185.7344 C65.3125,185.7344 64.0156,184.6406 64.0156,182.9375 L64.0156,181.8438 C64.0156,180.0625 65.2656,178.75 67,178.75 C67.5781,178.75 68.1875,178.9063 68.6563,179.1563 C69.1406,179.4375 69.3125,179.6563 69.4063,180.0625 C69.4688,180.4688 69.5,180.5938 69.6406,180.7188 C69.7813,180.8594 70.0156,180.9688 70.2344,180.9688 C70.5,180.9688 70.7656,180.8281 70.9375,180.6094 C71.0469,180.4531 71.0781,180.2656 71.0781,179.8438 L71.0781,178.4219 C71.0781,177.9844 71.0625,177.8594 70.9688,177.7031 C70.8125,177.4375 70.5313,177.2969 70.2344,177.2969 C69.9375,177.2969 69.7344,177.3906 69.5156,177.7031 L69.3438,177.625 Z " fill="#000000"/><text fill="#000000" font-family="sans-serif" font-size="12" lengthAdjust="spacing" textLength="60" x="86.5" y="186.1074">Employee</text><line style="stroke:#A80036;stroke-width:1.5;" x1="28.25" x2="173.25" y1="197.9531" y2="197.9531"/><text fill="#000000" font-family="sans-serif" font-size="11" lengthAdjust="spacing" textLength="111" x="33.25" y="212.1636">String employeeID;</text><text fill="#000000" font-family="sans-serif" font-size="11" lengthAdjust="spacing" textLength="135" x="33.25" y="224.9683">String organizationRole;</text><text fill="#000000" font-family="sans-serif" font-size="11" lengthAdjust="spacing" textLength="73" x="33.25" y="237.7729">String name;</text><text fill="#000000" font-family="sans-serif" font-size="11" lengthAdjust="spacing" textLength="78" x="33.25" y="250.5776">String adress;</text><text fill="#000000" font-family="sans-serif" font-size="11" lengthAdjust="spacing" textLength="102" x="33.25" y="263.3823">int phoneNumber;</text><text fill="#000000" font-family="sans-serif" font-size="11" lengthAdjust="spacing" textLength="74" x="33.25" y="276.187">int codeSOC;</text><line style="stroke:#A80036;stroke-width:1.5;" x1="28.25" x2="173.25" y1="282.7813" y2="282.7813"/><!--MD5=[ed6624c6556d5e7b1bd23032162d20b7]
class Client--><rect codeLine="12" fill="#FEFECE" filter="url(#fntrcwi940y4u)" height="137.6328" id="Client" style="stroke:#A80036;stroke-width:1.5;" width="142" x="100.75" y="492.9531"/><ellipse cx="151" cy="508.9531" fill="#ADD1B2" rx="11" ry="11" style="stroke:#A80036;stroke-width:1.0;"/><path d="M153.3438,504.625 C152.4063,504.1875 151.8125,504.0469 150.9375,504.0469 C148.3125,504.0469 146.3125,506.125 146.3125,508.8438 L146.3125,509.9688 C146.3125,512.5469 148.4219,514.4375 151.3125,514.4375 C152.5313,514.4375 153.6875,514.1406 154.4375,513.5938 C155.0156,513.1875 155.3438,512.7344 155.3438,512.3438 C155.3438,511.8906 154.9531,511.5 154.4844,511.5 C154.2656,511.5 154.0625,511.5781 153.875,511.7656 C153.4219,512.25 153.4219,512.25 153.2344,512.3438 C152.8125,512.6094 152.125,512.7344 151.3594,512.7344 C149.3125,512.7344 148.0156,511.6406 148.0156,509.9375 L148.0156,508.8438 C148.0156,507.0625 149.2656,505.75 151,505.75 C151.5781,505.75 152.1875,505.9063 152.6563,506.1563 C153.1406,506.4375 153.3125,506.6563 153.4063,507.0625 C153.4688,507.4688 153.5,507.5938 153.6406,507.7188 C153.7813,507.8594 154.0156,507.9688 154.2344,507.9688 C154.5,507.9688 154.7656,507.8281 154.9375,507.6094 C155.0469,507.4531 155.0781,507.2656 155.0781,506.8438 L155.0781,505.4219 C155.0781,504.9844 155.0625,504.8594 154.9688,504.7031 C154.8125,504.4375 154.5313,504.2969 154.2344,504.2969 C153.9375,504.2969 153.7344,504.3906 153.5156,504.7031 L153.3438,504.625 Z " fill="#000000"/><text fill="#000000" font-family="sans-serif" font-size="12" lengthAdjust="spacing" textLength="33" x="171.5" y="513.1074">Client</text><line style="stroke:#A80036;stroke-width:1.5;" x1="101.75" x2="241.75" y1="524.9531" y2="524.9531"/><text fill="#000000" font-family="sans-serif" font-size="11" lengthAdjust="spacing" textLength="130" x="106.75" y="539.1636">int citizenCardNumber;</text><text fill="#000000" font-family="sans-serif" font-size="11" lengthAdjust="spacing" textLength="89" x="106.75" y="551.9683">int numberNHS;</text><text fill="#000000" font-family="sans-serif" font-size="11" lengthAdjust="spacing" textLength="83" x="106.75" y="564.7729">int numberTIN;</text><text fill="#000000" font-family="sans-serif" font-size="11" lengthAdjust="spacing" textLength="93" x="106.75" y="577.5776">String birthDate;</text><text fill="#000000" font-family="sans-serif" font-size="11" lengthAdjust="spacing" textLength="59" x="106.75" y="590.3823">string sex;</text><text fill="#000000" font-family="sans-serif" font-size="11" lengthAdjust="spacing" textLength="102" x="106.75" y="603.187">int phoneNumber;</text><text fill="#000000" font-family="sans-serif" font-size="11" lengthAdjust="spacing" textLength="71" x="106.75" y="615.9917">string name;</text><line style="stroke:#A80036;stroke-width:1.5;" x1="101.75" x2="241.75" y1="622.5859" y2="622.5859"/><!--MD5=[02e4b9b7573f1156f41e60aa5b4e25a4]
class Company--><rect codeLine="22" fill="#FEFECE" filter="url(#fntrcwi940y4u)" height="60.8047" id="Company" style="stroke:#A80036;stroke-width:1.5;" width="116" x="122.75" y="27.9531"/><ellipse cx="150.35" cy="43.9531" fill="#ADD1B2" rx="11" ry="11" style="stroke:#A80036;stroke-width:1.0;"/><path d="M152.6938,39.625 C151.7563,39.1875 151.1625,39.0469 150.2875,39.0469 C147.6625,39.0469 145.6625,41.125 145.6625,43.8438 L145.6625,44.9688 C145.6625,47.5469 147.7719,49.4375 150.6625,49.4375 C151.8813,49.4375 153.0375,49.1406 153.7875,48.5938 C154.3656,48.1875 154.6938,47.7344 154.6938,47.3438 C154.6938,46.8906 154.3031,46.5 153.8344,46.5 C153.6156,46.5 153.4125,46.5781 153.225,46.7656 C152.7719,47.25 152.7719,47.25 152.5844,47.3438 C152.1625,47.6094 151.475,47.7344 150.7094,47.7344 C148.6625,47.7344 147.3656,46.6406 147.3656,44.9375 L147.3656,43.8438 C147.3656,42.0625 148.6156,40.75 150.35,40.75 C150.9281,40.75 151.5375,40.9063 152.0063,41.1563 C152.4906,41.4375 152.6625,41.6563 152.7563,42.0625 C152.8188,42.4688 152.85,42.5938 152.9906,42.7188 C153.1313,42.8594 153.3656,42.9688 153.5844,42.9688 C153.85,42.9688 154.1156,42.8281 154.2875,42.6094 C154.3969,42.4531 154.4281,42.2656 154.4281,41.8438 L154.4281,40.4219 C154.4281,39.9844 154.4125,39.8594 154.3188,39.7031 C154.1625,39.4375 153.8813,39.2969 153.5844,39.2969 C153.2875,39.2969 153.0844,39.3906 152.8656,39.7031 L152.6938,39.625 Z " fill="#000000"/><text fill="#000000" font-family="sans-serif" font-size="12" lengthAdjust="spacing" textLength="56" x="167.15" y="48.1074">Company</text><line style="stroke:#A80036;stroke-width:1.5;" x1="123.75" x2="237.75" y1="59.9531" y2="59.9531"/><text fill="#000000" font-family="sans-serif" font-size="11" lengthAdjust="spacing" textLength="104" x="128.75" y="74.1636">string designation;</text><line style="stroke:#A80036;stroke-width:1.5;" x1="123.75" x2="237.75" y1="80.7578" y2="80.7578"/><!--MD5=[7e2bc2f128e759c5889ccd6a2666d576]
class EmailNotification--><rect codeLine="26" fill="#FEFECE" filter="url(#fntrcwi940y4u)" height="60.8047" id="EmailNotification" style="stroke:#A80036;stroke-width:1.5;" width="129" x="107.25" y="707.9531"/><ellipse cx="122.25" cy="723.9531" fill="#ADD1B2" rx="11" ry="11" style="stroke:#A80036;stroke-width:1.0;"/><path d="M124.5938,719.625 C123.6563,719.1875 123.0625,719.0469 122.1875,719.0469 C119.5625,719.0469 117.5625,721.125 117.5625,723.8438 L117.5625,724.9688 C117.5625,727.5469 119.6719,729.4375 122.5625,729.4375 C123.7813,729.4375 124.9375,729.1406 125.6875,728.5938 C126.2656,728.1875 126.5938,727.7344 126.5938,727.3438 C126.5938,726.8906 126.2031,726.5 125.7344,726.5 C125.5156,726.5 125.3125,726.5781 125.125,726.7656 C124.6719,727.25 124.6719,727.25 124.4844,727.3438 C124.0625,727.6094 123.375,727.7344 122.6094,727.7344 C120.5625,727.7344 119.2656,726.6406 119.2656,724.9375 L119.2656,723.8438 C119.2656,722.0625 120.5156,720.75 122.25,720.75 C122.8281,720.75 123.4375,720.9063 123.9063,721.1563 C124.3906,721.4375 124.5625,721.6563 124.6563,722.0625 C124.7188,722.4688 124.75,722.5938 124.8906,722.7188 C125.0313,722.8594 125.2656,722.9688 125.4844,722.9688 C125.75,722.9688 126.0156,722.8281 126.1875,722.6094 C126.2969,722.4531 126.3281,722.2656 126.3281,721.8438 L126.3281,720.4219 C126.3281,719.9844 126.3125,719.8594 126.2188,719.7031 C126.0625,719.4375 125.7813,719.2969 125.4844,719.2969 C125.1875,719.2969 124.9844,719.3906 124.7656,719.7031 L124.5938,719.625 Z " fill="#000000"/><text fill="#000000" font-family="sans-serif" font-size="12" lengthAdjust="spacing" textLength="97" x="136.25" y="728.1074">EmailNotification</text><line style="stroke:#A80036;stroke-width:1.5;" x1="108.25" x2="235.25" y1="739.9531" y2="739.9531"/><text fill="#000000" font-family="sans-serif" font-size="11" lengthAdjust="spacing" textLength="67" x="113.25" y="754.1636">string email</text><line style="stroke:#A80036;stroke-width:1.5;" x1="108.25" x2="235.25" y1="760.7578" y2="760.7578"/><!--MD5=[03960189e81aa2c066c762ffabbee709]
class Receptionist--><rect fill="#FEFECE" filter="url(#fntrcwi940y4u)" height="48" id="Receptionist" style="stroke:#A80036;stroke-width:1.5;" width="106" x="60.75" y="367.9531"/><ellipse cx="75.75" cy="383.9531" fill="#ADD1B2" rx="11" ry="11" style="stroke:#A80036;stroke-width:1.0;"/><path d="M78.0938,379.625 C77.1563,379.1875 76.5625,379.0469 75.6875,379.0469 C73.0625,379.0469 71.0625,381.125 71.0625,383.8438 L71.0625,384.9688 C71.0625,387.5469 73.1719,389.4375 76.0625,389.4375 C77.2813,389.4375 78.4375,389.1406 79.1875,388.5938 C79.7656,388.1875 80.0938,387.7344 80.0938,387.3438 C80.0938,386.8906 79.7031,386.5 79.2344,386.5 C79.0156,386.5 78.8125,386.5781 78.625,386.7656 C78.1719,387.25 78.1719,387.25 77.9844,387.3438 C77.5625,387.6094 76.875,387.7344 76.1094,387.7344 C74.0625,387.7344 72.7656,386.6406 72.7656,384.9375 L72.7656,383.8438 C72.7656,382.0625 74.0156,380.75 75.75,380.75 C76.3281,380.75 76.9375,380.9063 77.4063,381.1563 C77.8906,381.4375 78.0625,381.6563 78.1563,382.0625 C78.2188,382.4688 78.25,382.5938 78.3906,382.7188 C78.5313,382.8594 78.7656,382.9688 78.9844,382.9688 C79.25,382.9688 79.5156,382.8281 79.6875,382.6094 C79.7969,382.4531 79.8281,382.2656 79.8281,381.8438 L79.8281,380.4219 C79.8281,379.9844 79.8125,379.8594 79.7188,379.7031 C79.5625,379.4375 79.2813,379.2969 78.9844,379.2969 C78.6875,379.2969 78.4844,379.3906 78.2656,379.7031 L78.0938,379.625 Z " fill="#000000"/><text fill="#000000" font-family="sans-serif" font-size="12" lengthAdjust="spacing" textLength="74" x="89.75" y="388.1074">Receptionist</text><line style="stroke:#A80036;stroke-width:1.5;" x1="61.75" x2="165.75" y1="399.9531" y2="399.9531"/><line style="stroke:#A80036;stroke-width:1.5;" x1="61.75" x2="165.75" y1="407.9531" y2="407.9531"/><!--MD5=[046f1426d7198af2f58a8c09756be431]
link Client to EmailNotification--><path codeLine="31" d="M171.75,631.1691 C171.75,657.7431 171.75,686.7936 171.75,707.7967 " fill="none" id="Client-EmailNotification" style="stroke:#A80036;stroke-width:1.0;"/><polygon fill="#000000" points="176.75,674.5195,179.6889,665.4744,173.8111,665.4744,176.75,674.5195" style="stroke:#000000;stroke-width:1.0;"/><text fill="#000000" font-family="sans-serif" font-size="13" lengthAdjust="spacing" textLength="54" x="185.75" y="674.02">receives</text><text fill="#000000" font-family="sans-serif" font-size="13" lengthAdjust="spacing" textLength="8" x="163.3688" y="650.5718">1</text><text fill="#000000" font-family="sans-serif" font-size="13" lengthAdjust="spacing" textLength="7" x="164.0281" y="697.0277">*</text><!--MD5=[6eee883fdf517d3604e8bd0f2058e9aa]
link Company to Client--><path codeLine="33" d="M190.2,89.1291 C192.807,98.5661 195.312,109.1091 196.75,118.9531 C218.865,270.2871 231.168,312.1391 205.75,462.9531 C204.089,472.8091 201.55,482.9971 198.592,492.9111 " fill="none" id="Company-Client" style="stroke:#A80036;stroke-width:1.0;"/><polygon fill="#000000" points="224.8539,334.5185,227.6042,325.4143,221.7277,325.5364,224.8539,334.5185" style="stroke:#000000;stroke-width:1.0;"/><text fill="#000000" font-family="sans-serif" font-size="13" lengthAdjust="spacing" textLength="32" x="233.75" y="334.02">have</text><text fill="#000000" font-family="sans-serif" font-size="13" lengthAdjust="spacing" textLength="8" x="183.273" y="108.7442">1</text><text fill="#000000" font-family="sans-serif" font-size="13" lengthAdjust="spacing" textLength="7" x="193.9991" y="482.1104">*</text><!--MD5=[09366576ee87d48d594df10cacc83f45]
link Company to Employee--><path codeLine="34" d="M166.632,89.1011 C156.539,110.2961 142.594,139.5811 130.131,165.7521 " fill="none" id="Company-Employee" style="stroke:#A80036;stroke-width:1.0;"/><polygon fill="#000000" points="153.6003,132.0338,160.1426,125.131,154.8357,122.6038,153.6003,132.0338" style="stroke:#000000;stroke-width:1.0;"/><text fill="#000000" font-family="sans-serif" font-size="13" lengthAdjust="spacing" textLength="23" x="164.75" y="132.02">has</text><text fill="#000000" font-family="sans-serif" font-size="13" lengthAdjust="spacing" textLength="8" x="155.065" y="108.7107">1</text><text fill="#000000" font-family="sans-serif" font-size="13" lengthAdjust="spacing" textLength="7" x="126.1238" y="154.7196">*</text><!--MD5=[bfff716514ca687b645fe473c6e098a4]
reverse link Employee to Receptionist--><path codeLine="35" d="M107.3304,311.2021 C109.007,332.0301 110.6764,352.7701 111.8925,367.8771 " fill="none" id="Employee-backto-Receptionist" style="stroke:#A80036;stroke-width:1.0;"/><polygon fill="none" points="100.3292,311.4671,105.7018,290.9701,114.2841,310.3441,100.3292,311.4671" style="stroke:#A80036;stroke-width:1.0;"/><text fill="#000000" font-family="sans-serif" font-size="13" lengthAdjust="spacing" textLength="8" x="97.8059" y="310.7118">1</text><text fill="#000000" font-family="sans-serif" font-size="13" lengthAdjust="spacing" textLength="7" x="103.5196" y="356.8697">*</text><!--MD5=[6a35157f4c730bda767e7c9f1b8b7f73]
link Receptionist to Client--><path codeLine="36" d="M112.9712,416.0821 C113.0989,429.9331 114.319,447.7471 118.75,462.9531 C121.672,472.9811 125.7195,483.1391 130.288,492.9261 " fill="none" id="Receptionist-Client" style="stroke:#A80036;stroke-width:1.0;"/><polygon fill="#000000" points="124.8492,459.3972,125.7278,449.9273,119.9937,451.2195,124.8492,459.3972" style="stroke:#000000;stroke-width:1.0;"/><text fill="#000000" font-family="sans-serif" font-size="13" lengthAdjust="spacing" textLength="68" x="132.75" y="459.02">registers a</text><text fill="#000000" font-family="sans-serif" font-size="13" lengthAdjust="spacing" textLength="8" x="103.8064" y="435.8748">1</text><text fill="#000000" font-family="sans-serif" font-size="13" lengthAdjust="spacing" textLength="7" x="118.3699" y="481.6502">*</text><!--MD5=[e2383b72995a5e4ce3804af0e0eb1d4a]
@startuml
title Relationships - Class Diagram

class Employee {
    String employeeID;
    String organizationRole;
    String name;
    String adress;
    int phoneNumber;
    int codeSOC;
}

class Client {
    int citizenCardNumber;
    int numberNHS;
    int numberTIN;
    String birthDate;
    string sex;
    int phoneNumber;
    string name;
}

class Company {
    string designation;
}

class EmailNotification  {
    string email
}


Client "1" - - "*" EmailNotification: receives >

Company "1" - - "*" Client: have >
Company "1" - - "*" Employee: has >
Employee "1" <|- - "*" Receptionist
Receptionist "1" - - "*" Client: registers a >
@enduml

PlantUML version 1.2021.6beta4(Unknown compile time)
(GPL source distribution)
Java Runtime: Java(TM) SE Runtime Environment
JVM: Java HotSpot(TM) 64-Bit Server VM
Default Encoding: UTF-8
Language: en
Country: US
--></g></svg>