<?xml version="1.0" encoding="UTF-8" standalone="no"?><svg xmlns="http://www.w3.org/2000/svg" xmlns:xlink="http://www.w3.org/1999/xlink" contentScriptType="application/ecmascript" contentStyleType="text/css" height="546px" preserveAspectRatio="none" style="width:738px;height:546px;background:#FFFFFF;" version="1.1" viewBox="0 0 738 546" width="738px" zoomAndPan="magnify"><defs><filter height="300%" id="fedxfy4riz3j9" width="300%" x="-1" y="-1"><feGaussianBlur result="blurOut" stdDeviation="2.0"/><feColorMatrix in="blurOut" result="blurOut2" type="matrix" values="0 0 0 0 0 0 0 0 0 0 0 0 0 0 0 0 0 0 .4 0"/><feOffset dx="4.0" dy="4.0" in="blurOut2" result="blurOut3"/><feBlend in="SourceGraphic" in2="blurOut3" mode="normal"/></filter></defs><g><!--MD5=[02e4b9b7573f1156f41e60aa5b4e25a4]
class Company--><rect codeLine="1" fill="#FEFECE" filter="url(#fedxfy4riz3j9)" height="60.8047" id="Company" style="stroke:#A80036;stroke-width:1.5;" width="118" x="265.5" y="7"/><ellipse cx="294" cy="23" fill="#ADD1B2" rx="11" ry="11" style="stroke:#A80036;stroke-width:1.0;"/><path d="M296.3438,18.6719 C295.4063,18.2344 294.8125,18.0938 293.9375,18.0938 C291.3125,18.0938 289.3125,20.1719 289.3125,22.8906 L289.3125,24.0156 C289.3125,26.5938 291.4219,28.4844 294.3125,28.4844 C295.5313,28.4844 296.6875,28.1875 297.4375,27.6406 C298.0156,27.2344 298.3438,26.7813 298.3438,26.3906 C298.3438,25.9375 297.9531,25.5469 297.4844,25.5469 C297.2656,25.5469 297.0625,25.625 296.875,25.8125 C296.4219,26.2969 296.4219,26.2969 296.2344,26.3906 C295.8125,26.6563 295.125,26.7813 294.3594,26.7813 C292.3125,26.7813 291.0156,25.6875 291.0156,23.9844 L291.0156,22.8906 C291.0156,21.1094 292.2656,19.7969 294,19.7969 C294.5781,19.7969 295.1875,19.9531 295.6563,20.2031 C296.1406,20.4844 296.3125,20.7031 296.4063,21.1094 C296.4688,21.5156 296.5,21.6406 296.6406,21.7656 C296.7813,21.9063 297.0156,22.0156 297.2344,22.0156 C297.5,22.0156 297.7656,21.875 297.9375,21.6563 C298.0469,21.5 298.0781,21.3125 298.0781,20.8906 L298.0781,19.4688 C298.0781,19.0313 298.0625,18.9063 297.9688,18.75 C297.8125,18.4844 297.5313,18.3438 297.2344,18.3438 C296.9375,18.3438 296.7344,18.4375 296.5156,18.75 L296.3438,18.6719 Z " fill="#000000"/><text fill="#000000" font-family="sans-serif" font-size="12" lengthAdjust="spacing" textLength="56" x="311" y="27.1543">Company</text><line style="stroke:#A80036;stroke-width:1.5;" x1="266.5" x2="382.5" y1="39" y2="39"/><text fill="#000000" font-family="sans-serif" font-size="11" lengthAdjust="spacing" textLength="106" x="271.5" y="53.2104">String designation;</text><line style="stroke:#A80036;stroke-width:1.5;" x1="266.5" x2="382.5" y1="59.8047" y2="59.8047"/><!--MD5=[f8a1b4d6e8615d9b2288a1baa978680f]
class NHSAPI--><rect codeLine="4" fill="#FEFECE" filter="url(#fedxfy4riz3j9)" height="48" id="NHSAPI" style="stroke:#A80036;stroke-width:1.5;" width="74" x="548.5" y="347"/><ellipse cx="563.5" cy="363" fill="#ADD1B2" rx="11" ry="11" style="stroke:#A80036;stroke-width:1.0;"/><path d="M565.8438,358.6719 C564.9063,358.2344 564.3125,358.0938 563.4375,358.0938 C560.8125,358.0938 558.8125,360.1719 558.8125,362.8906 L558.8125,364.0156 C558.8125,366.5938 560.9219,368.4844 563.8125,368.4844 C565.0313,368.4844 566.1875,368.1875 566.9375,367.6406 C567.5156,367.2344 567.8438,366.7813 567.8438,366.3906 C567.8438,365.9375 567.4531,365.5469 566.9844,365.5469 C566.7656,365.5469 566.5625,365.625 566.375,365.8125 C565.9219,366.2969 565.9219,366.2969 565.7344,366.3906 C565.3125,366.6563 564.625,366.7813 563.8594,366.7813 C561.8125,366.7813 560.5156,365.6875 560.5156,363.9844 L560.5156,362.8906 C560.5156,361.1094 561.7656,359.7969 563.5,359.7969 C564.0781,359.7969 564.6875,359.9531 565.1563,360.2031 C565.6406,360.4844 565.8125,360.7031 565.9063,361.1094 C565.9688,361.5156 566,361.6406 566.1406,361.7656 C566.2813,361.9063 566.5156,362.0156 566.7344,362.0156 C567,362.0156 567.2656,361.875 567.4375,361.6563 C567.5469,361.5 567.5781,361.3125 567.5781,360.8906 L567.5781,359.4688 C567.5781,359.0313 567.5625,358.9063 567.4688,358.75 C567.3125,358.4844 567.0313,358.3438 566.7344,358.3438 C566.4375,358.3438 566.2344,358.4375 566.0156,358.75 L565.8438,358.6719 Z " fill="#000000"/><text fill="#000000" font-family="sans-serif" font-size="12" lengthAdjust="spacing" textLength="42" x="577.5" y="367.1543">NHSAPI</text><line style="stroke:#A80036;stroke-width:1.5;" x1="549.5" x2="621.5" y1="379" y2="379"/><line style="stroke:#A80036;stroke-width:1.5;" x1="549.5" x2="621.5" y1="387" y2="387"/><!--MD5=[df38be88ccee13e832d6fafd6288a4ca]
class Test--><rect codeLine="5" fill="#FEFECE" filter="url(#fedxfy4riz3j9)" height="86.4141" id="Test" style="stroke:#A80036;stroke-width:1.5;" width="114" x="203.5" y="164.5"/><ellipse cx="243.7" cy="180.5" fill="#ADD1B2" rx="11" ry="11" style="stroke:#A80036;stroke-width:1.0;"/><path d="M246.0438,176.1719 C245.1063,175.7344 244.5125,175.5938 243.6375,175.5938 C241.0125,175.5938 239.0125,177.6719 239.0125,180.3906 L239.0125,181.5156 C239.0125,184.0938 241.1219,185.9844 244.0125,185.9844 C245.2313,185.9844 246.3875,185.6875 247.1375,185.1406 C247.7156,184.7344 248.0438,184.2813 248.0438,183.8906 C248.0438,183.4375 247.6531,183.0469 247.1844,183.0469 C246.9656,183.0469 246.7625,183.125 246.575,183.3125 C246.1219,183.7969 246.1219,183.7969 245.9344,183.8906 C245.5125,184.1563 244.825,184.2813 244.0594,184.2813 C242.0125,184.2813 240.7156,183.1875 240.7156,181.4844 L240.7156,180.3906 C240.7156,178.6094 241.9656,177.2969 243.7,177.2969 C244.2781,177.2969 244.8875,177.4531 245.3563,177.7031 C245.8406,177.9844 246.0125,178.2031 246.1063,178.6094 C246.1688,179.0156 246.2,179.1406 246.3406,179.2656 C246.4813,179.4063 246.7156,179.5156 246.9344,179.5156 C247.2,179.5156 247.4656,179.375 247.6375,179.1563 C247.7469,179 247.7781,178.8125 247.7781,178.3906 L247.7781,176.9688 C247.7781,176.5313 247.7625,176.4063 247.6688,176.25 C247.5125,175.9844 247.2313,175.8438 246.9344,175.8438 C246.6375,175.8438 246.4344,175.9375 246.2156,176.25 L246.0438,176.1719 Z " fill="#000000"/><text fill="#000000" font-family="sans-serif" font-size="12" lengthAdjust="spacing" textLength="26" x="263.3" y="184.6543">Test</text><line style="stroke:#A80036;stroke-width:1.5;" x1="204.5" x2="316.5" y1="196.5" y2="196.5"/><text fill="#000000" font-family="sans-serif" font-size="11" lengthAdjust="spacing" textLength="68" x="209.5" y="210.7104">String code;</text><text fill="#000000" font-family="sans-serif" font-size="11" lengthAdjust="spacing" textLength="94" x="209.5" y="223.5151">String NHSCode;</text><text fill="#000000" font-family="sans-serif" font-size="11" lengthAdjust="spacing" textLength="102" x="209.5" y="236.3198">String description;</text><line style="stroke:#A80036;stroke-width:1.5;" x1="204.5" x2="316.5" y1="242.9141" y2="242.9141"/><!--MD5=[74783ec010d186752c4ffd5c6de5633a]
class NHSReport--><rect codeLine="10" fill="#FEFECE" filter="url(#fedxfy4riz3j9)" height="60.8047" id="NHSReport" style="stroke:#A80036;stroke-width:1.5;" width="97" x="469" y="472"/><ellipse cx="484" cy="488" fill="#ADD1B2" rx="11" ry="11" style="stroke:#A80036;stroke-width:1.0;"/><path d="M486.3438,483.6719 C485.4063,483.2344 484.8125,483.0938 483.9375,483.0938 C481.3125,483.0938 479.3125,485.1719 479.3125,487.8906 L479.3125,489.0156 C479.3125,491.5938 481.4219,493.4844 484.3125,493.4844 C485.5313,493.4844 486.6875,493.1875 487.4375,492.6406 C488.0156,492.2344 488.3438,491.7813 488.3438,491.3906 C488.3438,490.9375 487.9531,490.5469 487.4844,490.5469 C487.2656,490.5469 487.0625,490.625 486.875,490.8125 C486.4219,491.2969 486.4219,491.2969 486.2344,491.3906 C485.8125,491.6563 485.125,491.7813 484.3594,491.7813 C482.3125,491.7813 481.0156,490.6875 481.0156,488.9844 L481.0156,487.8906 C481.0156,486.1094 482.2656,484.7969 484,484.7969 C484.5781,484.7969 485.1875,484.9531 485.6563,485.2031 C486.1406,485.4844 486.3125,485.7031 486.4063,486.1094 C486.4688,486.5156 486.5,486.6406 486.6406,486.7656 C486.7813,486.9063 487.0156,487.0156 487.2344,487.0156 C487.5,487.0156 487.7656,486.875 487.9375,486.6563 C488.0469,486.5 488.0781,486.3125 488.0781,485.8906 L488.0781,484.4688 C488.0781,484.0313 488.0625,483.9063 487.9688,483.75 C487.8125,483.4844 487.5313,483.3438 487.2344,483.3438 C486.9375,483.3438 486.7344,483.4375 486.5156,483.75 L486.3438,483.6719 Z " fill="#000000"/><text fill="#000000" font-family="sans-serif" font-size="12" lengthAdjust="spacing" textLength="65" x="498" y="492.1543">NHSReport</text><line style="stroke:#A80036;stroke-width:1.5;" x1="470" x2="565" y1="504" y2="504"/><text fill="#000000" font-family="sans-serif" font-size="11" lengthAdjust="spacing" textLength="63" x="475" y="518.2104">String text;</text><line style="stroke:#A80036;stroke-width:1.5;" x1="470" x2="565" y1="524.8047" y2="524.8047"/><!--MD5=[0a105ea8d9af02dadec02d3e239f1d60]
class NHS--><rect codeLine="13" fill="#FEFECE" filter="url(#fedxfy4riz3j9)" height="48" id="NHS" style="stroke:#A80036;stroke-width:1.5;" width="57" x="635" y="183.5"/><ellipse cx="650" cy="199.5" fill="#ADD1B2" rx="11" ry="11" style="stroke:#A80036;stroke-width:1.0;"/><path d="M652.3438,195.1719 C651.4063,194.7344 650.8125,194.5938 649.9375,194.5938 C647.3125,194.5938 645.3125,196.6719 645.3125,199.3906 L645.3125,200.5156 C645.3125,203.0938 647.4219,204.9844 650.3125,204.9844 C651.5313,204.9844 652.6875,204.6875 653.4375,204.1406 C654.0156,203.7344 654.3438,203.2813 654.3438,202.8906 C654.3438,202.4375 653.9531,202.0469 653.4844,202.0469 C653.2656,202.0469 653.0625,202.125 652.875,202.3125 C652.4219,202.7969 652.4219,202.7969 652.2344,202.8906 C651.8125,203.1563 651.125,203.2813 650.3594,203.2813 C648.3125,203.2813 647.0156,202.1875 647.0156,200.4844 L647.0156,199.3906 C647.0156,197.6094 648.2656,196.2969 650,196.2969 C650.5781,196.2969 651.1875,196.4531 651.6563,196.7031 C652.1406,196.9844 652.3125,197.2031 652.4063,197.6094 C652.4688,198.0156 652.5,198.1406 652.6406,198.2656 C652.7813,198.4063 653.0156,198.5156 653.2344,198.5156 C653.5,198.5156 653.7656,198.375 653.9375,198.1563 C654.0469,198 654.0781,197.8125 654.0781,197.3906 L654.0781,195.9688 C654.0781,195.5313 654.0625,195.4063 653.9688,195.25 C653.8125,194.9844 653.5313,194.8438 653.2344,194.8438 C652.9375,194.8438 652.7344,194.9375 652.5156,195.25 L652.3438,195.1719 Z " fill="#000000"/><text fill="#000000" font-family="sans-serif" font-size="12" lengthAdjust="spacing" textLength="25" x="664" y="203.6543">NHS</text><line style="stroke:#A80036;stroke-width:1.5;" x1="636" x2="691" y1="215.5" y2="215.5"/><line style="stroke:#A80036;stroke-width:1.5;" x1="636" x2="691" y1="223.5" y2="223.5"/><!--MD5=[7421f545a0d8420c5bec41e74b387d9c]
class Employee--><rect codeLine="14" fill="#FEFECE" filter="url(#fedxfy4riz3j9)" height="124.8281" id="Employee" style="stroke:#A80036;stroke-width:1.5;" width="161" x="7" y="145"/><ellipse cx="53.25" cy="161" fill="#ADD1B2" rx="11" ry="11" style="stroke:#A80036;stroke-width:1.0;"/><path d="M55.5938,156.6719 C54.6563,156.2344 54.0625,156.0938 53.1875,156.0938 C50.5625,156.0938 48.5625,158.1719 48.5625,160.8906 L48.5625,162.0156 C48.5625,164.5938 50.6719,166.4844 53.5625,166.4844 C54.7813,166.4844 55.9375,166.1875 56.6875,165.6406 C57.2656,165.2344 57.5938,164.7813 57.5938,164.3906 C57.5938,163.9375 57.2031,163.5469 56.7344,163.5469 C56.5156,163.5469 56.3125,163.625 56.125,163.8125 C55.6719,164.2969 55.6719,164.2969 55.4844,164.3906 C55.0625,164.6563 54.375,164.7813 53.6094,164.7813 C51.5625,164.7813 50.2656,163.6875 50.2656,161.9844 L50.2656,160.8906 C50.2656,159.1094 51.5156,157.7969 53.25,157.7969 C53.8281,157.7969 54.4375,157.9531 54.9063,158.2031 C55.3906,158.4844 55.5625,158.7031 55.6563,159.1094 C55.7188,159.5156 55.75,159.6406 55.8906,159.7656 C56.0313,159.9063 56.2656,160.0156 56.4844,160.0156 C56.75,160.0156 57.0156,159.875 57.1875,159.6563 C57.2969,159.5 57.3281,159.3125 57.3281,158.8906 L57.3281,157.4688 C57.3281,157.0313 57.3125,156.9063 57.2188,156.75 C57.0625,156.4844 56.7813,156.3438 56.4844,156.3438 C56.1875,156.3438 55.9844,156.4375 55.7656,156.75 L55.5938,156.6719 Z " fill="#000000"/><text fill="#000000" font-family="sans-serif" font-size="12" lengthAdjust="spacing" textLength="60" x="73.75" y="165.1543">Employee</text><line style="stroke:#A80036;stroke-width:1.5;" x1="8" x2="167" y1="177" y2="177"/><rect fill="none" height="6" style="stroke:#C82930;stroke-width:1.0;" width="6" x="15" y="185"/><text fill="#000000" font-family="sans-serif" font-size="11" lengthAdjust="spacing" textLength="111" x="27" y="191.2104">String employeeID;</text><rect fill="none" height="6" style="stroke:#C82930;stroke-width:1.0;" width="6" x="15" y="197.8047"/><text fill="#000000" font-family="sans-serif" font-size="11" lengthAdjust="spacing" textLength="135" x="27" y="204.0151">String organizationRole;</text><rect fill="none" height="6" style="stroke:#C82930;stroke-width:1.0;" width="6" x="15" y="210.6094"/><text fill="#000000" font-family="sans-serif" font-size="11" lengthAdjust="spacing" textLength="73" x="27" y="216.8198">String name;</text><rect fill="none" height="6" style="stroke:#C82930;stroke-width:1.0;" width="6" x="15" y="223.4141"/><text fill="#000000" font-family="sans-serif" font-size="11" lengthAdjust="spacing" textLength="78" x="27" y="229.6245">String adress;</text><rect fill="none" height="6" style="stroke:#C82930;stroke-width:1.0;" width="6" x="15" y="236.2188"/><text fill="#000000" font-family="sans-serif" font-size="11" lengthAdjust="spacing" textLength="121" x="27" y="242.4292">String phoneNumber;</text><rect fill="none" height="6" style="stroke:#C82930;stroke-width:1.0;" width="6" x="15" y="249.0234"/><text fill="#000000" font-family="sans-serif" font-size="11" lengthAdjust="spacing" textLength="74" x="27" y="255.2339">int codeSOC;</text><line style="stroke:#A80036;stroke-width:1.5;" x1="8" x2="167" y1="261.8281" y2="261.8281"/><!--MD5=[da547346deef918ea16944ba046651ef]
class Administrator--><rect codeLine="22" fill="#FEFECE" filter="url(#fedxfy4riz3j9)" height="48" id="Administrator" style="stroke:#A80036;stroke-width:1.5;" width="112" x="31.5" y="347"/><ellipse cx="46.5" cy="363" fill="#ADD1B2" rx="11" ry="11" style="stroke:#A80036;stroke-width:1.0;"/><path d="M48.8438,358.6719 C47.9063,358.2344 47.3125,358.0938 46.4375,358.0938 C43.8125,358.0938 41.8125,360.1719 41.8125,362.8906 L41.8125,364.0156 C41.8125,366.5938 43.9219,368.4844 46.8125,368.4844 C48.0313,368.4844 49.1875,368.1875 49.9375,367.6406 C50.5156,367.2344 50.8438,366.7813 50.8438,366.3906 C50.8438,365.9375 50.4531,365.5469 49.9844,365.5469 C49.7656,365.5469 49.5625,365.625 49.375,365.8125 C48.9219,366.2969 48.9219,366.2969 48.7344,366.3906 C48.3125,366.6563 47.625,366.7813 46.8594,366.7813 C44.8125,366.7813 43.5156,365.6875 43.5156,363.9844 L43.5156,362.8906 C43.5156,361.1094 44.7656,359.7969 46.5,359.7969 C47.0781,359.7969 47.6875,359.9531 48.1563,360.2031 C48.6406,360.4844 48.8125,360.7031 48.9063,361.1094 C48.9688,361.5156 49,361.6406 49.1406,361.7656 C49.2813,361.9063 49.5156,362.0156 49.7344,362.0156 C50,362.0156 50.2656,361.875 50.4375,361.6563 C50.5469,361.5 50.5781,361.3125 50.5781,360.8906 L50.5781,359.4688 C50.5781,359.0313 50.5625,358.9063 50.4688,358.75 C50.3125,358.4844 50.0313,358.3438 49.7344,358.3438 C49.4375,358.3438 49.2344,358.4375 49.0156,358.75 L48.8438,358.6719 Z " fill="#000000"/><text fill="#000000" font-family="sans-serif" font-size="12" lengthAdjust="spacing" textLength="80" x="60.5" y="367.1543">Administrator</text><line style="stroke:#A80036;stroke-width:1.5;" x1="32.5" x2="142.5" y1="379" y2="379"/><line style="stroke:#A80036;stroke-width:1.5;" x1="32.5" x2="142.5" y1="387" y2="387"/><!--MD5=[d6d03a24ddaddfc757d057c10e8a8b53]
class Regression--><rect codeLine="25" fill="#FEFECE" filter="url(#fedxfy4riz3j9)" height="48" id="Regression" style="stroke:#A80036;stroke-width:1.5;" width="100" x="352.5" y="183.5"/><ellipse cx="367.5" cy="199.5" fill="#ADD1B2" rx="11" ry="11" style="stroke:#A80036;stroke-width:1.0;"/><path d="M369.8438,195.1719 C368.9063,194.7344 368.3125,194.5938 367.4375,194.5938 C364.8125,194.5938 362.8125,196.6719 362.8125,199.3906 L362.8125,200.5156 C362.8125,203.0938 364.9219,204.9844 367.8125,204.9844 C369.0313,204.9844 370.1875,204.6875 370.9375,204.1406 C371.5156,203.7344 371.8438,203.2813 371.8438,202.8906 C371.8438,202.4375 371.4531,202.0469 370.9844,202.0469 C370.7656,202.0469 370.5625,202.125 370.375,202.3125 C369.9219,202.7969 369.9219,202.7969 369.7344,202.8906 C369.3125,203.1563 368.625,203.2813 367.8594,203.2813 C365.8125,203.2813 364.5156,202.1875 364.5156,200.4844 L364.5156,199.3906 C364.5156,197.6094 365.7656,196.2969 367.5,196.2969 C368.0781,196.2969 368.6875,196.4531 369.1563,196.7031 C369.6406,196.9844 369.8125,197.2031 369.9063,197.6094 C369.9688,198.0156 370,198.1406 370.1406,198.2656 C370.2813,198.4063 370.5156,198.5156 370.7344,198.5156 C371,198.5156 371.2656,198.375 371.4375,198.1563 C371.5469,198 371.5781,197.8125 371.5781,197.3906 L371.5781,195.9688 C371.5781,195.5313 371.5625,195.4063 371.4688,195.25 C371.3125,194.9844 371.0313,194.8438 370.7344,194.8438 C370.4375,194.8438 370.2344,194.9375 370.0156,195.25 L369.8438,195.1719 Z " fill="#000000"/><text fill="#000000" font-family="sans-serif" font-size="12" lengthAdjust="spacing" textLength="68" x="381.5" y="203.6543">Regression</text><line style="stroke:#A80036;stroke-width:1.5;" x1="353.5" x2="451.5" y1="215.5" y2="215.5"/><line style="stroke:#A80036;stroke-width:1.5;" x1="353.5" x2="451.5" y1="223.5" y2="223.5"/><!--MD5=[5be0b3fa93dff41996980e9f23547703]
class LinearClass--><rect codeLine="27" fill="#FEFECE" filter="url(#fedxfy4riz3j9)" height="48" id="LinearClass" style="stroke:#A80036;stroke-width:1.5;" width="100" x="178.5" y="347"/><ellipse cx="193.5" cy="363" fill="#ADD1B2" rx="11" ry="11" style="stroke:#A80036;stroke-width:1.0;"/><path d="M195.8438,358.6719 C194.9063,358.2344 194.3125,358.0938 193.4375,358.0938 C190.8125,358.0938 188.8125,360.1719 188.8125,362.8906 L188.8125,364.0156 C188.8125,366.5938 190.9219,368.4844 193.8125,368.4844 C195.0313,368.4844 196.1875,368.1875 196.9375,367.6406 C197.5156,367.2344 197.8438,366.7813 197.8438,366.3906 C197.8438,365.9375 197.4531,365.5469 196.9844,365.5469 C196.7656,365.5469 196.5625,365.625 196.375,365.8125 C195.9219,366.2969 195.9219,366.2969 195.7344,366.3906 C195.3125,366.6563 194.625,366.7813 193.8594,366.7813 C191.8125,366.7813 190.5156,365.6875 190.5156,363.9844 L190.5156,362.8906 C190.5156,361.1094 191.7656,359.7969 193.5,359.7969 C194.0781,359.7969 194.6875,359.9531 195.1563,360.2031 C195.6406,360.4844 195.8125,360.7031 195.9063,361.1094 C195.9688,361.5156 196,361.6406 196.1406,361.7656 C196.2813,361.9063 196.5156,362.0156 196.7344,362.0156 C197,362.0156 197.2656,361.875 197.4375,361.6563 C197.5469,361.5 197.5781,361.3125 197.5781,360.8906 L197.5781,359.4688 C197.5781,359.0313 197.5625,358.9063 197.4688,358.75 C197.3125,358.4844 197.0313,358.3438 196.7344,358.3438 C196.4375,358.3438 196.2344,358.4375 196.0156,358.75 L195.8438,358.6719 Z " fill="#000000"/><text fill="#000000" font-family="sans-serif" font-size="12" lengthAdjust="spacing" textLength="68" x="207.5" y="367.1543">LinearClass</text><line style="stroke:#A80036;stroke-width:1.5;" x1="179.5" x2="277.5" y1="379" y2="379"/><line style="stroke:#A80036;stroke-width:1.5;" x1="179.5" x2="277.5" y1="387" y2="387"/><!--MD5=[cc22a823245a06a40adce40dd5dfc584]
class MultiClass--><rect codeLine="29" fill="#FEFECE" filter="url(#fedxfy4riz3j9)" height="48" id="MultiClass" style="stroke:#A80036;stroke-width:1.5;" width="91" x="314" y="347"/><ellipse cx="329" cy="363" fill="#ADD1B2" rx="11" ry="11" style="stroke:#A80036;stroke-width:1.0;"/><path d="M331.3438,358.6719 C330.4063,358.2344 329.8125,358.0938 328.9375,358.0938 C326.3125,358.0938 324.3125,360.1719 324.3125,362.8906 L324.3125,364.0156 C324.3125,366.5938 326.4219,368.4844 329.3125,368.4844 C330.5313,368.4844 331.6875,368.1875 332.4375,367.6406 C333.0156,367.2344 333.3438,366.7813 333.3438,366.3906 C333.3438,365.9375 332.9531,365.5469 332.4844,365.5469 C332.2656,365.5469 332.0625,365.625 331.875,365.8125 C331.4219,366.2969 331.4219,366.2969 331.2344,366.3906 C330.8125,366.6563 330.125,366.7813 329.3594,366.7813 C327.3125,366.7813 326.0156,365.6875 326.0156,363.9844 L326.0156,362.8906 C326.0156,361.1094 327.2656,359.7969 329,359.7969 C329.5781,359.7969 330.1875,359.9531 330.6563,360.2031 C331.1406,360.4844 331.3125,360.7031 331.4063,361.1094 C331.4688,361.5156 331.5,361.6406 331.6406,361.7656 C331.7813,361.9063 332.0156,362.0156 332.2344,362.0156 C332.5,362.0156 332.7656,361.875 332.9375,361.6563 C333.0469,361.5 333.0781,361.3125 333.0781,360.8906 L333.0781,359.4688 C333.0781,359.0313 333.0625,358.9063 332.9688,358.75 C332.8125,358.4844 332.5313,358.3438 332.2344,358.3438 C331.9375,358.3438 331.7344,358.4375 331.5156,358.75 L331.3438,358.6719 Z " fill="#000000"/><text fill="#000000" font-family="sans-serif" font-size="12" lengthAdjust="spacing" textLength="59" x="343" y="367.1543">MultiClass</text><line style="stroke:#A80036;stroke-width:1.5;" x1="315" x2="404" y1="379" y2="379"/><line style="stroke:#A80036;stroke-width:1.5;" x1="315" x2="404" y1="387" y2="387"/><!--MD5=[e3e9f920107069e1dd96d7e9be359f2c]
link Company to Regression--><path codeLine="31" d="M338.265,68.148 C353.529,101.023 377.829,153.363 391.755,183.357 " fill="none" id="Company-Regression" style="stroke:#A80036;stroke-width:1.0;"/><polygon fill="#000000" points="366.6056,111.1014,365.4622,101.6599,360.1309,104.1351,366.6056,111.1014" style="stroke:#000000;stroke-width:1.0;"/><text fill="#000000" font-family="sans-serif" font-size="13" lengthAdjust="spacing" textLength="30" x="373.5" y="111.0669">uses</text><text fill="#000000" font-family="sans-serif" font-size="13" lengthAdjust="spacing" textLength="8" x="332.1875" y="87.7576">1</text><text fill="#000000" font-family="sans-serif" font-size="13" lengthAdjust="spacing" textLength="8" x="379.9766" y="172.3324">1</text><!--MD5=[7e4bc624457760b649895ff2ead938fa]
link Company to Test--><path codeLine="32" d="M291.486,68.27 C283.667,77.061 276.234,87.236 271.5,98 C262.429,118.624 259.414,143.519 258.786,164.257 " fill="none" id="Company-Test" style="stroke:#A80036;stroke-width:1.0;"/><polygon fill="#000000" points="274.8876,111.2993,280.5864,103.6851,275.0225,101.7897,274.8876,111.2993" style="stroke:#000000;stroke-width:1.0;"/><text fill="#000000" font-family="sans-serif" font-size="13" lengthAdjust="spacing" textLength="59" x="285.5" y="111.0669">performs</text><text fill="#000000" font-family="sans-serif" font-size="13" lengthAdjust="spacing" textLength="8" x="276.1989" y="87.9036">1</text><text fill="#000000" font-family="sans-serif" font-size="13" lengthAdjust="spacing" textLength="7" x="250.9876" y="153.5323">*</text><!--MD5=[859391d06bfa233d044fa9b08e85cd22]
link Company to NHSAPI--><path codeLine="33" d="M377.827,68.188 C407.87,87.046 444.305,113.757 469.5,145 C522.331,210.513 561.032,303.917 577.181,346.825 " fill="none" id="Company-NHSAPI" style="stroke:#A80036;stroke-width:1.0;"/><polygon fill="#000000" points="551.4094,211.6328,548.5365,202.5665,543.7561,205.9867,551.4094,211.6328" style="stroke:#000000;stroke-width:1.0;"/><text fill="#000000" font-family="sans-serif" font-size="13" lengthAdjust="spacing" textLength="30" x="557.5" y="212.0669">uses</text><text fill="#000000" font-family="sans-serif" font-size="13" lengthAdjust="spacing" textLength="8" x="379.5383" y="87.8055">1</text><text fill="#000000" font-family="sans-serif" font-size="13" lengthAdjust="spacing" textLength="8" x="566.0243" y="335.7922">1</text><!--MD5=[09366576ee87d48d594df10cacc83f45]
link Company to Employee--><path codeLine="34" d="M265.492,58.216 C240.503,68.069 211.836,81.453 188.5,98 C169.921,111.174 152.117,128.206 136.773,144.855 " fill="none" id="Company-Employee" style="stroke:#A80036;stroke-width:1.0;"/><polygon fill="#000000" points="189.3521,109.3583,198.4968,106.7458,195.2147,101.8696,189.3521,109.3583" style="stroke:#000000;stroke-width:1.0;"/><text fill="#000000" font-family="sans-serif" font-size="13" lengthAdjust="spacing" textLength="55" x="202.5" y="111.0669">employs</text><text fill="#000000" font-family="sans-serif" font-size="13" lengthAdjust="spacing" textLength="8" x="249.4191" y="56.9972">1</text><text fill="#000000" font-family="sans-serif" font-size="13" lengthAdjust="spacing" textLength="7" x="135.0655" y="133.829">*</text><!--MD5=[f7fb1bbd8b4f4021e9754ae6fe2871a0]
reverse link Employee to Administrator--><path codeLine="35" d="M87.5,290.249 C87.5,311.077 87.5,331.817 87.5,346.924 " fill="none" id="Employee-backto-Administrator" style="stroke:#A80036;stroke-width:1.0;"/><polygon fill="none" points="80.5001,290.017,87.5,270.017,94.5001,290.017,80.5001,290.017" style="stroke:#A80036;stroke-width:1.0;"/><polygon fill="#000000" points="92.5,313.5664,95.4389,304.5213,89.5611,304.5213,92.5,313.5664" style="stroke:#000000;stroke-width:1.0;"/><text fill="#000000" font-family="sans-serif" font-size="13" lengthAdjust="spacing" textLength="23" x="101.5" y="313.0669">has</text><text fill="#000000" font-family="sans-serif" font-size="13" lengthAdjust="spacing" textLength="8" x="79.0625" y="289.7587">1</text><text fill="#000000" font-family="sans-serif" font-size="13" lengthAdjust="spacing" textLength="7" x="79.6031" y="335.9166">*</text><!--MD5=[8ab086dc2d99d892dc6fd5d865ad098e]
link Administrator to NHSReport--><path codeLine="36" d="M143.668,389.792 C149.35,391.563 155.037,393.325 160.5,395 C270.568,428.755 400.168,467.0579 468.924,487.2651 " fill="none" id="Administrator-NHSReport" style="stroke:#A80036;stroke-width:1.0;"/><polygon fill="#000000" points="317.2896,435.0017,309.4688,429.59,307.7815,435.2204,317.2896,435.0017" style="stroke:#000000;stroke-width:1.0;"/><text fill="#000000" font-family="sans-serif" font-size="13" lengthAdjust="spacing" textLength="38" x="321.5" y="438.0669">sends</text><text fill="#000000" font-family="sans-serif" font-size="13" lengthAdjust="spacing" textLength="8" x="151.377" y="388.3142">1</text><text fill="#000000" font-family="sans-serif" font-size="13" lengthAdjust="spacing" textLength="23" x="437.8513" y="481.299">1..*</text><!--MD5=[2cf527c6da59abdc3f05d9d4d4ad1cf8]
reverse link Regression to LinearClass--><path codeLine="37" d="M362.73,245.413 C329.086,276.64 281.919,320.419 253.384,346.904 " fill="none" id="Regression-backto-LinearClass" style="stroke:#A80036;stroke-width:1.0;"/><polygon fill="none" points="358.149,240.114,377.57,231.639,367.673,250.375,358.149,240.114" style="stroke:#A80036;stroke-width:1.0;"/><text fill="#000000" font-family="sans-serif" font-size="13" lengthAdjust="spacing" textLength="8" x="362.5183" y="251.4341">1</text><text fill="#000000" font-family="sans-serif" font-size="13" lengthAdjust="spacing" textLength="7" x="251.8636" y="335.8914">*</text><!--MD5=[8fa827c3477415ec4e7836f2022ece09]
reverse link Regression to MultiClass--><path codeLine="38" d="M391.172,251.048 C383.002,281.731 372.286,321.977 365.649,346.904 " fill="none" id="Regression-backto-MultiClass" style="stroke:#A80036;stroke-width:1.0;"/><polygon fill="none" points="384.429,249.165,396.339,231.639,397.958,252.767,384.429,249.165" style="stroke:#A80036;stroke-width:1.0;"/><text fill="#000000" font-family="sans-serif" font-size="13" lengthAdjust="spacing" textLength="8" x="385.8623" y="251.4341">1</text><text fill="#000000" font-family="sans-serif" font-size="13" lengthAdjust="spacing" textLength="7" x="359.3278" y="335.8914">*</text><!--MD5=[83b5bff43bc71059bacccd3f18b7f496]
link NHS to NHSAPI--><path codeLine="40" d="M635.055,231.598 C616.765,248.387 594.597,272.855 584.5,300 C578.949,314.923 579.341,332.903 581.047,346.904 " fill="none" id="NHS-NHSAPI" style="stroke:#A80036;stroke-width:1.0;"/><polygon fill="#000000" points="587.3792,313.0943,593.8772,306.1498,588.5543,303.6566,587.3792,313.0943" style="stroke:#000000;stroke-width:1.0;"/><text fill="#000000" font-family="sans-serif" font-size="13" lengthAdjust="spacing" textLength="67" x="598.5" y="313.0669">distributes</text><text fill="#000000" font-family="sans-serif" font-size="13" lengthAdjust="spacing" textLength="8" x="619.1465" y="232.7268">1</text><text fill="#000000" font-family="sans-serif" font-size="13" lengthAdjust="spacing" textLength="8" x="580.9309" y="335.8914">1</text><!--MD5=[c78b42741673ea04da7a87c846a6b396]
link NHS to NHSReport--><path codeLine="41" d="M669.348,231.692 C679.382,277.35 694.393,379.845 645.5,442 C625.879,466.9428 593.355,481.8762 566.002,490.5441 " fill="none" id="NHS-NHSReport" style="stroke:#A80036;stroke-width:1.0;"/><polygon fill="#000000" points="680.6461,375.71,686.7293,368.3994,681.2704,366.2199,680.6461,375.71" style="stroke:#000000;stroke-width:1.0;"/><text fill="#000000" font-family="sans-serif" font-size="13" lengthAdjust="spacing" textLength="39" x="691.5" y="375.5669">wants</text><text fill="#000000" font-family="sans-serif" font-size="13" lengthAdjust="spacing" textLength="8" x="661.7985" y="251.5">1</text><text fill="#000000" font-family="sans-serif" font-size="13" lengthAdjust="spacing" textLength="7" x="573.9648" y="484.6569">*</text><!--MD5=[bdd76af07be1dbb1e676cede96b20b2a]
link NHSAPI to NHSReport--><path codeLine="42" d="M573.343,395.152 C562.112,416.541 545.366,448.4319 533.142,471.7114 " fill="none" id="NHSAPI-NHSReport" style="stroke:#A80036;stroke-width:1.0;"/><polygon fill="#000000" points="560.1755,437.9932,566.9826,431.3513,561.7785,428.6187,560.1755,437.9932" style="stroke:#000000;stroke-width:1.0;"/><text fill="#000000" font-family="sans-serif" font-size="13" lengthAdjust="spacing" textLength="65" x="571.5" y="438.0669">generates</text><text fill="#000000" font-family="sans-serif" font-size="13" lengthAdjust="spacing" textLength="8" x="561.4047" y="414.9503">1</text><text fill="#000000" font-family="sans-serif" font-size="13" lengthAdjust="spacing" textLength="7" x="528.6463" y="460.9151">*</text><!--MD5=[4849559182e0a6abffa272f5765b9d3e]
link Regression to NHSReport--><path codeLine="43" d="M411.717,231.982 C432.503,284.943 483,413.6 505.884,471.9056 " fill="none" id="Regression-NHSReport" style="stroke:#A80036;stroke-width:1.0;"/><polygon fill="#000000" points="478.6732,366.4121,479.2421,375.9056,484.7136,373.7581,478.6732,366.4121" style="stroke:#000000;stroke-width:1.0;"/><text fill="#000000" font-family="sans-serif" font-size="13" lengthAdjust="spacing" textLength="23" x="489.5" y="375.5669">has</text><text fill="#000000" font-family="sans-serif" font-size="13" lengthAdjust="spacing" textLength="8" x="404.9234" y="251.4601">1</text><text fill="#000000" font-family="sans-serif" font-size="13" lengthAdjust="spacing" textLength="8" x="494.6632" y="461.1494">1</text><!--MD5=[210f3071f57b799985b7d0401f333207]
@startuml
class Company { 
String designation; 
} 
class NHSAPI
class Test { 
String code;
String NHSCode; 
String description; 
} 
class NHSReport { 
String text;
} 
class NHS
class Employee{
  -String employeeID;
  -String organizationRole;
  -String name;
  -String adress;
  -String phoneNumber;
  -int codeSOC;
}
class Administrator{
}

class Regression{
}
class LinearClass{
}
class MultiClass{
}
Company "1" - - "1" Regression : uses >
Company "1" - - "*" Test: performs > 
Company "1" - - "1" NHSAPI: uses > 
Company "1" - - "*" Employee: employs >
Employee "1" <|- - "*" Administrator: has >
Administrator "1" - - "1..*" NHSReport : sends >
Regression "1" <|- - "*" LinearClass
Regression "1" <|- - "*" MultiClass

NHS "1" - - "1" NHSAPI: distributes >
NHS "1" - - "*" NHSReport: wants > 
NHSAPI "1" - - "*" NHSReport: generates > 
Regression "1" - - "1" NHSReport: has <
@enduml

PlantUML version 1.2021.7(Sun May 23 12:40:07 UTC 2021)
(GPL source distribution)
Java Runtime: Java(TM) SE Runtime Environment
JVM: Java HotSpot(TM) 64-Bit Server VM
Default Encoding: UTF-8
Language: en
Country: US
--></g></svg>