<?xml version="1.0" encoding="UTF-8" standalone="no"?><svg xmlns="http://www.w3.org/2000/svg" xmlns:xlink="http://www.w3.org/1999/xlink" contentScriptType="application/ecmascript" contentStyleType="text/css" height="1123px" preserveAspectRatio="none" style="width:1707px;height:1123px;background:#FFFFFF;" version="1.1" viewBox="0 0 1707 1123" width="1707px" zoomAndPan="magnify"><defs><filter height="300%" id="ftrtxfkstnmux" width="300%" x="-1" y="-1"><feGaussianBlur result="blurOut" stdDeviation="2.0"/><feColorMatrix in="blurOut" result="blurOut2" type="matrix" values="0 0 0 0 0 0 0 0 0 0 0 0 0 0 0 0 0 0 .4 0"/><feOffset dx="4.0" dy="4.0" in="blurOut2" result="blurOut3"/><feBlend in="SourceGraphic" in2="blurOut3" mode="normal"/></filter></defs><g><rect fill="#FFFFFF" filter="url(#ftrtxfkstnmux)" height="922.5938" style="stroke:#A80036;stroke-width:1.0;" width="10" x="53" y="98.2969"/><rect fill="#FFFFFF" filter="url(#ftrtxfkstnmux)" height="29.1328" style="stroke:#A80036;stroke-width:1.0;" width="10" x="774" y="119.4297"/><rect fill="#FFFFFF" filter="url(#ftrtxfkstnmux)" height="176.5313" style="stroke:#A80036;stroke-width:1.0;" width="10" x="774" y="177.6953"/><rect fill="#FFFFFF" filter="url(#ftrtxfkstnmux)" height="372.2031" style="stroke:#A80036;stroke-width:1.0;" width="10" x="774" y="383.3594"/><rect fill="#FFFFFF" filter="url(#ftrtxfkstnmux)" height="236.1953" style="stroke:#A80036;stroke-width:1.0;" width="10" x="774" y="784.6953"/><rect fill="#FFFFFF" filter="url(#ftrtxfkstnmux)" height="118.2656" style="stroke:#A80036;stroke-width:1.0;" width="10" x="1101" y="206.8281"/><rect fill="#FFFFFF" filter="url(#ftrtxfkstnmux)" height="74.3984" style="stroke:#A80036;stroke-width:1.0;" width="10" x="1101" y="436.625"/><rect fill="#FFFFFF" filter="url(#ftrtxfkstnmux)" height="30" style="stroke:#A80036;stroke-width:1.0;" width="10" x="1101" y="554.9609"/><rect fill="#FFFFFF" filter="url(#ftrtxfkstnmux)" height="60.2656" style="stroke:#A80036;stroke-width:1.0;" width="10" x="1101" y="674.1641"/><rect fill="#FFFFFF" filter="url(#ftrtxfkstnmux)" height="74.3984" style="stroke:#A80036;stroke-width:1.0;" width="10" x="1101" y="813.8281"/><rect fill="#FFFFFF" filter="url(#ftrtxfkstnmux)" height="74.3984" style="stroke:#A80036;stroke-width:1.0;" width="10" x="1101" y="917.3594"/><rect fill="#FFFFFF" filter="url(#ftrtxfkstnmux)" height="30" style="stroke:#A80036;stroke-width:1.0;" width="10" x="1330" y="235.9609"/><rect fill="#FFFFFF" filter="url(#ftrtxfkstnmux)" height="30" style="stroke:#A80036;stroke-width:1.0;" width="10" x="1475.5" y="295.0938"/><rect fill="#FFFFFF" filter="url(#ftrtxfkstnmux)" height="329.0703" style="stroke:#000000;stroke-width:2.0;" width="513" x="701" y="398.3594"/><rect fill="#FFFFFF" height="119.2031" style="stroke:none;stroke-width:1.0;" width="513" x="701" y="519.0234"/><rect fill="#FFFFFF" height="89.2031" style="stroke:none;stroke-width:1.0;" width="513" x="701" y="638.2266"/><line style="stroke:#A80036;stroke-width:1.0;stroke-dasharray:5.0,5.0;" x1="58" x2="58" y1="88.2969" y2="1038.8906"/><line style="stroke:#A80036;stroke-width:1.0;stroke-dasharray:5.0,5.0;" x1="779" x2="779" y1="88.2969" y2="1038.8906"/><line style="stroke:#A80036;stroke-width:1.0;stroke-dasharray:5.0,5.0;" x1="1106" x2="1106" y1="88.2969" y2="1038.8906"/><line style="stroke:#A80036;stroke-width:1.0;stroke-dasharray:5.0,5.0;" x1="1334.5" x2="1334.5" y1="88.2969" y2="1038.8906"/><line style="stroke:#A80036;stroke-width:1.0;stroke-dasharray:5.0,5.0;" x1="1480.5" x2="1480.5" y1="88.2969" y2="1038.8906"/><line style="stroke:#A80036;stroke-width:1.0;stroke-dasharray:5.0,5.0;" x1="1638.5" x2="1638.5" y1="88.2969" y2="1038.8906"/><text fill="#000000" font-family="sans-serif" font-size="14" lengthAdjust="spacing" textLength="100" x="5" y="84.9951">Administrator</text><ellipse cx="58" cy="15" fill="#FEFECE" filter="url(#ftrtxfkstnmux)" rx="8" ry="8" style="stroke:#A80036;stroke-width:2.0;"/><path d="M58,23 L58,50 M45,31 L71,31 M58,50 L45,65 M58,50 L71,65 " fill="none" filter="url(#ftrtxfkstnmux)" style="stroke:#A80036;stroke-width:2.0;"/><text fill="#000000" font-family="sans-serif" font-size="14" lengthAdjust="spacing" textLength="100" x="5" y="1050.8857">Administrator</text><ellipse cx="58" cy="1064.1875" fill="#FEFECE" filter="url(#ftrtxfkstnmux)" rx="8" ry="8" style="stroke:#A80036;stroke-width:2.0;"/><path d="M58,1072.1875 L58,1099.1875 M45,1080.1875 L71,1080.1875 M58,1099.1875 L45,1114.1875 M58,1099.1875 L71,1114.1875 " fill="none" filter="url(#ftrtxfkstnmux)" style="stroke:#A80036;stroke-width:2.0;"/><rect fill="#FEFECE" filter="url(#ftrtxfkstnmux)" height="30.2969" style="stroke:#A80036;stroke-width:1.5;" width="132" x="711" y="53"/><text fill="#000000" font-family="sans-serif" font-size="14" lengthAdjust="spacing" textLength="118" x="718" y="72.9951">:ManualReportUI</text><rect fill="#FEFECE" filter="url(#ftrtxfkstnmux)" height="30.2969" style="stroke:#A80036;stroke-width:1.5;" width="132" x="711" y="1037.8906"/><text fill="#000000" font-family="sans-serif" font-size="14" lengthAdjust="spacing" textLength="118" x="718" y="1057.8857">:ManualReportUI</text><rect fill="#FEFECE" filter="url(#ftrtxfkstnmux)" height="30.2969" style="stroke:#A80036;stroke-width:1.5;" width="192" x="1008" y="53"/><text fill="#000000" font-family="sans-serif" font-size="14" lengthAdjust="spacing" textLength="178" x="1015" y="72.9951">:ManualReportController</text><rect fill="#FEFECE" filter="url(#ftrtxfkstnmux)" height="30.2969" style="stroke:#A80036;stroke-width:1.5;" width="192" x="1008" y="1037.8906"/><text fill="#000000" font-family="sans-serif" font-size="14" lengthAdjust="spacing" textLength="178" x="1015" y="1057.8857">:ManualReportController</text><rect fill="#FEFECE" filter="url(#ftrtxfkstnmux)" height="30.2969" style="stroke:#A80036;stroke-width:1.5;" width="87" x="1289.5" y="53"/><text fill="#000000" font-family="sans-serif" font-size="14" lengthAdjust="spacing" textLength="73" x="1296.5" y="72.9951">:Company</text><rect fill="#FEFECE" filter="url(#ftrtxfkstnmux)" height="30.2969" style="stroke:#A80036;stroke-width:1.5;" width="87" x="1289.5" y="1037.8906"/><text fill="#000000" font-family="sans-serif" font-size="14" lengthAdjust="spacing" textLength="73" x="1296.5" y="1057.8857">:Company</text><rect fill="#FEFECE" filter="url(#ftrtxfkstnmux)" height="30.2969" style="stroke:#A80036;stroke-width:1.5;" width="176" x="1390.5" y="53"/><text fill="#000000" font-family="sans-serif" font-size="14" lengthAdjust="spacing" textLength="162" x="1397.5" y="72.9951">store:RegressionStore</text><rect fill="#FEFECE" filter="url(#ftrtxfkstnmux)" height="30.2969" style="stroke:#A80036;stroke-width:1.5;" width="176" x="1390.5" y="1037.8906"/><text fill="#000000" font-family="sans-serif" font-size="14" lengthAdjust="spacing" textLength="162" x="1397.5" y="1057.8857">store:RegressionStore</text><rect fill="#FEFECE" filter="url(#ftrtxfkstnmux)" height="30.2969" style="stroke:#A80036;stroke-width:1.5;" width="113" x="1580.5" y="53"/><text fill="#000000" font-family="sans-serif" font-size="14" lengthAdjust="spacing" textLength="99" x="1587.5" y="72.9951">re:Regression</text><rect fill="#FEFECE" filter="url(#ftrtxfkstnmux)" height="30.2969" style="stroke:#A80036;stroke-width:1.5;" width="113" x="1580.5" y="1037.8906"/><text fill="#000000" font-family="sans-serif" font-size="14" lengthAdjust="spacing" textLength="99" x="1587.5" y="1057.8857">re:Regression</text><rect fill="#FFFFFF" filter="url(#ftrtxfkstnmux)" height="922.5938" style="stroke:#A80036;stroke-width:1.0;" width="10" x="53" y="98.2969"/><rect fill="#FFFFFF" filter="url(#ftrtxfkstnmux)" height="29.1328" style="stroke:#A80036;stroke-width:1.0;" width="10" x="774" y="119.4297"/><rect fill="#FFFFFF" filter="url(#ftrtxfkstnmux)" height="176.5313" style="stroke:#A80036;stroke-width:1.0;" width="10" x="774" y="177.6953"/><rect fill="#FFFFFF" filter="url(#ftrtxfkstnmux)" height="372.2031" style="stroke:#A80036;stroke-width:1.0;" width="10" x="774" y="383.3594"/><rect fill="#FFFFFF" filter="url(#ftrtxfkstnmux)" height="236.1953" style="stroke:#A80036;stroke-width:1.0;" width="10" x="774" y="784.6953"/><rect fill="#FFFFFF" filter="url(#ftrtxfkstnmux)" height="118.2656" style="stroke:#A80036;stroke-width:1.0;" width="10" x="1101" y="206.8281"/><rect fill="#FFFFFF" filter="url(#ftrtxfkstnmux)" height="74.3984" style="stroke:#A80036;stroke-width:1.0;" width="10" x="1101" y="436.625"/><rect fill="#FFFFFF" filter="url(#ftrtxfkstnmux)" height="30" style="stroke:#A80036;stroke-width:1.0;" width="10" x="1101" y="554.9609"/><rect fill="#FFFFFF" filter="url(#ftrtxfkstnmux)" height="60.2656" style="stroke:#A80036;stroke-width:1.0;" width="10" x="1101" y="674.1641"/><rect fill="#FFFFFF" filter="url(#ftrtxfkstnmux)" height="74.3984" style="stroke:#A80036;stroke-width:1.0;" width="10" x="1101" y="813.8281"/><rect fill="#FFFFFF" filter="url(#ftrtxfkstnmux)" height="74.3984" style="stroke:#A80036;stroke-width:1.0;" width="10" x="1101" y="917.3594"/><rect fill="#FFFFFF" filter="url(#ftrtxfkstnmux)" height="30" style="stroke:#A80036;stroke-width:1.0;" width="10" x="1330" y="235.9609"/><rect fill="#FFFFFF" filter="url(#ftrtxfkstnmux)" height="30" style="stroke:#A80036;stroke-width:1.0;" width="10" x="1475.5" y="295.0938"/><polygon fill="#A80036" points="762,115.4297,772,119.4297,762,123.4297,766,119.4297" style="stroke:#A80036;stroke-width:1.0;"/><line style="stroke:#A80036;stroke-width:1.0;" x1="63" x2="768" y1="119.4297" y2="119.4297"/><text fill="#000000" font-family="sans-serif" font-size="13" font-weight="bold" lengthAdjust="spacing" textLength="9" x="70" y="114.3638">1</text><text fill="#000000" font-family="sans-serif" font-size="13" lengthAdjust="spacing" textLength="164" x="83" y="114.3638">Starts sending the Report</text><polygon fill="#A80036" points="74,144.5625,64,148.5625,74,152.5625,70,148.5625" style="stroke:#A80036;stroke-width:1.0;"/><line style="stroke:#A80036;stroke-width:1.0;stroke-dasharray:2.0,2.0;" x1="68" x2="778" y1="148.5625" y2="148.5625"/><text fill="#000000" font-family="sans-serif" font-size="13" font-weight="bold" lengthAdjust="spacing" textLength="9" x="80" y="143.4966">2</text><text fill="#000000" font-family="sans-serif" font-size="13" lengthAdjust="spacing" textLength="218" x="93" y="143.4966">Request data(intervals,dHistoricP)</text><polygon fill="#A80036" points="762,173.6953,772,177.6953,762,181.6953,766,177.6953" style="stroke:#A80036;stroke-width:1.0;"/><line style="stroke:#A80036;stroke-width:1.0;" x1="63" x2="768" y1="177.6953" y2="177.6953"/><text fill="#000000" font-family="sans-serif" font-size="13" font-weight="bold" lengthAdjust="spacing" textLength="8" x="70" y="172.6294">3</text><text fill="#000000" font-family="sans-serif" font-size="13" lengthAdjust="spacing" textLength="97" x="82" y="172.6294">Types the data</text><polygon fill="#A80036" points="1089,202.8281,1099,206.8281,1089,210.8281,1093,206.8281" style="stroke:#A80036;stroke-width:1.0;"/><line style="stroke:#A80036;stroke-width:1.0;" x1="784" x2="1095" y1="206.8281" y2="206.8281"/><text fill="#000000" font-family="sans-serif" font-size="13" font-weight="bold" lengthAdjust="spacing" textLength="9" x="791" y="201.7622">4</text><text fill="#000000" font-family="sans-serif" font-size="13" lengthAdjust="spacing" textLength="99" x="804" y="201.7622">listAl = getAlg()</text><polygon fill="#A80036" points="1318,231.9609,1328,235.9609,1318,239.9609,1322,235.9609" style="stroke:#A80036;stroke-width:1.0;"/><line style="stroke:#A80036;stroke-width:1.0;" x1="1111" x2="1324" y1="235.9609" y2="235.9609"/><text fill="#000000" font-family="sans-serif" font-size="13" font-weight="bold" lengthAdjust="spacing" textLength="9" x="1118" y="230.895">5</text><text fill="#000000" font-family="sans-serif" font-size="13" lengthAdjust="spacing" textLength="187" x="1131" y="230.895">store = getRegressionStore()</text><polygon fill="#A80036" points="1463.5,291.0938,1473.5,295.0938,1463.5,299.0938,1467.5,295.0938" style="stroke:#A80036;stroke-width:1.0;"/><line style="stroke:#A80036;stroke-width:1.0;" x1="1111" x2="1469.5" y1="295.0938" y2="295.0938"/><text fill="#000000" font-family="sans-serif" font-size="13" font-weight="bold" lengthAdjust="spacing" textLength="9" x="1118" y="290.0278">6</text><text fill="#000000" font-family="sans-serif" font-size="13" lengthAdjust="spacing" textLength="106" x="1131" y="290.0278">listAl = getAlist()</text><polygon fill="#A80036" points="74,350.2266,64,354.2266,74,358.2266,70,354.2266" style="stroke:#A80036;stroke-width:1.0;"/><line style="stroke:#A80036;stroke-width:1.0;stroke-dasharray:2.0,2.0;" x1="68" x2="778" y1="354.2266" y2="354.2266"/><text fill="#000000" font-family="sans-serif" font-size="13" font-weight="bold" lengthAdjust="spacing" textLength="9" x="80" y="349.1606">7</text><text fill="#000000" font-family="sans-serif" font-size="13" lengthAdjust="spacing" textLength="209" x="93" y="349.1606">asks to choose 1 of 2 algorithms</text><polygon fill="#A80036" points="762,379.3594,772,383.3594,762,387.3594,766,383.3594" style="stroke:#A80036;stroke-width:1.0;"/><line style="stroke:#A80036;stroke-width:1.0;" x1="63" x2="768" y1="383.3594" y2="383.3594"/><text fill="#000000" font-family="sans-serif" font-size="13" font-weight="bold" lengthAdjust="spacing" textLength="9" x="70" y="378.2935">8</text><text fill="#000000" font-family="sans-serif" font-size="13" lengthAdjust="spacing" textLength="679" x="83" y="378.2935">Selects 1 algorithm and an integer(number) to choose the variables(0-multi,1-linear(total),2-linear(mean))</text><path d="M701,398.3594 L767,398.3594 L767,405.3594 L757,415.3594 L701,415.3594 L701,398.3594 " fill="#EEEEEE" style="stroke:#000000;stroke-width:1.0;"/><rect fill="none" height="329.0703" style="stroke:#000000;stroke-width:2.0;" width="513" x="701" y="398.3594"/><text fill="#000000" font-family="sans-serif" font-size="13" font-weight="bold" lengthAdjust="spacing" textLength="21" x="716" y="411.4263">alt</text><text fill="#000000" font-family="sans-serif" font-size="11" font-weight="bold" lengthAdjust="spacing" textLength="218" x="782" y="410.5698">[selected Multi &amp;&amp; number == 0]</text><polygon fill="#A80036" points="1089,432.625,1099,436.625,1089,440.625,1093,436.625" style="stroke:#A80036;stroke-width:1.0;"/><line style="stroke:#A80036;stroke-width:1.0;" x1="784" x2="1095" y1="436.625" y2="436.625"/><text fill="#000000" font-family="sans-serif" font-size="13" font-weight="bold" lengthAdjust="spacing" textLength="9" x="791" y="431.5591">9</text><text fill="#000000" font-family="sans-serif" font-size="13" lengthAdjust="spacing" textLength="78" x="804" y="431.5591">re= create()</text><rect fill="#FFFFFF" filter="url(#ftrtxfkstnmux)" height="40.2656" style="stroke:#000000;stroke-width:2.0;" width="198" x="1005" y="444.625"/><polygon fill="#EEEEEE" points="1005,444.625,1073,444.625,1073,451.625,1063,461.625,1005,461.625,1005,444.625" style="stroke:#000000;stroke-width:2.0;"/><text fill="#000000" font-family="sans-serif" font-size="13" font-weight="bold" lengthAdjust="spacing" textLength="23" x="1018" y="458.6919">ref</text><text fill="#000000" font-family="sans-serif" font-size="13" lengthAdjust="spacing" textLength="62" x="1075" y="477.6919">SD_MULTI</text><polygon fill="#A80036" points="795,507.0234,785,511.0234,795,515.0234,791,511.0234" style="stroke:#A80036;stroke-width:1.0;"/><line style="stroke:#A80036;stroke-width:1.0;stroke-dasharray:2.0,2.0;" x1="789" x2="1105" y1="511.0234" y2="511.0234"/><text fill="#000000" font-family="sans-serif" font-size="13" font-weight="bold" lengthAdjust="spacing" textLength="19" x="801" y="505.9575">10</text><text fill="#000000" font-family="sans-serif" font-size="13" lengthAdjust="spacing" textLength="0" x="828" y="505.9575"/><line style="stroke:#000000;stroke-width:1.0;stroke-dasharray:2.0,2.0;" x1="701" x2="1214" y1="520.0234" y2="520.0234"/><text fill="#000000" font-family="sans-serif" font-size="11" font-weight="bold" lengthAdjust="spacing" textLength="224" x="706" y="530.2339">[selected Linear &amp;&amp; number == 1]</text><polygon fill="#A80036" points="1089,550.9609,1099,554.9609,1089,558.9609,1093,554.9609" style="stroke:#A80036;stroke-width:1.0;"/><line style="stroke:#A80036;stroke-width:1.0;" x1="784" x2="1095" y1="554.9609" y2="554.9609"/><text fill="#000000" font-family="sans-serif" font-size="13" font-weight="bold" lengthAdjust="spacing" textLength="18" x="791" y="549.895">11</text><text fill="#000000" font-family="sans-serif" font-size="13" lengthAdjust="spacing" textLength="82" x="813" y="549.895">re=create1()</text><rect fill="#FFFFFF" filter="url(#ftrtxfkstnmux)" height="40.2656" style="stroke:#000000;stroke-width:2.0;" width="198" x="1005" y="592.9609"/><polygon fill="#EEEEEE" points="1005,592.9609,1073,592.9609,1073,599.9609,1063,609.9609,1005,609.9609,1005,592.9609" style="stroke:#000000;stroke-width:2.0;"/><text fill="#000000" font-family="sans-serif" font-size="13" font-weight="bold" lengthAdjust="spacing" textLength="23" x="1018" y="607.0278">ref</text><text fill="#000000" font-family="sans-serif" font-size="13" lengthAdjust="spacing" textLength="78" x="1067" y="626.0278">SD_LINEAR1</text><line style="stroke:#000000;stroke-width:1.0;stroke-dasharray:2.0,2.0;" x1="701" x2="1214" y1="639.2266" y2="639.2266"/><text fill="#000000" font-family="sans-serif" font-size="11" font-weight="bold" lengthAdjust="spacing" textLength="217" x="706" y="649.437">[seleted Linear &amp;&amp; number == 2]</text><polygon fill="#A80036" points="1089,670.1641,1099,674.1641,1089,678.1641,1093,674.1641" style="stroke:#A80036;stroke-width:1.0;"/><line style="stroke:#A80036;stroke-width:1.0;" x1="784" x2="1095" y1="674.1641" y2="674.1641"/><text fill="#000000" font-family="sans-serif" font-size="13" font-weight="bold" lengthAdjust="spacing" textLength="18" x="791" y="669.0981">12</text><text fill="#000000" font-family="sans-serif" font-size="13" lengthAdjust="spacing" textLength="86" x="813" y="669.0981">re =create2()</text><rect fill="#FFFFFF" filter="url(#ftrtxfkstnmux)" height="40.2656" style="stroke:#000000;stroke-width:2.0;" width="198" x="1005" y="682.1641"/><polygon fill="#EEEEEE" points="1005,682.1641,1073,682.1641,1073,689.1641,1063,699.1641,1005,699.1641,1005,682.1641" style="stroke:#000000;stroke-width:2.0;"/><text fill="#000000" font-family="sans-serif" font-size="13" font-weight="bold" lengthAdjust="spacing" textLength="23" x="1018" y="696.231">ref</text><text fill="#000000" font-family="sans-serif" font-size="13" lengthAdjust="spacing" textLength="78" x="1067" y="715.231">SD_LINEAR2</text><polygon fill="#A80036" points="74,751.5625,64,755.5625,74,759.5625,70,755.5625" style="stroke:#A80036;stroke-width:1.0;"/><line style="stroke:#A80036;stroke-width:1.0;" x1="68" x2="778" y1="755.5625" y2="755.5625"/><text fill="#000000" font-family="sans-serif" font-size="13" font-weight="bold" lengthAdjust="spacing" textLength="17" x="80" y="750.4966">13</text><text fill="#000000" font-family="sans-serif" font-size="13" lengthAdjust="spacing" textLength="253" x="101" y="750.4966">shows the algorithm with the variable/s</text><polygon fill="#A80036" points="762,780.6953,772,784.6953,762,788.6953,766,784.6953" style="stroke:#A80036;stroke-width:1.0;"/><line style="stroke:#A80036;stroke-width:1.0;" x1="63" x2="768" y1="784.6953" y2="784.6953"/><text fill="#000000" font-family="sans-serif" font-size="13" font-weight="bold" lengthAdjust="spacing" textLength="18" x="70" y="779.6294">14</text><text fill="#000000" font-family="sans-serif" font-size="13" lengthAdjust="spacing" textLength="230" x="92" y="779.6294">Creates Report and  sends it to NHS</text><polygon fill="#A80036" points="1089,809.8281,1099,813.8281,1089,817.8281,1093,813.8281" style="stroke:#A80036;stroke-width:1.0;"/><line style="stroke:#A80036;stroke-width:1.0;" x1="784" x2="1095" y1="813.8281" y2="813.8281"/><text fill="#000000" font-family="sans-serif" font-size="13" font-weight="bold" lengthAdjust="spacing" textLength="18" x="791" y="808.7622">15</text><text fill="#000000" font-family="sans-serif" font-size="13" lengthAdjust="spacing" textLength="276" x="813" y="808.7622">report = showReport(interval,dHistoricP,re)</text><rect fill="#FFFFFF" filter="url(#ftrtxfkstnmux)" height="40.2656" style="stroke:#000000;stroke-width:2.0;" width="198" x="1005" y="821.8281"/><polygon fill="#EEEEEE" points="1005,821.8281,1073,821.8281,1073,828.8281,1063,838.8281,1005,838.8281,1005,821.8281" style="stroke:#000000;stroke-width:2.0;"/><text fill="#000000" font-family="sans-serif" font-size="13" font-weight="bold" lengthAdjust="spacing" textLength="23" x="1018" y="835.895">ref</text><text fill="#000000" font-family="sans-serif" font-size="13" lengthAdjust="spacing" textLength="128" x="1042" y="854.895">SD_CREATEREPORT</text><polygon fill="#A80036" points="795,884.2266,785,888.2266,795,892.2266,791,888.2266" style="stroke:#A80036;stroke-width:1.0;"/><line style="stroke:#A80036;stroke-width:1.0;" x1="789" x2="1105" y1="888.2266" y2="888.2266"/><text fill="#000000" font-family="sans-serif" font-size="13" font-weight="bold" lengthAdjust="spacing" textLength="18" x="801" y="883.1606">16</text><text fill="#000000" font-family="sans-serif" font-size="13" lengthAdjust="spacing" textLength="0" x="827" y="883.1606"/><polygon fill="#A80036" points="1089,913.3594,1099,917.3594,1089,921.3594,1093,917.3594" style="stroke:#A80036;stroke-width:1.0;"/><line style="stroke:#A80036;stroke-width:1.0;" x1="784" x2="1095" y1="917.3594" y2="917.3594"/><text fill="#000000" font-family="sans-serif" font-size="13" font-weight="bold" lengthAdjust="spacing" textLength="18" x="791" y="912.2935">17</text><text fill="#000000" font-family="sans-serif" font-size="13" lengthAdjust="spacing" textLength="80" x="813" y="912.2935">send(report)</text><rect fill="#FFFFFF" filter="url(#ftrtxfkstnmux)" height="40.2656" style="stroke:#000000;stroke-width:2.0;" width="198" x="1005" y="925.3594"/><polygon fill="#EEEEEE" points="1005,925.3594,1073,925.3594,1073,932.3594,1063,942.3594,1005,942.3594,1005,925.3594" style="stroke:#000000;stroke-width:2.0;"/><text fill="#000000" font-family="sans-serif" font-size="13" font-weight="bold" lengthAdjust="spacing" textLength="23" x="1018" y="939.4263">ref</text><text fill="#000000" font-family="sans-serif" font-size="13" lengthAdjust="spacing" textLength="60" x="1076" y="958.4263">SD_SEND</text><polygon fill="#A80036" points="795,987.7578,785,991.7578,795,995.7578,791,991.7578" style="stroke:#A80036;stroke-width:1.0;"/><line style="stroke:#A80036;stroke-width:1.0;stroke-dasharray:2.0,2.0;" x1="789" x2="1105" y1="991.7578" y2="991.7578"/><text fill="#000000" font-family="sans-serif" font-size="13" font-weight="bold" lengthAdjust="spacing" textLength="18" x="801" y="986.6919">18</text><text fill="#000000" font-family="sans-serif" font-size="13" lengthAdjust="spacing" textLength="0" x="827" y="986.6919"/><polygon fill="#A80036" points="69,1016.8906,59,1020.8906,69,1024.8906,65,1020.8906" style="stroke:#A80036;stroke-width:1.0;"/><line style="stroke:#A80036;stroke-width:1.0;" x1="63" x2="778" y1="1020.8906" y2="1020.8906"/><text fill="#000000" font-family="sans-serif" font-size="13" font-weight="bold" lengthAdjust="spacing" textLength="18" x="75" y="1015.8247">19</text><text fill="#000000" font-family="sans-serif" font-size="13" lengthAdjust="spacing" textLength="211" x="97" y="1015.8247">Informs success of the operation</text><!--MD5=[5ba853095056150fe77a2ef2e03b5955]
@startuml
autonumber

'hide footbox
actor "Administrator" as ADM

participant ":ManualReportUI" as UI
participant ":ManualReportController" as CTRL
participant ":Company" as C


participant "store:RegressionStore" as SS
participant "re:Regression" as RE


activate ADM
ADM -> UI : Starts sending the Report
activate UI

UI - -> ADM : Request data(intervals,dHistoricP)
deactivate UI
ADM -> UI : Types the data 
activate UI 

UI -> CTRL : listAl = getAlg()
activate CTRL
CTRL -> C : store = getRegressionStore()
activate C
deactivate C

CTRL -> SS : listAl = getAlist()
activate SS
deactivate SS




deactivate CTRL 






UI - -> ADM : asks to choose 1 of 2 algorithms


deactivate UI

ADM -> UI : Selects 1 algorithm and an integer(number) to choose the variables(0-multi,1-linear(total),2-linear(mean))
activate UI
alt selected Multi && number == 0
UI -> CTRL:re= create()
activate CTRL


ref over CTRL : SD_MULTI
CTRL - -> UI : 

deactivate CTRL 

else selected Linear && number == 1

UI -> CTRL : re=create1()
activate CTRL
ref over CTRL : SD_LINEAR1
deactivate CTRL


else seleted Linear && number == 2
UI -> CTRL : re =create2()
activate CTRL


ref over CTRL : SD_LINEAR2
 end
deactivate CTRL
UI -> ADM : shows the algorithm with the variable/s
deactivate UI

ADM-> UI:Creates Report and  sends it to NHS
activate UI

UI -> CTRL : report = showReport(interval,dHistoricP,re)
activate CTRL
ref over CTRL : SD_CREATEREPORT
CTRL -> UI : 
deactivate CTRL
UI -> CTRL : send(report)
activate CTRL
ref over CTRL : SD_SEND
CTRL - -> UI :
deactivate CTRL

UI -> ADM: Informs success of the operation
deactivate UI
deactivate ADM
@enduml

@startuml
autonumber

actor "Administrator" as ADM

participant ":ManualReportUI" as UI
participant ":ManualReportController" as CTRL
participant ":Company" as C


participant "store:RegressionStore" as SS
participant "re:Regression" as RE


activate ADM
ADM -> UI : Starts sending the Report
activate UI

UI - -> ADM : Request data(intervals,dHistoricP)
deactivate UI
ADM -> UI : Types the data 
activate UI 

UI -> CTRL : listAl = getAlg()
activate CTRL
CTRL -> C : store = getRegressionStore()
activate C
deactivate C

CTRL -> SS : listAl = getAlist()
activate SS
deactivate SS




deactivate CTRL 






UI - -> ADM : asks to choose 1 of 2 algorithms


deactivate UI

ADM -> UI : Selects 1 algorithm and an integer(number) to choose the variables(0-multi,1-linear(total),2-linear(mean))
activate UI
alt selected Multi && number == 0
UI -> CTRL:re= create()
activate CTRL


ref over CTRL : SD_MULTI
CTRL - -> UI : 

deactivate CTRL 

else selected Linear && number == 1

UI -> CTRL : re=create1()
activate CTRL
ref over CTRL : SD_LINEAR1
deactivate CTRL


else seleted Linear && number == 2
UI -> CTRL : re =create2()
activate CTRL


ref over CTRL : SD_LINEAR2
 end
deactivate CTRL
UI -> ADM : shows the algorithm with the variable/s
deactivate UI

ADM-> UI:Creates Report and  sends it to NHS
activate UI

UI -> CTRL : report = showReport(interval,dHistoricP,re)
activate CTRL
ref over CTRL : SD_CREATEREPORT
CTRL -> UI : 
deactivate CTRL
UI -> CTRL : send(report)
activate CTRL
ref over CTRL : SD_SEND
CTRL - -> UI :
deactivate CTRL

UI -> ADM: Informs success of the operation
deactivate UI
deactivate ADM
@enduml

PlantUML version 1.2021.7(Sun May 23 12:40:07 UTC 2021)
(GPL source distribution)
Java Runtime: Java(TM) SE Runtime Environment
JVM: Java HotSpot(TM) 64-Bit Server VM
Default Encoding: UTF-8
Language: en
Country: US
--></g></svg>