<?xml version="1.0" encoding="UTF-8" standalone="no"?><svg xmlns="http://www.w3.org/2000/svg" xmlns:xlink="http://www.w3.org/1999/xlink" contentScriptType="application/ecmascript" contentStyleType="text/css" height="425px" preserveAspectRatio="none" style="width:567px;height:425px;background:#FFFFFF;" version="1.1" viewBox="0 0 567 425" width="567px" zoomAndPan="magnify"><defs><filter height="300%" id="f1xmph2rwacnww" width="300%" x="-1" y="-1"><feGaussianBlur result="blurOut" stdDeviation="2.0"/><feColorMatrix in="blurOut" result="blurOut2" type="matrix" values="0 0 0 0 0 0 0 0 0 0 0 0 0 0 0 0 0 0 .4 0"/><feOffset dx="4.0" dy="4.0" in="blurOut2" result="blurOut3"/><feBlend in="SourceGraphic" in2="blurOut3" mode="normal"/></filter></defs><g><rect fill="#FFFFFF" filter="url(#f1xmph2rwacnww)" height="225.0625" style="stroke:#A80036;stroke-width:1.0;" width="10" x="53" y="98.2969"/><rect fill="#FFFFFF" filter="url(#f1xmph2rwacnww)" height="29.1328" style="stroke:#A80036;stroke-width:1.0;" width="10" x="514" y="119.4297"/><rect fill="#FFFFFF" filter="url(#f1xmph2rwacnww)" height="29.1328" style="stroke:#A80036;stroke-width:1.0;" width="10" x="514" y="177.6953"/><rect fill="#FFFFFF" filter="url(#f1xmph2rwacnww)" height="29.1328" style="stroke:#A80036;stroke-width:1.0;" width="10" x="514" y="235.9609"/><rect fill="#FFFFFF" filter="url(#f1xmph2rwacnww)" height="29.1328" style="stroke:#A80036;stroke-width:1.0;" width="10" x="514" y="294.2266"/><line style="stroke:#A80036;stroke-width:1.0;stroke-dasharray:5.0,5.0;" x1="58" x2="58" y1="88.2969" y2="341.3594"/><line style="stroke:#A80036;stroke-width:1.0;stroke-dasharray:5.0,5.0;" x1="518.5" x2="518.5" y1="88.2969" y2="341.3594"/><text fill="#000000" font-family="sans-serif" font-size="14" lengthAdjust="spacing" textLength="100" x="5" y="84.9951">Administrator</text><ellipse cx="58" cy="15" fill="#FEFECE" filter="url(#f1xmph2rwacnww)" rx="8" ry="8" style="stroke:#A80036;stroke-width:2.0;"/><path d="M58,23 L58,50 M45,31 L71,31 M58,50 L45,65 M58,50 L71,65 " fill="none" filter="url(#f1xmph2rwacnww)" style="stroke:#A80036;stroke-width:2.0;"/><text fill="#000000" font-family="sans-serif" font-size="14" lengthAdjust="spacing" textLength="100" x="5" y="353.3545">Administrator</text><ellipse cx="58" cy="366.6563" fill="#FEFECE" filter="url(#f1xmph2rwacnww)" rx="8" ry="8" style="stroke:#A80036;stroke-width:2.0;"/><path d="M58,374.6563 L58,401.6563 M45,382.6563 L71,382.6563 M58,401.6563 L45,416.6563 M58,401.6563 L71,416.6563 " fill="none" filter="url(#f1xmph2rwacnww)" style="stroke:#A80036;stroke-width:2.0;"/><rect fill="#FEFECE" filter="url(#f1xmph2rwacnww)" height="30.2969" style="stroke:#A80036;stroke-width:1.5;" width="73" x="480.5" y="53"/><text fill="#000000" font-family="sans-serif" font-size="14" lengthAdjust="spacing" textLength="59" x="487.5" y="72.9951">:System</text><rect fill="#FEFECE" filter="url(#f1xmph2rwacnww)" height="30.2969" style="stroke:#A80036;stroke-width:1.5;" width="73" x="480.5" y="340.3594"/><text fill="#000000" font-family="sans-serif" font-size="14" lengthAdjust="spacing" textLength="59" x="487.5" y="360.3545">:System</text><rect fill="#FFFFFF" filter="url(#f1xmph2rwacnww)" height="225.0625" style="stroke:#A80036;stroke-width:1.0;" width="10" x="53" y="98.2969"/><rect fill="#FFFFFF" filter="url(#f1xmph2rwacnww)" height="29.1328" style="stroke:#A80036;stroke-width:1.0;" width="10" x="514" y="119.4297"/><rect fill="#FFFFFF" filter="url(#f1xmph2rwacnww)" height="29.1328" style="stroke:#A80036;stroke-width:1.0;" width="10" x="514" y="177.6953"/><rect fill="#FFFFFF" filter="url(#f1xmph2rwacnww)" height="29.1328" style="stroke:#A80036;stroke-width:1.0;" width="10" x="514" y="235.9609"/><rect fill="#FFFFFF" filter="url(#f1xmph2rwacnww)" height="29.1328" style="stroke:#A80036;stroke-width:1.0;" width="10" x="514" y="294.2266"/><polygon fill="#A80036" points="502,115.4297,512,119.4297,502,123.4297,506,119.4297" style="stroke:#A80036;stroke-width:1.0;"/><line style="stroke:#A80036;stroke-width:1.0;" x1="63" x2="508" y1="119.4297" y2="119.4297"/><text fill="#000000" font-family="sans-serif" font-size="13" font-weight="bold" lengthAdjust="spacing" textLength="9" x="70" y="114.3638">1</text><text fill="#000000" font-family="sans-serif" font-size="13" lengthAdjust="spacing" textLength="226" x="83" y="114.3638">Starts sending Covid Report to NHS</text><polygon fill="#A80036" points="74,144.5625,64,148.5625,74,152.5625,70,148.5625" style="stroke:#A80036;stroke-width:1.0;"/><line style="stroke:#A80036;stroke-width:1.0;stroke-dasharray:2.0,2.0;" x1="68" x2="518" y1="148.5625" y2="148.5625"/><text fill="#000000" font-family="sans-serif" font-size="13" font-weight="bold" lengthAdjust="spacing" textLength="9" x="80" y="143.4966">2</text><text fill="#000000" font-family="sans-serif" font-size="13" lengthAdjust="spacing" textLength="214" x="93" y="143.4966">request data(intervals,dHistoricP)</text><polygon fill="#A80036" points="502,173.6953,512,177.6953,502,181.6953,506,177.6953" style="stroke:#A80036;stroke-width:1.0;"/><line style="stroke:#A80036;stroke-width:1.0;" x1="63" x2="508" y1="177.6953" y2="177.6953"/><text fill="#000000" font-family="sans-serif" font-size="13" font-weight="bold" lengthAdjust="spacing" textLength="8" x="70" y="172.6294">3</text><text fill="#000000" font-family="sans-serif" font-size="13" lengthAdjust="spacing" textLength="166" x="82" y="172.6294">Types the requested data</text><polygon fill="#A80036" points="74,202.8281,64,206.8281,74,210.8281,70,206.8281" style="stroke:#A80036;stroke-width:1.0;"/><line style="stroke:#A80036;stroke-width:1.0;stroke-dasharray:2.0,2.0;" x1="68" x2="518" y1="206.8281" y2="206.8281"/><text fill="#000000" font-family="sans-serif" font-size="13" font-weight="bold" lengthAdjust="spacing" textLength="9" x="80" y="201.7622">4</text><text fill="#000000" font-family="sans-serif" font-size="13" lengthAdjust="spacing" textLength="210" x="93" y="201.7622">Asks to choose 1 of 2 algorithms</text><polygon fill="#A80036" points="502,231.9609,512,235.9609,502,239.9609,506,235.9609" style="stroke:#A80036;stroke-width:1.0;"/><line style="stroke:#A80036;stroke-width:1.0;" x1="63" x2="508" y1="235.9609" y2="235.9609"/><text fill="#000000" font-family="sans-serif" font-size="13" font-weight="bold" lengthAdjust="spacing" textLength="9" x="70" y="230.895">5</text><text fill="#000000" font-family="sans-serif" font-size="13" lengthAdjust="spacing" textLength="122" x="83" y="230.895">selects 1 algorithm</text><polygon fill="#A80036" points="74,261.0938,64,265.0938,74,269.0938,70,265.0938" style="stroke:#A80036;stroke-width:1.0;"/><line style="stroke:#A80036;stroke-width:1.0;stroke-dasharray:2.0,2.0;" x1="68" x2="518" y1="265.0938" y2="265.0938"/><text fill="#000000" font-family="sans-serif" font-size="13" font-weight="bold" lengthAdjust="spacing" textLength="9" x="80" y="260.0278">6</text><text fill="#000000" font-family="sans-serif" font-size="13" lengthAdjust="spacing" textLength="223" x="93" y="260.0278">Shows the Report with all the Data</text><polygon fill="#A80036" points="502,290.2266,512,294.2266,502,298.2266,506,294.2266" style="stroke:#A80036;stroke-width:1.0;"/><line style="stroke:#A80036;stroke-width:1.0;" x1="63" x2="508" y1="294.2266" y2="294.2266"/><text fill="#000000" font-family="sans-serif" font-size="13" font-weight="bold" lengthAdjust="spacing" textLength="9" x="70" y="289.1606">7</text><text fill="#000000" font-family="sans-serif" font-size="13" lengthAdjust="spacing" textLength="86" x="83" y="289.1606">Sends Report</text><polygon fill="#A80036" points="69,319.3594,59,323.3594,69,327.3594,65,323.3594" style="stroke:#A80036;stroke-width:1.0;"/><line style="stroke:#A80036;stroke-width:1.0;stroke-dasharray:2.0,2.0;" x1="63" x2="518" y1="323.3594" y2="323.3594"/><text fill="#000000" font-family="sans-serif" font-size="13" font-weight="bold" lengthAdjust="spacing" textLength="9" x="75" y="318.2935">8</text><text fill="#000000" font-family="sans-serif" font-size="13" lengthAdjust="spacing" textLength="414" x="88" y="318.2935">Sends report to NHS and shows the the success of the operation</text><!--MD5=[d08697c1e22b42a654160b48d9a15c8c]
@startuml
autonumber
actor "Administrator" as AD

activate AD
AD -> ":System" : Starts sending Covid Report to NHS
activate ":System"
":System" - -> AD : request data(intervals,dHistoricP)
deactivate ":System"

AD -> ":System" : Types the requested data
activate ":System"
":System" - -> AD : Asks to choose 1 of 2 algorithms
deactivate ":System"

AD-> ":System": selects 1 algorithm
activate ":System"
":System" - -> AD: Shows the Report with all the Data
deactivate ":System"

AD-> ":System":Sends Report
activate ":System"
":System" - -> AD: Sends report to NHS and shows the the success of the operation
deactivate ":System"


deactivate AD
@enduml

PlantUML version 1.2021.7(Sun May 23 12:40:07 UTC 2021)
(GPL source distribution)
Java Runtime: Java(TM) SE Runtime Environment
JVM: Java HotSpot(TM) 64-Bit Server VM
Default Encoding: UTF-8
Language: en
Country: US
--></g></svg>