<?xml version="1.0" encoding="UTF-8" standalone="no"?><svg xmlns="http://www.w3.org/2000/svg" xmlns:xlink="http://www.w3.org/1999/xlink" contentScriptType="application/ecmascript" contentStyleType="text/css" height="766px" preserveAspectRatio="none" style="width:1009px;height:766px;background:#FFFFFF;" version="1.1" viewBox="0 0 1009 766" width="1009px" zoomAndPan="magnify"><defs><filter height="300%" id="f1xi82wxpb02ew" width="300%" x="-1" y="-1"><feGaussianBlur result="blurOut" stdDeviation="2.0"/><feColorMatrix in="blurOut" result="blurOut2" type="matrix" values="0 0 0 0 0 0 0 0 0 0 0 0 0 0 0 0 0 0 .4 0"/><feOffset dx="4.0" dy="4.0" in="blurOut2" result="blurOut3"/><feBlend in="SourceGraphic" in2="blurOut3" mode="normal"/></filter></defs><g><!--MD5=[a583c7cf530fc8577a31eeb00d8f458c]
class ManualReportController--><rect codeLine="3" fill="#FEFECE" filter="url(#f1xi82wxpb02ew)" height="163.2422" id="ManualReportController" style="stroke:#A80036;stroke-width:1.5;" width="218" x="275.5" y="116"/><ellipse cx="311.2" cy="132" fill="#ADD1B2" rx="11" ry="11" style="stroke:#A80036;stroke-width:1.0;"/><path d="M313.5438,127.6719 C312.6063,127.2344 312.0125,127.0938 311.1375,127.0938 C308.5125,127.0938 306.5125,129.1719 306.5125,131.8906 L306.5125,133.0156 C306.5125,135.5938 308.6219,137.4844 311.5125,137.4844 C312.7313,137.4844 313.8875,137.1875 314.6375,136.6406 C315.2156,136.2344 315.5438,135.7813 315.5438,135.3906 C315.5438,134.9375 315.1531,134.5469 314.6844,134.5469 C314.4656,134.5469 314.2625,134.625 314.075,134.8125 C313.6219,135.2969 313.6219,135.2969 313.4344,135.3906 C313.0125,135.6563 312.325,135.7813 311.5594,135.7813 C309.5125,135.7813 308.2156,134.6875 308.2156,132.9844 L308.2156,131.8906 C308.2156,130.1094 309.4656,128.7969 311.2,128.7969 C311.7781,128.7969 312.3875,128.9531 312.8563,129.2031 C313.3406,129.4844 313.5125,129.7031 313.6063,130.1094 C313.6688,130.5156 313.7,130.6406 313.8406,130.7656 C313.9813,130.9063 314.2156,131.0156 314.4344,131.0156 C314.7,131.0156 314.9656,130.875 315.1375,130.6563 C315.2469,130.5 315.2781,130.3125 315.2781,129.8906 L315.2781,128.4688 C315.2781,128.0313 315.2625,127.9063 315.1688,127.75 C315.0125,127.4844 314.7313,127.3438 314.4344,127.3438 C314.1375,127.3438 313.9344,127.4375 313.7156,127.75 L313.5438,127.6719 Z " fill="#000000"/><text fill="#000000" font-family="sans-serif" font-size="12" lengthAdjust="spacing" textLength="140" x="329.8" y="136.1543">ManualReportController</text><line style="stroke:#A80036;stroke-width:1.5;" x1="276.5" x2="492.5" y1="148" y2="148"/><text fill="#000000" font-family="sans-serif" font-size="11" lengthAdjust="spacing" textLength="121" x="281.5" y="162.2104">-TestValideStore stor</text><text fill="#000000" font-family="sans-serif" font-size="11" lengthAdjust="spacing" textLength="114" x="281.5" y="175.0151">-Company company</text><text fill="#000000" font-family="sans-serif" font-size="11" lengthAdjust="spacing" textLength="51" x="281.5" y="187.8198">-Send sd</text><line style="stroke:#A80036;stroke-width:1.5;" x1="276.5" x2="492.5" y1="194.4141" y2="194.4141"/><text fill="#000000" font-family="sans-serif" font-size="11" lengthAdjust="spacing" textLength="54" x="281.5" y="208.6245">+getAlg()</text><text fill="#000000" font-family="sans-serif" font-size="11" lengthAdjust="spacing" textLength="54" x="281.5" y="221.4292">+create()</text><text fill="#000000" font-family="sans-serif" font-size="11" lengthAdjust="spacing" textLength="61" x="281.5" y="234.2339">+create2()</text><text fill="#000000" font-family="sans-serif" font-size="11" lengthAdjust="spacing" textLength="61" x="281.5" y="247.0386">+create3()</text><text fill="#000000" font-family="sans-serif" font-size="11" lengthAdjust="spacing" textLength="206" x="281.5" y="259.8433">+showReport(interval, dHistoricP, re)</text><text fill="#000000" font-family="sans-serif" font-size="11" lengthAdjust="spacing" textLength="82" x="281.5" y="272.6479">+send(Report)</text><!--MD5=[7959be8a4964ab776d209b8ff4687c0d]
class ManualReportUI--><rect codeLine="14" fill="#FEFECE" filter="url(#f1xi82wxpb02ew)" height="48" id="ManualReportUI" style="stroke:#A80036;stroke-width:1.5;" width="125" x="322" y="7"/><ellipse cx="337" cy="23" fill="#ADD1B2" rx="11" ry="11" style="stroke:#A80036;stroke-width:1.0;"/><path d="M339.3438,18.6719 C338.4063,18.2344 337.8125,18.0938 336.9375,18.0938 C334.3125,18.0938 332.3125,20.1719 332.3125,22.8906 L332.3125,24.0156 C332.3125,26.5938 334.4219,28.4844 337.3125,28.4844 C338.5313,28.4844 339.6875,28.1875 340.4375,27.6406 C341.0156,27.2344 341.3438,26.7813 341.3438,26.3906 C341.3438,25.9375 340.9531,25.5469 340.4844,25.5469 C340.2656,25.5469 340.0625,25.625 339.875,25.8125 C339.4219,26.2969 339.4219,26.2969 339.2344,26.3906 C338.8125,26.6563 338.125,26.7813 337.3594,26.7813 C335.3125,26.7813 334.0156,25.6875 334.0156,23.9844 L334.0156,22.8906 C334.0156,21.1094 335.2656,19.7969 337,19.7969 C337.5781,19.7969 338.1875,19.9531 338.6563,20.2031 C339.1406,20.4844 339.3125,20.7031 339.4063,21.1094 C339.4688,21.5156 339.5,21.6406 339.6406,21.7656 C339.7813,21.9063 340.0156,22.0156 340.2344,22.0156 C340.5,22.0156 340.7656,21.875 340.9375,21.6563 C341.0469,21.5 341.0781,21.3125 341.0781,20.8906 L341.0781,19.4688 C341.0781,19.0313 341.0625,18.9063 340.9688,18.75 C340.8125,18.4844 340.5313,18.3438 340.2344,18.3438 C339.9375,18.3438 339.7344,18.4375 339.5156,18.75 L339.3438,18.6719 Z " fill="#000000"/><text fill="#000000" font-family="sans-serif" font-size="12" lengthAdjust="spacing" textLength="93" x="351" y="27.1543">ManualReportUI</text><line style="stroke:#A80036;stroke-width:1.5;" x1="323" x2="446" y1="39" y2="39"/><line style="stroke:#A80036;stroke-width:1.5;" x1="323" x2="446" y1="47" y2="47"/><!--MD5=[df38be88ccee13e832d6fafd6288a4ca]
class Test--><rect codeLine="16" fill="#FEFECE" filter="url(#f1xi82wxpb02ew)" height="60.8047" id="Test" style="stroke:#A80036;stroke-width:1.5;" width="129" x="499" y="692"/><ellipse cx="546.25" cy="708" fill="#ADD1B2" rx="11" ry="11" style="stroke:#A80036;stroke-width:1.0;"/><path d="M548.5938,703.6719 C547.6563,703.2344 547.0625,703.0938 546.1875,703.0938 C543.5625,703.0938 541.5625,705.1719 541.5625,707.8906 L541.5625,709.0156 C541.5625,711.5938 543.6719,713.4844 546.5625,713.4844 C547.7813,713.4844 548.9375,713.1875 549.6875,712.6406 C550.2656,712.2344 550.5938,711.7813 550.5938,711.3906 C550.5938,710.9375 550.2031,710.5469 549.7344,710.5469 C549.5156,710.5469 549.3125,710.625 549.125,710.8125 C548.6719,711.2969 548.6719,711.2969 548.4844,711.3906 C548.0625,711.6563 547.375,711.7813 546.6094,711.7813 C544.5625,711.7813 543.2656,710.6875 543.2656,708.9844 L543.2656,707.8906 C543.2656,706.1094 544.5156,704.7969 546.25,704.7969 C546.8281,704.7969 547.4375,704.9531 547.9063,705.2031 C548.3906,705.4844 548.5625,705.7031 548.6563,706.1094 C548.7188,706.5156 548.75,706.6406 548.8906,706.7656 C549.0313,706.9063 549.2656,707.0156 549.4844,707.0156 C549.75,707.0156 550.0156,706.875 550.1875,706.6563 C550.2969,706.5 550.3281,706.3125 550.3281,705.8906 L550.3281,704.4688 C550.3281,704.0313 550.3125,703.9063 550.2188,703.75 C550.0625,703.4844 549.7813,703.3438 549.4844,703.3438 C549.1875,703.3438 548.9844,703.4375 548.7656,703.75 L548.5938,703.6719 Z " fill="#000000"/><text fill="#000000" font-family="sans-serif" font-size="12" lengthAdjust="spacing" textLength="26" x="566.75" y="712.1543">Test</text><line style="stroke:#A80036;stroke-width:1.5;" x1="500" x2="627" y1="724" y2="724"/><line style="stroke:#A80036;stroke-width:1.5;" x1="500" x2="627" y1="732" y2="732"/><text fill="#000000" font-family="sans-serif" font-size="11" lengthAdjust="spacing" textLength="117" x="505" y="746.2104">+getDateValidTest()</text><!--MD5=[fde5bf5e32ebd91aaa37566c2946746b]
class Report2NHS--><rect codeLine="19" fill="#FEFECE" filter="url(#f1xi82wxpb02ew)" height="60.8047" id="Report2NHS" style="stroke:#A80036;stroke-width:1.5;" width="165" x="7" y="535"/><ellipse cx="49" cy="551" fill="#ADD1B2" rx="11" ry="11" style="stroke:#A80036;stroke-width:1.0;"/><path d="M51.3438,546.6719 C50.4063,546.2344 49.8125,546.0938 48.9375,546.0938 C46.3125,546.0938 44.3125,548.1719 44.3125,550.8906 L44.3125,552.0156 C44.3125,554.5938 46.4219,556.4844 49.3125,556.4844 C50.5313,556.4844 51.6875,556.1875 52.4375,555.6406 C53.0156,555.2344 53.3438,554.7813 53.3438,554.3906 C53.3438,553.9375 52.9531,553.5469 52.4844,553.5469 C52.2656,553.5469 52.0625,553.625 51.875,553.8125 C51.4219,554.2969 51.4219,554.2969 51.2344,554.3906 C50.8125,554.6563 50.125,554.7813 49.3594,554.7813 C47.3125,554.7813 46.0156,553.6875 46.0156,551.9844 L46.0156,550.8906 C46.0156,549.1094 47.2656,547.7969 49,547.7969 C49.5781,547.7969 50.1875,547.9531 50.6563,548.2031 C51.1406,548.4844 51.3125,548.7031 51.4063,549.1094 C51.4688,549.5156 51.5,549.6406 51.6406,549.7656 C51.7813,549.9063 52.0156,550.0156 52.2344,550.0156 C52.5,550.0156 52.7656,549.875 52.9375,549.6563 C53.0469,549.5 53.0781,549.3125 53.0781,548.8906 L53.0781,547.4688 C53.0781,547.0313 53.0625,546.9063 52.9688,546.75 C52.8125,546.4844 52.5313,546.3438 52.2344,546.3438 C51.9375,546.3438 51.7344,546.4375 51.5156,546.75 L51.3438,546.6719 Z " fill="#000000"/><text fill="#000000" font-family="sans-serif" font-size="12" lengthAdjust="spacing" textLength="73" x="69" y="555.1543">Report2NHS</text><line style="stroke:#A80036;stroke-width:1.5;" x1="8" x2="171" y1="567" y2="567"/><line style="stroke:#A80036;stroke-width:1.5;" x1="8" x2="171" y1="575" y2="575"/><text fill="#000000" font-family="sans-serif" font-size="11" lengthAdjust="spacing" textLength="153" x="13" y="589.2104">+writeUsingFileWriter(text)</text><!--MD5=[7e0e21880190a3d3f8507b42d3153ce7]
class Sender--><rect codeLine="22" fill="#FEFECE" filter="url(#f1xi82wxpb02ew)" height="73.6094" id="Sender" style="stroke:#A80036;stroke-width:1.5;" width="92" x="43.5" y="352.5"/><ellipse cx="65.7" cy="368.5" fill="#ADD1B2" rx="11" ry="11" style="stroke:#A80036;stroke-width:1.0;"/><path d="M68.0438,364.1719 C67.1063,363.7344 66.5125,363.5938 65.6375,363.5938 C63.0125,363.5938 61.0125,365.6719 61.0125,368.3906 L61.0125,369.5156 C61.0125,372.0938 63.1219,373.9844 66.0125,373.9844 C67.2313,373.9844 68.3875,373.6875 69.1375,373.1406 C69.7156,372.7344 70.0438,372.2813 70.0438,371.8906 C70.0438,371.4375 69.6531,371.0469 69.1844,371.0469 C68.9656,371.0469 68.7625,371.125 68.575,371.3125 C68.1219,371.7969 68.1219,371.7969 67.9344,371.8906 C67.5125,372.1563 66.825,372.2813 66.0594,372.2813 C64.0125,372.2813 62.7156,371.1875 62.7156,369.4844 L62.7156,368.3906 C62.7156,366.6094 63.9656,365.2969 65.7,365.2969 C66.2781,365.2969 66.8875,365.4531 67.3563,365.7031 C67.8406,365.9844 68.0125,366.2031 68.1063,366.6094 C68.1688,367.0156 68.2,367.1406 68.3406,367.2656 C68.4813,367.4063 68.7156,367.5156 68.9344,367.5156 C69.2,367.5156 69.4656,367.375 69.6375,367.1563 C69.7469,367 69.7781,366.8125 69.7781,366.3906 L69.7781,364.9688 C69.7781,364.5313 69.7625,364.4063 69.6688,364.25 C69.5125,363.9844 69.2313,363.8438 68.9344,363.8438 C68.6375,363.8438 68.4344,363.9375 68.2156,364.25 L68.0438,364.1719 Z " fill="#000000"/><text fill="#000000" font-family="sans-serif" font-size="12" lengthAdjust="spacing" textLength="44" x="81.3" y="372.6543">Sender</text><line style="stroke:#A80036;stroke-width:1.5;" x1="44.5" x2="134.5" y1="384.5" y2="384.5"/><line style="stroke:#A80036;stroke-width:1.5;" x1="44.5" x2="134.5" y1="392.5" y2="392.5"/><text fill="#000000" font-family="sans-serif" font-size="11" lengthAdjust="spacing" textLength="54" x="49.5" y="406.7104">+create()</text><text fill="#000000" font-family="sans-serif" font-size="11" lengthAdjust="spacing" textLength="80" x="49.5" y="419.5151">+sender(text)</text><!--MD5=[6a09511f26510c779a94f828292bd319]
class LienarClass--><rect codeLine="26" fill="#FEFECE" filter="url(#f1xi82wxpb02ew)" height="73.6094" id="LienarClass" style="stroke:#A80036;stroke-width:1.5;" width="119" x="171" y="352.5"/><ellipse cx="194.55" cy="368.5" fill="#ADD1B2" rx="11" ry="11" style="stroke:#A80036;stroke-width:1.0;"/><path d="M196.8938,364.1719 C195.9563,363.7344 195.3625,363.5938 194.4875,363.5938 C191.8625,363.5938 189.8625,365.6719 189.8625,368.3906 L189.8625,369.5156 C189.8625,372.0938 191.9719,373.9844 194.8625,373.9844 C196.0813,373.9844 197.2375,373.6875 197.9875,373.1406 C198.5656,372.7344 198.8938,372.2813 198.8938,371.8906 C198.8938,371.4375 198.5031,371.0469 198.0344,371.0469 C197.8156,371.0469 197.6125,371.125 197.425,371.3125 C196.9719,371.7969 196.9719,371.7969 196.7844,371.8906 C196.3625,372.1563 195.675,372.2813 194.9094,372.2813 C192.8625,372.2813 191.5656,371.1875 191.5656,369.4844 L191.5656,368.3906 C191.5656,366.6094 192.8156,365.2969 194.55,365.2969 C195.1281,365.2969 195.7375,365.4531 196.2063,365.7031 C196.6906,365.9844 196.8625,366.2031 196.9563,366.6094 C197.0188,367.0156 197.05,367.1406 197.1906,367.2656 C197.3313,367.4063 197.5656,367.5156 197.7844,367.5156 C198.05,367.5156 198.3156,367.375 198.4875,367.1563 C198.5969,367 198.6281,366.8125 198.6281,366.3906 L198.6281,364.9688 C198.6281,364.5313 198.6125,364.4063 198.5188,364.25 C198.3625,363.9844 198.0813,363.8438 197.7844,363.8438 C197.4875,363.8438 197.2844,363.9375 197.0656,364.25 L196.8938,364.1719 Z " fill="#000000"/><text fill="#000000" font-family="sans-serif" font-size="12" lengthAdjust="spacing" textLength="68" x="210.45" y="372.6543">LienarClass</text><line style="stroke:#A80036;stroke-width:1.5;" x1="172" x2="289" y1="384.5" y2="384.5"/><line style="stroke:#A80036;stroke-width:1.5;" x1="172" x2="289" y1="392.5" y2="392.5"/><text fill="#000000" font-family="sans-serif" font-size="11" lengthAdjust="spacing" textLength="79" x="177" y="406.7104">+create(total)</text><text fill="#000000" font-family="sans-serif" font-size="11" lengthAdjust="spacing" textLength="107" x="177" y="419.5151">+setVariable(total)</text><!--MD5=[6cc141759d6d06bdfeba382eb13acc68]
class LienarClass2--><rect codeLine="30" fill="#FEFECE" filter="url(#f1xi82wxpb02ew)" height="73.6094" id="LienarClass2" style="stroke:#A80036;stroke-width:1.5;" width="119" x="325" y="352.5"/><ellipse cx="344.95" cy="368.5" fill="#ADD1B2" rx="11" ry="11" style="stroke:#A80036;stroke-width:1.0;"/><path d="M347.2938,364.1719 C346.3563,363.7344 345.7625,363.5938 344.8875,363.5938 C342.2625,363.5938 340.2625,365.6719 340.2625,368.3906 L340.2625,369.5156 C340.2625,372.0938 342.3719,373.9844 345.2625,373.9844 C346.4813,373.9844 347.6375,373.6875 348.3875,373.1406 C348.9656,372.7344 349.2938,372.2813 349.2938,371.8906 C349.2938,371.4375 348.9031,371.0469 348.4344,371.0469 C348.2156,371.0469 348.0125,371.125 347.825,371.3125 C347.3719,371.7969 347.3719,371.7969 347.1844,371.8906 C346.7625,372.1563 346.075,372.2813 345.3094,372.2813 C343.2625,372.2813 341.9656,371.1875 341.9656,369.4844 L341.9656,368.3906 C341.9656,366.6094 343.2156,365.2969 344.95,365.2969 C345.5281,365.2969 346.1375,365.4531 346.6063,365.7031 C347.0906,365.9844 347.2625,366.2031 347.3563,366.6094 C347.4188,367.0156 347.45,367.1406 347.5906,367.2656 C347.7313,367.4063 347.9656,367.5156 348.1844,367.5156 C348.45,367.5156 348.7156,367.375 348.8875,367.1563 C348.9969,367 349.0281,366.8125 349.0281,366.3906 L349.0281,364.9688 C349.0281,364.5313 349.0125,364.4063 348.9188,364.25 C348.7625,363.9844 348.4813,363.8438 348.1844,363.8438 C347.8875,363.8438 347.6844,363.9375 347.4656,364.25 L347.2938,364.1719 Z " fill="#000000"/><text fill="#000000" font-family="sans-serif" font-size="12" lengthAdjust="spacing" textLength="76" x="360.05" y="372.6543">LienarClass2</text><line style="stroke:#A80036;stroke-width:1.5;" x1="326" x2="443" y1="384.5" y2="384.5"/><line style="stroke:#A80036;stroke-width:1.5;" x1="326" x2="443" y1="392.5" y2="392.5"/><text fill="#000000" font-family="sans-serif" font-size="11" lengthAdjust="spacing" textLength="101" x="331" y="406.7104">+create(mean, y)</text><text fill="#000000" font-family="sans-serif" font-size="11" lengthAdjust="spacing" textLength="107" x="331" y="419.5151">+setVariable(total)</text><!--MD5=[cc22a823245a06a40adce40dd5dfc584]
class MultiClass--><rect codeLine="34" fill="#FEFECE" filter="url(#f1xi82wxpb02ew)" height="73.6094" id="MultiClass" style="stroke:#A80036;stroke-width:1.5;" width="159" x="479" y="352.5"/><ellipse cx="524.75" cy="368.5" fill="#ADD1B2" rx="11" ry="11" style="stroke:#A80036;stroke-width:1.0;"/><path d="M527.0938,364.1719 C526.1563,363.7344 525.5625,363.5938 524.6875,363.5938 C522.0625,363.5938 520.0625,365.6719 520.0625,368.3906 L520.0625,369.5156 C520.0625,372.0938 522.1719,373.9844 525.0625,373.9844 C526.2813,373.9844 527.4375,373.6875 528.1875,373.1406 C528.7656,372.7344 529.0938,372.2813 529.0938,371.8906 C529.0938,371.4375 528.7031,371.0469 528.2344,371.0469 C528.0156,371.0469 527.8125,371.125 527.625,371.3125 C527.1719,371.7969 527.1719,371.7969 526.9844,371.8906 C526.5625,372.1563 525.875,372.2813 525.1094,372.2813 C523.0625,372.2813 521.7656,371.1875 521.7656,369.4844 L521.7656,368.3906 C521.7656,366.6094 523.0156,365.2969 524.75,365.2969 C525.3281,365.2969 525.9375,365.4531 526.4063,365.7031 C526.8906,365.9844 527.0625,366.2031 527.1563,366.6094 C527.2188,367.0156 527.25,367.1406 527.3906,367.2656 C527.5313,367.4063 527.7656,367.5156 527.9844,367.5156 C528.25,367.5156 528.5156,367.375 528.6875,367.1563 C528.7969,367 528.8281,366.8125 528.8281,366.3906 L528.8281,364.9688 C528.8281,364.5313 528.8125,364.4063 528.7188,364.25 C528.5625,363.9844 528.2813,363.8438 527.9844,363.8438 C527.6875,363.8438 527.4844,363.9375 527.2656,364.25 L527.0938,364.1719 Z " fill="#000000"/><text fill="#000000" font-family="sans-serif" font-size="12" lengthAdjust="spacing" textLength="59" x="545.25" y="372.6543">MultiClass</text><line style="stroke:#A80036;stroke-width:1.5;" x1="480" x2="637" y1="384.5" y2="384.5"/><line style="stroke:#A80036;stroke-width:1.5;" x1="480" x2="637" y1="392.5" y2="392.5"/><text fill="#000000" font-family="sans-serif" font-size="11" lengthAdjust="spacing" textLength="115" x="485" y="406.7104">+create(total,mean)</text><text fill="#000000" font-family="sans-serif" font-size="11" lengthAdjust="spacing" textLength="147" x="485" y="419.5151">+setVariable(total, mean)</text><!--MD5=[02e4b9b7573f1156f41e60aa5b4e25a4]
class Company--><rect codeLine="38" fill="#FEFECE" filter="url(#f1xi82wxpb02ew)" height="99.2188" id="Company" style="stroke:#A80036;stroke-width:1.5;" width="159" x="673" y="340"/><ellipse cx="720.25" cy="356" fill="#ADD1B2" rx="11" ry="11" style="stroke:#A80036;stroke-width:1.0;"/><path d="M722.5938,351.6719 C721.6563,351.2344 721.0625,351.0938 720.1875,351.0938 C717.5625,351.0938 715.5625,353.1719 715.5625,355.8906 L715.5625,357.0156 C715.5625,359.5938 717.6719,361.4844 720.5625,361.4844 C721.7813,361.4844 722.9375,361.1875 723.6875,360.6406 C724.2656,360.2344 724.5938,359.7813 724.5938,359.3906 C724.5938,358.9375 724.2031,358.5469 723.7344,358.5469 C723.5156,358.5469 723.3125,358.625 723.125,358.8125 C722.6719,359.2969 722.6719,359.2969 722.4844,359.3906 C722.0625,359.6563 721.375,359.7813 720.6094,359.7813 C718.5625,359.7813 717.2656,358.6875 717.2656,356.9844 L717.2656,355.8906 C717.2656,354.1094 718.5156,352.7969 720.25,352.7969 C720.8281,352.7969 721.4375,352.9531 721.9063,353.2031 C722.3906,353.4844 722.5625,353.7031 722.6563,354.1094 C722.7188,354.5156 722.75,354.6406 722.8906,354.7656 C723.0313,354.9063 723.2656,355.0156 723.4844,355.0156 C723.75,355.0156 724.0156,354.875 724.1875,354.6563 C724.2969,354.5 724.3281,354.3125 724.3281,353.8906 L724.3281,352.4688 C724.3281,352.0313 724.3125,351.9063 724.2188,351.75 C724.0625,351.4844 723.7813,351.3438 723.4844,351.3438 C723.1875,351.3438 722.9844,351.4375 722.7656,351.75 L722.5938,351.6719 Z " fill="#000000"/><text fill="#000000" font-family="sans-serif" font-size="12" lengthAdjust="spacing" textLength="56" x="740.75" y="360.1543">Company</text><line style="stroke:#A80036;stroke-width:1.5;" x1="674" x2="831" y1="372" y2="372"/><text fill="#000000" font-family="sans-serif" font-size="11" lengthAdjust="spacing" textLength="107" x="679" y="386.2104">-String designation</text><line style="stroke:#A80036;stroke-width:1.5;" x1="674" x2="831" y1="392.8047" y2="392.8047"/><text fill="#000000" font-family="sans-serif" font-size="11" lengthAdjust="spacing" textLength="128" x="679" y="407.0151">+getTestValideStore()</text><text fill="#000000" font-family="sans-serif" font-size="11" lengthAdjust="spacing" textLength="147" x="679" y="419.8198">+getRegisterClientStore()</text><text fill="#000000" font-family="sans-serif" font-size="11" lengthAdjust="spacing" textLength="130" x="679" y="432.6245">+getRegressionStore()</text><!--MD5=[103cc62abc3c4e47394448103f866516]
class TestValideStore--><rect codeLine="45" fill="#FEFECE" filter="url(#f1xi82wxpb02ew)" height="99.2188" id="TestValideStore" style="stroke:#A80036;stroke-width:1.5;" width="159" x="484" y="516"/><ellipse cx="512.95" cy="532" fill="#ADD1B2" rx="11" ry="11" style="stroke:#A80036;stroke-width:1.0;"/><path d="M515.2938,527.6719 C514.3563,527.2344 513.7625,527.0938 512.8875,527.0938 C510.2625,527.0938 508.2625,529.1719 508.2625,531.8906 L508.2625,533.0156 C508.2625,535.5938 510.3719,537.4844 513.2625,537.4844 C514.4813,537.4844 515.6375,537.1875 516.3875,536.6406 C516.9656,536.2344 517.2938,535.7813 517.2938,535.3906 C517.2938,534.9375 516.9031,534.5469 516.4344,534.5469 C516.2156,534.5469 516.0125,534.625 515.825,534.8125 C515.3719,535.2969 515.3719,535.2969 515.1844,535.3906 C514.7625,535.6563 514.075,535.7813 513.3094,535.7813 C511.2625,535.7813 509.9656,534.6875 509.9656,532.9844 L509.9656,531.8906 C509.9656,530.1094 511.2156,528.7969 512.95,528.7969 C513.5281,528.7969 514.1375,528.9531 514.6063,529.2031 C515.0906,529.4844 515.2625,529.7031 515.3563,530.1094 C515.4188,530.5156 515.45,530.6406 515.5906,530.7656 C515.7313,530.9063 515.9656,531.0156 516.1844,531.0156 C516.45,531.0156 516.7156,530.875 516.8875,530.6563 C516.9969,530.5 517.0281,530.3125 517.0281,529.8906 L517.0281,528.4688 C517.0281,528.0313 517.0125,527.9063 516.9188,527.75 C516.7625,527.4844 516.4813,527.3438 516.1844,527.3438 C515.8875,527.3438 515.6844,527.4375 515.4656,527.75 L515.2938,527.6719 Z " fill="#000000"/><text fill="#000000" font-family="sans-serif" font-size="12" lengthAdjust="spacing" textLength="96" x="530.05" y="536.1543">TestValideStore</text><line style="stroke:#A80036;stroke-width:1.5;" x1="485" x2="642" y1="548" y2="548"/><text fill="#000000" font-family="sans-serif" font-size="11" lengthAdjust="spacing" textLength="147" x="490" y="562.2104">-List&lt;Test&gt; testValideList</text><text fill="#000000" font-family="sans-serif" font-size="11" lengthAdjust="spacing" textLength="69" x="490" y="575.0151">+totalCases</text><line style="stroke:#A80036;stroke-width:1.5;" x1="485" x2="642" y1="581.6094" y2="581.6094"/><text fill="#000000" font-family="sans-serif" font-size="11" lengthAdjust="spacing" textLength="101" x="490" y="595.8198">+getTestsValids()</text><text fill="#000000" font-family="sans-serif" font-size="11" lengthAdjust="spacing" textLength="123" x="490" y="608.6245">+covidCasesPerDay()</text><!--MD5=[2054e1e7aa45f1641171ebc2acb3d6ca]
class RegisterClientStore--><rect codeLine="52" fill="#FEFECE" filter="url(#f1xi82wxpb02ew)" height="60.8047" id="RegisterClientStore" style="stroke:#A80036;stroke-width:1.5;" width="148" x="678.5" y="535"/><ellipse cx="693.5" cy="551" fill="#ADD1B2" rx="11" ry="11" style="stroke:#A80036;stroke-width:1.0;"/><path d="M695.8438,546.6719 C694.9063,546.2344 694.3125,546.0938 693.4375,546.0938 C690.8125,546.0938 688.8125,548.1719 688.8125,550.8906 L688.8125,552.0156 C688.8125,554.5938 690.9219,556.4844 693.8125,556.4844 C695.0313,556.4844 696.1875,556.1875 696.9375,555.6406 C697.5156,555.2344 697.8438,554.7813 697.8438,554.3906 C697.8438,553.9375 697.4531,553.5469 696.9844,553.5469 C696.7656,553.5469 696.5625,553.625 696.375,553.8125 C695.9219,554.2969 695.9219,554.2969 695.7344,554.3906 C695.3125,554.6563 694.625,554.7813 693.8594,554.7813 C691.8125,554.7813 690.5156,553.6875 690.5156,551.9844 L690.5156,550.8906 C690.5156,549.1094 691.7656,547.7969 693.5,547.7969 C694.0781,547.7969 694.6875,547.9531 695.1563,548.2031 C695.6406,548.4844 695.8125,548.7031 695.9063,549.1094 C695.9688,549.5156 696,549.6406 696.1406,549.7656 C696.2813,549.9063 696.5156,550.0156 696.7344,550.0156 C697,550.0156 697.2656,549.875 697.4375,549.6563 C697.5469,549.5 697.5781,549.3125 697.5781,548.8906 L697.5781,547.4688 C697.5781,547.0313 697.5625,546.9063 697.4688,546.75 C697.3125,546.4844 697.0313,546.3438 696.7344,546.3438 C696.4375,546.3438 696.2344,546.4375 696.0156,546.75 L695.8438,546.6719 Z " fill="#000000"/><text fill="#000000" font-family="sans-serif" font-size="12" lengthAdjust="spacing" textLength="116" x="707.5" y="555.1543">RegisterClientStore</text><line style="stroke:#A80036;stroke-width:1.5;" x1="679.5" x2="825.5" y1="567" y2="567"/><line style="stroke:#A80036;stroke-width:1.5;" x1="679.5" x2="825.5" y1="575" y2="575"/><text fill="#000000" font-family="sans-serif" font-size="11" lengthAdjust="spacing" textLength="73" x="684.5" y="589.2104">+meanAge()</text><!--MD5=[2b1ce40fe896a8d2a30a86564ded4e81]
class RegressionStore--><rect codeLine="57" fill="#FEFECE" filter="url(#f1xi82wxpb02ew)" height="60.8047" id="RegressionStore" style="stroke:#A80036;stroke-width:1.5;" width="133" x="862" y="535"/><ellipse cx="877" cy="551" fill="#ADD1B2" rx="11" ry="11" style="stroke:#A80036;stroke-width:1.0;"/><path d="M879.3438,546.6719 C878.4063,546.2344 877.8125,546.0938 876.9375,546.0938 C874.3125,546.0938 872.3125,548.1719 872.3125,550.8906 L872.3125,552.0156 C872.3125,554.5938 874.4219,556.4844 877.3125,556.4844 C878.5313,556.4844 879.6875,556.1875 880.4375,555.6406 C881.0156,555.2344 881.3438,554.7813 881.3438,554.3906 C881.3438,553.9375 880.9531,553.5469 880.4844,553.5469 C880.2656,553.5469 880.0625,553.625 879.875,553.8125 C879.4219,554.2969 879.4219,554.2969 879.2344,554.3906 C878.8125,554.6563 878.125,554.7813 877.3594,554.7813 C875.3125,554.7813 874.0156,553.6875 874.0156,551.9844 L874.0156,550.8906 C874.0156,549.1094 875.2656,547.7969 877,547.7969 C877.5781,547.7969 878.1875,547.9531 878.6563,548.2031 C879.1406,548.4844 879.3125,548.7031 879.4063,549.1094 C879.4688,549.5156 879.5,549.6406 879.6406,549.7656 C879.7813,549.9063 880.0156,550.0156 880.2344,550.0156 C880.5,550.0156 880.7656,549.875 880.9375,549.6563 C881.0469,549.5 881.0781,549.3125 881.0781,548.8906 L881.0781,547.4688 C881.0781,547.0313 881.0625,546.9063 880.9688,546.75 C880.8125,546.4844 880.5313,546.3438 880.2344,546.3438 C879.9375,546.3438 879.7344,546.4375 879.5156,546.75 L879.3438,546.6719 Z " fill="#000000"/><text fill="#000000" font-family="sans-serif" font-size="12" lengthAdjust="spacing" textLength="101" x="891" y="555.1543">RegressionStore</text><line style="stroke:#A80036;stroke-width:1.5;" x1="863" x2="994" y1="567" y2="567"/><line style="stroke:#A80036;stroke-width:1.5;" x1="863" x2="994" y1="575" y2="575"/><text fill="#000000" font-family="sans-serif" font-size="11" lengthAdjust="spacing" textLength="60" x="868" y="589.2104">+getAlist()</text><!--MD5=[8ce41b97d858b39ef7f558df6bbe2ac7]
link ManualReportUI to ManualReportController--><path codeLine="63" d="M384.5,55.22 C384.5,69.998 384.5,90.148 384.5,110.601 " fill="none" id="ManualReportUI-to-ManualReportController" style="stroke:#A80036;stroke-width:1.0;stroke-dasharray:7.0,7.0;"/><polygon fill="#A80036" points="384.5,115.804,388.5,106.804,384.5,110.804,380.5,106.804,384.5,115.804" style="stroke:#A80036;stroke-width:1.0;"/><!--MD5=[bba3e2ac4520d5e5aea68a88cabfafe5]
link ManualReportController to Company--><path codeLine="64" d="M493.916,254.992 C549.65,283.768 616.374,318.217 668.082,344.915 " fill="none" id="ManualReportController-to-Company" style="stroke:#A80036;stroke-width:1.0;stroke-dasharray:7.0,7.0;"/><polygon fill="#A80036" points="672.722,347.31,666.5606,339.6264,668.2794,345.0158,662.89,346.7346,672.722,347.31" style="stroke:#A80036;stroke-width:1.0;"/><!--MD5=[25a75a76c2224f356a77c97b133e1ff1]
link Company to TestValideStore--><path codeLine="65" d="M699.602,439.2 C674.829,462.006 645.291,489.2 620.074,512.416 " fill="none" id="Company-to-TestValideStore" style="stroke:#A80036;stroke-width:1.0;"/><polygon fill="#A80036" points="616.386,515.812,625.7169,512.6603,620.0649,512.4259,620.2993,506.7739,616.386,515.812" style="stroke:#A80036;stroke-width:1.0;"/><polygon fill="#000000" points="664.8215,480.9529,673.4665,476.9888,669.4854,472.6645,664.8215,480.9529" style="stroke:#000000;stroke-width:1.0;"/><text fill="#000000" font-family="sans-serif" font-size="13" lengthAdjust="spacing" textLength="23" x="677.5" y="482.0669">has</text><text fill="#000000" font-family="sans-serif" font-size="13" lengthAdjust="spacing" textLength="8" x="683.6007" y="459.3046">1</text><text fill="#000000" font-family="sans-serif" font-size="13" lengthAdjust="spacing" textLength="8" x="615.2606" y="504.8308">1</text><!--MD5=[a64025bc14f27e4aec4a97763c42f121]
link Company to RegisterClientStore--><path codeLine="66" d="M752.5,439.432 C752.5,468.268 752.5,504.054 752.5,529.949 " fill="none" id="Company-to-RegisterClientStore" style="stroke:#A80036;stroke-width:1.0;"/><polygon fill="#A80036" points="752.5,534.991,756.5,525.991,752.5,529.991,748.5,525.991,752.5,534.991" style="stroke:#A80036;stroke-width:1.0;"/><polygon fill="#000000" points="757.5,482.5664,760.4389,473.5213,754.5611,473.5213,757.5,482.5664" style="stroke:#000000;stroke-width:1.0;"/><text fill="#000000" font-family="sans-serif" font-size="13" lengthAdjust="spacing" textLength="23" x="766.5" y="482.0669">has</text><text fill="#000000" font-family="sans-serif" font-size="13" lengthAdjust="spacing" textLength="8" x="743.9625" y="459.2105">1</text><text fill="#000000" font-family="sans-serif" font-size="13" lengthAdjust="spacing" textLength="8" x="743.625" y="523.7793">1</text><!--MD5=[89785a1550e39ef0a0cb22ba5b7ae848]
link Company to RegressionStore--><path codeLine="67" d="M801.994,439.432 C831.648,468.748 868.567,505.249 894.853,531.235 " fill="none" id="Company-to-RegressionStore" style="stroke:#A80036;stroke-width:1.0;"/><polygon fill="#A80036" points="898.652,534.991,895.0627,525.8195,895.0958,531.4762,889.4391,531.5094,898.652,534.991" style="stroke:#A80036;stroke-width:1.0;"/><polygon fill="#000000" points="854.0557,481.0817,849.6896,472.6325,845.5572,476.8125,854.0557,481.0817" style="stroke:#000000;stroke-width:1.0;"/><text fill="#000000" font-family="sans-serif" font-size="13" lengthAdjust="spacing" textLength="23" x="859.5" y="482.0669">has</text><text fill="#000000" font-family="sans-serif" font-size="13" lengthAdjust="spacing" textLength="8" x="800.1073" y="459.2105">1</text><text fill="#000000" font-family="sans-serif" font-size="13" lengthAdjust="spacing" textLength="8" x="883.2478" y="523.7793">1</text><!--MD5=[ae38701770910d398b42321583ba1835]
link TestValideStore to Test--><path codeLine="68" d="M563.5,615.118 C563.5,638.198 563.5,665.267 563.5,686.3235 " fill="none" id="TestValideStore-to-Test" style="stroke:#A80036;stroke-width:1.0;"/><polygon fill="#A80036" points="563.5,691.5413,567.5,682.5413,563.5,686.5413,559.5,682.5413,563.5,691.5413" style="stroke:#A80036;stroke-width:1.0;"/><polygon fill="#000000" points="568.5,658.5664,571.4389,649.5213,565.5611,649.5213,568.5,658.5664" style="stroke:#000000;stroke-width:1.0;"/><text fill="#000000" font-family="sans-serif" font-size="13" lengthAdjust="spacing" textLength="30" x="577.5" y="658.0669">uses</text><text fill="#000000" font-family="sans-serif" font-size="13" lengthAdjust="spacing" textLength="8" x="554.9375" y="635.2111">1</text><text fill="#000000" font-family="sans-serif" font-size="13" lengthAdjust="spacing" textLength="7" x="555.7781" y="680.7099">*</text><!--MD5=[3e538689096342d27e318feba195fe48]
link ManualReportController to LienarClass--><path codeLine="69" d="M319.19,279.077 C299.823,302.972 279.445,328.113 263.113,348.263 " fill="none" id="ManualReportController-to-LienarClass" style="stroke:#A80036;stroke-width:1.0;stroke-dasharray:7.0,7.0;"/><polygon fill="#A80036" points="259.903,352.224,268.6777,347.7512,263.0515,348.3398,262.4629,342.7137,259.903,352.224" style="stroke:#A80036;stroke-width:1.0;"/><!--MD5=[abca966652877821425f4a0916bffbf8]
link ManualReportController to LienarClass2--><path codeLine="70" d="M384.5,279.077 C384.5,302.474 384.5,327.066 384.5,346.997 " fill="none" id="ManualReportController-to-LienarClass2" style="stroke:#A80036;stroke-width:1.0;stroke-dasharray:7.0,7.0;"/><polygon fill="#A80036" points="384.5,352.224,388.5,343.224,384.5,347.224,380.5,343.224,384.5,352.224" style="stroke:#A80036;stroke-width:1.0;"/><!--MD5=[0a597c71223c68c7c106b84d43e11451]
link ManualReportController to MultiClass--><path codeLine="71" d="M458.292,279.077 C480.265,303.071 503.39,328.322 521.881,348.514 " fill="none" id="ManualReportController-to-MultiClass" style="stroke:#A80036;stroke-width:1.0;stroke-dasharray:7.0,7.0;"/><polygon fill="#A80036" points="525.279,352.224,522.1517,342.8848,521.9026,348.5362,516.2512,348.2871,525.279,352.224" style="stroke:#A80036;stroke-width:1.0;"/><!--MD5=[840e66ec2045788b6d37c357331cfd9a]
link ManualReportController to Sender--><path codeLine="72" d="M275.267,262.377 C236.304,285.953 192.438,313.416 153.5,340 C149.004,343.069 144.391,346.331 139.801,349.654 " fill="none" id="ManualReportController-to-Sender" style="stroke:#A80036;stroke-width:1.0;stroke-dasharray:7.0,7.0;"/><polygon fill="#A80036" points="135.596,352.72,145.2248,350.6497,139.6361,349.7742,140.5115,344.1855,135.596,352.72" style="stroke:#A80036;stroke-width:1.0;"/><!--MD5=[d9e5ab455dc231012728402b74e08d80]
link Sender to Report2NHS--><path codeLine="73" d="M89.5,426.553 C89.5,456.853 89.5,499.882 89.5,529.796 " fill="none" id="Sender-to-Report2NHS" style="stroke:#A80036;stroke-width:1.0;"/><polygon fill="#A80036" points="89.5,534.851,93.5,525.851,89.5,529.851,85.5,525.851,89.5,534.851" style="stroke:#A80036;stroke-width:1.0;"/><polygon fill="#000000" points="94.5,482.5664,97.4389,473.5213,91.5611,473.5213,94.5,482.5664" style="stroke:#000000;stroke-width:1.0;"/><text fill="#000000" font-family="sans-serif" font-size="13" lengthAdjust="spacing" textLength="30" x="103.5" y="482.0669">uses</text><text fill="#000000" font-family="sans-serif" font-size="13" lengthAdjust="spacing" textLength="8" x="80.8375" y="446.0423">1</text><text fill="#000000" font-family="sans-serif" font-size="13" lengthAdjust="spacing" textLength="8" x="80.675" y="524.0835">1</text><!--MD5=[4607a8851e7773d210a7f4efefeb0f26]
@startuml
skinparam classAttributeIconSize 0

class ManualReportController {
  -TestValideStore stor
  -Company company
  -Send sd
  +getAlg()
  +create()
  +create2()
  +create3()
  +showReport(interval, dHistoricP, re)
  +send(Report)
}
class ManualReportUI{
}
class Test {
  +getDateValidTest()
}
class Report2NHS{
  +writeUsingFileWriter(text)
}
class Sender{
  +create()
  +sender(text)
}
class LienarClass{
  +create(total)
  +setVariable(total)
}
class LienarClass2{
  +create(mean, y)
  +setVariable(total)
}
class MultiClass{
  +create(total,mean)
  +setVariable(total, mean)
}
class Company {
  -String designation
  +getTestValideStore()
  +getRegisterClientStore()
  +getRegressionStore()
}

class TestValideStore {
  -List<Test> testValideList
  +totalCases
  +getTestsValids()
  +covidCasesPerDay()
}

class RegisterClientStore{
  +meanAge()
}


class RegressionStore{
  +getAlist()
}



ManualReportUI ..> ManualReportController 
ManualReportController ..> Company
Company "1" - -> "1" TestValideStore: has >
Company "1" - -> "1" RegisterClientStore: has >
Company "1" - -> "1" RegressionStore: has >
TestValideStore "1" - -> "*" Test: uses >
ManualReportController ..> LienarClass
ManualReportController ..> LienarClass2
ManualReportController ..> MultiClass
ManualReportController ..> Sender
Sender "1" - -> "1" Report2NHS: uses >
@enduml

PlantUML version 1.2021.7(Sun May 23 12:40:07 UTC 2021)
(GPL source distribution)
Java Runtime: Java(TM) SE Runtime Environment
JVM: Java HotSpot(TM) 64-Bit Server VM
Default Encoding: UTF-8
Language: en
Country: US
--></g></svg>