<?xml version="1.0" encoding="UTF-8" standalone="no"?><svg xmlns="http://www.w3.org/2000/svg" xmlns:xlink="http://www.w3.org/1999/xlink" contentScriptType="application/ecmascript" contentStyleType="text/css" height="1034px" preserveAspectRatio="none" style="width:638px;height:1034px;background:#FFFFFF;" version="1.1" viewBox="0 0 638 1034" width="638px" zoomAndPan="magnify"><defs><filter height="300%" id="f55midvs54s1u" width="300%" x="-1" y="-1"><feGaussianBlur result="blurOut" stdDeviation="2.0"/><feColorMatrix in="blurOut" result="blurOut2" type="matrix" values="0 0 0 0 0 0 0 0 0 0 0 0 0 0 0 0 0 0 .4 0"/><feOffset dx="4.0" dy="4.0" in="blurOut2" result="blurOut3"/><feBlend in="SourceGraphic" in2="blurOut3" mode="normal"/></filter></defs><g><text fill="#000000" font-family="sans-serif" font-size="18" lengthAdjust="spacing" textLength="190" x="217.75" y="16.708">UC5 - Class Diagram</text><!--MD5=[02e4b9b7573f1156f41e60aa5b4e25a4]
class Company--><rect codeLine="3" fill="#FEFECE" filter="url(#f55midvs54s1u)" height="60.8047" id="Company" style="stroke:#A80036;stroke-width:1.5;" width="116" x="308.5" y="27.9531"/><ellipse cx="336.1" cy="43.9531" fill="#ADD1B2" rx="11" ry="11" style="stroke:#A80036;stroke-width:1.0;"/><path d="M338.4438,39.625 C337.5063,39.1875 336.9125,39.0469 336.0375,39.0469 C333.4125,39.0469 331.4125,41.125 331.4125,43.8438 L331.4125,44.9688 C331.4125,47.5469 333.5219,49.4375 336.4125,49.4375 C337.6313,49.4375 338.7875,49.1406 339.5375,48.5938 C340.1156,48.1875 340.4438,47.7344 340.4438,47.3438 C340.4438,46.8906 340.0531,46.5 339.5844,46.5 C339.3656,46.5 339.1625,46.5781 338.975,46.7656 C338.5219,47.25 338.5219,47.25 338.3344,47.3438 C337.9125,47.6094 337.225,47.7344 336.4594,47.7344 C334.4125,47.7344 333.1156,46.6406 333.1156,44.9375 L333.1156,43.8438 C333.1156,42.0625 334.3656,40.75 336.1,40.75 C336.6781,40.75 337.2875,40.9063 337.7563,41.1563 C338.2406,41.4375 338.4125,41.6563 338.5063,42.0625 C338.5688,42.4688 338.6,42.5938 338.7406,42.7188 C338.8813,42.8594 339.1156,42.9688 339.3344,42.9688 C339.6,42.9688 339.8656,42.8281 340.0375,42.6094 C340.1469,42.4531 340.1781,42.2656 340.1781,41.8438 L340.1781,40.4219 C340.1781,39.9844 340.1625,39.8594 340.0688,39.7031 C339.9125,39.4375 339.6313,39.2969 339.3344,39.2969 C339.0375,39.2969 338.8344,39.3906 338.6156,39.7031 L338.4438,39.625 Z " fill="#000000"/><text fill="#000000" font-family="sans-serif" font-size="12" lengthAdjust="spacing" textLength="56" x="352.9" y="48.1074">Company</text><line style="stroke:#A80036;stroke-width:1.5;" x1="309.5" x2="423.5" y1="59.9531" y2="59.9531"/><text fill="#000000" font-family="sans-serif" font-size="11" lengthAdjust="spacing" textLength="104" x="314.5" y="74.1636">string designation;</text><line style="stroke:#A80036;stroke-width:1.5;" x1="309.5" x2="423.5" y1="80.7578" y2="80.7578"/><!--MD5=[7421f545a0d8420c5bec41e74b387d9c]
class Employee--><rect codeLine="7" fill="#FEFECE" filter="url(#f55midvs54s1u)" height="112.0234" id="Employee" style="stroke:#A80036;stroke-width:1.5;" width="133" x="20" y="178.9531"/><ellipse cx="53.45" cy="194.9531" fill="#ADD1B2" rx="11" ry="11" style="stroke:#A80036;stroke-width:1.0;"/><path d="M55.7938,190.625 C54.8563,190.1875 54.2625,190.0469 53.3875,190.0469 C50.7625,190.0469 48.7625,192.125 48.7625,194.8438 L48.7625,195.9688 C48.7625,198.5469 50.8719,200.4375 53.7625,200.4375 C54.9813,200.4375 56.1375,200.1406 56.8875,199.5938 C57.4656,199.1875 57.7938,198.7344 57.7938,198.3438 C57.7938,197.8906 57.4031,197.5 56.9344,197.5 C56.7156,197.5 56.5125,197.5781 56.325,197.7656 C55.8719,198.25 55.8719,198.25 55.6844,198.3438 C55.2625,198.6094 54.575,198.7344 53.8094,198.7344 C51.7625,198.7344 50.4656,197.6406 50.4656,195.9375 L50.4656,194.8438 C50.4656,193.0625 51.7156,191.75 53.45,191.75 C54.0281,191.75 54.6375,191.9063 55.1063,192.1563 C55.5906,192.4375 55.7625,192.6563 55.8563,193.0625 C55.9188,193.4688 55.95,193.5938 56.0906,193.7188 C56.2313,193.8594 56.4656,193.9688 56.6844,193.9688 C56.95,193.9688 57.2156,193.8281 57.3875,193.6094 C57.4969,193.4531 57.5281,193.2656 57.5281,192.8438 L57.5281,191.4219 C57.5281,190.9844 57.5125,190.8594 57.4188,190.7031 C57.2625,190.4375 56.9813,190.2969 56.6844,190.2969 C56.3875,190.2969 56.1844,190.3906 55.9656,190.7031 L55.7938,190.625 Z " fill="#000000"/><text fill="#000000" font-family="sans-serif" font-size="12" lengthAdjust="spacing" textLength="60" x="71.55" y="199.1074">Employee</text><line style="stroke:#A80036;stroke-width:1.5;" x1="21" x2="152" y1="210.9531" y2="210.9531"/><text fill="#000000" font-family="sans-serif" font-size="11" lengthAdjust="spacing" textLength="111" x="26" y="225.1636">String employeeID;</text><text fill="#000000" font-family="sans-serif" font-size="11" lengthAdjust="spacing" textLength="73" x="26" y="237.9683">String name;</text><text fill="#000000" font-family="sans-serif" font-size="11" lengthAdjust="spacing" textLength="85" x="26" y="250.7729">String address;</text><text fill="#000000" font-family="sans-serif" font-size="11" lengthAdjust="spacing" textLength="121" x="26" y="263.5776">String phoneNumber;</text><text fill="#000000" font-family="sans-serif" font-size="11" lengthAdjust="spacing" textLength="93" x="26" y="276.3823">String codeSOC;</text><line style="stroke:#A80036;stroke-width:1.5;" x1="21" x2="152" y1="282.9766" y2="282.9766"/><!--MD5=[01931d41e78f8996acd44f6f0fd8de28]
class MedicalLabTechnician--><rect codeLine="15" fill="#FEFECE" filter="url(#f55midvs54s1u)" height="48" id="MedicalLabTechnician" style="stroke:#A80036;stroke-width:1.5;" width="162" x="127.5" y="451.4531"/><ellipse cx="142.5" cy="467.4531" fill="#ADD1B2" rx="11" ry="11" style="stroke:#A80036;stroke-width:1.0;"/><path d="M144.8438,463.125 C143.9063,462.6875 143.3125,462.5469 142.4375,462.5469 C139.8125,462.5469 137.8125,464.625 137.8125,467.3438 L137.8125,468.4688 C137.8125,471.0469 139.9219,472.9375 142.8125,472.9375 C144.0313,472.9375 145.1875,472.6406 145.9375,472.0938 C146.5156,471.6875 146.8438,471.2344 146.8438,470.8438 C146.8438,470.3906 146.4531,470 145.9844,470 C145.7656,470 145.5625,470.0781 145.375,470.2656 C144.9219,470.75 144.9219,470.75 144.7344,470.8438 C144.3125,471.1094 143.625,471.2344 142.8594,471.2344 C140.8125,471.2344 139.5156,470.1406 139.5156,468.4375 L139.5156,467.3438 C139.5156,465.5625 140.7656,464.25 142.5,464.25 C143.0781,464.25 143.6875,464.4063 144.1563,464.6563 C144.6406,464.9375 144.8125,465.1563 144.9063,465.5625 C144.9688,465.9688 145,466.0938 145.1406,466.2188 C145.2813,466.3594 145.5156,466.4688 145.7344,466.4688 C146,466.4688 146.2656,466.3281 146.4375,466.1094 C146.5469,465.9531 146.5781,465.7656 146.5781,465.3438 L146.5781,463.9219 C146.5781,463.4844 146.5625,463.3594 146.4688,463.2031 C146.3125,462.9375 146.0313,462.7969 145.7344,462.7969 C145.4375,462.7969 145.2344,462.8906 145.0156,463.2031 L144.8438,463.125 Z " fill="#000000"/><text fill="#000000" font-family="sans-serif" font-size="12" lengthAdjust="spacing" textLength="130" x="156.5" y="471.6074">MedicalLabTechnician</text><line style="stroke:#A80036;stroke-width:1.5;" x1="128.5" x2="288.5" y1="483.4531" y2="483.4531"/><line style="stroke:#A80036;stroke-width:1.5;" x1="128.5" x2="288.5" y1="491.4531" y2="491.4531"/><!--MD5=[3fd616f346a44cd59a91eb10b19e157c]
class User--><rect codeLine="17" fill="#FEFECE" filter="url(#f55midvs54s1u)" height="60.8047" id="User" style="stroke:#A80036;stroke-width:1.5;" width="85" x="7" y="444.9531"/><ellipse cx="32.8" cy="460.9531" fill="#ADD1B2" rx="11" ry="11" style="stroke:#A80036;stroke-width:1.0;"/><path d="M35.1438,456.625 C34.2063,456.1875 33.6125,456.0469 32.7375,456.0469 C30.1125,456.0469 28.1125,458.125 28.1125,460.8438 L28.1125,461.9688 C28.1125,464.5469 30.2219,466.4375 33.1125,466.4375 C34.3313,466.4375 35.4875,466.1406 36.2375,465.5938 C36.8156,465.1875 37.1438,464.7344 37.1438,464.3438 C37.1438,463.8906 36.7531,463.5 36.2844,463.5 C36.0656,463.5 35.8625,463.5781 35.675,463.7656 C35.2219,464.25 35.2219,464.25 35.0344,464.3438 C34.6125,464.6094 33.925,464.7344 33.1594,464.7344 C31.1125,464.7344 29.8156,463.6406 29.8156,461.9375 L29.8156,460.8438 C29.8156,459.0625 31.0656,457.75 32.8,457.75 C33.3781,457.75 33.9875,457.9063 34.4563,458.1563 C34.9406,458.4375 35.1125,458.6563 35.2063,459.0625 C35.2688,459.4688 35.3,459.5938 35.4406,459.7188 C35.5813,459.8594 35.8156,459.9688 36.0344,459.9688 C36.3,459.9688 36.5656,459.8281 36.7375,459.6094 C36.8469,459.4531 36.8781,459.2656 36.8781,458.8438 L36.8781,457.4219 C36.8781,456.9844 36.8625,456.8594 36.7688,456.7031 C36.6125,456.4375 36.3313,456.2969 36.0344,456.2969 C35.7375,456.2969 35.5344,456.3906 35.3156,456.7031 L35.1438,456.625 Z " fill="#000000"/><text fill="#000000" font-family="sans-serif" font-size="12" lengthAdjust="spacing" textLength="29" x="49.2" y="465.1074">User</text><line style="stroke:#A80036;stroke-width:1.5;" x1="8" x2="91" y1="476.9531" y2="476.9531"/><text fill="#000000" font-family="sans-serif" font-size="11" lengthAdjust="spacing" textLength="73" x="13" y="491.1636">String name;</text><line style="stroke:#A80036;stroke-width:1.5;" x1="8" x2="91" y1="497.7578" y2="497.7578"/><!--MD5=[df38be88ccee13e832d6fafd6288a4ca]
class Test--><rect codeLine="21" fill="#FEFECE" filter="url(#f55midvs54s1u)" height="188.8516" id="Test" style="stroke:#A80036;stroke-width:1.5;" width="159" x="325" y="380.9531"/><ellipse cx="387.25" cy="396.9531" fill="#ADD1B2" rx="11" ry="11" style="stroke:#A80036;stroke-width:1.0;"/><path d="M389.5938,392.625 C388.6563,392.1875 388.0625,392.0469 387.1875,392.0469 C384.5625,392.0469 382.5625,394.125 382.5625,396.8438 L382.5625,397.9688 C382.5625,400.5469 384.6719,402.4375 387.5625,402.4375 C388.7813,402.4375 389.9375,402.1406 390.6875,401.5938 C391.2656,401.1875 391.5938,400.7344 391.5938,400.3438 C391.5938,399.8906 391.2031,399.5 390.7344,399.5 C390.5156,399.5 390.3125,399.5781 390.125,399.7656 C389.6719,400.25 389.6719,400.25 389.4844,400.3438 C389.0625,400.6094 388.375,400.7344 387.6094,400.7344 C385.5625,400.7344 384.2656,399.6406 384.2656,397.9375 L384.2656,396.8438 C384.2656,395.0625 385.5156,393.75 387.25,393.75 C387.8281,393.75 388.4375,393.9063 388.9063,394.1563 C389.3906,394.4375 389.5625,394.6563 389.6563,395.0625 C389.7188,395.4688 389.75,395.5938 389.8906,395.7188 C390.0313,395.8594 390.2656,395.9688 390.4844,395.9688 C390.75,395.9688 391.0156,395.8281 391.1875,395.6094 C391.2969,395.4531 391.3281,395.2656 391.3281,394.8438 L391.3281,393.4219 C391.3281,392.9844 391.3125,392.8594 391.2188,392.7031 C391.0625,392.4375 390.7813,392.2969 390.4844,392.2969 C390.1875,392.2969 389.9844,392.3906 389.7656,392.7031 L389.5938,392.625 Z " fill="#000000"/><text fill="#000000" font-family="sans-serif" font-size="12" lengthAdjust="spacing" textLength="26" x="407.75" y="401.1074">Test</text><line style="stroke:#A80036;stroke-width:1.5;" x1="326" x2="483" y1="412.9531" y2="412.9531"/><text fill="#000000" font-family="sans-serif" font-size="11" lengthAdjust="spacing" textLength="68" x="331" y="427.1636">String code;</text><text fill="#000000" font-family="sans-serif" font-size="11" lengthAdjust="spacing" textLength="94" x="331" y="439.9683">String NHSCode;</text><text fill="#000000" font-family="sans-serif" font-size="11" lengthAdjust="spacing" textLength="102" x="331" y="452.7729">String description;</text><text fill="#000000" font-family="sans-serif" font-size="11" lengthAdjust="spacing" textLength="110" x="331" y="465.5776">String dateSample;</text><text fill="#000000" font-family="sans-serif" font-size="11" lengthAdjust="spacing" textLength="110" x="331" y="478.3823">String timeSmaple;</text><text fill="#000000" font-family="sans-serif" font-size="11" lengthAdjust="spacing" textLength="147" x="331" y="491.187">String dateChemAnalysis;</text><text fill="#000000" font-family="sans-serif" font-size="11" lengthAdjust="spacing" textLength="147" x="331" y="503.9917">String timeChemAnalysis;</text><text fill="#000000" font-family="sans-serif" font-size="11" lengthAdjust="spacing" textLength="121" x="331" y="516.7964">String dateDiagnosis;</text><text fill="#000000" font-family="sans-serif" font-size="11" lengthAdjust="spacing" textLength="121" x="331" y="529.6011">String timeDiagnosis;</text><text fill="#000000" font-family="sans-serif" font-size="11" lengthAdjust="spacing" textLength="119" x="331" y="542.4058">String dateValidTest;</text><text fill="#000000" font-family="sans-serif" font-size="11" lengthAdjust="spacing" textLength="119" x="331" y="555.2104">String timeValidTest;</text><line style="stroke:#A80036;stroke-width:1.5;" x1="326" x2="483" y1="561.8047" y2="561.8047"/><!--MD5=[9681492165142af2a4a3a169d90ee8d4]
class Sample--><rect codeLine="35" fill="#FEFECE" filter="url(#f55midvs54s1u)" height="60.8047" id="Sample" style="stroke:#A80036;stroke-width:1.5;" width="148" x="134.5" y="659.4531"/><ellipse cx="181.75" cy="675.4531" fill="#ADD1B2" rx="11" ry="11" style="stroke:#A80036;stroke-width:1.0;"/><path d="M184.0938,671.125 C183.1563,670.6875 182.5625,670.5469 181.6875,670.5469 C179.0625,670.5469 177.0625,672.625 177.0625,675.3438 L177.0625,676.4688 C177.0625,679.0469 179.1719,680.9375 182.0625,680.9375 C183.2813,680.9375 184.4375,680.6406 185.1875,680.0938 C185.7656,679.6875 186.0938,679.2344 186.0938,678.8438 C186.0938,678.3906 185.7031,678 185.2344,678 C185.0156,678 184.8125,678.0781 184.625,678.2656 C184.1719,678.75 184.1719,678.75 183.9844,678.8438 C183.5625,679.1094 182.875,679.2344 182.1094,679.2344 C180.0625,679.2344 178.7656,678.1406 178.7656,676.4375 L178.7656,675.3438 C178.7656,673.5625 180.0156,672.25 181.75,672.25 C182.3281,672.25 182.9375,672.4063 183.4063,672.6563 C183.8906,672.9375 184.0625,673.1563 184.1563,673.5625 C184.2188,673.9688 184.25,674.0938 184.3906,674.2188 C184.5313,674.3594 184.7656,674.4688 184.9844,674.4688 C185.25,674.4688 185.5156,674.3281 185.6875,674.1094 C185.7969,673.9531 185.8281,673.7656 185.8281,673.3438 L185.8281,671.9219 C185.8281,671.4844 185.8125,671.3594 185.7188,671.2031 C185.5625,670.9375 185.2813,670.7969 184.9844,670.7969 C184.6875,670.7969 184.4844,670.8906 184.2656,671.2031 L184.0938,671.125 Z " fill="#000000"/><text fill="#000000" font-family="sans-serif" font-size="12" lengthAdjust="spacing" textLength="45" x="202.25" y="679.6074">Sample</text><line style="stroke:#A80036;stroke-width:1.5;" x1="135.5" x2="281.5" y1="691.4531" y2="691.4531"/><text fill="#000000" font-family="sans-serif" font-size="11" lengthAdjust="spacing" textLength="136" x="140.5" y="705.6636">String number_barcode;</text><line style="stroke:#A80036;stroke-width:1.5;" x1="135.5" x2="281.5" y1="712.2578" y2="712.2578"/><!--MD5=[ed6624c6556d5e7b1bd23032162d20b7]
class Client--><rect codeLine="39" fill="#FEFECE" filter="url(#f55midvs54s1u)" height="137.6328" id="Client" style="stroke:#A80036;stroke-width:1.5;" width="161" x="188" y="165.9531"/><ellipse cx="247.75" cy="181.9531" fill="#ADD1B2" rx="11" ry="11" style="stroke:#A80036;stroke-width:1.0;"/><path d="M250.0938,177.625 C249.1563,177.1875 248.5625,177.0469 247.6875,177.0469 C245.0625,177.0469 243.0625,179.125 243.0625,181.8438 L243.0625,182.9688 C243.0625,185.5469 245.1719,187.4375 248.0625,187.4375 C249.2813,187.4375 250.4375,187.1406 251.1875,186.5938 C251.7656,186.1875 252.0938,185.7344 252.0938,185.3438 C252.0938,184.8906 251.7031,184.5 251.2344,184.5 C251.0156,184.5 250.8125,184.5781 250.625,184.7656 C250.1719,185.25 250.1719,185.25 249.9844,185.3438 C249.5625,185.6094 248.875,185.7344 248.1094,185.7344 C246.0625,185.7344 244.7656,184.6406 244.7656,182.9375 L244.7656,181.8438 C244.7656,180.0625 246.0156,178.75 247.75,178.75 C248.3281,178.75 248.9375,178.9063 249.4063,179.1563 C249.8906,179.4375 250.0625,179.6563 250.1563,180.0625 C250.2188,180.4688 250.25,180.5938 250.3906,180.7188 C250.5313,180.8594 250.7656,180.9688 250.9844,180.9688 C251.25,180.9688 251.5156,180.8281 251.6875,180.6094 C251.7969,180.4531 251.8281,180.2656 251.8281,179.8438 L251.8281,178.4219 C251.8281,177.9844 251.8125,177.8594 251.7188,177.7031 C251.5625,177.4375 251.2813,177.2969 250.9844,177.2969 C250.6875,177.2969 250.4844,177.3906 250.2656,177.7031 L250.0938,177.625 Z " fill="#000000"/><text fill="#000000" font-family="sans-serif" font-size="12" lengthAdjust="spacing" textLength="33" x="268.25" y="186.1074">Client</text><line style="stroke:#A80036;stroke-width:1.5;" x1="189" x2="348" y1="197.9531" y2="197.9531"/><text fill="#000000" font-family="sans-serif" font-size="11" lengthAdjust="spacing" textLength="149" x="194" y="212.1636">String citizenCardNumber;</text><text fill="#000000" font-family="sans-serif" font-size="11" lengthAdjust="spacing" textLength="108" x="194" y="224.9683">String numberNHS;</text><text fill="#000000" font-family="sans-serif" font-size="11" lengthAdjust="spacing" textLength="102" x="194" y="237.7729">String numberTIN;</text><text fill="#000000" font-family="sans-serif" font-size="11" lengthAdjust="spacing" textLength="93" x="194" y="250.5776">String birthDate;</text><text fill="#000000" font-family="sans-serif" font-size="11" lengthAdjust="spacing" textLength="59" x="194" y="263.3823">string sex;</text><text fill="#000000" font-family="sans-serif" font-size="11" lengthAdjust="spacing" textLength="121" x="194" y="276.187">String phoneNumber;</text><text fill="#000000" font-family="sans-serif" font-size="11" lengthAdjust="spacing" textLength="71" x="194" y="288.9917">string name;</text><line style="stroke:#A80036;stroke-width:1.5;" x1="189" x2="348" y1="295.5859" y2="295.5859"/><!--MD5=[aeb3272166074d8737a70b61b1e71682]
class TestType--><rect codeLine="49" fill="#FEFECE" filter="url(#f55midvs54s1u)" height="86.4141" id="TestType" style="stroke:#A80036;stroke-width:1.5;" width="154" x="470.5" y="646.9531"/><ellipse cx="515.25" cy="662.9531" fill="#ADD1B2" rx="11" ry="11" style="stroke:#A80036;stroke-width:1.0;"/><path d="M517.5938,658.625 C516.6563,658.1875 516.0625,658.0469 515.1875,658.0469 C512.5625,658.0469 510.5625,660.125 510.5625,662.8438 L510.5625,663.9688 C510.5625,666.5469 512.6719,668.4375 515.5625,668.4375 C516.7813,668.4375 517.9375,668.1406 518.6875,667.5938 C519.2656,667.1875 519.5938,666.7344 519.5938,666.3438 C519.5938,665.8906 519.2031,665.5 518.7344,665.5 C518.5156,665.5 518.3125,665.5781 518.125,665.7656 C517.6719,666.25 517.6719,666.25 517.4844,666.3438 C517.0625,666.6094 516.375,666.7344 515.6094,666.7344 C513.5625,666.7344 512.2656,665.6406 512.2656,663.9375 L512.2656,662.8438 C512.2656,661.0625 513.5156,659.75 515.25,659.75 C515.8281,659.75 516.4375,659.9063 516.9063,660.1563 C517.3906,660.4375 517.5625,660.6563 517.6563,661.0625 C517.7188,661.4688 517.75,661.5938 517.8906,661.7188 C518.0313,661.8594 518.2656,661.9688 518.4844,661.9688 C518.75,661.9688 519.0156,661.8281 519.1875,661.6094 C519.2969,661.4531 519.3281,661.2656 519.3281,660.8438 L519.3281,659.4219 C519.3281,658.9844 519.3125,658.8594 519.2188,658.7031 C519.0625,658.4375 518.7813,658.2969 518.4844,658.2969 C518.1875,658.2969 517.9844,658.3906 517.7656,658.7031 L517.5938,658.625 Z " fill="#000000"/><text fill="#000000" font-family="sans-serif" font-size="12" lengthAdjust="spacing" textLength="56" x="535.75" y="667.1074">TestType</text><line style="stroke:#A80036;stroke-width:1.5;" x1="471.5" x2="623.5" y1="678.9531" y2="678.9531"/><text fill="#000000" font-family="sans-serif" font-size="11" lengthAdjust="spacing" textLength="106" x="476.5" y="693.1636">String designation;</text><text fill="#000000" font-family="sans-serif" font-size="11" lengthAdjust="spacing" textLength="68" x="476.5" y="705.9683">String code;</text><text fill="#000000" font-family="sans-serif" font-size="11" lengthAdjust="spacing" textLength="142" x="476.5" y="718.7729">String collectingMethods;</text><line style="stroke:#A80036;stroke-width:1.5;" x1="471.5" x2="623.5" y1="725.3672" y2="725.3672"/><!--MD5=[1f6362a5c8f21d8d6a0fce68f3a92a4e]
class Parameter--><rect codeLine="55" fill="#FEFECE" filter="url(#f55midvs54s1u)" height="73.6094" id="Parameter" style="stroke:#A80036;stroke-width:1.5;" width="118" x="317.5" y="652.9531"/><ellipse cx="343.75" cy="668.9531" fill="#ADD1B2" rx="11" ry="11" style="stroke:#A80036;stroke-width:1.0;"/><path d="M346.0938,664.625 C345.1563,664.1875 344.5625,664.0469 343.6875,664.0469 C341.0625,664.0469 339.0625,666.125 339.0625,668.8438 L339.0625,669.9688 C339.0625,672.5469 341.1719,674.4375 344.0625,674.4375 C345.2813,674.4375 346.4375,674.1406 347.1875,673.5938 C347.7656,673.1875 348.0938,672.7344 348.0938,672.3438 C348.0938,671.8906 347.7031,671.5 347.2344,671.5 C347.0156,671.5 346.8125,671.5781 346.625,671.7656 C346.1719,672.25 346.1719,672.25 345.9844,672.3438 C345.5625,672.6094 344.875,672.7344 344.1094,672.7344 C342.0625,672.7344 340.7656,671.6406 340.7656,669.9375 L340.7656,668.8438 C340.7656,667.0625 342.0156,665.75 343.75,665.75 C344.3281,665.75 344.9375,665.9063 345.4063,666.1563 C345.8906,666.4375 346.0625,666.6563 346.1563,667.0625 C346.2188,667.4688 346.25,667.5938 346.3906,667.7188 C346.5313,667.8594 346.7656,667.9688 346.9844,667.9688 C347.25,667.9688 347.5156,667.8281 347.6875,667.6094 C347.7969,667.4531 347.8281,667.2656 347.8281,666.8438 L347.8281,665.4219 C347.8281,664.9844 347.8125,664.8594 347.7188,664.7031 C347.5625,664.4375 347.2813,664.2969 346.9844,664.2969 C346.6875,664.2969 346.4844,664.3906 346.2656,664.7031 L346.0938,664.625 Z " fill="#000000"/><text fill="#000000" font-family="sans-serif" font-size="12" lengthAdjust="spacing" textLength="61" x="360.25" y="673.1074">Parameter</text><line style="stroke:#A80036;stroke-width:1.5;" x1="318.5" x2="434.5" y1="684.9531" y2="684.9531"/><text fill="#000000" font-family="sans-serif" font-size="11" lengthAdjust="spacing" textLength="106" x="323.5" y="699.1636">String designation;</text><text fill="#000000" font-family="sans-serif" font-size="11" lengthAdjust="spacing" textLength="68" x="323.5" y="711.9683">String code;</text><line style="stroke:#A80036;stroke-width:1.5;" x1="318.5" x2="434.5" y1="718.5625" y2="718.5625"/><!--MD5=[36afb6bbd95a8ac778c4537c55a683d5]
class ParameterCategory--><rect codeLine="60" fill="#FEFECE" filter="url(#f55midvs54s1u)" height="86.4141" id="ParameterCategory" style="stroke:#A80036;stroke-width:1.5;" width="148" x="384.5" y="809.9531"/><ellipse cx="399.5" cy="825.9531" fill="#ADD1B2" rx="11" ry="11" style="stroke:#A80036;stroke-width:1.0;"/><path d="M401.8438,821.625 C400.9063,821.1875 400.3125,821.0469 399.4375,821.0469 C396.8125,821.0469 394.8125,823.125 394.8125,825.8438 L394.8125,826.9688 C394.8125,829.5469 396.9219,831.4375 399.8125,831.4375 C401.0313,831.4375 402.1875,831.1406 402.9375,830.5938 C403.5156,830.1875 403.8438,829.7344 403.8438,829.3438 C403.8438,828.8906 403.4531,828.5 402.9844,828.5 C402.7656,828.5 402.5625,828.5781 402.375,828.7656 C401.9219,829.25 401.9219,829.25 401.7344,829.3438 C401.3125,829.6094 400.625,829.7344 399.8594,829.7344 C397.8125,829.7344 396.5156,828.6406 396.5156,826.9375 L396.5156,825.8438 C396.5156,824.0625 397.7656,822.75 399.5,822.75 C400.0781,822.75 400.6875,822.9063 401.1563,823.1563 C401.6406,823.4375 401.8125,823.6563 401.9063,824.0625 C401.9688,824.4688 402,824.5938 402.1406,824.7188 C402.2813,824.8594 402.5156,824.9688 402.7344,824.9688 C403,824.9688 403.2656,824.8281 403.4375,824.6094 C403.5469,824.4531 403.5781,824.2656 403.5781,823.8438 L403.5781,822.4219 C403.5781,821.9844 403.5625,821.8594 403.4688,821.7031 C403.3125,821.4375 403.0313,821.2969 402.7344,821.2969 C402.4375,821.2969 402.2344,821.3906 402.0156,821.7031 L401.8438,821.625 Z " fill="#000000"/><text fill="#000000" font-family="sans-serif" font-size="12" lengthAdjust="spacing" textLength="116" x="413.5" y="830.1074">ParameterCategory</text><line style="stroke:#A80036;stroke-width:1.5;" x1="385.5" x2="531.5" y1="841.9531" y2="841.9531"/><text fill="#000000" font-family="sans-serif" font-size="11" lengthAdjust="spacing" textLength="68" x="390.5" y="856.1636">String code;</text><text fill="#000000" font-family="sans-serif" font-size="11" lengthAdjust="spacing" textLength="100" x="390.5" y="868.9683">string description;</text><text fill="#000000" font-family="sans-serif" font-size="11" lengthAdjust="spacing" textLength="76" x="390.5" y="881.7729">String NHSID;</text><line style="stroke:#A80036;stroke-width:1.5;" x1="385.5" x2="531.5" y1="888.3672" y2="888.3672"/><!--MD5=[e59bda2572a266093cda22ac34510ea0]
class Barcode--><rect codeLine="66" fill="#FEFECE" filter="url(#f55midvs54s1u)" height="48" id="Barcode" style="stroke:#A80036;stroke-width:1.5;" width="83" x="167" y="828.9531"/><ellipse cx="182" cy="844.9531" fill="#ADD1B2" rx="11" ry="11" style="stroke:#A80036;stroke-width:1.0;"/><path d="M184.3438,840.625 C183.4063,840.1875 182.8125,840.0469 181.9375,840.0469 C179.3125,840.0469 177.3125,842.125 177.3125,844.8438 L177.3125,845.9688 C177.3125,848.5469 179.4219,850.4375 182.3125,850.4375 C183.5313,850.4375 184.6875,850.1406 185.4375,849.5938 C186.0156,849.1875 186.3438,848.7344 186.3438,848.3438 C186.3438,847.8906 185.9531,847.5 185.4844,847.5 C185.2656,847.5 185.0625,847.5781 184.875,847.7656 C184.4219,848.25 184.4219,848.25 184.2344,848.3438 C183.8125,848.6094 183.125,848.7344 182.3594,848.7344 C180.3125,848.7344 179.0156,847.6406 179.0156,845.9375 L179.0156,844.8438 C179.0156,843.0625 180.2656,841.75 182,841.75 C182.5781,841.75 183.1875,841.9063 183.6563,842.1563 C184.1406,842.4375 184.3125,842.6563 184.4063,843.0625 C184.4688,843.4688 184.5,843.5938 184.6406,843.7188 C184.7813,843.8594 185.0156,843.9688 185.2344,843.9688 C185.5,843.9688 185.7656,843.8281 185.9375,843.6094 C186.0469,843.4531 186.0781,843.2656 186.0781,842.8438 L186.0781,841.4219 C186.0781,840.9844 186.0625,840.8594 185.9688,840.7031 C185.8125,840.4375 185.5313,840.2969 185.2344,840.2969 C184.9375,840.2969 184.7344,840.3906 184.5156,840.7031 L184.3438,840.625 Z " fill="#000000"/><text fill="#000000" font-family="sans-serif" font-size="12" lengthAdjust="spacing" textLength="51" x="196" y="849.1074">Barcode</text><line style="stroke:#A80036;stroke-width:1.5;" x1="168" x2="249" y1="860.9531" y2="860.9531"/><line style="stroke:#A80036;stroke-width:1.5;" x1="168" x2="249" y1="868.9531" y2="868.9531"/><!--MD5=[8f188b89eff49accb0f38c057b38a9f2]
class ExternalModule--><rect codeLine="67" fill="#FEFECE" filter="url(#f55midvs54s1u)" height="48" id="ExternalModule" style="stroke:#A80036;stroke-width:1.5;" width="124" x="146.5" y="972.9531"/><ellipse cx="161.5" cy="988.9531" fill="#ADD1B2" rx="11" ry="11" style="stroke:#A80036;stroke-width:1.0;"/><path d="M163.8438,984.625 C162.9063,984.1875 162.3125,984.0469 161.4375,984.0469 C158.8125,984.0469 156.8125,986.125 156.8125,988.8438 L156.8125,989.9688 C156.8125,992.5469 158.9219,994.4375 161.8125,994.4375 C163.0313,994.4375 164.1875,994.1406 164.9375,993.5938 C165.5156,993.1875 165.8438,992.7344 165.8438,992.3438 C165.8438,991.8906 165.4531,991.5 164.9844,991.5 C164.7656,991.5 164.5625,991.5781 164.375,991.7656 C163.9219,992.25 163.9219,992.25 163.7344,992.3438 C163.3125,992.6094 162.625,992.7344 161.8594,992.7344 C159.8125,992.7344 158.5156,991.6406 158.5156,989.9375 L158.5156,988.8438 C158.5156,987.0625 159.7656,985.75 161.5,985.75 C162.0781,985.75 162.6875,985.9063 163.1563,986.1563 C163.6406,986.4375 163.8125,986.6563 163.9063,987.0625 C163.9688,987.4688 164,987.5938 164.1406,987.7188 C164.2813,987.8594 164.5156,987.9688 164.7344,987.9688 C165,987.9688 165.2656,987.8281 165.4375,987.6094 C165.5469,987.4531 165.5781,987.2656 165.5781,986.8438 L165.5781,985.4219 C165.5781,984.9844 165.5625,984.8594 165.4688,984.7031 C165.3125,984.4375 165.0313,984.2969 164.7344,984.2969 C164.4375,984.2969 164.2344,984.3906 164.0156,984.7031 L163.8438,984.625 Z " fill="#000000"/><text fill="#000000" font-family="sans-serif" font-size="12" lengthAdjust="spacing" textLength="92" x="175.5" y="993.1074">ExternalModule</text><line style="stroke:#A80036;stroke-width:1.5;" x1="147.5" x2="269.5" y1="1004.9531" y2="1004.9531"/><line style="stroke:#A80036;stroke-width:1.5;" x1="147.5" x2="269.5" y1="1012.9531" y2="1012.9531"/><!--MD5=[09366576ee87d48d594df10cacc83f45]
link Company to Employee--><path codeLine="69" d="M308.283,87.5481 C268.418,107.6301 214.934,136.2581 170.5,165.9531 C164.572,169.9151 158.553,174.1981 152.601,178.6211 " fill="none" id="Company-Employee" style="stroke:#A80036;stroke-width:1.0;"/><polygon fill="#000000" points="245.1842,130.0442,254.4755,128.0138,251.5076,122.9403,245.1842,130.0442" style="stroke:#000000;stroke-width:1.0;"/><text fill="#000000" font-family="sans-serif" font-size="13" lengthAdjust="spacing" textLength="23" x="258.5" y="132.02">has</text><text fill="#000000" font-family="sans-serif" font-size="13" lengthAdjust="spacing" textLength="8" x="292.3114" y="87.4029">1</text><text fill="#000000" font-family="sans-serif" font-size="13" lengthAdjust="spacing" textLength="7" x="153.2305" y="167.9152">*</text><!--MD5=[7e4bc624457760b649895ff2ead938fa]
link Company to Test--><path codeLine="70" d="M373.132,89.0001 C375.088,98.5231 377.083,109.1491 378.5,118.9531 C391.273,207.3021 397.906,308.9591 401.264,380.8751 " fill="none" id="Company-Test" style="stroke:#A80036;stroke-width:1.0;"/><polygon fill="#000000" points="402.9797,239.9965,405.0373,230.7111,399.1865,231.2751,402.9797,239.9965" style="stroke:#000000;stroke-width:1.0;"/><text fill="#000000" font-family="sans-serif" font-size="13" lengthAdjust="spacing" textLength="59" x="411.5" y="239.52">performs</text><text fill="#000000" font-family="sans-serif" font-size="13" lengthAdjust="spacing" textLength="8" x="365.6749" y="108.9481">1</text><text fill="#000000" font-family="sans-serif" font-size="13" lengthAdjust="spacing" textLength="7" x="393.7272" y="369.8189">*</text><!--MD5=[6eee883fdf517d3604e8bd0f2058e9aa]
link Company to Client--><path codeLine="71" d="M349.876,89.0551 C338.08,110.0581 321.754,139.1281 306.819,165.7211 " fill="none" id="Company-Client" style="stroke:#A80036;stroke-width:1.0;"/><polygon fill="#000000" points="335.0516,131.8791,342.0432,125.4317,336.9183,122.5535,335.0516,131.8791" style="stroke:#000000;stroke-width:1.0;"/><text fill="#000000" font-family="sans-serif" font-size="13" lengthAdjust="spacing" textLength="23" x="346.5" y="132.02">has</text><text fill="#000000" font-family="sans-serif" font-size="13" lengthAdjust="spacing" textLength="8" x="337.6223" y="109.0144">1</text><text fill="#000000" font-family="sans-serif" font-size="13" lengthAdjust="spacing" textLength="7" x="303.4097" y="154.9008">*</text><!--MD5=[742a261f27a3dcd734c626287d811acd]
link Company to TestType--><path codeLine="72" d="M410.376,88.9921 C434.893,107.9741 463.623,134.8621 479.5,165.9531 C562.369,328.2281 557.493,554.2461 551.213,646.8491 " fill="none" id="Company-TestType" style="stroke:#A80036;stroke-width:1.0;"/><polygon fill="#000000" points="543.7239,347.3674,544.3594,337.8781,538.6603,339.3169,543.7239,347.3674" style="stroke:#000000;stroke-width:1.0;"/><text fill="#000000" font-family="sans-serif" font-size="13" lengthAdjust="spacing" textLength="58" x="551.5" y="347.02">conducts</text><text fill="#000000" font-family="sans-serif" font-size="13" lengthAdjust="spacing" textLength="8" x="410.6004" y="108.9384">1</text><text fill="#000000" font-family="sans-serif" font-size="13" lengthAdjust="spacing" textLength="7" x="544.2469" y="635.8286">*</text><!--MD5=[8c76900db13228c02bafda6909b4bb57]
reverse link Employee to MedicalLabTechnician--><path codeLine="73" d="M123.86,308.9881 C148.82,357.7841 180.028,418.7931 196.702,451.3891 " fill="none" id="Employee-backto-MedicalLabTechnician" style="stroke:#A80036;stroke-width:1.0;"/><polygon fill="none" points="117.519,311.9631,114.642,290.9691,129.983,305.5871,117.519,311.9631" style="stroke:#A80036;stroke-width:1.0;"/><!--MD5=[22fb9506fac029fc1d2ae00f0eb8d606]
link Employee to User--><path codeLine="74" d="M66.2849,291.0301 C61.9853,304.8661 57.9943,319.8061 55.5,333.9531 C48.8231,371.8221 48.0908,416.2751 48.5158,444.8781 " fill="none" id="Employee-User" style="stroke:#A80036;stroke-width:1.0;"/><polygon fill="#000000" points="59.9263,347.4865,63.8836,338.8384,58.0446,338.164,59.9263,347.4865" style="stroke:#000000;stroke-width:1.0;"/><text fill="#000000" font-family="sans-serif" font-size="13" lengthAdjust="spacing" textLength="46" x="69.5" y="347.02">acts as</text><text fill="#000000" font-family="sans-serif" font-size="13" lengthAdjust="spacing" textLength="24" x="38.3587" y="310.8521">0..1</text><text fill="#000000" font-family="sans-serif" font-size="13" lengthAdjust="spacing" textLength="8" x="39.4255" y="433.652">1</text><!--MD5=[0a29b4543c1af9e8341b856b8b8ec05c]
link MedicalLabTechnician to Sample--><path codeLine="75" d="M208.133,499.8211 C207.741,527.7031 207.214,575.7301 207.5,616.9531 C207.596,630.8291 207.797,646.2081 207.994,659.1781 " fill="none" id="MedicalLabTechnician-Sample" style="stroke:#A80036;stroke-width:1.0;"/><polygon fill="#000000" points="212.4956,613.5195,215.4425,604.477,209.5646,604.4719,212.4956,613.5195" style="stroke:#000000;stroke-width:1.0;"/><text fill="#000000" font-family="sans-serif" font-size="13" lengthAdjust="spacing" textLength="48" x="221.5" y="613.02">records</text><text fill="#000000" font-family="sans-serif" font-size="13" lengthAdjust="spacing" textLength="8" x="199.0685" y="519.672">1</text><text fill="#000000" font-family="sans-serif" font-size="13" lengthAdjust="spacing" textLength="7" x="200.1678" y="648.3846">*</text><!--MD5=[b72ac8ab7fb5921fceb5036a3902baea]
link Test to Sample--><path codeLine="76" d="M324.779,562.8851 C293.196,597.1271 258.987,634.2161 235.908,659.2381 " fill="none" id="Test-Sample" style="stroke:#A80036;stroke-width:1.0;"/><polygon fill="#000000" points="291.11,612.1949,299.4028,607.5387,295.0822,603.5535,291.11,612.1949" style="stroke:#000000;stroke-width:1.0;"/><text fill="#000000" font-family="sans-serif" font-size="13" lengthAdjust="spacing" textLength="23" x="303.5" y="613.02">has</text><text fill="#000000" font-family="sans-serif" font-size="13" lengthAdjust="spacing" textLength="8" x="309.061" y="567.3337">1</text><text fill="#000000" font-family="sans-serif" font-size="13" lengthAdjust="spacing" textLength="7" x="233.839" y="648.457">*</text><!--MD5=[e981d4f96c4342412d1e68160b30cf70]
link Test to TestType--><path codeLine="77" d="M449.115,570.1011 C458.096,586.2021 468.023,602.4151 478.5,616.9531 C485.889,627.2071 494.675,637.4671 503.46,646.8971 " fill="none" id="Test-TestType" style="stroke:#A80036;stroke-width:1.0;"/><polygon fill="#000000" points="486.3882,612.601,483.5624,603.5199,478.7644,606.9153,486.3882,612.601" style="stroke:#000000;stroke-width:1.0;"/><text fill="#000000" font-family="sans-serif" font-size="13" lengthAdjust="spacing" textLength="27" x="492.5" y="613.02">is of</text><text fill="#000000" font-family="sans-serif" font-size="13" lengthAdjust="spacing" textLength="8" x="444.2246" y="589.9995">1</text><text fill="#000000" font-family="sans-serif" font-size="13" lengthAdjust="spacing" textLength="8" x="487.8036" y="635.8842">1</text><!--MD5=[327391d6abe62f0446af3ffbf41cf7ec]
link Sample to Barcode--><path codeLine="78" d="M208.5,720.4831 C208.5,751.7111 208.5,800.3241 208.5,828.8641 " fill="none" id="Sample-Barcode" style="stroke:#A80036;stroke-width:1.0;"/><polygon fill="#000000" points="213.5,776.5195,216.4389,767.4744,210.5611,767.4744,213.5,776.5195" style="stroke:#000000;stroke-width:1.0;"/><text fill="#000000" font-family="sans-serif" font-size="13" lengthAdjust="spacing" textLength="54" x="222.5" y="776.02">contains</text><text fill="#000000" font-family="sans-serif" font-size="13" lengthAdjust="spacing" textLength="8" x="199.675" y="740.4275">1</text><text fill="#000000" font-family="sans-serif" font-size="13" lengthAdjust="spacing" textLength="8" x="199.475" y="817.8534">1</text><!--MD5=[cc5aeedf404d54152ebbf0563b727a0d]
link Barcode to ExternalModule--><path codeLine="79" d="M208.5,877.0841 C208.5,903.4901 208.5,946.4306 208.5,972.8322 " fill="none" id="Barcode-ExternalModule" style="stroke:#A80036;stroke-width:1.0;"/><polygon fill="#000000" points="213.5,939.5195,216.4389,930.4744,210.5611,930.4744,213.5,939.5195" style="stroke:#000000;stroke-width:1.0;"/><text fill="#000000" font-family="sans-serif" font-size="13" lengthAdjust="spacing" textLength="86" x="222.5" y="939.02">generated by</text><text fill="#000000" font-family="sans-serif" font-size="13" lengthAdjust="spacing" textLength="7" x="200.6469" y="896.8773">*</text><text fill="#000000" font-family="sans-serif" font-size="13" lengthAdjust="spacing" textLength="8" x="199.475" y="961.8133">1</text><!--MD5=[502b51bc079239060389dab43b7d3470]
link Client to Test--><path codeLine="80" d="M307.29,303.9781 C320.873,327.7981 336.375,354.9831 350.949,380.5411 " fill="none" id="Client-Test" style="stroke:#A80036;stroke-width:1.0;"/><polygon fill="#000000" points="339.9768,346.863,338.0492,337.5498,332.9432,340.4614,339.9768,346.863" style="stroke:#000000;stroke-width:1.0;"/><text fill="#000000" font-family="sans-serif" font-size="13" lengthAdjust="spacing" textLength="43" x="346.5" y="347.02">does a</text><text fill="#000000" font-family="sans-serif" font-size="13" lengthAdjust="spacing" textLength="8" x="302.7146" y="323.6026">1</text><text fill="#000000" font-family="sans-serif" font-size="13" lengthAdjust="spacing" textLength="7" x="339.581" y="369.7779">*</text><!--MD5=[e52cd98f5e4db129e41a52bcc4458335]
link Client to MedicalLabTechnician--><path codeLine="81" d="M218.035,303.9641 C212.907,313.6331 208.492,323.7651 205.5,333.9531 C193.812,373.7491 198.97,422.6481 203.755,451.0121 " fill="none" id="Client-MedicalLabTechnician" style="stroke:#A80036;stroke-width:1.0;"/><polygon fill="#000000" points="210.0167,347.4961,213.8161,338.7775,207.9658,338.2093,210.0167,347.4961" style="stroke:#000000;stroke-width:1.0;"/><text fill="#000000" font-family="sans-serif" font-size="13" lengthAdjust="spacing" textLength="75" x="219.5" y="347.02">is tested by</text><text fill="#000000" font-family="sans-serif" font-size="13" lengthAdjust="spacing" textLength="7" x="205.7228" y="323.5872">*</text><text fill="#000000" font-family="sans-serif" font-size="13" lengthAdjust="spacing" textLength="8" x="193.6234" y="440.3096">1</text><!--MD5=[c23963f6e403fc3ebec8dae22c30ade6]
link Test to Parameter--><path codeLine="82" d="M392.178,569.9681 C388.305,599.3641 384.257,630.0801 381.245,652.9391 " fill="none" id="Test-Parameter" style="stroke:#A80036;stroke-width:1.0;"/><polygon fill="#000000" points="392.8468,613.4767,396.9422,604.8931,391.1147,604.1252,392.8468,613.4767" style="stroke:#000000;stroke-width:1.0;"/><text fill="#000000" font-family="sans-serif" font-size="13" lengthAdjust="spacing" textLength="23" x="402.5" y="613.02">has</text><text fill="#000000" font-family="sans-serif" font-size="13" lengthAdjust="spacing" textLength="8" x="382.9283" y="589.8563">1</text><text fill="#000000" font-family="sans-serif" font-size="13" lengthAdjust="spacing" textLength="23" x="356.9995" y="641.847">1..*</text><!--MD5=[6df8849671cb880f6936e94aa30db6f9]
link Parameter to ParameterCategory--><path codeLine="83" d="M371.995,727.0951 C371.406,743.8841 372.937,763.6831 380.5,779.9531 C385.55,790.8161 393.063,800.8041 401.465,809.6611 " fill="none" id="Parameter-ParameterCategory" style="stroke:#A80036;stroke-width:1.0;"/><polygon fill="#000000" points="387.1808,776.2286,386.9081,766.7219,381.3723,768.6978,387.1808,776.2286" style="stroke:#000000;stroke-width:1.0;"/><text fill="#000000" font-family="sans-serif" font-size="13" lengthAdjust="spacing" textLength="106" x="394.5" y="776.02">presented under</text><text fill="#000000" font-family="sans-serif" font-size="13" lengthAdjust="spacing" textLength="7" x="363.6692" y="746.5992">*</text><text fill="#000000" font-family="sans-serif" font-size="13" lengthAdjust="spacing" textLength="8" x="384.119" y="798.929">1</text><!--MD5=[8aaf0efd5e2f3824be7ea3e488dcc283]
link TestType to ParameterCategory--><path codeLine="84" d="M529.005,733.2071 C522.067,748.1961 513.835,765.0391 505.5,779.9531 C499.965,789.8561 493.575,800.2251 487.324,809.9101 " fill="none" id="TestType-ParameterCategory" style="stroke:#A80036;stroke-width:1.0;"/><polygon fill="#000000" points="517.1127,775.9128,524.0137,769.3686,518.8491,766.5621,517.1127,775.9128" style="stroke:#000000;stroke-width:1.0;"/><text fill="#000000" font-family="sans-serif" font-size="13" lengthAdjust="spacing" textLength="77" x="528.5" y="776.02">measure by</text><text fill="#000000" font-family="sans-serif" font-size="13" lengthAdjust="spacing" textLength="7" x="518.4995" y="753.3405">*</text><text fill="#000000" font-family="sans-serif" font-size="13" lengthAdjust="spacing" textLength="7" x="484.36" y="798.8993">*</text><!--MD5=[d956a114a0b15515204b16cd5bb28503]
@startuml
title UC5 - Class Diagram

class Company {
    string designation;
}

class Employee {
    String employeeID;
    String name;
    String address;
    String phoneNumber;
    String codeSOC;
}

class MedicalLabTechnician

class User {
  String name;
}

class Test {
    String code;
    String NHSCode;
    String description;
    String dateSample;
    String timeSmaple;
    String dateChemAnalysis;
    String timeChemAnalysis;
    String dateDiagnosis;
    String timeDiagnosis;
    String dateValidTest;
    String timeValidTest;
}

class Sample {
    String number_barcode;
}

class Client {
    String citizenCardNumber;
    String numberNHS;
    String numberTIN;
    String birthDate;
    string sex;
    String phoneNumber;
    string name;
}

class TestType {
    String designation;
    String code;
    String collectingMethods;
}

class Parameter {
    String designation;
    String code;
}

class ParameterCategory {
    String code;
    string description;
    String NHSID;
}

class Barcode
class ExternalModule

Company "1" - - "*" Employee: has >
Company "1" - - "*" Test: performs >
Company "1" - - "*" Client: has >
Company "1" - - "*" TestType: conducts >
Employee <|- - MedicalLabTechnician
Employee "0..1" - - "1" User: acts as >
MedicalLabTechnician "1" - - "*" Sample: records >
Test"1" - - "*" Sample: has >
Test "1" - - "1" TestType: is of >
Sample "1" - - "1" Barcode: contains >
Barcode "*" - - "1" ExternalModule : generated by >
Client "1" - - "*" Test: does a >
Client "*" - - "1" MedicalLabTechnician: is tested by >
Test "1" - - "1..*" Parameter: has >
Parameter "*" - - "1" ParameterCategory: presented under >
TestType "*" - - "*"  ParameterCategory: measure by >
@enduml

PlantUML version 1.2021.7(Sun May 23 12:40:07 UTC 2021)
(GPL source distribution)
Java Runtime: Java(TM) SE Runtime Environment
JVM: Java HotSpot(TM) 64-Bit Server VM
Default Encoding: UTF-8
Language: en
Country: US
--></g></svg>