<?xml version="1.0" encoding="UTF-8" standalone="no"?><svg xmlns="http://www.w3.org/2000/svg" xmlns:xlink="http://www.w3.org/1999/xlink" contentScriptType="application/ecmascript" contentStyleType="text/css" height="795px" preserveAspectRatio="none" style="width:572px;height:795px;background:#FFFFFF;" version="1.1" viewBox="0 0 572 795" width="572px" zoomAndPan="magnify"><defs><filter height="300%" id="f10veqj5ah3jyr" width="300%" x="-1" y="-1"><feGaussianBlur result="blurOut" stdDeviation="2.0"/><feColorMatrix in="blurOut" result="blurOut2" type="matrix" values="0 0 0 0 0 0 0 0 0 0 0 0 0 0 0 0 0 0 .4 0"/><feOffset dx="4.0" dy="4.0" in="blurOut2" result="blurOut3"/><feBlend in="SourceGraphic" in2="blurOut3" mode="normal"/></filter></defs><g><!--MD5=[1934a092c0e7d4da7dc7075b6f4b6b03]
class ClinicalAnalysisLaboratory--><rect codeLine="3" fill="#FEFECE" filter="url(#f10veqj5ah3jyr)" height="124.8281" id="ClinicalAnalysisLaboratory" style="stroke:#A80036;stroke-width:1.5;" width="361" x="27" y="657"/><ellipse cx="125.75" cy="673" fill="#ADD1B2" rx="11" ry="11" style="stroke:#A80036;stroke-width:1.0;"/><path d="M128.0938,668.6719 C127.1563,668.2344 126.5625,668.0938 125.6875,668.0938 C123.0625,668.0938 121.0625,670.1719 121.0625,672.8906 L121.0625,674.0156 C121.0625,676.5938 123.1719,678.4844 126.0625,678.4844 C127.2813,678.4844 128.4375,678.1875 129.1875,677.6406 C129.7656,677.2344 130.0938,676.7813 130.0938,676.3906 C130.0938,675.9375 129.7031,675.5469 129.2344,675.5469 C129.0156,675.5469 128.8125,675.625 128.625,675.8125 C128.1719,676.2969 128.1719,676.2969 127.9844,676.3906 C127.5625,676.6563 126.875,676.7813 126.1094,676.7813 C124.0625,676.7813 122.7656,675.6875 122.7656,673.9844 L122.7656,672.8906 C122.7656,671.1094 124.0156,669.7969 125.75,669.7969 C126.3281,669.7969 126.9375,669.9531 127.4063,670.2031 C127.8906,670.4844 128.0625,670.7031 128.1563,671.1094 C128.2188,671.5156 128.25,671.6406 128.3906,671.7656 C128.5313,671.9063 128.7656,672.0156 128.9844,672.0156 C129.25,672.0156 129.5156,671.875 129.6875,671.6563 C129.7969,671.5 129.8281,671.3125 129.8281,670.8906 L129.8281,669.4688 C129.8281,669.0313 129.8125,668.9063 129.7188,668.75 C129.5625,668.4844 129.2813,668.3438 128.9844,668.3438 C128.6875,668.3438 128.4844,668.4375 128.2656,668.75 L128.0938,668.6719 Z " fill="#000000"/><text fill="#000000" font-family="sans-serif" font-size="12" lengthAdjust="spacing" textLength="155" x="146.25" y="677.1543">ClinicalAnalysisLaboratory</text><line style="stroke:#A80036;stroke-width:1.5;" x1="28" x2="387" y1="689" y2="689"/><text fill="#000000" font-family="sans-serif" font-size="11" lengthAdjust="spacing" textLength="110" x="33" y="703.2104">-String laboratoryID</text><text fill="#000000" font-family="sans-serif" font-size="11" lengthAdjust="spacing" textLength="74" x="33" y="716.0151">-String name</text><text fill="#000000" font-family="sans-serif" font-size="11" lengthAdjust="spacing" textLength="79" x="33" y="728.8198">-String adress</text><text fill="#000000" font-family="sans-serif" font-size="11" lengthAdjust="spacing" textLength="103" x="33" y="741.6245">-int phoneNumber</text><text fill="#000000" font-family="sans-serif" font-size="11" lengthAdjust="spacing" textLength="84" x="33" y="754.4292">-int numberTIN</text><line style="stroke:#A80036;stroke-width:1.5;" x1="28" x2="387" y1="761.0234" y2="761.0234"/><text fill="#000000" font-family="sans-serif" font-size="11" lengthAdjust="spacing" textLength="349" x="33" y="775.2339">+create(laboratoryID,name,adress,phoneNumber,numberTIN)</text><!--MD5=[eeaa54ee0aa678e9ddb3a2f87e018790]
class RegisterClinicalStore--><rect codeLine="11" fill="#FEFECE" filter="url(#f10veqj5ah3jyr)" height="112.0234" id="RegisterClinicalStore" style="stroke:#A80036;stroke-width:1.5;" width="401" x="7" y="485"/><ellipse cx="141.25" cy="501" fill="#ADD1B2" rx="11" ry="11" style="stroke:#A80036;stroke-width:1.0;"/><path d="M143.5938,496.6719 C142.6563,496.2344 142.0625,496.0938 141.1875,496.0938 C138.5625,496.0938 136.5625,498.1719 136.5625,500.8906 L136.5625,502.0156 C136.5625,504.5938 138.6719,506.4844 141.5625,506.4844 C142.7813,506.4844 143.9375,506.1875 144.6875,505.6406 C145.2656,505.2344 145.5938,504.7813 145.5938,504.3906 C145.5938,503.9375 145.2031,503.5469 144.7344,503.5469 C144.5156,503.5469 144.3125,503.625 144.125,503.8125 C143.6719,504.2969 143.6719,504.2969 143.4844,504.3906 C143.0625,504.6563 142.375,504.7813 141.6094,504.7813 C139.5625,504.7813 138.2656,503.6875 138.2656,501.9844 L138.2656,500.8906 C138.2656,499.1094 139.5156,497.7969 141.25,497.7969 C141.8281,497.7969 142.4375,497.9531 142.9063,498.2031 C143.3906,498.4844 143.5625,498.7031 143.6563,499.1094 C143.7188,499.5156 143.75,499.6406 143.8906,499.7656 C144.0313,499.9063 144.2656,500.0156 144.4844,500.0156 C144.75,500.0156 145.0156,499.875 145.1875,499.6563 C145.2969,499.5 145.3281,499.3125 145.3281,498.8906 L145.3281,497.4688 C145.3281,497.0313 145.3125,496.9063 145.2188,496.75 C145.0625,496.4844 144.7813,496.3438 144.4844,496.3438 C144.1875,496.3438 143.9844,496.4375 143.7656,496.75 L143.5938,496.6719 Z " fill="#000000"/><text fill="#000000" font-family="sans-serif" font-size="12" lengthAdjust="spacing" textLength="124" x="161.75" y="505.1543">RegisterClinicalStore</text><line style="stroke:#A80036;stroke-width:1.5;" x1="8" x2="407" y1="517" y2="517"/><line style="stroke:#A80036;stroke-width:1.5;" x1="8" x2="407" y1="525" y2="525"/><text fill="#000000" font-family="sans-serif" font-size="11" lengthAdjust="spacing" textLength="69" x="13" y="539.2104">-clinicalList()</text><text fill="#000000" font-family="sans-serif" font-size="11" lengthAdjust="spacing" textLength="389" x="13" y="552.0151">+createClinical(laboratoryID,name,phoneNumber,numberTIN,adress)</text><text fill="#000000" font-family="sans-serif" font-size="11" lengthAdjust="spacing" textLength="112" x="13" y="564.8198">+validateClinical(cl)</text><text fill="#000000" font-family="sans-serif" font-size="11" lengthAdjust="spacing" textLength="94" x="13" y="577.6245">+saveClinical(cl)</text><text fill="#000000" font-family="sans-serif" font-size="11" lengthAdjust="spacing" textLength="94" x="13" y="590.4292">+existsSame(cl)</text><!--MD5=[aeb3272166074d8737a70b61b1e71682]
class TestType--><rect codeLine="20" fill="#FEFECE" filter="url(#f10veqj5ah3jyr)" height="86.4141" id="TestType" style="stroke:#A80036;stroke-width:1.5;" width="115" x="443" y="498"/><ellipse cx="470.15" cy="514" fill="#ADD1B2" rx="11" ry="11" style="stroke:#A80036;stroke-width:1.0;"/><path d="M472.4938,509.6719 C471.5563,509.2344 470.9625,509.0938 470.0875,509.0938 C467.4625,509.0938 465.4625,511.1719 465.4625,513.8906 L465.4625,515.0156 C465.4625,517.5938 467.5719,519.4844 470.4625,519.4844 C471.6813,519.4844 472.8375,519.1875 473.5875,518.6406 C474.1656,518.2344 474.4938,517.7813 474.4938,517.3906 C474.4938,516.9375 474.1031,516.5469 473.6344,516.5469 C473.4156,516.5469 473.2125,516.625 473.025,516.8125 C472.5719,517.2969 472.5719,517.2969 472.3844,517.3906 C471.9625,517.6563 471.275,517.7813 470.5094,517.7813 C468.4625,517.7813 467.1656,516.6875 467.1656,514.9844 L467.1656,513.8906 C467.1656,512.1094 468.4156,510.7969 470.15,510.7969 C470.7281,510.7969 471.3375,510.9531 471.8063,511.2031 C472.2906,511.4844 472.4625,511.7031 472.5563,512.1094 C472.6188,512.5156 472.65,512.6406 472.7906,512.7656 C472.9313,512.9063 473.1656,513.0156 473.3844,513.0156 C473.65,513.0156 473.9156,512.875 474.0875,512.6563 C474.1969,512.5 474.2281,512.3125 474.2281,511.8906 L474.2281,510.4688 C474.2281,510.0313 474.2125,509.9063 474.1188,509.75 C473.9625,509.4844 473.6813,509.3438 473.3844,509.3438 C473.0875,509.3438 472.8844,509.4375 472.6656,509.75 L472.4938,509.6719 Z " fill="#000000"/><text fill="#000000" font-family="sans-serif" font-size="12" lengthAdjust="spacing" textLength="56" x="486.85" y="518.1543">TestType</text><line style="stroke:#A80036;stroke-width:1.5;" x1="444" x2="557" y1="530" y2="530"/><text fill="#000000" font-family="sans-serif" font-size="11" lengthAdjust="spacing" textLength="51" x="449" y="544.2104">-String id</text><text fill="#000000" font-family="sans-serif" font-size="11" lengthAdjust="spacing" textLength="103" x="449" y="557.0151">-String description</text><line style="stroke:#A80036;stroke-width:1.5;" x1="444" x2="557" y1="563.6094" y2="563.6094"/><text fill="#000000" font-family="sans-serif" font-size="11" lengthAdjust="spacing" textLength="90" x="449" y="577.8198">+getTestType()</text><!--MD5=[02e4b9b7573f1156f41e60aa5b4e25a4]
class Company--><rect codeLine="27" fill="#FEFECE" filter="url(#f10veqj5ah3jyr)" height="112.0234" id="Company" style="stroke:#A80036;stroke-width:1.5;" width="166" x="270.5" y="313"/><ellipse cx="321.25" cy="329" fill="#ADD1B2" rx="11" ry="11" style="stroke:#A80036;stroke-width:1.0;"/><path d="M323.5938,324.6719 C322.6563,324.2344 322.0625,324.0938 321.1875,324.0938 C318.5625,324.0938 316.5625,326.1719 316.5625,328.8906 L316.5625,330.0156 C316.5625,332.5938 318.6719,334.4844 321.5625,334.4844 C322.7813,334.4844 323.9375,334.1875 324.6875,333.6406 C325.2656,333.2344 325.5938,332.7813 325.5938,332.3906 C325.5938,331.9375 325.2031,331.5469 324.7344,331.5469 C324.5156,331.5469 324.3125,331.625 324.125,331.8125 C323.6719,332.2969 323.6719,332.2969 323.4844,332.3906 C323.0625,332.6563 322.375,332.7813 321.6094,332.7813 C319.5625,332.7813 318.2656,331.6875 318.2656,329.9844 L318.2656,328.8906 C318.2656,327.1094 319.5156,325.7969 321.25,325.7969 C321.8281,325.7969 322.4375,325.9531 322.9063,326.2031 C323.3906,326.4844 323.5625,326.7031 323.6563,327.1094 C323.7188,327.5156 323.75,327.6406 323.8906,327.7656 C324.0313,327.9063 324.2656,328.0156 324.4844,328.0156 C324.75,328.0156 325.0156,327.875 325.1875,327.6563 C325.2969,327.5 325.3281,327.3125 325.3281,326.8906 L325.3281,325.4688 C325.3281,325.0313 325.3125,324.9063 325.2188,324.75 C325.0625,324.4844 324.7813,324.3438 324.4844,324.3438 C324.1875,324.3438 323.9844,324.4375 323.7656,324.75 L323.5938,324.6719 Z " fill="#000000"/><text fill="#000000" font-family="sans-serif" font-size="12" lengthAdjust="spacing" textLength="56" x="341.75" y="333.1543">Company</text><line style="stroke:#A80036;stroke-width:1.5;" x1="271.5" x2="435.5" y1="345" y2="345"/><text fill="#000000" font-family="sans-serif" font-size="11" lengthAdjust="spacing" textLength="107" x="276.5" y="359.2104">-String designation</text><line style="stroke:#A80036;stroke-width:1.5;" x1="271.5" x2="435.5" y1="365.8047" y2="365.8047"/><text fill="#000000" font-family="sans-serif" font-size="11" lengthAdjust="spacing" textLength="82" x="276.5" y="380.0151">-testTypeList()</text><text fill="#000000" font-family="sans-serif" font-size="11" lengthAdjust="spacing" textLength="69" x="276.5" y="392.8198">-clinicalList()</text><text fill="#000000" font-family="sans-serif" font-size="11" lengthAdjust="spacing" textLength="154" x="276.5" y="405.6245">+getRegisterClinicalStore()</text><text fill="#000000" font-family="sans-serif" font-size="11" lengthAdjust="spacing" textLength="96" x="276.5" y="418.4292">+getTestTypes()</text><!--MD5=[3e01155a07e9a1f759be5f2352b515e8]
class RegisterClinicalAnalysisLaboratoryController--><rect codeLine="35" fill="#FEFECE" filter="url(#f10veqj5ah3jyr)" height="137.6328" id="RegisterClinicalAnalysisLaboratoryController" style="stroke:#A80036;stroke-width:1.5;" width="401" x="153" y="115"/><ellipse cx="217.25" cy="131" fill="#ADD1B2" rx="11" ry="11" style="stroke:#A80036;stroke-width:1.0;"/><path d="M219.5938,126.6719 C218.6563,126.2344 218.0625,126.0938 217.1875,126.0938 C214.5625,126.0938 212.5625,128.1719 212.5625,130.8906 L212.5625,132.0156 C212.5625,134.5938 214.6719,136.4844 217.5625,136.4844 C218.7813,136.4844 219.9375,136.1875 220.6875,135.6406 C221.2656,135.2344 221.5938,134.7813 221.5938,134.3906 C221.5938,133.9375 221.2031,133.5469 220.7344,133.5469 C220.5156,133.5469 220.3125,133.625 220.125,133.8125 C219.6719,134.2969 219.6719,134.2969 219.4844,134.3906 C219.0625,134.6563 218.375,134.7813 217.6094,134.7813 C215.5625,134.7813 214.2656,133.6875 214.2656,131.9844 L214.2656,130.8906 C214.2656,129.1094 215.5156,127.7969 217.25,127.7969 C217.8281,127.7969 218.4375,127.9531 218.9063,128.2031 C219.3906,128.4844 219.5625,128.7031 219.6563,129.1094 C219.7188,129.5156 219.75,129.6406 219.8906,129.7656 C220.0313,129.9063 220.2656,130.0156 220.4844,130.0156 C220.75,130.0156 221.0156,129.875 221.1875,129.6563 C221.2969,129.5 221.3281,129.3125 221.3281,128.8906 L221.3281,127.4688 C221.3281,127.0313 221.3125,126.9063 221.2188,126.75 C221.0625,126.4844 220.7813,126.3438 220.4844,126.3438 C220.1875,126.3438 219.9844,126.4375 219.7656,126.75 L219.5938,126.6719 Z " fill="#000000"/><text fill="#000000" font-family="sans-serif" font-size="12" lengthAdjust="spacing" textLength="264" x="237.75" y="135.1543">RegisterClinicalAnalysisLaboratoryController</text><line style="stroke:#A80036;stroke-width:1.5;" x1="154" x2="553" y1="147" y2="147"/><text fill="#000000" font-family="sans-serif" font-size="11" lengthAdjust="spacing" textLength="114" x="159" y="161.2104">-Company company</text><text fill="#000000" font-family="sans-serif" font-size="11" lengthAdjust="spacing" textLength="155" x="159" y="174.0151">-RegisterClinicalStore store</text><text fill="#000000" font-family="sans-serif" font-size="11" lengthAdjust="spacing" textLength="164" x="159" y="186.8198">-ClinicalAnalysisLaboratory cl</text><line style="stroke:#A80036;stroke-width:1.5;" x1="154" x2="553" y1="193.4141" y2="193.4141"/><text fill="#000000" font-family="sans-serif" font-size="11" lengthAdjust="spacing" textLength="103" x="159" y="207.6245">+fillTestTypeList()</text><text fill="#000000" font-family="sans-serif" font-size="11" lengthAdjust="spacing" textLength="58" x="159" y="220.4292">+testList()</text><text fill="#000000" font-family="sans-serif" font-size="11" lengthAdjust="spacing" textLength="389" x="159" y="233.2339">+createClinical(laboratoryID,name,phoneNumber,numberTIN,adress)</text><text fill="#000000" font-family="sans-serif" font-size="11" lengthAdjust="spacing" textLength="192" x="159" y="246.0386">+saveClinicalAnalysisLaboratory()</text><!--MD5=[ca0899f9675cbde0ca144787fef7895c]
class RegisterClinicalAnalysisLaboratoryUI--><rect codeLine="45" fill="#FEFECE" filter="url(#f10veqj5ah3jyr)" height="48" id="RegisterClinicalAnalysisLaboratoryUI" style="stroke:#A80036;stroke-width:1.5;" width="249" x="229" y="7"/><ellipse cx="244" cy="23" fill="#ADD1B2" rx="11" ry="11" style="stroke:#A80036;stroke-width:1.0;"/><path d="M246.3438,18.6719 C245.4063,18.2344 244.8125,18.0938 243.9375,18.0938 C241.3125,18.0938 239.3125,20.1719 239.3125,22.8906 L239.3125,24.0156 C239.3125,26.5938 241.4219,28.4844 244.3125,28.4844 C245.5313,28.4844 246.6875,28.1875 247.4375,27.6406 C248.0156,27.2344 248.3438,26.7813 248.3438,26.3906 C248.3438,25.9375 247.9531,25.5469 247.4844,25.5469 C247.2656,25.5469 247.0625,25.625 246.875,25.8125 C246.4219,26.2969 246.4219,26.2969 246.2344,26.3906 C245.8125,26.6563 245.125,26.7813 244.3594,26.7813 C242.3125,26.7813 241.0156,25.6875 241.0156,23.9844 L241.0156,22.8906 C241.0156,21.1094 242.2656,19.7969 244,19.7969 C244.5781,19.7969 245.1875,19.9531 245.6563,20.2031 C246.1406,20.4844 246.3125,20.7031 246.4063,21.1094 C246.4688,21.5156 246.5,21.6406 246.6406,21.7656 C246.7813,21.9063 247.0156,22.0156 247.2344,22.0156 C247.5,22.0156 247.7656,21.875 247.9375,21.6563 C248.0469,21.5 248.0781,21.3125 248.0781,20.8906 L248.0781,19.4688 C248.0781,19.0313 248.0625,18.9063 247.9688,18.75 C247.8125,18.4844 247.5313,18.3438 247.2344,18.3438 C246.9375,18.3438 246.7344,18.4375 246.5156,18.75 L246.3438,18.6719 Z " fill="#000000"/><text fill="#000000" font-family="sans-serif" font-size="12" lengthAdjust="spacing" textLength="217" x="258" y="27.1543">RegisterClinicalAnalysisLaboratoryUI</text><line style="stroke:#A80036;stroke-width:1.5;" x1="230" x2="477" y1="39" y2="39"/><line style="stroke:#A80036;stroke-width:1.5;" x1="230" x2="477" y1="47" y2="47"/><!--MD5=[8ee9cf4f678b85e75633146633dfa0d9]
link RegisterClinicalAnalysisLaboratoryUI to RegisterClinicalAnalysisLaboratoryController--><path codeLine="49" d="M353.5,55.263 C353.5,70.058 353.5,90.103 353.5,109.925 " fill="none" id="RegisterClinicalAnalysisLaboratoryUI-to-RegisterClinicalAnalysisLaboratoryController" style="stroke:#A80036;stroke-width:1.0;stroke-dasharray:7.0,7.0;"/><polygon fill="#A80036" points="353.5,114.956,357.5,105.956,353.5,109.956,349.5,105.956,353.5,114.956" style="stroke:#A80036;stroke-width:1.0;"/><!--MD5=[d3f5f524c9a4d018bf7e8a86fcb7b20f]
link RegisterClinicalAnalysisLaboratoryController to Company--><path codeLine="50" d="M353.5,253.142 C353.5,271.009 353.5,290.148 353.5,307.579 " fill="none" id="RegisterClinicalAnalysisLaboratoryController-to-Company" style="stroke:#A80036;stroke-width:1.0;stroke-dasharray:7.0,7.0;"/><polygon fill="#A80036" points="353.5,312.931,357.5,303.931,353.5,307.931,349.5,303.931,353.5,312.931" style="stroke:#A80036;stroke-width:1.0;"/><!--MD5=[6c5aafcbe69a26e6b95ee4dd0398da2e]
link Company to RegisterClinicalStore--><path codeLine="51" d="M306.098,425.194 C290.848,442.951 273.892,462.694 258.402,480.731 " fill="none" id="Company-to-RegisterClinicalStore" style="stroke:#A80036;stroke-width:1.0;"/><polygon fill="#A80036" points="254.914,484.792,263.8121,480.5701,258.1715,480.9987,257.7429,475.3582,254.914,484.792" style="stroke:#A80036;stroke-width:1.0;"/><!--MD5=[f22fcec12703159209526dd88d463995]
link RegisterClinicalStore to ClinicalAnalysisLaboratory--><path codeLine="52" d="M207.5,597.361 C207.5,614.642 207.5,633.886 207.5,651.856 " fill="none" id="RegisterClinicalStore-to-ClinicalAnalysisLaboratory" style="stroke:#A80036;stroke-width:1.0;"/><polygon fill="#A80036" points="207.5,656.888,211.5,647.888,207.5,651.888,203.5,647.888,207.5,656.888" style="stroke:#A80036;stroke-width:1.0;"/><!--MD5=[742a261f27a3dcd734c626287d811acd]
link Company to TestType--><path codeLine="53" d="M401.227,425.194 C420.405,447.373 442.263,472.651 460.578,493.832 " fill="none" id="Company-to-TestType" style="stroke:#A80036;stroke-width:1.0;"/><polygon fill="#A80036" points="463.956,497.738,461.0965,488.3134,460.6862,493.9554,455.0442,493.5451,463.956,497.738" style="stroke:#A80036;stroke-width:1.0;"/><!--MD5=[2590acf685b18fc5c971d50c13ab52fd]
@startuml
skinparam classAttributeIconSize 0

class ClinicalAnalysisLaboratory {
  -String laboratoryID
  -String name
  -String adress
  -int phoneNumber
  -int numberTIN
  +create(laboratoryID,name,adress,phoneNumber,numberTIN)
}
class RegisterClinicalStore{
   -clinicalList()
   +createClinical(laboratoryID,name,phoneNumber,numberTIN,adress)
   +validateClinical(cl)
   +saveClinical(cl)
   +existsSame(cl)
  
}

class TestType {
  -String id
  -String description
  +getTestType()
}


class Company {
  -String designation
  -testTypeList()
  -clinicalList()
  +getRegisterClinicalStore()
  +getTestTypes()
}

class RegisterClinicalAnalysisLaboratoryController {
  -Company company
  -RegisterClinicalStore store
  -ClinicalAnalysisLaboratory cl
  +fillTestTypeList()
  +testList()
  +createClinical(laboratoryID,name,phoneNumber,numberTIN,adress)
  +saveClinicalAnalysisLaboratory()
}

class RegisterClinicalAnalysisLaboratoryUI {

}

RegisterClinicalAnalysisLaboratoryUI ..> RegisterClinicalAnalysisLaboratoryController
RegisterClinicalAnalysisLaboratoryController ..> Company
Company  - -> RegisterClinicalStore 
RegisterClinicalStore - -> ClinicalAnalysisLaboratory 
Company - -> TestType
@enduml

PlantUML version 1.2021.6beta6(Unknown compile time)
(GPL source distribution)
Java Runtime: Java(TM) SE Runtime Environment
JVM: Java HotSpot(TM) 64-Bit Server VM
Default Encoding: UTF-8
Language: en
Country: US
--></g></svg>