<?xml version="1.0" encoding="UTF-8" standalone="no"?><svg xmlns="http://www.w3.org/2000/svg" xmlns:xlink="http://www.w3.org/1999/xlink" contentScriptType="application/ecmascript" contentStyleType="text/css" height="255px" preserveAspectRatio="none" style="width:1782px;height:255px;background:#FFFFFF;" version="1.1" viewBox="0 0 1782 255" width="1782px" zoomAndPan="magnify"><defs><filter height="300%" id="f1ibt9jrvvmwg8" width="300%" x="-1" y="-1"><feGaussianBlur result="blurOut" stdDeviation="2.0"/><feColorMatrix in="blurOut" result="blurOut2" type="matrix" values="0 0 0 0 0 0 0 0 0 0 0 0 0 0 0 0 0 0 .4 0"/><feOffset dx="4.0" dy="4.0" in="blurOut2" result="blurOut3"/><feBlend in="SourceGraphic" in2="blurOut3" mode="normal"/></filter></defs><g><!--MD5=[02e4b9b7573f1156f41e60aa5b4e25a4]
class Company--><rect codeLine="6" fill="#FEFECE" filter="url(#f1ibt9jrvvmwg8)" height="52.8047" id="Company" style="stroke:#A80036;stroke-width:1.5;" width="119" x="7" y="151"/><ellipse cx="35.95" cy="167" fill="#ADD1B2" rx="11" ry="11" style="stroke:#A80036;stroke-width:1.0;"/><path d="M38.2938,162.6719 C37.3563,162.2344 36.7625,162.0938 35.8875,162.0938 C33.2625,162.0938 31.2625,164.1719 31.2625,166.8906 L31.2625,168.0156 C31.2625,170.5938 33.3719,172.4844 36.2625,172.4844 C37.4813,172.4844 38.6375,172.1875 39.3875,171.6406 C39.9656,171.2344 40.2938,170.7813 40.2938,170.3906 C40.2938,169.9375 39.9031,169.5469 39.4344,169.5469 C39.2156,169.5469 39.0125,169.625 38.825,169.8125 C38.3719,170.2969 38.3719,170.2969 38.1844,170.3906 C37.7625,170.6563 37.075,170.7813 36.3094,170.7813 C34.2625,170.7813 32.9656,169.6875 32.9656,167.9844 L32.9656,166.8906 C32.9656,165.1094 34.2156,163.7969 35.95,163.7969 C36.5281,163.7969 37.1375,163.9531 37.6063,164.2031 C38.0906,164.4844 38.2625,164.7031 38.3563,165.1094 C38.4188,165.5156 38.45,165.6406 38.5906,165.7656 C38.7313,165.9063 38.9656,166.0156 39.1844,166.0156 C39.45,166.0156 39.7156,165.875 39.8875,165.6563 C39.9969,165.5 40.0281,165.3125 40.0281,164.8906 L40.0281,163.4688 C40.0281,163.0313 40.0125,162.9063 39.9188,162.75 C39.7625,162.4844 39.4813,162.3438 39.1844,162.3438 C38.8875,162.3438 38.6844,162.4375 38.4656,162.75 L38.2938,162.6719 Z " fill="#000000"/><text fill="#000000" font-family="sans-serif" font-size="12" lengthAdjust="spacing" textLength="56" x="53.05" y="171.1543">Company</text><line style="stroke:#A80036;stroke-width:1.5;" x1="8" x2="125" y1="183" y2="183"/><text fill="#000000" font-family="sans-serif" font-size="11" lengthAdjust="spacing" textLength="107" x="13" y="197.2104">-String designation</text><!--MD5=[0caf3a413731a0de34fc6162fe213ed9]
class Laboratory--><rect codeLine="9" fill="#FEFECE" filter="url(#f1ibt9jrvvmwg8)" height="91.2188" id="Laboratory" style="stroke:#A80036;stroke-width:1.5;" width="134" x="437" y="119"/><ellipse cx="468.65" cy="135" fill="#ADD1B2" rx="11" ry="11" style="stroke:#A80036;stroke-width:1.0;"/><path d="M470.9938,130.6719 C470.0563,130.2344 469.4625,130.0938 468.5875,130.0938 C465.9625,130.0938 463.9625,132.1719 463.9625,134.8906 L463.9625,136.0156 C463.9625,138.5938 466.0719,140.4844 468.9625,140.4844 C470.1813,140.4844 471.3375,140.1875 472.0875,139.6406 C472.6656,139.2344 472.9938,138.7813 472.9938,138.3906 C472.9938,137.9375 472.6031,137.5469 472.1344,137.5469 C471.9156,137.5469 471.7125,137.625 471.525,137.8125 C471.0719,138.2969 471.0719,138.2969 470.8844,138.3906 C470.4625,138.6563 469.775,138.7813 469.0094,138.7813 C466.9625,138.7813 465.6656,137.6875 465.6656,135.9844 L465.6656,134.8906 C465.6656,133.1094 466.9156,131.7969 468.65,131.7969 C469.2281,131.7969 469.8375,131.9531 470.3063,132.2031 C470.7906,132.4844 470.9625,132.7031 471.0563,133.1094 C471.1188,133.5156 471.15,133.6406 471.2906,133.7656 C471.4313,133.9063 471.6656,134.0156 471.8844,134.0156 C472.15,134.0156 472.4156,133.875 472.5875,133.6563 C472.6969,133.5 472.7281,133.3125 472.7281,132.8906 L472.7281,131.4688 C472.7281,131.0313 472.7125,130.9063 472.6188,130.75 C472.4625,130.4844 472.1813,130.3438 471.8844,130.3438 C471.5875,130.3438 471.3844,130.4375 471.1656,130.75 L470.9938,130.6719 Z " fill="#000000"/><text fill="#000000" font-family="sans-serif" font-size="12" lengthAdjust="spacing" textLength="65" x="486.35" y="139.1543">Laboratory</text><line style="stroke:#A80036;stroke-width:1.5;" x1="438" x2="570" y1="151" y2="151"/><text fill="#000000" font-family="sans-serif" font-size="11" lengthAdjust="spacing" textLength="74" x="443" y="165.2104">-String name</text><text fill="#000000" font-family="sans-serif" font-size="11" lengthAdjust="spacing" textLength="122" x="443" y="178.0151">-String phoneNumber</text><text fill="#000000" font-family="sans-serif" font-size="11" lengthAdjust="spacing" textLength="103" x="443" y="190.8198">-String numberTIN</text><text fill="#000000" font-family="sans-serif" font-size="11" lengthAdjust="spacing" textLength="86" x="443" y="203.6245">-String address</text><!--MD5=[ea49300750997b8dbaf7ea3c7722a254]
class ClinicalAnalisysLaboratory--><rect codeLine="16" fill="#FEFECE" filter="url(#f1ibt9jrvvmwg8)" height="52.8047" id="ClinicalAnalisysLaboratory" style="stroke:#A80036;stroke-width:1.5;" width="187" x="844" y="78"/><ellipse cx="859" cy="94" fill="#ADD1B2" rx="11" ry="11" style="stroke:#A80036;stroke-width:1.0;"/><path d="M861.3438,89.6719 C860.4063,89.2344 859.8125,89.0938 858.9375,89.0938 C856.3125,89.0938 854.3125,91.1719 854.3125,93.8906 L854.3125,95.0156 C854.3125,97.5938 856.4219,99.4844 859.3125,99.4844 C860.5313,99.4844 861.6875,99.1875 862.4375,98.6406 C863.0156,98.2344 863.3438,97.7813 863.3438,97.3906 C863.3438,96.9375 862.9531,96.5469 862.4844,96.5469 C862.2656,96.5469 862.0625,96.625 861.875,96.8125 C861.4219,97.2969 861.4219,97.2969 861.2344,97.3906 C860.8125,97.6563 860.125,97.7813 859.3594,97.7813 C857.3125,97.7813 856.0156,96.6875 856.0156,94.9844 L856.0156,93.8906 C856.0156,92.1094 857.2656,90.7969 859,90.7969 C859.5781,90.7969 860.1875,90.9531 860.6563,91.2031 C861.1406,91.4844 861.3125,91.7031 861.4063,92.1094 C861.4688,92.5156 861.5,92.6406 861.6406,92.7656 C861.7813,92.9063 862.0156,93.0156 862.2344,93.0156 C862.5,93.0156 862.7656,92.875 862.9375,92.6563 C863.0469,92.5 863.0781,92.3125 863.0781,91.8906 L863.0781,90.4688 C863.0781,90.0313 863.0625,89.9063 862.9688,89.75 C862.8125,89.4844 862.5313,89.3438 862.2344,89.3438 C861.9375,89.3438 861.7344,89.4375 861.5156,89.75 L861.3438,89.6719 Z " fill="#000000"/><text fill="#000000" font-family="sans-serif" font-size="12" lengthAdjust="spacing" textLength="155" x="873" y="98.1543">ClinicalAnalisysLaboratory</text><line style="stroke:#A80036;stroke-width:1.5;" x1="845" x2="1030" y1="110" y2="110"/><text fill="#000000" font-family="sans-serif" font-size="11" lengthAdjust="spacing" textLength="110" x="850" y="124.2104">-String laboratoryID</text><!--MD5=[aeb3272166074d8737a70b61b1e71682]
class TestType--><rect codeLine="20" fill="#FEFECE" filter="url(#f1ibt9jrvvmwg8)" height="78.4141" id="TestType" style="stroke:#A80036;stroke-width:1.5;" width="155" x="1613" y="159.5"/><ellipse cx="1658.25" cy="175.5" fill="#ADD1B2" rx="11" ry="11" style="stroke:#A80036;stroke-width:1.0;"/><path d="M1660.5938,171.1719 C1659.6563,170.7344 1659.0625,170.5938 1658.1875,170.5938 C1655.5625,170.5938 1653.5625,172.6719 1653.5625,175.3906 L1653.5625,176.5156 C1653.5625,179.0938 1655.6719,180.9844 1658.5625,180.9844 C1659.7813,180.9844 1660.9375,180.6875 1661.6875,180.1406 C1662.2656,179.7344 1662.5938,179.2813 1662.5938,178.8906 C1662.5938,178.4375 1662.2031,178.0469 1661.7344,178.0469 C1661.5156,178.0469 1661.3125,178.125 1661.125,178.3125 C1660.6719,178.7969 1660.6719,178.7969 1660.4844,178.8906 C1660.0625,179.1563 1659.375,179.2813 1658.6094,179.2813 C1656.5625,179.2813 1655.2656,178.1875 1655.2656,176.4844 L1655.2656,175.3906 C1655.2656,173.6094 1656.5156,172.2969 1658.25,172.2969 C1658.8281,172.2969 1659.4375,172.4531 1659.9063,172.7031 C1660.3906,172.9844 1660.5625,173.2031 1660.6563,173.6094 C1660.7188,174.0156 1660.75,174.1406 1660.8906,174.2656 C1661.0313,174.4063 1661.2656,174.5156 1661.4844,174.5156 C1661.75,174.5156 1662.0156,174.375 1662.1875,174.1563 C1662.2969,174 1662.3281,173.8125 1662.3281,173.3906 L1662.3281,171.9688 C1662.3281,171.5313 1662.3125,171.4063 1662.2188,171.25 C1662.0625,170.9844 1661.7813,170.8438 1661.4844,170.8438 C1661.1875,170.8438 1660.9844,170.9375 1660.7656,171.25 L1660.5938,171.1719 Z " fill="#000000"/><text fill="#000000" font-family="sans-serif" font-size="12" lengthAdjust="spacing" textLength="56" x="1678.75" y="179.6543">TestType</text><line style="stroke:#A80036;stroke-width:1.5;" x1="1614" x2="1767" y1="191.5" y2="191.5"/><text fill="#000000" font-family="sans-serif" font-size="11" lengthAdjust="spacing" textLength="103" x="1619" y="205.7104">-String description</text><text fill="#000000" font-family="sans-serif" font-size="11" lengthAdjust="spacing" textLength="69" x="1619" y="218.5151">-String code</text><text fill="#000000" font-family="sans-serif" font-size="11" lengthAdjust="spacing" textLength="143" x="1619" y="231.3198">-String collectingMethods</text><!--MD5=[da547346deef918ea16944ba046651ef]
class Administrator--><rect codeLine="26" fill="#FEFECE" filter="url(#f1ibt9jrvvmwg8)" height="40" id="Administrator" style="stroke:#A80036;stroke-width:1.5;" width="112" x="601" y="62.5"/><ellipse cx="616" cy="78.5" fill="#ADD1B2" rx="11" ry="11" style="stroke:#A80036;stroke-width:1.0;"/><path d="M618.3438,74.1719 C617.4063,73.7344 616.8125,73.5938 615.9375,73.5938 C613.3125,73.5938 611.3125,75.6719 611.3125,78.3906 L611.3125,79.5156 C611.3125,82.0938 613.4219,83.9844 616.3125,83.9844 C617.5313,83.9844 618.6875,83.6875 619.4375,83.1406 C620.0156,82.7344 620.3438,82.2813 620.3438,81.8906 C620.3438,81.4375 619.9531,81.0469 619.4844,81.0469 C619.2656,81.0469 619.0625,81.125 618.875,81.3125 C618.4219,81.7969 618.4219,81.7969 618.2344,81.8906 C617.8125,82.1563 617.125,82.2813 616.3594,82.2813 C614.3125,82.2813 613.0156,81.1875 613.0156,79.4844 L613.0156,78.3906 C613.0156,76.6094 614.2656,75.2969 616,75.2969 C616.5781,75.2969 617.1875,75.4531 617.6563,75.7031 C618.1406,75.9844 618.3125,76.2031 618.4063,76.6094 C618.4688,77.0156 618.5,77.1406 618.6406,77.2656 C618.7813,77.4063 619.0156,77.5156 619.2344,77.5156 C619.5,77.5156 619.7656,77.375 619.9375,77.1563 C620.0469,77 620.0781,76.8125 620.0781,76.3906 L620.0781,74.9688 C620.0781,74.5313 620.0625,74.4063 619.9688,74.25 C619.8125,73.9844 619.5313,73.8438 619.2344,73.8438 C618.9375,73.8438 618.7344,73.9375 618.5156,74.25 L618.3438,74.1719 Z " fill="#000000"/><text fill="#000000" font-family="sans-serif" font-size="12" lengthAdjust="spacing" textLength="80" x="630" y="82.6543">Administrator</text><line style="stroke:#A80036;stroke-width:1.5;" x1="602" x2="712" y1="94.5" y2="94.5"/><!--MD5=[9681492165142af2a4a3a169d90ee8d4]
class Sample--><rect codeLine="28" fill="#FEFECE" filter="url(#f1ibt9jrvvmwg8)" height="40" id="Sample" style="stroke:#A80036;stroke-width:1.5;" width="77" x="1154" y="84.5"/><ellipse cx="1169" cy="100.5" fill="#ADD1B2" rx="11" ry="11" style="stroke:#A80036;stroke-width:1.0;"/><path d="M1171.3438,96.1719 C1170.4063,95.7344 1169.8125,95.5938 1168.9375,95.5938 C1166.3125,95.5938 1164.3125,97.6719 1164.3125,100.3906 L1164.3125,101.5156 C1164.3125,104.0938 1166.4219,105.9844 1169.3125,105.9844 C1170.5313,105.9844 1171.6875,105.6875 1172.4375,105.1406 C1173.0156,104.7344 1173.3438,104.2813 1173.3438,103.8906 C1173.3438,103.4375 1172.9531,103.0469 1172.4844,103.0469 C1172.2656,103.0469 1172.0625,103.125 1171.875,103.3125 C1171.4219,103.7969 1171.4219,103.7969 1171.2344,103.8906 C1170.8125,104.1563 1170.125,104.2813 1169.3594,104.2813 C1167.3125,104.2813 1166.0156,103.1875 1166.0156,101.4844 L1166.0156,100.3906 C1166.0156,98.6094 1167.2656,97.2969 1169,97.2969 C1169.5781,97.2969 1170.1875,97.4531 1170.6563,97.7031 C1171.1406,97.9844 1171.3125,98.2031 1171.4063,98.6094 C1171.4688,99.0156 1171.5,99.1406 1171.6406,99.2656 C1171.7813,99.4063 1172.0156,99.5156 1172.2344,99.5156 C1172.5,99.5156 1172.7656,99.375 1172.9375,99.1563 C1173.0469,99 1173.0781,98.8125 1173.0781,98.3906 L1173.0781,96.9688 C1173.0781,96.5313 1173.0625,96.4063 1172.9688,96.25 C1172.8125,95.9844 1172.5313,95.8438 1172.2344,95.8438 C1171.9375,95.8438 1171.7344,95.9375 1171.5156,96.25 L1171.3438,96.1719 Z " fill="#000000"/><text fill="#000000" font-family="sans-serif" font-size="12" lengthAdjust="spacing" textLength="45" x="1183" y="104.6543">Sample</text><line style="stroke:#A80036;stroke-width:1.5;" x1="1155" x2="1230" y1="116.5" y2="116.5"/><!--MD5=[df38be88ccee13e832d6fafd6288a4ca]
class Test--><rect codeLine="30" fill="#FEFECE" filter="url(#f1ibt9jrvvmwg8)" height="180.8516" id="Test" style="stroke:#A80036;stroke-width:1.5;" width="160" x="1351" y="14"/><ellipse cx="1413.75" cy="30" fill="#ADD1B2" rx="11" ry="11" style="stroke:#A80036;stroke-width:1.0;"/><path d="M1416.0938,25.6719 C1415.1563,25.2344 1414.5625,25.0938 1413.6875,25.0938 C1411.0625,25.0938 1409.0625,27.1719 1409.0625,29.8906 L1409.0625,31.0156 C1409.0625,33.5938 1411.1719,35.4844 1414.0625,35.4844 C1415.2813,35.4844 1416.4375,35.1875 1417.1875,34.6406 C1417.7656,34.2344 1418.0938,33.7813 1418.0938,33.3906 C1418.0938,32.9375 1417.7031,32.5469 1417.2344,32.5469 C1417.0156,32.5469 1416.8125,32.625 1416.625,32.8125 C1416.1719,33.2969 1416.1719,33.2969 1415.9844,33.3906 C1415.5625,33.6563 1414.875,33.7813 1414.1094,33.7813 C1412.0625,33.7813 1410.7656,32.6875 1410.7656,30.9844 L1410.7656,29.8906 C1410.7656,28.1094 1412.0156,26.7969 1413.75,26.7969 C1414.3281,26.7969 1414.9375,26.9531 1415.4063,27.2031 C1415.8906,27.4844 1416.0625,27.7031 1416.1563,28.1094 C1416.2188,28.5156 1416.25,28.6406 1416.3906,28.7656 C1416.5313,28.9063 1416.7656,29.0156 1416.9844,29.0156 C1417.25,29.0156 1417.5156,28.875 1417.6875,28.6563 C1417.7969,28.5 1417.8281,28.3125 1417.8281,27.8906 L1417.8281,26.4688 C1417.8281,26.0313 1417.8125,25.9063 1417.7188,25.75 C1417.5625,25.4844 1417.2813,25.3438 1416.9844,25.3438 C1416.6875,25.3438 1416.4844,25.4375 1416.2656,25.75 L1416.0938,25.6719 Z " fill="#000000"/><text fill="#000000" font-family="sans-serif" font-size="12" lengthAdjust="spacing" textLength="26" x="1434.25" y="34.1543">Test</text><line style="stroke:#A80036;stroke-width:1.5;" x1="1352" x2="1510" y1="46" y2="46"/><text fill="#000000" font-family="sans-serif" font-size="11" lengthAdjust="spacing" textLength="69" x="1357" y="60.2104">-String code</text><text fill="#000000" font-family="sans-serif" font-size="11" lengthAdjust="spacing" textLength="95" x="1357" y="73.0151">-String NHSCode</text><text fill="#000000" font-family="sans-serif" font-size="11" lengthAdjust="spacing" textLength="103" x="1357" y="85.8198">-String description</text><text fill="#000000" font-family="sans-serif" font-size="11" lengthAdjust="spacing" textLength="111" x="1357" y="98.6245">-String dateSample</text><text fill="#000000" font-family="sans-serif" font-size="11" lengthAdjust="spacing" textLength="111" x="1357" y="111.4292">-String timeSmaple</text><text fill="#000000" font-family="sans-serif" font-size="11" lengthAdjust="spacing" textLength="148" x="1357" y="124.2339">-String dateChemAnalysis</text><text fill="#000000" font-family="sans-serif" font-size="11" lengthAdjust="spacing" textLength="148" x="1357" y="137.0386">-String timeChemAnalysis</text><text fill="#000000" font-family="sans-serif" font-size="11" lengthAdjust="spacing" textLength="122" x="1357" y="149.8433">-String dateDiagnosis</text><text fill="#000000" font-family="sans-serif" font-size="11" lengthAdjust="spacing" textLength="122" x="1357" y="162.6479">-String timeDiagnosis</text><text fill="#000000" font-family="sans-serif" font-size="11" lengthAdjust="spacing" textLength="120" x="1357" y="175.4526">-String dateValidTest</text><text fill="#000000" font-family="sans-serif" font-size="11" lengthAdjust="spacing" textLength="120" x="1357" y="188.2573">-String timeValidTest</text><!--MD5=[7421f545a0d8420c5bec41e74b387d9c]
class Employee--><rect codeLine="43" fill="#FEFECE" filter="url(#f1ibt9jrvvmwg8)" height="116.8281" id="Employee" style="stroke:#A80036;stroke-width:1.5;" width="151" x="256" y="7"/><ellipse cx="297.55" cy="23" fill="#ADD1B2" rx="11" ry="11" style="stroke:#A80036;stroke-width:1.0;"/><path d="M299.8938,18.6719 C298.9563,18.2344 298.3625,18.0938 297.4875,18.0938 C294.8625,18.0938 292.8625,20.1719 292.8625,22.8906 L292.8625,24.0156 C292.8625,26.5938 294.9719,28.4844 297.8625,28.4844 C299.0813,28.4844 300.2375,28.1875 300.9875,27.6406 C301.5656,27.2344 301.8938,26.7813 301.8938,26.3906 C301.8938,25.9375 301.5031,25.5469 301.0344,25.5469 C300.8156,25.5469 300.6125,25.625 300.425,25.8125 C299.9719,26.2969 299.9719,26.2969 299.7844,26.3906 C299.3625,26.6563 298.675,26.7813 297.9094,26.7813 C295.8625,26.7813 294.5656,25.6875 294.5656,23.9844 L294.5656,22.8906 C294.5656,21.1094 295.8156,19.7969 297.55,19.7969 C298.1281,19.7969 298.7375,19.9531 299.2063,20.2031 C299.6906,20.4844 299.8625,20.7031 299.9563,21.1094 C300.0188,21.5156 300.05,21.6406 300.1906,21.7656 C300.3313,21.9063 300.5656,22.0156 300.7844,22.0156 C301.05,22.0156 301.3156,21.875 301.4875,21.6563 C301.5969,21.5 301.6281,21.3125 301.6281,20.8906 L301.6281,19.4688 C301.6281,19.0313 301.6125,18.9063 301.5188,18.75 C301.3625,18.4844 301.0813,18.3438 300.7844,18.3438 C300.4875,18.3438 300.2844,18.4375 300.0656,18.75 L299.8938,18.6719 Z " fill="#000000"/><text fill="#000000" font-family="sans-serif" font-size="12" lengthAdjust="spacing" textLength="60" x="317.45" y="27.1543">Employee</text><line style="stroke:#A80036;stroke-width:1.5;" x1="257" x2="406" y1="39" y2="39"/><text fill="#000000" font-family="sans-serif" font-size="11" lengthAdjust="spacing" textLength="115" x="262" y="53.2104">-String employeeID;</text><text fill="#000000" font-family="sans-serif" font-size="11" lengthAdjust="spacing" textLength="139" x="262" y="66.0151">-String organizationRole;</text><text fill="#000000" font-family="sans-serif" font-size="11" lengthAdjust="spacing" textLength="77" x="262" y="78.8198">-String name;</text><text fill="#000000" font-family="sans-serif" font-size="11" lengthAdjust="spacing" textLength="82" x="262" y="91.6245">-String adress;</text><text fill="#000000" font-family="sans-serif" font-size="11" lengthAdjust="spacing" textLength="125" x="262" y="104.4292">-String phoneNumber;</text><text fill="#000000" font-family="sans-serif" font-size="11" lengthAdjust="spacing" textLength="78" x="262" y="117.2339">-int codeSOC;</text><!--MD5=[09366576ee87d48d594df10cacc83f45]
link Company to Employee--><path codeLine="54" d="M126.195,152.5044 C164.497,136.193 214.832,114.758 255.956,97.245 " fill="none" id="Company-Employee" style="stroke:#A80036;stroke-width:1.0;"/><polygon fill="#000000" points="165.6002,100.1074,156.1268,100.9473,158.4298,106.3553,165.6002,100.1074" style="stroke:#000000;stroke-width:1.0;"/><text fill="#000000" font-family="sans-serif" font-size="13" lengthAdjust="spacing" textLength="55" x="170" y="106.5669">employs</text><text fill="#000000" font-family="sans-serif" font-size="13" lengthAdjust="spacing" textLength="8" x="133.9578" y="162.459">1</text><text fill="#000000" font-family="sans-serif" font-size="13" lengthAdjust="spacing" textLength="7" x="240.8046" y="113.3747">*</text><!--MD5=[b8a4f1f13c2d56b2385b1bfafed8418f]
link Employee to Administrator--><path codeLine="55" d="M407.124,69.421 C466.275,72.53 547.583,76.803 600.937,79.606 " fill="none" id="Employee-Administrator" style="stroke:#A80036;stroke-width:1.0;"/><polygon fill="#000000" points="494.9931,62.3288,486.1147,58.9193,485.8063,64.789,494.9931,62.3288" style="stroke:#000000;stroke-width:1.0;"/><text fill="#000000" font-family="sans-serif" font-size="13" lengthAdjust="spacing" textLength="23" x="499" y="66.5669">has</text><text fill="#000000" font-family="sans-serif" font-size="13" lengthAdjust="spacing" textLength="8" x="414.962" y="82.6271">1</text><text fill="#000000" font-family="sans-serif" font-size="13" lengthAdjust="spacing" textLength="7" x="585.9332" y="92.3007">*</text><!--MD5=[bf8244ff5a3533f1151151ad173a54b4]
link Administrator to ClinicalAnalisysLaboratory--><path codeLine="56" d="M713.023,86.846 C750.275,89.789 800.41,93.75 843.754,97.174 " fill="none" id="Administrator-ClinicalAnalisysLaboratory" style="stroke:#A80036;stroke-width:1.0;"/><polygon fill="#000000" points="752.9845,81.4602,744.1989,77.818,743.736,83.6776,752.9845,81.4602" style="stroke:#000000;stroke-width:1.0;"/><text fill="#000000" font-family="sans-serif" font-size="13" lengthAdjust="spacing" textLength="56" x="757" y="85.5669">registers</text><text fill="#000000" font-family="sans-serif" font-size="13" lengthAdjust="spacing" textLength="8" x="721.0886" y="100.5136">1</text><text fill="#000000" font-family="sans-serif" font-size="13" lengthAdjust="spacing" textLength="23" x="813.025" y="109.2657">1..*</text><!--MD5=[7fa32b0a045c2b0b1112e408ee976bbc]
link Laboratory to ClinicalAnalisysLaboratory--><path codeLine="57" d="M571.081,156.222 C611.984,151.0237 665.57,144.079 713,137.5 C756.027,131.531 803.656,124.551 843.851,118.551 " fill="none" id="Laboratory-ClinicalAnalisysLaboratory" style="stroke:#A80036;stroke-width:1.0;"/><polygon fill="#000000" points="647.953,128.3824,638.5909,126.7085,639.395,132.5311,647.953,128.3824" style="stroke:#000000;stroke-width:1.0;"/><text fill="#000000" font-family="sans-serif" font-size="13" lengthAdjust="spacing" textLength="23" x="652" y="133.5669">has</text><text fill="#000000" font-family="sans-serif" font-size="13" lengthAdjust="spacing" textLength="8" x="578.8555" y="168.1991">1</text><text fill="#000000" font-family="sans-serif" font-size="13" lengthAdjust="spacing" textLength="7" x="829.1094" y="132.3483">*</text><!--MD5=[e9cf557c6a05e11fcae459f01b2e0f43]
link ClinicalAnalisysLaboratory to Sample--><path codeLine="58" d="M1031.27,104.5 C1073.72,104.5 1121.64,104.5 1153.92,104.5 " fill="none" id="ClinicalAnalisysLaboratory-Sample" style="stroke:#A80036;stroke-width:1.0;"/><polygon fill="#000000" points="1071,96.0664,1061.9549,93.1275,1061.9549,99.0053,1071,96.0664" style="stroke:#000000;stroke-width:1.0;"/><text fill="#000000" font-family="sans-serif" font-size="13" lengthAdjust="spacing" textLength="48" x="1075" y="100.5669">collects</text><text fill="#000000" font-family="sans-serif" font-size="13" lengthAdjust="spacing" textLength="8" x="1039.061" y="117.1776">1</text><text fill="#000000" font-family="sans-serif" font-size="13" lengthAdjust="spacing" textLength="7" x="1138.8985" y="118.0092">*</text><!--MD5=[1ae83efc6d1967ce5bc17dfe294d00c2]
link Sample to Test--><path codeLine="59" d="M1231.24,104.5 C1263.32,104.5 1310.45,104.5 1350.77,104.5 " fill="none" id="Sample-Test" style="stroke:#A80036;stroke-width:1.0;"/><polygon fill="#000000" points="1271,96.0664,1261.9549,93.1275,1261.9549,99.0053,1271,96.0664" style="stroke:#000000;stroke-width:1.0;"/><text fill="#000000" font-family="sans-serif" font-size="13" lengthAdjust="spacing" textLength="45" x="1275" y="100.5669">is from</text><text fill="#000000" font-family="sans-serif" font-size="13" lengthAdjust="spacing" textLength="7" x="1239.028" y="117.962">*</text><text fill="#000000" font-family="sans-serif" font-size="13" lengthAdjust="spacing" textLength="8" x="1335.005" y="117.2713">1</text><!--MD5=[e981d4f96c4342412d1e68160b30cf70]
link Test to TestType--><path codeLine="60" d="M1511.01,133.342 C1543.39,145.161 1580.72,158.7903 1612.85,170.5189 " fill="none" id="Test-TestType" style="stroke:#A80036;stroke-width:1.0;"/><polygon fill="#000000" points="1550.6968,138.781,1543.208,132.9186,1541.1924,138.44,1550.6968,138.781" style="stroke:#000000;stroke-width:1.0;"/><text fill="#000000" font-family="sans-serif" font-size="13" lengthAdjust="spacing" textLength="27" x="1555" y="141.5669">is of</text><text fill="#000000" font-family="sans-serif" font-size="13" lengthAdjust="spacing" textLength="8" x="1519.0172" y="148.8861">1</text><text fill="#000000" font-family="sans-serif" font-size="13" lengthAdjust="spacing" textLength="8" x="1597.0677" y="180.6203">1</text><!--MD5=[742a261f27a3dcd734c626287d811acd]
link Company to TestType--><path codeLine="61" d="M126.081,202.8319 C178.592,223.2221 258.258,248.5 330.5,248.5 C330.5,248.5 330.5,248.5 1432,248.5 C1493.59,248.5 1561.98,234.5439 1612.79,221.3782 " fill="none" id="Company-TestType" style="stroke:#A80036;stroke-width:1.0;"/><polygon fill="#000000" points="914.4996,240.1288,905.4919,237.0773,905.4186,242.9546,914.4996,240.1288" style="stroke:#000000;stroke-width:1.0;"/><text fill="#000000" font-family="sans-serif" font-size="13" lengthAdjust="spacing" textLength="51" x="918.5" y="244.5669">conduts</text><text fill="#000000" font-family="sans-serif" font-size="13" lengthAdjust="spacing" textLength="8" x="133.8299" y="218.9202">1</text><text fill="#000000" font-family="sans-serif" font-size="13" lengthAdjust="spacing" textLength="23" x="1582.1235" y="236.0436">1..*</text><!--MD5=[b921f878c1b19577ef94d929b3e93a58]
link Company to Laboratory--><path codeLine="62" d="M126.233,175.7468 C207.03,173.3349 352.05,169.006 436.664,166.4802 " fill="none" id="Company-Laboratory" style="stroke:#A80036;stroke-width:1.0;"/><polygon fill="#000000" points="176.4978,163.9172,167.369,161.2495,167.5444,167.1247,176.4978,163.9172" style="stroke:#000000;stroke-width:1.0;"/><text fill="#000000" font-family="sans-serif" font-size="13" lengthAdjust="spacing" textLength="34" x="180.5" y="168.5669">owns</text><text fill="#000000" font-family="sans-serif" font-size="13" lengthAdjust="spacing" textLength="8" x="134.0005" y="188.5341">1</text><text fill="#000000" font-family="sans-serif" font-size="13" lengthAdjust="spacing" textLength="7" x="421.9163" y="179.5793">*</text><!--MD5=[20e392a02992659c38e3fc4633fdb9dd]
@startuml
hide methods
left to right direction
skinparam classAttributeIconSize 0


class Company {
  -String designation
}
class Laboratory{
  -String name
  -String phoneNumber
  -String numberTIN
  -String address
}

class ClinicalAnalisysLaboratory {
  -String laboratoryID
}

class TestType {
  -String description
  -String code
  -String collectingMethods
}

class Administrator {
}
class Sample{
}
class Test{
  -String code
  -String NHSCode
  -String description 
  -String dateSample 
  -String timeSmaple
  -String dateChemAnalysis
  -String timeChemAnalysis
  -String dateDiagnosis 
  -String timeDiagnosis 
  -String dateValidTest 
  -String timeValidTest
}
class Employee{
  -String employeeID;
  -String organizationRole;
  -String name;
  -String adress;
  -String phoneNumber;
  -int codeSOC;
}



Company "1" - - "*" Employee: employs >
Employee "1" - - "*" Administrator: has >
Administrator "1" - - "1..*" ClinicalAnalisysLaboratory : registers >
Laboratory "1" - - "*" ClinicalAnalisysLaboratory : has >
ClinicalAnalisysLaboratory "1" - - "*" Sample : collects >
Sample "*" - - "1" Test : is from >
Test "1" - - "1" TestType : is of >
Company "1" - - "1..*" TestType : conduts >
Company "1" - - "*" Laboratory : owns >
@enduml

PlantUML version 1.2021.6beta6(Unknown compile time)
(GPL source distribution)
Java Runtime: Java(TM) SE Runtime Environment
JVM: Java HotSpot(TM) 64-Bit Server VM
Default Encoding: UTF-8
Language: en
Country: US
--></g></svg>