<?xml version="1.0" encoding="UTF-8" standalone="no"?><svg xmlns="http://www.w3.org/2000/svg" xmlns:xlink="http://www.w3.org/1999/xlink" contentScriptType="application/ecmascript" contentStyleType="text/css" height="445px" preserveAspectRatio="none" style="width:1385px;height:445px;background:#FFFFFF;" version="1.1" viewBox="0 0 1385 445" width="1385px" zoomAndPan="magnify"><defs><filter height="300%" id="f109zamymc9tet" width="300%" x="-1" y="-1"><feGaussianBlur result="blurOut" stdDeviation="2.0"/><feColorMatrix in="blurOut" result="blurOut2" type="matrix" values="0 0 0 0 0 0 0 0 0 0 0 0 0 0 0 0 0 0 .4 0"/><feOffset dx="4.0" dy="4.0" in="blurOut2" result="blurOut3"/><feBlend in="SourceGraphic" in2="blurOut3" mode="normal"/></filter></defs><g><!--MD5=[02e4b9b7573f1156f41e60aa5b4e25a4]
class Company--><rect codeLine="6" fill="#FEFECE" filter="url(#f109zamymc9tet)" height="52.8047" id="Company" style="stroke:#A80036;stroke-width:1.5;" width="119" x="28.5" y="126"/><ellipse cx="57.45" cy="142" fill="#ADD1B2" rx="11" ry="11" style="stroke:#A80036;stroke-width:1.0;"/><path d="M59.7938,137.6719 C58.8563,137.2344 58.2625,137.0938 57.3875,137.0938 C54.7625,137.0938 52.7625,139.1719 52.7625,141.8906 L52.7625,143.0156 C52.7625,145.5938 54.8719,147.4844 57.7625,147.4844 C58.9813,147.4844 60.1375,147.1875 60.8875,146.6406 C61.4656,146.2344 61.7938,145.7813 61.7938,145.3906 C61.7938,144.9375 61.4031,144.5469 60.9344,144.5469 C60.7156,144.5469 60.5125,144.625 60.325,144.8125 C59.8719,145.2969 59.8719,145.2969 59.6844,145.3906 C59.2625,145.6563 58.575,145.7813 57.8094,145.7813 C55.7625,145.7813 54.4656,144.6875 54.4656,142.9844 L54.4656,141.8906 C54.4656,140.1094 55.7156,138.7969 57.45,138.7969 C58.0281,138.7969 58.6375,138.9531 59.1063,139.2031 C59.5906,139.4844 59.7625,139.7031 59.8563,140.1094 C59.9188,140.5156 59.95,140.6406 60.0906,140.7656 C60.2313,140.9063 60.4656,141.0156 60.6844,141.0156 C60.95,141.0156 61.2156,140.875 61.3875,140.6563 C61.4969,140.5 61.5281,140.3125 61.5281,139.8906 L61.5281,138.4688 C61.5281,138.0313 61.5125,137.9063 61.4188,137.75 C61.2625,137.4844 60.9813,137.3438 60.6844,137.3438 C60.3875,137.3438 60.1844,137.4375 59.9656,137.75 L59.7938,137.6719 Z " fill="#000000"/><text fill="#000000" font-family="sans-serif" font-size="12" lengthAdjust="spacing" textLength="56" x="74.55" y="146.1543">Company</text><line style="stroke:#A80036;stroke-width:1.5;" x1="29.5" x2="146.5" y1="158" y2="158"/><text fill="#000000" font-family="sans-serif" font-size="11" lengthAdjust="spacing" textLength="107" x="34.5" y="172.2104">-String designation</text><!--MD5=[df38be88ccee13e832d6fafd6288a4ca]
class Test--><rect codeLine="11" fill="#FEFECE" filter="url(#f109zamymc9tet)" height="180.8516" id="Test" style="stroke:#A80036;stroke-width:1.5;" width="160" x="328" y="251"/><ellipse cx="390.75" cy="267" fill="#ADD1B2" rx="11" ry="11" style="stroke:#A80036;stroke-width:1.0;"/><path d="M393.0938,262.6719 C392.1563,262.2344 391.5625,262.0938 390.6875,262.0938 C388.0625,262.0938 386.0625,264.1719 386.0625,266.8906 L386.0625,268.0156 C386.0625,270.5938 388.1719,272.4844 391.0625,272.4844 C392.2813,272.4844 393.4375,272.1875 394.1875,271.6406 C394.7656,271.2344 395.0938,270.7813 395.0938,270.3906 C395.0938,269.9375 394.7031,269.5469 394.2344,269.5469 C394.0156,269.5469 393.8125,269.625 393.625,269.8125 C393.1719,270.2969 393.1719,270.2969 392.9844,270.3906 C392.5625,270.6563 391.875,270.7813 391.1094,270.7813 C389.0625,270.7813 387.7656,269.6875 387.7656,267.9844 L387.7656,266.8906 C387.7656,265.1094 389.0156,263.7969 390.75,263.7969 C391.3281,263.7969 391.9375,263.9531 392.4063,264.2031 C392.8906,264.4844 393.0625,264.7031 393.1563,265.1094 C393.2188,265.5156 393.25,265.6406 393.3906,265.7656 C393.5313,265.9063 393.7656,266.0156 393.9844,266.0156 C394.25,266.0156 394.5156,265.875 394.6875,265.6563 C394.7969,265.5 394.8281,265.3125 394.8281,264.8906 L394.8281,263.4688 C394.8281,263.0313 394.8125,262.9063 394.7188,262.75 C394.5625,262.4844 394.2813,262.3438 393.9844,262.3438 C393.6875,262.3438 393.4844,262.4375 393.2656,262.75 L393.0938,262.6719 Z " fill="#000000"/><text fill="#000000" font-family="sans-serif" font-size="12" lengthAdjust="spacing" textLength="26" x="411.25" y="271.1543">Test</text><line style="stroke:#A80036;stroke-width:1.5;" x1="329" x2="487" y1="283" y2="283"/><text fill="#000000" font-family="sans-serif" font-size="11" lengthAdjust="spacing" textLength="69" x="334" y="297.2104">-String code</text><text fill="#000000" font-family="sans-serif" font-size="11" lengthAdjust="spacing" textLength="95" x="334" y="310.0151">-String NHSCode</text><text fill="#000000" font-family="sans-serif" font-size="11" lengthAdjust="spacing" textLength="103" x="334" y="322.8198">-String description</text><text fill="#000000" font-family="sans-serif" font-size="11" lengthAdjust="spacing" textLength="111" x="334" y="335.6245">-String dateSample</text><text fill="#000000" font-family="sans-serif" font-size="11" lengthAdjust="spacing" textLength="111" x="334" y="348.4292">-String timeSmaple</text><text fill="#000000" font-family="sans-serif" font-size="11" lengthAdjust="spacing" textLength="148" x="334" y="361.2339">-String dateChemAnalysis</text><text fill="#000000" font-family="sans-serif" font-size="11" lengthAdjust="spacing" textLength="148" x="334" y="374.0386">-String timeChemAnalysis</text><text fill="#000000" font-family="sans-serif" font-size="11" lengthAdjust="spacing" textLength="122" x="334" y="386.8433">-String dateDiagnosis</text><text fill="#000000" font-family="sans-serif" font-size="11" lengthAdjust="spacing" textLength="122" x="334" y="399.6479">-String timeDiagnosis</text><text fill="#000000" font-family="sans-serif" font-size="11" lengthAdjust="spacing" textLength="120" x="334" y="412.4526">-String dateValidTest</text><text fill="#000000" font-family="sans-serif" font-size="11" lengthAdjust="spacing" textLength="120" x="334" y="425.2573">-String timeValidTest</text><!--MD5=[7421f545a0d8420c5bec41e74b387d9c]
class Employee--><rect codeLine="24" fill="#FEFECE" filter="url(#f109zamymc9tet)" height="116.8281" id="Employee" style="stroke:#A80036;stroke-width:1.5;" width="151" x="332.5" y="7"/><ellipse cx="374.05" cy="23" fill="#ADD1B2" rx="11" ry="11" style="stroke:#A80036;stroke-width:1.0;"/><path d="M376.3938,18.6719 C375.4563,18.2344 374.8625,18.0938 373.9875,18.0938 C371.3625,18.0938 369.3625,20.1719 369.3625,22.8906 L369.3625,24.0156 C369.3625,26.5938 371.4719,28.4844 374.3625,28.4844 C375.5813,28.4844 376.7375,28.1875 377.4875,27.6406 C378.0656,27.2344 378.3938,26.7813 378.3938,26.3906 C378.3938,25.9375 378.0031,25.5469 377.5344,25.5469 C377.3156,25.5469 377.1125,25.625 376.925,25.8125 C376.4719,26.2969 376.4719,26.2969 376.2844,26.3906 C375.8625,26.6563 375.175,26.7813 374.4094,26.7813 C372.3625,26.7813 371.0656,25.6875 371.0656,23.9844 L371.0656,22.8906 C371.0656,21.1094 372.3156,19.7969 374.05,19.7969 C374.6281,19.7969 375.2375,19.9531 375.7063,20.2031 C376.1906,20.4844 376.3625,20.7031 376.4563,21.1094 C376.5188,21.5156 376.55,21.6406 376.6906,21.7656 C376.8313,21.9063 377.0656,22.0156 377.2844,22.0156 C377.55,22.0156 377.8156,21.875 377.9875,21.6563 C378.0969,21.5 378.1281,21.3125 378.1281,20.8906 L378.1281,19.4688 C378.1281,19.0313 378.1125,18.9063 378.0188,18.75 C377.8625,18.4844 377.5813,18.3438 377.2844,18.3438 C376.9875,18.3438 376.7844,18.4375 376.5656,18.75 L376.3938,18.6719 Z " fill="#000000"/><text fill="#000000" font-family="sans-serif" font-size="12" lengthAdjust="spacing" textLength="60" x="393.95" y="27.1543">Employee</text><line style="stroke:#A80036;stroke-width:1.5;" x1="333.5" x2="482.5" y1="39" y2="39"/><text fill="#000000" font-family="sans-serif" font-size="11" lengthAdjust="spacing" textLength="115" x="338.5" y="53.2104">-String employeeID;</text><text fill="#000000" font-family="sans-serif" font-size="11" lengthAdjust="spacing" textLength="139" x="338.5" y="66.0151">-String organizationRole;</text><text fill="#000000" font-family="sans-serif" font-size="11" lengthAdjust="spacing" textLength="77" x="338.5" y="78.8198">-String name;</text><text fill="#000000" font-family="sans-serif" font-size="11" lengthAdjust="spacing" textLength="82" x="338.5" y="91.6245">-String adress;</text><text fill="#000000" font-family="sans-serif" font-size="11" lengthAdjust="spacing" textLength="125" x="338.5" y="104.4292">-String phoneNumber;</text><text fill="#000000" font-family="sans-serif" font-size="11" lengthAdjust="spacing" textLength="78" x="338.5" y="117.2339">-int codeSOC;</text><!--MD5=[b7f55c07084fbbf4e1873a586f4c5bd9]
class ClinicalChemestryTechnologist--><rect codeLine="32" fill="#FEFECE" filter="url(#f109zamymc9tet)" height="40" id="ClinicalChemestryTechnologist" style="stroke:#A80036;stroke-width:1.5;" width="215" x="657" y="23.5"/><ellipse cx="672" cy="39.5" fill="#ADD1B2" rx="11" ry="11" style="stroke:#A80036;stroke-width:1.0;"/><path d="M674.3438,35.1719 C673.4063,34.7344 672.8125,34.5938 671.9375,34.5938 C669.3125,34.5938 667.3125,36.6719 667.3125,39.3906 L667.3125,40.5156 C667.3125,43.0938 669.4219,44.9844 672.3125,44.9844 C673.5313,44.9844 674.6875,44.6875 675.4375,44.1406 C676.0156,43.7344 676.3438,43.2813 676.3438,42.8906 C676.3438,42.4375 675.9531,42.0469 675.4844,42.0469 C675.2656,42.0469 675.0625,42.125 674.875,42.3125 C674.4219,42.7969 674.4219,42.7969 674.2344,42.8906 C673.8125,43.1563 673.125,43.2813 672.3594,43.2813 C670.3125,43.2813 669.0156,42.1875 669.0156,40.4844 L669.0156,39.3906 C669.0156,37.6094 670.2656,36.2969 672,36.2969 C672.5781,36.2969 673.1875,36.4531 673.6563,36.7031 C674.1406,36.9844 674.3125,37.2031 674.4063,37.6094 C674.4688,38.0156 674.5,38.1406 674.6406,38.2656 C674.7813,38.4063 675.0156,38.5156 675.2344,38.5156 C675.5,38.5156 675.7656,38.375 675.9375,38.1563 C676.0469,38 676.0781,37.8125 676.0781,37.3906 L676.0781,35.9688 C676.0781,35.5313 676.0625,35.4063 675.9688,35.25 C675.8125,34.9844 675.5313,34.8438 675.2344,34.8438 C674.9375,34.8438 674.7344,34.9375 674.5156,35.25 L674.3438,35.1719 Z " fill="#000000"/><text fill="#000000" font-family="sans-serif" font-size="12" lengthAdjust="spacing" textLength="183" x="686" y="43.6543">ClinicalChemestryTechnologist</text><line style="stroke:#A80036;stroke-width:1.5;" x1="658" x2="871" y1="55.5" y2="55.5"/><!--MD5=[0f07739f46effee96e095e9c408da841]
class TestParameter--><rect codeLine="34" fill="#FEFECE" filter="url(#f109zamymc9tet)" height="40" id="TestParameter" style="stroke:#A80036;stroke-width:1.5;" width="119" x="705" y="323.5"/><ellipse cx="720" cy="339.5" fill="#ADD1B2" rx="11" ry="11" style="stroke:#A80036;stroke-width:1.0;"/><path d="M722.3438,335.1719 C721.4063,334.7344 720.8125,334.5938 719.9375,334.5938 C717.3125,334.5938 715.3125,336.6719 715.3125,339.3906 L715.3125,340.5156 C715.3125,343.0938 717.4219,344.9844 720.3125,344.9844 C721.5313,344.9844 722.6875,344.6875 723.4375,344.1406 C724.0156,343.7344 724.3438,343.2813 724.3438,342.8906 C724.3438,342.4375 723.9531,342.0469 723.4844,342.0469 C723.2656,342.0469 723.0625,342.125 722.875,342.3125 C722.4219,342.7969 722.4219,342.7969 722.2344,342.8906 C721.8125,343.1563 721.125,343.2813 720.3594,343.2813 C718.3125,343.2813 717.0156,342.1875 717.0156,340.4844 L717.0156,339.3906 C717.0156,337.6094 718.2656,336.2969 720,336.2969 C720.5781,336.2969 721.1875,336.4531 721.6563,336.7031 C722.1406,336.9844 722.3125,337.2031 722.4063,337.6094 C722.4688,338.0156 722.5,338.1406 722.6406,338.2656 C722.7813,338.4063 723.0156,338.5156 723.2344,338.5156 C723.5,338.5156 723.7656,338.375 723.9375,338.1563 C724.0469,338 724.0781,337.8125 724.0781,337.3906 L724.0781,335.9688 C724.0781,335.5313 724.0625,335.4063 723.9688,335.25 C723.8125,334.9844 723.5313,334.8438 723.2344,334.8438 C722.9375,334.8438 722.7344,334.9375 722.5156,335.25 L722.3438,335.1719 Z " fill="#000000"/><text fill="#000000" font-family="sans-serif" font-size="12" lengthAdjust="spacing" textLength="87" x="734" y="343.6543">TestParameter</text><line style="stroke:#A80036;stroke-width:1.5;" x1="706" x2="823" y1="355.5" y2="355.5"/><!--MD5=[4e608140b854dae633589343bce77383]
class TestParameterResult--><rect codeLine="38" fill="#FEFECE" filter="url(#f109zamymc9tet)" height="65.6094" id="TestParameterResult" style="stroke:#A80036;stroke-width:1.5;" width="155" x="991" y="130.5"/><ellipse cx="1006" cy="146.5" fill="#ADD1B2" rx="11" ry="11" style="stroke:#A80036;stroke-width:1.0;"/><path d="M1008.3438,142.1719 C1007.4063,141.7344 1006.8125,141.5938 1005.9375,141.5938 C1003.3125,141.5938 1001.3125,143.6719 1001.3125,146.3906 L1001.3125,147.5156 C1001.3125,150.0938 1003.4219,151.9844 1006.3125,151.9844 C1007.5313,151.9844 1008.6875,151.6875 1009.4375,151.1406 C1010.0156,150.7344 1010.3438,150.2813 1010.3438,149.8906 C1010.3438,149.4375 1009.9531,149.0469 1009.4844,149.0469 C1009.2656,149.0469 1009.0625,149.125 1008.875,149.3125 C1008.4219,149.7969 1008.4219,149.7969 1008.2344,149.8906 C1007.8125,150.1563 1007.125,150.2813 1006.3594,150.2813 C1004.3125,150.2813 1003.0156,149.1875 1003.0156,147.4844 L1003.0156,146.3906 C1003.0156,144.6094 1004.2656,143.2969 1006,143.2969 C1006.5781,143.2969 1007.1875,143.4531 1007.6563,143.7031 C1008.1406,143.9844 1008.3125,144.2031 1008.4063,144.6094 C1008.4688,145.0156 1008.5,145.1406 1008.6406,145.2656 C1008.7813,145.4063 1009.0156,145.5156 1009.2344,145.5156 C1009.5,145.5156 1009.7656,145.375 1009.9375,145.1563 C1010.0469,145 1010.0781,144.8125 1010.0781,144.3906 L1010.0781,142.9688 C1010.0781,142.5313 1010.0625,142.4063 1009.9688,142.25 C1009.8125,141.9844 1009.5313,141.8438 1009.2344,141.8438 C1008.9375,141.8438 1008.7344,141.9375 1008.5156,142.25 L1008.3438,142.1719 Z " fill="#000000"/><text fill="#000000" font-family="sans-serif" font-size="12" lengthAdjust="spacing" textLength="123" x="1020" y="150.6543">TestParameterResult</text><line style="stroke:#A80036;stroke-width:1.5;" x1="992" x2="1145" y1="162.5" y2="162.5"/><text fill="#000000" font-family="sans-serif" font-size="11" lengthAdjust="spacing" textLength="74" x="997" y="176.7104">-String Value</text><text fill="#000000" font-family="sans-serif" font-size="11" lengthAdjust="spacing" textLength="77" x="997" y="189.5151">-String metric</text><!--MD5=[ed6624c6556d5e7b1bd23032162d20b7]
class Client--><rect codeLine="45" fill="#FEFECE" filter="url(#f109zamymc9tet)" height="129.6328" id="Client" style="stroke:#A80036;stroke-width:1.5;" width="162" x="7" y="230.5"/><ellipse cx="67.25" cy="246.5" fill="#ADD1B2" rx="11" ry="11" style="stroke:#A80036;stroke-width:1.0;"/><path d="M69.5938,242.1719 C68.6563,241.7344 68.0625,241.5938 67.1875,241.5938 C64.5625,241.5938 62.5625,243.6719 62.5625,246.3906 L62.5625,247.5156 C62.5625,250.0938 64.6719,251.9844 67.5625,251.9844 C68.7813,251.9844 69.9375,251.6875 70.6875,251.1406 C71.2656,250.7344 71.5938,250.2813 71.5938,249.8906 C71.5938,249.4375 71.2031,249.0469 70.7344,249.0469 C70.5156,249.0469 70.3125,249.125 70.125,249.3125 C69.6719,249.7969 69.6719,249.7969 69.4844,249.8906 C69.0625,250.1563 68.375,250.2813 67.6094,250.2813 C65.5625,250.2813 64.2656,249.1875 64.2656,247.4844 L64.2656,246.3906 C64.2656,244.6094 65.5156,243.2969 67.25,243.2969 C67.8281,243.2969 68.4375,243.4531 68.9063,243.7031 C69.3906,243.9844 69.5625,244.2031 69.6563,244.6094 C69.7188,245.0156 69.75,245.1406 69.8906,245.2656 C70.0313,245.4063 70.2656,245.5156 70.4844,245.5156 C70.75,245.5156 71.0156,245.375 71.1875,245.1563 C71.2969,245 71.3281,244.8125 71.3281,244.3906 L71.3281,242.9688 C71.3281,242.5313 71.3125,242.4063 71.2188,242.25 C71.0625,241.9844 70.7813,241.8438 70.4844,241.8438 C70.1875,241.8438 69.9844,241.9375 69.7656,242.25 L69.5938,242.1719 Z " fill="#000000"/><text fill="#000000" font-family="sans-serif" font-size="12" lengthAdjust="spacing" textLength="33" x="87.75" y="250.6543">Client</text><line style="stroke:#A80036;stroke-width:1.5;" x1="8" x2="168" y1="262.5" y2="262.5"/><text fill="#000000" font-family="sans-serif" font-size="11" lengthAdjust="spacing" textLength="150" x="13" y="276.7104">-String citizenCardNumber</text><text fill="#000000" font-family="sans-serif" font-size="11" lengthAdjust="spacing" textLength="109" x="13" y="289.5151">-String numberNHS</text><text fill="#000000" font-family="sans-serif" font-size="11" lengthAdjust="spacing" textLength="103" x="13" y="302.3198">-String numberTIN</text><text fill="#000000" font-family="sans-serif" font-size="11" lengthAdjust="spacing" textLength="94" x="13" y="315.1245">-String birthDate</text><text fill="#000000" font-family="sans-serif" font-size="11" lengthAdjust="spacing" textLength="62" x="13" y="327.9292">-String sex</text><text fill="#000000" font-family="sans-serif" font-size="11" lengthAdjust="spacing" textLength="122" x="13" y="340.7339">-String phoneNumber</text><text fill="#000000" font-family="sans-serif" font-size="11" lengthAdjust="spacing" textLength="74" x="13" y="353.5386">-String name</text><!--MD5=[ac624ed6548ea7717fb67014cd8a9089]
class SortingAl--><rect codeLine="54" fill="#FEFECE" filter="url(#f109zamymc9tet)" height="40" id="SortingAl" style="stroke:#A80036;stroke-width:1.5;" width="87" x="364.5" y="173.5"/><ellipse cx="379.5" cy="189.5" fill="#B4A7E5" rx="11" ry="11" style="stroke:#A80036;stroke-width:1.0;"/><path d="M380.4531,186.2813 L382.1719,186.2813 C382.5625,186.2813 382.75,186.25 382.875,186.1719 C383.1406,186.0156 383.2813,185.7344 383.2813,185.4375 C383.2813,185.1719 383.1719,184.9063 382.9375,184.7344 C382.7656,184.625 382.625,184.5938 382.1719,184.5938 L377.0313,184.5938 C376.5938,184.5938 376.4688,184.6094 376.3125,184.7031 C376.0625,184.8594 375.9063,185.1563 375.9063,185.4375 C375.9063,185.7188 376.0469,185.9688 376.2656,186.1406 C376.4219,186.25 376.6094,186.2813 377.0313,186.2813 L378.75,186.2813 L378.75,192.7969 L377.0313,192.7969 C376.5938,192.7969 376.4688,192.8125 376.3125,192.9219 C376.0625,193.0781 375.9063,193.3594 375.9063,193.6563 C375.9063,193.9063 376.0469,194.1719 376.2656,194.3281 C376.4219,194.4531 376.625,194.5 377.0313,194.5 L382.1719,194.5 C382.9219,194.5 383.2813,194.2188 383.2813,193.6563 C383.2813,193.375 383.1719,193.125 382.9375,192.9531 C382.7656,192.8281 382.625,192.7969 382.1719,192.7969 L380.4531,192.7969 L380.4531,186.2813 Z " fill="#000000"/><text fill="#000000" font-family="sans-serif" font-size="12" font-style="italic" lengthAdjust="spacing" textLength="55" x="393.5" y="193.6543">SortingAl</text><line style="stroke:#A80036;stroke-width:1.5;" x1="365.5" x2="450.5" y1="205.5" y2="205.5"/><!--MD5=[1b19bd13de2c4c054e34469ae96c3b5d]
class ConfigurationFile--><rect codeLine="56" fill="#FEFECE" filter="url(#f109zamymc9tet)" height="40" id="ConfigurationFile" style="stroke:#A80036;stroke-width:1.5;" width="132" x="698.5" y="98.5"/><ellipse cx="713.5" cy="114.5" fill="#ADD1B2" rx="11" ry="11" style="stroke:#A80036;stroke-width:1.0;"/><path d="M715.8438,110.1719 C714.9063,109.7344 714.3125,109.5938 713.4375,109.5938 C710.8125,109.5938 708.8125,111.6719 708.8125,114.3906 L708.8125,115.5156 C708.8125,118.0938 710.9219,119.9844 713.8125,119.9844 C715.0313,119.9844 716.1875,119.6875 716.9375,119.1406 C717.5156,118.7344 717.8438,118.2813 717.8438,117.8906 C717.8438,117.4375 717.4531,117.0469 716.9844,117.0469 C716.7656,117.0469 716.5625,117.125 716.375,117.3125 C715.9219,117.7969 715.9219,117.7969 715.7344,117.8906 C715.3125,118.1563 714.625,118.2813 713.8594,118.2813 C711.8125,118.2813 710.5156,117.1875 710.5156,115.4844 L710.5156,114.3906 C710.5156,112.6094 711.7656,111.2969 713.5,111.2969 C714.0781,111.2969 714.6875,111.4531 715.1563,111.7031 C715.6406,111.9844 715.8125,112.2031 715.9063,112.6094 C715.9688,113.0156 716,113.1406 716.1406,113.2656 C716.2813,113.4063 716.5156,113.5156 716.7344,113.5156 C717,113.5156 717.2656,113.375 717.4375,113.1563 C717.5469,113 717.5781,112.8125 717.5781,112.3906 L717.5781,110.9688 C717.5781,110.5313 717.5625,110.4063 717.4688,110.25 C717.3125,109.9844 717.0313,109.8438 716.7344,109.8438 C716.4375,109.8438 716.2344,109.9375 716.0156,110.25 L715.8438,110.1719 Z " fill="#000000"/><text fill="#000000" font-family="sans-serif" font-size="12" lengthAdjust="spacing" textLength="100" x="727.5" y="118.6543">ConfigurationFile</text><line style="stroke:#A80036;stroke-width:1.5;" x1="699.5" x2="829.5" y1="130.5" y2="130.5"/><!--MD5=[097de5d699d9b9585c922f2bc2da8d5f]
class SortingName--><rect codeLine="58" fill="#FEFECE" filter="url(#f109zamymc9tet)" height="40" id="SortingName" style="stroke:#A80036;stroke-width:1.5;" width="109" x="710" y="173.5"/><ellipse cx="725" cy="189.5" fill="#ADD1B2" rx="11" ry="11" style="stroke:#A80036;stroke-width:1.0;"/><path d="M727.3438,185.1719 C726.4063,184.7344 725.8125,184.5938 724.9375,184.5938 C722.3125,184.5938 720.3125,186.6719 720.3125,189.3906 L720.3125,190.5156 C720.3125,193.0938 722.4219,194.9844 725.3125,194.9844 C726.5313,194.9844 727.6875,194.6875 728.4375,194.1406 C729.0156,193.7344 729.3438,193.2813 729.3438,192.8906 C729.3438,192.4375 728.9531,192.0469 728.4844,192.0469 C728.2656,192.0469 728.0625,192.125 727.875,192.3125 C727.4219,192.7969 727.4219,192.7969 727.2344,192.8906 C726.8125,193.1563 726.125,193.2813 725.3594,193.2813 C723.3125,193.2813 722.0156,192.1875 722.0156,190.4844 L722.0156,189.3906 C722.0156,187.6094 723.2656,186.2969 725,186.2969 C725.5781,186.2969 726.1875,186.4531 726.6563,186.7031 C727.1406,186.9844 727.3125,187.2031 727.4063,187.6094 C727.4688,188.0156 727.5,188.1406 727.6406,188.2656 C727.7813,188.4063 728.0156,188.5156 728.2344,188.5156 C728.5,188.5156 728.7656,188.375 728.9375,188.1563 C729.0469,188 729.0781,187.8125 729.0781,187.3906 L729.0781,185.9688 C729.0781,185.5313 729.0625,185.4063 728.9688,185.25 C728.8125,184.9844 728.5313,184.8438 728.2344,184.8438 C727.9375,184.8438 727.7344,184.9375 727.5156,185.25 L727.3438,185.1719 Z " fill="#000000"/><text fill="#000000" font-family="sans-serif" font-size="12" lengthAdjust="spacing" textLength="77" x="739" y="193.6543">SortingName</text><line style="stroke:#A80036;stroke-width:1.5;" x1="711" x2="818" y1="205.5" y2="205.5"/><!--MD5=[8d5006eccc08bcbbdfe2d4c5f53d586f]
class SortingTIN--><rect codeLine="60" fill="#FEFECE" filter="url(#f109zamymc9tet)" height="40" id="SortingTIN" style="stroke:#A80036;stroke-width:1.5;" width="93" x="718" y="248.5"/><ellipse cx="733" cy="264.5" fill="#ADD1B2" rx="11" ry="11" style="stroke:#A80036;stroke-width:1.0;"/><path d="M735.3438,260.1719 C734.4063,259.7344 733.8125,259.5938 732.9375,259.5938 C730.3125,259.5938 728.3125,261.6719 728.3125,264.3906 L728.3125,265.5156 C728.3125,268.0938 730.4219,269.9844 733.3125,269.9844 C734.5313,269.9844 735.6875,269.6875 736.4375,269.1406 C737.0156,268.7344 737.3438,268.2813 737.3438,267.8906 C737.3438,267.4375 736.9531,267.0469 736.4844,267.0469 C736.2656,267.0469 736.0625,267.125 735.875,267.3125 C735.4219,267.7969 735.4219,267.7969 735.2344,267.8906 C734.8125,268.1563 734.125,268.2813 733.3594,268.2813 C731.3125,268.2813 730.0156,267.1875 730.0156,265.4844 L730.0156,264.3906 C730.0156,262.6094 731.2656,261.2969 733,261.2969 C733.5781,261.2969 734.1875,261.4531 734.6563,261.7031 C735.1406,261.9844 735.3125,262.2031 735.4063,262.6094 C735.4688,263.0156 735.5,263.1406 735.6406,263.2656 C735.7813,263.4063 736.0156,263.5156 736.2344,263.5156 C736.5,263.5156 736.7656,263.375 736.9375,263.1563 C737.0469,263 737.0781,262.8125 737.0781,262.3906 L737.0781,260.9688 C737.0781,260.5313 737.0625,260.4063 736.9688,260.25 C736.8125,259.9844 736.5313,259.8438 736.2344,259.8438 C735.9375,259.8438 735.7344,259.9375 735.5156,260.25 L735.3438,260.1719 Z " fill="#000000"/><text fill="#000000" font-family="sans-serif" font-size="12" lengthAdjust="spacing" textLength="61" x="747" y="268.6543">SortingTIN</text><line style="stroke:#A80036;stroke-width:1.5;" x1="719" x2="810" y1="280.5" y2="280.5"/><!--MD5=[1c357e7e7fdba398bcadd6e61afe49f5]
class ReferenceValue--><rect codeLine="62" fill="#FEFECE" filter="url(#f109zamymc9tet)" height="40" id="ReferenceValue" style="stroke:#A80036;stroke-width:1.5;" width="127" x="1244" y="143.5"/><ellipse cx="1259" cy="159.5" fill="#ADD1B2" rx="11" ry="11" style="stroke:#A80036;stroke-width:1.0;"/><path d="M1261.3438,155.1719 C1260.4063,154.7344 1259.8125,154.5938 1258.9375,154.5938 C1256.3125,154.5938 1254.3125,156.6719 1254.3125,159.3906 L1254.3125,160.5156 C1254.3125,163.0938 1256.4219,164.9844 1259.3125,164.9844 C1260.5313,164.9844 1261.6875,164.6875 1262.4375,164.1406 C1263.0156,163.7344 1263.3438,163.2813 1263.3438,162.8906 C1263.3438,162.4375 1262.9531,162.0469 1262.4844,162.0469 C1262.2656,162.0469 1262.0625,162.125 1261.875,162.3125 C1261.4219,162.7969 1261.4219,162.7969 1261.2344,162.8906 C1260.8125,163.1563 1260.125,163.2813 1259.3594,163.2813 C1257.3125,163.2813 1256.0156,162.1875 1256.0156,160.4844 L1256.0156,159.3906 C1256.0156,157.6094 1257.2656,156.2969 1259,156.2969 C1259.5781,156.2969 1260.1875,156.4531 1260.6563,156.7031 C1261.1406,156.9844 1261.3125,157.2031 1261.4063,157.6094 C1261.4688,158.0156 1261.5,158.1406 1261.6406,158.2656 C1261.7813,158.4063 1262.0156,158.5156 1262.2344,158.5156 C1262.5,158.5156 1262.7656,158.375 1262.9375,158.1563 C1263.0469,158 1263.0781,157.8125 1263.0781,157.3906 L1263.0781,155.9688 C1263.0781,155.5313 1263.0625,155.4063 1262.9688,155.25 C1262.8125,154.9844 1262.5313,154.8438 1262.2344,154.8438 C1261.9375,154.8438 1261.7344,154.9375 1261.5156,155.25 L1261.3438,155.1719 Z " fill="#000000"/><text fill="#000000" font-family="sans-serif" font-size="12" lengthAdjust="spacing" textLength="95" x="1273" y="163.6543">ReferenceValue</text><line style="stroke:#A80036;stroke-width:1.5;" x1="1245" x2="1370" y1="175.5" y2="175.5"/><!--MD5=[09366576ee87d48d594df10cacc83f45]
link Company to Employee--><path codeLine="67" d="M147.697,136.441 C199.741,122.203 276.017,101.335 332.379,85.915 " fill="none" id="Company-Employee" style="stroke:#A80036;stroke-width:1.0;"/><polygon fill="#000000" points="223.3228,85.747,213.8228,85.2991,215.3738,90.9686,223.3228,85.747" style="stroke:#000000;stroke-width:1.0;"/><text fill="#000000" font-family="sans-serif" font-size="13" lengthAdjust="spacing" textLength="55" x="227.5" y="91.5669">employs</text><text fill="#000000" font-family="sans-serif" font-size="13" lengthAdjust="spacing" textLength="8" x="155.4601" y="147.4848">1</text><text fill="#000000" font-family="sans-serif" font-size="13" lengthAdjust="spacing" textLength="7" x="317.5905" y="100.7448">*</text><!--MD5=[77bf75294b43a84e12da3da1aebbf66b]
reverse link Employee to ClinicalChemestryTechnologist--><path codeLine="68" d="M503.966,59.606 C551.121,56.68 608.263,53.134 656.913,50.115 " fill="none" id="Employee-backto-ClinicalChemestryTechnologist" style="stroke:#A80036;stroke-width:1.0;"/><polygon fill="none" points="504.142,66.609,483.747,60.861,503.275,52.636,504.142,66.609" style="stroke:#A80036;stroke-width:1.0;"/><polygon fill="#000000" points="563.4904,44.7567,554.2807,42.3837,554.6447,48.2502,563.4904,44.7567" style="stroke:#000000;stroke-width:1.0;"/><text fill="#000000" font-family="sans-serif" font-size="13" lengthAdjust="spacing" textLength="23" x="567.5" y="49.5669">has</text><text fill="#000000" font-family="sans-serif" font-size="13" lengthAdjust="spacing" textLength="8" x="491.5971" y="73.2245">1</text><text fill="#000000" font-family="sans-serif" font-size="13" lengthAdjust="spacing" textLength="7" x="642.1022" y="63.179">*</text><!--MD5=[fc1d6f9fd80c99080e4c5b9b14a66284]
link ClinicalChemestryTechnologist to TestParameterResult--><path codeLine="69" d="M823.471,63.539 C839.275,69.178 856.351,75.431 872,81.5 C911.635,96.87 955.3,115.063 991.292,130.402 " fill="none" id="ClinicalChemestryTechnologist-TestParameterResult" style="stroke:#A80036;stroke-width:1.0;"/><polygon fill="#000000" points="911.6449,86.917,904.33,80.839,902.1544,86.2994,911.6449,86.917" style="stroke:#000000;stroke-width:1.0;"/><text fill="#000000" font-family="sans-serif" font-size="13" lengthAdjust="spacing" textLength="44" x="916" y="89.5669">checks</text><text fill="#000000" font-family="sans-serif" font-size="13" lengthAdjust="spacing" textLength="8" x="831.6187" y="83.715">1</text><text fill="#000000" font-family="sans-serif" font-size="13" lengthAdjust="spacing" textLength="23" x="960.1142" y="123.7504">1..*</text><!--MD5=[1a7d8e28b5d973a57542c80db5001620]
link Company to SortingAl--><path codeLine="70" d="M147.697,160.068 C210.508,168.166 308.617,180.815 364.413,188.009 " fill="none" id="Company-SortingAl" style="stroke:#A80036;stroke-width:1.0;"/><polygon fill="#000000" points="235.959,158.7058,227.3639,154.6344,226.6123,160.464,235.959,158.7058" style="stroke:#000000;stroke-width:1.0;"/><text fill="#000000" font-family="sans-serif" font-size="13" lengthAdjust="spacing" textLength="30" x="240" y="162.5669">uses</text><text fill="#000000" font-family="sans-serif" font-size="13" lengthAdjust="spacing" textLength="8" x="155.4601" y="173.9913">1</text><text fill="#000000" font-family="sans-serif" font-size="13" lengthAdjust="spacing" textLength="7" x="349.6142" y="200.4196">*</text><!--MD5=[089cd3b60e666bfb1de75b28f7973058]
reverse link SortingAl to SortingName--><path codeLine="71" d="M471.844,193.5 C539.514,193.5 646.029,193.5 709.887,193.5 " fill="none" id="SortingAl-backto-SortingName" style="stroke:#A80036;stroke-width:1.0;"/><polygon fill="none" points="471.761,200.5,451.761,193.5,471.761,186.5,471.761,200.5" style="stroke:#A80036;stroke-width:1.0;"/><polygon fill="#000000" points="537,185.0664,527.9549,182.1275,527.9549,188.0053,537,185.0664" style="stroke:#000000;stroke-width:1.0;"/><text fill="#000000" font-family="sans-serif" font-size="13" lengthAdjust="spacing" textLength="76" x="541" y="189.5669">implements</text><text fill="#000000" font-family="sans-serif" font-size="13" lengthAdjust="spacing" textLength="8" x="459.3729" y="206.7728">1</text><text fill="#000000" font-family="sans-serif" font-size="13" lengthAdjust="spacing" textLength="8" x="694.0109" y="206.5836">1</text><!--MD5=[9b2c037e929e3a1b89921f27fa4b7070]
reverse link SortingAl to SortingTIN--><path codeLine="72" d="M471.276,208.061 C486.541,211.553 502.847,215.22 518,218.5 C587.507,233.547 668.369,249.769 717.731,259.527 " fill="none" id="SortingAl-backto-SortingTIN" style="stroke:#A80036;stroke-width:1.0;"/><polygon fill="none" points="469.57,214.851,451.653,203.538,472.715,201.209,469.57,214.851" style="stroke:#A80036;stroke-width:1.0;"/><polygon fill="#000000" points="536.8944,211.0885,528.6411,206.3627,527.4396,212.1164,536.8944,211.0885" style="stroke:#000000;stroke-width:1.0;"/><text fill="#000000" font-family="sans-serif" font-size="13" lengthAdjust="spacing" textLength="76" x="541" y="214.5669">implements</text><text fill="#000000" font-family="sans-serif" font-size="13" lengthAdjust="spacing" textLength="8" x="459.5455" y="218.5206">1</text><text fill="#000000" font-family="sans-serif" font-size="13" lengthAdjust="spacing" textLength="8" x="701.957" y="271.3785">1</text><!--MD5=[a79cb27a1e16cbe09c4fb337f50af753]
link SortingAl to ConfigurationFile--><path codeLine="73" d="M451.653,183.462 C471.755,178.797 496.083,173.244 518,168.5 C579.004,155.294 648.756,141.182 698.281,131.33 " fill="none" id="SortingAl-ConfigurationFile" style="stroke:#A80036;stroke-width:1.0;"/><polygon fill="#000000" points="527.8919,136.0324,518.4346,135.0276,519.6502,140.7784,527.8919,136.0324" style="stroke:#000000;stroke-width:1.0;"/><text fill="#000000" font-family="sans-serif" font-size="13" lengthAdjust="spacing" textLength="94" x="532" y="141.5669">is configure by</text><text fill="#000000" font-family="sans-serif" font-size="13" lengthAdjust="spacing" textLength="8" x="459.5455" y="177.6352">1</text><text fill="#000000" font-family="sans-serif" font-size="13" lengthAdjust="spacing" textLength="7" x="683.6555" y="145.6278">*</text><!--MD5=[a7606ae305a308ec08f8eaca7f38d164]
link Client to SortingAl--><path codeLine="74" d="M169.245,269.761 C231.251,249.872 314.635,223.127 364.392,207.167 " fill="none" id="Client-SortingAl" style="stroke:#A80036;stroke-width:1.0;"/><polygon fill="#000000" points="199.2389,221.5935,208.7494,221.6294,206.9542,216.0324,199.2389,221.5935" style="stroke:#000000;stroke-width:1.0;"/><text fill="#000000" font-family="sans-serif" font-size="13" lengthAdjust="spacing" textLength="84" x="213" y="224.5669">Makes use of</text><text fill="#000000" font-family="sans-serif" font-size="13" lengthAdjust="spacing" textLength="7" x="177.0574" y="280.1695">*</text><text fill="#000000" font-family="sans-serif" font-size="13" lengthAdjust="spacing" textLength="8" x="348.5069" y="222.7507">1</text><!--MD5=[502b51bc079239060389dab43b7d3470]
link Client to Test--><path codeLine="75" d="M169.106,319.232 C179.109,321.637 189.248,323.811 199,325.5 C241.11,332.794 288.592,336.7633 327.547,338.9231 " fill="none" id="Client-Test" style="stroke:#A80036;stroke-width:1.0;"/><polygon fill="#000000" points="229.5382,316.4497,238.1517,320.4818,238.8767,314.6488,229.5382,316.4497" style="stroke:#000000;stroke-width:1.0;"/><text fill="#000000" font-family="sans-serif" font-size="13" lengthAdjust="spacing" textLength="23" x="243.5" y="321.5669">has</text><text fill="#000000" font-family="sans-serif" font-size="13" lengthAdjust="spacing" textLength="8" x="176.9517" y="334.2011">1</text><text fill="#000000" font-family="sans-serif" font-size="13" lengthAdjust="spacing" textLength="23" x="296.9321" y="351.4093">1..*</text><!--MD5=[f24c888dadeb846430474fe80a58922b]
link Test to TestParameter--><path codeLine="76" d="M488.115,341.9463 C553.721,342.3165 645.518,342.8344 704.746,343.1685 " fill="none" id="Test-TestParameter" style="stroke:#A80036;stroke-width:1.0;"/><polygon fill="#000000" points="563.4999,333.0946,554.4716,330.1047,554.4384,335.9825,563.4999,333.0946" style="stroke:#000000;stroke-width:1.0;"/><text fill="#000000" font-family="sans-serif" font-size="13" lengthAdjust="spacing" textLength="23" x="567.5" y="337.5669">has</text><text fill="#000000" font-family="sans-serif" font-size="13" lengthAdjust="spacing" textLength="8" x="495.8694" y="354.7587">1</text><text fill="#000000" font-family="sans-serif" font-size="13" lengthAdjust="spacing" textLength="23" x="673.9526" y="356.0267">1..*</text><!--MD5=[0e00e25ac6b8c14659aaff2cf7e5df08]
link TestParameter to TestParameterResult--><path codeLine="77" d="M824.019,326.659 C839.985,321.136 857.005,314.363 872,306.5 C930.843,275.645 991.521,228.405 1029.36,196.759 " fill="none" id="TestParameter-TestParameterResult" style="stroke:#A80036;stroke-width:1.0;"/><polygon fill="#000000" points="921.7255,242.3933,912.5103,244.7453,915.6527,249.7126,921.7255,242.3933" style="stroke:#000000;stroke-width:1.0;"/><text fill="#000000" font-family="sans-serif" font-size="13" lengthAdjust="spacing" textLength="23" x="926.5" y="249.5669">has</text><text fill="#000000" font-family="sans-serif" font-size="13" lengthAdjust="spacing" textLength="8" x="832.1574" y="337.5376">1</text><text fill="#000000" font-family="sans-serif" font-size="13" lengthAdjust="spacing" textLength="8" x="1013.6757" y="216.1327">1</text><!--MD5=[52200cc2361fa0ac0481dd6ffcdb824b]
link TestParameterResult to ReferenceValue--><path codeLine="78" d="M1146.12,163.5 C1177.77,163.5 1213.99,163.5 1243.99,163.5 " fill="none" id="TestParameterResult-ReferenceValue" style="stroke:#A80036;stroke-width:1.0;"/><polygon fill="#000000" points="1186,155.0664,1176.9549,152.1275,1176.9549,158.0053,1186,155.0664" style="stroke:#000000;stroke-width:1.0;"/><text fill="#000000" font-family="sans-serif" font-size="13" lengthAdjust="spacing" textLength="23" x="1190" y="159.5669">has</text><text fill="#000000" font-family="sans-serif" font-size="13" lengthAdjust="spacing" textLength="8" x="1153.8994" y="176.3067">1</text><text fill="#000000" font-family="sans-serif" font-size="13" lengthAdjust="spacing" textLength="8" x="1228.1842" y="176.4418">1</text><!--MD5=[5fdf652817dc254ac6a8a38bde2b3cce]
@startuml
hide methods
left to right direction
skinparam classAttributeIconSize 0


class Company {
  -String designation
}


class Test{
  -String code
  -String NHSCode
  -String description 
  -String dateSample 
  -String timeSmaple
  -String dateChemAnalysis
  -String timeChemAnalysis
  -String dateDiagnosis 
  -String timeDiagnosis 
  -String dateValidTest 
  -String timeValidTest
}
class Employee{
  -String employeeID;
  -String organizationRole;
  -String name;
  -String adress;
  -String phoneNumber;
  -int codeSOC;
}
class ClinicalChemestryTechnologist{
}
class TestParameter{
 
}

class TestParameterResult{
  -String Value
  -String metric
  
  
}

class Client{
  -String citizenCardNumber 
  -String numberNHS 
  -String numberTIN
  -String birthDate
  -String sex 
  -String phoneNumber
  -String name
}
interface SortingAl{
}
class ConfigurationFile{
}
class SortingName{
}
class SortingTIN{
}
class ReferenceValue{
}



Company "1" - - "*" Employee: employs >
Employee "1" <|- - "*" ClinicalChemestryTechnologist: has >
ClinicalChemestryTechnologist "1" - - "1..*" TestParameterResult : checks >
Company "1" - - "*" SortingAl: uses >
SortingAl "1" <|- - "1" SortingName : implements >
SortingAl "1" <|- - "1" SortingTIN : implements >
SortingAl "1" - - "*" ConfigurationFile : is configure by >
Client "*" - - "1" SortingAl : Makes use of <
Client "1" - - "1..*"Test : has < 
Test "1" - - "1..*" TestParameter: has >
TestParameter "1" - - "1" TestParameterResult: has >
TestParameterResult "1" - - "1" ReferenceValue : has >
@enduml

PlantUML version 1.2021.7(Sun May 23 12:40:07 UTC 2021)
(GPL source distribution)
Java Runtime: Java(TM) SE Runtime Environment
JVM: Java HotSpot(TM) 64-Bit Server VM
Default Encoding: UTF-8
Language: en
Country: US
--></g></svg>