<?xml version="1.0" encoding="UTF-8" standalone="no"?><svg xmlns="http://www.w3.org/2000/svg" xmlns:xlink="http://www.w3.org/1999/xlink" contentScriptType="application/ecmascript" contentStyleType="text/css" height="867px" preserveAspectRatio="none" style="width:446px;height:867px;background:#FFFFFF;" version="1.1" viewBox="0 0 446 867" width="446px" zoomAndPan="magnify"><defs><filter height="300%" id="fcxsn5ob7sqhn" width="300%" x="-1" y="-1"><feGaussianBlur result="blurOut" stdDeviation="2.0"/><feColorMatrix in="blurOut" result="blurOut2" type="matrix" values="0 0 0 0 0 0 0 0 0 0 0 0 0 0 0 0 0 0 .4 0"/><feOffset dx="4.0" dy="4.0" in="blurOut2" result="blurOut3"/><feBlend in="SourceGraphic" in2="blurOut3" mode="normal"/></filter></defs><g><!--MD5=[21de9af89b21e7e8d684ed69a1f0d5c0]
class CheckResultController--><rect codeLine="3" fill="#FEFECE" filter="url(#fcxsn5ob7sqhn)" height="176.0469" id="CheckResultController" style="stroke:#A80036;stroke-width:1.5;" width="180" x="48.5" y="116"/><ellipse cx="70.7" cy="132" fill="#ADD1B2" rx="11" ry="11" style="stroke:#A80036;stroke-width:1.0;"/><path d="M73.0438,127.6719 C72.1063,127.2344 71.5125,127.0938 70.6375,127.0938 C68.0125,127.0938 66.0125,129.1719 66.0125,131.8906 L66.0125,133.0156 C66.0125,135.5938 68.1219,137.4844 71.0125,137.4844 C72.2313,137.4844 73.3875,137.1875 74.1375,136.6406 C74.7156,136.2344 75.0438,135.7813 75.0438,135.3906 C75.0438,134.9375 74.6531,134.5469 74.1844,134.5469 C73.9656,134.5469 73.7625,134.625 73.575,134.8125 C73.1219,135.2969 73.1219,135.2969 72.9344,135.3906 C72.5125,135.6563 71.825,135.7813 71.0594,135.7813 C69.0125,135.7813 67.7156,134.6875 67.7156,132.9844 L67.7156,131.8906 C67.7156,130.1094 68.9656,128.7969 70.7,128.7969 C71.2781,128.7969 71.8875,128.9531 72.3563,129.2031 C72.8406,129.4844 73.0125,129.7031 73.1063,130.1094 C73.1688,130.5156 73.2,130.6406 73.3406,130.7656 C73.4813,130.9063 73.7156,131.0156 73.9344,131.0156 C74.2,131.0156 74.4656,130.875 74.6375,130.6563 C74.7469,130.5 74.7781,130.3125 74.7781,129.8906 L74.7781,128.4688 C74.7781,128.0313 74.7625,127.9063 74.6688,127.75 C74.5125,127.4844 74.2313,127.3438 73.9344,127.3438 C73.6375,127.3438 73.4344,127.4375 73.2156,127.75 L73.0438,127.6719 Z " fill="#000000"/><text fill="#000000" font-family="sans-serif" font-size="12" lengthAdjust="spacing" textLength="132" x="86.3" y="136.1543">CheckResultController</text><line style="stroke:#A80036;stroke-width:1.5;" x1="49.5" x2="227.5" y1="148" y2="148"/><text fill="#000000" font-family="sans-serif" font-size="11" lengthAdjust="spacing" textLength="136" x="54.5" y="162.2104">-TestValideStore store1</text><text fill="#000000" font-family="sans-serif" font-size="11" lengthAdjust="spacing" textLength="114" x="54.5" y="175.0151">-Company company</text><text fill="#000000" font-family="sans-serif" font-size="11" lengthAdjust="spacing" textLength="37" x="54.5" y="187.8198">-Test t</text><text fill="#000000" font-family="sans-serif" font-size="11" lengthAdjust="spacing" textLength="47" x="54.5" y="200.6245">-Client c</text><line style="stroke:#A80036;stroke-width:1.5;" x1="49.5" x2="227.5" y1="207.2188" y2="207.2188"/><text fill="#000000" font-family="sans-serif" font-size="11" lengthAdjust="spacing" textLength="57" x="54.5" y="221.4292">+sortList()</text><text fill="#000000" font-family="sans-serif" font-size="11" lengthAdjust="spacing" textLength="152" x="54.5" y="234.2339">+showSort(List&lt;Client&gt; cl)</text><text fill="#000000" font-family="sans-serif" font-size="11" lengthAdjust="spacing" textLength="149" x="54.5" y="247.0386">+getTestFromCL(Client cl)</text><text fill="#000000" font-family="sans-serif" font-size="11" lengthAdjust="spacing" textLength="143" x="54.5" y="259.8433">+convert(List&lt;Client&gt; cl)</text><text fill="#000000" font-family="sans-serif" font-size="11" lengthAdjust="spacing" textLength="164" x="54.5" y="272.6479">+convert2(List&lt;Test&gt; listCT)</text><text fill="#000000" font-family="sans-serif" font-size="11" lengthAdjust="spacing" textLength="168" x="54.5" y="285.4526">+showTest(List&lt;Test&gt; listCT)</text><!--MD5=[bb966fc71b2071972a67e1d53af3e5bd]
class CheckResultUI--><rect codeLine="16" fill="#FEFECE" filter="url(#fcxsn5ob7sqhn)" height="48" id="CheckResultUI" style="stroke:#A80036;stroke-width:1.5;" width="117" x="80" y="7"/><ellipse cx="95" cy="23" fill="#ADD1B2" rx="11" ry="11" style="stroke:#A80036;stroke-width:1.0;"/><path d="M97.3438,18.6719 C96.4063,18.2344 95.8125,18.0938 94.9375,18.0938 C92.3125,18.0938 90.3125,20.1719 90.3125,22.8906 L90.3125,24.0156 C90.3125,26.5938 92.4219,28.4844 95.3125,28.4844 C96.5313,28.4844 97.6875,28.1875 98.4375,27.6406 C99.0156,27.2344 99.3438,26.7813 99.3438,26.3906 C99.3438,25.9375 98.9531,25.5469 98.4844,25.5469 C98.2656,25.5469 98.0625,25.625 97.875,25.8125 C97.4219,26.2969 97.4219,26.2969 97.2344,26.3906 C96.8125,26.6563 96.125,26.7813 95.3594,26.7813 C93.3125,26.7813 92.0156,25.6875 92.0156,23.9844 L92.0156,22.8906 C92.0156,21.1094 93.2656,19.7969 95,19.7969 C95.5781,19.7969 96.1875,19.9531 96.6563,20.2031 C97.1406,20.4844 97.3125,20.7031 97.4063,21.1094 C97.4688,21.5156 97.5,21.6406 97.6406,21.7656 C97.7813,21.9063 98.0156,22.0156 98.2344,22.0156 C98.5,22.0156 98.7656,21.875 98.9375,21.6563 C99.0469,21.5 99.0781,21.3125 99.0781,20.8906 L99.0781,19.4688 C99.0781,19.0313 99.0625,18.9063 98.9688,18.75 C98.8125,18.4844 98.5313,18.3438 98.2344,18.3438 C97.9375,18.3438 97.7344,18.4375 97.5156,18.75 L97.3438,18.6719 Z " fill="#000000"/><text fill="#000000" font-family="sans-serif" font-size="12" lengthAdjust="spacing" textLength="85" x="109" y="27.1543">CheckResultUI</text><line style="stroke:#A80036;stroke-width:1.5;" x1="81" x2="196" y1="39" y2="39"/><line style="stroke:#A80036;stroke-width:1.5;" x1="81" x2="196" y1="47" y2="47"/><!--MD5=[df38be88ccee13e832d6fafd6288a4ca]
class Test--><rect codeLine="18" fill="#FEFECE" filter="url(#fcxsn5ob7sqhn)" height="60.8047" id="Test" style="stroke:#A80036;stroke-width:1.5;" width="81" x="49" y="642"/><ellipse cx="74.35" cy="658" fill="#ADD1B2" rx="11" ry="11" style="stroke:#A80036;stroke-width:1.0;"/><path d="M76.6938,653.6719 C75.7563,653.2344 75.1625,653.0938 74.2875,653.0938 C71.6625,653.0938 69.6625,655.1719 69.6625,657.8906 L69.6625,659.0156 C69.6625,661.5938 71.7719,663.4844 74.6625,663.4844 C75.8813,663.4844 77.0375,663.1875 77.7875,662.6406 C78.3656,662.2344 78.6938,661.7813 78.6938,661.3906 C78.6938,660.9375 78.3031,660.5469 77.8344,660.5469 C77.6156,660.5469 77.4125,660.625 77.225,660.8125 C76.7719,661.2969 76.7719,661.2969 76.5844,661.3906 C76.1625,661.6563 75.475,661.7813 74.7094,661.7813 C72.6625,661.7813 71.3656,660.6875 71.3656,658.9844 L71.3656,657.8906 C71.3656,656.1094 72.6156,654.7969 74.35,654.7969 C74.9281,654.7969 75.5375,654.9531 76.0063,655.2031 C76.4906,655.4844 76.6625,655.7031 76.7563,656.1094 C76.8188,656.5156 76.85,656.6406 76.9906,656.7656 C77.1313,656.9063 77.3656,657.0156 77.5844,657.0156 C77.85,657.0156 78.1156,656.875 78.2875,656.6563 C78.3969,656.5 78.4281,656.3125 78.4281,655.8906 L78.4281,654.4688 C78.4281,654.0313 78.4125,653.9063 78.3188,653.75 C78.1625,653.4844 77.8813,653.3438 77.5844,653.3438 C77.2875,653.3438 77.0844,653.4375 76.8656,653.75 L76.6938,653.6719 Z " fill="#000000"/><text fill="#000000" font-family="sans-serif" font-size="12" lengthAdjust="spacing" textLength="26" x="90.65" y="662.1543">Test</text><line style="stroke:#A80036;stroke-width:1.5;" x1="50" x2="129" y1="674" y2="674"/><line style="stroke:#A80036;stroke-width:1.5;" x1="50" x2="129" y1="682" y2="682"/><text fill="#000000" font-family="sans-serif" font-size="11" lengthAdjust="spacing" textLength="69" x="55" y="696.2104">+getClient()</text><!--MD5=[02e4b9b7573f1156f41e60aa5b4e25a4]
class Company--><rect codeLine="22" fill="#FEFECE" filter="url(#fcxsn5ob7sqhn)" height="73.6094" id="Company" style="stroke:#A80036;stroke-width:1.5;" width="140" x="19.5" y="353"/><ellipse cx="57.9" cy="369" fill="#ADD1B2" rx="11" ry="11" style="stroke:#A80036;stroke-width:1.0;"/><path d="M60.2438,364.6719 C59.3063,364.2344 58.7125,364.0938 57.8375,364.0938 C55.2125,364.0938 53.2125,366.1719 53.2125,368.8906 L53.2125,370.0156 C53.2125,372.5938 55.3219,374.4844 58.2125,374.4844 C59.4313,374.4844 60.5875,374.1875 61.3375,373.6406 C61.9156,373.2344 62.2438,372.7813 62.2438,372.3906 C62.2438,371.9375 61.8531,371.5469 61.3844,371.5469 C61.1656,371.5469 60.9625,371.625 60.775,371.8125 C60.3219,372.2969 60.3219,372.2969 60.1344,372.3906 C59.7125,372.6563 59.025,372.7813 58.2594,372.7813 C56.2125,372.7813 54.9156,371.6875 54.9156,369.9844 L54.9156,368.8906 C54.9156,367.1094 56.1656,365.7969 57.9,365.7969 C58.4781,365.7969 59.0875,365.9531 59.5563,366.2031 C60.0406,366.4844 60.2125,366.7031 60.3063,367.1094 C60.3688,367.5156 60.4,367.6406 60.5406,367.7656 C60.6813,367.9063 60.9156,368.0156 61.1344,368.0156 C61.4,368.0156 61.6656,367.875 61.8375,367.6563 C61.9469,367.5 61.9781,367.3125 61.9781,366.8906 L61.9781,365.4688 C61.9781,365.0313 61.9625,364.9063 61.8688,364.75 C61.7125,364.4844 61.4313,364.3438 61.1344,364.3438 C60.8375,364.3438 60.6344,364.4375 60.4156,364.75 L60.2438,364.6719 Z " fill="#000000"/><text fill="#000000" font-family="sans-serif" font-size="12" lengthAdjust="spacing" textLength="56" x="77.1" y="373.1543">Company</text><line style="stroke:#A80036;stroke-width:1.5;" x1="20.5" x2="158.5" y1="385" y2="385"/><text fill="#000000" font-family="sans-serif" font-size="11" lengthAdjust="spacing" textLength="107" x="25.5" y="399.2104">-String designation</text><line style="stroke:#A80036;stroke-width:1.5;" x1="20.5" x2="158.5" y1="405.8047" y2="405.8047"/><text fill="#000000" font-family="sans-serif" font-size="11" lengthAdjust="spacing" textLength="128" x="25.5" y="420.0151">+getTestValideStore()</text><!--MD5=[ed6624c6556d5e7b1bd23032162d20b7]
class Client--><rect codeLine="26" fill="#FEFECE" filter="url(#fcxsn5ob7sqhn)" height="73.6094" id="Client" style="stroke:#A80036;stroke-width:1.5;" width="165" x="7" y="780"/><ellipse cx="68.75" cy="796" fill="#ADD1B2" rx="11" ry="11" style="stroke:#A80036;stroke-width:1.0;"/><path d="M71.0938,791.6719 C70.1563,791.2344 69.5625,791.0938 68.6875,791.0938 C66.0625,791.0938 64.0625,793.1719 64.0625,795.8906 L64.0625,797.0156 C64.0625,799.5938 66.1719,801.4844 69.0625,801.4844 C70.2813,801.4844 71.4375,801.1875 72.1875,800.6406 C72.7656,800.2344 73.0938,799.7813 73.0938,799.3906 C73.0938,798.9375 72.7031,798.5469 72.2344,798.5469 C72.0156,798.5469 71.8125,798.625 71.625,798.8125 C71.1719,799.2969 71.1719,799.2969 70.9844,799.3906 C70.5625,799.6563 69.875,799.7813 69.1094,799.7813 C67.0625,799.7813 65.7656,798.6875 65.7656,796.9844 L65.7656,795.8906 C65.7656,794.1094 67.0156,792.7969 68.75,792.7969 C69.3281,792.7969 69.9375,792.9531 70.4063,793.2031 C70.8906,793.4844 71.0625,793.7031 71.1563,794.1094 C71.2188,794.5156 71.25,794.6406 71.3906,794.7656 C71.5313,794.9063 71.7656,795.0156 71.9844,795.0156 C72.25,795.0156 72.5156,794.875 72.6875,794.6563 C72.7969,794.5 72.8281,794.3125 72.8281,793.8906 L72.8281,792.4688 C72.8281,792.0313 72.8125,791.9063 72.7188,791.75 C72.5625,791.4844 72.2813,791.3438 71.9844,791.3438 C71.6875,791.3438 71.4844,791.4375 71.2656,791.75 L71.0938,791.6719 Z " fill="#000000"/><text fill="#000000" font-family="sans-serif" font-size="12" lengthAdjust="spacing" textLength="33" x="89.25" y="800.1543">Client</text><line style="stroke:#A80036;stroke-width:1.5;" x1="8" x2="171" y1="812" y2="812"/><line style="stroke:#A80036;stroke-width:1.5;" x1="8" x2="171" y1="820" y2="820"/><text fill="#000000" font-family="sans-serif" font-size="11" lengthAdjust="spacing" textLength="153" x="13" y="834.2104">+sorting(List&lt;Client&gt; listC)</text><text fill="#000000" font-family="sans-serif" font-size="11" lengthAdjust="spacing" textLength="136" x="13" y="847.0151">+getLstTestComplete();</text><!--MD5=[103cc62abc3c4e47394448103f866516]
class TestValideStore--><rect codeLine="31" fill="#FEFECE" filter="url(#fcxsn5ob7sqhn)" height="60.8047" id="TestValideStore" style="stroke:#A80036;stroke-width:1.5;" width="128" x="25.5" y="504"/><ellipse cx="40.5" cy="520" fill="#ADD1B2" rx="11" ry="11" style="stroke:#A80036;stroke-width:1.0;"/><path d="M42.8438,515.6719 C41.9063,515.2344 41.3125,515.0938 40.4375,515.0938 C37.8125,515.0938 35.8125,517.1719 35.8125,519.8906 L35.8125,521.0156 C35.8125,523.5938 37.9219,525.4844 40.8125,525.4844 C42.0313,525.4844 43.1875,525.1875 43.9375,524.6406 C44.5156,524.2344 44.8438,523.7813 44.8438,523.3906 C44.8438,522.9375 44.4531,522.5469 43.9844,522.5469 C43.7656,522.5469 43.5625,522.625 43.375,522.8125 C42.9219,523.2969 42.9219,523.2969 42.7344,523.3906 C42.3125,523.6563 41.625,523.7813 40.8594,523.7813 C38.8125,523.7813 37.5156,522.6875 37.5156,520.9844 L37.5156,519.8906 C37.5156,518.1094 38.7656,516.7969 40.5,516.7969 C41.0781,516.7969 41.6875,516.9531 42.1563,517.2031 C42.6406,517.4844 42.8125,517.7031 42.9063,518.1094 C42.9688,518.5156 43,518.6406 43.1406,518.7656 C43.2813,518.9063 43.5156,519.0156 43.7344,519.0156 C44,519.0156 44.2656,518.875 44.4375,518.6563 C44.5469,518.5 44.5781,518.3125 44.5781,517.8906 L44.5781,516.4688 C44.5781,516.0313 44.5625,515.9063 44.4688,515.75 C44.3125,515.4844 44.0313,515.3438 43.7344,515.3438 C43.4375,515.3438 43.2344,515.4375 43.0156,515.75 L42.8438,515.6719 Z " fill="#000000"/><text fill="#000000" font-family="sans-serif" font-size="12" lengthAdjust="spacing" textLength="96" x="54.5" y="524.1543">TestValideStore</text><line style="stroke:#A80036;stroke-width:1.5;" x1="26.5" x2="152.5" y1="536" y2="536"/><line style="stroke:#A80036;stroke-width:1.5;" x1="26.5" x2="152.5" y1="544" y2="544"/><text fill="#000000" font-family="sans-serif" font-size="11" lengthAdjust="spacing" textLength="101" x="31.5" y="558.2104">+getTestsValids()</text><!--MD5=[335f4d9be48430461c68bf6d6fdba145]
class App--><rect codeLine="36" fill="#FEFECE" filter="url(#fcxsn5ob7sqhn)" height="73.6094" id="App" style="stroke:#A80036;stroke-width:1.5;" width="102" x="194.5" y="353"/><ellipse cx="230.2" cy="369" fill="#ADD1B2" rx="11" ry="11" style="stroke:#A80036;stroke-width:1.0;"/><path d="M232.5438,364.6719 C231.6063,364.2344 231.0125,364.0938 230.1375,364.0938 C227.5125,364.0938 225.5125,366.1719 225.5125,368.8906 L225.5125,370.0156 C225.5125,372.5938 227.6219,374.4844 230.5125,374.4844 C231.7313,374.4844 232.8875,374.1875 233.6375,373.6406 C234.2156,373.2344 234.5438,372.7813 234.5438,372.3906 C234.5438,371.9375 234.1531,371.5469 233.6844,371.5469 C233.4656,371.5469 233.2625,371.625 233.075,371.8125 C232.6219,372.2969 232.6219,372.2969 232.4344,372.3906 C232.0125,372.6563 231.325,372.7813 230.5594,372.7813 C228.5125,372.7813 227.2156,371.6875 227.2156,369.9844 L227.2156,368.8906 C227.2156,367.1094 228.4656,365.7969 230.2,365.7969 C230.7781,365.7969 231.3875,365.9531 231.8563,366.2031 C232.3406,366.4844 232.5125,366.7031 232.6063,367.1094 C232.6688,367.5156 232.7,367.6406 232.8406,367.7656 C232.9813,367.9063 233.2156,368.0156 233.4344,368.0156 C233.7,368.0156 233.9656,367.875 234.1375,367.6563 C234.2469,367.5 234.2781,367.3125 234.2781,366.8906 L234.2781,365.4688 C234.2781,365.0313 234.2625,364.9063 234.1688,364.75 C234.0125,364.4844 233.7313,364.3438 233.4344,364.3438 C233.1375,364.3438 232.9344,364.4375 232.7156,364.75 L232.5438,364.6719 Z " fill="#000000"/><text fill="#000000" font-family="sans-serif" font-size="12" lengthAdjust="spacing" textLength="24" x="248.8" y="373.1543">App</text><line style="stroke:#A80036;stroke-width:1.5;" x1="195.5" x2="295.5" y1="385" y2="385"/><line style="stroke:#A80036;stroke-width:1.5;" x1="195.5" x2="295.5" y1="393" y2="393"/><text fill="#000000" font-family="sans-serif" font-size="11" lengthAdjust="spacing" textLength="90" x="200.5" y="407.2104">+getCompany()</text><text fill="#000000" font-family="sans-serif" font-size="11" lengthAdjust="spacing" textLength="45" x="200.5" y="420.0151">+sort1()</text><!--MD5=[ac624ed6548ea7717fb67014cd8a9089]
class SortingAl--><rect codeLine="40" fill="#FEFECE" filter="url(#fcxsn5ob7sqhn)" height="60.8047" id="SortingAl" style="stroke:#A80036;stroke-width:1.5;" width="110" x="190.5" y="504"/><ellipse cx="215.85" cy="520" fill="#B4A7E5" rx="11" ry="11" style="stroke:#A80036;stroke-width:1.0;"/><path d="M216.8031,516.7813 L218.5219,516.7813 C218.9125,516.7813 219.1,516.75 219.225,516.6719 C219.4906,516.5156 219.6313,516.2344 219.6313,515.9375 C219.6313,515.6719 219.5219,515.4063 219.2875,515.2344 C219.1156,515.125 218.975,515.0938 218.5219,515.0938 L213.3813,515.0938 C212.9438,515.0938 212.8188,515.1094 212.6625,515.2031 C212.4125,515.3594 212.2563,515.6563 212.2563,515.9375 C212.2563,516.2188 212.3969,516.4688 212.6156,516.6406 C212.7719,516.75 212.9594,516.7813 213.3813,516.7813 L215.1,516.7813 L215.1,523.2969 L213.3813,523.2969 C212.9438,523.2969 212.8188,523.3125 212.6625,523.4219 C212.4125,523.5781 212.2563,523.8594 212.2563,524.1563 C212.2563,524.4063 212.3969,524.6719 212.6156,524.8281 C212.7719,524.9531 212.975,525 213.3813,525 L218.5219,525 C219.2719,525 219.6313,524.7188 219.6313,524.1563 C219.6313,523.875 219.5219,523.625 219.2875,523.4531 C219.1156,523.3281 218.975,523.2969 218.5219,523.2969 L216.8031,523.2969 L216.8031,516.7813 Z " fill="#000000"/><text fill="#000000" font-family="sans-serif" font-size="12" font-style="italic" lengthAdjust="spacing" textLength="55" x="232.15" y="524.1543">SortingAl</text><line style="stroke:#A80036;stroke-width:1.5;" x1="191.5" x2="299.5" y1="536" y2="536"/><line style="stroke:#A80036;stroke-width:1.5;" x1="191.5" x2="299.5" y1="544" y2="544"/><text fill="#000000" font-family="sans-serif" font-size="11" lengthAdjust="spacing" textLength="98" x="196.5" y="558.2104">+compare(o1,o2)</text><!--MD5=[097de5d699d9b9585c922f2bc2da8d5f]
class SortingName--><rect codeLine="43" fill="#FEFECE" filter="url(#fcxsn5ob7sqhn)" height="60.8047" id="SortingName" style="stroke:#A80036;stroke-width:1.5;" width="110" x="177.5" y="642"/><ellipse cx="192.95" cy="658" fill="#ADD1B2" rx="11" ry="11" style="stroke:#A80036;stroke-width:1.0;"/><path d="M195.2938,653.6719 C194.3563,653.2344 193.7625,653.0938 192.8875,653.0938 C190.2625,653.0938 188.2625,655.1719 188.2625,657.8906 L188.2625,659.0156 C188.2625,661.5938 190.3719,663.4844 193.2625,663.4844 C194.4813,663.4844 195.6375,663.1875 196.3875,662.6406 C196.9656,662.2344 197.2938,661.7813 197.2938,661.3906 C197.2938,660.9375 196.9031,660.5469 196.4344,660.5469 C196.2156,660.5469 196.0125,660.625 195.825,660.8125 C195.3719,661.2969 195.3719,661.2969 195.1844,661.3906 C194.7625,661.6563 194.075,661.7813 193.3094,661.7813 C191.2625,661.7813 189.9656,660.6875 189.9656,658.9844 L189.9656,657.8906 C189.9656,656.1094 191.2156,654.7969 192.95,654.7969 C193.5281,654.7969 194.1375,654.9531 194.6063,655.2031 C195.0906,655.4844 195.2625,655.7031 195.3563,656.1094 C195.4188,656.5156 195.45,656.6406 195.5906,656.7656 C195.7313,656.9063 195.9656,657.0156 196.1844,657.0156 C196.45,657.0156 196.7156,656.875 196.8875,656.6563 C196.9969,656.5 197.0281,656.3125 197.0281,655.8906 L197.0281,654.4688 C197.0281,654.0313 197.0125,653.9063 196.9188,653.75 C196.7625,653.4844 196.4813,653.3438 196.1844,653.3438 C195.8875,653.3438 195.6844,653.4375 195.4656,653.75 L195.2938,653.6719 Z " fill="#000000"/><text fill="#000000" font-family="sans-serif" font-size="12" lengthAdjust="spacing" textLength="77" x="207.05" y="662.1543">SortingName</text><line style="stroke:#A80036;stroke-width:1.5;" x1="178.5" x2="286.5" y1="674" y2="674"/><line style="stroke:#A80036;stroke-width:1.5;" x1="178.5" x2="286.5" y1="682" y2="682"/><text fill="#000000" font-family="sans-serif" font-size="11" lengthAdjust="spacing" textLength="98" x="183.5" y="696.2104">+compare(o1,o2)</text><!--MD5=[8d5006eccc08bcbbdfe2d4c5f53d586f]
class SortingTIN--><rect codeLine="46" fill="#FEFECE" filter="url(#fcxsn5ob7sqhn)" height="60.8047" id="SortingTIN" style="stroke:#A80036;stroke-width:1.5;" width="110" x="322.5" y="642"/><ellipse cx="345.15" cy="658" fill="#ADD1B2" rx="11" ry="11" style="stroke:#A80036;stroke-width:1.0;"/><path d="M347.4938,653.6719 C346.5563,653.2344 345.9625,653.0938 345.0875,653.0938 C342.4625,653.0938 340.4625,655.1719 340.4625,657.8906 L340.4625,659.0156 C340.4625,661.5938 342.5719,663.4844 345.4625,663.4844 C346.6813,663.4844 347.8375,663.1875 348.5875,662.6406 C349.1656,662.2344 349.4938,661.7813 349.4938,661.3906 C349.4938,660.9375 349.1031,660.5469 348.6344,660.5469 C348.4156,660.5469 348.2125,660.625 348.025,660.8125 C347.5719,661.2969 347.5719,661.2969 347.3844,661.3906 C346.9625,661.6563 346.275,661.7813 345.5094,661.7813 C343.4625,661.7813 342.1656,660.6875 342.1656,658.9844 L342.1656,657.8906 C342.1656,656.1094 343.4156,654.7969 345.15,654.7969 C345.7281,654.7969 346.3375,654.9531 346.8063,655.2031 C347.2906,655.4844 347.4625,655.7031 347.5563,656.1094 C347.6188,656.5156 347.65,656.6406 347.7906,656.7656 C347.9313,656.9063 348.1656,657.0156 348.3844,657.0156 C348.65,657.0156 348.9156,656.875 349.0875,656.6563 C349.1969,656.5 349.2281,656.3125 349.2281,655.8906 L349.2281,654.4688 C349.2281,654.0313 349.2125,653.9063 349.1188,653.75 C348.9625,653.4844 348.6813,653.3438 348.3844,653.3438 C348.0875,653.3438 347.8844,653.4375 347.6656,653.75 L347.4938,653.6719 Z " fill="#000000"/><text fill="#000000" font-family="sans-serif" font-size="12" lengthAdjust="spacing" textLength="61" x="360.85" y="662.1543">SortingTIN</text><line style="stroke:#A80036;stroke-width:1.5;" x1="323.5" x2="431.5" y1="674" y2="674"/><line style="stroke:#A80036;stroke-width:1.5;" x1="323.5" x2="431.5" y1="682" y2="682"/><text fill="#000000" font-family="sans-serif" font-size="11" lengthAdjust="spacing" textLength="98" x="328.5" y="696.2104">+compare(o1,o2)</text><!--MD5=[6e8128739c97217ae21169bb2c7f2294]
link CheckResultUI to CheckResultController--><path codeLine="50" d="M138.5,55.062 C138.5,69.831 138.5,90.067 138.5,110.83 " fill="none" id="CheckResultUI-to-CheckResultController" style="stroke:#A80036;stroke-width:1.0;stroke-dasharray:7.0,7.0;"/><polygon fill="#A80036" points="138.5,115.831,142.5,106.831,138.5,110.831,134.5,106.831,138.5,115.831" style="stroke:#A80036;stroke-width:1.0;"/><!--MD5=[0bfe72bb3ad8246ccc97622d85b6cc7a]
link CheckResultController to Company--><path codeLine="51" d="M115.291,292.15 C110.135,311.512 104.903,331.16 100.5109,347.653 " fill="none" id="CheckResultController-to-Company" style="stroke:#A80036;stroke-width:1.0;stroke-dasharray:7.0,7.0;"/><polygon fill="#A80036" points="99.1758,352.666,105.3578,344.999,100.4629,347.8345,97.6274,342.9396,99.1758,352.666" style="stroke:#A80036;stroke-width:1.0;"/><!--MD5=[9ce5805348dea4db8e3d3c44fd5baaa0]
link CheckResultController to App--><path codeLine="52" d="M189.18,292.15 C200.536,311.679 212.062,331.499 221.703,348.079 " fill="none" id="CheckResultController-to-App" style="stroke:#A80036;stroke-width:1.0;stroke-dasharray:7.0,7.0;"/><polygon fill="#A80036" points="224.371,352.666,223.3024,342.8753,221.8565,348.3443,216.3876,346.8984,224.371,352.666" style="stroke:#A80036;stroke-width:1.0;"/><!--MD5=[25a75a76c2224f356a77c97b133e1ff1]
link Company to TestValideStore--><path codeLine="53" d="M89.5,427.327 C89.5,449.313 89.5,477.193 89.5,498.866 " fill="none" id="Company-to-TestValideStore" style="stroke:#A80036;stroke-width:1.0;"/><polygon fill="#A80036" points="89.5,503.952,93.5,494.952,89.5,498.952,85.5,494.952,89.5,503.952" style="stroke:#A80036;stroke-width:1.0;"/><polygon fill="#000000" points="94.5,470.5664,97.4389,461.5213,91.5611,461.5213,94.5,470.5664" style="stroke:#000000;stroke-width:1.0;"/><text fill="#000000" font-family="sans-serif" font-size="13" lengthAdjust="spacing" textLength="23" x="103.5" y="470.0669">has</text><text fill="#000000" font-family="sans-serif" font-size="13" lengthAdjust="spacing" textLength="8" x="80.8625" y="446.5799">1</text><text fill="#000000" font-family="sans-serif" font-size="13" lengthAdjust="spacing" textLength="8" x="80.625" y="492.7318">1</text><!--MD5=[3994f36c72829dbcddd1cf7021dddf61]
link Test to Client--><path codeLine="54" d="M89.5,703.026 C89.5,723.792 89.5,751.86 89.5,774.8233 " fill="none" id="Test-to-Client" style="stroke:#A80036;stroke-width:1.0;"/><polygon fill="#A80036" points="89.5,779.9405,93.5,770.9405,89.5,774.9405,85.5,770.9405,89.5,779.9405" style="stroke:#A80036;stroke-width:1.0;"/><polygon fill="#000000" points="94.5,746.5664,97.4389,737.5213,91.5611,737.5213,94.5,746.5664" style="stroke:#000000;stroke-width:1.0;"/><text fill="#000000" font-family="sans-serif" font-size="13" lengthAdjust="spacing" textLength="45" x="103.5" y="746.0669">is from</text><text fill="#000000" font-family="sans-serif" font-size="13" lengthAdjust="spacing" textLength="23" x="64.1281" y="722.9696">1..*</text><text fill="#000000" font-family="sans-serif" font-size="13" lengthAdjust="spacing" textLength="8" x="80.7625" y="768.84">1</text><!--MD5=[ae38701770910d398b42321583ba1835]
link TestValideStore to Test--><path codeLine="55" d="M89.5,565.01 C89.5,585.984 89.5,614.243 89.5,636.379 " fill="none" id="TestValideStore-to-Test" style="stroke:#A80036;stroke-width:1.0;"/><polygon fill="#A80036" points="89.5,641.578,93.5,632.578,89.5,636.578,85.5,632.578,89.5,641.578" style="stroke:#A80036;stroke-width:1.0;"/><polygon fill="#000000" points="94.5,608.5664,97.4389,599.5213,91.5611,599.5213,94.5,608.5664" style="stroke:#000000;stroke-width:1.0;"/><text fill="#000000" font-family="sans-serif" font-size="13" lengthAdjust="spacing" textLength="54" x="103.5" y="608.0669">contains</text><text fill="#000000" font-family="sans-serif" font-size="13" lengthAdjust="spacing" textLength="8" x="80.675" y="584.9503">1</text><text fill="#000000" font-family="sans-serif" font-size="13" lengthAdjust="spacing" textLength="7" x="81.7781" y="630.7542">*</text><!--MD5=[934d52bec3540700b907e78846eaa01a]
link App to SortingAl--><path codeLine="56" d="M245.5,427.327 C245.5,449.313 245.5,477.193 245.5,498.866 " fill="none" id="App-to-SortingAl" style="stroke:#A80036;stroke-width:1.0;"/><polygon fill="#A80036" points="245.5,503.952,249.5,494.952,245.5,498.952,241.5,494.952,245.5,503.952" style="stroke:#A80036;stroke-width:1.0;"/><polygon fill="#000000" points="250.5,470.5664,253.4389,461.5213,247.5611,461.5213,250.5,470.5664" style="stroke:#000000;stroke-width:1.0;"/><text fill="#000000" font-family="sans-serif" font-size="13" lengthAdjust="spacing" textLength="30" x="259.5" y="470.0669">uses</text><text fill="#000000" font-family="sans-serif" font-size="13" lengthAdjust="spacing" textLength="8" x="236.8625" y="446.5799">1</text><text fill="#000000" font-family="sans-serif" font-size="13" lengthAdjust="spacing" textLength="8" x="236.625" y="492.7318">1</text><!--MD5=[089cd3b60e666bfb1de75b28f7973058]
reverse link SortingAl to SortingName--><path codeLine="57" d="M240.754,585.156 C238.945,604.075 236.941,625.043 235.36,641.578 " fill="none" id="SortingAl-backto-SortingName" style="stroke:#A80036;stroke-width:1.0;"/><polygon fill="none" points="233.808,584.253,242.679,565.01,247.744,585.585,233.808,584.253" style="stroke:#A80036;stroke-width:1.0;"/><text fill="#000000" font-family="sans-serif" font-size="13" lengthAdjust="spacing" textLength="8" x="233.2722" y="584.9503">1</text><text fill="#000000" font-family="sans-serif" font-size="13" lengthAdjust="spacing" textLength="8" x="227.1249" y="630.7542">1</text><!--MD5=[9b2c037e929e3a1b89921f27fa4b7070]
reverse link SortingAl to SortingTIN--><path codeLine="58" d="M288.137,579.429 C307.856,599.745 330.77,623.354 348.458,641.578 " fill="none" id="SortingAl-backto-SortingTIN" style="stroke:#A80036;stroke-width:1.0;"/><polygon fill="none" points="283.048,584.237,274.142,565.01,293.095,574.486,283.048,584.237" style="stroke:#A80036;stroke-width:1.0;"/><text fill="#000000" font-family="sans-serif" font-size="13" lengthAdjust="spacing" textLength="8" x="271.2244" y="584.9503">1</text><text fill="#000000" font-family="sans-serif" font-size="13" lengthAdjust="spacing" textLength="8" x="333.6431" y="630.7542">1</text><!--MD5=[223316fef3654c38d03547e5891bc207]
@startuml
skinparam classAttributeIconSize 0

class CheckResultController {
  -TestValideStore store1
  -Company company
  -Test t
  -Client c
  
  +sortList()
  +showSort(List<Client> cl)
  +getTestFromCL(Client cl)
  +convert(List<Client> cl)
  +convert2(List<Test> listCT)
  +showTest(List<Test> listCT)
}
class CheckResultUI{
}
class Test {
  +getClient()

}
class Company {
  -String designation
  +getTestValideStore()
}
class Client {
  +sorting(List<Client> listC)
  +getLstTestComplete();
}

class TestValideStore {
  +getTestsValids()

}

class App{
  +getCompany()
  +sort1()
}
Interface SortingAl{
  +compare(o1,o2)
}
class SortingName{
  +compare(o1,o2)
 }
 class SortingTIN{
  +compare(o1,o2)
 }

CheckResultUI ..> CheckResultController
CheckResultController ..> Company
CheckResultController ..> App
Company "1" - -> "1" TestValideStore: has >
Test "1..*" - -> "1" Client: is from > 
TestValideStore "1" - -> "*" Test: contains >
App "1" - -> "1"  SortingAl: uses >
SortingAl "1" <|- - "1" SortingName
SortingAl "1" <|- - "1" SortingTIN
@enduml

PlantUML version 1.2021.7(Sun May 23 12:40:07 UTC 2021)
(GPL source distribution)
Java Runtime: Java(TM) SE Runtime Environment
JVM: Java HotSpot(TM) 64-Bit Server VM
Default Encoding: UTF-8
Language: en
Country: US
--></g></svg>