<?xml version="1.0" encoding="UTF-8" standalone="no"?><svg xmlns="http://www.w3.org/2000/svg" xmlns:xlink="http://www.w3.org/1999/xlink" contentScriptType="application/ecmascript" contentStyleType="text/css" height="876px" preserveAspectRatio="none" style="width:537px;height:876px;background:#FFFFFF;" version="1.1" viewBox="0 0 537 876" width="537px" zoomAndPan="magnify"><defs><filter height="300%" id="fnk5tc8lyv5m2" width="300%" x="-1" y="-1"><feGaussianBlur result="blurOut" stdDeviation="2.0"/><feColorMatrix in="blurOut" result="blurOut2" type="matrix" values="0 0 0 0 0 0 0 0 0 0 0 0 0 0 0 0 0 0 .4 0"/><feOffset dx="4.0" dy="4.0" in="blurOut2" result="blurOut3"/><feBlend in="SourceGraphic" in2="blurOut3" mode="normal"/></filter></defs><g><!--MD5=[ed6624c6556d5e7b1bd23032162d20b7]
class Client--><rect codeLine="1" fill="#FEFECE" filter="url(#fnk5tc8lyv5m2)" height="137.6328" id="Client" style="stroke:#A80036;stroke-width:1.5;" width="161" x="207.3812" y="145"/><ellipse cx="267.1312" cy="161" fill="#ADD1B2" rx="11" ry="11" style="stroke:#A80036;stroke-width:1.0;"/><path d="M269.4749,156.6719 C268.5374,156.2344 267.9437,156.0938 267.0687,156.0938 C264.4437,156.0938 262.4437,158.1719 262.4437,160.8906 L262.4437,162.0156 C262.4437,164.5938 264.5531,166.4844 267.4437,166.4844 C268.6624,166.4844 269.8187,166.1875 270.5687,165.6406 C271.1468,165.2344 271.4749,164.7813 271.4749,164.3906 C271.4749,163.9375 271.0843,163.5469 270.6156,163.5469 C270.3968,163.5469 270.1937,163.625 270.0062,163.8125 C269.5531,164.2969 269.5531,164.2969 269.3656,164.3906 C268.9437,164.6563 268.2562,164.7813 267.4906,164.7813 C265.4437,164.7813 264.1468,163.6875 264.1468,161.9844 L264.1468,160.8906 C264.1468,159.1094 265.3968,157.7969 267.1312,157.7969 C267.7093,157.7969 268.3187,157.9531 268.7874,158.2031 C269.2718,158.4844 269.4437,158.7031 269.5374,159.1094 C269.5999,159.5156 269.6312,159.6406 269.7718,159.7656 C269.9124,159.9063 270.1468,160.0156 270.3656,160.0156 C270.6312,160.0156 270.8968,159.875 271.0687,159.6563 C271.1781,159.5 271.2093,159.3125 271.2093,158.8906 L271.2093,157.4688 C271.2093,157.0313 271.1937,156.9063 271.0999,156.75 C270.9437,156.4844 270.6624,156.3438 270.3656,156.3438 C270.0687,156.3438 269.8656,156.4375 269.6468,156.75 L269.4749,156.6719 Z " fill="#000000"/><text fill="#000000" font-family="sans-serif" font-size="12" lengthAdjust="spacing" textLength="33" x="287.6312" y="165.1543">Client</text><line style="stroke:#A80036;stroke-width:1.5;" x1="208.3812" x2="367.3812" y1="177" y2="177"/><text fill="#000000" font-family="sans-serif" font-size="11" lengthAdjust="spacing" textLength="149" x="213.3812" y="191.2104">String citizenCardNumber;</text><text fill="#000000" font-family="sans-serif" font-size="11" lengthAdjust="spacing" textLength="108" x="213.3812" y="204.0151">String numberNHS;</text><text fill="#000000" font-family="sans-serif" font-size="11" lengthAdjust="spacing" textLength="102" x="213.3812" y="216.8198">String numberTIN;</text><text fill="#000000" font-family="sans-serif" font-size="11" lengthAdjust="spacing" textLength="93" x="213.3812" y="229.6245">String birthDate;</text><text fill="#000000" font-family="sans-serif" font-size="11" lengthAdjust="spacing" textLength="59" x="213.3812" y="242.4292">string sex;</text><text fill="#000000" font-family="sans-serif" font-size="11" lengthAdjust="spacing" textLength="121" x="213.3812" y="255.2339">String phoneNumber;</text><text fill="#000000" font-family="sans-serif" font-size="11" lengthAdjust="spacing" textLength="71" x="213.3812" y="268.0386">string name;</text><line style="stroke:#A80036;stroke-width:1.5;" x1="208.3812" x2="367.3812" y1="274.6328" y2="274.6328"/><!--MD5=[02e4b9b7573f1156f41e60aa5b4e25a4]
class Company--><rect codeLine="11" fill="#FEFECE" filter="url(#fnk5tc8lyv5m2)" height="60.8047" id="Company" style="stroke:#A80036;stroke-width:1.5;" width="118" x="228.8812" y="7"/><ellipse cx="257.3812" cy="23" fill="#ADD1B2" rx="11" ry="11" style="stroke:#A80036;stroke-width:1.0;"/><path d="M259.7249,18.6719 C258.7874,18.2344 258.1937,18.0938 257.3187,18.0938 C254.6937,18.0938 252.6937,20.1719 252.6937,22.8906 L252.6937,24.0156 C252.6937,26.5938 254.8031,28.4844 257.6937,28.4844 C258.9124,28.4844 260.0687,28.1875 260.8187,27.6406 C261.3968,27.2344 261.7249,26.7813 261.7249,26.3906 C261.7249,25.9375 261.3343,25.5469 260.8656,25.5469 C260.6468,25.5469 260.4437,25.625 260.2562,25.8125 C259.8031,26.2969 259.8031,26.2969 259.6156,26.3906 C259.1937,26.6563 258.5062,26.7813 257.7406,26.7813 C255.6937,26.7813 254.3968,25.6875 254.3968,23.9844 L254.3968,22.8906 C254.3968,21.1094 255.6468,19.7969 257.3812,19.7969 C257.9593,19.7969 258.5687,19.9531 259.0374,20.2031 C259.5218,20.4844 259.6937,20.7031 259.7874,21.1094 C259.8499,21.5156 259.8812,21.6406 260.0218,21.7656 C260.1624,21.9063 260.3968,22.0156 260.6156,22.0156 C260.8812,22.0156 261.1468,21.875 261.3187,21.6563 C261.4281,21.5 261.4593,21.3125 261.4593,20.8906 L261.4593,19.4688 C261.4593,19.0313 261.4437,18.9063 261.3499,18.75 C261.1937,18.4844 260.9124,18.3438 260.6156,18.3438 C260.3187,18.3438 260.1156,18.4375 259.8968,18.75 L259.7249,18.6719 Z " fill="#000000"/><text fill="#000000" font-family="sans-serif" font-size="12" lengthAdjust="spacing" textLength="56" x="274.3812" y="27.1543">Company</text><line style="stroke:#A80036;stroke-width:1.5;" x1="229.8812" x2="345.8812" y1="39" y2="39"/><text fill="#000000" font-family="sans-serif" font-size="11" lengthAdjust="spacing" textLength="106" x="234.8812" y="53.2104">String designation;</text><line style="stroke:#A80036;stroke-width:1.5;" x1="229.8812" x2="345.8812" y1="59.8047" y2="59.8047"/><!--MD5=[1f6362a5c8f21d8d6a0fce68f3a92a4e]
class Parameter--><rect codeLine="15" fill="#FEFECE" filter="url(#fnk5tc8lyv5m2)" height="73.6094" id="Parameter" style="stroke:#A80036;stroke-width:1.5;" width="118" x="11.8812" y="782"/><ellipse cx="38.1312" cy="798" fill="#ADD1B2" rx="11" ry="11" style="stroke:#A80036;stroke-width:1.0;"/><path d="M40.4749,793.6719 C39.5374,793.2344 38.9437,793.0938 38.0687,793.0938 C35.4437,793.0938 33.4437,795.1719 33.4437,797.8906 L33.4437,799.0156 C33.4437,801.5938 35.5531,803.4844 38.4437,803.4844 C39.6624,803.4844 40.8187,803.1875 41.5687,802.6406 C42.1468,802.2344 42.4749,801.7813 42.4749,801.3906 C42.4749,800.9375 42.0843,800.5469 41.6156,800.5469 C41.3968,800.5469 41.1937,800.625 41.0062,800.8125 C40.5531,801.2969 40.5531,801.2969 40.3656,801.3906 C39.9437,801.6563 39.2562,801.7813 38.4906,801.7813 C36.4437,801.7813 35.1468,800.6875 35.1468,798.9844 L35.1468,797.8906 C35.1468,796.1094 36.3968,794.7969 38.1312,794.7969 C38.7093,794.7969 39.3187,794.9531 39.7874,795.2031 C40.2718,795.4844 40.4437,795.7031 40.5374,796.1094 C40.5999,796.5156 40.6312,796.6406 40.7718,796.7656 C40.9124,796.9063 41.1468,797.0156 41.3656,797.0156 C41.6312,797.0156 41.8968,796.875 42.0687,796.6563 C42.1781,796.5 42.2093,796.3125 42.2093,795.8906 L42.2093,794.4688 C42.2093,794.0313 42.1937,793.9063 42.0999,793.75 C41.9437,793.4844 41.6624,793.3438 41.3656,793.3438 C41.0687,793.3438 40.8656,793.4375 40.6468,793.75 L40.4749,793.6719 Z " fill="#000000"/><text fill="#000000" font-family="sans-serif" font-size="12" lengthAdjust="spacing" textLength="61" x="54.6312" y="802.1543">Parameter</text><line style="stroke:#A80036;stroke-width:1.5;" x1="12.8812" x2="128.8812" y1="814" y2="814"/><text fill="#000000" font-family="sans-serif" font-size="11" lengthAdjust="spacing" textLength="106" x="17.8812" y="828.2104">String designation;</text><text fill="#000000" font-family="sans-serif" font-size="11" lengthAdjust="spacing" textLength="68" x="17.8812" y="841.0151">String code;</text><line style="stroke:#A80036;stroke-width:1.5;" x1="12.8812" x2="128.8812" y1="847.6094" y2="847.6094"/><!--MD5=[0f07739f46effee96e095e9c408da841]
class TestParameter--><rect codeLine="20" fill="#FEFECE" filter="url(#fnk5tc8lyv5m2)" height="48" id="TestParameter" style="stroke:#A80036;stroke-width:1.5;" width="119" x="185.3812" y="651"/><ellipse cx="200.3812" cy="667" fill="#ADD1B2" rx="11" ry="11" style="stroke:#A80036;stroke-width:1.0;"/><path d="M202.7249,662.6719 C201.7874,662.2344 201.1937,662.0938 200.3187,662.0938 C197.6937,662.0938 195.6937,664.1719 195.6937,666.8906 L195.6937,668.0156 C195.6937,670.5938 197.8031,672.4844 200.6937,672.4844 C201.9124,672.4844 203.0687,672.1875 203.8187,671.6406 C204.3968,671.2344 204.7249,670.7813 204.7249,670.3906 C204.7249,669.9375 204.3343,669.5469 203.8656,669.5469 C203.6468,669.5469 203.4437,669.625 203.2562,669.8125 C202.8031,670.2969 202.8031,670.2969 202.6156,670.3906 C202.1937,670.6563 201.5062,670.7813 200.7406,670.7813 C198.6937,670.7813 197.3968,669.6875 197.3968,667.9844 L197.3968,666.8906 C197.3968,665.1094 198.6468,663.7969 200.3812,663.7969 C200.9593,663.7969 201.5687,663.9531 202.0374,664.2031 C202.5218,664.4844 202.6937,664.7031 202.7874,665.1094 C202.8499,665.5156 202.8812,665.6406 203.0218,665.7656 C203.1624,665.9063 203.3968,666.0156 203.6156,666.0156 C203.8812,666.0156 204.1468,665.875 204.3187,665.6563 C204.4281,665.5 204.4593,665.3125 204.4593,664.8906 L204.4593,663.4688 C204.4593,663.0313 204.4437,662.9063 204.3499,662.75 C204.1937,662.4844 203.9124,662.3438 203.6156,662.3438 C203.3187,662.3438 203.1156,662.4375 202.8968,662.75 L202.7249,662.6719 Z " fill="#000000"/><text fill="#000000" font-family="sans-serif" font-size="12" lengthAdjust="spacing" textLength="87" x="214.3812" y="671.1543">TestParameter</text><line style="stroke:#A80036;stroke-width:1.5;" x1="186.3812" x2="303.3812" y1="683" y2="683"/><line style="stroke:#A80036;stroke-width:1.5;" x1="186.3812" x2="303.3812" y1="691" y2="691"/><!--MD5=[4e608140b854dae633589343bce77383]
class TestParameterResult--><rect codeLine="22" fill="#FEFECE" filter="url(#fnk5tc8lyv5m2)" height="86.4141" id="TestParameterResult" style="stroke:#A80036;stroke-width:1.5;" width="155" x="220.3812" y="776"/><ellipse cx="235.3812" cy="792" fill="#ADD1B2" rx="11" ry="11" style="stroke:#A80036;stroke-width:1.0;"/><path d="M237.7249,787.6719 C236.7874,787.2344 236.1937,787.0938 235.3187,787.0938 C232.6937,787.0938 230.6937,789.1719 230.6937,791.8906 L230.6937,793.0156 C230.6937,795.5938 232.8031,797.4844 235.6937,797.4844 C236.9124,797.4844 238.0687,797.1875 238.8187,796.6406 C239.3968,796.2344 239.7249,795.7813 239.7249,795.3906 C239.7249,794.9375 239.3343,794.5469 238.8656,794.5469 C238.6468,794.5469 238.4437,794.625 238.2562,794.8125 C237.8031,795.2969 237.8031,795.2969 237.6156,795.3906 C237.1937,795.6563 236.5062,795.7813 235.7406,795.7813 C233.6937,795.7813 232.3968,794.6875 232.3968,792.9844 L232.3968,791.8906 C232.3968,790.1094 233.6468,788.7969 235.3812,788.7969 C235.9593,788.7969 236.5687,788.9531 237.0374,789.2031 C237.5218,789.4844 237.6937,789.7031 237.7874,790.1094 C237.8499,790.5156 237.8812,790.6406 238.0218,790.7656 C238.1624,790.9063 238.3968,791.0156 238.6156,791.0156 C238.8812,791.0156 239.1468,790.875 239.3187,790.6563 C239.4281,790.5 239.4593,790.3125 239.4593,789.8906 L239.4593,788.4688 C239.4593,788.0313 239.4437,787.9063 239.3499,787.75 C239.1937,787.4844 238.9124,787.3438 238.6156,787.3438 C238.3187,787.3438 238.1156,787.4375 237.8968,787.75 L237.7249,787.6719 Z " fill="#000000"/><text fill="#000000" font-family="sans-serif" font-size="12" lengthAdjust="spacing" textLength="123" x="249.3812" y="796.1543">TestParameterResult</text><line style="stroke:#A80036;stroke-width:1.5;" x1="221.3812" x2="374.3812" y1="808" y2="808"/><text fill="#000000" font-family="sans-serif" font-size="11" lengthAdjust="spacing" textLength="72" x="226.3812" y="822.2104">String value;</text><text fill="#000000" font-family="sans-serif" font-size="11" lengthAdjust="spacing" textLength="76" x="226.3812" y="835.0151">String metric;</text><text fill="#000000" font-family="sans-serif" font-size="11" lengthAdjust="spacing" textLength="91" x="226.3812" y="847.8198">Date createdAt;</text><line style="stroke:#A80036;stroke-width:1.5;" x1="221.3812" x2="374.3812" y1="854.4141" y2="854.4141"/><!--MD5=[df38be88ccee13e832d6fafd6288a4ca]
class Test--><rect codeLine="28" fill="#FEFECE" filter="url(#fnk5tc8lyv5m2)" height="214.4609" id="Test" style="stroke:#A80036;stroke-width:1.5;" width="159" x="358.3812" y="360"/><ellipse cx="420.6312" cy="376" fill="#ADD1B2" rx="11" ry="11" style="stroke:#A80036;stroke-width:1.0;"/><path d="M422.9749,371.6719 C422.0374,371.2344 421.4437,371.0938 420.5687,371.0938 C417.9437,371.0938 415.9437,373.1719 415.9437,375.8906 L415.9437,377.0156 C415.9437,379.5938 418.0531,381.4844 420.9437,381.4844 C422.1624,381.4844 423.3187,381.1875 424.0687,380.6406 C424.6468,380.2344 424.9749,379.7813 424.9749,379.3906 C424.9749,378.9375 424.5843,378.5469 424.1156,378.5469 C423.8968,378.5469 423.6937,378.625 423.5062,378.8125 C423.0531,379.2969 423.0531,379.2969 422.8656,379.3906 C422.4437,379.6563 421.7562,379.7813 420.9906,379.7813 C418.9437,379.7813 417.6468,378.6875 417.6468,376.9844 L417.6468,375.8906 C417.6468,374.1094 418.8968,372.7969 420.6312,372.7969 C421.2093,372.7969 421.8187,372.9531 422.2874,373.2031 C422.7718,373.4844 422.9437,373.7031 423.0374,374.1094 C423.0999,374.5156 423.1312,374.6406 423.2718,374.7656 C423.4124,374.9063 423.6468,375.0156 423.8656,375.0156 C424.1312,375.0156 424.3968,374.875 424.5687,374.6563 C424.6781,374.5 424.7093,374.3125 424.7093,373.8906 L424.7093,372.4688 C424.7093,372.0313 424.6937,371.9063 424.5999,371.75 C424.4437,371.4844 424.1624,371.3438 423.8656,371.3438 C423.5687,371.3438 423.3656,371.4375 423.1468,371.75 L422.9749,371.6719 Z " fill="#000000"/><text fill="#000000" font-family="sans-serif" font-size="12" lengthAdjust="spacing" textLength="26" x="441.1312" y="380.1543">Test</text><line style="stroke:#A80036;stroke-width:1.5;" x1="359.3812" x2="516.3812" y1="392" y2="392"/><text fill="#000000" font-family="sans-serif" font-size="11" lengthAdjust="spacing" textLength="68" x="364.3812" y="406.2104">String code;</text><text fill="#000000" font-family="sans-serif" font-size="11" lengthAdjust="spacing" textLength="94" x="364.3812" y="419.0151">String NHSCode;</text><text fill="#000000" font-family="sans-serif" font-size="11" lengthAdjust="spacing" textLength="94" x="364.3812" y="431.8198">String testResult</text><text fill="#000000" font-family="sans-serif" font-size="11" lengthAdjust="spacing" textLength="133" x="364.3812" y="444.6245">String dateRegistration;</text><text fill="#000000" font-family="sans-serif" font-size="11" lengthAdjust="spacing" textLength="133" x="364.3812" y="457.4292">String timeRegistration;</text><text fill="#000000" font-family="sans-serif" font-size="11" lengthAdjust="spacing" textLength="110" x="364.3812" y="470.2339">String dateSample;</text><text fill="#000000" font-family="sans-serif" font-size="11" lengthAdjust="spacing" textLength="110" x="364.3812" y="483.0386">String timeSmaple;</text><text fill="#000000" font-family="sans-serif" font-size="11" lengthAdjust="spacing" textLength="147" x="364.3812" y="495.8433">String dateChemAnalysis;</text><text fill="#000000" font-family="sans-serif" font-size="11" lengthAdjust="spacing" textLength="147" x="364.3812" y="508.6479">String timeChemAnalysis;</text><text fill="#000000" font-family="sans-serif" font-size="11" lengthAdjust="spacing" textLength="121" x="364.3812" y="521.4526">String dateDiagnosis;</text><text fill="#000000" font-family="sans-serif" font-size="11" lengthAdjust="spacing" textLength="121" x="364.3812" y="534.2573">String timeDiagnosis;</text><text fill="#000000" font-family="sans-serif" font-size="11" lengthAdjust="spacing" textLength="119" x="364.3812" y="547.062">String dateValidTest;</text><text fill="#000000" font-family="sans-serif" font-size="11" lengthAdjust="spacing" textLength="119" x="364.3812" y="559.8667">String timeValidTest;</text><line style="stroke:#A80036;stroke-width:1.5;" x1="359.3812" x2="516.3812" y1="566.4609" y2="566.4609"/><!--MD5=[502b51bc079239060389dab43b7d3470]
link Client to Test--><path codeLine="46" d="M274.7872,283.106 C274.6782,299.246 277.2232,315.863 284.8812,330 C296.5072,351.462 311.8912,344.666 330.8812,360 C340.0362,367.393 349.2782,375.461 358.2952,383.74 " fill="none" id="Client-Test" style="stroke:#A80036;stroke-width:1.0;"/><polygon fill="#000000" points="293.0741,325.4142,289.5597,316.5768,285.0364,320.3303,293.0741,325.4142" style="stroke:#000000;stroke-width:1.0;"/><text fill="#000000" font-family="sans-serif" font-size="13" lengthAdjust="spacing" textLength="43" x="298.8812" y="326.0669">does a</text><text fill="#000000" font-family="sans-serif" font-size="13" lengthAdjust="spacing" textLength="8" x="265.1045" y="302.7384">1</text><text fill="#000000" font-family="sans-serif" font-size="13" lengthAdjust="spacing" textLength="7" x="343.3761" y="372.1407">*</text><!--MD5=[3994f36c72829dbcddd1cf7021dddf61]
link Test to Client--><path codeLine="51" d="M374.8042,359.781 C365.4562,344.086 355.9272,328.116 346.8812,313 C341.1192,303.372 335.0272,293.22 329.0312,283.244 " fill="none" id="Test-Client" style="stroke:#A80036;stroke-width:1.0;"/><polygon fill="#000000" points="359.3149,317.2753,361.4351,326.5465,366.4797,323.5296,359.3149,317.2753" style="stroke:#000000;stroke-width:1.0;"/><text fill="#000000" font-family="sans-serif" font-size="13" lengthAdjust="spacing" textLength="85" x="370.8812" y="326.0669">requested by</text><text fill="#000000" font-family="sans-serif" font-size="13" lengthAdjust="spacing" textLength="7" x="363.123" y="348.7702">*</text><text fill="#000000" font-family="sans-serif" font-size="13" lengthAdjust="spacing" textLength="8" x="324.572" y="302.6494">1</text><!--MD5=[9cca41bb1bc3a06e0dcc35b49de651f1]
link Client to TestParameter--><path codeLine="47" d="M265.1472,283.194 C258.1992,307.19 251.4542,334.527 247.8812,360 C232.7352,467.976 239.4242,598.89 243.0752,650.998 " fill="none" id="Client-TestParameter" style="stroke:#A80036;stroke-width:1.0;"/><polygon fill="#000000" points="252.5817,472.0574,256.0571,463.2046,250.1898,462.8525,252.5817,472.0574" style="stroke:#000000;stroke-width:1.0;"/><text fill="#000000" font-family="sans-serif" font-size="13" lengthAdjust="spacing" textLength="78" x="261.8812" y="471.5669">consults the</text><text fill="#000000" font-family="sans-serif" font-size="13" lengthAdjust="spacing" textLength="8" x="254.5991" y="302.5946">1</text><text fill="#000000" font-family="sans-serif" font-size="13" lengthAdjust="spacing" textLength="7" x="234.7155" y="640.0095">*</text><!--MD5=[7e4bc624457760b649895ff2ead938fa]
link Company to Test--><path codeLine="48" d="M315.3272,68.132 C324.1372,77.659 333.9302,88.267 342.8812,98 C362.0462,118.84 370.1232,121.478 385.8812,145 C431.8052,213.549 446.8932,232.475 464.8812,313 C468.2622,328.136 468.7622,344.192 467.5052,359.99 " fill="none" id="Company-Test" style="stroke:#A80036;stroke-width:1.0;"/><polygon fill="#000000" points="464.1929,218.4999,462.617,209.1208,457.405,211.8384,464.1929,218.4999" style="stroke:#000000;stroke-width:1.0;"/><text fill="#000000" font-family="sans-serif" font-size="13" lengthAdjust="spacing" textLength="59" x="470.8812" y="218.5669">performs</text><text fill="#000000" font-family="sans-serif" font-size="13" lengthAdjust="spacing" textLength="8" x="312.1629" y="88.0975">1</text><text fill="#000000" font-family="sans-serif" font-size="13" lengthAdjust="spacing" textLength="7" x="462.342" y="348.9939">*</text><!--MD5=[6eee883fdf517d3604e8bd0f2058e9aa]
link Company to Client--><path codeLine="49" d="M287.8812,68.102 C287.8812,89.105 287.8812,118.175 287.8812,144.768 " fill="none" id="Company-Client" style="stroke:#A80036;stroke-width:1.0;"/><polygon fill="#000000" points="292.8812,111.5664,295.8201,102.5213,289.9423,102.5213,292.8812,111.5664" style="stroke:#000000;stroke-width:1.0;"/><text fill="#000000" font-family="sans-serif" font-size="13" lengthAdjust="spacing" textLength="32" x="301.8812" y="111.0669">have</text><text fill="#000000" font-family="sans-serif" font-size="13" lengthAdjust="spacing" textLength="8" x="279.0562" y="88.0613">1</text><text fill="#000000" font-family="sans-serif" font-size="13" lengthAdjust="spacing" textLength="7" x="280.5202" y="133.9477">*</text><!--MD5=[12d76240d3c3c66074d4ec2ea8bf469c]
link Company to Parameter--><path codeLine="50" d="M228.5492,48.819 C147.7062,66.674 12.8812,111.645 12.8812,213 C12.8812,213 12.8812,213 12.8812,676 C12.8812,714.214 31.1055,754.205 47.123,781.973 " fill="none" id="Company-Parameter" style="stroke:#A80036;stroke-width:1.0;"/><polygon fill="#000000" points="16.6801,471.92,21.7057,463.8457,16,462.4338,16.6801,471.92" style="stroke:#000000;stroke-width:1.0;"/><text fill="#000000" font-family="sans-serif" font-size="13" lengthAdjust="spacing" textLength="132" x="26.8812" y="471.5669">capable of analysing</text><text fill="#000000" font-family="sans-serif" font-size="13" lengthAdjust="spacing" textLength="8" x="212.8306" y="46.3713">1</text><text fill="#000000" font-family="sans-serif" font-size="13" lengthAdjust="spacing" textLength="7" x="35.0973" y="770.8785">*</text><!--MD5=[f24c888dadeb846430474fe80a58922b]
link Test to TestParameter--><path codeLine="52" d="M358.2662,552.977 C325.0392,588.443 289.0542,626.851 266.7392,650.67 " fill="none" id="Test-TestParameter" style="stroke:#A80036;stroke-width:1.0;"/><polygon fill="#000000" points="309.4627,616.2152,317.7915,611.6238,313.5021,607.6051,309.4627,616.2152" style="stroke:#000000;stroke-width:1.0;"/><text fill="#000000" font-family="sans-serif" font-size="13" lengthAdjust="spacing" textLength="23" x="321.8812" y="617.0669">has</text><text fill="#000000" font-family="sans-serif" font-size="13" lengthAdjust="spacing" textLength="8" x="342.2966" y="557.5081">1</text><text fill="#000000" font-family="sans-serif" font-size="13" lengthAdjust="spacing" textLength="23" x="246.2639" y="639.9945">1..*</text><!--MD5=[166b32c017035243ed8780a05e3f542e]
link TestParameterResult to TestParameter--><path codeLine="53" d="M304.4292,775.9355 C305.1372,760.647 303.9122,743.561 297.8812,729 C293.2002,717.699 284.8112,707.552 276.0682,699.234 " fill="none" id="TestParameterResult-TestParameter" style="stroke:#A80036;stroke-width:1.0;"/><polygon fill="#000000" points="309.6152,742.2561,309.2348,732.7531,303.7218,734.7916,309.6152,742.2561" style="stroke:#000000;stroke-width:1.0;"/><text fill="#000000" font-family="sans-serif" font-size="13" lengthAdjust="spacing" textLength="23" x="316.8812" y="742.0669">has</text><text fill="#000000" font-family="sans-serif" font-size="13" lengthAdjust="spacing" textLength="8" x="296.8353" y="764.9207">1</text><text fill="#000000" font-family="sans-serif" font-size="13" lengthAdjust="spacing" textLength="8" x="274.695" y="719.0522">1</text><!--MD5=[0e00e25ac6b8c14659aaff2cf7e5df08]
link TestParameter to TestParameterResult--><path codeLine="56" d="M244.5152,699.279 C244.9512,713.184 246.6752,731.001 251.8812,746 C255.4322,756.23 260.6982,766.4798 266.4122,775.9069 " fill="none" id="TestParameter-TestParameterResult" style="stroke:#A80036;stroke-width:1.0;"/><polygon fill="#000000" points="258.255,742.374,258.5956,732.8695,252.9439,734.4845,258.255,742.374" style="stroke:#000000;stroke-width:1.0;"/><text fill="#000000" font-family="sans-serif" font-size="13" lengthAdjust="spacing" textLength="23" x="265.8812" y="742.0669">has</text><text fill="#000000" font-family="sans-serif" font-size="13" lengthAdjust="spacing" textLength="8" x="235.451" y="719.1082">1</text><text fill="#000000" font-family="sans-serif" font-size="13" lengthAdjust="spacing" textLength="8" x="252.7593" y="764.8882">1</text><!--MD5=[92e8e476cc9e9004a7125f53a120ec97]
link TestParameter to Parameter--><path codeLine="54" d="M184.9842,686.082 C139.3842,695.121 82.1034,709.895 67.8812,729 C56.803,743.881 56.7698,764.3672 59.861,781.9334 " fill="none" id="TestParameter-Parameter" style="stroke:#A80036;stroke-width:1.0;"/><polygon fill="#000000" points="68.912,740.607,77.8796,737.4395,74.3051,732.7734,68.912,740.607" style="stroke:#000000;stroke-width:1.0;"/><text fill="#000000" font-family="sans-serif" font-size="13" lengthAdjust="spacing" textLength="55" x="81.8812" y="742.0669">refers to</text><text fill="#000000" font-family="sans-serif" font-size="13" lengthAdjust="spacing" textLength="7" x="170.2577" y="683.5935">*</text><text fill="#000000" font-family="sans-serif" font-size="13" lengthAdjust="spacing" textLength="8" x="49.0916" y="770.8316">1</text><!--MD5=[92e8e476cc9e9004a7125f53a120ec97]
link TestParameter to Parameter--><path codeLine="55" d="M216.5382,699.131 C189.0922,721.529 147.0702,755.823 115.2032,781.8295 " fill="none" id="TestParameter-Parameter-1" style="stroke:#A80036;stroke-width:1.0;"/><polygon fill="#000000" points="180.0074,740.7277,188.8733,737.2858,185.1569,732.7319,180.0074,740.7277" style="stroke:#000000;stroke-width:1.0;"/><text fill="#000000" font-family="sans-serif" font-size="13" lengthAdjust="spacing" textLength="23" x="192.8812" y="742.0669">has</text><text fill="#000000" font-family="sans-serif" font-size="13" lengthAdjust="spacing" textLength="8" x="200.6546" y="718.9241">1</text><text fill="#000000" font-family="sans-serif" font-size="13" lengthAdjust="spacing" textLength="8" x="114.3852" y="770.9861">1</text><!--MD5=[a2612fd34a06719524a24c00089d098c]
@startuml
class Client {
    String citizenCardNumber;
    String numberNHS;
    String numberTIN;
    String birthDate;
    string sex;
    String phoneNumber;
    string name;
}

class Company {
    String designation;
}

class Parameter {
	String designation;
  String code;
}

class TestParameter

class TestParameterResult{
     String value;
     String metric;
     Date createdAt;
}

class Test {
    String code;
    String NHSCode;
    String testResult
    String dateRegistration;
    String timeRegistration;
    String dateSample;
    String timeSmaple;
    String dateChemAnalysis;
    String timeChemAnalysis;
    String dateDiagnosis;
    String timeDiagnosis;
    String dateValidTest;
    String timeValidTest;
}



Client "1" - - "*" Test: does a >
Client "1" - - "*" TestParameter: consults the >
Company "1" - - "*" Test: performs >
Company "1" - - "*" Client: have >
Company "1" - - "*" Parameter: capable of analysing >
Test "*" - - "1" Client: requested by >
Test "1" - - "1..*" TestParameter: has >
TestParameterResult "1" - - "1" TestParameter: has <
TestParameter "*" - - "1" Parameter: refers to >
TestParameter "1" - - "1" Parameter: has >
TestParameter "1" - - "1" TestParameterResult: has >
@enduml

PlantUML version 1.2021.7(Sun May 23 12:40:07 UTC 2021)
(GPL source distribution)
Java Runtime: Java(TM) SE Runtime Environment
JVM: Java HotSpot(TM) 64-Bit Server VM
Default Encoding: UTF-8
Language: en
Country: US
--></g></svg>