<?xml version="1.0" encoding="UTF-8" standalone="no"?><svg xmlns="http://www.w3.org/2000/svg" xmlns:xlink="http://www.w3.org/1999/xlink" contentScriptType="application/ecmascript" contentStyleType="text/css" height="963px" preserveAspectRatio="none" style="width:2311px;height:963px;background:#FFFFFF;" version="1.1" viewBox="0 0 2311 963" width="2311px" zoomAndPan="magnify"><defs><filter height="300%" id="fmvipyel5d26m" width="300%" x="-1" y="-1"><feGaussianBlur result="blurOut" stdDeviation="2.0"/><feColorMatrix in="blurOut" result="blurOut2" type="matrix" values="0 0 0 0 0 0 0 0 0 0 0 0 0 0 0 0 0 0 .4 0"/><feOffset dx="4.0" dy="4.0" in="blurOut2" result="blurOut3"/><feBlend in="SourceGraphic" in2="blurOut3" mode="normal"/></filter></defs><g><text fill="#000000" font-family="sans-serif" font-size="18" lengthAdjust="spacing" textLength="201" x="1048.505" y="16.708">UC16 - Class Diagram</text><!--MD5=[9cae407c3645da186cc5a50f188eb0b4]
class AnalyseOverviewFXMLController--><rect codeLine="3" fill="#FEFECE" filter="url(#fmvipyel5d26m)" height="48" id="AnalyseOverviewFXMLController" style="stroke:#A80036;stroke-width:1.5;" width="227" x="1022.5" y="27.9531"/><ellipse cx="1037.5" cy="43.9531" fill="#ADD1B2" rx="11" ry="11" style="stroke:#A80036;stroke-width:1.0;"/><path d="M1039.8438,39.625 C1038.9063,39.1875 1038.3125,39.0469 1037.4375,39.0469 C1034.8125,39.0469 1032.8125,41.125 1032.8125,43.8438 L1032.8125,44.9688 C1032.8125,47.5469 1034.9219,49.4375 1037.8125,49.4375 C1039.0313,49.4375 1040.1875,49.1406 1040.9375,48.5938 C1041.5156,48.1875 1041.8438,47.7344 1041.8438,47.3438 C1041.8438,46.8906 1041.4531,46.5 1040.9844,46.5 C1040.7656,46.5 1040.5625,46.5781 1040.375,46.7656 C1039.9219,47.25 1039.9219,47.25 1039.7344,47.3438 C1039.3125,47.6094 1038.625,47.7344 1037.8594,47.7344 C1035.8125,47.7344 1034.5156,46.6406 1034.5156,44.9375 L1034.5156,43.8438 C1034.5156,42.0625 1035.7656,40.75 1037.5,40.75 C1038.0781,40.75 1038.6875,40.9063 1039.1563,41.1563 C1039.6406,41.4375 1039.8125,41.6563 1039.9063,42.0625 C1039.9688,42.4688 1040,42.5938 1040.1406,42.7188 C1040.2813,42.8594 1040.5156,42.9688 1040.7344,42.9688 C1041,42.9688 1041.2656,42.8281 1041.4375,42.6094 C1041.5469,42.4531 1041.5781,42.2656 1041.5781,41.8438 L1041.5781,40.4219 C1041.5781,39.9844 1041.5625,39.8594 1041.4688,39.7031 C1041.3125,39.4375 1041.0313,39.2969 1040.7344,39.2969 C1040.4375,39.2969 1040.2344,39.3906 1040.0156,39.7031 L1039.8438,39.625 Z " fill="#000000"/><text fill="#000000" font-family="sans-serif" font-size="12" lengthAdjust="spacing" textLength="195" x="1051.5" y="48.1074">AnalyseOverviewFXMLController</text><line style="stroke:#A80036;stroke-width:1.5;" x1="1023.5" x2="1248.5" y1="59.9531" y2="59.9531"/><line style="stroke:#A80036;stroke-width:1.5;" x1="1023.5" x2="1248.5" y1="67.9531" y2="67.9531"/><!--MD5=[f6d728598ca3a465ca7dc09d8293c5b6]
class AnalyseOverviewController--><rect codeLine="5" fill="#FEFECE" filter="url(#fmvipyel5d26m)" height="112.0234" id="AnalyseOverviewController" style="stroke:#A80036;stroke-width:1.5;" width="261" x="875.5" y="283.9531"/><ellipse cx="919.75" cy="299.9531" fill="#ADD1B2" rx="11" ry="11" style="stroke:#A80036;stroke-width:1.0;"/><path d="M922.0938,295.625 C921.1563,295.1875 920.5625,295.0469 919.6875,295.0469 C917.0625,295.0469 915.0625,297.125 915.0625,299.8438 L915.0625,300.9688 C915.0625,303.5469 917.1719,305.4375 920.0625,305.4375 C921.2813,305.4375 922.4375,305.1406 923.1875,304.5938 C923.7656,304.1875 924.0938,303.7344 924.0938,303.3438 C924.0938,302.8906 923.7031,302.5 923.2344,302.5 C923.0156,302.5 922.8125,302.5781 922.625,302.7656 C922.1719,303.25 922.1719,303.25 921.9844,303.3438 C921.5625,303.6094 920.875,303.7344 920.1094,303.7344 C918.0625,303.7344 916.7656,302.6406 916.7656,300.9375 L916.7656,299.8438 C916.7656,298.0625 918.0156,296.75 919.75,296.75 C920.3281,296.75 920.9375,296.9063 921.4063,297.1563 C921.8906,297.4375 922.0625,297.6563 922.1563,298.0625 C922.2188,298.4688 922.25,298.5938 922.3906,298.7188 C922.5313,298.8594 922.7656,298.9688 922.9844,298.9688 C923.25,298.9688 923.5156,298.8281 923.6875,298.6094 C923.7969,298.4531 923.8281,298.2656 923.8281,297.8438 L923.8281,296.4219 C923.8281,295.9844 923.8125,295.8594 923.7188,295.7031 C923.5625,295.4375 923.2813,295.2969 922.9844,295.2969 C922.6875,295.2969 922.4844,295.3906 922.2656,295.7031 L922.0938,295.625 Z " fill="#000000"/><text fill="#000000" font-family="sans-serif" font-size="12" lengthAdjust="spacing" textLength="164" x="940.25" y="304.1074">AnalyseOverviewController</text><line style="stroke:#A80036;stroke-width:1.5;" x1="876.5" x2="1135.5" y1="315.9531" y2="315.9531"/><line style="stroke:#A80036;stroke-width:1.5;" x1="876.5" x2="1135.5" y1="323.9531" y2="323.9531"/><text fill="#000000" font-family="sans-serif" font-size="11" lengthAdjust="spacing" textLength="80" x="881.5" y="338.1636">validateUser()</text><text fill="#000000" font-family="sans-serif" font-size="11" lengthAdjust="spacing" textLength="249" x="881.5" y="350.9683">calculatesInterval(beginningDate, endDate)</text><text fill="#000000" font-family="sans-serif" font-size="11" lengthAdjust="spacing" textLength="111" x="881.5" y="363.7729">getNumberClients()</text><text fill="#000000" font-family="sans-serif" font-size="11" lengthAdjust="spacing" textLength="116" x="881.5" y="376.5776">getTestsProcessed()</text><text fill="#000000" font-family="sans-serif" font-size="11" lengthAdjust="spacing" textLength="80" x="881.5" y="389.3823">showGraphic()</text><!--MD5=[8fde4f7edadad46e5c31b423f8edb4ae]
class StatisticsFXMLController--><rect codeLine="13" fill="#FEFECE" filter="url(#fmvipyel5d26m)" height="86.4141" id="StatisticsFXMLController" style="stroke:#A80036;stroke-width:1.5;" width="464" x="1137" y="136.9531"/><ellipse cx="1292.75" cy="152.9531" fill="#ADD1B2" rx="11" ry="11" style="stroke:#A80036;stroke-width:1.0;"/><path d="M1295.0938,148.625 C1294.1563,148.1875 1293.5625,148.0469 1292.6875,148.0469 C1290.0625,148.0469 1288.0625,150.125 1288.0625,152.8438 L1288.0625,153.9688 C1288.0625,156.5469 1290.1719,158.4375 1293.0625,158.4375 C1294.2813,158.4375 1295.4375,158.1406 1296.1875,157.5938 C1296.7656,157.1875 1297.0938,156.7344 1297.0938,156.3438 C1297.0938,155.8906 1296.7031,155.5 1296.2344,155.5 C1296.0156,155.5 1295.8125,155.5781 1295.625,155.7656 C1295.1719,156.25 1295.1719,156.25 1294.9844,156.3438 C1294.5625,156.6094 1293.875,156.7344 1293.1094,156.7344 C1291.0625,156.7344 1289.7656,155.6406 1289.7656,153.9375 L1289.7656,152.8438 C1289.7656,151.0625 1291.0156,149.75 1292.75,149.75 C1293.3281,149.75 1293.9375,149.9063 1294.4063,150.1563 C1294.8906,150.4375 1295.0625,150.6563 1295.1563,151.0625 C1295.2188,151.4688 1295.25,151.5938 1295.3906,151.7188 C1295.5313,151.8594 1295.7656,151.9688 1295.9844,151.9688 C1296.25,151.9688 1296.5156,151.8281 1296.6875,151.6094 C1296.7969,151.4531 1296.8281,151.2656 1296.8281,150.8438 L1296.8281,149.4219 C1296.8281,148.9844 1296.8125,148.8594 1296.7188,148.7031 C1296.5625,148.4375 1296.2813,148.2969 1295.9844,148.2969 C1295.6875,148.2969 1295.4844,148.3906 1295.2656,148.7031 L1295.0938,148.625 Z " fill="#000000"/><text fill="#000000" font-family="sans-serif" font-size="12" lengthAdjust="spacing" textLength="144" x="1313.25" y="157.1074">StatisticsFXMLController</text><line style="stroke:#A80036;stroke-width:1.5;" x1="1138" x2="1600" y1="168.9531" y2="168.9531"/><line style="stroke:#A80036;stroke-width:1.5;" x1="1138" x2="1600" y1="176.9531" y2="176.9531"/><text fill="#000000" font-family="sans-serif" font-size="11" lengthAdjust="spacing" textLength="81" x="1143" y="191.1636">correctDates()</text><text fill="#000000" font-family="sans-serif" font-size="11" lengthAdjust="spacing" textLength="229" x="1143" y="203.9683">validateDates(beginningDate, endDate)</text><text fill="#000000" font-family="sans-serif" font-size="11" lengthAdjust="spacing" textLength="452" x="1143" y="216.7729">addDataBarChart(texts, listTestsNumber1, listTestsNumber2, listTestsNumber3)</text><!--MD5=[335f4d9be48430461c68bf6d6fdba145]
class App--><rect codeLine="19" fill="#FEFECE" filter="url(#fmvipyel5d26m)" height="73.6094" id="App" style="stroke:#A80036;stroke-width:1.5;" width="166" x="895" y="494.9531"/><ellipse cx="961.75" cy="510.9531" fill="#ADD1B2" rx="11" ry="11" style="stroke:#A80036;stroke-width:1.0;"/><path d="M964.0938,506.625 C963.1563,506.1875 962.5625,506.0469 961.6875,506.0469 C959.0625,506.0469 957.0625,508.125 957.0625,510.8438 L957.0625,511.9688 C957.0625,514.5469 959.1719,516.4375 962.0625,516.4375 C963.2813,516.4375 964.4375,516.1406 965.1875,515.5938 C965.7656,515.1875 966.0938,514.7344 966.0938,514.3438 C966.0938,513.8906 965.7031,513.5 965.2344,513.5 C965.0156,513.5 964.8125,513.5781 964.625,513.7656 C964.1719,514.25 964.1719,514.25 963.9844,514.3438 C963.5625,514.6094 962.875,514.7344 962.1094,514.7344 C960.0625,514.7344 958.7656,513.6406 958.7656,511.9375 L958.7656,510.8438 C958.7656,509.0625 960.0156,507.75 961.75,507.75 C962.3281,507.75 962.9375,507.9063 963.4063,508.1563 C963.8906,508.4375 964.0625,508.6563 964.1563,509.0625 C964.2188,509.4688 964.25,509.5938 964.3906,509.7188 C964.5313,509.8594 964.7656,509.9688 964.9844,509.9688 C965.25,509.9688 965.5156,509.8281 965.6875,509.6094 C965.7969,509.4531 965.8281,509.2656 965.8281,508.8438 L965.8281,507.4219 C965.8281,506.9844 965.8125,506.8594 965.7188,506.7031 C965.5625,506.4375 965.2813,506.2969 964.9844,506.2969 C964.6875,506.2969 964.4844,506.3906 964.2656,506.7031 L964.0938,506.625 Z " fill="#000000"/><text fill="#000000" font-family="sans-serif" font-size="12" lengthAdjust="spacing" textLength="24" x="982.25" y="515.1074">App</text><line style="stroke:#A80036;stroke-width:1.5;" x1="896" x2="1060" y1="526.9531" y2="526.9531"/><line style="stroke:#A80036;stroke-width:1.5;" x1="896" x2="1060" y1="534.9531" y2="534.9531"/><ellipse cx="906" cy="545.9531" fill="#84BE84" rx="3" ry="3" style="stroke:#038048;stroke-width:1.0;"/><text fill="#000000" font-family="sans-serif" font-size="11" lengthAdjust="spacing" textLength="81" x="915" y="549.1636">getCompany()</text><ellipse cx="906" cy="558.7578" fill="#84BE84" rx="3" ry="3" style="stroke:#038048;stroke-width:1.0;"/><text fill="#000000" font-family="sans-serif" font-size="11" lengthAdjust="spacing" textLength="140" x="915" y="561.9683">getCurrentUserSession()</text><!--MD5=[c5b08e60048ef1bcd788d24cf324082e]
class UserSession--><rect codeLine="24" fill="#FEFECE" filter="url(#fmvipyel5d26m)" height="60.8047" id="UserSession" style="stroke:#A80036;stroke-width:1.5;" width="293" x="1318.5" y="501.4531"/><ellipse cx="1422.25" cy="517.4531" fill="#ADD1B2" rx="11" ry="11" style="stroke:#A80036;stroke-width:1.0;"/><path d="M1424.5938,513.125 C1423.6563,512.6875 1423.0625,512.5469 1422.1875,512.5469 C1419.5625,512.5469 1417.5625,514.625 1417.5625,517.3438 L1417.5625,518.4688 C1417.5625,521.0469 1419.6719,522.9375 1422.5625,522.9375 C1423.7813,522.9375 1424.9375,522.6406 1425.6875,522.0938 C1426.2656,521.6875 1426.5938,521.2344 1426.5938,520.8438 C1426.5938,520.3906 1426.2031,520 1425.7344,520 C1425.5156,520 1425.3125,520.0781 1425.125,520.2656 C1424.6719,520.75 1424.6719,520.75 1424.4844,520.8438 C1424.0625,521.1094 1423.375,521.2344 1422.6094,521.2344 C1420.5625,521.2344 1419.2656,520.1406 1419.2656,518.4375 L1419.2656,517.3438 C1419.2656,515.5625 1420.5156,514.25 1422.25,514.25 C1422.8281,514.25 1423.4375,514.4063 1423.9063,514.6563 C1424.3906,514.9375 1424.5625,515.1563 1424.6563,515.5625 C1424.7188,515.9688 1424.75,516.0938 1424.8906,516.2188 C1425.0313,516.3594 1425.2656,516.4688 1425.4844,516.4688 C1425.75,516.4688 1426.0156,516.3281 1426.1875,516.1094 C1426.2969,515.9531 1426.3281,515.7656 1426.3281,515.3438 L1426.3281,513.9219 C1426.3281,513.4844 1426.3125,513.3594 1426.2188,513.2031 C1426.0625,512.9375 1425.7813,512.7969 1425.4844,512.7969 C1425.1875,512.7969 1424.9844,512.8906 1424.7656,513.2031 L1424.5938,513.125 Z " fill="#000000"/><text fill="#000000" font-family="sans-serif" font-size="12" lengthAdjust="spacing" textLength="77" x="1442.75" y="521.6074">UserSession</text><line style="stroke:#A80036;stroke-width:1.5;" x1="1319.5" x2="1610.5" y1="533.4531" y2="533.4531"/><line style="stroke:#A80036;stroke-width:1.5;" x1="1319.5" x2="1610.5" y1="541.4531" y2="541.4531"/><ellipse cx="1329.5" cy="552.4531" fill="#84BE84" rx="3" ry="3" style="stroke:#038048;stroke-width:1.0;"/><text fill="#000000" font-family="sans-serif" font-size="11" lengthAdjust="spacing" textLength="267" x="1338.5" y="555.6636">isLoggedInWithRole(MEDICAL LAB TECHNICIAN)</text><!--MD5=[e1ed3d7b3fee1b3fcdddf22435bb9f4c]
class StatisticsController--><rect codeLine="28" fill="#FEFECE" filter="url(#fmvipyel5d26m)" height="112.0234" id="StatisticsController" style="stroke:#A80036;stroke-width:1.5;" width="352" x="1202" y="283.9531"/><ellipse cx="1317.25" cy="299.9531" fill="#ADD1B2" rx="11" ry="11" style="stroke:#A80036;stroke-width:1.0;"/><path d="M1319.5938,295.625 C1318.6563,295.1875 1318.0625,295.0469 1317.1875,295.0469 C1314.5625,295.0469 1312.5625,297.125 1312.5625,299.8438 L1312.5625,300.9688 C1312.5625,303.5469 1314.6719,305.4375 1317.5625,305.4375 C1318.7813,305.4375 1319.9375,305.1406 1320.6875,304.5938 C1321.2656,304.1875 1321.5938,303.7344 1321.5938,303.3438 C1321.5938,302.8906 1321.2031,302.5 1320.7344,302.5 C1320.5156,302.5 1320.3125,302.5781 1320.125,302.7656 C1319.6719,303.25 1319.6719,303.25 1319.4844,303.3438 C1319.0625,303.6094 1318.375,303.7344 1317.6094,303.7344 C1315.5625,303.7344 1314.2656,302.6406 1314.2656,300.9375 L1314.2656,299.8438 C1314.2656,298.0625 1315.5156,296.75 1317.25,296.75 C1317.8281,296.75 1318.4375,296.9063 1318.9063,297.1563 C1319.3906,297.4375 1319.5625,297.6563 1319.6563,298.0625 C1319.7188,298.4688 1319.75,298.5938 1319.8906,298.7188 C1320.0313,298.8594 1320.2656,298.9688 1320.4844,298.9688 C1320.75,298.9688 1321.0156,298.8281 1321.1875,298.6094 C1321.2969,298.4531 1321.3281,298.2656 1321.3281,297.8438 L1321.3281,296.4219 C1321.3281,295.9844 1321.3125,295.8594 1321.2188,295.7031 C1321.0625,295.4375 1320.7813,295.2969 1320.4844,295.2969 C1320.1875,295.2969 1319.9844,295.3906 1319.7656,295.7031 L1319.5938,295.625 Z " fill="#000000"/><text fill="#000000" font-family="sans-serif" font-size="12" lengthAdjust="spacing" textLength="113" x="1337.75" y="304.1074">StatisticsController</text><line style="stroke:#A80036;stroke-width:1.5;" x1="1203" x2="1553" y1="315.9531" y2="315.9531"/><line style="stroke:#A80036;stroke-width:1.5;" x1="1203" x2="1553" y1="323.9531" y2="323.9531"/><text fill="#000000" font-family="sans-serif" font-size="11" lengthAdjust="spacing" textLength="228" x="1208" y="338.1636">getYearsDate(beginningDate, endDate)</text><text fill="#000000" font-family="sans-serif" font-size="11" lengthAdjust="spacing" textLength="236" x="1208" y="350.9683">getMonthsDate(beginningDate, endDate)</text><text fill="#000000" font-family="sans-serif" font-size="11" lengthAdjust="spacing" textLength="235" x="1208" y="363.7729">getWeeksDate(beginningDate, endDate)</text><text fill="#000000" font-family="sans-serif" font-size="11" lengthAdjust="spacing" textLength="225" x="1208" y="376.5776">getDaysDate(beginningDate, endDate)</text><text fill="#000000" font-family="sans-serif" font-size="11" lengthAdjust="spacing" textLength="340" x="1208" y="389.3823">getNumberTests(beginningDate, arraySize, interval, status)</text><!--MD5=[193c1973b26b5955e55b877ed8aa1879]
class ContiguousSubsequence--><rect codeLine="36" fill="#FEFECE" filter="url(#fmvipyel5d26m)" height="150.4375" id="ContiguousSubsequence" style="stroke:#A80036;stroke-width:1.5;" width="487" x="372.5" y="456.9531"/><ellipse cx="536.75" cy="472.9531" fill="#ADD1B2" rx="11" ry="11" style="stroke:#A80036;stroke-width:1.0;"/><path d="M539.0938,468.625 C538.1563,468.1875 537.5625,468.0469 536.6875,468.0469 C534.0625,468.0469 532.0625,470.125 532.0625,472.8438 L532.0625,473.9688 C532.0625,476.5469 534.1719,478.4375 537.0625,478.4375 C538.2813,478.4375 539.4375,478.1406 540.1875,477.5938 C540.7656,477.1875 541.0938,476.7344 541.0938,476.3438 C541.0938,475.8906 540.7031,475.5 540.2344,475.5 C540.0156,475.5 539.8125,475.5781 539.625,475.7656 C539.1719,476.25 539.1719,476.25 538.9844,476.3438 C538.5625,476.6094 537.875,476.7344 537.1094,476.7344 C535.0625,476.7344 533.7656,475.6406 533.7656,473.9375 L533.7656,472.8438 C533.7656,471.0625 535.0156,469.75 536.75,469.75 C537.3281,469.75 537.9375,469.9063 538.4063,470.1563 C538.8906,470.4375 539.0625,470.6563 539.1563,471.0625 C539.2188,471.4688 539.25,471.5938 539.3906,471.7188 C539.5313,471.8594 539.7656,471.9688 539.9844,471.9688 C540.25,471.9688 540.5156,471.8281 540.6875,471.6094 C540.7969,471.4531 540.8281,471.2656 540.8281,470.8438 L540.8281,469.4219 C540.8281,468.9844 540.8125,468.8594 540.7188,468.7031 C540.5625,468.4375 540.2813,468.2969 539.9844,468.2969 C539.6875,468.2969 539.4844,468.3906 539.2656,468.7031 L539.0938,468.625 Z " fill="#000000"/><text fill="#000000" font-family="sans-serif" font-size="12" lengthAdjust="spacing" textLength="150" x="557.25" y="477.1074">ContiguousSubsequence</text><line style="stroke:#A80036;stroke-width:1.5;" x1="373.5" x2="858.5" y1="488.9531" y2="488.9531"/><line style="stroke:#A80036;stroke-width:1.5;" x1="373.5" x2="858.5" y1="496.9531" y2="496.9531"/><text fill="#000000" font-family="sans-serif" font-size="11" lengthAdjust="spacing" textLength="357" x="378.5" y="511.1636">subSequenceTimeInterval(beginningDate, endDate, listTests);</text><text fill="#000000" font-family="sans-serif" font-size="11" lengthAdjust="spacing" textLength="273" x="378.5" y="523.9683">elementsInSequence(beginningDate, endDate)</text><text fill="#000000" font-family="sans-serif" font-size="11" lengthAdjust="spacing" textLength="282" x="378.5" y="536.7729">checkInterval(beginningDate, endDate, testDate)</text><text fill="#000000" font-family="sans-serif" font-size="11" lengthAdjust="spacing" textLength="205" x="378.5" y="549.5776">generatesSubSequence(sequence)</text><text fill="#000000" font-family="sans-serif" font-size="11" lengthAdjust="spacing" textLength="299" x="378.5" y="562.3823">createSequence(beginningDate, endDate, listTests)</text><text fill="#000000" font-family="sans-serif" font-size="11" lengthAdjust="spacing" textLength="475" x="378.5" y="575.187">getNumberRegisteredTests(controlBeginningDate, controlEndDate, listTests, state);</text><text fill="#000000" font-family="sans-serif" font-size="11" lengthAdjust="spacing" textLength="263" x="378.5" y="587.9917">findSequenceIndex(sequence, subSequence)</text><text fill="#000000" font-family="sans-serif" font-size="11" lengthAdjust="spacing" textLength="190" x="378.5" y="600.7964">calculateDated(sequence, index)</text><!--MD5=[7829b64950ce38e0487c4015ea331f97]
class Date--><rect codeLine="47" fill="#FEFECE" filter="url(#fmvipyel5d26m)" height="265.6797" id="Date" style="stroke:#A80036;stroke-width:1.5;" width="256" x="372" y="683.9531"/><ellipse cx="481.75" cy="699.9531" fill="#ADD1B2" rx="11" ry="11" style="stroke:#A80036;stroke-width:1.0;"/><path d="M484.0938,695.625 C483.1563,695.1875 482.5625,695.0469 481.6875,695.0469 C479.0625,695.0469 477.0625,697.125 477.0625,699.8438 L477.0625,700.9688 C477.0625,703.5469 479.1719,705.4375 482.0625,705.4375 C483.2813,705.4375 484.4375,705.1406 485.1875,704.5938 C485.7656,704.1875 486.0938,703.7344 486.0938,703.3438 C486.0938,702.8906 485.7031,702.5 485.2344,702.5 C485.0156,702.5 484.8125,702.5781 484.625,702.7656 C484.1719,703.25 484.1719,703.25 483.9844,703.3438 C483.5625,703.6094 482.875,703.7344 482.1094,703.7344 C480.0625,703.7344 478.7656,702.6406 478.7656,700.9375 L478.7656,699.8438 C478.7656,698.0625 480.0156,696.75 481.75,696.75 C482.3281,696.75 482.9375,696.9063 483.4063,697.1563 C483.8906,697.4375 484.0625,697.6563 484.1563,698.0625 C484.2188,698.4688 484.25,698.5938 484.3906,698.7188 C484.5313,698.8594 484.7656,698.9688 484.9844,698.9688 C485.25,698.9688 485.5156,698.8281 485.6875,698.6094 C485.7969,698.4531 485.8281,698.2656 485.8281,697.8438 L485.8281,696.4219 C485.8281,695.9844 485.8125,695.8594 485.7188,695.7031 C485.5625,695.4375 485.2813,695.2969 484.9844,695.2969 C484.6875,695.2969 484.4844,695.3906 484.2656,695.7031 L484.0938,695.625 Z " fill="#000000"/><text fill="#000000" font-family="sans-serif" font-size="12" lengthAdjust="spacing" textLength="28" x="502.25" y="704.1074">Date</text><line style="stroke:#A80036;stroke-width:1.5;" x1="373" x2="627" y1="715.9531" y2="715.9531"/><text fill="#000000" font-family="sans-serif" font-size="11" lengthAdjust="spacing" textLength="47" x="378" y="730.1636">int year;</text><text fill="#000000" font-family="sans-serif" font-size="11" lengthAdjust="spacing" textLength="57" x="378" y="742.9683">int month;</text><text fill="#000000" font-family="sans-serif" font-size="11" lengthAdjust="spacing" textLength="42" x="378" y="755.7729">int day;</text><line style="stroke:#A80036;stroke-width:1.5;" x1="373" x2="627" y1="762.3672" y2="762.3672"/><text fill="#000000" font-family="sans-serif" font-size="11" lengthAdjust="spacing" textLength="53" x="378" y="776.5776">getYear()</text><text fill="#000000" font-family="sans-serif" font-size="11" lengthAdjust="spacing" textLength="61" x="378" y="789.3823">getMonth()</text><text fill="#000000" font-family="sans-serif" font-size="11" lengthAdjust="spacing" textLength="50" x="378" y="802.187">getDay()</text><text fill="#000000" font-family="sans-serif" font-size="11" lengthAdjust="spacing" textLength="147" x="378" y="814.9917">datesDay(beginningDate)</text><text fill="#000000" font-family="sans-serif" font-size="11" lengthAdjust="spacing" textLength="157" x="378" y="827.7964">datesWeek(beginningDate)</text><text fill="#000000" font-family="sans-serif" font-size="11" lengthAdjust="spacing" textLength="150" x="378" y="840.6011">datesYear(beginningDate)</text><text fill="#000000" font-family="sans-serif" font-size="11" lengthAdjust="spacing" textLength="204" x="378" y="853.4058">calculateDifference(beginningDate)</text><text fill="#000000" font-family="sans-serif" font-size="11" lengthAdjust="spacing" textLength="81" x="378" y="866.2104">plusDay(days)</text><text fill="#000000" font-family="sans-serif" font-size="11" lengthAdjust="spacing" textLength="107" x="378" y="879.0151">plusMonth(months)</text><text fill="#000000" font-family="sans-serif" font-size="11" lengthAdjust="spacing" textLength="89" x="378" y="891.8198">plusYear(years)</text><text fill="#000000" font-family="sans-serif" font-size="11" lengthAdjust="spacing" textLength="158" x="378" y="904.6245">datesMonth(beginningDate)</text><text fill="#000000" font-family="sans-serif" font-size="11" lengthAdjust="spacing" textLength="156" x="378" y="917.4292">compareTo(beginningDate)</text><text fill="#000000" font-family="sans-serif" font-size="11" lengthAdjust="spacing" textLength="244" x="378" y="930.2339">calculateDifferenceMonths(beginningDate)</text><text fill="#000000" font-family="sans-serif" font-size="11" lengthAdjust="spacing" textLength="236" x="378" y="943.0386">calculateDifferenceYears(beginningDate)</text><!--MD5=[38cbc5fc88b06498bbb77355b03ca902]
class LocalDateTime--><rect codeLine="67" fill="#FEFECE" filter="url(#fmvipyel5d26m)" height="99.2188" id="LocalDateTime" style="stroke:#A80036;stroke-width:1.5;" width="137" x="1118.5" y="767.4531"/><ellipse cx="1141.15" cy="783.4531" fill="#ADD1B2" rx="11" ry="11" style="stroke:#A80036;stroke-width:1.0;"/><path d="M1143.4938,779.125 C1142.5563,778.6875 1141.9625,778.5469 1141.0875,778.5469 C1138.4625,778.5469 1136.4625,780.625 1136.4625,783.3438 L1136.4625,784.4688 C1136.4625,787.0469 1138.5719,788.9375 1141.4625,788.9375 C1142.6813,788.9375 1143.8375,788.6406 1144.5875,788.0938 C1145.1656,787.6875 1145.4938,787.2344 1145.4938,786.8438 C1145.4938,786.3906 1145.1031,786 1144.6344,786 C1144.4156,786 1144.2125,786.0781 1144.025,786.2656 C1143.5719,786.75 1143.5719,786.75 1143.3844,786.8438 C1142.9625,787.1094 1142.275,787.2344 1141.5094,787.2344 C1139.4625,787.2344 1138.1656,786.1406 1138.1656,784.4375 L1138.1656,783.3438 C1138.1656,781.5625 1139.4156,780.25 1141.15,780.25 C1141.7281,780.25 1142.3375,780.4063 1142.8063,780.6563 C1143.2906,780.9375 1143.4625,781.1563 1143.5563,781.5625 C1143.6188,781.9688 1143.65,782.0938 1143.7906,782.2188 C1143.9313,782.3594 1144.1656,782.4688 1144.3844,782.4688 C1144.65,782.4688 1144.9156,782.3281 1145.0875,782.1094 C1145.1969,781.9531 1145.2281,781.7656 1145.2281,781.3438 L1145.2281,779.9219 C1145.2281,779.4844 1145.2125,779.3594 1145.1188,779.2031 C1144.9625,778.9375 1144.6813,778.7969 1144.3844,778.7969 C1144.0875,778.7969 1143.8844,778.8906 1143.6656,779.2031 L1143.4938,779.125 Z " fill="#000000"/><text fill="#000000" font-family="sans-serif" font-size="12" lengthAdjust="spacing" textLength="88" x="1156.85" y="787.6074">LocalDateTime</text><line style="stroke:#A80036;stroke-width:1.5;" x1="1119.5" x2="1254.5" y1="799.4531" y2="799.4531"/><line style="stroke:#A80036;stroke-width:1.5;" x1="1119.5" x2="1254.5" y1="807.4531" y2="807.4531"/><text fill="#000000" font-family="sans-serif" font-size="11" lengthAdjust="spacing" textLength="125" x="1124.5" y="821.6636">plusMintutes(minutes)</text><text fill="#000000" font-family="sans-serif" font-size="11" lengthAdjust="spacing" textLength="53" x="1124.5" y="834.4683">getYear()</text><text fill="#000000" font-family="sans-serif" font-size="11" lengthAdjust="spacing" textLength="61" x="1124.5" y="847.2729">getMonth()</text><text fill="#000000" font-family="sans-serif" font-size="11" lengthAdjust="spacing" textLength="97" x="1124.5" y="860.0776">getDayOfMonth()</text><!--MD5=[02e4b9b7573f1156f41e60aa5b4e25a4]
class Company--><rect codeLine="74" fill="#FEFECE" filter="url(#fmvipyel5d26m)" height="86.4141" id="Company" style="stroke:#A80036;stroke-width:1.5;" width="116" x="1167" y="488.9531"/><ellipse cx="1194.6" cy="504.9531" fill="#ADD1B2" rx="11" ry="11" style="stroke:#A80036;stroke-width:1.0;"/><path d="M1196.9438,500.625 C1196.0063,500.1875 1195.4125,500.0469 1194.5375,500.0469 C1191.9125,500.0469 1189.9125,502.125 1189.9125,504.8438 L1189.9125,505.9688 C1189.9125,508.5469 1192.0219,510.4375 1194.9125,510.4375 C1196.1313,510.4375 1197.2875,510.1406 1198.0375,509.5938 C1198.6156,509.1875 1198.9438,508.7344 1198.9438,508.3438 C1198.9438,507.8906 1198.5531,507.5 1198.0844,507.5 C1197.8656,507.5 1197.6625,507.5781 1197.475,507.7656 C1197.0219,508.25 1197.0219,508.25 1196.8344,508.3438 C1196.4125,508.6094 1195.725,508.7344 1194.9594,508.7344 C1192.9125,508.7344 1191.6156,507.6406 1191.6156,505.9375 L1191.6156,504.8438 C1191.6156,503.0625 1192.8656,501.75 1194.6,501.75 C1195.1781,501.75 1195.7875,501.9063 1196.2563,502.1563 C1196.7406,502.4375 1196.9125,502.6563 1197.0063,503.0625 C1197.0688,503.4688 1197.1,503.5938 1197.2406,503.7188 C1197.3813,503.8594 1197.6156,503.9688 1197.8344,503.9688 C1198.1,503.9688 1198.3656,503.8281 1198.5375,503.6094 C1198.6469,503.4531 1198.6781,503.2656 1198.6781,502.8438 L1198.6781,501.4219 C1198.6781,500.9844 1198.6625,500.8594 1198.5688,500.7031 C1198.4125,500.4375 1198.1313,500.2969 1197.8344,500.2969 C1197.5375,500.2969 1197.3344,500.3906 1197.1156,500.7031 L1196.9438,500.625 Z " fill="#000000"/><text fill="#000000" font-family="sans-serif" font-size="12" lengthAdjust="spacing" textLength="56" x="1211.4" y="509.1074">Company</text><line style="stroke:#A80036;stroke-width:1.5;" x1="1168" x2="1282" y1="520.9531" y2="520.9531"/><text fill="#000000" font-family="sans-serif" font-size="11" lengthAdjust="spacing" textLength="104" x="1173" y="535.1636">string designation;</text><line style="stroke:#A80036;stroke-width:1.5;" x1="1168" x2="1282" y1="541.7578" y2="541.7578"/><text fill="#000000" font-family="sans-serif" font-size="11" lengthAdjust="spacing" textLength="83" x="1173" y="555.9683">getTestStore()</text><text fill="#000000" font-family="sans-serif" font-size="11" lengthAdjust="spacing" textLength="91" x="1173" y="568.7729">getClientStore()</text><!--MD5=[3d179cb96b6e8f36e64550241960ed41]
class TextInputControl--><rect codeLine="80" fill="#FEFECE" filter="url(#fmvipyel5d26m)" height="73.6094" id="TextInputControl" style="stroke:#A80036;stroke-width:1.5;" width="130" x="1589" y="302.9531"/><ellipse cx="1604" cy="318.9531" fill="#ADD1B2" rx="11" ry="11" style="stroke:#A80036;stroke-width:1.0;"/><path d="M1606.3438,314.625 C1605.4063,314.1875 1604.8125,314.0469 1603.9375,314.0469 C1601.3125,314.0469 1599.3125,316.125 1599.3125,318.8438 L1599.3125,319.9688 C1599.3125,322.5469 1601.4219,324.4375 1604.3125,324.4375 C1605.5313,324.4375 1606.6875,324.1406 1607.4375,323.5938 C1608.0156,323.1875 1608.3438,322.7344 1608.3438,322.3438 C1608.3438,321.8906 1607.9531,321.5 1607.4844,321.5 C1607.2656,321.5 1607.0625,321.5781 1606.875,321.7656 C1606.4219,322.25 1606.4219,322.25 1606.2344,322.3438 C1605.8125,322.6094 1605.125,322.7344 1604.3594,322.7344 C1602.3125,322.7344 1601.0156,321.6406 1601.0156,319.9375 L1601.0156,318.8438 C1601.0156,317.0625 1602.2656,315.75 1604,315.75 C1604.5781,315.75 1605.1875,315.9063 1605.6563,316.1563 C1606.1406,316.4375 1606.3125,316.6563 1606.4063,317.0625 C1606.4688,317.4688 1606.5,317.5938 1606.6406,317.7188 C1606.7813,317.8594 1607.0156,317.9688 1607.2344,317.9688 C1607.5,317.9688 1607.7656,317.8281 1607.9375,317.6094 C1608.0469,317.4531 1608.0781,317.2656 1608.0781,316.8438 L1608.0781,315.4219 C1608.0781,314.9844 1608.0625,314.8594 1607.9688,314.7031 C1607.8125,314.4375 1607.5313,314.2969 1607.2344,314.2969 C1606.9375,314.2969 1606.7344,314.3906 1606.5156,314.7031 L1606.3438,314.625 Z " fill="#000000"/><text fill="#000000" font-family="sans-serif" font-size="12" lengthAdjust="spacing" textLength="98" x="1618" y="323.1074">TextInputControl</text><line style="stroke:#A80036;stroke-width:1.5;" x1="1590" x2="1718" y1="334.9531" y2="334.9531"/><line style="stroke:#A80036;stroke-width:1.5;" x1="1590" x2="1718" y1="342.9531" y2="342.9531"/><text fill="#000000" font-family="sans-serif" font-size="11" lengthAdjust="spacing" textLength="105" x="1595" y="357.1636">getText(dateText)</text><text fill="#000000" font-family="sans-serif" font-size="11" lengthAdjust="spacing" textLength="109" x="1595" y="369.9683">setText(textDates)</text><!--MD5=[0f6f7964b844a64b0496af0dda7914bd]
class TestStore--><rect codeLine="85" fill="#FEFECE" filter="url(#fmvipyel5d26m)" height="60.8047" id="TestStore" style="stroke:#A80036;stroke-width:1.5;" width="91" x="1646.5" y="501.4531"/><ellipse cx="1661.5" cy="517.4531" fill="#ADD1B2" rx="11" ry="11" style="stroke:#A80036;stroke-width:1.0;"/><path d="M1663.8438,513.125 C1662.9063,512.6875 1662.3125,512.5469 1661.4375,512.5469 C1658.8125,512.5469 1656.8125,514.625 1656.8125,517.3438 L1656.8125,518.4688 C1656.8125,521.0469 1658.9219,522.9375 1661.8125,522.9375 C1663.0313,522.9375 1664.1875,522.6406 1664.9375,522.0938 C1665.5156,521.6875 1665.8438,521.2344 1665.8438,520.8438 C1665.8438,520.3906 1665.4531,520 1664.9844,520 C1664.7656,520 1664.5625,520.0781 1664.375,520.2656 C1663.9219,520.75 1663.9219,520.75 1663.7344,520.8438 C1663.3125,521.1094 1662.625,521.2344 1661.8594,521.2344 C1659.8125,521.2344 1658.5156,520.1406 1658.5156,518.4375 L1658.5156,517.3438 C1658.5156,515.5625 1659.7656,514.25 1661.5,514.25 C1662.0781,514.25 1662.6875,514.4063 1663.1563,514.6563 C1663.6406,514.9375 1663.8125,515.1563 1663.9063,515.5625 C1663.9688,515.9688 1664,516.0938 1664.1406,516.2188 C1664.2813,516.3594 1664.5156,516.4688 1664.7344,516.4688 C1665,516.4688 1665.2656,516.3281 1665.4375,516.1094 C1665.5469,515.9531 1665.5781,515.7656 1665.5781,515.3438 L1665.5781,513.9219 C1665.5781,513.4844 1665.5625,513.3594 1665.4688,513.2031 C1665.3125,512.9375 1665.0313,512.7969 1664.7344,512.7969 C1664.4375,512.7969 1664.2344,512.8906 1664.0156,513.2031 L1663.8438,513.125 Z " fill="#000000"/><text fill="#000000" font-family="sans-serif" font-size="12" lengthAdjust="spacing" textLength="59" x="1675.5" y="521.6074">TestStore</text><line style="stroke:#A80036;stroke-width:1.5;" x1="1647.5" x2="1736.5" y1="533.4531" y2="533.4531"/><line style="stroke:#A80036;stroke-width:1.5;" x1="1647.5" x2="1736.5" y1="541.4531" y2="541.4531"/><text fill="#000000" font-family="sans-serif" font-size="11" lengthAdjust="spacing" textLength="58" x="1652.5" y="555.6636">getTests()</text><!--MD5=[55cb992be19579b505cea3c5691093cb]
class ClientStore--><rect codeLine="89" fill="#FEFECE" filter="url(#fmvipyel5d26m)" height="60.8047" id="ClientStore" style="stroke:#A80036;stroke-width:1.5;" width="98" x="168" y="501.4531"/><ellipse cx="183" cy="517.4531" fill="#ADD1B2" rx="11" ry="11" style="stroke:#A80036;stroke-width:1.0;"/><path d="M185.3438,513.125 C184.4063,512.6875 183.8125,512.5469 182.9375,512.5469 C180.3125,512.5469 178.3125,514.625 178.3125,517.3438 L178.3125,518.4688 C178.3125,521.0469 180.4219,522.9375 183.3125,522.9375 C184.5313,522.9375 185.6875,522.6406 186.4375,522.0938 C187.0156,521.6875 187.3438,521.2344 187.3438,520.8438 C187.3438,520.3906 186.9531,520 186.4844,520 C186.2656,520 186.0625,520.0781 185.875,520.2656 C185.4219,520.75 185.4219,520.75 185.2344,520.8438 C184.8125,521.1094 184.125,521.2344 183.3594,521.2344 C181.3125,521.2344 180.0156,520.1406 180.0156,518.4375 L180.0156,517.3438 C180.0156,515.5625 181.2656,514.25 183,514.25 C183.5781,514.25 184.1875,514.4063 184.6563,514.6563 C185.1406,514.9375 185.3125,515.1563 185.4063,515.5625 C185.4688,515.9688 185.5,516.0938 185.6406,516.2188 C185.7813,516.3594 186.0156,516.4688 186.2344,516.4688 C186.5,516.4688 186.7656,516.3281 186.9375,516.1094 C187.0469,515.9531 187.0781,515.7656 187.0781,515.3438 L187.0781,513.9219 C187.0781,513.4844 187.0625,513.3594 186.9688,513.2031 C186.8125,512.9375 186.5313,512.7969 186.2344,512.7969 C185.9375,512.7969 185.7344,512.8906 185.5156,513.2031 L185.3438,513.125 Z " fill="#000000"/><text fill="#000000" font-family="sans-serif" font-size="12" lengthAdjust="spacing" textLength="66" x="197" y="521.6074">ClientStore</text><line style="stroke:#A80036;stroke-width:1.5;" x1="169" x2="265" y1="533.4531" y2="533.4531"/><line style="stroke:#A80036;stroke-width:1.5;" x1="169" x2="265" y1="541.4531" y2="541.4531"/><text fill="#000000" font-family="sans-serif" font-size="11" lengthAdjust="spacing" textLength="66" x="174" y="555.6636">getClients()</text><!--MD5=[ed6624c6556d5e7b1bd23032162d20b7]
class Client--><rect codeLine="93" fill="#FEFECE" filter="url(#fmvipyel5d26m)" height="137.6328" id="Client" style="stroke:#A80036;stroke-width:1.5;" width="161" x="136.5" y="747.9531"/><ellipse cx="196.25" cy="763.9531" fill="#ADD1B2" rx="11" ry="11" style="stroke:#A80036;stroke-width:1.0;"/><path d="M198.5938,759.625 C197.6563,759.1875 197.0625,759.0469 196.1875,759.0469 C193.5625,759.0469 191.5625,761.125 191.5625,763.8438 L191.5625,764.9688 C191.5625,767.5469 193.6719,769.4375 196.5625,769.4375 C197.7813,769.4375 198.9375,769.1406 199.6875,768.5938 C200.2656,768.1875 200.5938,767.7344 200.5938,767.3438 C200.5938,766.8906 200.2031,766.5 199.7344,766.5 C199.5156,766.5 199.3125,766.5781 199.125,766.7656 C198.6719,767.25 198.6719,767.25 198.4844,767.3438 C198.0625,767.6094 197.375,767.7344 196.6094,767.7344 C194.5625,767.7344 193.2656,766.6406 193.2656,764.9375 L193.2656,763.8438 C193.2656,762.0625 194.5156,760.75 196.25,760.75 C196.8281,760.75 197.4375,760.9063 197.9063,761.1563 C198.3906,761.4375 198.5625,761.6563 198.6563,762.0625 C198.7188,762.4688 198.75,762.5938 198.8906,762.7188 C199.0313,762.8594 199.2656,762.9688 199.4844,762.9688 C199.75,762.9688 200.0156,762.8281 200.1875,762.6094 C200.2969,762.4531 200.3281,762.2656 200.3281,761.8438 L200.3281,760.4219 C200.3281,759.9844 200.3125,759.8594 200.2188,759.7031 C200.0625,759.4375 199.7813,759.2969 199.4844,759.2969 C199.1875,759.2969 198.9844,759.3906 198.7656,759.7031 L198.5938,759.625 Z " fill="#000000"/><text fill="#000000" font-family="sans-serif" font-size="12" lengthAdjust="spacing" textLength="33" x="216.75" y="768.1074">Client</text><line style="stroke:#A80036;stroke-width:1.5;" x1="137.5" x2="296.5" y1="779.9531" y2="779.9531"/><text fill="#000000" font-family="sans-serif" font-size="11" lengthAdjust="spacing" textLength="149" x="142.5" y="794.1636">String citizenCardNumber;</text><text fill="#000000" font-family="sans-serif" font-size="11" lengthAdjust="spacing" textLength="108" x="142.5" y="806.9683">String numberNHS;</text><text fill="#000000" font-family="sans-serif" font-size="11" lengthAdjust="spacing" textLength="102" x="142.5" y="819.7729">String numberTIN;</text><text fill="#000000" font-family="sans-serif" font-size="11" lengthAdjust="spacing" textLength="93" x="142.5" y="832.5776">String birthDate;</text><text fill="#000000" font-family="sans-serif" font-size="11" lengthAdjust="spacing" textLength="59" x="142.5" y="845.3823">string sex;</text><text fill="#000000" font-family="sans-serif" font-size="11" lengthAdjust="spacing" textLength="121" x="142.5" y="858.187">String phoneNumber;</text><text fill="#000000" font-family="sans-serif" font-size="11" lengthAdjust="spacing" textLength="71" x="142.5" y="870.9917">string name;</text><line style="stroke:#A80036;stroke-width:1.5;" x1="137.5" x2="296.5" y1="877.5859" y2="877.5859"/><!--MD5=[df38be88ccee13e832d6fafd6288a4ca]
class Test--><rect codeLine="103" fill="#FEFECE" filter="url(#fmvipyel5d26m)" height="163.2422" id="Test" style="stroke:#A80036;stroke-width:1.5;" width="173" x="1605.5" y="735.4531"/><ellipse cx="1674.75" cy="751.4531" fill="#ADD1B2" rx="11" ry="11" style="stroke:#A80036;stroke-width:1.0;"/><path d="M1677.0938,747.125 C1676.1563,746.6875 1675.5625,746.5469 1674.6875,746.5469 C1672.0625,746.5469 1670.0625,748.625 1670.0625,751.3438 L1670.0625,752.4688 C1670.0625,755.0469 1672.1719,756.9375 1675.0625,756.9375 C1676.2813,756.9375 1677.4375,756.6406 1678.1875,756.0938 C1678.7656,755.6875 1679.0938,755.2344 1679.0938,754.8438 C1679.0938,754.3906 1678.7031,754 1678.2344,754 C1678.0156,754 1677.8125,754.0781 1677.625,754.2656 C1677.1719,754.75 1677.1719,754.75 1676.9844,754.8438 C1676.5625,755.1094 1675.875,755.2344 1675.1094,755.2344 C1673.0625,755.2344 1671.7656,754.1406 1671.7656,752.4375 L1671.7656,751.3438 C1671.7656,749.5625 1673.0156,748.25 1674.75,748.25 C1675.3281,748.25 1675.9375,748.4063 1676.4063,748.6563 C1676.8906,748.9375 1677.0625,749.1563 1677.1563,749.5625 C1677.2188,749.9688 1677.25,750.0938 1677.3906,750.2188 C1677.5313,750.3594 1677.7656,750.4688 1677.9844,750.4688 C1678.25,750.4688 1678.5156,750.3281 1678.6875,750.1094 C1678.7969,749.9531 1678.8281,749.7656 1678.8281,749.3438 L1678.8281,747.9219 C1678.8281,747.4844 1678.8125,747.3594 1678.7188,747.2031 C1678.5625,746.9375 1678.2813,746.7969 1677.9844,746.7969 C1677.6875,746.7969 1677.4844,746.8906 1677.2656,747.2031 L1677.0938,747.125 Z " fill="#000000"/><text fill="#000000" font-family="sans-serif" font-size="12" lengthAdjust="spacing" textLength="26" x="1695.25" y="755.6074">Test</text><line style="stroke:#A80036;stroke-width:1.5;" x1="1606.5" x2="1777.5" y1="767.4531" y2="767.4531"/><text fill="#000000" font-family="sans-serif" font-size="11" lengthAdjust="spacing" textLength="68" x="1611.5" y="781.6636">String code;</text><text fill="#000000" font-family="sans-serif" font-size="11" lengthAdjust="spacing" textLength="94" x="1611.5" y="794.4683">String NHSCode;</text><text fill="#000000" font-family="sans-serif" font-size="11" lengthAdjust="spacing" textLength="102" x="1611.5" y="807.2729">String description;</text><line style="stroke:#A80036;stroke-width:1.5;" x1="1606.5" x2="1777.5" y1="813.8672" y2="813.8672"/><text fill="#000000" font-family="sans-serif" font-size="11" lengthAdjust="spacing" textLength="97" x="1611.5" y="828.0776">checkTestState()</text><text fill="#000000" font-family="sans-serif" font-size="11" lengthAdjust="spacing" textLength="122" x="1611.5" y="840.8823">getDateRegistration()</text><text fill="#000000" font-family="sans-serif" font-size="11" lengthAdjust="spacing" textLength="108" x="1611.5" y="853.687">getDateValidTest()</text><text fill="#000000" font-family="sans-serif" font-size="11" lengthAdjust="spacing" textLength="161" x="1611.5" y="866.4917">getRealDateChemAnalysis()</text><text fill="#000000" font-family="sans-serif" font-size="11" lengthAdjust="spacing" textLength="124" x="1611.5" y="879.2964">getRealDateSample()</text><text fill="#000000" font-family="sans-serif" font-size="11" lengthAdjust="spacing" textLength="135" x="1611.5" y="892.1011">getRealDateDiagnosis()</text><!--MD5=[c029918c90803e70d7e9a2b4bbf24e4e]
class CalculateNumberTests--><rect codeLine="115" fill="#FEFECE" filter="url(#fmvipyel5d26m)" height="86.4141" id="CalculateNumberTests" style="stroke:#A80036;stroke-width:1.5;" width="468" x="1773" y="488.9531"/><ellipse cx="1935.75" cy="504.9531" fill="#ADD1B2" rx="11" ry="11" style="stroke:#A80036;stroke-width:1.0;"/><path d="M1938.0938,500.625 C1937.1563,500.1875 1936.5625,500.0469 1935.6875,500.0469 C1933.0625,500.0469 1931.0625,502.125 1931.0625,504.8438 L1931.0625,505.9688 C1931.0625,508.5469 1933.1719,510.4375 1936.0625,510.4375 C1937.2813,510.4375 1938.4375,510.1406 1939.1875,509.5938 C1939.7656,509.1875 1940.0938,508.7344 1940.0938,508.3438 C1940.0938,507.8906 1939.7031,507.5 1939.2344,507.5 C1939.0156,507.5 1938.8125,507.5781 1938.625,507.7656 C1938.1719,508.25 1938.1719,508.25 1937.9844,508.3438 C1937.5625,508.6094 1936.875,508.7344 1936.1094,508.7344 C1934.0625,508.7344 1932.7656,507.6406 1932.7656,505.9375 L1932.7656,504.8438 C1932.7656,503.0625 1934.0156,501.75 1935.75,501.75 C1936.3281,501.75 1936.9375,501.9063 1937.4063,502.1563 C1937.8906,502.4375 1938.0625,502.6563 1938.1563,503.0625 C1938.2188,503.4688 1938.25,503.5938 1938.3906,503.7188 C1938.5313,503.8594 1938.7656,503.9688 1938.9844,503.9688 C1939.25,503.9688 1939.5156,503.8281 1939.6875,503.6094 C1939.7969,503.4531 1939.8281,503.2656 1939.8281,502.8438 L1939.8281,501.4219 C1939.8281,500.9844 1939.8125,500.8594 1939.7188,500.7031 C1939.5625,500.4375 1939.2813,500.2969 1938.9844,500.2969 C1938.6875,500.2969 1938.4844,500.3906 1938.2656,500.7031 L1938.0938,500.625 Z " fill="#000000"/><text fill="#000000" font-family="sans-serif" font-size="12" lengthAdjust="spacing" textLength="134" x="1956.25" y="509.1074">CalculateNumberTests</text><line style="stroke:#A80036;stroke-width:1.5;" x1="1774" x2="2240" y1="520.9531" y2="520.9531"/><line style="stroke:#A80036;stroke-width:1.5;" x1="1774" x2="2240" y1="528.9531" y2="528.9531"/><text fill="#000000" font-family="sans-serif" font-size="11" lengthAdjust="spacing" textLength="456" x="1779" y="543.1636">getNumberRegisteredTestsInterval(beginDate, tests, arraySize, interval, status)</text><text fill="#000000" font-family="sans-serif" font-size="11" lengthAdjust="spacing" textLength="396" x="1779" y="555.9683">getNumberRegisteredTests(dateReference, listTests, interval, status)</text><text fill="#000000" font-family="sans-serif" font-size="11" lengthAdjust="spacing" textLength="275" x="1779" y="568.7729">checkInterval(beginningDate, testDate, interval)</text><!--MD5=[20a748d5ee336a9a91751b0a3d4f0beb]
class Cliente--><rect fill="#FEFECE" filter="url(#fmvipyel5d26m)" height="48" id="Cliente" style="stroke:#A80036;stroke-width:1.5;" width="73" x="59.5" y="507.9531"/><ellipse cx="74.5" cy="523.9531" fill="#ADD1B2" rx="11" ry="11" style="stroke:#A80036;stroke-width:1.0;"/><path d="M76.8438,519.625 C75.9063,519.1875 75.3125,519.0469 74.4375,519.0469 C71.8125,519.0469 69.8125,521.125 69.8125,523.8438 L69.8125,524.9688 C69.8125,527.5469 71.9219,529.4375 74.8125,529.4375 C76.0313,529.4375 77.1875,529.1406 77.9375,528.5938 C78.5156,528.1875 78.8438,527.7344 78.8438,527.3438 C78.8438,526.8906 78.4531,526.5 77.9844,526.5 C77.7656,526.5 77.5625,526.5781 77.375,526.7656 C76.9219,527.25 76.9219,527.25 76.7344,527.3438 C76.3125,527.6094 75.625,527.7344 74.8594,527.7344 C72.8125,527.7344 71.5156,526.6406 71.5156,524.9375 L71.5156,523.8438 C71.5156,522.0625 72.7656,520.75 74.5,520.75 C75.0781,520.75 75.6875,520.9063 76.1563,521.1563 C76.6406,521.4375 76.8125,521.6563 76.9063,522.0625 C76.9688,522.4688 77,522.5938 77.1406,522.7188 C77.2813,522.8594 77.5156,522.9688 77.7344,522.9688 C78,522.9688 78.2656,522.8281 78.4375,522.6094 C78.5469,522.4531 78.5781,522.2656 78.5781,521.8438 L78.5781,520.4219 C78.5781,519.9844 78.5625,519.8594 78.4688,519.7031 C78.3125,519.4375 78.0313,519.2969 77.7344,519.2969 C77.4375,519.2969 77.2344,519.3906 77.0156,519.7031 L76.8438,519.625 Z " fill="#000000"/><text fill="#000000" font-family="sans-serif" font-size="12" lengthAdjust="spacing" textLength="41" x="88.5" y="528.1074">Cliente</text><line style="stroke:#A80036;stroke-width:1.5;" x1="60.5" x2="131.5" y1="539.9531" y2="539.9531"/><line style="stroke:#A80036;stroke-width:1.5;" x1="60.5" x2="131.5" y1="547.9531" y2="547.9531"/><!--MD5=[8dd5a394ccdbf25fd5d3eaeff307a10d]
link AnalyseOverviewFXMLController to AnalyseOverviewController--><path codeLine="121" d="M1125.36,76.3581 C1105.42,120.2401 1061.83,216.1201 1033.22,279.0751 " fill="none" id="AnalyseOverviewFXMLController-to-AnalyseOverviewController" style="stroke:#A80036;stroke-width:1.0;stroke-dasharray:7.0,7.0;"/><polygon fill="#A80036" points="1031.01,283.9271,1038.38,277.3939,1033.082,279.3767,1031.0993,274.0787,1031.01,283.9271" style="stroke:#A80036;stroke-width:1.0;"/><!--MD5=[563fe69ee546bcacdbcd6f6e00fdd784]
link AnalyseOverviewFXMLController to StatisticsFXMLController--><path codeLine="122" d="M1178.74,76.0631 C1208.91,92.3801 1250.3,114.7611 1286.76,134.4821 " fill="none" id="AnalyseOverviewFXMLController-to-StatisticsFXMLController" style="stroke:#A80036;stroke-width:1.0;stroke-dasharray:7.0,7.0;"/><polygon fill="#A80036" points="1291.19,136.8741,1285.1662,129.0822,1286.7889,134.5013,1281.3698,136.124,1291.19,136.8741" style="stroke:#A80036;stroke-width:1.0;"/><!--MD5=[946cef26e6235bae8ecd14909193739b]
link AnalyseOverviewFXMLController to Date--><path codeLine="123" d="M1022.48,53.8751 C735.925,57.7021 6,77.4171 6,178.9531 C6,178.9531 6,178.9531 6,532.9531 C6,685.8071 177.186,617.8351 315,683.9531 C332.627,692.4101 350.361,702.5381 367.501,713.3741 " fill="none" id="AnalyseOverviewFXMLController-to-Date" style="stroke:#A80036;stroke-width:1.0;stroke-dasharray:7.0,7.0;"/><polygon fill="#A80036" points="371.845,716.1441,366.4076,707.9322,367.6293,713.4556,362.106,714.6773,371.845,716.1441" style="stroke:#A80036;stroke-width:1.0;"/><!--MD5=[d52db1955dfe98b701224257efeca3f1]
link AnalyseOverviewFXMLController to TextInputControl--><path codeLine="124" d="M1249.5,57.9441 C1375.67,65.9501 1568.39,86.3071 1619,136.9531 C1660.91,178.8901 1663.1,251.7801 1659.51,297.5831 " fill="none" id="AnalyseOverviewFXMLController-to-TextInputControl" style="stroke:#A80036;stroke-width:1.0;stroke-dasharray:7.0,7.0;"/><polygon fill="#A80036" points="1659.07,302.7551,1663.8163,294.1254,1659.4926,297.773,1655.8449,293.4493,1659.07,302.7551" style="stroke:#A80036;stroke-width:1.0;"/><!--MD5=[c334af63228037d4171c21f24c41f3e9]
link StatisticsFXMLController to StatisticsController--><path codeLine="125" d="M1371.41,223.2941 C1372.38,240.2561 1373.51,260.1141 1374.56,278.5411 " fill="none" id="StatisticsFXMLController-to-StatisticsController" style="stroke:#A80036;stroke-width:1.0;stroke-dasharray:7.0,7.0;"/><polygon fill="#A80036" points="1374.85,283.6971,1378.3327,274.4846,1374.5662,278.7052,1370.3456,274.9387,1374.85,283.6971" style="stroke:#A80036;stroke-width:1.0;"/><!--MD5=[cd2b22dbbe952b0fa682589fb655b6af]
link StatisticsFXMLController to TextInputControl--><path codeLine="126" d="M1457.68,223.0321 C1493.68,240.8661 1535.35,262.4691 1572,283.9531 C1580.51,288.9441 1589.35,294.4721 1597.92,300.0441 " fill="none" id="StatisticsFXMLController-to-TextInputControl" style="stroke:#A80036;stroke-width:1.0;stroke-dasharray:7.0,7.0;"/><polygon fill="#A80036" points="1602.11,302.7801,1596.7549,294.5144,1597.9214,300.0497,1592.3861,301.2162,1602.11,302.7801" style="stroke:#A80036;stroke-width:1.0;"/><!--MD5=[8a321a93d0700c19b4e6a62a536a0be6]
link AnalyseOverviewController to Company--><path codeLine="128" d="M1101.42,396.0081 C1114.9,405.3231 1128.17,415.4151 1140,425.9531 C1159.37,443.2131 1177.88,465.1651 1192.64,484.5301 " fill="none" id="AnalyseOverviewController-to-Company" style="stroke:#A80036;stroke-width:1.0;stroke-dasharray:7.0,7.0;"/><polygon fill="#A80036" points="1195.93,488.8761,1193.6894,479.2855,1192.9131,484.8889,1187.3098,484.1125,1195.93,488.8761" style="stroke:#A80036;stroke-width:1.0;"/><!--MD5=[86a354bc37693a1334457275f0e3bfa8]
link AnalyseOverviewController to TestStore--><path codeLine="129" d="M1136.84,383.8061 C1152.96,388.2991 1169.29,392.4831 1185,395.9531 C1379.5,438.9001 1454.29,361.2781 1629,456.9531 C1646.18,466.3611 1660.73,482.4531 1671.51,497.2331 " fill="none" id="AnalyseOverviewController-to-TestStore" style="stroke:#A80036;stroke-width:1.0;stroke-dasharray:7.0,7.0;"/><polygon fill="#A80036" points="1674.45,501.3601,1672.4866,491.709,1671.5492,497.2876,1665.9706,496.3502,1674.45,501.3601" style="stroke:#A80036;stroke-width:1.0;"/><!--MD5=[0a3e07e373275e24696ac5e73d259152]
link AnalyseOverviewController to App--><path codeLine="130" d="M997.864,396.1641 C993.455,426.0771 988.101,462.4131 984.062,489.8171 " fill="none" id="AnalyseOverviewController-to-App" style="stroke:#A80036;stroke-width:1.0;stroke-dasharray:7.0,7.0;"/><polygon fill="#A80036" points="983.324,494.8271,988.593,486.5062,984.0527,489.8805,980.6784,485.3403,983.324,494.8271" style="stroke:#A80036;stroke-width:1.0;"/><!--MD5=[dcbb1cc447a9e51ed97c9dd3465c3909]
link AnalyseOverviewController to UserSession--><path codeLine="131" d="M1136.53,390.6871 C1188,410.7151 1247.51,434.3831 1301,456.9531 C1332.69,470.3231 1367.46,485.8821 1396.8,499.2731 " fill="none" id="AnalyseOverviewController-to-UserSession" style="stroke:#A80036;stroke-width:1.0;stroke-dasharray:7.0,7.0;"/><polygon fill="#A80036" points="1401.46,501.4031,1394.9472,494.0151,1396.9153,499.3185,1391.6118,501.2866,1401.46,501.4031" style="stroke:#A80036;stroke-width:1.0;"/><!--MD5=[b0ea411894817b4288b909de8a7d9b46]
link AnalyseOverviewController to Test--><path codeLine="132" d="M1042.65,396.1941 C1054.73,415.1641 1067.9,436.7181 1079,456.9531 C1114.48,521.6151 1095.95,556.7651 1150,606.9531 C1217.47,669.6011 1464.4,749.2011 1600.49,789.7031 " fill="none" id="AnalyseOverviewController-to-Test" style="stroke:#A80036;stroke-width:1.0;stroke-dasharray:7.0,7.0;"/><polygon fill="#A80036" points="1605.28,791.1271,1597.7976,784.723,1600.4883,789.6989,1595.5124,792.3897,1605.28,791.1271" style="stroke:#A80036;stroke-width:1.0;"/><!--MD5=[316b6b006d5e2055320900089954cb84]
link AnalyseOverviewController to Cliente--><path codeLine="133" d="M875.464,352.0521 C730.564,365.3671 490.07,390.4281 285,425.9531 C224.342,436.4611 201.391,423.0591 150,456.9531 C132.646,468.3991 118.936,487.4481 109.672,503.3531 " fill="none" id="AnalyseOverviewController-to-Cliente" style="stroke:#A80036;stroke-width:1.0;stroke-dasharray:7.0,7.0;"/><polygon fill="#A80036" points="107.178,507.7461,115.0997,501.894,109.6464,503.3979,108.1425,497.9446,107.178,507.7461" style="stroke:#A80036;stroke-width:1.0;"/><!--MD5=[56735eef2228e77f5f1c3368b6257b30]
link AnalyseOverviewController to Date--><path codeLine="134" d="M875.468,345.0951 C704.853,353.5741 420.052,379.2851 355,456.9531 C301.362,520.9931 333.972,607.4581 381.732,679.4851 " fill="none" id="AnalyseOverviewController-to-Date" style="stroke:#A80036;stroke-width:1.0;stroke-dasharray:7.0,7.0;"/><polygon fill="#A80036" points="384.603,683.7721,382.9158,674.0689,381.8196,679.6185,376.27,678.5223,384.603,683.7721" style="stroke:#A80036;stroke-width:1.0;"/><!--MD5=[2686aed636bb57786f5eecac24977194]
link AnalyseOverviewController to ClientStore--><path codeLine="135" d="M875.151,344.1311 C696.854,350.5411 388.779,369.6461 293,425.9531 C265.538,442.0981 245.208,472.4941 232.52,496.4441 " fill="none" id="AnalyseOverviewController-to-ClientStore" style="stroke:#A80036;stroke-width:1.0;stroke-dasharray:7.0,7.0;"/><polygon fill="#A80036" points="230.084,501.1421,237.7778,494.9935,232.3855,496.7033,230.6757,491.3111,230.084,501.1421" style="stroke:#A80036;stroke-width:1.0;"/><!--MD5=[436ba90972a04926bc773df6e269a52e]
link AnalyseOverviewController to ContiguousSubsequence--><path codeLine="136" d="M892.934,396.0361 C855.433,414.3061 812.99,434.9841 772.8,454.5631 " fill="none" id="AnalyseOverviewController-to-ContiguousSubsequence" style="stroke:#A80036;stroke-width:1.0;stroke-dasharray:7.0,7.0;"/><polygon fill="#A80036" points="767.91,456.9451,777.7528,456.5997,772.405,454.7555,774.2493,449.4077,767.91,456.9451" style="stroke:#A80036;stroke-width:1.0;"/><!--MD5=[4e96ee18d321ed5c82ba68ce7ad0de5e]
link StatisticsController to Company--><path codeLine="138" d="M1333.54,396.1641 C1310.93,424.2451 1283.76,457.9861 1262.26,484.6861 " fill="none" id="StatisticsController-to-Company" style="stroke:#A80036;stroke-width:1.0;stroke-dasharray:7.0,7.0;"/><polygon fill="#A80036" points="1258.86,488.9081,1267.6178,484.4025,1261.9939,485.0121,1261.3843,479.3882,1258.86,488.9081" style="stroke:#A80036;stroke-width:1.0;"/><!--MD5=[bcb693377456da7752f800cae6043da6]
link StatisticsController to TestStore--><path codeLine="139" d="M1525.11,396.0441 C1560.85,412.8261 1597.74,433.2281 1629,456.9531 C1643.74,468.1381 1657.41,483.3191 1668.22,497.0201 " fill="none" id="StatisticsController-to-TestStore" style="stroke:#A80036;stroke-width:1.0;stroke-dasharray:7.0,7.0;"/><polygon fill="#A80036" points="1671.49,501.2181,1669.1191,491.6589,1668.4191,497.2723,1662.8057,496.5723,1671.49,501.2181" style="stroke:#A80036;stroke-width:1.0;"/><!--MD5=[bf80a3a011d984eebed7ac94f5bcca5d]
link StatisticsController to App--><path codeLine="140" d="M1262.03,396.0361 C1196.72,427.0621 1116.79,465.0301 1058.37,492.7751 " fill="none" id="StatisticsController-to-App" style="stroke:#A80036;stroke-width:1.0;stroke-dasharray:7.0,7.0;"/><polygon fill="#A80036" points="1053.85,494.9231,1063.6958,494.6797,1058.3675,492.7801,1060.267,487.4517,1053.85,494.9231" style="stroke:#A80036;stroke-width:1.0;"/><!--MD5=[11b85f8fb00d9626e5a4a01a3a328c08]
link StatisticsController to UserSession--><path codeLine="141" d="M1403.28,396.1641 C1418.13,428.5831 1436.42,468.5471 1449.23,496.5091 " fill="none" id="StatisticsController-to-UserSession" style="stroke:#A80036;stroke-width:1.0;stroke-dasharray:7.0,7.0;"/><polygon fill="#A80036" points="1451.39,501.2371,1451.2776,491.3889,1449.3073,496.6915,1444.0047,494.7212,1451.39,501.2371" style="stroke:#A80036;stroke-width:1.0;"/><!--MD5=[c1f2bfcf5979721dab614f9001a57ada]
link StatisticsController to Test--><path codeLine="142" d="M1554.24,392.4351 C1560.22,393.6951 1566.15,394.8731 1572,395.9531 C1647.36,409.8541 2207.26,400.4191 2259,456.9531 C2304.01,506.1341 2297.13,552.2651 2259,606.9531 C2150.97,761.9151 1914.4,802.2851 1783.56,812.5991 " fill="none" id="StatisticsController-to-Test" style="stroke:#A80036;stroke-width:1.0;stroke-dasharray:7.0,7.0;"/><polygon fill="#A80036" points="1778.57,812.9821,1787.8518,816.2758,1783.5551,812.5963,1787.2346,808.2997,1778.57,812.9821" style="stroke:#A80036;stroke-width:1.0;"/><!--MD5=[48b6bba789e9ef7f8e7b26faa297dcd3]
link StatisticsController to CalculateNumberTests--><path codeLine="143" d="M1554.05,394.1311 C1651.52,423.5751 1771.17,459.7151 1863.01,487.4571 " fill="none" id="StatisticsController-to-CalculateNumberTests" style="stroke:#A80036;stroke-width:1.0;stroke-dasharray:7.0,7.0;"/><polygon fill="#A80036" points="1867.91,488.9381,1860.4472,482.5111,1863.1227,487.4952,1858.1386,490.1707,1867.91,488.9381" style="stroke:#A80036;stroke-width:1.0;"/><!--MD5=[b0f4f6db8206580012ef9cd998ed01c5]
link TestStore to Test--><path codeLine="145" d="M1692,562.7041 C1692,603.2911 1692,677.5551 1692,735.2091 " fill="none" id="TestStore-Test" style="stroke:#A80036;stroke-width:1.0;"/><polygon fill="#000000" points="1697,650.5195,1699.9389,641.4744,1694.0611,641.4744,1697,650.5195" style="stroke:#000000;stroke-width:1.0;"/><text fill="#000000" font-family="sans-serif" font-size="13" lengthAdjust="spacing" textLength="54" x="1706" y="650.02">contains</text><text fill="#000000" font-family="sans-serif" font-size="13" lengthAdjust="spacing" textLength="8" x="1683.2125" y="582.334">1</text><text fill="#000000" font-family="sans-serif" font-size="13" lengthAdjust="spacing" textLength="7" x="1684.6883" y="724.3229">*</text><!--MD5=[1d934105a045dbf126514c6917bd5072]
link ClientStore to Client--><path codeLine="146" d="M217,562.7041 C217,606.3421 217,688.9111 217,747.9081 " fill="none" id="ClientStore-Client" style="stroke:#A80036;stroke-width:1.0;"/><polygon fill="#000000" points="222,650.5195,224.9389,641.4744,219.0611,641.4744,222,650.5195" style="stroke:#000000;stroke-width:1.0;"/><text fill="#000000" font-family="sans-serif" font-size="13" lengthAdjust="spacing" textLength="54" x="231" y="650.02">contains</text><text fill="#000000" font-family="sans-serif" font-size="13" lengthAdjust="spacing" textLength="8" x="208.2125" y="582.334">1</text><text fill="#000000" font-family="sans-serif" font-size="13" lengthAdjust="spacing" textLength="7" x="209.6391" y="737.1071">*</text><!--MD5=[b18954516df65c6f1b1cac323be44dfc]
link CalculateNumberTests to Date--><path codeLine="148" d="M1879.2,575.0111 C1839.73,586.7731 1795.88,598.6071 1755,606.9531 C1468.24,665.5031 1389.62,635.3901 1101,683.9531 C938.906,711.2271 754.55,753.4011 633.25,782.7111 " fill="none" id="CalculateNumberTests-to-Date" style="stroke:#A80036;stroke-width:1.0;stroke-dasharray:7.0,7.0;"/><polygon fill="#A80036" points="628.242,783.9221,637.9302,785.6938,633.1018,782.7465,636.0491,777.9181,628.242,783.9221" style="stroke:#A80036;stroke-width:1.0;"/><text fill="#000000" font-family="sans-serif" font-size="13" lengthAdjust="spacing" textLength="8" x="1849.3706" y="595.4284">1</text><text fill="#000000" font-family="sans-serif" font-size="13" lengthAdjust="spacing" textLength="7" x="635.8583" y="778.6589">*</text><!--MD5=[53ce5449ff64a210b50b43273c72d16b]
link CalculateNumberTests to Test--><path codeLine="149" d="M1960.18,575.0151 C1913.48,616.9761 1840.51,682.5261 1782.48,734.6671 " fill="none" id="CalculateNumberTests-to-Test" style="stroke:#A80036;stroke-width:1.0;stroke-dasharray:7.0,7.0;"/><polygon fill="#A80036" points="1778.68,738.0821,1788.0473,735.04,1782.3984,734.7394,1782.6989,729.0906,1778.68,738.0821" style="stroke:#A80036;stroke-width:1.0;"/><text fill="#000000" font-family="sans-serif" font-size="13" lengthAdjust="spacing" textLength="8" x="1943.7629" y="595.4331">1</text><text fill="#000000" font-family="sans-serif" font-size="13" lengthAdjust="spacing" textLength="7" x="1786.4298" y="727.7218">*</text><!--MD5=[b3c95d0281782a9cb5730679e9cf1692]
link CalculateNumberTests to LocalDateTime--><path codeLine="150" d="M1938.37,574.9701 C1892.09,601.4851 1828.78,634.3211 1769,653.9531 C1691.53,679.3941 1667.18,664.4811 1588,683.9531 C1471.46,712.6111 1339.96,758.6101 1260.3,788.0431 " fill="none" id="CalculateNumberTests-to-LocalDateTime" style="stroke:#A80036;stroke-width:1.0;stroke-dasharray:7.0,7.0;"/><polygon fill="#A80036" points="1255.6,789.7821,1265.4281,790.4219,1260.2913,788.0525,1262.6607,782.9158,1255.6,789.7821" style="stroke:#A80036;stroke-width:1.0;"/><text fill="#000000" font-family="sans-serif" font-size="13" lengthAdjust="spacing" textLength="8" x="1918.3407" y="595.3806">1</text><text fill="#000000" font-family="sans-serif" font-size="13" lengthAdjust="spacing" textLength="7" x="1263.4859" y="783.0522">*</text><!--MD5=[9a093c0e5669ff43724513284a52ff64]
link ContiguousSubsequence to Date--><path codeLine="152" d="M585.522,607.3081 C576.492,629.3401 566.302,654.1981 556.186,678.8771 " fill="none" id="ContiguousSubsequence-to-Date" style="stroke:#A80036;stroke-width:1.0;stroke-dasharray:7.0,7.0;"/><polygon fill="#A80036" points="554.165,683.8101,561.2791,676.9992,556.0611,679.1836,553.8767,673.9655,554.165,683.8101" style="stroke:#A80036;stroke-width:1.0;"/><text fill="#000000" font-family="sans-serif" font-size="13" lengthAdjust="spacing" textLength="8" x="574.1281" y="627.5161">1</text><text fill="#000000" font-family="sans-serif" font-size="13" lengthAdjust="spacing" textLength="7" x="550.0941" y="672.7592">*</text><!--MD5=[3e568339d27b517656ccf5a91fb0bb2d]
link ContiguousSubsequence to Test--><path codeLine="153" d="M859.589,602.2371 C865.784,603.8421 871.928,605.4171 878,606.9531 C970.723,630.4051 994.087,635.8461 1088,653.9531 C1169.79,669.7231 1191.95,664.7221 1273,683.9531 C1387.53,711.1281 1516.25,753.5121 1600.42,782.8901 " fill="none" id="ContiguousSubsequence-to-Test" style="stroke:#A80036;stroke-width:1.0;stroke-dasharray:7.0,7.0;"/><polygon fill="#A80036" points="1605.15,784.5421,1597.9832,777.7866,1600.4323,782.8858,1595.3331,785.3349,1605.15,784.5421" style="stroke:#A80036;stroke-width:1.0;"/><text fill="#000000" font-family="sans-serif" font-size="13" lengthAdjust="spacing" textLength="8" x="867.713" y="601.3591">1</text><text fill="#000000" font-family="sans-serif" font-size="13" lengthAdjust="spacing" textLength="7" x="1590.3855" y="778.1745">*</text><!--MD5=[379a9dd7544373b8d5079ae23eb5f02e]
link ContiguousSubsequence to LocalDateTime--><path codeLine="154" d="M765.65,607.1231 C877.645,662.6301 1026.01,736.1611 1113.51,779.5291 " fill="none" id="ContiguousSubsequence-to-LocalDateTime" style="stroke:#A80036;stroke-width:1.0;stroke-dasharray:7.0,7.0;"/><polygon fill="#A80036" points="1118.15,781.8281,1111.8541,774.2544,1113.6676,779.6127,1108.3093,781.4262,1118.15,781.8281" style="stroke:#A80036;stroke-width:1.0;"/><text fill="#000000" font-family="sans-serif" font-size="13" lengthAdjust="spacing" textLength="8" x="772.6702" y="627.6997">1</text><text fill="#000000" font-family="sans-serif" font-size="13" lengthAdjust="spacing" textLength="7" x="1103.6889" y="774.4949">*</text><!--MD5=[0a150091cf1ca4d422831de8b0d58090]
@startuml
title UC16 - Class Diagram

class AnalyseOverviewFXMLController

class AnalyseOverviewController {
 validateUser()
 calculatesInterval(beginningDate, endDate)
 getNumberClients()
 getTestsProcessed()
 showGraphic()
}

class StatisticsFXMLController {
 correctDates()
 validateDates(beginningDate, endDate)
 addDataBarChart(texts, listTestsNumber1, listTestsNumber2, listTestsNumber3)
}

class App {
    + getCompany()
    + getCurrentUserSession()
}

class UserSession {
    + isLoggedInWithRole(MEDICAL LAB TECHNICIAN)
}

class StatisticsController {
 getYearsDate(beginningDate, endDate)
 getMonthsDate(beginningDate, endDate)
 getWeeksDate(beginningDate, endDate)
 getDaysDate(beginningDate, endDate)
 getNumberTests(beginningDate, arraySize, interval, status)
}

class ContiguousSubsequence {
 subSequenceTimeInterval(beginningDate, endDate, listTests);
 elementsInSequence(beginningDate, endDate)
 checkInterval(beginningDate, endDate, testDate)
 generatesSubSequence(sequence)
 createSequence(beginningDate, endDate, listTests)
 getNumberRegisteredTests(controlBeginningDate, controlEndDate, listTests, state);
 findSequenceIndex(sequence, subSequence)
 calculateDated(sequence, index)
}

class Date {
   int year;
   int month;
   int day;
 getYear()
 getMonth()
 getDay()
 datesDay(beginningDate)
 datesWeek(beginningDate)
 datesYear(beginningDate)
 calculateDifference(beginningDate)
 plusDay(days)
 plusMonth(months)
 plusYear(years)
 datesMonth(beginningDate)
 compareTo(beginningDate)
 calculateDifferenceMonths(beginningDate)
 calculateDifferenceYears(beginningDate)
}

class LocalDateTime {
 plusMintutes(minutes)
 getYear()
 getMonth()
 getDayOfMonth()
}

class Company {
    string designation;
 getTestStore()
 getClientStore()
}

class TextInputControl {
 getText(dateText)
 setText(textDates)
}

class TestStore {
 getTests()
}

class ClientStore {
 getClients()
}

class Client {
    String citizenCardNumber;
    String numberNHS;
    String numberTIN;
    String birthDate;
    string sex;
    String phoneNumber;
    string name;
}

class Test {
 String code;
    String NHSCode;
    String description;
 checkTestState()
 getDateRegistration()
 getDateValidTest()
 getRealDateChemAnalysis()
 getRealDateSample()
 getRealDateDiagnosis()
}

class CalculateNumberTests {
 getNumberRegisteredTestsInterval(beginDate, tests, arraySize, interval, status)
 getNumberRegisteredTests(dateReference, listTests, interval, status)
 checkInterval(beginningDate, testDate, interval)
}

AnalyseOverviewFXMLController.-> AnalyseOverviewController 
AnalyseOverviewFXMLController.-> StatisticsFXMLController 
AnalyseOverviewFXMLController.-> Date
AnalyseOverviewFXMLController.-> TextInputControl 
StatisticsFXMLController .-> StatisticsController 
StatisticsFXMLController .-> TextInputControl

AnalyseOverviewController .-> Company
AnalyseOverviewController .-> TestStore
AnalyseOverviewController .-> App
AnalyseOverviewController .-> UserSession
AnalyseOverviewController .-> Test
AnalyseOverviewController .-> Cliente
AnalyseOverviewController .-> Date
AnalyseOverviewController .-> ClientStore
AnalyseOverviewController .-> ContiguousSubsequence 

StatisticsController .-> Company
StatisticsController .-> TestStore
StatisticsController .-> App
StatisticsController .-> UserSession
StatisticsController .-> Test
StatisticsController .-> CalculateNumberTests 

TestStore "1" - - "*" Test: contains >
ClientStore "1" - - "*" Client: contains >

CalculateNumberTests "1" .-> "*" Date
CalculateNumberTests "1" .-> "*" Test
CalculateNumberTests "1" .-> "*" LocalDateTime

ContiguousSubsequence "1" .-> "*" Date
ContiguousSubsequence "1" .-> "*" Test
ContiguousSubsequence "1" .-> "*" LocalDateTime
@enduml

PlantUML version 1.2021.7(Sun May 23 12:40:07 UTC 2021)
(GPL source distribution)
Java Runtime: Java(TM) SE Runtime Environment
JVM: Java HotSpot(TM) 64-Bit Server VM
Default Encoding: UTF-8
Language: en
Country: US
--></g></svg>