<?xml version="1.0" encoding="UTF-8" standalone="no"?><svg xmlns="http://www.w3.org/2000/svg" xmlns:xlink="http://www.w3.org/1999/xlink" contentScriptType="application/ecmascript" contentStyleType="text/css" height="1535px" preserveAspectRatio="none" style="width:1164px;height:1535px;background:#FFFFFF;" version="1.1" viewBox="0 0 1164 1535" width="1164px" zoomAndPan="magnify"><defs><filter height="300%" id="f1xwaorgld9y3s" width="300%" x="-1" y="-1"><feGaussianBlur result="blurOut" stdDeviation="2.0"/><feColorMatrix in="blurOut" result="blurOut2" type="matrix" values="0 0 0 0 0 0 0 0 0 0 0 0 0 0 0 0 0 0 .4 0"/><feOffset dx="4.0" dy="4.0" in="blurOut2" result="blurOut3"/><feBlend in="SourceGraphic" in2="blurOut3" mode="normal"/></filter></defs><g><text fill="#000000" font-family="sans-serif" font-size="18" lengthAdjust="spacing" textLength="201" x="475.3661" y="16.708">UC16 - Class Diagram</text><!--MD5=[02e4b9b7573f1156f41e60aa5b4e25a4]
class Company--><rect codeLine="3" fill="#FEFECE" filter="url(#f1xwaorgld9y3s)" height="60.8047" id="Company" style="stroke:#A80036;stroke-width:1.5;" width="116" x="466.2323" y="27.9531"/><ellipse cx="493.8323" cy="43.9531" fill="#ADD1B2" rx="11" ry="11" style="stroke:#A80036;stroke-width:1.0;"/><path d="M496.176,39.625 C495.2385,39.1875 494.6448,39.0469 493.7698,39.0469 C491.1448,39.0469 489.1448,41.125 489.1448,43.8438 L489.1448,44.9688 C489.1448,47.5469 491.2541,49.4375 494.1448,49.4375 C495.3635,49.4375 496.5198,49.1406 497.2698,48.5938 C497.8479,48.1875 498.176,47.7344 498.176,47.3438 C498.176,46.8906 497.7854,46.5 497.3166,46.5 C497.0979,46.5 496.8948,46.5781 496.7073,46.7656 C496.2541,47.25 496.2541,47.25 496.0666,47.3438 C495.6448,47.6094 494.9573,47.7344 494.1916,47.7344 C492.1448,47.7344 490.8479,46.6406 490.8479,44.9375 L490.8479,43.8438 C490.8479,42.0625 492.0979,40.75 493.8323,40.75 C494.4104,40.75 495.0198,40.9063 495.4885,41.1563 C495.9729,41.4375 496.1448,41.6563 496.2385,42.0625 C496.301,42.4688 496.3323,42.5938 496.4729,42.7188 C496.6135,42.8594 496.8479,42.9688 497.0666,42.9688 C497.3323,42.9688 497.5979,42.8281 497.7698,42.6094 C497.8791,42.4531 497.9104,42.2656 497.9104,41.8438 L497.9104,40.4219 C497.9104,39.9844 497.8948,39.8594 497.801,39.7031 C497.6448,39.4375 497.3635,39.2969 497.0666,39.2969 C496.7698,39.2969 496.5666,39.3906 496.3479,39.7031 L496.176,39.625 Z " fill="#000000"/><text fill="#000000" font-family="sans-serif" font-size="12" lengthAdjust="spacing" textLength="56" x="510.6323" y="48.1074">Company</text><line style="stroke:#A80036;stroke-width:1.5;" x1="467.2323" x2="581.2323" y1="59.9531" y2="59.9531"/><text fill="#000000" font-family="sans-serif" font-size="11" lengthAdjust="spacing" textLength="104" x="472.2323" y="74.1636">string designation;</text><line style="stroke:#A80036;stroke-width:1.5;" x1="467.2323" x2="581.2323" y1="80.7578" y2="80.7578"/><!--MD5=[7421f545a0d8420c5bec41e74b387d9c]
class Employee--><rect codeLine="7" fill="#FEFECE" filter="url(#f1xwaorgld9y3s)" height="112.0234" id="Employee" style="stroke:#A80036;stroke-width:1.5;" width="133" x="370.7323" y="165.9531"/><ellipse cx="404.1823" cy="181.9531" fill="#ADD1B2" rx="11" ry="11" style="stroke:#A80036;stroke-width:1.0;"/><path d="M406.526,177.625 C405.5885,177.1875 404.9948,177.0469 404.1198,177.0469 C401.4948,177.0469 399.4948,179.125 399.4948,181.8438 L399.4948,182.9688 C399.4948,185.5469 401.6041,187.4375 404.4948,187.4375 C405.7135,187.4375 406.8698,187.1406 407.6198,186.5938 C408.1979,186.1875 408.526,185.7344 408.526,185.3438 C408.526,184.8906 408.1354,184.5 407.6666,184.5 C407.4479,184.5 407.2448,184.5781 407.0573,184.7656 C406.6041,185.25 406.6041,185.25 406.4166,185.3438 C405.9948,185.6094 405.3073,185.7344 404.5416,185.7344 C402.4948,185.7344 401.1979,184.6406 401.1979,182.9375 L401.1979,181.8438 C401.1979,180.0625 402.4479,178.75 404.1823,178.75 C404.7604,178.75 405.3698,178.9063 405.8385,179.1563 C406.3229,179.4375 406.4948,179.6563 406.5885,180.0625 C406.651,180.4688 406.6823,180.5938 406.8229,180.7188 C406.9635,180.8594 407.1979,180.9688 407.4166,180.9688 C407.6823,180.9688 407.9479,180.8281 408.1198,180.6094 C408.2291,180.4531 408.2604,180.2656 408.2604,179.8438 L408.2604,178.4219 C408.2604,177.9844 408.2448,177.8594 408.151,177.7031 C407.9948,177.4375 407.7135,177.2969 407.4166,177.2969 C407.1198,177.2969 406.9166,177.3906 406.6979,177.7031 L406.526,177.625 Z " fill="#000000"/><text fill="#000000" font-family="sans-serif" font-size="12" lengthAdjust="spacing" textLength="60" x="422.2823" y="186.1074">Employee</text><line style="stroke:#A80036;stroke-width:1.5;" x1="371.7323" x2="502.7323" y1="197.9531" y2="197.9531"/><text fill="#000000" font-family="sans-serif" font-size="11" lengthAdjust="spacing" textLength="111" x="376.7323" y="212.1636">String employeeID;</text><text fill="#000000" font-family="sans-serif" font-size="11" lengthAdjust="spacing" textLength="73" x="376.7323" y="224.9683">String name;</text><text fill="#000000" font-family="sans-serif" font-size="11" lengthAdjust="spacing" textLength="85" x="376.7323" y="237.7729">String address;</text><text fill="#000000" font-family="sans-serif" font-size="11" lengthAdjust="spacing" textLength="121" x="376.7323" y="250.5776">String phoneNumber;</text><text fill="#000000" font-family="sans-serif" font-size="11" lengthAdjust="spacing" textLength="93" x="376.7323" y="263.3823">String codeSOC;</text><line style="stroke:#A80036;stroke-width:1.5;" x1="371.7323" x2="502.7323" y1="269.9766" y2="269.9766"/><!--MD5=[052425de1c0eb6cc1c1b48342b0bb88f]
class LaboratoryCoordinator--><rect codeLine="15" fill="#FEFECE" filter="url(#f1xwaorgld9y3s)" height="48" id="LaboratoryCoordinator" style="stroke:#A80036;stroke-width:1.5;" width="168" x="353.2323" y="361.4531"/><ellipse cx="368.2323" cy="377.4531" fill="#ADD1B2" rx="11" ry="11" style="stroke:#A80036;stroke-width:1.0;"/><path d="M370.576,373.125 C369.6385,372.6875 369.0448,372.5469 368.1698,372.5469 C365.5448,372.5469 363.5448,374.625 363.5448,377.3438 L363.5448,378.4688 C363.5448,381.0469 365.6541,382.9375 368.5448,382.9375 C369.7635,382.9375 370.9198,382.6406 371.6698,382.0938 C372.2479,381.6875 372.576,381.2344 372.576,380.8438 C372.576,380.3906 372.1854,380 371.7166,380 C371.4979,380 371.2948,380.0781 371.1073,380.2656 C370.6541,380.75 370.6541,380.75 370.4666,380.8438 C370.0448,381.1094 369.3573,381.2344 368.5916,381.2344 C366.5448,381.2344 365.2479,380.1406 365.2479,378.4375 L365.2479,377.3438 C365.2479,375.5625 366.4979,374.25 368.2323,374.25 C368.8104,374.25 369.4198,374.4063 369.8885,374.6563 C370.3729,374.9375 370.5448,375.1563 370.6385,375.5625 C370.701,375.9688 370.7323,376.0938 370.8729,376.2188 C371.0135,376.3594 371.2479,376.4688 371.4666,376.4688 C371.7323,376.4688 371.9979,376.3281 372.1698,376.1094 C372.2791,375.9531 372.3104,375.7656 372.3104,375.3438 L372.3104,373.9219 C372.3104,373.4844 372.2948,373.3594 372.201,373.2031 C372.0448,372.9375 371.7635,372.7969 371.4666,372.7969 C371.1698,372.7969 370.9666,372.8906 370.7479,373.2031 L370.576,373.125 Z " fill="#000000"/><text fill="#000000" font-family="sans-serif" font-size="12" lengthAdjust="spacing" textLength="136" x="382.2323" y="381.6074">LaboratoryCoordinator</text><line style="stroke:#A80036;stroke-width:1.5;" x1="354.2323" x2="520.2323" y1="393.4531" y2="393.4531"/><line style="stroke:#A80036;stroke-width:1.5;" x1="354.2323" x2="520.2323" y1="401.4531" y2="401.4531"/><!--MD5=[3fd616f346a44cd59a91eb10b19e157c]
class User--><rect codeLine="17" fill="#FEFECE" filter="url(#f1xwaorgld9y3s)" height="60.8047" id="User" style="stroke:#A80036;stroke-width:1.5;" width="85" x="232.7323" y="354.9531"/><ellipse cx="258.5323" cy="370.9531" fill="#ADD1B2" rx="11" ry="11" style="stroke:#A80036;stroke-width:1.0;"/><path d="M260.876,366.625 C259.9385,366.1875 259.3448,366.0469 258.4698,366.0469 C255.8448,366.0469 253.8448,368.125 253.8448,370.8438 L253.8448,371.9688 C253.8448,374.5469 255.9541,376.4375 258.8448,376.4375 C260.0635,376.4375 261.2198,376.1406 261.9698,375.5938 C262.5479,375.1875 262.876,374.7344 262.876,374.3438 C262.876,373.8906 262.4854,373.5 262.0166,373.5 C261.7979,373.5 261.5948,373.5781 261.4073,373.7656 C260.9541,374.25 260.9541,374.25 260.7666,374.3438 C260.3448,374.6094 259.6573,374.7344 258.8916,374.7344 C256.8448,374.7344 255.5479,373.6406 255.5479,371.9375 L255.5479,370.8438 C255.5479,369.0625 256.7979,367.75 258.5323,367.75 C259.1104,367.75 259.7198,367.9063 260.1885,368.1563 C260.6729,368.4375 260.8448,368.6563 260.9385,369.0625 C261.001,369.4688 261.0323,369.5938 261.1729,369.7188 C261.3135,369.8594 261.5479,369.9688 261.7666,369.9688 C262.0323,369.9688 262.2979,369.8281 262.4698,369.6094 C262.5791,369.4531 262.6104,369.2656 262.6104,368.8438 L262.6104,367.4219 C262.6104,366.9844 262.5948,366.8594 262.501,366.7031 C262.3448,366.4375 262.0635,366.2969 261.7666,366.2969 C261.4698,366.2969 261.2666,366.3906 261.0479,366.7031 L260.876,366.625 Z " fill="#000000"/><text fill="#000000" font-family="sans-serif" font-size="12" lengthAdjust="spacing" textLength="29" x="274.9323" y="375.1074">User</text><line style="stroke:#A80036;stroke-width:1.5;" x1="233.7323" x2="316.7323" y1="386.9531" y2="386.9531"/><text fill="#000000" font-family="sans-serif" font-size="11" lengthAdjust="spacing" textLength="73" x="238.7323" y="401.1636">String name;</text><line style="stroke:#A80036;stroke-width:1.5;" x1="233.7323" x2="316.7323" y1="407.7578" y2="407.7578"/><!--MD5=[df38be88ccee13e832d6fafd6288a4ca]
class Test--><rect codeLine="21" fill="#FEFECE" filter="url(#f1xwaorgld9y3s)" height="86.4141" id="Test" style="stroke:#A80036;stroke-width:1.5;" width="114" x="527.2323" y="845.9531"/><ellipse cx="567.4323" cy="861.9531" fill="#ADD1B2" rx="11" ry="11" style="stroke:#A80036;stroke-width:1.0;"/><path d="M569.776,857.625 C568.8385,857.1875 568.2448,857.0469 567.3698,857.0469 C564.7448,857.0469 562.7448,859.125 562.7448,861.8438 L562.7448,862.9688 C562.7448,865.5469 564.8541,867.4375 567.7448,867.4375 C568.9635,867.4375 570.1198,867.1406 570.8698,866.5938 C571.4479,866.1875 571.776,865.7344 571.776,865.3438 C571.776,864.8906 571.3854,864.5 570.9166,864.5 C570.6979,864.5 570.4948,864.5781 570.3073,864.7656 C569.8541,865.25 569.8541,865.25 569.6666,865.3438 C569.2448,865.6094 568.5573,865.7344 567.7916,865.7344 C565.7448,865.7344 564.4479,864.6406 564.4479,862.9375 L564.4479,861.8438 C564.4479,860.0625 565.6979,858.75 567.4323,858.75 C568.0104,858.75 568.6198,858.9063 569.0885,859.1563 C569.5729,859.4375 569.7448,859.6563 569.8385,860.0625 C569.901,860.4688 569.9323,860.5938 570.0729,860.7188 C570.2135,860.8594 570.4479,860.9688 570.6666,860.9688 C570.9323,860.9688 571.1979,860.8281 571.3698,860.6094 C571.4791,860.4531 571.5104,860.2656 571.5104,859.8438 L571.5104,858.4219 C571.5104,857.9844 571.4948,857.8594 571.401,857.7031 C571.2448,857.4375 570.9635,857.2969 570.6666,857.2969 C570.3698,857.2969 570.1666,857.3906 569.9479,857.7031 L569.776,857.625 Z " fill="#000000"/><text fill="#000000" font-family="sans-serif" font-size="12" lengthAdjust="spacing" textLength="26" x="587.0323" y="866.1074">Test</text><line style="stroke:#A80036;stroke-width:1.5;" x1="528.2323" x2="640.2323" y1="877.9531" y2="877.9531"/><text fill="#000000" font-family="sans-serif" font-size="11" lengthAdjust="spacing" textLength="68" x="533.2323" y="892.1636">String code;</text><text fill="#000000" font-family="sans-serif" font-size="11" lengthAdjust="spacing" textLength="94" x="533.2323" y="904.9683">String NHSCode;</text><text fill="#000000" font-family="sans-serif" font-size="11" lengthAdjust="spacing" textLength="102" x="533.2323" y="917.7729">String description;</text><line style="stroke:#A80036;stroke-width:1.5;" x1="528.2323" x2="640.2323" y1="924.3672" y2="924.3672"/><!--MD5=[7829b64950ce38e0487c4015ea331f97]
class Date--><rect codeLine="27" fill="#FEFECE" filter="url(#f1xwaorgld9y3s)" height="86.4141" id="Date" style="stroke:#A80036;stroke-width:1.5;" width="69" x="218.7323" y="1008.9531"/><ellipse cx="237.7823" cy="1024.9531" fill="#ADD1B2" rx="11" ry="11" style="stroke:#A80036;stroke-width:1.0;"/><path d="M240.126,1020.625 C239.1885,1020.1875 238.5948,1020.0469 237.7198,1020.0469 C235.0948,1020.0469 233.0948,1022.125 233.0948,1024.8438 L233.0948,1025.9688 C233.0948,1028.5469 235.2041,1030.4375 238.0948,1030.4375 C239.3135,1030.4375 240.4698,1030.1406 241.2198,1029.5938 C241.7979,1029.1875 242.126,1028.7344 242.126,1028.3438 C242.126,1027.8906 241.7354,1027.5 241.2666,1027.5 C241.0479,1027.5 240.8448,1027.5781 240.6573,1027.7656 C240.2041,1028.25 240.2041,1028.25 240.0166,1028.3438 C239.5948,1028.6094 238.9073,1028.7344 238.1416,1028.7344 C236.0948,1028.7344 234.7979,1027.6406 234.7979,1025.9375 L234.7979,1024.8438 C234.7979,1023.0625 236.0479,1021.75 237.7823,1021.75 C238.3604,1021.75 238.9698,1021.9063 239.4385,1022.1563 C239.9229,1022.4375 240.0948,1022.6563 240.1885,1023.0625 C240.251,1023.4688 240.2823,1023.5938 240.4229,1023.7188 C240.5635,1023.8594 240.7979,1023.9688 241.0166,1023.9688 C241.2823,1023.9688 241.5479,1023.8281 241.7198,1023.6094 C241.8291,1023.4531 241.8604,1023.2656 241.8604,1022.8438 L241.8604,1021.4219 C241.8604,1020.9844 241.8448,1020.8594 241.751,1020.7031 C241.5948,1020.4375 241.3135,1020.2969 241.0166,1020.2969 C240.7198,1020.2969 240.5166,1020.3906 240.2979,1020.7031 L240.126,1020.625 Z " fill="#000000"/><text fill="#000000" font-family="sans-serif" font-size="12" lengthAdjust="spacing" textLength="28" x="252.6823" y="1029.1074">Date</text><line style="stroke:#A80036;stroke-width:1.5;" x1="219.7323" x2="286.7323" y1="1040.9531" y2="1040.9531"/><text fill="#000000" font-family="sans-serif" font-size="11" lengthAdjust="spacing" textLength="47" x="224.7323" y="1055.1636">int year;</text><text fill="#000000" font-family="sans-serif" font-size="11" lengthAdjust="spacing" textLength="57" x="224.7323" y="1067.9683">int month;</text><text fill="#000000" font-family="sans-serif" font-size="11" lengthAdjust="spacing" textLength="42" x="224.7323" y="1080.7729">int day;</text><line style="stroke:#A80036;stroke-width:1.5;" x1="219.7323" x2="286.7323" y1="1087.3672" y2="1087.3672"/><!--MD5=[2e42295458bb0bec21c9622a623eb29e]
class Time--><rect codeLine="33" fill="#FEFECE" filter="url(#f1xwaorgld9y3s)" height="86.4141" id="Time" style="stroke:#A80036;stroke-width:1.5;" width="80" x="544.2323" y="1008.9531"/><ellipse cx="567.7823" cy="1024.9531" fill="#ADD1B2" rx="11" ry="11" style="stroke:#A80036;stroke-width:1.0;"/><path d="M570.126,1020.625 C569.1885,1020.1875 568.5948,1020.0469 567.7198,1020.0469 C565.0948,1020.0469 563.0948,1022.125 563.0948,1024.8438 L563.0948,1025.9688 C563.0948,1028.5469 565.2041,1030.4375 568.0948,1030.4375 C569.3135,1030.4375 570.4698,1030.1406 571.2198,1029.5938 C571.7979,1029.1875 572.126,1028.7344 572.126,1028.3438 C572.126,1027.8906 571.7354,1027.5 571.2666,1027.5 C571.0479,1027.5 570.8448,1027.5781 570.6573,1027.7656 C570.2041,1028.25 570.2041,1028.25 570.0166,1028.3438 C569.5948,1028.6094 568.9073,1028.7344 568.1416,1028.7344 C566.0948,1028.7344 564.7979,1027.6406 564.7979,1025.9375 L564.7979,1024.8438 C564.7979,1023.0625 566.0479,1021.75 567.7823,1021.75 C568.3604,1021.75 568.9698,1021.9063 569.4385,1022.1563 C569.9229,1022.4375 570.0948,1022.6563 570.1885,1023.0625 C570.251,1023.4688 570.2823,1023.5938 570.4229,1023.7188 C570.5635,1023.8594 570.7979,1023.9688 571.0166,1023.9688 C571.2823,1023.9688 571.5479,1023.8281 571.7198,1023.6094 C571.8291,1023.4531 571.8604,1023.2656 571.8604,1022.8438 L571.8604,1021.4219 C571.8604,1020.9844 571.8448,1020.8594 571.751,1020.7031 C571.5948,1020.4375 571.3135,1020.2969 571.0166,1020.2969 C570.7198,1020.2969 570.5166,1020.3906 570.2979,1020.7031 L570.126,1020.625 Z " fill="#000000"/><text fill="#000000" font-family="sans-serif" font-size="12" lengthAdjust="spacing" textLength="29" x="583.6823" y="1029.1074">Time</text><line style="stroke:#A80036;stroke-width:1.5;" x1="545.2323" x2="623.2323" y1="1040.9531" y2="1040.9531"/><text fill="#000000" font-family="sans-serif" font-size="11" lengthAdjust="spacing" textLength="52" x="550.2323" y="1055.1636">int hours;</text><text fill="#000000" font-family="sans-serif" font-size="11" lengthAdjust="spacing" textLength="67" x="550.2323" y="1067.9683">int minutes;</text><text fill="#000000" font-family="sans-serif" font-size="11" lengthAdjust="spacing" textLength="68" x="550.2323" y="1080.7729">int seconds;</text><line style="stroke:#A80036;stroke-width:1.5;" x1="545.2323" x2="623.2323" y1="1087.3672" y2="1087.3672"/><!--MD5=[ed6624c6556d5e7b1bd23032162d20b7]
class Client--><rect codeLine="39" fill="#FEFECE" filter="url(#f1xwaorgld9y3s)" height="137.6328" id="Client" style="stroke:#A80036;stroke-width:1.5;" width="161" x="573.7323" y="630.9531"/><ellipse cx="633.4823" cy="646.9531" fill="#ADD1B2" rx="11" ry="11" style="stroke:#A80036;stroke-width:1.0;"/><path d="M635.826,642.625 C634.8885,642.1875 634.2948,642.0469 633.4198,642.0469 C630.7948,642.0469 628.7948,644.125 628.7948,646.8438 L628.7948,647.9688 C628.7948,650.5469 630.9041,652.4375 633.7948,652.4375 C635.0135,652.4375 636.1698,652.1406 636.9198,651.5938 C637.4979,651.1875 637.826,650.7344 637.826,650.3438 C637.826,649.8906 637.4354,649.5 636.9666,649.5 C636.7479,649.5 636.5448,649.5781 636.3573,649.7656 C635.9041,650.25 635.9041,650.25 635.7166,650.3438 C635.2948,650.6094 634.6073,650.7344 633.8416,650.7344 C631.7948,650.7344 630.4979,649.6406 630.4979,647.9375 L630.4979,646.8438 C630.4979,645.0625 631.7479,643.75 633.4823,643.75 C634.0604,643.75 634.6698,643.9063 635.1385,644.1563 C635.6229,644.4375 635.7948,644.6563 635.8885,645.0625 C635.951,645.4688 635.9823,645.5938 636.1229,645.7188 C636.2635,645.8594 636.4979,645.9688 636.7166,645.9688 C636.9823,645.9688 637.2479,645.8281 637.4198,645.6094 C637.5291,645.4531 637.5604,645.2656 637.5604,644.8438 L637.5604,643.4219 C637.5604,642.9844 637.5448,642.8594 637.451,642.7031 C637.2948,642.4375 637.0135,642.2969 636.7166,642.2969 C636.4198,642.2969 636.2166,642.3906 635.9979,642.7031 L635.826,642.625 Z " fill="#000000"/><text fill="#000000" font-family="sans-serif" font-size="12" lengthAdjust="spacing" textLength="33" x="653.9823" y="651.1074">Client</text><line style="stroke:#A80036;stroke-width:1.5;" x1="574.7323" x2="733.7323" y1="662.9531" y2="662.9531"/><text fill="#000000" font-family="sans-serif" font-size="11" lengthAdjust="spacing" textLength="149" x="579.7323" y="677.1636">String citizenCardNumber;</text><text fill="#000000" font-family="sans-serif" font-size="11" lengthAdjust="spacing" textLength="108" x="579.7323" y="689.9683">String numberNHS;</text><text fill="#000000" font-family="sans-serif" font-size="11" lengthAdjust="spacing" textLength="102" x="579.7323" y="702.7729">String numberTIN;</text><text fill="#000000" font-family="sans-serif" font-size="11" lengthAdjust="spacing" textLength="93" x="579.7323" y="715.5776">String birthDate;</text><text fill="#000000" font-family="sans-serif" font-size="11" lengthAdjust="spacing" textLength="59" x="579.7323" y="728.3823">string sex;</text><text fill="#000000" font-family="sans-serif" font-size="11" lengthAdjust="spacing" textLength="121" x="579.7323" y="741.187">String phoneNumber;</text><text fill="#000000" font-family="sans-serif" font-size="11" lengthAdjust="spacing" textLength="71" x="579.7323" y="753.9917">string name;</text><line style="stroke:#A80036;stroke-width:1.5;" x1="574.7323" x2="733.7323" y1="760.5859" y2="760.5859"/><!--MD5=[4e608140b854dae633589343bce77383]
class TestParameterResult--><rect codeLine="49" fill="#FEFECE" filter="url(#f1xwaorgld9y3s)" height="86.4141" id="TestParameterResult" style="stroke:#A80036;stroke-width:1.5;" width="155" x="506.7323" y="1434.9531"/><ellipse cx="521.7323" cy="1450.9531" fill="#ADD1B2" rx="11" ry="11" style="stroke:#A80036;stroke-width:1.0;"/><path d="M524.076,1446.625 C523.1385,1446.1875 522.5448,1446.0469 521.6698,1446.0469 C519.0448,1446.0469 517.0448,1448.125 517.0448,1450.8438 L517.0448,1451.9688 C517.0448,1454.5469 519.1541,1456.4375 522.0448,1456.4375 C523.2635,1456.4375 524.4198,1456.1406 525.1698,1455.5938 C525.7479,1455.1875 526.076,1454.7344 526.076,1454.3438 C526.076,1453.8906 525.6854,1453.5 525.2166,1453.5 C524.9979,1453.5 524.7948,1453.5781 524.6073,1453.7656 C524.1541,1454.25 524.1541,1454.25 523.9666,1454.3438 C523.5448,1454.6094 522.8573,1454.7344 522.0916,1454.7344 C520.0448,1454.7344 518.7479,1453.6406 518.7479,1451.9375 L518.7479,1450.8438 C518.7479,1449.0625 519.9979,1447.75 521.7323,1447.75 C522.3104,1447.75 522.9198,1447.9063 523.3885,1448.1563 C523.8729,1448.4375 524.0448,1448.6563 524.1385,1449.0625 C524.201,1449.4688 524.2323,1449.5938 524.3729,1449.7188 C524.5135,1449.8594 524.7479,1449.9688 524.9666,1449.9688 C525.2323,1449.9688 525.4979,1449.8281 525.6698,1449.6094 C525.7791,1449.4531 525.8104,1449.2656 525.8104,1448.8438 L525.8104,1447.4219 C525.8104,1446.9844 525.7948,1446.8594 525.701,1446.7031 C525.5448,1446.4375 525.2635,1446.2969 524.9666,1446.2969 C524.6698,1446.2969 524.4666,1446.3906 524.2479,1446.7031 L524.076,1446.625 Z " fill="#000000"/><text fill="#000000" font-family="sans-serif" font-size="12" lengthAdjust="spacing" textLength="123" x="535.7323" y="1455.1074">TestParameterResult</text><line style="stroke:#A80036;stroke-width:1.5;" x1="507.7323" x2="660.7323" y1="1466.9531" y2="1466.9531"/><text fill="#000000" font-family="sans-serif" font-size="11" lengthAdjust="spacing" textLength="72" x="512.7323" y="1481.1636">String value;</text><text fill="#000000" font-family="sans-serif" font-size="11" lengthAdjust="spacing" textLength="76" x="512.7323" y="1493.9683">String metric;</text><text fill="#000000" font-family="sans-serif" font-size="11" lengthAdjust="spacing" textLength="91" x="512.7323" y="1506.7729">Date createdAt;</text><line style="stroke:#A80036;stroke-width:1.5;" x1="507.7323" x2="660.7323" y1="1513.3672" y2="1513.3672"/><!--MD5=[f00dbe8c0302c6aec2cb26b3c659c8fc]
class Report--><rect codeLine="55" fill="#FEFECE" filter="url(#f1xwaorgld9y3s)" height="60.8047" id="Report" style="stroke:#A80036;stroke-width:1.5;" width="75" x="141.7323" y="492.9531"/><ellipse cx="158.0823" cy="508.9531" fill="#ADD1B2" rx="11" ry="11" style="stroke:#A80036;stroke-width:1.0;"/><path d="M160.426,504.625 C159.4885,504.1875 158.8948,504.0469 158.0198,504.0469 C155.3948,504.0469 153.3948,506.125 153.3948,508.8438 L153.3948,509.9688 C153.3948,512.5469 155.5041,514.4375 158.3948,514.4375 C159.6135,514.4375 160.7698,514.1406 161.5198,513.5938 C162.0979,513.1875 162.426,512.7344 162.426,512.3438 C162.426,511.8906 162.0354,511.5 161.5666,511.5 C161.3479,511.5 161.1448,511.5781 160.9573,511.7656 C160.5041,512.25 160.5041,512.25 160.3166,512.3438 C159.8948,512.6094 159.2073,512.7344 158.4416,512.7344 C156.3948,512.7344 155.0979,511.6406 155.0979,509.9375 L155.0979,508.8438 C155.0979,507.0625 156.3479,505.75 158.0823,505.75 C158.6604,505.75 159.2698,505.9063 159.7385,506.1563 C160.2229,506.4375 160.3948,506.6563 160.4885,507.0625 C160.551,507.4688 160.5823,507.5938 160.7229,507.7188 C160.8635,507.8594 161.0979,507.9688 161.3166,507.9688 C161.5823,507.9688 161.8479,507.8281 162.0198,507.6094 C162.1291,507.4531 162.1604,507.2656 162.1604,506.8438 L162.1604,505.4219 C162.1604,504.9844 162.1448,504.8594 162.051,504.7031 C161.8948,504.4375 161.6135,504.2969 161.3166,504.2969 C161.0198,504.2969 160.8166,504.3906 160.5979,504.7031 L160.426,504.625 Z " fill="#000000"/><text fill="#000000" font-family="sans-serif" font-size="12" lengthAdjust="spacing" textLength="40" x="172.3823" y="513.1074">Report</text><line style="stroke:#A80036;stroke-width:1.5;" x1="142.7323" x2="215.7323" y1="524.9531" y2="524.9531"/><text fill="#000000" font-family="sans-serif" font-size="11" lengthAdjust="spacing" textLength="63" x="147.7323" y="539.1636">String text;</text><line style="stroke:#A80036;stroke-width:1.5;" x1="142.7323" x2="215.7323" y1="545.7578" y2="545.7578"/><!--MD5=[10d06bcee75aaf74ab8f6040820ceef2]
class Diagnosis--><rect codeLine="58" fill="#FEFECE" filter="url(#f1xwaorgld9y3s)" height="60.8047" id="Diagnosis" style="stroke:#A80036;stroke-width:1.5;" width="115" x="232.7323" y="1171.9531"/><ellipse cx="258.5323" cy="1187.9531" fill="#ADD1B2" rx="11" ry="11" style="stroke:#A80036;stroke-width:1.0;"/><path d="M260.876,1183.625 C259.9385,1183.1875 259.3448,1183.0469 258.4698,1183.0469 C255.8448,1183.0469 253.8448,1185.125 253.8448,1187.8438 L253.8448,1188.9688 C253.8448,1191.5469 255.9541,1193.4375 258.8448,1193.4375 C260.0635,1193.4375 261.2198,1193.1406 261.9698,1192.5938 C262.5479,1192.1875 262.876,1191.7344 262.876,1191.3438 C262.876,1190.8906 262.4854,1190.5 262.0166,1190.5 C261.7979,1190.5 261.5948,1190.5781 261.4073,1190.7656 C260.9541,1191.25 260.9541,1191.25 260.7666,1191.3438 C260.3448,1191.6094 259.6573,1191.7344 258.8916,1191.7344 C256.8448,1191.7344 255.5479,1190.6406 255.5479,1188.9375 L255.5479,1187.8438 C255.5479,1186.0625 256.7979,1184.75 258.5323,1184.75 C259.1104,1184.75 259.7198,1184.9063 260.1885,1185.1563 C260.6729,1185.4375 260.8448,1185.6563 260.9385,1186.0625 C261.001,1186.4688 261.0323,1186.5938 261.1729,1186.7188 C261.3135,1186.8594 261.5479,1186.9688 261.7666,1186.9688 C262.0323,1186.9688 262.2979,1186.8281 262.4698,1186.6094 C262.5791,1186.4531 262.6104,1186.2656 262.6104,1185.8438 L262.6104,1184.4219 C262.6104,1183.9844 262.5948,1183.8594 262.501,1183.7031 C262.3448,1183.4375 262.0635,1183.2969 261.7666,1183.2969 C261.4698,1183.2969 261.2666,1183.3906 261.0479,1183.7031 L260.876,1183.625 Z " fill="#000000"/><text fill="#000000" font-family="sans-serif" font-size="12" lengthAdjust="spacing" textLength="59" x="274.9323" y="1192.1074">Diagnosis</text><line style="stroke:#A80036;stroke-width:1.5;" x1="233.7323" x2="346.7323" y1="1203.9531" y2="1203.9531"/><text fill="#000000" font-family="sans-serif" font-size="11" lengthAdjust="spacing" textLength="103" x="238.7323" y="1218.1636">String testResults;</text><line style="stroke:#A80036;stroke-width:1.5;" x1="233.7323" x2="346.7323" y1="1224.7578" y2="1224.7578"/><!--MD5=[ced94f7cdcbb8a57022a623199f6da4c]
class Validation--><rect codeLine="62" fill="#FEFECE" filter="url(#f1xwaorgld9y3s)" height="48" id="Validation" style="stroke:#A80036;stroke-width:1.5;" width="90" x="637.2323" y="1178.4531"/><ellipse cx="652.2323" cy="1194.4531" fill="#ADD1B2" rx="11" ry="11" style="stroke:#A80036;stroke-width:1.0;"/><path d="M654.576,1190.125 C653.6385,1189.6875 653.0448,1189.5469 652.1698,1189.5469 C649.5448,1189.5469 647.5448,1191.625 647.5448,1194.3438 L647.5448,1195.4688 C647.5448,1198.0469 649.6541,1199.9375 652.5448,1199.9375 C653.7635,1199.9375 654.9198,1199.6406 655.6698,1199.0938 C656.2479,1198.6875 656.576,1198.2344 656.576,1197.8438 C656.576,1197.3906 656.1854,1197 655.7166,1197 C655.4979,1197 655.2948,1197.0781 655.1073,1197.2656 C654.6541,1197.75 654.6541,1197.75 654.4666,1197.8438 C654.0448,1198.1094 653.3573,1198.2344 652.5916,1198.2344 C650.5448,1198.2344 649.2479,1197.1406 649.2479,1195.4375 L649.2479,1194.3438 C649.2479,1192.5625 650.4979,1191.25 652.2323,1191.25 C652.8104,1191.25 653.4198,1191.4063 653.8885,1191.6563 C654.3729,1191.9375 654.5448,1192.1563 654.6385,1192.5625 C654.701,1192.9688 654.7323,1193.0938 654.8729,1193.2188 C655.0135,1193.3594 655.2479,1193.4688 655.4666,1193.4688 C655.7323,1193.4688 655.9979,1193.3281 656.1698,1193.1094 C656.2791,1192.9531 656.3104,1192.7656 656.3104,1192.3438 L656.3104,1190.9219 C656.3104,1190.4844 656.2948,1190.3594 656.201,1190.2031 C656.0448,1189.9375 655.7635,1189.7969 655.4666,1189.7969 C655.1698,1189.7969 654.9666,1189.8906 654.7479,1190.2031 L654.576,1190.125 Z " fill="#000000"/><text fill="#000000" font-family="sans-serif" font-size="12" lengthAdjust="spacing" textLength="58" x="666.2323" y="1198.6074">Validation</text><line style="stroke:#A80036;stroke-width:1.5;" x1="638.2323" x2="726.2323" y1="1210.4531" y2="1210.4531"/><line style="stroke:#A80036;stroke-width:1.5;" x1="638.2323" x2="726.2323" y1="1218.4531" y2="1218.4531"/><!--MD5=[8900b8126f988052b90f9f1b0582e804]
class Algorithm--><rect codeLine="64" fill="#FEFECE" filter="url(#f1xwaorgld9y3s)" height="48" id="Algorithm" style="stroke:#A80036;stroke-width:1.5;" width="89" x="769.7323" y="675.9531"/><ellipse cx="784.7323" cy="691.9531" fill="#ADD1B2" rx="11" ry="11" style="stroke:#A80036;stroke-width:1.0;"/><path d="M787.076,687.625 C786.1385,687.1875 785.5448,687.0469 784.6698,687.0469 C782.0448,687.0469 780.0448,689.125 780.0448,691.8438 L780.0448,692.9688 C780.0448,695.5469 782.1541,697.4375 785.0448,697.4375 C786.2635,697.4375 787.4198,697.1406 788.1698,696.5938 C788.7479,696.1875 789.076,695.7344 789.076,695.3438 C789.076,694.8906 788.6854,694.5 788.2166,694.5 C787.9979,694.5 787.7948,694.5781 787.6073,694.7656 C787.1541,695.25 787.1541,695.25 786.9666,695.3438 C786.5448,695.6094 785.8573,695.7344 785.0916,695.7344 C783.0448,695.7344 781.7479,694.6406 781.7479,692.9375 L781.7479,691.8438 C781.7479,690.0625 782.9979,688.75 784.7323,688.75 C785.3104,688.75 785.9198,688.9063 786.3885,689.1563 C786.8729,689.4375 787.0448,689.6563 787.1385,690.0625 C787.201,690.4688 787.2323,690.5938 787.3729,690.7188 C787.5135,690.8594 787.7479,690.9688 787.9666,690.9688 C788.2323,690.9688 788.4979,690.8281 788.6698,690.6094 C788.7791,690.4531 788.8104,690.2656 788.8104,689.8438 L788.8104,688.4219 C788.8104,687.9844 788.7948,687.8594 788.701,687.7031 C788.5448,687.4375 788.2635,687.2969 787.9666,687.2969 C787.6698,687.2969 787.4666,687.3906 787.2479,687.7031 L787.076,687.625 Z " fill="#000000"/><text fill="#000000" font-family="sans-serif" font-size="12" lengthAdjust="spacing" textLength="57" x="798.7323" y="696.1074">Algorithm</text><line style="stroke:#A80036;stroke-width:1.5;" x1="770.7323" x2="857.7323" y1="707.9531" y2="707.9531"/><line style="stroke:#A80036;stroke-width:1.5;" x1="770.7323" x2="857.7323" y1="715.9531" y2="715.9531"/><!--MD5=[0f07739f46effee96e095e9c408da841]
class TestParameter--><rect codeLine="66" fill="#FEFECE" filter="url(#f1xwaorgld9y3s)" height="48" id="TestParameter" style="stroke:#A80036;stroke-width:1.5;" width="119" x="679.7323" y="1309.9531"/><ellipse cx="694.7323" cy="1325.9531" fill="#ADD1B2" rx="11" ry="11" style="stroke:#A80036;stroke-width:1.0;"/><path d="M697.076,1321.625 C696.1385,1321.1875 695.5448,1321.0469 694.6698,1321.0469 C692.0448,1321.0469 690.0448,1323.125 690.0448,1325.8438 L690.0448,1326.9688 C690.0448,1329.5469 692.1541,1331.4375 695.0448,1331.4375 C696.2635,1331.4375 697.4198,1331.1406 698.1698,1330.5938 C698.7479,1330.1875 699.076,1329.7344 699.076,1329.3438 C699.076,1328.8906 698.6854,1328.5 698.2166,1328.5 C697.9979,1328.5 697.7948,1328.5781 697.6073,1328.7656 C697.1541,1329.25 697.1541,1329.25 696.9666,1329.3438 C696.5448,1329.6094 695.8573,1329.7344 695.0916,1329.7344 C693.0448,1329.7344 691.7479,1328.6406 691.7479,1326.9375 L691.7479,1325.8438 C691.7479,1324.0625 692.9979,1322.75 694.7323,1322.75 C695.3104,1322.75 695.9198,1322.9063 696.3885,1323.1563 C696.8729,1323.4375 697.0448,1323.6563 697.1385,1324.0625 C697.201,1324.4688 697.2323,1324.5938 697.3729,1324.7188 C697.5135,1324.8594 697.7479,1324.9688 697.9666,1324.9688 C698.2323,1324.9688 698.4979,1324.8281 698.6698,1324.6094 C698.7791,1324.4531 698.8104,1324.2656 698.8104,1323.8438 L698.8104,1322.4219 C698.8104,1321.9844 698.7948,1321.8594 698.701,1321.7031 C698.5448,1321.4375 698.2635,1321.2969 697.9666,1321.2969 C697.6698,1321.2969 697.4666,1321.3906 697.2479,1321.7031 L697.076,1321.625 Z " fill="#000000"/><text fill="#000000" font-family="sans-serif" font-size="12" lengthAdjust="spacing" textLength="87" x="708.7323" y="1330.1074">TestParameter</text><line style="stroke:#A80036;stroke-width:1.5;" x1="680.7323" x2="797.7323" y1="1341.9531" y2="1341.9531"/><line style="stroke:#A80036;stroke-width:1.5;" x1="680.7323" x2="797.7323" y1="1349.9531" y2="1349.9531"/><!--MD5=[d08a55150b235eff605e1c8637b2e57e]
class CompanyAnalysis--><rect codeLine="68" fill="#FEFECE" filter="url(#f1xwaorgld9y3s)" height="48" id="CompanyAnalysis" style="stroke:#A80036;stroke-width:1.5;" width="137" x="482.7323" y="499.4531"/><ellipse cx="497.7323" cy="515.4531" fill="#ADD1B2" rx="11" ry="11" style="stroke:#A80036;stroke-width:1.0;"/><path d="M500.076,511.125 C499.1385,510.6875 498.5448,510.5469 497.6698,510.5469 C495.0448,510.5469 493.0448,512.625 493.0448,515.3438 L493.0448,516.4688 C493.0448,519.0469 495.1541,520.9375 498.0448,520.9375 C499.2635,520.9375 500.4198,520.6406 501.1698,520.0938 C501.7479,519.6875 502.076,519.2344 502.076,518.8438 C502.076,518.3906 501.6854,518 501.2166,518 C500.9979,518 500.7948,518.0781 500.6073,518.2656 C500.1541,518.75 500.1541,518.75 499.9666,518.8438 C499.5448,519.1094 498.8573,519.2344 498.0916,519.2344 C496.0448,519.2344 494.7479,518.1406 494.7479,516.4375 L494.7479,515.3438 C494.7479,513.5625 495.9979,512.25 497.7323,512.25 C498.3104,512.25 498.9198,512.4063 499.3885,512.6563 C499.8729,512.9375 500.0448,513.1563 500.1385,513.5625 C500.201,513.9688 500.2323,514.0938 500.3729,514.2188 C500.5135,514.3594 500.7479,514.4688 500.9666,514.4688 C501.2323,514.4688 501.4979,514.3281 501.6698,514.1094 C501.7791,513.9531 501.8104,513.7656 501.8104,513.3438 L501.8104,511.9219 C501.8104,511.4844 501.7948,511.3594 501.701,511.2031 C501.5448,510.9375 501.2635,510.7969 500.9666,510.7969 C500.6698,510.7969 500.4666,510.8906 500.2479,511.2031 L500.076,511.125 Z " fill="#000000"/><text fill="#000000" font-family="sans-serif" font-size="12" lengthAdjust="spacing" textLength="105" x="511.7323" y="519.6074">CompanyAnalysis</text><line style="stroke:#A80036;stroke-width:1.5;" x1="483.7323" x2="618.7323" y1="531.4531" y2="531.4531"/><line style="stroke:#A80036;stroke-width:1.5;" x1="483.7323" x2="618.7323" y1="539.4531" y2="539.4531"/><!--MD5=[81a740e4b4f8a53a87817727e172e9fa]
class ExternalModules--><rect fill="#FEFECE" filter="url(#f1xwaorgld9y3s)" height="48" id="ExternalModules" style="stroke:#A80036;stroke-width:1.5;" width="131" x="1019.7323" y="864.9531"/><ellipse cx="1034.7323" cy="880.9531" fill="#ADD1B2" rx="11" ry="11" style="stroke:#A80036;stroke-width:1.0;"/><path d="M1037.076,876.625 C1036.1385,876.1875 1035.5448,876.0469 1034.6698,876.0469 C1032.0448,876.0469 1030.0448,878.125 1030.0448,880.8438 L1030.0448,881.9688 C1030.0448,884.5469 1032.1541,886.4375 1035.0448,886.4375 C1036.2635,886.4375 1037.4198,886.1406 1038.1698,885.5938 C1038.7479,885.1875 1039.076,884.7344 1039.076,884.3438 C1039.076,883.8906 1038.6854,883.5 1038.2166,883.5 C1037.9979,883.5 1037.7948,883.5781 1037.6073,883.7656 C1037.1541,884.25 1037.1541,884.25 1036.9666,884.3438 C1036.5448,884.6094 1035.8573,884.7344 1035.0916,884.7344 C1033.0448,884.7344 1031.7479,883.6406 1031.7479,881.9375 L1031.7479,880.8438 C1031.7479,879.0625 1032.9979,877.75 1034.7323,877.75 C1035.3104,877.75 1035.9198,877.9063 1036.3885,878.1563 C1036.8729,878.4375 1037.0448,878.6563 1037.1385,879.0625 C1037.201,879.4688 1037.2323,879.5938 1037.3729,879.7188 C1037.5135,879.8594 1037.7479,879.9688 1037.9666,879.9688 C1038.2323,879.9688 1038.4979,879.8281 1038.6698,879.6094 C1038.7791,879.4531 1038.8104,879.2656 1038.8104,878.8438 L1038.8104,877.4219 C1038.8104,876.9844 1038.7948,876.8594 1038.701,876.7031 C1038.5448,876.4375 1038.2635,876.2969 1037.9666,876.2969 C1037.6698,876.2969 1037.4666,876.3906 1037.2479,876.7031 L1037.076,876.625 Z " fill="#000000"/><text fill="#000000" font-family="sans-serif" font-size="12" lengthAdjust="spacing" textLength="99" x="1048.7323" y="885.1074">ExternalModules</text><line style="stroke:#A80036;stroke-width:1.5;" x1="1020.7323" x2="1149.7323" y1="896.9531" y2="896.9531"/><line style="stroke:#A80036;stroke-width:1.5;" x1="1020.7323" x2="1149.7323" y1="904.9531" y2="904.9531"/><!--MD5=[09366576ee87d48d594df10cacc83f45]
link Company to Employee--><path codeLine="70" d="M508.2753,89.0731 C496.7473,110.4731 480.8353,140.0131 466.9923,165.7131 " fill="none" id="Company-Employee" style="stroke:#A80036;stroke-width:1.0;"/><polygon fill="#000000" points="493.8611,131.9215,500.738,125.352,495.5632,122.5645,493.8611,131.9215" style="stroke:#000000;stroke-width:1.0;"/><text fill="#000000" font-family="sans-serif" font-size="13" lengthAdjust="spacing" textLength="23" x="505.2323" y="132.02">has</text><text fill="#000000" font-family="sans-serif" font-size="13" lengthAdjust="spacing" textLength="8" x="496.1591" y="109.0361">1</text><text fill="#000000" font-family="sans-serif" font-size="13" lengthAdjust="spacing" textLength="7" x="463.1927" y="155.0184">*</text><!--MD5=[7e4bc624457760b649895ff2ead938fa]
link Company to Test--><path codeLine="71" d="M466.2253,65.4031 C332.5543,80.7131 14.2323,127.0331 14.2323,220.9531 C14.2323,220.9531 14.2323,220.9531 14.2323,700.9531 C14.2323,808.1601 382.8723,863.8751 527.2323,881.5831 " fill="none" id="Company-Test" style="stroke:#A80036;stroke-width:1.0;"/><polygon fill="#000000" points="19.605,459.5056,21.8615,450.2666,16,450.7048,19.605,459.5056" style="stroke:#000000;stroke-width:1.0;"/><text fill="#000000" font-family="sans-serif" font-size="13" lengthAdjust="spacing" textLength="59" x="28.2323" y="459.02">performs</text><text fill="#000000" font-family="sans-serif" font-size="13" lengthAdjust="spacing" textLength="8" x="450.2806" y="62.4206">1</text><text fill="#000000" font-family="sans-serif" font-size="13" lengthAdjust="spacing" textLength="7" x="512.1026" y="876.633">*</text><!--MD5=[6eee883fdf517d3604e8bd0f2058e9aa]
link Company to Client--><path codeLine="72" d="M582.6733,82.9331 C635.2323,108.3531 704.2323,154.4031 704.2323,220.9531 C704.2323,220.9531 704.2323,220.9531 704.2323,524.4531 C704.2323,560.3791 694.3173,598.9131 683.3173,630.6071 " fill="none" id="Company-Client" style="stroke:#A80036;stroke-width:1.0;"/><polygon fill="#000000" points="710.136,390.4372,711.3917,381.0099,705.6106,382.0722,710.136,390.4372" style="stroke:#000000;stroke-width:1.0;"/><text fill="#000000" font-family="sans-serif" font-size="13" lengthAdjust="spacing" textLength="23" x="718.2323" y="390.02">has</text><text fill="#000000" font-family="sans-serif" font-size="13" lengthAdjust="spacing" textLength="8" x="590.2833" y="82.0895">1</text><text fill="#000000" font-family="sans-serif" font-size="13" lengthAdjust="spacing" textLength="7" x="678.9557" y="619.7751">*</text><!--MD5=[7dae17bb55c59b06af656d7c83a51371]
reverse link Employee to LaboratoryCoordinator--><path codeLine="73" d="M437.2323,298.2131 C437.2323,321.0231 437.2323,344.4131 437.2323,361.0731 " fill="none" id="Employee-backto-LaboratoryCoordinator" style="stroke:#A80036;stroke-width:1.0;"/><polygon fill="none" points="430.2323,298.0831,437.2323,278.0831,444.2323,298.0831,430.2323,298.0831" style="stroke:#A80036;stroke-width:1.0;"/><!--MD5=[22fb9506fac029fc1d2ae00f0eb8d606]
link Employee to User--><path codeLine="74" d="M381.9343,278.0831 C356.0863,303.8531 326.3423,333.5031 304.8353,354.9431 " fill="none" id="Employee-User" style="stroke:#A80036;stroke-width:1.0;"/><polygon fill="#000000" points="353.6912,320.0496,362.1719,315.745,358.0221,311.5823,353.6912,320.0496" style="stroke:#000000;stroke-width:1.0;"/><text fill="#000000" font-family="sans-serif" font-size="13" lengthAdjust="spacing" textLength="46" x="366.2323" y="321.02">acts as</text><text fill="#000000" font-family="sans-serif" font-size="13" lengthAdjust="spacing" textLength="24" x="349.7323" y="297.9116">0..1</text><text fill="#000000" font-family="sans-serif" font-size="13" lengthAdjust="spacing" textLength="8" x="302.4359" y="343.7312">1</text><!--MD5=[502b51bc079239060389dab43b7d3470]
link Client to Test--><path codeLine="75" d="M628.7623,768.9931 C619.1463,794.6831 608.4903,823.1481 600.0143,845.7921 " fill="none" id="Client-Test" style="stroke:#A80036;stroke-width:1.0;"/><polygon fill="#000000" points="620.4794,812.2022,626.4028,804.7615,620.8979,802.7009,620.4794,812.2022" style="stroke:#000000;stroke-width:1.0;"/><text fill="#000000" font-family="sans-serif" font-size="13" lengthAdjust="spacing" textLength="43" x="631.2323" y="812.02">does a</text><text fill="#000000" font-family="sans-serif" font-size="13" lengthAdjust="spacing" textLength="8" x="617.8613" y="788.619">1</text><text fill="#000000" font-family="sans-serif" font-size="13" lengthAdjust="spacing" textLength="7" x="594.9717" y="834.7625">*</text><!--MD5=[9c9372819e7e341d898f91a2ea9c8168]
link LaboratoryCoordinator to CompanyAnalysis--><path codeLine="77" d="M456.5713,409.5231 C477.5343,434.5331 510.7983,474.2131 531.7993,499.2731 " fill="none" id="LaboratoryCoordinator-CompanyAnalysis" style="stroke:#A80036;stroke-width:1.0;"/><polygon fill="#000000" points="509.4442,458.3515,505.8861,449.5315,501.3814,453.3073,509.4442,458.3515" style="stroke:#000000;stroke-width:1.0;"/><text fill="#000000" font-family="sans-serif" font-size="13" lengthAdjust="spacing" textLength="30" x="515.2323" y="459.02">sees</text><text fill="#000000" font-family="sans-serif" font-size="13" lengthAdjust="spacing" textLength="8" x="452.5019" y="429.6968">1</text><text fill="#000000" font-family="sans-serif" font-size="13" lengthAdjust="spacing" textLength="7" x="518.9227" y="488.239">*</text><!--MD5=[c8af08d89f04578550308d5ea2e0270e]
link Company to CompanyAnalysis--><path codeLine="78" d="M531.7763,89.2431 C533.8873,98.6831 535.9533,109.2031 537.2323,118.9531 C556.1603,263.2031 548.8983,300.5031 552.2323,445.9531 C552.6433,463.8831 552.3423,484.1731 551.9663,499.3531 " fill="none" id="Company-CompanyAnalysis" style="stroke:#A80036;stroke-width:1.0;"/><polygon fill="#000000" points="556.4781,321.5135,558.9687,312.3348,553.098,312.6238,556.4781,321.5135" style="stroke:#000000;stroke-width:1.0;"/><text fill="#000000" font-family="sans-serif" font-size="13" lengthAdjust="spacing" textLength="23" x="565.2323" y="321.02">has</text><text fill="#000000" font-family="sans-serif" font-size="13" lengthAdjust="spacing" textLength="8" x="524.474" y="108.8807">1</text><text fill="#000000" font-family="sans-serif" font-size="13" lengthAdjust="spacing" textLength="7" x="544.2575" y="488.3395">*</text><!--MD5=[6f92b10aa3cb241eebd0a1ba43a921c6]
link CompanyAnalysis to Test--><path codeLine="79" d="M539.6393,547.8621 C529.8653,568.9871 516.6313,601.2211 511.2323,630.9531 C500.2733,691.2991 494.5703,709.9261 511.2323,768.9531 C519.0353,796.5941 535.2553,824.1431 550.4293,845.7631 " fill="none" id="CompanyAnalysis-Test" style="stroke:#A80036;stroke-width:1.0;"/><polygon fill="#000000" points="516.4132,705.0163,519.0229,695.8707,513.1488,696.0835,516.4132,705.0163" style="stroke:#000000;stroke-width:1.0;"/><text fill="#000000" font-family="sans-serif" font-size="13" lengthAdjust="spacing" textLength="30" x="525.2323" y="704.52">uses</text><text fill="#000000" font-family="sans-serif" font-size="13" lengthAdjust="spacing" textLength="8" x="528.0334" y="567.3233">1</text><text fill="#000000" font-family="sans-serif" font-size="13" lengthAdjust="spacing" textLength="8" x="536.4044" y="834.7289">1</text><!--MD5=[615515c5a26f9260a2a89a202640d6f6]
link CompanyAnalysis to Client--><path codeLine="80" d="M545.2233,547.5181 C542.3283,563.2311 540.8823,584.1481 548.2323,600.9531 C554.2583,614.7301 563.2823,627.4331 573.5673,638.8081 " fill="none" id="CompanyAnalysis-Client" style="stroke:#A80036;stroke-width:1.0;"/><polygon fill="#000000" points="554.7149,597.2947,554.8396,587.7849,549.2261,589.5278,554.7149,597.2947" style="stroke:#000000;stroke-width:1.0;"/><text fill="#000000" font-family="sans-serif" font-size="13" lengthAdjust="spacing" textLength="30" x="562.2323" y="597.02">uses</text><text fill="#000000" font-family="sans-serif" font-size="13" lengthAdjust="spacing" textLength="8" x="544.7085" y="567.6906">1</text><text fill="#000000" font-family="sans-serif" font-size="13" lengthAdjust="spacing" textLength="8" x="557.7622" y="629.5699">1</text><!--MD5=[fa029c5f60dbb5d8e5442853f2eb8729]
link CompanyAnalysis to Algorithm--><path codeLine="81" d="M606.7393,547.5681 C648.9033,566.5681 707.1293,595.9931 752.2323,630.9531 C768.9003,643.8721 784.8633,661.5481 796.4163,675.6401 " fill="none" id="CompanyAnalysis-Algorithm" style="stroke:#A80036;stroke-width:1.0;"/><polygon fill="#000000" points="714.3761,595.3175,708.5244,587.8202,705.2352,592.6916,714.3761,595.3175" style="stroke:#000000;stroke-width:1.0;"/><text fill="#000000" font-family="sans-serif" font-size="13" lengthAdjust="spacing" textLength="30" x="719.2323" y="597.02">uses</text><text fill="#000000" font-family="sans-serif" font-size="13" lengthAdjust="spacing" textLength="8" x="611.2941" y="567.3574">1</text><text fill="#000000" font-family="sans-serif" font-size="13" lengthAdjust="spacing" textLength="7" x="784.2205" y="664.9688">*</text><!--MD5=[9890e86117bf28c9d839fbaefee676c3]
link Test to Validation--><path codeLine="82" d="M641.2513,896.3941 C685.3543,904.3881 744.7073,922.2331 780.2323,961.9531 C834.8653,1023.0381 865.2713,1073.4871 820.2323,1141.9531 C799.7993,1173.0141 759.3553,1187.9311 727.5083,1195.0531 " fill="none" id="Test-Validation" style="stroke:#A80036;stroke-width:1.0;"/><polygon fill="#000000" points="847.6196,1056.8232,847.9334,1047.3178,842.2863,1048.9488,847.6196,1056.8232" style="stroke:#000000;stroke-width:1.0;"/><text fill="#000000" font-family="sans-serif" font-size="13" lengthAdjust="spacing" textLength="39" x="855.2323" y="1056.52">needs</text><text fill="#000000" font-family="sans-serif" font-size="13" lengthAdjust="spacing" textLength="7" x="649.3835" y="893.4342">*</text><text fill="#000000" font-family="sans-serif" font-size="13" lengthAdjust="spacing" textLength="8" x="735.3616" y="1189.7559">1</text><!--MD5=[389bfdcc2ed3b08cba26dcb04a4d8db4]
link Date to Validation--><path codeLine="83" d="M273.5343,1095.0971 C283.9393,1112.2881 298.2453,1130.7271 316.2323,1141.9531 C369.1373,1174.9731 551.6063,1192.0931 637.2183,1198.4671 " fill="none" id="Date-Validation" style="stroke:#A80036;stroke-width:1.0;"/><polygon fill="#000000" points="326.0418,1134.8865,318.1448,1129.5866,316.5378,1135.2406,326.0418,1134.8865" style="stroke:#000000;stroke-width:1.0;"/><text fill="#000000" font-family="sans-serif" font-size="13" lengthAdjust="spacing" textLength="84" x="330.2323" y="1138.02">created after</text><text fill="#000000" font-family="sans-serif" font-size="13" lengthAdjust="spacing" textLength="7" x="269.3171" y="1115.5286">*</text><text fill="#000000" font-family="sans-serif" font-size="13" lengthAdjust="spacing" textLength="7" x="622.1831" y="1193.6426">*</text><!--MD5=[6bc8dc6c8a3d981d5d10dacce5689781]
link Date to Diagnosis--><path codeLine="84" d="M218.5973,1072.9071 C193.3523,1090.1661 166.0183,1116.3151 181.2323,1141.9531 C192.6743,1161.2351 212.8093,1174.6711 232.6853,1183.8271 " fill="none" id="Date-Diagnosis" style="stroke:#A80036;stroke-width:1.0;"/><polygon fill="#000000" points="186.8623,1138.4797,188.6381,1129.1364,182.8071,1129.877,186.8623,1138.4797" style="stroke:#000000;stroke-width:1.0;"/><text fill="#000000" font-family="sans-serif" font-size="13" lengthAdjust="spacing" textLength="84" x="195.2323" y="1138.02">created after</text><text fill="#000000" font-family="sans-serif" font-size="13" lengthAdjust="spacing" textLength="7" x="203.7319" y="1090.8137">*</text><text fill="#000000" font-family="sans-serif" font-size="13" lengthAdjust="spacing" textLength="7" x="217.8636" y="1177.5676">*</text><!--MD5=[bb37520838c25876dbc12279ac1e1ce3]
link Date to TestParameterResult--><path codeLine="85" d="M218.5043,1072.4931 C200.1783,1084.8981 179.4253,1102.7911 169.2323,1124.9531 C151.4143,1163.6931 173.1033,1185.6201 215.2323,1232.9531 C298.4623,1326.4641 425.3013,1399.8151 506.4723,1440.768 " fill="none" id="Date-TestParameterResult" style="stroke:#A80036;stroke-width:1.0;"/><polygon fill="#000000" points="269.3122,1275.4583,266.0557,1266.5226,261.4254,1270.1433,269.3122,1275.4583" style="stroke:#000000;stroke-width:1.0;"/><text fill="#000000" font-family="sans-serif" font-size="13" lengthAdjust="spacing" textLength="84" x="275.2323" y="1276.02">created after</text><text fill="#000000" font-family="sans-serif" font-size="13" lengthAdjust="spacing" textLength="7" x="203.6197" y="1072.2205">*</text><text fill="#000000" font-family="sans-serif" font-size="13" lengthAdjust="spacing" textLength="7" x="491.7272" y="1433.5625">*</text><!--MD5=[83468c9803e04cad91ff4b9334c9fa97]
link Time to Validation--><path codeLine="86" d="M609.3593,1095.0041 C618.5303,1109.9741 629.1313,1126.8571 639.2323,1141.9531 C647.3823,1154.1351 656.8873,1167.3791 664.8853,1178.2731 " fill="none" id="Time-Validation" style="stroke:#A80036;stroke-width:1.0;"/><polygon fill="#000000" points="647.0062,1137.6795,644.4332,1128.5236,639.5429,1131.7846,647.0062,1137.6795" style="stroke:#000000;stroke-width:1.0;"/><text fill="#000000" font-family="sans-serif" font-size="13" lengthAdjust="spacing" textLength="84" x="653.2323" y="1138.02">created after</text><text fill="#000000" font-family="sans-serif" font-size="13" lengthAdjust="spacing" textLength="7" x="605.9412" y="1115.4202">*</text><text fill="#000000" font-family="sans-serif" font-size="13" lengthAdjust="spacing" textLength="7" x="652.5432" y="1167.239">*</text><!--MD5=[36a504a6f42c1960c690aa548275c354]
link Time to Diagnosis--><path codeLine="87" d="M544.0423,1076.4071 C511.7733,1094.9361 465.0983,1121.0631 423.2323,1141.9531 C398.9003,1154.0941 371.5513,1166.5301 348.0093,1176.8731 " fill="none" id="Time-Diagnosis" style="stroke:#A80036;stroke-width:1.0;"/><polygon fill="#000000" points="455.7826,1135.8,465.1725,1134.2901,462.4917,1129.0592,455.7826,1135.8" style="stroke:#000000;stroke-width:1.0;"/><text fill="#000000" font-family="sans-serif" font-size="13" lengthAdjust="spacing" textLength="84" x="469.2323" y="1138.02">created after</text><text fill="#000000" font-family="sans-serif" font-size="13" lengthAdjust="spacing" textLength="7" x="529.26" y="1076.4689">*</text><text fill="#000000" font-family="sans-serif" font-size="13" lengthAdjust="spacing" textLength="7" x="355.8604" y="1169.7227">*</text><!--MD5=[b202a6118447dc6c0942aaf79aeb2564]
link Time to TestParameterResult--><path codeLine="88" d="M584.2323,1095.1581 C584.2323,1176.4301 584.2323,1353.7811 584.2323,1434.9189 " fill="none" id="Time-TestParameterResult" style="stroke:#A80036;stroke-width:1.0;"/><polygon fill="#000000" points="589.2323,1276.5195,592.1712,1267.4744,586.2933,1267.4744,589.2323,1276.5195" style="stroke:#000000;stroke-width:1.0;"/><text fill="#000000" font-family="sans-serif" font-size="13" lengthAdjust="spacing" textLength="84" x="598.2323" y="1276.02">created after</text><text fill="#000000" font-family="sans-serif" font-size="13" lengthAdjust="spacing" textLength="7" x="576.6745" y="1115.2837">*</text><text fill="#000000" font-family="sans-serif" font-size="13" lengthAdjust="spacing" textLength="7" x="576.6745" y="1423.9098">*</text><!--MD5=[f24c888dadeb846430474fe80a58922b]
link Test to TestParameter--><path codeLine="90" d="M622.8293,932.0621 C660.8243,976.3881 716.7463,1050.0171 742.2323,1124.9531 C763.9783,1188.8911 752.3533,1270.4051 744.5083,1309.7021 " fill="none" id="Test-TestParameter" style="stroke:#A80036;stroke-width:1.0;"/><polygon fill="#000000" points="752.7657,1138.2786,752.789,1128.7681,747.1944,1130.5707,752.7657,1138.2786" style="stroke:#000000;stroke-width:1.0;"/><text fill="#000000" font-family="sans-serif" font-size="13" lengthAdjust="spacing" textLength="23" x="760.2323" y="1138.02">has</text><text fill="#000000" font-family="sans-serif" font-size="13" lengthAdjust="spacing" textLength="8" x="620.5594" y="952.4878">1</text><text fill="#000000" font-family="sans-serif" font-size="13" lengthAdjust="spacing" textLength="23" x="719.9912" y="1299.0459">1..*</text><!--MD5=[9f1db0734a484ef9964faa528900bb09]
link Test to Date--><path codeLine="91" d="M526.9543,917.8131 C458.1223,951.2931 344.8163,1006.4061 287.9983,1034.0431 " fill="none" id="Test-Date" style="stroke:#A80036;stroke-width:1.0;"/><polygon fill="#000000" points="429.736,972.7066,439.1554,971.393,436.5844,966.1073,429.736,972.7066" style="stroke:#000000;stroke-width:1.0;"/><text fill="#000000" font-family="sans-serif" font-size="13" lengthAdjust="spacing" textLength="23" x="443.2323" y="975.02">has</text><text fill="#000000" font-family="sans-serif" font-size="13" lengthAdjust="spacing" textLength="8" x="511.103" y="917.5988">1</text><text fill="#000000" font-family="sans-serif" font-size="13" lengthAdjust="spacing" textLength="7" x="295.8906" y="1025.8402">*</text><!--MD5=[f2cd4a00511bda759513d972229c4c4e]
link Test to Time--><path codeLine="92" d="M584.2323,932.2541 C584.2323,955.9181 584.2323,985.3161 584.2323,1008.9351 " fill="none" id="Test-Time" style="stroke:#A80036;stroke-width:1.0;"/><polygon fill="#000000" points="589.2323,975.5195,592.1712,966.4744,586.2933,966.4744,589.2323,975.5195" style="stroke:#000000;stroke-width:1.0;"/><text fill="#000000" font-family="sans-serif" font-size="13" lengthAdjust="spacing" textLength="23" x="598.2323" y="975.02">has</text><text fill="#000000" font-family="sans-serif" font-size="13" lengthAdjust="spacing" textLength="8" x="575.5948" y="952.395">1</text><text fill="#000000" font-family="sans-serif" font-size="13" lengthAdjust="spacing" textLength="7" x="576.6745" y="997.9283">*</text><!--MD5=[0e00e25ac6b8c14659aaff2cf7e5df08]
link TestParameter to TestParameterResult--><path codeLine="93" d="M713.9843,1358.0841 C691.3373,1378.8311 657.5483,1409.7861 630.1283,1434.9068 " fill="none" id="TestParameter-TestParameterResult" style="stroke:#A80036;stroke-width:1.0;"/><polygon fill="#000000" points="681.5455,1399.8971,690.2002,1395.9541,686.2297,1391.62,681.5455,1399.8971" style="stroke:#000000;stroke-width:1.0;"/><text fill="#000000" font-family="sans-serif" font-size="13" lengthAdjust="spacing" textLength="23" x="694.2323" y="1401.02">has</text><text fill="#000000" font-family="sans-serif" font-size="13" lengthAdjust="spacing" textLength="8" x="698.8551" y="1377.8773">1</text><text fill="#000000" font-family="sans-serif" font-size="13" lengthAdjust="spacing" textLength="8" x="628.8054" y="1423.8958">1</text><!--MD5=[14feee8412b59bb6a0d308f3873ac034]
link Diagnosis to TestParameter--><path codeLine="94" d="M341.4223,1233.0421 C371.1603,1249.0751 409.8373,1267.9951 446.2323,1279.9531 C524.8093,1305.7701 619.6183,1320.0191 679.6753,1327.0751 " fill="none" id="Diagnosis-TestParameter" style="stroke:#A80036;stroke-width:1.0;"/><polygon fill="#000000" points="446.4149,1270.1803,454.3424,1275.4345,455.9167,1269.7714,446.4149,1270.1803" style="stroke:#000000;stroke-width:1.0;"/><text fill="#000000" font-family="sans-serif" font-size="13" lengthAdjust="spacing" textLength="80" x="460.2323" y="1276.02">created with</text><text fill="#000000" font-family="sans-serif" font-size="13" lengthAdjust="spacing" textLength="8" x="343.1552" y="1252.9987">1</text><text fill="#000000" font-family="sans-serif" font-size="13" lengthAdjust="spacing" textLength="8" x="663.9293" y="1322.3978">1</text><!--MD5=[9cca41bb1bc3a06e0dcc35b49de651f1]
link Client to TestParameter--><path codeLine="95" d="M734.8323,757.8071 C740.6773,761.6441 746.5193,765.3951 752.2323,768.9531 C844.6073,826.4881 966.2323,779.1261 966.2323,887.9531 C966.2323,887.9531 966.2323,887.9531 966.2323,1203.4531 C966.2323,1280.5851 866.1303,1312.3831 798.8743,1325.0421 " fill="none" id="Client-TestParameter" style="stroke:#A80036;stroke-width:1.0;"/><polygon fill="#000000" points="971.7932,1056.988,973.6988,1047.6703,967.8581,1048.3297,971.7932,1056.988" style="stroke:#000000;stroke-width:1.0;"/><text fill="#000000" font-family="sans-serif" font-size="13" lengthAdjust="spacing" textLength="78" x="980.2323" y="1056.52">consults the</text><text fill="#000000" font-family="sans-serif" font-size="13" lengthAdjust="spacing" textLength="8" x="742.6313" y="759.5391">1</text><text fill="#000000" font-family="sans-serif" font-size="13" lengthAdjust="spacing" textLength="7" x="806.5697" y="1320.117">*</text><!--MD5=[9ea131e34883d590a1cfd41d17f43241]
link Report to Diagnosis--><path codeLine="96" d="M151.5373,553.9991 C123.8103,586.7761 85.2323,642.5191 85.2323,698.9531 C85.2323,698.9531 85.2323,698.9531 85.2323,1052.9531 C85.2323,1126.1251 171.9493,1166.9331 232.5833,1186.5231 " fill="none" id="Report-Diagnosis" style="stroke:#A80036;stroke-width:1.0;"/><polygon fill="#000000" points="90.8677,893.979,92.6333,884.6337,86.8031,885.3808,90.8677,893.979" style="stroke:#000000;stroke-width:1.0;"/><text fill="#000000" font-family="sans-serif" font-size="13" lengthAdjust="spacing" textLength="54" x="99.2323" y="893.52">contains</text><text fill="#000000" font-family="sans-serif" font-size="13" lengthAdjust="spacing" textLength="8" x="137.0002" y="573.9468">1</text><text fill="#000000" font-family="sans-serif" font-size="13" lengthAdjust="spacing" textLength="8" x="216.6845" y="1197.5309">1</text><!--MD5=[848c8065b29fb9bba3c9b45c1c07083f]
link LaboratoryCoordinator to Report--><path codeLine="97" d="M393.4663,409.5231 C343.8663,435.6731 263.8383,477.8531 216.9093,502.5931 " fill="none" id="LaboratoryCoordinator-Report" style="stroke:#A80036;stroke-width:1.0;"/><polygon fill="#000000" points="324.8092,456.8511,334.1811,455.2331,331.4402,450.0334,324.8092,456.8511" style="stroke:#000000;stroke-width:1.0;"/><text fill="#000000" font-family="sans-serif" font-size="13" lengthAdjust="spacing" textLength="58" x="338.2323" y="459.02">validates</text><text fill="#000000" font-family="sans-serif" font-size="13" lengthAdjust="spacing" textLength="8" x="373.2262" y="429.6968">1</text><text fill="#000000" font-family="sans-serif" font-size="13" lengthAdjust="spacing" textLength="7" x="224.7586" y="494.2852">*</text><!--MD5=[670dbdf7395d3fcbb40104f0a070263e]
link Company to Report--><path codeLine="98" d="M466.1473,88.3131 C431.1273,107.4031 386.9283,134.6531 353.2323,165.9531 C277.0293,236.7431 257.7563,260.0331 215.2323,354.9531 C194.8023,400.5531 185.6823,458.4431 181.8273,492.8531 " fill="none" id="Company-Report" style="stroke:#A80036;stroke-width:1.0;"/><polygon fill="#000000" points="239.3572,320.6103,246.9627,314.9,242.1538,311.5201,239.3572,320.6103" style="stroke:#000000;stroke-width:1.0;"/><text fill="#000000" font-family="sans-serif" font-size="13" lengthAdjust="spacing" textLength="39" x="251.2323" y="321.02">wants</text><text fill="#000000" font-family="sans-serif" font-size="13" lengthAdjust="spacing" textLength="8" x="450.1926" y="88.2659">1</text><text fill="#000000" font-family="sans-serif" font-size="13" lengthAdjust="spacing" textLength="7" x="174.6406" y="482.0957">*</text><!--MD5=[8119b19a87c0aef03a7a676034f21d9f]
link Company to Algorithm--><path codeLine="99" d="M582.3683,65.8631 C666.7613,78.7431 813.2323,116.2031 813.2323,220.9531 C813.2323,220.9531 813.2323,220.9531 813.2323,524.4531 C813.2323,578.6821 813.7213,642.3891 814.0153,675.8071 " fill="none" id="Company-Algorithm" style="stroke:#A80036;stroke-width:1.0;"/><polygon fill="#000000" points="820.0075,390.1938,819.5436,380.6945,814.0486,382.7814,820.0075,390.1938" style="stroke:#000000;stroke-width:1.0;"/><text fill="#000000" font-family="sans-serif" font-size="13" lengthAdjust="spacing" textLength="30" x="827.2323" y="390.02">uses</text><text fill="#000000" font-family="sans-serif" font-size="13" lengthAdjust="spacing" textLength="8" x="590.3294" y="62.9395">1</text><text fill="#000000" font-family="sans-serif" font-size="13" lengthAdjust="spacing" textLength="7" x="806.0628" y="664.7817">*</text><!--MD5=[f20bfefa6ba5b02d9e10f4c6df7ed0f8]
link Algorithm to ExternalModules--><path codeLine="100" d="M858.9473,721.5171 C896.1583,739.5611 949.7223,767.7401 992.2323,798.9531 C1019.0723,818.6611 1046.1723,845.5771 1064.1423,864.6351 " fill="none" id="Algorithm-ExternalModules" style="stroke:#A80036;stroke-width:1.0;"/><polygon fill="#000000" points="1020.3333,810.3799,1014.5957,802.7949,1011.2332,807.616,1020.3333,810.3799" style="stroke:#000000;stroke-width:1.0;"/><text fill="#000000" font-family="sans-serif" font-size="13" lengthAdjust="spacing" textLength="78" x="1025.2323" y="812.02">can be from</text><text fill="#000000" font-family="sans-serif" font-size="13" lengthAdjust="spacing" textLength="7" x="866.6315" y="720.8361">*</text><text fill="#000000" font-family="sans-serif" font-size="13" lengthAdjust="spacing" textLength="7" x="1051.1485" y="853.9626">*</text><!--MD5=[24f82f351804d8ebd0638b362e788f5c]
@startuml
title UC16 - Class Diagram

class Company {
    string designation;
}

class Employee {
    String employeeID;
    String name;
    String address;
    String phoneNumber;
    String codeSOC;
}

class LaboratoryCoordinator

class User {
  String name;
}

class Test {
    String code;
    String NHSCode;
    String description;
}

class Date {
   int year;
   int month;
   int day;
}

class Time {
   int hours;
   int minutes;
   int seconds;
}

class Client {
    String citizenCardNumber;
    String numberNHS;
    String numberTIN;
    String birthDate;
    string sex;
    String phoneNumber;
    string name;
}

class TestParameterResult{
     String value;
     String metric;
     Date createdAt;
}

class Report {
   String text;
}
class Diagnosis {
   String testResults;
}

class Validation

class Algorithm

class TestParameter

class CompanyAnalysis

Company "1" - - "*" Employee: has >
Company "1" - - "*" Test: performs >
Company "1" - - "*" Client: has >
Employee <|- - LaboratoryCoordinator
Employee "0..1" - - "1" User: acts as >
Client "1" - - "*" Test: does a >

LaboratoryCoordinator "1" - - "*" CompanyAnalysis: sees >
Company "1" - - "*" CompanyAnalysis: has >
CompanyAnalysis"1" - - "1" Test: uses >
CompanyAnalysis"1" - - "1" Client: uses >
CompanyAnalysis"1" - - "*" Algorithm : uses >
Test "*" - - "1" Validation: needs >
Date "*" - - "*" Validation: created after >
Date "*" - - "*" Diagnosis: created after >
Date "*" - - "*" TestParameterResult: created after >
Time"*" - - "*" Validation: created after >
Time"*" - - "*" Diagnosis: created after >
Time"*" - - "*" TestParameterResult: created after >

Test "1" - - "1..*" TestParameter: has >
Test "1" - - "*" Date: has >
Test "1" - - "*" Time: has >
TestParameter "1" - - "1" TestParameterResult : has >
Diagnosis "1" - - "1" TestParameter: created with <
Client "1" - - "*" TestParameter: consults the >
Report "1" - - "1" Diagnosis: contains >
LaboratoryCoordinator "1" - - "*" Report: validates >
Company "1" - - "*" Report: wants >
Company "1" - - "*" Algorithm: uses >
Algorithm "*" - - "*" ExternalModules: can be from >
@enduml

PlantUML version 1.2021.7(Sun May 23 12:40:07 UTC 2021)
(GPL source distribution)
Java Runtime: Java(TM) SE Runtime Environment
JVM: Java HotSpot(TM) 64-Bit Server VM
Default Encoding: UTF-8
Language: en
Country: US
--></g></svg>