<?xml version="1.0" encoding="UTF-8" standalone="no"?><svg xmlns="http://www.w3.org/2000/svg" xmlns:xlink="http://www.w3.org/1999/xlink" contentScriptType="application/ecmascript" contentStyleType="text/css" height="1558px" preserveAspectRatio="none" style="width:1662px;height:1558px;background:#FFFFFF;" version="1.1" viewBox="0 0 1662 1558" width="1662px" zoomAndPan="magnify"><defs><filter height="300%" id="fyk1wi8s3eggd" width="300%" x="-1" y="-1"><feGaussianBlur result="blurOut" stdDeviation="2.0"/><feColorMatrix in="blurOut" result="blurOut2" type="matrix" values="0 0 0 0 0 0 0 0 0 0 0 0 0 0 0 0 0 0 .4 0"/><feOffset dx="4.0" dy="4.0" in="blurOut2" result="blurOut3"/><feBlend in="SourceGraphic" in2="blurOut3" mode="normal"/></filter></defs><g><text fill="#000000" font-family="sans-serif" font-size="18" lengthAdjust="spacing" textLength="277" x="686.4135" y="16.708">Relationships - Class Diagram</text><!--MD5=[7421f545a0d8420c5bec41e74b387d9c]
class Employee--><rect codeLine="3" fill="#FEFECE" filter="url(#fyk1wi8s3eggd)" height="112.0234" id="Employee" style="stroke:#A80036;stroke-width:1.5;" width="133" x="467.327" y="165.9531"/><ellipse cx="500.777" cy="181.9531" fill="#ADD1B2" rx="11" ry="11" style="stroke:#A80036;stroke-width:1.0;"/><path d="M503.1208,177.625 C502.1833,177.1875 501.5895,177.0469 500.7145,177.0469 C498.0895,177.0469 496.0895,179.125 496.0895,181.8438 L496.0895,182.9688 C496.0895,185.5469 498.1989,187.4375 501.0895,187.4375 C502.3083,187.4375 503.4645,187.1406 504.2145,186.5938 C504.7926,186.1875 505.1208,185.7344 505.1208,185.3438 C505.1208,184.8906 504.7301,184.5 504.2614,184.5 C504.0426,184.5 503.8395,184.5781 503.652,184.7656 C503.1989,185.25 503.1989,185.25 503.0114,185.3438 C502.5895,185.6094 501.902,185.7344 501.1364,185.7344 C499.0895,185.7344 497.7926,184.6406 497.7926,182.9375 L497.7926,181.8438 C497.7926,180.0625 499.0426,178.75 500.777,178.75 C501.3551,178.75 501.9645,178.9063 502.4333,179.1563 C502.9176,179.4375 503.0895,179.6563 503.1833,180.0625 C503.2458,180.4688 503.277,180.5938 503.4176,180.7188 C503.5583,180.8594 503.7926,180.9688 504.0114,180.9688 C504.277,180.9688 504.5426,180.8281 504.7145,180.6094 C504.8239,180.4531 504.8551,180.2656 504.8551,179.8438 L504.8551,178.4219 C504.8551,177.9844 504.8395,177.8594 504.7458,177.7031 C504.5895,177.4375 504.3083,177.2969 504.0114,177.2969 C503.7145,177.2969 503.5114,177.3906 503.2926,177.7031 L503.1208,177.625 Z " fill="#000000"/><text fill="#000000" font-family="sans-serif" font-size="12" lengthAdjust="spacing" textLength="60" x="518.877" y="186.1074">Employee</text><line style="stroke:#A80036;stroke-width:1.5;" x1="468.327" x2="599.327" y1="197.9531" y2="197.9531"/><text fill="#000000" font-family="sans-serif" font-size="11" lengthAdjust="spacing" textLength="111" x="473.327" y="212.1636">String employeeID;</text><text fill="#000000" font-family="sans-serif" font-size="11" lengthAdjust="spacing" textLength="73" x="473.327" y="224.9683">String name;</text><text fill="#000000" font-family="sans-serif" font-size="11" lengthAdjust="spacing" textLength="78" x="473.327" y="237.7729">String adress;</text><text fill="#000000" font-family="sans-serif" font-size="11" lengthAdjust="spacing" textLength="121" x="473.327" y="250.5776">String phoneNumber;</text><text fill="#000000" font-family="sans-serif" font-size="11" lengthAdjust="spacing" textLength="93" x="473.327" y="263.3823">String codeSOC;</text><line style="stroke:#A80036;stroke-width:1.5;" x1="468.327" x2="599.327" y1="269.9766" y2="269.9766"/><!--MD5=[e59bda2572a266093cda22ac34510ea0]
class Barcode--><rect codeLine="11" fill="#FEFECE" filter="url(#fyk1wi8s3eggd)" height="48" id="Barcode" style="stroke:#A80036;stroke-width:1.5;" width="83" x="489.327" y="784.4531"/><ellipse cx="504.327" cy="800.4531" fill="#ADD1B2" rx="11" ry="11" style="stroke:#A80036;stroke-width:1.0;"/><path d="M506.6708,796.125 C505.7333,795.6875 505.1395,795.5469 504.2645,795.5469 C501.6395,795.5469 499.6395,797.625 499.6395,800.3438 L499.6395,801.4688 C499.6395,804.0469 501.7489,805.9375 504.6395,805.9375 C505.8583,805.9375 507.0145,805.6406 507.7645,805.0938 C508.3426,804.6875 508.6708,804.2344 508.6708,803.8438 C508.6708,803.3906 508.2801,803 507.8114,803 C507.5926,803 507.3895,803.0781 507.202,803.2656 C506.7489,803.75 506.7489,803.75 506.5614,803.8438 C506.1395,804.1094 505.452,804.2344 504.6864,804.2344 C502.6395,804.2344 501.3426,803.1406 501.3426,801.4375 L501.3426,800.3438 C501.3426,798.5625 502.5926,797.25 504.327,797.25 C504.9051,797.25 505.5145,797.4063 505.9833,797.6563 C506.4676,797.9375 506.6395,798.1563 506.7333,798.5625 C506.7958,798.9688 506.827,799.0938 506.9676,799.2188 C507.1083,799.3594 507.3426,799.4688 507.5614,799.4688 C507.827,799.4688 508.0926,799.3281 508.2645,799.1094 C508.3739,798.9531 508.4051,798.7656 508.4051,798.3438 L508.4051,796.9219 C508.4051,796.4844 508.3895,796.3594 508.2958,796.2031 C508.1395,795.9375 507.8583,795.7969 507.5614,795.7969 C507.2645,795.7969 507.0614,795.8906 506.8426,796.2031 L506.6708,796.125 Z " fill="#000000"/><text fill="#000000" font-family="sans-serif" font-size="12" lengthAdjust="spacing" textLength="51" x="518.327" y="804.6074">Barcode</text><line style="stroke:#A80036;stroke-width:1.5;" x1="490.327" x2="571.327" y1="816.4531" y2="816.4531"/><line style="stroke:#A80036;stroke-width:1.5;" x1="490.327" x2="571.327" y1="824.4531" y2="824.4531"/><!--MD5=[ed6624c6556d5e7b1bd23032162d20b7]
class Client--><rect codeLine="13" fill="#FEFECE" filter="url(#fyk1wi8s3eggd)" height="137.6328" id="Client" style="stroke:#A80036;stroke-width:1.5;" width="161" x="16.327" y="979.9531"/><ellipse cx="76.077" cy="995.9531" fill="#ADD1B2" rx="11" ry="11" style="stroke:#A80036;stroke-width:1.0;"/><path d="M78.4208,991.625 C77.4833,991.1875 76.8895,991.0469 76.0145,991.0469 C73.3895,991.0469 71.3895,993.125 71.3895,995.8438 L71.3895,996.9688 C71.3895,999.5469 73.4989,1001.4375 76.3895,1001.4375 C77.6083,1001.4375 78.7645,1001.1406 79.5145,1000.5938 C80.0926,1000.1875 80.4208,999.7344 80.4208,999.3438 C80.4208,998.8906 80.0301,998.5 79.5614,998.5 C79.3426,998.5 79.1395,998.5781 78.952,998.7656 C78.4989,999.25 78.4989,999.25 78.3114,999.3438 C77.8895,999.6094 77.202,999.7344 76.4364,999.7344 C74.3895,999.7344 73.0926,998.6406 73.0926,996.9375 L73.0926,995.8438 C73.0926,994.0625 74.3426,992.75 76.077,992.75 C76.6551,992.75 77.2645,992.9063 77.7333,993.1563 C78.2176,993.4375 78.3895,993.6563 78.4833,994.0625 C78.5458,994.4688 78.577,994.5938 78.7176,994.7188 C78.8583,994.8594 79.0926,994.9688 79.3114,994.9688 C79.577,994.9688 79.8426,994.8281 80.0145,994.6094 C80.1239,994.4531 80.1551,994.2656 80.1551,993.8438 L80.1551,992.4219 C80.1551,991.9844 80.1395,991.8594 80.0458,991.7031 C79.8895,991.4375 79.6083,991.2969 79.3114,991.2969 C79.0145,991.2969 78.8114,991.3906 78.5926,991.7031 L78.4208,991.625 Z " fill="#000000"/><text fill="#000000" font-family="sans-serif" font-size="12" lengthAdjust="spacing" textLength="33" x="96.577" y="1000.1074">Client</text><line style="stroke:#A80036;stroke-width:1.5;" x1="17.327" x2="176.327" y1="1011.9531" y2="1011.9531"/><text fill="#000000" font-family="sans-serif" font-size="11" lengthAdjust="spacing" textLength="149" x="22.327" y="1026.1636">String citizenCardNumber;</text><text fill="#000000" font-family="sans-serif" font-size="11" lengthAdjust="spacing" textLength="108" x="22.327" y="1038.9683">String numberNHS;</text><text fill="#000000" font-family="sans-serif" font-size="11" lengthAdjust="spacing" textLength="102" x="22.327" y="1051.7729">String numberTIN;</text><text fill="#000000" font-family="sans-serif" font-size="11" lengthAdjust="spacing" textLength="93" x="22.327" y="1064.5776">String birthDate;</text><text fill="#000000" font-family="sans-serif" font-size="11" lengthAdjust="spacing" textLength="59" x="22.327" y="1077.3823">string sex;</text><text fill="#000000" font-family="sans-serif" font-size="11" lengthAdjust="spacing" textLength="121" x="22.327" y="1090.187">String phoneNumber;</text><text fill="#000000" font-family="sans-serif" font-size="11" lengthAdjust="spacing" textLength="71" x="22.327" y="1102.9917">string name;</text><line style="stroke:#A80036;stroke-width:1.5;" x1="17.327" x2="176.327" y1="1109.5859" y2="1109.5859"/><!--MD5=[02e4b9b7573f1156f41e60aa5b4e25a4]
class Company--><rect codeLine="23" fill="#FEFECE" filter="url(#fyk1wi8s3eggd)" height="60.8047" id="Company" style="stroke:#A80036;stroke-width:1.5;" width="118" x="297.827" y="27.9531"/><ellipse cx="326.327" cy="43.9531" fill="#ADD1B2" rx="11" ry="11" style="stroke:#A80036;stroke-width:1.0;"/><path d="M328.6708,39.625 C327.7333,39.1875 327.1395,39.0469 326.2645,39.0469 C323.6395,39.0469 321.6395,41.125 321.6395,43.8438 L321.6395,44.9688 C321.6395,47.5469 323.7489,49.4375 326.6395,49.4375 C327.8583,49.4375 329.0145,49.1406 329.7645,48.5938 C330.3426,48.1875 330.6708,47.7344 330.6708,47.3438 C330.6708,46.8906 330.2801,46.5 329.8114,46.5 C329.5926,46.5 329.3895,46.5781 329.202,46.7656 C328.7489,47.25 328.7489,47.25 328.5614,47.3438 C328.1395,47.6094 327.452,47.7344 326.6864,47.7344 C324.6395,47.7344 323.3426,46.6406 323.3426,44.9375 L323.3426,43.8438 C323.3426,42.0625 324.5926,40.75 326.327,40.75 C326.9051,40.75 327.5145,40.9063 327.9833,41.1563 C328.4676,41.4375 328.6395,41.6563 328.7333,42.0625 C328.7958,42.4688 328.827,42.5938 328.9676,42.7188 C329.1083,42.8594 329.3426,42.9688 329.5614,42.9688 C329.827,42.9688 330.0926,42.8281 330.2645,42.6094 C330.3739,42.4531 330.4051,42.2656 330.4051,41.8438 L330.4051,40.4219 C330.4051,39.9844 330.3895,39.8594 330.2958,39.7031 C330.1395,39.4375 329.8583,39.2969 329.5614,39.2969 C329.2645,39.2969 329.0614,39.3906 328.8426,39.7031 L328.6708,39.625 Z " fill="#000000"/><text fill="#000000" font-family="sans-serif" font-size="12" lengthAdjust="spacing" textLength="56" x="343.327" y="48.1074">Company</text><line style="stroke:#A80036;stroke-width:1.5;" x1="298.827" x2="414.827" y1="59.9531" y2="59.9531"/><text fill="#000000" font-family="sans-serif" font-size="11" lengthAdjust="spacing" textLength="106" x="303.827" y="74.1636">String designation;</text><line style="stroke:#A80036;stroke-width:1.5;" x1="298.827" x2="414.827" y1="80.7578" y2="80.7578"/><!--MD5=[aeb3272166074d8737a70b61b1e71682]
class TestType--><rect codeLine="27" fill="#FEFECE" filter="url(#fyk1wi8s3eggd)" height="86.4141" id="TestType" style="stroke:#A80036;stroke-width:1.5;" width="154" x="364.827" y="1005.9531"/><ellipse cx="409.577" cy="1021.9531" fill="#ADD1B2" rx="11" ry="11" style="stroke:#A80036;stroke-width:1.0;"/><path d="M411.9208,1017.625 C410.9833,1017.1875 410.3895,1017.0469 409.5145,1017.0469 C406.8895,1017.0469 404.8895,1019.125 404.8895,1021.8438 L404.8895,1022.9688 C404.8895,1025.5469 406.9989,1027.4375 409.8895,1027.4375 C411.1083,1027.4375 412.2645,1027.1406 413.0145,1026.5938 C413.5926,1026.1875 413.9208,1025.7344 413.9208,1025.3438 C413.9208,1024.8906 413.5301,1024.5 413.0614,1024.5 C412.8426,1024.5 412.6395,1024.5781 412.452,1024.7656 C411.9989,1025.25 411.9989,1025.25 411.8114,1025.3438 C411.3895,1025.6094 410.702,1025.7344 409.9364,1025.7344 C407.8895,1025.7344 406.5926,1024.6406 406.5926,1022.9375 L406.5926,1021.8438 C406.5926,1020.0625 407.8426,1018.75 409.577,1018.75 C410.1551,1018.75 410.7645,1018.9063 411.2333,1019.1563 C411.7176,1019.4375 411.8895,1019.6563 411.9833,1020.0625 C412.0458,1020.4688 412.077,1020.5938 412.2176,1020.7188 C412.3583,1020.8594 412.5926,1020.9688 412.8114,1020.9688 C413.077,1020.9688 413.3426,1020.8281 413.5145,1020.6094 C413.6239,1020.4531 413.6551,1020.2656 413.6551,1019.8438 L413.6551,1018.4219 C413.6551,1017.9844 413.6395,1017.8594 413.5458,1017.7031 C413.3895,1017.4375 413.1083,1017.2969 412.8114,1017.2969 C412.5145,1017.2969 412.3114,1017.3906 412.0926,1017.7031 L411.9208,1017.625 Z " fill="#000000"/><text fill="#000000" font-family="sans-serif" font-size="12" lengthAdjust="spacing" textLength="56" x="430.077" y="1026.1074">TestType</text><line style="stroke:#A80036;stroke-width:1.5;" x1="365.827" x2="517.827" y1="1037.9531" y2="1037.9531"/><text fill="#000000" font-family="sans-serif" font-size="11" lengthAdjust="spacing" textLength="106" x="370.827" y="1052.1636">String designation;</text><text fill="#000000" font-family="sans-serif" font-size="11" lengthAdjust="spacing" textLength="68" x="370.827" y="1064.9683">String code;</text><text fill="#000000" font-family="sans-serif" font-size="11" lengthAdjust="spacing" textLength="142" x="370.827" y="1077.7729">String collectingMethods;</text><line style="stroke:#A80036;stroke-width:1.5;" x1="365.827" x2="517.827" y1="1084.3672" y2="1084.3672"/><!--MD5=[1f6362a5c8f21d8d6a0fce68f3a92a4e]
class Parameter--><rect codeLine="33" fill="#FEFECE" filter="url(#fyk1wi8s3eggd)" height="73.6094" id="Parameter" style="stroke:#A80036;stroke-width:1.5;" width="118" x="428.827" y="1345.9531"/><ellipse cx="455.077" cy="1361.9531" fill="#ADD1B2" rx="11" ry="11" style="stroke:#A80036;stroke-width:1.0;"/><path d="M457.4208,1357.625 C456.4833,1357.1875 455.8895,1357.0469 455.0145,1357.0469 C452.3895,1357.0469 450.3895,1359.125 450.3895,1361.8438 L450.3895,1362.9688 C450.3895,1365.5469 452.4989,1367.4375 455.3895,1367.4375 C456.6083,1367.4375 457.7645,1367.1406 458.5145,1366.5938 C459.0926,1366.1875 459.4208,1365.7344 459.4208,1365.3438 C459.4208,1364.8906 459.0301,1364.5 458.5614,1364.5 C458.3426,1364.5 458.1395,1364.5781 457.952,1364.7656 C457.4989,1365.25 457.4989,1365.25 457.3114,1365.3438 C456.8895,1365.6094 456.202,1365.7344 455.4364,1365.7344 C453.3895,1365.7344 452.0926,1364.6406 452.0926,1362.9375 L452.0926,1361.8438 C452.0926,1360.0625 453.3426,1358.75 455.077,1358.75 C455.6551,1358.75 456.2645,1358.9063 456.7333,1359.1563 C457.2176,1359.4375 457.3895,1359.6563 457.4833,1360.0625 C457.5458,1360.4688 457.577,1360.5938 457.7176,1360.7188 C457.8583,1360.8594 458.0926,1360.9688 458.3114,1360.9688 C458.577,1360.9688 458.8426,1360.8281 459.0145,1360.6094 C459.1239,1360.4531 459.1551,1360.2656 459.1551,1359.8438 L459.1551,1358.4219 C459.1551,1357.9844 459.1395,1357.8594 459.0458,1357.7031 C458.8895,1357.4375 458.6083,1357.2969 458.3114,1357.2969 C458.0145,1357.2969 457.8114,1357.3906 457.5926,1357.7031 L457.4208,1357.625 Z " fill="#000000"/><text fill="#000000" font-family="sans-serif" font-size="12" lengthAdjust="spacing" textLength="61" x="471.577" y="1366.1074">Parameter</text><line style="stroke:#A80036;stroke-width:1.5;" x1="429.827" x2="545.827" y1="1377.9531" y2="1377.9531"/><text fill="#000000" font-family="sans-serif" font-size="11" lengthAdjust="spacing" textLength="106" x="434.827" y="1392.1636">String designation;</text><text fill="#000000" font-family="sans-serif" font-size="11" lengthAdjust="spacing" textLength="68" x="434.827" y="1404.9683">String code;</text><line style="stroke:#A80036;stroke-width:1.5;" x1="429.827" x2="545.827" y1="1411.5625" y2="1411.5625"/><!--MD5=[0f07739f46effee96e095e9c408da841]
class TestParameter--><rect codeLine="38" fill="#FEFECE" filter="url(#fyk1wi8s3eggd)" height="73.6094" id="TestParameter" style="stroke:#A80036;stroke-width:1.5;" width="195" x="387.327" y="1194.9531"/><ellipse cx="437.077" cy="1210.9531" fill="#ADD1B2" rx="11" ry="11" style="stroke:#A80036;stroke-width:1.0;"/><path d="M439.4208,1206.625 C438.4833,1206.1875 437.8895,1206.0469 437.0145,1206.0469 C434.3895,1206.0469 432.3895,1208.125 432.3895,1210.8438 L432.3895,1211.9688 C432.3895,1214.5469 434.4989,1216.4375 437.3895,1216.4375 C438.6083,1216.4375 439.7645,1216.1406 440.5145,1215.5938 C441.0926,1215.1875 441.4208,1214.7344 441.4208,1214.3438 C441.4208,1213.8906 441.0301,1213.5 440.5614,1213.5 C440.3426,1213.5 440.1395,1213.5781 439.952,1213.7656 C439.4989,1214.25 439.4989,1214.25 439.3114,1214.3438 C438.8895,1214.6094 438.202,1214.7344 437.4364,1214.7344 C435.3895,1214.7344 434.0926,1213.6406 434.0926,1211.9375 L434.0926,1210.8438 C434.0926,1209.0625 435.3426,1207.75 437.077,1207.75 C437.6551,1207.75 438.2645,1207.9063 438.7333,1208.1563 C439.2176,1208.4375 439.3895,1208.6563 439.4833,1209.0625 C439.5458,1209.4688 439.577,1209.5938 439.7176,1209.7188 C439.8583,1209.8594 440.0926,1209.9688 440.3114,1209.9688 C440.577,1209.9688 440.8426,1209.8281 441.0145,1209.6094 C441.1239,1209.4531 441.1551,1209.2656 441.1551,1208.8438 L441.1551,1207.4219 C441.1551,1206.9844 441.1395,1206.8594 441.0458,1206.7031 C440.8895,1206.4375 440.6083,1206.2969 440.3114,1206.2969 C440.0145,1206.2969 439.8114,1206.3906 439.5926,1206.7031 L439.4208,1206.625 Z " fill="#000000"/><text fill="#000000" font-family="sans-serif" font-size="12" lengthAdjust="spacing" textLength="87" x="457.577" y="1215.1074">TestParameter</text><line style="stroke:#A80036;stroke-width:1.5;" x1="388.327" x2="581.327" y1="1226.9531" y2="1226.9531"/><text fill="#000000" font-family="sans-serif" font-size="11" lengthAdjust="spacing" textLength="162" x="393.327" y="1241.1636">Parameter testedParameter;</text><text fill="#000000" font-family="sans-serif" font-size="11" lengthAdjust="spacing" textLength="183" x="393.327" y="1253.9683">TestParameterResult testResult;</text><line style="stroke:#A80036;stroke-width:1.5;" x1="388.327" x2="581.327" y1="1260.5625" y2="1260.5625"/><!--MD5=[1c357e7e7fdba398bcadd6e61afe49f5]
class ReferenceValue--><rect codeLine="43" fill="#FEFECE" filter="url(#fyk1wi8s3eggd)" height="48" id="ReferenceValue" style="stroke:#A80036;stroke-width:1.5;" width="127" x="801.327" y="1207.9531"/><ellipse cx="816.327" cy="1223.9531" fill="#ADD1B2" rx="11" ry="11" style="stroke:#A80036;stroke-width:1.0;"/><path d="M818.6708,1219.625 C817.7333,1219.1875 817.1395,1219.0469 816.2645,1219.0469 C813.6395,1219.0469 811.6395,1221.125 811.6395,1223.8438 L811.6395,1224.9688 C811.6395,1227.5469 813.7489,1229.4375 816.6395,1229.4375 C817.8583,1229.4375 819.0145,1229.1406 819.7645,1228.5938 C820.3426,1228.1875 820.6708,1227.7344 820.6708,1227.3438 C820.6708,1226.8906 820.2801,1226.5 819.8114,1226.5 C819.5926,1226.5 819.3895,1226.5781 819.202,1226.7656 C818.7489,1227.25 818.7489,1227.25 818.5614,1227.3438 C818.1395,1227.6094 817.452,1227.7344 816.6864,1227.7344 C814.6395,1227.7344 813.3426,1226.6406 813.3426,1224.9375 L813.3426,1223.8438 C813.3426,1222.0625 814.5926,1220.75 816.327,1220.75 C816.9051,1220.75 817.5145,1220.9063 817.9833,1221.1563 C818.4676,1221.4375 818.6395,1221.6563 818.7333,1222.0625 C818.7958,1222.4688 818.827,1222.5938 818.9676,1222.7188 C819.1083,1222.8594 819.3426,1222.9688 819.5614,1222.9688 C819.827,1222.9688 820.0926,1222.8281 820.2645,1222.6094 C820.3739,1222.4531 820.4051,1222.2656 820.4051,1221.8438 L820.4051,1220.4219 C820.4051,1219.9844 820.3895,1219.8594 820.2958,1219.7031 C820.1395,1219.4375 819.8583,1219.2969 819.5614,1219.2969 C819.2645,1219.2969 819.0614,1219.3906 818.8426,1219.7031 L818.6708,1219.625 Z " fill="#000000"/><text fill="#000000" font-family="sans-serif" font-size="12" lengthAdjust="spacing" textLength="95" x="830.327" y="1228.1074">ReferenceValue</text><line style="stroke:#A80036;stroke-width:1.5;" x1="802.327" x2="927.327" y1="1239.9531" y2="1239.9531"/><line style="stroke:#A80036;stroke-width:1.5;" x1="802.327" x2="927.327" y1="1247.9531" y2="1247.9531"/><!--MD5=[4e608140b854dae633589343bce77383]
class TestParameterResult--><rect codeLine="45" fill="#FEFECE" filter="url(#fyk1wi8s3eggd)" height="99.2188" id="TestParameterResult" style="stroke:#A80036;stroke-width:1.5;" width="161" x="650.327" y="999.4531"/><ellipse cx="668.027" cy="1015.4531" fill="#ADD1B2" rx="11" ry="11" style="stroke:#A80036;stroke-width:1.0;"/><path d="M670.3708,1011.125 C669.4333,1010.6875 668.8395,1010.5469 667.9645,1010.5469 C665.3395,1010.5469 663.3395,1012.625 663.3395,1015.3438 L663.3395,1016.4688 C663.3395,1019.0469 665.4489,1020.9375 668.3395,1020.9375 C669.5583,1020.9375 670.7145,1020.6406 671.4645,1020.0938 C672.0426,1019.6875 672.3708,1019.2344 672.3708,1018.8438 C672.3708,1018.3906 671.9801,1018 671.5114,1018 C671.2926,1018 671.0895,1018.0781 670.902,1018.2656 C670.4489,1018.75 670.4489,1018.75 670.2614,1018.8438 C669.8395,1019.1094 669.152,1019.2344 668.3864,1019.2344 C666.3395,1019.2344 665.0426,1018.1406 665.0426,1016.4375 L665.0426,1015.3438 C665.0426,1013.5625 666.2926,1012.25 668.027,1012.25 C668.6051,1012.25 669.2145,1012.4063 669.6833,1012.6563 C670.1676,1012.9375 670.3395,1013.1563 670.4333,1013.5625 C670.4958,1013.9688 670.527,1014.0938 670.6676,1014.2188 C670.8083,1014.3594 671.0426,1014.4688 671.2614,1014.4688 C671.527,1014.4688 671.7926,1014.3281 671.9645,1014.1094 C672.0739,1013.9531 672.1051,1013.7656 672.1051,1013.3438 L672.1051,1011.9219 C672.1051,1011.4844 672.0895,1011.3594 671.9958,1011.2031 C671.8395,1010.9375 671.5583,1010.7969 671.2614,1010.7969 C670.9645,1010.7969 670.7614,1010.8906 670.5426,1011.2031 L670.3708,1011.125 Z " fill="#000000"/><text fill="#000000" font-family="sans-serif" font-size="12" lengthAdjust="spacing" textLength="123" x="682.627" y="1019.6074">TestParameterResult</text><line style="stroke:#A80036;stroke-width:1.5;" x1="651.327" x2="810.327" y1="1031.4531" y2="1031.4531"/><text fill="#000000" font-family="sans-serif" font-size="11" lengthAdjust="spacing" textLength="72" x="656.327" y="1045.6636">String value;</text><text fill="#000000" font-family="sans-serif" font-size="11" lengthAdjust="spacing" textLength="76" x="656.327" y="1058.4683">String metric;</text><text fill="#000000" font-family="sans-serif" font-size="11" lengthAdjust="spacing" textLength="91" x="656.327" y="1071.2729">Date createdAt;</text><text fill="#000000" font-family="sans-serif" font-size="11" lengthAdjust="spacing" textLength="149" x="656.327" y="1084.0776">ReferenceValue refValue;</text><line style="stroke:#A80036;stroke-width:1.5;" x1="651.327" x2="810.327" y1="1090.6719" y2="1090.6719"/><!--MD5=[8f188b89eff49accb0f38c057b38a9f2]
class ExternalModule--><rect codeLine="52" fill="#FEFECE" filter="url(#fyk1wi8s3eggd)" height="48" id="ExternalModule" style="stroke:#A80036;stroke-width:1.5;" width="125" x="980.327" y="784.4531"/><ellipse cx="995.327" cy="800.4531" fill="#B4A7E5" rx="11" ry="11" style="stroke:#A80036;stroke-width:1.0;"/><path d="M996.2801,797.2344 L997.9989,797.2344 C998.3895,797.2344 998.577,797.2031 998.702,797.125 C998.9676,796.9688 999.1083,796.6875 999.1083,796.3906 C999.1083,796.125 998.9989,795.8594 998.7645,795.6875 C998.5926,795.5781 998.452,795.5469 997.9989,795.5469 L992.8583,795.5469 C992.4208,795.5469 992.2958,795.5625 992.1395,795.6563 C991.8895,795.8125 991.7333,796.1094 991.7333,796.3906 C991.7333,796.6719 991.8739,796.9219 992.0926,797.0938 C992.2489,797.2031 992.4364,797.2344 992.8583,797.2344 L994.577,797.2344 L994.577,803.75 L992.8583,803.75 C992.4208,803.75 992.2958,803.7656 992.1395,803.875 C991.8895,804.0313 991.7333,804.3125 991.7333,804.6094 C991.7333,804.8594 991.8739,805.125 992.0926,805.2813 C992.2489,805.4063 992.452,805.4531 992.8583,805.4531 L997.9989,805.4531 C998.7489,805.4531 999.1083,805.1719 999.1083,804.6094 C999.1083,804.3281 998.9989,804.0781 998.7645,803.9063 C998.5926,803.7813 998.452,803.75 997.9989,803.75 L996.2801,803.75 L996.2801,797.2344 Z " fill="#000000"/><text fill="#000000" font-family="sans-serif" font-size="12" font-style="italic" lengthAdjust="spacing" textLength="93" x="1009.327" y="804.6074">ExternalModule</text><line style="stroke:#A80036;stroke-width:1.5;" x1="981.327" x2="1104.327" y1="816.4531" y2="816.4531"/><line style="stroke:#A80036;stroke-width:1.5;" x1="981.327" x2="1104.327" y1="824.4531" y2="824.4531"/><!--MD5=[0f11f0f60ee567100a99d4d7b98e8e2f]
class ExternalModuleAdapter1--><rect codeLine="54" fill="#FEFECE" filter="url(#fyk1wi8s3eggd)" height="48" id="ExternalModuleAdapter1" style="stroke:#A80036;stroke-width:1.5;" width="179" x="846.327" y="1024.9531"/><ellipse cx="861.327" cy="1040.9531" fill="#ADD1B2" rx="11" ry="11" style="stroke:#A80036;stroke-width:1.0;"/><path d="M863.6708,1036.625 C862.7333,1036.1875 862.1395,1036.0469 861.2645,1036.0469 C858.6395,1036.0469 856.6395,1038.125 856.6395,1040.8438 L856.6395,1041.9688 C856.6395,1044.5469 858.7489,1046.4375 861.6395,1046.4375 C862.8583,1046.4375 864.0145,1046.1406 864.7645,1045.5938 C865.3426,1045.1875 865.6708,1044.7344 865.6708,1044.3438 C865.6708,1043.8906 865.2801,1043.5 864.8114,1043.5 C864.5926,1043.5 864.3895,1043.5781 864.202,1043.7656 C863.7489,1044.25 863.7489,1044.25 863.5614,1044.3438 C863.1395,1044.6094 862.452,1044.7344 861.6864,1044.7344 C859.6395,1044.7344 858.3426,1043.6406 858.3426,1041.9375 L858.3426,1040.8438 C858.3426,1039.0625 859.5926,1037.75 861.327,1037.75 C861.9051,1037.75 862.5145,1037.9063 862.9833,1038.1563 C863.4676,1038.4375 863.6395,1038.6563 863.7333,1039.0625 C863.7958,1039.4688 863.827,1039.5938 863.9676,1039.7188 C864.1083,1039.8594 864.3426,1039.9688 864.5614,1039.9688 C864.827,1039.9688 865.0926,1039.8281 865.2645,1039.6094 C865.3739,1039.4531 865.4051,1039.2656 865.4051,1038.8438 L865.4051,1037.4219 C865.4051,1036.9844 865.3895,1036.8594 865.2958,1036.7031 C865.1395,1036.4375 864.8583,1036.2969 864.5614,1036.2969 C864.2645,1036.2969 864.0614,1036.3906 863.8426,1036.7031 L863.6708,1036.625 Z " fill="#000000"/><text fill="#000000" font-family="sans-serif" font-size="12" lengthAdjust="spacing" textLength="147" x="875.327" y="1045.1074">ExternalModuleAdapter1</text><line style="stroke:#A80036;stroke-width:1.5;" x1="847.327" x2="1024.327" y1="1056.9531" y2="1056.9531"/><line style="stroke:#A80036;stroke-width:1.5;" x1="847.327" x2="1024.327" y1="1064.9531" y2="1064.9531"/><!--MD5=[2191233c03d1d98f88ead7aa4dd76da0]
class ExternalModuleAdapter2--><rect codeLine="56" fill="#FEFECE" filter="url(#fyk1wi8s3eggd)" height="48" id="ExternalModuleAdapter2" style="stroke:#A80036;stroke-width:1.5;" width="180" x="1060.827" y="1024.9531"/><ellipse cx="1075.827" cy="1040.9531" fill="#ADD1B2" rx="11" ry="11" style="stroke:#A80036;stroke-width:1.0;"/><path d="M1078.1708,1036.625 C1077.2333,1036.1875 1076.6395,1036.0469 1075.7645,1036.0469 C1073.1395,1036.0469 1071.1395,1038.125 1071.1395,1040.8438 L1071.1395,1041.9688 C1071.1395,1044.5469 1073.2489,1046.4375 1076.1395,1046.4375 C1077.3583,1046.4375 1078.5145,1046.1406 1079.2645,1045.5938 C1079.8426,1045.1875 1080.1708,1044.7344 1080.1708,1044.3438 C1080.1708,1043.8906 1079.7801,1043.5 1079.3114,1043.5 C1079.0926,1043.5 1078.8895,1043.5781 1078.702,1043.7656 C1078.2489,1044.25 1078.2489,1044.25 1078.0614,1044.3438 C1077.6395,1044.6094 1076.952,1044.7344 1076.1864,1044.7344 C1074.1395,1044.7344 1072.8426,1043.6406 1072.8426,1041.9375 L1072.8426,1040.8438 C1072.8426,1039.0625 1074.0926,1037.75 1075.827,1037.75 C1076.4051,1037.75 1077.0145,1037.9063 1077.4833,1038.1563 C1077.9676,1038.4375 1078.1395,1038.6563 1078.2333,1039.0625 C1078.2958,1039.4688 1078.327,1039.5938 1078.4676,1039.7188 C1078.6083,1039.8594 1078.8426,1039.9688 1079.0614,1039.9688 C1079.327,1039.9688 1079.5926,1039.8281 1079.7645,1039.6094 C1079.8739,1039.4531 1079.9051,1039.2656 1079.9051,1038.8438 L1079.9051,1037.4219 C1079.9051,1036.9844 1079.8895,1036.8594 1079.7958,1036.7031 C1079.6395,1036.4375 1079.3583,1036.2969 1079.0614,1036.2969 C1078.7645,1036.2969 1078.5614,1036.3906 1078.3426,1036.7031 L1078.1708,1036.625 Z " fill="#000000"/><text fill="#000000" font-family="sans-serif" font-size="12" lengthAdjust="spacing" textLength="148" x="1089.827" y="1045.1074">ExternalModuleAdapter2</text><line style="stroke:#A80036;stroke-width:1.5;" x1="1061.827" x2="1239.827" y1="1056.9531" y2="1056.9531"/><line style="stroke:#A80036;stroke-width:1.5;" x1="1061.827" x2="1239.827" y1="1064.9531" y2="1064.9531"/><!--MD5=[63386ce01156be326996be41135b9514]
class ExternalModuleAdapter3--><rect codeLine="58" fill="#FEFECE" filter="url(#fyk1wi8s3eggd)" height="48" id="ExternalModuleAdapter3" style="stroke:#A80036;stroke-width:1.5;" width="180" x="1275.827" y="1024.9531"/><ellipse cx="1290.827" cy="1040.9531" fill="#ADD1B2" rx="11" ry="11" style="stroke:#A80036;stroke-width:1.0;"/><path d="M1293.1708,1036.625 C1292.2333,1036.1875 1291.6395,1036.0469 1290.7645,1036.0469 C1288.1395,1036.0469 1286.1395,1038.125 1286.1395,1040.8438 L1286.1395,1041.9688 C1286.1395,1044.5469 1288.2489,1046.4375 1291.1395,1046.4375 C1292.3583,1046.4375 1293.5145,1046.1406 1294.2645,1045.5938 C1294.8426,1045.1875 1295.1708,1044.7344 1295.1708,1044.3438 C1295.1708,1043.8906 1294.7801,1043.5 1294.3114,1043.5 C1294.0926,1043.5 1293.8895,1043.5781 1293.702,1043.7656 C1293.2489,1044.25 1293.2489,1044.25 1293.0614,1044.3438 C1292.6395,1044.6094 1291.952,1044.7344 1291.1864,1044.7344 C1289.1395,1044.7344 1287.8426,1043.6406 1287.8426,1041.9375 L1287.8426,1040.8438 C1287.8426,1039.0625 1289.0926,1037.75 1290.827,1037.75 C1291.4051,1037.75 1292.0145,1037.9063 1292.4833,1038.1563 C1292.9676,1038.4375 1293.1395,1038.6563 1293.2333,1039.0625 C1293.2958,1039.4688 1293.327,1039.5938 1293.4676,1039.7188 C1293.6083,1039.8594 1293.8426,1039.9688 1294.0614,1039.9688 C1294.327,1039.9688 1294.5926,1039.8281 1294.7645,1039.6094 C1294.8739,1039.4531 1294.9051,1039.2656 1294.9051,1038.8438 L1294.9051,1037.4219 C1294.9051,1036.9844 1294.8895,1036.8594 1294.7958,1036.7031 C1294.6395,1036.4375 1294.3583,1036.2969 1294.0614,1036.2969 C1293.7645,1036.2969 1293.5614,1036.3906 1293.3426,1036.7031 L1293.1708,1036.625 Z " fill="#000000"/><text fill="#000000" font-family="sans-serif" font-size="12" lengthAdjust="spacing" textLength="148" x="1304.827" y="1045.1074">ExternalModuleAdapter3</text><line style="stroke:#A80036;stroke-width:1.5;" x1="1276.827" x2="1454.827" y1="1056.9531" y2="1056.9531"/><line style="stroke:#A80036;stroke-width:1.5;" x1="1276.827" x2="1454.827" y1="1064.9531" y2="1064.9531"/><!--MD5=[df38be88ccee13e832d6fafd6288a4ca]
class Test--><rect codeLine="60" fill="#FEFECE" filter="url(#fyk1wi8s3eggd)" height="188.8516" id="Test" style="stroke:#A80036;stroke-width:1.5;" width="159" x="182.327" y="713.9531"/><ellipse cx="244.577" cy="729.9531" fill="#ADD1B2" rx="11" ry="11" style="stroke:#A80036;stroke-width:1.0;"/><path d="M246.9208,725.625 C245.9833,725.1875 245.3895,725.0469 244.5145,725.0469 C241.8895,725.0469 239.8895,727.125 239.8895,729.8438 L239.8895,730.9688 C239.8895,733.5469 241.9989,735.4375 244.8895,735.4375 C246.1083,735.4375 247.2645,735.1406 248.0145,734.5938 C248.5926,734.1875 248.9208,733.7344 248.9208,733.3438 C248.9208,732.8906 248.5301,732.5 248.0614,732.5 C247.8426,732.5 247.6395,732.5781 247.452,732.7656 C246.9989,733.25 246.9989,733.25 246.8114,733.3438 C246.3895,733.6094 245.702,733.7344 244.9364,733.7344 C242.8895,733.7344 241.5926,732.6406 241.5926,730.9375 L241.5926,729.8438 C241.5926,728.0625 242.8426,726.75 244.577,726.75 C245.1551,726.75 245.7645,726.9063 246.2333,727.1563 C246.7176,727.4375 246.8895,727.6563 246.9833,728.0625 C247.0458,728.4688 247.077,728.5938 247.2176,728.7188 C247.3583,728.8594 247.5926,728.9688 247.8114,728.9688 C248.077,728.9688 248.3426,728.8281 248.5145,728.6094 C248.6239,728.4531 248.6551,728.2656 248.6551,727.8438 L248.6551,726.4219 C248.6551,725.9844 248.6395,725.8594 248.5458,725.7031 C248.3895,725.4375 248.1083,725.2969 247.8114,725.2969 C247.5145,725.2969 247.3114,725.3906 247.0926,725.7031 L246.9208,725.625 Z " fill="#000000"/><text fill="#000000" font-family="sans-serif" font-size="12" lengthAdjust="spacing" textLength="26" x="265.077" y="734.1074">Test</text><line style="stroke:#A80036;stroke-width:1.5;" x1="183.327" x2="340.327" y1="745.9531" y2="745.9531"/><text fill="#000000" font-family="sans-serif" font-size="11" lengthAdjust="spacing" textLength="68" x="188.327" y="760.1636">String code;</text><text fill="#000000" font-family="sans-serif" font-size="11" lengthAdjust="spacing" textLength="94" x="188.327" y="772.9683">String NHSCode;</text><text fill="#000000" font-family="sans-serif" font-size="11" lengthAdjust="spacing" textLength="94" x="188.327" y="785.7729">String testResult</text><text fill="#000000" font-family="sans-serif" font-size="11" lengthAdjust="spacing" textLength="110" x="188.327" y="798.5776">String dateSample;</text><text fill="#000000" font-family="sans-serif" font-size="11" lengthAdjust="spacing" textLength="110" x="188.327" y="811.3823">String timeSmaple;</text><text fill="#000000" font-family="sans-serif" font-size="11" lengthAdjust="spacing" textLength="147" x="188.327" y="824.187">String dateChemAnalysis;</text><text fill="#000000" font-family="sans-serif" font-size="11" lengthAdjust="spacing" textLength="147" x="188.327" y="836.9917">String timeChemAnalysis;</text><text fill="#000000" font-family="sans-serif" font-size="11" lengthAdjust="spacing" textLength="121" x="188.327" y="849.7964">String dateDiagnosis;</text><text fill="#000000" font-family="sans-serif" font-size="11" lengthAdjust="spacing" textLength="121" x="188.327" y="862.6011">String timeDiagnosis;</text><text fill="#000000" font-family="sans-serif" font-size="11" lengthAdjust="spacing" textLength="119" x="188.327" y="875.4058">String dateValidTest;</text><text fill="#000000" font-family="sans-serif" font-size="11" lengthAdjust="spacing" textLength="119" x="188.327" y="888.2104">String timeValidTest;</text><line style="stroke:#A80036;stroke-width:1.5;" x1="183.327" x2="340.327" y1="894.8047" y2="894.8047"/><!--MD5=[9681492165142af2a4a3a169d90ee8d4]
class Sample--><rect codeLine="74" fill="#FEFECE" filter="url(#fyk1wi8s3eggd)" height="48" id="Sample" style="stroke:#A80036;stroke-width:1.5;" width="77" x="492.327" y="588.9531"/><ellipse cx="507.327" cy="604.9531" fill="#ADD1B2" rx="11" ry="11" style="stroke:#A80036;stroke-width:1.0;"/><path d="M509.6708,600.625 C508.7333,600.1875 508.1395,600.0469 507.2645,600.0469 C504.6395,600.0469 502.6395,602.125 502.6395,604.8438 L502.6395,605.9688 C502.6395,608.5469 504.7489,610.4375 507.6395,610.4375 C508.8583,610.4375 510.0145,610.1406 510.7645,609.5938 C511.3426,609.1875 511.6708,608.7344 511.6708,608.3438 C511.6708,607.8906 511.2801,607.5 510.8114,607.5 C510.5926,607.5 510.3895,607.5781 510.202,607.7656 C509.7489,608.25 509.7489,608.25 509.5614,608.3438 C509.1395,608.6094 508.452,608.7344 507.6864,608.7344 C505.6395,608.7344 504.3426,607.6406 504.3426,605.9375 L504.3426,604.8438 C504.3426,603.0625 505.5926,601.75 507.327,601.75 C507.9051,601.75 508.5145,601.9063 508.9833,602.1563 C509.4676,602.4375 509.6395,602.6563 509.7333,603.0625 C509.7958,603.4688 509.827,603.5938 509.9676,603.7188 C510.1083,603.8594 510.3426,603.9688 510.5614,603.9688 C510.827,603.9688 511.0926,603.8281 511.2645,603.6094 C511.3739,603.4531 511.4051,603.2656 511.4051,602.8438 L511.4051,601.4219 C511.4051,600.9844 511.3895,600.8594 511.2958,600.7031 C511.1395,600.4375 510.8583,600.2969 510.5614,600.2969 C510.2645,600.2969 510.0614,600.3906 509.8426,600.7031 L509.6708,600.625 Z " fill="#000000"/><text fill="#000000" font-family="sans-serif" font-size="12" lengthAdjust="spacing" textLength="45" x="521.327" y="609.1074">Sample</text><line style="stroke:#A80036;stroke-width:1.5;" x1="493.327" x2="568.327" y1="620.9531" y2="620.9531"/><line style="stroke:#A80036;stroke-width:1.5;" x1="493.327" x2="568.327" y1="628.9531" y2="628.9531"/><!--MD5=[a64badb107d3691f2dc6af242cdbeb21]
class ChemicalLaboratory--><rect codeLine="76" fill="#FEFECE" filter="url(#fyk1wi8s3eggd)" height="48" id="ChemicalLaboratory" style="stroke:#A80036;stroke-width:1.5;" width="151" x="410.327" y="338.9531"/><ellipse cx="425.327" cy="354.9531" fill="#ADD1B2" rx="11" ry="11" style="stroke:#A80036;stroke-width:1.0;"/><path d="M427.6708,350.625 C426.7333,350.1875 426.1395,350.0469 425.2645,350.0469 C422.6395,350.0469 420.6395,352.125 420.6395,354.8438 L420.6395,355.9688 C420.6395,358.5469 422.7489,360.4375 425.6395,360.4375 C426.8583,360.4375 428.0145,360.1406 428.7645,359.5938 C429.3426,359.1875 429.6708,358.7344 429.6708,358.3438 C429.6708,357.8906 429.2801,357.5 428.8114,357.5 C428.5926,357.5 428.3895,357.5781 428.202,357.7656 C427.7489,358.25 427.7489,358.25 427.5614,358.3438 C427.1395,358.6094 426.452,358.7344 425.6864,358.7344 C423.6395,358.7344 422.3426,357.6406 422.3426,355.9375 L422.3426,354.8438 C422.3426,353.0625 423.5926,351.75 425.327,351.75 C425.9051,351.75 426.5145,351.9063 426.9833,352.1563 C427.4676,352.4375 427.6395,352.6563 427.7333,353.0625 C427.7958,353.4688 427.827,353.5938 427.9676,353.7188 C428.1083,353.8594 428.3426,353.9688 428.5614,353.9688 C428.827,353.9688 429.0926,353.8281 429.2645,353.6094 C429.3739,353.4531 429.4051,353.2656 429.4051,352.8438 L429.4051,351.4219 C429.4051,350.9844 429.3895,350.8594 429.2958,350.7031 C429.1395,350.4375 428.8583,350.2969 428.5614,350.2969 C428.2645,350.2969 428.0614,350.3906 427.8426,350.7031 L427.6708,350.625 Z " fill="#000000"/><text fill="#000000" font-family="sans-serif" font-size="12" lengthAdjust="spacing" textLength="119" x="439.327" y="359.1074">ChemicalLaboratory</text><line style="stroke:#A80036;stroke-width:1.5;" x1="411.327" x2="560.327" y1="370.9531" y2="370.9531"/><line style="stroke:#A80036;stroke-width:1.5;" x1="411.327" x2="560.327" y1="378.9531" y2="378.9531"/><!--MD5=[012ee2a8bf3ae2b319009b06f951c2e5]
class ClinicalChemistryTechnologist--><rect codeLine="78" fill="#FEFECE" filter="url(#fyk1wi8s3eggd)" height="48" id="ClinicalChemistryTechnologist" style="stroke:#A80036;stroke-width:1.5;" width="210" x="596.827" y="338.9531"/><ellipse cx="611.827" cy="354.9531" fill="#ADD1B2" rx="11" ry="11" style="stroke:#A80036;stroke-width:1.0;"/><path d="M614.1708,350.625 C613.2333,350.1875 612.6395,350.0469 611.7645,350.0469 C609.1395,350.0469 607.1395,352.125 607.1395,354.8438 L607.1395,355.9688 C607.1395,358.5469 609.2489,360.4375 612.1395,360.4375 C613.3583,360.4375 614.5145,360.1406 615.2645,359.5938 C615.8426,359.1875 616.1708,358.7344 616.1708,358.3438 C616.1708,357.8906 615.7801,357.5 615.3114,357.5 C615.0926,357.5 614.8895,357.5781 614.702,357.7656 C614.2489,358.25 614.2489,358.25 614.0614,358.3438 C613.6395,358.6094 612.952,358.7344 612.1864,358.7344 C610.1395,358.7344 608.8426,357.6406 608.8426,355.9375 L608.8426,354.8438 C608.8426,353.0625 610.0926,351.75 611.827,351.75 C612.4051,351.75 613.0145,351.9063 613.4833,352.1563 C613.9676,352.4375 614.1395,352.6563 614.2333,353.0625 C614.2958,353.4688 614.327,353.5938 614.4676,353.7188 C614.6083,353.8594 614.8426,353.9688 615.0614,353.9688 C615.327,353.9688 615.5926,353.8281 615.7645,353.6094 C615.8739,353.4531 615.9051,353.2656 615.9051,352.8438 L615.9051,351.4219 C615.9051,350.9844 615.8895,350.8594 615.7958,350.7031 C615.6395,350.4375 615.3583,350.2969 615.0614,350.2969 C614.7645,350.2969 614.5614,350.3906 614.3426,350.7031 L614.1708,350.625 Z " fill="#000000"/><text fill="#000000" font-family="sans-serif" font-size="12" lengthAdjust="spacing" textLength="178" x="625.827" y="359.1074">ClinicalChemistryTechnologist</text><line style="stroke:#A80036;stroke-width:1.5;" x1="597.827" x2="805.827" y1="370.9531" y2="370.9531"/><line style="stroke:#A80036;stroke-width:1.5;" x1="597.827" x2="805.827" y1="378.9531" y2="378.9531"/><!--MD5=[a05769ccb6ff68467d0f03d44782bb8a]
class ChemicalAnalysis--><rect codeLine="80" fill="#FEFECE" filter="url(#fyk1wi8s3eggd)" height="48" id="ChemicalAnalysis" style="stroke:#A80036;stroke-width:1.5;" width="135" x="465.327" y="463.9531"/><ellipse cx="480.327" cy="479.9531" fill="#ADD1B2" rx="11" ry="11" style="stroke:#A80036;stroke-width:1.0;"/><path d="M482.6708,475.625 C481.7333,475.1875 481.1395,475.0469 480.2645,475.0469 C477.6395,475.0469 475.6395,477.125 475.6395,479.8438 L475.6395,480.9688 C475.6395,483.5469 477.7489,485.4375 480.6395,485.4375 C481.8583,485.4375 483.0145,485.1406 483.7645,484.5938 C484.3426,484.1875 484.6708,483.7344 484.6708,483.3438 C484.6708,482.8906 484.2801,482.5 483.8114,482.5 C483.5926,482.5 483.3895,482.5781 483.202,482.7656 C482.7489,483.25 482.7489,483.25 482.5614,483.3438 C482.1395,483.6094 481.452,483.7344 480.6864,483.7344 C478.6395,483.7344 477.3426,482.6406 477.3426,480.9375 L477.3426,479.8438 C477.3426,478.0625 478.5926,476.75 480.327,476.75 C480.9051,476.75 481.5145,476.9063 481.9833,477.1563 C482.4676,477.4375 482.6395,477.6563 482.7333,478.0625 C482.7958,478.4688 482.827,478.5938 482.9676,478.7188 C483.1083,478.8594 483.3426,478.9688 483.5614,478.9688 C483.827,478.9688 484.0926,478.8281 484.2645,478.6094 C484.3739,478.4531 484.4051,478.2656 484.4051,477.8438 L484.4051,476.4219 C484.4051,475.9844 484.3895,475.8594 484.2958,475.7031 C484.1395,475.4375 483.8583,475.2969 483.5614,475.2969 C483.2645,475.2969 483.0614,475.3906 482.8426,475.7031 L482.6708,475.625 Z " fill="#000000"/><text fill="#000000" font-family="sans-serif" font-size="12" lengthAdjust="spacing" textLength="103" x="494.327" y="484.1074">ChemicalAnalysis</text><line style="stroke:#A80036;stroke-width:1.5;" x1="466.327" x2="599.327" y1="495.9531" y2="495.9531"/><line style="stroke:#A80036;stroke-width:1.5;" x1="466.327" x2="599.327" y1="503.9531" y2="503.9531"/><!--MD5=[da547346deef918ea16944ba046651ef]
class Administrator--><rect fill="#FEFECE" filter="url(#fyk1wi8s3eggd)" height="48" id="Administrator" style="stroke:#A80036;stroke-width:1.5;" width="112" x="330.827" y="1496.9531"/><ellipse cx="345.827" cy="1512.9531" fill="#ADD1B2" rx="11" ry="11" style="stroke:#A80036;stroke-width:1.0;"/><path d="M348.1708,1508.625 C347.2333,1508.1875 346.6395,1508.0469 345.7645,1508.0469 C343.1395,1508.0469 341.1395,1510.125 341.1395,1512.8438 L341.1395,1513.9688 C341.1395,1516.5469 343.2489,1518.4375 346.1395,1518.4375 C347.3583,1518.4375 348.5145,1518.1406 349.2645,1517.5938 C349.8426,1517.1875 350.1708,1516.7344 350.1708,1516.3438 C350.1708,1515.8906 349.7801,1515.5 349.3114,1515.5 C349.0926,1515.5 348.8895,1515.5781 348.702,1515.7656 C348.2489,1516.25 348.2489,1516.25 348.0614,1516.3438 C347.6395,1516.6094 346.952,1516.7344 346.1864,1516.7344 C344.1395,1516.7344 342.8426,1515.6406 342.8426,1513.9375 L342.8426,1512.8438 C342.8426,1511.0625 344.0926,1509.75 345.827,1509.75 C346.4051,1509.75 347.0145,1509.9063 347.4833,1510.1563 C347.9676,1510.4375 348.1395,1510.6563 348.2333,1511.0625 C348.2958,1511.4688 348.327,1511.5938 348.4676,1511.7188 C348.6083,1511.8594 348.8426,1511.9688 349.0614,1511.9688 C349.327,1511.9688 349.5926,1511.8281 349.7645,1511.6094 C349.8739,1511.4531 349.9051,1511.2656 349.9051,1510.8438 L349.9051,1509.4219 C349.9051,1508.9844 349.8895,1508.8594 349.7958,1508.7031 C349.6395,1508.4375 349.3583,1508.2969 349.0614,1508.2969 C348.7645,1508.2969 348.5614,1508.3906 348.3426,1508.7031 L348.1708,1508.625 Z " fill="#000000"/><text fill="#000000" font-family="sans-serif" font-size="12" lengthAdjust="spacing" textLength="80" x="359.827" y="1517.1074">Administrator</text><line style="stroke:#A80036;stroke-width:1.5;" x1="331.827" x2="441.827" y1="1528.9531" y2="1528.9531"/><line style="stroke:#A80036;stroke-width:1.5;" x1="331.827" x2="441.827" y1="1536.9531" y2="1536.9531"/><!--MD5=[36afb6bbd95a8ac778c4537c55a683d5]
class ParameterCategory--><rect fill="#FEFECE" filter="url(#fyk1wi8s3eggd)" height="48" id="ParameterCategory" style="stroke:#A80036;stroke-width:1.5;" width="148" x="617.827" y="1207.9531"/><ellipse cx="632.827" cy="1223.9531" fill="#ADD1B2" rx="11" ry="11" style="stroke:#A80036;stroke-width:1.0;"/><path d="M635.1708,1219.625 C634.2333,1219.1875 633.6395,1219.0469 632.7645,1219.0469 C630.1395,1219.0469 628.1395,1221.125 628.1395,1223.8438 L628.1395,1224.9688 C628.1395,1227.5469 630.2489,1229.4375 633.1395,1229.4375 C634.3583,1229.4375 635.5145,1229.1406 636.2645,1228.5938 C636.8426,1228.1875 637.1708,1227.7344 637.1708,1227.3438 C637.1708,1226.8906 636.7801,1226.5 636.3114,1226.5 C636.0926,1226.5 635.8895,1226.5781 635.702,1226.7656 C635.2489,1227.25 635.2489,1227.25 635.0614,1227.3438 C634.6395,1227.6094 633.952,1227.7344 633.1864,1227.7344 C631.1395,1227.7344 629.8426,1226.6406 629.8426,1224.9375 L629.8426,1223.8438 C629.8426,1222.0625 631.0926,1220.75 632.827,1220.75 C633.4051,1220.75 634.0145,1220.9063 634.4833,1221.1563 C634.9676,1221.4375 635.1395,1221.6563 635.2333,1222.0625 C635.2958,1222.4688 635.327,1222.5938 635.4676,1222.7188 C635.6083,1222.8594 635.8426,1222.9688 636.0614,1222.9688 C636.327,1222.9688 636.5926,1222.8281 636.7645,1222.6094 C636.8739,1222.4531 636.9051,1222.2656 636.9051,1221.8438 L636.9051,1220.4219 C636.9051,1219.9844 636.8895,1219.8594 636.7958,1219.7031 C636.6395,1219.4375 636.3583,1219.2969 636.0614,1219.2969 C635.7645,1219.2969 635.5614,1219.3906 635.3426,1219.7031 L635.1708,1219.625 Z " fill="#000000"/><text fill="#000000" font-family="sans-serif" font-size="12" lengthAdjust="spacing" textLength="116" x="646.827" y="1228.1074">ParameterCategory</text><line style="stroke:#A80036;stroke-width:1.5;" x1="618.827" x2="764.827" y1="1239.9531" y2="1239.9531"/><line style="stroke:#A80036;stroke-width:1.5;" x1="618.827" x2="764.827" y1="1247.9531" y2="1247.9531"/><!--MD5=[cf4793ee9d8e468829d360120e63d908]
link Parameter to Administrator--><path codeLine="82" d="M461.026,1420.0411 C443.026,1444.2791 419.831,1475.5114 404.206,1496.5521 " fill="none" id="Parameter-Administrator" style="stroke:#A80036;stroke-width:1.0;"/><polygon fill="#000000" points="445.8081,1454.5054,438.0558,1460.0148,442.7747,1463.5193,445.8081,1454.5054" style="stroke:#000000;stroke-width:1.0;"/><text fill="#000000" font-family="sans-serif" font-size="13" lengthAdjust="spacing" textLength="99" x="451.827" y="1463.02">specifies a new</text><text fill="#000000" font-family="sans-serif" font-size="13" lengthAdjust="spacing" textLength="7" x="449.0074" y="1439.5363">*</text><text fill="#000000" font-family="sans-serif" font-size="13" lengthAdjust="spacing" textLength="8" x="399.4671" y="1485.8593">1</text><!--MD5=[6beb897f5cd7dce9af5285761df2048c]
link ChemicalAnalysis to Sample--><path codeLine="83" d="M532.451,512.0931 C532.093,534.0831 531.559,566.9651 531.201,588.9211 " fill="none" id="ChemicalAnalysis-Sample" style="stroke:#A80036;stroke-width:1.0;"/><polygon fill="#000000" points="537.7457,555.5189,540.8314,546.5228,534.9543,546.4272,537.7457,555.5189" style="stroke:#000000;stroke-width:1.0;"/><text fill="#000000" font-family="sans-serif" font-size="13" lengthAdjust="spacing" textLength="30" x="546.827" y="555.02">uses</text><text fill="#000000" font-family="sans-serif" font-size="13" lengthAdjust="spacing" textLength="8" x="523.3844" y="531.8885">1</text><text fill="#000000" font-family="sans-serif" font-size="13" lengthAdjust="spacing" textLength="7" x="523.4" y="577.925">*</text><!--MD5=[0e88ba9f0b8aeb4a6e3525d528d15e9e]
link ChemicalLaboratory to ChemicalAnalysis--><path codeLine="84" d="M437.925,387.1531 C418.688,399.7731 403.448,416.3731 414.827,433.9531 C426.417,451.8631 445.655,463.7831 465.269,471.6831 " fill="none" id="ChemicalLaboratory-ChemicalAnalysis" style="stroke:#A80036;stroke-width:1.0;"/><polygon fill="#000000" points="421.3659,430.2768,421.3783,420.7663,415.7858,422.5753,421.3659,430.2768" style="stroke:#000000;stroke-width:1.0;"/><text fill="#000000" font-family="sans-serif" font-size="13" lengthAdjust="spacing" textLength="59" x="428.827" y="430.02">performs</text><text fill="#000000" font-family="sans-serif" font-size="13" lengthAdjust="spacing" textLength="8" x="417.2739" y="406.9631">1</text><text fill="#000000" font-family="sans-serif" font-size="13" lengthAdjust="spacing" textLength="7" x="450.497" y="466.1574">*</text><!--MD5=[502b51bc079239060389dab43b7d3470]
link Client to Test--><path codeLine="85" d="M63.2489,979.8001 C59.7637,963.8311 59.9511,947.3031 67.827,932.9531 C92.2236,888.5021 140.159,857.7601 182.275,838.0651 " fill="none" id="Client-Test" style="stroke:#A80036;stroke-width:1.0;"/><polygon fill="#000000" points="76.0425,937.6906,67.9751,942.7272,72.4762,946.5072,76.0425,937.6906" style="stroke:#000000;stroke-width:1.0;"/><text fill="#000000" font-family="sans-serif" font-size="13" lengthAdjust="spacing" textLength="43" x="81.827" y="946.02">does a</text><text fill="#000000" font-family="sans-serif" font-size="13" lengthAdjust="spacing" textLength="8" x="60.1987" y="968.988">1</text><text fill="#000000" font-family="sans-serif" font-size="13" lengthAdjust="spacing" textLength="7" x="167.3591" y="837.253">*</text><!--MD5=[3994f36c72829dbcddd1cf7021dddf61]
link Test to Client--><path codeLine="101" d="M187.253,902.9811 C179.847,912.9771 172.58,923.0951 165.827,932.9531 C155.629,947.8401 145.283,964.2531 135.811,979.9031 " fill="none" id="Test-Client" style="stroke:#A80036;stroke-width:1.0;"/><polygon fill="#000000" points="168.0475,945.6758,175.5187,939.7908,170.6327,936.5233,168.0475,945.6758" style="stroke:#000000;stroke-width:1.0;"/><text fill="#000000" font-family="sans-serif" font-size="13" lengthAdjust="spacing" textLength="85" x="179.827" y="946.02">requested by</text><text fill="#000000" font-family="sans-serif" font-size="13" lengthAdjust="spacing" textLength="7" x="174.2755" y="922.8703">*</text><text fill="#000000" font-family="sans-serif" font-size="13" lengthAdjust="spacing" textLength="8" x="131.4187" y="969.1016">1</text><!--MD5=[9cca41bb1bc3a06e0dcc35b49de651f1]
link Client to TestParameter--><path codeLine="86" d="M129.567,1118.2191 C140.997,1135.8111 155.418,1153.1031 172.827,1164.9531 C235.873,1207.8671 321.406,1223.7081 386.972,1229.1851 " fill="none" id="Client-TestParameter" style="stroke:#A80036;stroke-width:1.0;"/><polygon fill="#000000" points="182.4185,1158.4989,175.2759,1152.2194,172.9489,1157.617,182.4185,1158.4989" style="stroke:#000000;stroke-width:1.0;"/><text fill="#000000" font-family="sans-serif" font-size="13" lengthAdjust="spacing" textLength="78" x="186.827" y="1161.02">consults the</text><text fill="#000000" font-family="sans-serif" font-size="13" lengthAdjust="spacing" textLength="8" x="124.3063" y="1137.6266">1</text><text fill="#000000" font-family="sans-serif" font-size="13" lengthAdjust="spacing" textLength="7" x="372.212" y="1225.4859">*</text><!--MD5=[896370d865016184ae9aa4dd069aa35d]
link ClinicalChemistryTechnologist to TestParameter--><path codeLine="87" d="M707.227,386.9831 C709.741,400.6431 711.787,418.2931 709.827,433.9531 C670.858,745.2051 639.409,821.8671 535.827,1117.9531 C526.623,1144.2631 513.68,1172.8701 503.137,1194.7191 " fill="none" id="ClinicalChemistryTechnologist-TestParameter" style="stroke:#A80036;stroke-width:1.0;"/><polygon fill="#000000" points="677.6022,680.3672,682.6673,672.3176,676.9686,670.8777,677.6022,680.3672" style="stroke:#000000;stroke-width:1.0;"/><text fill="#000000" font-family="sans-serif" font-size="13" lengthAdjust="spacing" textLength="48" x="687.827" y="680.02">records</text><text fill="#000000" font-family="sans-serif" font-size="13" lengthAdjust="spacing" textLength="8" x="699.5858" y="407.1466">1</text><text fill="#000000" font-family="sans-serif" font-size="13" lengthAdjust="spacing" textLength="7" x="498.775" y="1183.8644">*</text><!--MD5=[abeed2adb53773aed90060ff23689ea1]
link ClinicalChemistryTechnologist to ChemicalAnalysis--><path codeLine="88" d="M596.399,385.3231 C565.757,393.8031 538.026,404.5131 528.827,416.9531 C519.056,430.1631 520.703,448.9131 524.442,463.6731 " fill="none" id="ClinicalChemistryTechnologist-ChemicalAnalysis" style="stroke:#A80036;stroke-width:1.0;"/><polygon fill="#000000" points="530.4449,429.2021,538.7278,424.5282,534.3986,420.5523,530.4449,429.2021" style="stroke:#000000;stroke-width:1.0;"/><text fill="#000000" font-family="sans-serif" font-size="13" lengthAdjust="spacing" textLength="162" x="542.827" y="430.02">records the results of the</text><text fill="#000000" font-family="sans-serif" font-size="13" lengthAdjust="spacing" textLength="8" x="580.7049" y="383.4402">1</text><text fill="#000000" font-family="sans-serif" font-size="13" lengthAdjust="spacing" textLength="7" x="514.545" y="453.0098">*</text><!--MD5=[7e4bc624457760b649895ff2ead938fa]
link Company to Test--><path codeLine="89" d="M325.602,89.0431 C297.245,119.2431 259.827,168.9531 259.827,220.9531 C259.827,220.9531 259.827,220.9531 259.827,613.9531 C259.827,646.3731 260.111,681.8461 260.465,713.4641 " fill="none" id="Company-Test" style="stroke:#A80036;stroke-width:1.0;"/><polygon fill="#000000" points="264.3083,430.4925,268.1698,421.8012,262.3236,421.1914,264.3083,430.4925" style="stroke:#000000;stroke-width:1.0;"/><text fill="#000000" font-family="sans-serif" font-size="13" lengthAdjust="spacing" textLength="59" x="273.827" y="430.02">performs</text><text fill="#000000" font-family="sans-serif" font-size="13" lengthAdjust="spacing" textLength="8" x="310.3369" y="108.9999">1</text><text fill="#000000" font-family="sans-serif" font-size="13" lengthAdjust="spacing" textLength="7" x="253.108" y="703.0148">*</text><!--MD5=[6eee883fdf517d3604e8bd0f2058e9aa]
link Company to Client--><path codeLine="90" d="M297.691,61.2731 C199.337,67.8031 12.827,96.5831 12.827,220.9531 C12.827,220.9531 12.827,220.9531 12.827,809.4531 C12.827,869.3761 36.7087,933.2031 59.0044,979.7351 " fill="none" id="Company-Client" style="stroke:#A80036;stroke-width:1.0;"/><polygon fill="#000000" points="16.5694,492.8588,21.6889,484.8437,16,483.3653,16.5694,492.8588" style="stroke:#000000;stroke-width:1.0;"/><text fill="#000000" font-family="sans-serif" font-size="13" lengthAdjust="spacing" textLength="32" x="26.827" y="492.52">have</text><text fill="#000000" font-family="sans-serif" font-size="13" lengthAdjust="spacing" textLength="8" x="281.9963" y="57.7896">1</text><text fill="#000000" font-family="sans-serif" font-size="13" lengthAdjust="spacing" textLength="7" x="47.743" y="968.9163">*</text><!--MD5=[12d76240d3c3c66074d4ec2ea8bf469c]
link Company to Parameter--><path codeLine="91" d="M415.938,61.4431 C651.265,70.1331 1508.827,109.4331 1508.827,220.9531 C1508.827,220.9531 1508.827,220.9531 1508.827,1232.9531 C1508.827,1330.8051 765.04,1370.1651 547.133,1379.5971 " fill="none" id="Company-Parameter" style="stroke:#A80036;stroke-width:1.0;"/><polygon fill="#000000" points="1514.3222,617.9949,1516.3509,608.7033,1510.5019,609.2854,1514.3222,617.9949" style="stroke:#000000;stroke-width:1.0;"/><text fill="#000000" font-family="sans-serif" font-size="13" lengthAdjust="spacing" textLength="132" x="1522.827" y="617.52">capable of analysing</text><text fill="#000000" font-family="sans-serif" font-size="13" lengthAdjust="spacing" textLength="8" x="424.0241" y="57.9532">1</text><text fill="#000000" font-family="sans-serif" font-size="13" lengthAdjust="spacing" textLength="7" x="554.7875" y="1375.3728">*</text><!--MD5=[742a261f27a3dcd734c626287d811acd]
link Company to TestType--><path codeLine="92" d="M356.827,89.2231 C356.827,121.6231 356.827,174.9731 356.827,220.9531 C356.827,220.9531 356.827,220.9531 356.827,488.9531 C356.827,684.0541 408.06,913.1501 430.975,1005.8591 " fill="none" id="Company-TestType" style="stroke:#A80036;stroke-width:1.0;"/><polygon fill="#000000" points="362.2302,493.0033,364.4302,483.7507,358.5715,484.2246,362.2302,493.0033" style="stroke:#000000;stroke-width:1.0;"/><text fill="#000000" font-family="sans-serif" font-size="13" lengthAdjust="spacing" textLength="58" x="370.827" y="492.52">conducts</text><text fill="#000000" font-family="sans-serif" font-size="13" lengthAdjust="spacing" textLength="8" x="348.0395" y="108.8567">1</text><text fill="#000000" font-family="sans-serif" font-size="13" lengthAdjust="spacing" textLength="7" x="421.6877" y="994.8402">*</text><!--MD5=[09366576ee87d48d594df10cacc83f45]
link Company to Employee--><path codeLine="93" d="M389.292,89.0731 C412.745,110.4731 445.118,140.0131 473.281,165.7131 " fill="none" id="Company-Employee" style="stroke:#A80036;stroke-width:1.0;"/><polygon fill="#000000" points="449.5204,130.8898,444.82,122.622,440.858,126.9639,449.5204,130.8898" style="stroke:#000000;stroke-width:1.0;"/><text fill="#000000" font-family="sans-serif" font-size="13" lengthAdjust="spacing" textLength="23" x="454.827" y="132.02">has</text><text fill="#000000" font-family="sans-serif" font-size="13" lengthAdjust="spacing" textLength="8" x="387.1629" y="109.0361">1</text><text fill="#000000" font-family="sans-serif" font-size="13" lengthAdjust="spacing" textLength="7" x="458.4754" y="155.0184">*</text><!--MD5=[4c7c52c4bf7e982cdae6fb6daeda4b43]
reverse link Employee to ClinicalChemistryTechnologist--><path codeLine="94" d="M616.397,291.2731 C637.051,308.3631 657.821,325.5431 673.709,338.6931 " fill="none" id="Employee-backto-ClinicalChemistryTechnologist" style="stroke:#A80036;stroke-width:1.0;"/><polygon fill="none" points="611.655,296.4331,600.708,278.2931,620.58,285.6431,611.655,296.4331" style="stroke:#A80036;stroke-width:1.0;"/><text fill="#000000" font-family="sans-serif" font-size="13" lengthAdjust="spacing" textLength="8" x="600.3716" y="298.1472">1</text><text fill="#000000" font-family="sans-serif" font-size="13" lengthAdjust="spacing" textLength="7" x="659.0021" y="328.0347">*</text><!--MD5=[c2c2ccc97fe06aa0672aa10f0c0d0d1b]
reverse link ExternalModule to ExternalModuleAdapter1--><path codeLine="95" d="M1024.067,851.2591 C1001.427,901.7321 964.149,984.8231 946.166,1024.9071 " fill="none" id="ExternalModule-backto-ExternalModuleAdapter1" style="stroke:#A80036;stroke-width:1.0;stroke-dasharray:7.0,7.0;"/><polygon fill="none" points="1017.797,848.1381,1032.377,832.7561,1030.577,853.8691,1017.797,848.1381" style="stroke:#A80036;stroke-width:1.0;"/><text fill="#000000" font-family="sans-serif" font-size="13" lengthAdjust="spacing" textLength="8" x="1020.8548" y="852.5912">1</text><text fill="#000000" font-family="sans-serif" font-size="13" lengthAdjust="spacing" textLength="8" x="939.7904" y="1013.9074">1</text><!--MD5=[e762491942221b7e6cccce8a5f133053]
reverse link ExternalModule to ExternalModuleAdapter2--><path codeLine="96" d="M1061.757,851.2591 C1084.617,901.7321 1122.237,984.8231 1140.387,1024.9071 " fill="none" id="ExternalModule-backto-ExternalModuleAdapter2" style="stroke:#A80036;stroke-width:1.0;stroke-dasharray:7.0,7.0;"/><polygon fill="none" points="1055.257,853.8621,1053.377,832.7561,1068.007,848.0871,1055.257,853.8621" style="stroke:#A80036;stroke-width:1.0;"/><text fill="#000000" font-family="sans-serif" font-size="13" lengthAdjust="spacing" textLength="8" x="1046.9736" y="852.5912">1</text><text fill="#000000" font-family="sans-serif" font-size="13" lengthAdjust="spacing" textLength="8" x="1128.6868" y="1013.9074">1</text><!--MD5=[1d0e74bf7655fc5437023a6d82ac8590]
reverse link ExternalModule to ExternalModuleAdapter3--><path codeLine="97" d="M1090.297,844.5021 C1157.287,893.9701 1277.727,982.9041 1334.547,1024.8551 " fill="none" id="ExternalModule-backto-ExternalModuleAdapter3" style="stroke:#A80036;stroke-width:1.0;stroke-dasharray:7.0,7.0;"/><polygon fill="none" points="1086.027,850.0491,1074.087,832.5381,1094.337,838.7871,1086.027,850.0491" style="stroke:#A80036;stroke-width:1.0;"/><text fill="#000000" font-family="sans-serif" font-size="13" lengthAdjust="spacing" textLength="8" x="1073.0724" y="852.7157">1</text><text fill="#000000" font-family="sans-serif" font-size="13" lengthAdjust="spacing" textLength="8" x="1317.5065" y="1013.842">1</text><!--MD5=[a6741c643e2ba02d8b365c13a15cded5]
link ExternalModule to TestType--><path codeLine="98" d="M984.655,832.5381 C875.805,875.7341 641.348,968.7751 519.272,1017.2201 " fill="none" id="ExternalModule-TestType" style="stroke:#A80036;stroke-width:1.0;"/><polygon fill="#000000" points="734.4744,939.6753,724.9831,940.2799,727.1512,945.7433,734.4744,939.6753" style="stroke:#000000;stroke-width:1.0;"/><text fill="#000000" font-family="sans-serif" font-size="13" lengthAdjust="spacing" textLength="87" x="738.827" y="946.02">makes use of</text><text fill="#000000" font-family="sans-serif" font-size="13" lengthAdjust="spacing" textLength="8" x="964.4149" y="850.8364">1</text><text fill="#000000" font-family="sans-serif" font-size="13" lengthAdjust="spacing" textLength="7" x="526.7341" y="1010.6573">*</text><!--MD5=[1ae83efc6d1967ce5bc17dfe294d00c2]
link Sample to Test--><path codeLine="99" d="M498.647,637.1011 C460.087,664.8381 394.108,712.2991 341.571,750.0911 " fill="none" id="Sample-Test" style="stroke:#A80036;stroke-width:1.0;"/><polygon fill="#000000" points="452.7681,678.4393,461.827,675.5432,458.3946,670.7716,452.7681,678.4393" style="stroke:#000000;stroke-width:1.0;"/><text fill="#000000" font-family="sans-serif" font-size="13" lengthAdjust="spacing" textLength="45" x="465.827" y="680.02">is from</text><text fill="#000000" font-family="sans-serif" font-size="13" lengthAdjust="spacing" textLength="7" x="482.95" y="656.8984">*</text><text fill="#000000" font-family="sans-serif" font-size="13" lengthAdjust="spacing" textLength="8" x="349.2912" y="741.0993">1</text><!--MD5=[327391d6abe62f0446af3ffbf41cf7ec]
link Sample to Barcode--><path codeLine="100" d="M530.827,637.2941 C530.827,674.5861 530.827,747.1771 530.827,784.3311 " fill="none" id="Sample-Barcode" style="stroke:#A80036;stroke-width:1.0;"/><polygon fill="#000000" points="535.827,680.5195,538.7659,671.4744,532.8881,671.4744,535.827,680.5195" style="stroke:#000000;stroke-width:1.0;"/><text fill="#000000" font-family="sans-serif" font-size="13" lengthAdjust="spacing" textLength="54" x="544.827" y="680.02">contains</text><text fill="#000000" font-family="sans-serif" font-size="13" lengthAdjust="spacing" textLength="8" x="521.852" y="657.1384">1</text><text fill="#000000" font-family="sans-serif" font-size="13" lengthAdjust="spacing" textLength="8" x="521.802" y="773.3119">1</text><!--MD5=[e981d4f96c4342412d1e68160b30cf70]
link Test to TestType--><path codeLine="102" d="M314.506,903.2471 C324.63,919.2501 335.597,935.3921 346.827,949.9531 C361.733,969.2791 380.022,988.9181 396.56,1005.4901 " fill="none" id="Test-TestType" style="stroke:#A80036;stroke-width:1.0;"/><polygon fill="#000000" points="354.9565,945.419,351.5873,936.5253,347.0031,940.2042,354.9565,945.419" style="stroke:#000000;stroke-width:1.0;"/><text fill="#000000" font-family="sans-serif" font-size="13" lengthAdjust="spacing" textLength="27" x="360.827" y="946.02">is of</text><text fill="#000000" font-family="sans-serif" font-size="13" lengthAdjust="spacing" textLength="8" x="310.0809" y="922.8366">1</text><text fill="#000000" font-family="sans-serif" font-size="13" lengthAdjust="spacing" textLength="8" x="381.016" y="994.7318">1</text><!--MD5=[f24c888dadeb846430474fe80a58922b]
link Test to TestParameter--><path codeLine="103" d="M267.635,902.9641 C273.966,980.4581 286.34,1083.3001 308.827,1117.9531 C330.372,1151.1551 365.477,1176.5691 398.689,1194.8081 " fill="none" id="Test-TestParameter" style="stroke:#A80036;stroke-width:1.0;"/><polygon fill="#000000" points="315.8753,1053.5808,314.851,1044.1255,309.4889,1046.5334,315.8753,1053.5808" style="stroke:#000000;stroke-width:1.0;"/><text fill="#000000" font-family="sans-serif" font-size="13" lengthAdjust="spacing" textLength="23" x="322.827" y="1053.52">has</text><text fill="#000000" font-family="sans-serif" font-size="13" lengthAdjust="spacing" textLength="8" x="259.7734" y="922.852">1</text><text fill="#000000" font-family="sans-serif" font-size="13" lengthAdjust="spacing" textLength="23" x="358.2972" y="1183.9692">1..*</text><!--MD5=[0985ee834cc881275852ed47ce1e01f6]
link TestType to Administrator--><path codeLine="104" d="M414.997,1092.2121 C398.734,1120.2001 379.343,1158.3671 369.827,1194.9531 C341.239,1304.8631 368.023,1442.5331 380.851,1496.6146 " fill="none" id="TestType-Administrator" style="stroke:#A80036;stroke-width:1.0;"/><polygon fill="#000000" points="363.2477,1302.5373,359.5582,1311.303,365.4152,1311.7975,363.2477,1302.5373" style="stroke:#000000;stroke-width:1.0;"/><text fill="#000000" font-family="sans-serif" font-size="13" lengthAdjust="spacing" textLength="99" x="371.827" y="1312.02">specifies a new</text><text fill="#000000" font-family="sans-serif" font-size="13" lengthAdjust="spacing" textLength="7" x="403.1632" y="1112.3463">*</text><text fill="#000000" font-family="sans-serif" font-size="13" lengthAdjust="spacing" textLength="8" x="370.4194" y="1485.9371">1</text><!--MD5=[8aaf0efd5e2f3824be7ea3e488dcc283]
link TestType to ParameterCategory--><path codeLine="105" d="M500.125,1092.1611 C549.903,1128.2001 619.639,1178.6891 659.834,1207.7901 " fill="none" id="TestType-ParameterCategory" style="stroke:#A80036;stroke-width:1.0;"/><polygon fill="#000000" points="605.877,1159.4517,600.274,1151.7668,596.827,1156.5279,605.877,1159.4517" style="stroke:#000000;stroke-width:1.0;"/><text fill="#000000" font-family="sans-serif" font-size="13" lengthAdjust="spacing" textLength="77" x="610.827" y="1161.02">measure by</text><text fill="#000000" font-family="sans-serif" font-size="13" lengthAdjust="spacing" textLength="7" x="501.8584" y="1112.2872">*</text><text fill="#000000" font-family="sans-serif" font-size="13" lengthAdjust="spacing" textLength="7" x="643.7389" y="1196.7604">*</text><!--MD5=[166b32c017035243ed8780a05e3f542e]
link TestParameterResult to TestParameter--><path codeLine="106" d="M753.64,1098.6791 C760.507,1121.0811 762.774,1146.6721 747.827,1164.9531 C705.344,1216.9111 664.828,1178.2391 599.827,1194.9531 C594.154,1196.4121 588.346,1197.9821 582.5,1199.6221 " fill="none" id="TestParameterResult-TestParameter" style="stroke:#A80036;stroke-width:1.0;"/><polygon fill="#000000" points="766.1337,1153.9793,756.8498,1156.0432,759.8359,1161.106,766.1337,1153.9793" style="stroke:#000000;stroke-width:1.0;"/><text fill="#000000" font-family="sans-serif" font-size="13" lengthAdjust="spacing" textLength="23" x="770.827" y="1161.02">has</text><text fill="#000000" font-family="sans-serif" font-size="13" lengthAdjust="spacing" textLength="8" x="748.2856" y="1118.7874">1</text><text fill="#000000" font-family="sans-serif" font-size="13" lengthAdjust="spacing" textLength="8" x="590.2844" y="1193.6595">1</text><!--MD5=[52200cc2361fa0ac0481dd6ffcdb824b]
link TestParameterResult to ReferenceValue--><path codeLine="107" d="M784.061,1098.5031 C798.705,1113.4701 813.84,1130.6021 825.827,1147.9531 C838.768,1166.6851 849.42,1190.3881 856.303,1207.6641 " fill="none" id="TestParameterResult-ReferenceValue" style="stroke:#A80036;stroke-width:1.0;"/><polygon fill="#000000" points="843.5864,1160.6891,841.0454,1151.5243,836.1438,1154.7682,843.5864,1160.6891" style="stroke:#000000;stroke-width:1.0;"/><text fill="#000000" font-family="sans-serif" font-size="13" lengthAdjust="spacing" textLength="48" x="849.827" y="1161.02">records</text><text fill="#000000" font-family="sans-serif" font-size="13" lengthAdjust="spacing" textLength="8" x="782.9845" y="1118.5866">1</text><text fill="#000000" font-family="sans-serif" font-size="13" lengthAdjust="spacing" textLength="8" x="845.2503" y="1196.9986">1</text><!--MD5=[92e8e476cc9e9004a7125f53a120ec97]
link TestParameter to Parameter--><path codeLine="108" d="M485.553,1269.0221 C486.021,1292.2761 486.628,1322.4101 487.097,1345.7001 " fill="none" id="TestParameter-Parameter" style="stroke:#A80036;stroke-width:1.0;"/><polygon fill="#000000" points="491.7264,1302.5205,488.9701,1311.623,494.8468,1311.5046,491.7264,1302.5205" style="stroke:#000000;stroke-width:1.0;"/><text fill="#000000" font-family="sans-serif" font-size="13" lengthAdjust="spacing" textLength="55" x="500.827" y="1312.02">refers to</text><text fill="#000000" font-family="sans-serif" font-size="13" lengthAdjust="spacing" textLength="7" x="478.0936" y="1288.5141">*</text><text fill="#000000" font-family="sans-serif" font-size="13" lengthAdjust="spacing" textLength="8" x="478.2545" y="1334.842">1</text><!--MD5=[436eb58bfe376985597ae5a211935c1f]
@startuml
title Relationships - Class Diagram

class Employee {
    String employeeID;
    String name;
    String adress;
    String phoneNumber;
    String codeSOC;
}

class Barcode

class Client {
    String citizenCardNumber;
    String numberNHS;
    String numberTIN;
    String birthDate;
    string sex;
    String phoneNumber;
    string name;
}

class Company {
    String designation;
}

class TestType {
    String designation;
    String code;
    String collectingMethods;
}

class Parameter {
	String designation;
  String code;
}

class TestParameter {
    Parameter testedParameter;
    TestParameterResult testResult;
}

class ReferenceValue

class TestParameterResult{
     String value;
     String metric;
     Date createdAt;
     ReferenceValue refValue;
}

interface ExternalModule

class ExternalModuleAdapter1

class ExternalModuleAdapter2

class ExternalModuleAdapter3

class Test {
    String code;
    String NHSCode;
    String testResult
    String dateSample;
    String timeSmaple;
    String dateChemAnalysis;
    String timeChemAnalysis;
    String dateDiagnosis;
    String timeDiagnosis;
    String dateValidTest;
    String timeValidTest;
}

class Sample

class ChemicalLaboratory

class ClinicalChemistryTechnologist

class ChemicalAnalysis

Parameter "*" - - "1" Administrator: specifies a new <
ChemicalAnalysis "1" - - "*" Sample: uses >
ChemicalLaboratory "1" - - "*" ChemicalAnalysis: performs >
Client "1" - - "*" Test: does a >
Client "1" - - "*" TestParameter: consults the >
ClinicalChemistryTechnologist "1" - - "*" TestParameter: records >
ClinicalChemistryTechnologist "1" - - "*" ChemicalAnalysis: records the results of the >
Company "1" - - "*" Test: performs >
Company "1" - - "*" Client: have >
Company "1" - - "*" Parameter: capable of analysing >
Company "1" - - "*" TestType: conducts >
Company "1" - - "*" Employee: has >
Employee "1" <|- - "*" ClinicalChemistryTechnologist
ExternalModule "1" <|.. "1" ExternalModuleAdapter1
ExternalModule "1" <|.. "1" ExternalModuleAdapter2
ExternalModule "1" <|.. "1" ExternalModuleAdapter3
ExternalModule "1" - - "*" TestType: makes use of <
Sample "*" - - "1" Test: is from >
Sample "1" - - "1" Barcode: contains >
Test "*" - - "1" Client: requested by >
Test "1" - - "1" TestType: is of >
Test "1" - - "1..*" TestParameter: has >
TestType "*" - - "1" Administrator: specifies a new <
TestType "*" - - "*"  ParameterCategory: measure by >
TestParameterResult "1" - - "1" TestParameter: has <
TestParameterResult "1" - - "1" ReferenceValue: records >
TestParameter "*" - - "1" Parameter: refers to <
@enduml

PlantUML version 1.2021.7(Sun May 23 12:40:07 UTC 2021)
(GPL source distribution)
Java Runtime: Java(TM) SE Runtime Environment
JVM: Java HotSpot(TM) 64-Bit Server VM
Default Encoding: UTF-8
Language: en
Country: US
--></g></svg>