<?xml version="1.0" encoding="UTF-8" standalone="no"?><svg xmlns="http://www.w3.org/2000/svg" xmlns:xlink="http://www.w3.org/1999/xlink" contentScriptType="application/ecmascript" contentStyleType="text/css" height="636px" preserveAspectRatio="none" style="width:483px;height:636px;background:#FFFFFF;" version="1.1" viewBox="0 0 483 636" width="483px" zoomAndPan="magnify"><defs><filter height="300%" id="f1foergvxg2nwl" width="300%" x="-1" y="-1"><feGaussianBlur result="blurOut" stdDeviation="2.0"/><feColorMatrix in="blurOut" result="blurOut2" type="matrix" values="0 0 0 0 0 0 0 0 0 0 0 0 0 0 0 0 0 0 .4 0"/><feOffset dx="4.0" dy="4.0" in="blurOut2" result="blurOut3"/><feBlend in="SourceGraphic" in2="blurOut3" mode="normal"/></filter></defs><g><text fill="#000000" font-family="sans-serif" font-size="18" lengthAdjust="spacing" textLength="277" x="96.75" y="16.708">Relationships - Class Diagram</text><!--MD5=[7421f545a0d8420c5bec41e74b387d9c]
class Employee--><rect codeLine="3" fill="#FEFECE" filter="url(#f1foergvxg2nwl)" height="112.0234" id="Employee" style="stroke:#A80036;stroke-width:1.5;" width="133" x="7" y="269.9531"/><ellipse cx="40.45" cy="285.9531" fill="#ADD1B2" rx="11" ry="11" style="stroke:#A80036;stroke-width:1.0;"/><path d="M42.7938,281.625 C41.8563,281.1875 41.2625,281.0469 40.3875,281.0469 C37.7625,281.0469 35.7625,283.125 35.7625,285.8438 L35.7625,286.9688 C35.7625,289.5469 37.8719,291.4375 40.7625,291.4375 C41.9813,291.4375 43.1375,291.1406 43.8875,290.5938 C44.4656,290.1875 44.7938,289.7344 44.7938,289.3438 C44.7938,288.8906 44.4031,288.5 43.9344,288.5 C43.7156,288.5 43.5125,288.5781 43.325,288.7656 C42.8719,289.25 42.8719,289.25 42.6844,289.3438 C42.2625,289.6094 41.575,289.7344 40.8094,289.7344 C38.7625,289.7344 37.4656,288.6406 37.4656,286.9375 L37.4656,285.8438 C37.4656,284.0625 38.7156,282.75 40.45,282.75 C41.0281,282.75 41.6375,282.9063 42.1063,283.1563 C42.5906,283.4375 42.7625,283.6563 42.8563,284.0625 C42.9188,284.4688 42.95,284.5938 43.0906,284.7188 C43.2313,284.8594 43.4656,284.9688 43.6844,284.9688 C43.95,284.9688 44.2156,284.8281 44.3875,284.6094 C44.4969,284.4531 44.5281,284.2656 44.5281,283.8438 L44.5281,282.4219 C44.5281,281.9844 44.5125,281.8594 44.4188,281.7031 C44.2625,281.4375 43.9813,281.2969 43.6844,281.2969 C43.3875,281.2969 43.1844,281.3906 42.9656,281.7031 L42.7938,281.625 Z " fill="#000000"/><text fill="#000000" font-family="sans-serif" font-size="12" lengthAdjust="spacing" textLength="60" x="58.55" y="290.1074">Employee</text><line style="stroke:#A80036;stroke-width:1.5;" x1="8" x2="139" y1="301.9531" y2="301.9531"/><text fill="#000000" font-family="sans-serif" font-size="11" lengthAdjust="spacing" textLength="111" x="13" y="316.1636">String employeeID;</text><text fill="#000000" font-family="sans-serif" font-size="11" lengthAdjust="spacing" textLength="73" x="13" y="328.9683">String name;</text><text fill="#000000" font-family="sans-serif" font-size="11" lengthAdjust="spacing" textLength="78" x="13" y="341.7729">String adress;</text><text fill="#000000" font-family="sans-serif" font-size="11" lengthAdjust="spacing" textLength="121" x="13" y="354.5776">String phoneNumber;</text><text fill="#000000" font-family="sans-serif" font-size="11" lengthAdjust="spacing" textLength="93" x="13" y="367.3823">String codeSOC;</text><line style="stroke:#A80036;stroke-width:1.5;" x1="8" x2="139" y1="373.9766" y2="373.9766"/><!--MD5=[36afb6bbd95a8ac778c4537c55a683d5]
class ParameterCategory--><rect codeLine="11" fill="#FEFECE" filter="url(#f1foergvxg2nwl)" height="86.4141" id="ParameterCategory" style="stroke:#A80036;stroke-width:1.5;" width="148" x="141.5" y="411.9531"/><ellipse cx="156.5" cy="427.9531" fill="#ADD1B2" rx="11" ry="11" style="stroke:#A80036;stroke-width:1.0;"/><path d="M158.8438,423.625 C157.9063,423.1875 157.3125,423.0469 156.4375,423.0469 C153.8125,423.0469 151.8125,425.125 151.8125,427.8438 L151.8125,428.9688 C151.8125,431.5469 153.9219,433.4375 156.8125,433.4375 C158.0313,433.4375 159.1875,433.1406 159.9375,432.5938 C160.5156,432.1875 160.8438,431.7344 160.8438,431.3438 C160.8438,430.8906 160.4531,430.5 159.9844,430.5 C159.7656,430.5 159.5625,430.5781 159.375,430.7656 C158.9219,431.25 158.9219,431.25 158.7344,431.3438 C158.3125,431.6094 157.625,431.7344 156.8594,431.7344 C154.8125,431.7344 153.5156,430.6406 153.5156,428.9375 L153.5156,427.8438 C153.5156,426.0625 154.7656,424.75 156.5,424.75 C157.0781,424.75 157.6875,424.9063 158.1563,425.1563 C158.6406,425.4375 158.8125,425.6563 158.9063,426.0625 C158.9688,426.4688 159,426.5938 159.1406,426.7188 C159.2813,426.8594 159.5156,426.9688 159.7344,426.9688 C160,426.9688 160.2656,426.8281 160.4375,426.6094 C160.5469,426.4531 160.5781,426.2656 160.5781,425.8438 L160.5781,424.4219 C160.5781,423.9844 160.5625,423.8594 160.4688,423.7031 C160.3125,423.4375 160.0313,423.2969 159.7344,423.2969 C159.4375,423.2969 159.2344,423.3906 159.0156,423.7031 L158.8438,423.625 Z " fill="#000000"/><text fill="#000000" font-family="sans-serif" font-size="12" lengthAdjust="spacing" textLength="116" x="170.5" y="432.1074">ParameterCategory</text><line style="stroke:#A80036;stroke-width:1.5;" x1="142.5" x2="288.5" y1="443.9531" y2="443.9531"/><text fill="#000000" font-family="sans-serif" font-size="11" lengthAdjust="spacing" textLength="68" x="147.5" y="458.1636">String code;</text><text fill="#000000" font-family="sans-serif" font-size="11" lengthAdjust="spacing" textLength="100" x="147.5" y="470.9683">string description;</text><text fill="#000000" font-family="sans-serif" font-size="11" lengthAdjust="spacing" textLength="76" x="147.5" y="483.7729">String NHSID;</text><line style="stroke:#A80036;stroke-width:1.5;" x1="142.5" x2="288.5" y1="490.3672" y2="490.3672"/><!--MD5=[02e4b9b7573f1156f41e60aa5b4e25a4]
class Company--><rect codeLine="18" fill="#FEFECE" filter="url(#f1foergvxg2nwl)" height="60.8047" id="Company" style="stroke:#A80036;stroke-width:1.5;" width="118" x="104.5" y="27.9531"/><ellipse cx="133" cy="43.9531" fill="#ADD1B2" rx="11" ry="11" style="stroke:#A80036;stroke-width:1.0;"/><path d="M135.3438,39.625 C134.4063,39.1875 133.8125,39.0469 132.9375,39.0469 C130.3125,39.0469 128.3125,41.125 128.3125,43.8438 L128.3125,44.9688 C128.3125,47.5469 130.4219,49.4375 133.3125,49.4375 C134.5313,49.4375 135.6875,49.1406 136.4375,48.5938 C137.0156,48.1875 137.3438,47.7344 137.3438,47.3438 C137.3438,46.8906 136.9531,46.5 136.4844,46.5 C136.2656,46.5 136.0625,46.5781 135.875,46.7656 C135.4219,47.25 135.4219,47.25 135.2344,47.3438 C134.8125,47.6094 134.125,47.7344 133.3594,47.7344 C131.3125,47.7344 130.0156,46.6406 130.0156,44.9375 L130.0156,43.8438 C130.0156,42.0625 131.2656,40.75 133,40.75 C133.5781,40.75 134.1875,40.9063 134.6563,41.1563 C135.1406,41.4375 135.3125,41.6563 135.4063,42.0625 C135.4688,42.4688 135.5,42.5938 135.6406,42.7188 C135.7813,42.8594 136.0156,42.9688 136.2344,42.9688 C136.5,42.9688 136.7656,42.8281 136.9375,42.6094 C137.0469,42.4531 137.0781,42.2656 137.0781,41.8438 L137.0781,40.4219 C137.0781,39.9844 137.0625,39.8594 136.9688,39.7031 C136.8125,39.4375 136.5313,39.2969 136.2344,39.2969 C135.9375,39.2969 135.7344,39.3906 135.5156,39.7031 L135.3438,39.625 Z " fill="#000000"/><text fill="#000000" font-family="sans-serif" font-size="12" lengthAdjust="spacing" textLength="56" x="150" y="48.1074">Company</text><line style="stroke:#A80036;stroke-width:1.5;" x1="105.5" x2="221.5" y1="59.9531" y2="59.9531"/><text fill="#000000" font-family="sans-serif" font-size="11" lengthAdjust="spacing" textLength="106" x="110.5" y="74.1636">String designation;</text><line style="stroke:#A80036;stroke-width:1.5;" x1="105.5" x2="221.5" y1="80.7578" y2="80.7578"/><!--MD5=[1f6362a5c8f21d8d6a0fce68f3a92a4e]
class Parameter--><rect codeLine="22" fill="#FEFECE" filter="url(#f1foergvxg2nwl)" height="73.6094" id="Parameter" style="stroke:#A80036;stroke-width:1.5;" width="118" x="257.5" y="165.9531"/><ellipse cx="283.75" cy="181.9531" fill="#ADD1B2" rx="11" ry="11" style="stroke:#A80036;stroke-width:1.0;"/><path d="M286.0938,177.625 C285.1563,177.1875 284.5625,177.0469 283.6875,177.0469 C281.0625,177.0469 279.0625,179.125 279.0625,181.8438 L279.0625,182.9688 C279.0625,185.5469 281.1719,187.4375 284.0625,187.4375 C285.2813,187.4375 286.4375,187.1406 287.1875,186.5938 C287.7656,186.1875 288.0938,185.7344 288.0938,185.3438 C288.0938,184.8906 287.7031,184.5 287.2344,184.5 C287.0156,184.5 286.8125,184.5781 286.625,184.7656 C286.1719,185.25 286.1719,185.25 285.9844,185.3438 C285.5625,185.6094 284.875,185.7344 284.1094,185.7344 C282.0625,185.7344 280.7656,184.6406 280.7656,182.9375 L280.7656,181.8438 C280.7656,180.0625 282.0156,178.75 283.75,178.75 C284.3281,178.75 284.9375,178.9063 285.4063,179.1563 C285.8906,179.4375 286.0625,179.6563 286.1563,180.0625 C286.2188,180.4688 286.25,180.5938 286.3906,180.7188 C286.5313,180.8594 286.7656,180.9688 286.9844,180.9688 C287.25,180.9688 287.5156,180.8281 287.6875,180.6094 C287.7969,180.4531 287.8281,180.2656 287.8281,179.8438 L287.8281,178.4219 C287.8281,177.9844 287.8125,177.8594 287.7188,177.7031 C287.5625,177.4375 287.2813,177.2969 286.9844,177.2969 C286.6875,177.2969 286.4844,177.3906 286.2656,177.7031 L286.0938,177.625 Z " fill="#000000"/><text fill="#000000" font-family="sans-serif" font-size="12" lengthAdjust="spacing" textLength="61" x="300.25" y="186.1074">Parameter</text><line style="stroke:#A80036;stroke-width:1.5;" x1="258.5" x2="374.5" y1="197.9531" y2="197.9531"/><text fill="#000000" font-family="sans-serif" font-size="11" lengthAdjust="spacing" textLength="106" x="263.5" y="212.1636">String designation;</text><text fill="#000000" font-family="sans-serif" font-size="11" lengthAdjust="spacing" textLength="68" x="263.5" y="224.9683">String code;</text><line style="stroke:#A80036;stroke-width:1.5;" x1="258.5" x2="374.5" y1="231.5625" y2="231.5625"/><!--MD5=[da547346deef918ea16944ba046651ef]
class Administrator--><rect codeLine="27" fill="#FEFECE" filter="url(#f1foergvxg2nwl)" height="48" id="Administrator" style="stroke:#A80036;stroke-width:1.5;" width="112" x="159.5" y="574.9531"/><ellipse cx="174.5" cy="590.9531" fill="#ADD1B2" rx="11" ry="11" style="stroke:#A80036;stroke-width:1.0;"/><path d="M176.8438,586.625 C175.9063,586.1875 175.3125,586.0469 174.4375,586.0469 C171.8125,586.0469 169.8125,588.125 169.8125,590.8438 L169.8125,591.9688 C169.8125,594.5469 171.9219,596.4375 174.8125,596.4375 C176.0313,596.4375 177.1875,596.1406 177.9375,595.5938 C178.5156,595.1875 178.8438,594.7344 178.8438,594.3438 C178.8438,593.8906 178.4531,593.5 177.9844,593.5 C177.7656,593.5 177.5625,593.5781 177.375,593.7656 C176.9219,594.25 176.9219,594.25 176.7344,594.3438 C176.3125,594.6094 175.625,594.7344 174.8594,594.7344 C172.8125,594.7344 171.5156,593.6406 171.5156,591.9375 L171.5156,590.8438 C171.5156,589.0625 172.7656,587.75 174.5,587.75 C175.0781,587.75 175.6875,587.9063 176.1563,588.1563 C176.6406,588.4375 176.8125,588.6563 176.9063,589.0625 C176.9688,589.4688 177,589.5938 177.1406,589.7188 C177.2813,589.8594 177.5156,589.9688 177.7344,589.9688 C178,589.9688 178.2656,589.8281 178.4375,589.6094 C178.5469,589.4531 178.5781,589.2656 178.5781,588.8438 L178.5781,587.4219 C178.5781,586.9844 178.5625,586.8594 178.4688,586.7031 C178.3125,586.4375 178.0313,586.2969 177.7344,586.2969 C177.4375,586.2969 177.2344,586.3906 177.0156,586.7031 L176.8438,586.625 Z " fill="#000000"/><text fill="#000000" font-family="sans-serif" font-size="12" lengthAdjust="spacing" textLength="80" x="188.5" y="595.1074">Administrator</text><line style="stroke:#A80036;stroke-width:1.5;" x1="160.5" x2="270.5" y1="606.9531" y2="606.9531"/><line style="stroke:#A80036;stroke-width:1.5;" x1="160.5" x2="270.5" y1="614.9531" y2="614.9531"/><!--MD5=[cf4793ee9d8e468829d360120e63d908]
link Parameter to Administrator--><path codeLine="30" d="M334.249,240.1711 C338.067,249.6411 341.541,259.9921 343.5,269.9531 C367.283,390.9021 380.395,445.5521 307.5,544.9531 C298.343,557.4392 285.29,567.4376 271.884,575.2365 " fill="none" id="Parameter-Administrator" style="stroke:#A80036;stroke-width:1.0;"/><polygon fill="#000000" points="368.4149,450.104,363.8705,458.4585,369.6491,459.5341,368.4149,450.104" style="stroke:#000000;stroke-width:1.0;"/><text fill="#000000" font-family="sans-serif" font-size="13" lengthAdjust="spacing" textLength="99" x="376.5" y="459.52">specifies a new</text><text fill="#000000" font-family="sans-serif" font-size="13" lengthAdjust="spacing" textLength="7" x="329.609" y="259.6878">*</text><text fill="#000000" font-family="sans-serif" font-size="13" lengthAdjust="spacing" textLength="8" x="279.6207" y="568.3123">1</text><!--MD5=[8fed49cf12a674e36a1de475622ee091]
link ParameterCategory to Administrator--><path codeLine="31" d="M215.5,498.1731 C215.5,523.1899 215.5,553.9444 215.5,574.6426 " fill="none" id="ParameterCategory-Administrator" style="stroke:#A80036;stroke-width:1.0;"/><polygon fill="#000000" points="220.5,541.5195,223.4389,532.4744,217.5611,532.4744,220.5,541.5195" style="stroke:#000000;stroke-width:1.0;"/><text fill="#000000" font-family="sans-serif" font-size="13" lengthAdjust="spacing" textLength="69" x="229.5" y="541.02">created by</text><text fill="#000000" font-family="sans-serif" font-size="13" lengthAdjust="spacing" textLength="7" x="207.9422" y="518.3011">*</text><text fill="#000000" font-family="sans-serif" font-size="13" lengthAdjust="spacing" textLength="8" x="206.525" y="563.9719">1</text><!--MD5=[93b4f25fb503a8e0e9a46b1d30ff3f44]
link Company to ParameterCategory--><path codeLine="32" d="M163.999,89.1121 C165.437,146.3101 171.005,275.6081 192.5,381.9531 C194.476,391.7281 197.306,402.0451 200.308,411.7211 " fill="none" id="Company-ParameterCategory" style="stroke:#A80036;stroke-width:1.0;"/><polygon fill="#000000" points="178.0592,207.9882,179.9681,198.6711,174.1271,199.3285,178.0592,207.9882" style="stroke:#000000;stroke-width:1.0;"/><text fill="#000000" font-family="sans-serif" font-size="13" lengthAdjust="spacing" textLength="44" x="186.5" y="207.52">adopts</text><text fill="#000000" font-family="sans-serif" font-size="13" lengthAdjust="spacing" textLength="8" x="155.3097" y="108.7239">1</text><text fill="#000000" font-family="sans-serif" font-size="13" lengthAdjust="spacing" textLength="7" x="190.4458" y="400.9981">*</text><!--MD5=[12d76240d3c3c66074d4ec2ea8bf469c]
link Company to Parameter--><path codeLine="33" d="M195.202,88.9791 C219.185,111.3161 252.237,142.1001 277.784,165.8941 " fill="none" id="Company-Parameter" style="stroke:#A80036;stroke-width:1.0;"/><polygon fill="#000000" points="254.1588,130.9273,249.543,122.612,245.5369,126.9132,254.1588,130.9273" style="stroke:#000000;stroke-width:1.0;"/><text fill="#000000" font-family="sans-serif" font-size="13" lengthAdjust="spacing" textLength="132" x="259.5" y="132.02">capable of analysing</text><text fill="#000000" font-family="sans-serif" font-size="13" lengthAdjust="spacing" textLength="8" x="192.9155" y="108.9227">1</text><text fill="#000000" font-family="sans-serif" font-size="13" lengthAdjust="spacing" textLength="7" x="263.0004" y="154.7937">*</text><!--MD5=[09366576ee87d48d594df10cacc83f45]
link Company to Employee--><path codeLine="34" d="M122.858,89.2071 C113.781,97.7991 105.1749,107.8821 99.5,118.9531 C75.4099,165.9481 70.377,226.6181 70.4789,269.9221 " fill="none" id="Company-Employee" style="stroke:#A80036;stroke-width:1.0;"/><polygon fill="#000000" points="103.1081,132.3219,108.4488,124.4525,102.8033,122.8162,103.1081,132.3219" style="stroke:#000000;stroke-width:1.0;"/><text fill="#000000" font-family="sans-serif" font-size="13" lengthAdjust="spacing" textLength="23" x="113.5" y="132.02">has</text><text fill="#000000" font-family="sans-serif" font-size="13" lengthAdjust="spacing" textLength="8" x="106.0691" y="108.8376">1</text><text fill="#000000" font-family="sans-serif" font-size="13" lengthAdjust="spacing" textLength="7" x="62.6434" y="258.8561">*</text><!--MD5=[f7fb1bbd8b4f4021e9754ae6fe2871a0]
reverse link Employee to Administrator--><path codeLine="35" d="M87.5163,401.8771 C95.287,432.9071 106.8428,468.4591 123.5,497.9531 C140.321,527.7377 167.602,555.8635 188.098,574.6543 " fill="none" id="Employee-backto-Administrator" style="stroke:#A80036;stroke-width:1.0;"/><polygon fill="none" points="80.6639,403.3141,82.9409,382.2471,94.2984,400.1361,80.6639,403.3141" style="stroke:#A80036;stroke-width:1.0;"/><text fill="#000000" font-family="sans-serif" font-size="13" lengthAdjust="spacing" textLength="8" x="75.604" y="402.0956">1</text><text fill="#000000" font-family="sans-serif" font-size="13" lengthAdjust="spacing" textLength="7" x="173.5656" y="563.9864">*</text><!--MD5=[6df8849671cb880f6936e94aa30db6f9]
link Parameter to ParameterCategory--><path codeLine="36" d="M257.428,230.7491 C242.032,240.7531 227.305,253.7271 218.5,269.9531 C194.728,313.7581 198.814,372.5021 205.634,411.7121 " fill="none" id="Parameter-ParameterCategory" style="stroke:#A80036;stroke-width:1.0;"/><polygon fill="#000000" points="222.1242,330.8265,227.4385,322.9393,221.7876,321.3219,222.1242,330.8265" style="stroke:#000000;stroke-width:1.0;"/><text fill="#000000" font-family="sans-serif" font-size="13" lengthAdjust="spacing" textLength="106" x="232.5" y="330.52">presented under</text><text fill="#000000" font-family="sans-serif" font-size="13" lengthAdjust="spacing" textLength="7" x="242.411" y="230.45">*</text><text fill="#000000" font-family="sans-serif" font-size="13" lengthAdjust="spacing" textLength="8" x="204.7358" y="400.9878">1</text><!--MD5=[4b4e686a54af3668440b33acdf6e9e80]
@startuml
title Relationships - Class Diagram

class Employee {
    String employeeID;
    String name;
    String adress;
    String phoneNumber;
    String codeSOC;
}

class ParameterCategory {
    String code;
    string description;
    String NHSID;
}


class Company {
    String designation;
}

class Parameter {
	String designation;
  String code;
}

class Administrator


Parameter "*" - - "1" Administrator: specifies a new <
ParameterCategory "*" - - "1" Administrator: created by >
Company "1" - - "*" ParameterCategory: adopts >
Company "1" - - "*" Parameter: capable of analysing >
Company "1" - - "*" Employee: has >
Employee "1" <|- - "*" Administrator
Parameter "*" - - "1" ParameterCategory: presented under >
@enduml

PlantUML version 1.2021.6beta6(Unknown compile time)
(GPL source distribution)
Java Runtime: Java(TM) SE Runtime Environment
JVM: Java HotSpot(TM) 64-Bit Server VM
Default Encoding: UTF-8
Language: en
Country: US
--></g></svg>