<?xml version="1.0" encoding="UTF-8" standalone="no"?><svg xmlns="http://www.w3.org/2000/svg" xmlns:xlink="http://www.w3.org/1999/xlink" contentScriptType="application/ecmascript" contentStyleType="text/css" height="592px" preserveAspectRatio="none" style="width:578px;height:592px;background:#FFFFFF;" version="1.1" viewBox="0 0 578 592" width="578px" zoomAndPan="magnify"><defs><filter height="300%" id="f18lmucos2l1i7" width="300%" x="-1" y="-1"><feGaussianBlur result="blurOut" stdDeviation="2.0"/><feColorMatrix in="blurOut" result="blurOut2" type="matrix" values="0 0 0 0 0 0 0 0 0 0 0 0 0 0 0 0 0 0 .4 0"/><feOffset dx="4.0" dy="4.0" in="blurOut2" result="blurOut3"/><feBlend in="SourceGraphic" in2="blurOut3" mode="normal"/></filter></defs><g><text fill="#000000" font-family="sans-serif" font-size="18" lengthAdjust="spacing" textLength="277" x="144.25" y="16.708">Relationships - Class Diagram</text><!--MD5=[02e4b9b7573f1156f41e60aa5b4e25a4]
class Company--><rect codeLine="3" fill="#FEFECE" filter="url(#f18lmucos2l1i7)" height="60.8047" id="Company" style="stroke:#A80036;stroke-width:1.5;" width="116" x="384.5" y="27.9531"/><ellipse cx="412.1" cy="43.9531" fill="#ADD1B2" rx="11" ry="11" style="stroke:#A80036;stroke-width:1.0;"/><path d="M414.4438,39.625 C413.5063,39.1875 412.9125,39.0469 412.0375,39.0469 C409.4125,39.0469 407.4125,41.125 407.4125,43.8438 L407.4125,44.9688 C407.4125,47.5469 409.5219,49.4375 412.4125,49.4375 C413.6313,49.4375 414.7875,49.1406 415.5375,48.5938 C416.1156,48.1875 416.4438,47.7344 416.4438,47.3438 C416.4438,46.8906 416.0531,46.5 415.5844,46.5 C415.3656,46.5 415.1625,46.5781 414.975,46.7656 C414.5219,47.25 414.5219,47.25 414.3344,47.3438 C413.9125,47.6094 413.225,47.7344 412.4594,47.7344 C410.4125,47.7344 409.1156,46.6406 409.1156,44.9375 L409.1156,43.8438 C409.1156,42.0625 410.3656,40.75 412.1,40.75 C412.6781,40.75 413.2875,40.9063 413.7563,41.1563 C414.2406,41.4375 414.4125,41.6563 414.5063,42.0625 C414.5688,42.4688 414.6,42.5938 414.7406,42.7188 C414.8813,42.8594 415.1156,42.9688 415.3344,42.9688 C415.6,42.9688 415.8656,42.8281 416.0375,42.6094 C416.1469,42.4531 416.1781,42.2656 416.1781,41.8438 L416.1781,40.4219 C416.1781,39.9844 416.1625,39.8594 416.0688,39.7031 C415.9125,39.4375 415.6313,39.2969 415.3344,39.2969 C415.0375,39.2969 414.8344,39.3906 414.6156,39.7031 L414.4438,39.625 Z " fill="#000000"/><text fill="#000000" font-family="sans-serif" font-size="12" lengthAdjust="spacing" textLength="56" x="428.9" y="48.1074">Company</text><line style="stroke:#A80036;stroke-width:1.5;" x1="385.5" x2="499.5" y1="59.9531" y2="59.9531"/><text fill="#000000" font-family="sans-serif" font-size="11" lengthAdjust="spacing" textLength="104" x="390.5" y="74.1636">string designation;</text><line style="stroke:#A80036;stroke-width:1.5;" x1="385.5" x2="499.5" y1="80.7578" y2="80.7578"/><!--MD5=[7421f545a0d8420c5bec41e74b387d9c]
class Employee--><rect codeLine="7" fill="#FEFECE" filter="url(#f18lmucos2l1i7)" height="112.0234" id="Employee" style="stroke:#A80036;stroke-width:1.5;" width="133" x="255" y="165.9531"/><ellipse cx="288.45" cy="181.9531" fill="#ADD1B2" rx="11" ry="11" style="stroke:#A80036;stroke-width:1.0;"/><path d="M290.7938,177.625 C289.8563,177.1875 289.2625,177.0469 288.3875,177.0469 C285.7625,177.0469 283.7625,179.125 283.7625,181.8438 L283.7625,182.9688 C283.7625,185.5469 285.8719,187.4375 288.7625,187.4375 C289.9813,187.4375 291.1375,187.1406 291.8875,186.5938 C292.4656,186.1875 292.7938,185.7344 292.7938,185.3438 C292.7938,184.8906 292.4031,184.5 291.9344,184.5 C291.7156,184.5 291.5125,184.5781 291.325,184.7656 C290.8719,185.25 290.8719,185.25 290.6844,185.3438 C290.2625,185.6094 289.575,185.7344 288.8094,185.7344 C286.7625,185.7344 285.4656,184.6406 285.4656,182.9375 L285.4656,181.8438 C285.4656,180.0625 286.7156,178.75 288.45,178.75 C289.0281,178.75 289.6375,178.9063 290.1063,179.1563 C290.5906,179.4375 290.7625,179.6563 290.8563,180.0625 C290.9188,180.4688 290.95,180.5938 291.0906,180.7188 C291.2313,180.8594 291.4656,180.9688 291.6844,180.9688 C291.95,180.9688 292.2156,180.8281 292.3875,180.6094 C292.4969,180.4531 292.5281,180.2656 292.5281,179.8438 L292.5281,178.4219 C292.5281,177.9844 292.5125,177.8594 292.4188,177.7031 C292.2625,177.4375 291.9813,177.2969 291.6844,177.2969 C291.3875,177.2969 291.1844,177.3906 290.9656,177.7031 L290.7938,177.625 Z " fill="#000000"/><text fill="#000000" font-family="sans-serif" font-size="12" lengthAdjust="spacing" textLength="60" x="306.55" y="186.1074">Employee</text><line style="stroke:#A80036;stroke-width:1.5;" x1="256" x2="387" y1="197.9531" y2="197.9531"/><text fill="#000000" font-family="sans-serif" font-size="11" lengthAdjust="spacing" textLength="111" x="261" y="212.1636">String employeeID;</text><text fill="#000000" font-family="sans-serif" font-size="11" lengthAdjust="spacing" textLength="73" x="261" y="224.9683">String name;</text><text fill="#000000" font-family="sans-serif" font-size="11" lengthAdjust="spacing" textLength="85" x="261" y="237.7729">String address;</text><text fill="#000000" font-family="sans-serif" font-size="11" lengthAdjust="spacing" textLength="121" x="261" y="250.5776">String phoneNumber;</text><text fill="#000000" font-family="sans-serif" font-size="11" lengthAdjust="spacing" textLength="93" x="261" y="263.3823">String codeSOC;</text><line style="stroke:#A80036;stroke-width:1.5;" x1="256" x2="387" y1="269.9766" y2="269.9766"/><!--MD5=[7d96fd15f3014691d2fcaf89c5791e2a]
class SpecialistDoctor--><rect codeLine="15" fill="#FEFECE" filter="url(#f18lmucos2l1i7)" height="60.8047" id="SpecialistDoctor" style="stroke:#A80036;stroke-width:1.5;" width="145" x="7" y="367.4531"/><ellipse cx="28.3" cy="383.4531" fill="#ADD1B2" rx="11" ry="11" style="stroke:#A80036;stroke-width:1.0;"/><path d="M30.6438,379.125 C29.7063,378.6875 29.1125,378.5469 28.2375,378.5469 C25.6125,378.5469 23.6125,380.625 23.6125,383.3438 L23.6125,384.4688 C23.6125,387.0469 25.7219,388.9375 28.6125,388.9375 C29.8313,388.9375 30.9875,388.6406 31.7375,388.0938 C32.3156,387.6875 32.6438,387.2344 32.6438,386.8438 C32.6438,386.3906 32.2531,386 31.7844,386 C31.5656,386 31.3625,386.0781 31.175,386.2656 C30.7219,386.75 30.7219,386.75 30.5344,386.8438 C30.1125,387.1094 29.425,387.2344 28.6594,387.2344 C26.6125,387.2344 25.3156,386.1406 25.3156,384.4375 L25.3156,383.3438 C25.3156,381.5625 26.5656,380.25 28.3,380.25 C28.8781,380.25 29.4875,380.4063 29.9563,380.6563 C30.4406,380.9375 30.6125,381.1563 30.7063,381.5625 C30.7688,381.9688 30.8,382.0938 30.9406,382.2188 C31.0813,382.3594 31.3156,382.4688 31.5344,382.4688 C31.8,382.4688 32.0656,382.3281 32.2375,382.1094 C32.3469,381.9531 32.3781,381.7656 32.3781,381.3438 L32.3781,379.9219 C32.3781,379.4844 32.3625,379.3594 32.2688,379.2031 C32.1125,378.9375 31.8313,378.7969 31.5344,378.7969 C31.2375,378.7969 31.0344,378.8906 30.8156,379.2031 L30.6438,379.125 Z " fill="#000000"/><text fill="#000000" font-family="sans-serif" font-size="12" lengthAdjust="spacing" textLength="99" x="43.7" y="387.6074">SpecialistDoctor</text><line style="stroke:#A80036;stroke-width:1.5;" x1="8" x2="151" y1="399.4531" y2="399.4531"/><text fill="#000000" font-family="sans-serif" font-size="11" lengthAdjust="spacing" textLength="133" x="13" y="413.6636">int doctorIndexNumber;</text><line style="stroke:#A80036;stroke-width:1.5;" x1="8" x2="151" y1="420.2578" y2="420.2578"/><!--MD5=[3fd616f346a44cd59a91eb10b19e157c]
class User--><rect codeLine="19" fill="#FEFECE" filter="url(#f18lmucos2l1i7)" height="60.8047" id="User" style="stroke:#A80036;stroke-width:1.5;" width="85" x="296" y="367.4531"/><ellipse cx="321.8" cy="383.4531" fill="#ADD1B2" rx="11" ry="11" style="stroke:#A80036;stroke-width:1.0;"/><path d="M324.1438,379.125 C323.2063,378.6875 322.6125,378.5469 321.7375,378.5469 C319.1125,378.5469 317.1125,380.625 317.1125,383.3438 L317.1125,384.4688 C317.1125,387.0469 319.2219,388.9375 322.1125,388.9375 C323.3313,388.9375 324.4875,388.6406 325.2375,388.0938 C325.8156,387.6875 326.1438,387.2344 326.1438,386.8438 C326.1438,386.3906 325.7531,386 325.2844,386 C325.0656,386 324.8625,386.0781 324.675,386.2656 C324.2219,386.75 324.2219,386.75 324.0344,386.8438 C323.6125,387.1094 322.925,387.2344 322.1594,387.2344 C320.1125,387.2344 318.8156,386.1406 318.8156,384.4375 L318.8156,383.3438 C318.8156,381.5625 320.0656,380.25 321.8,380.25 C322.3781,380.25 322.9875,380.4063 323.4563,380.6563 C323.9406,380.9375 324.1125,381.1563 324.2063,381.5625 C324.2688,381.9688 324.3,382.0938 324.4406,382.2188 C324.5813,382.3594 324.8156,382.4688 325.0344,382.4688 C325.3,382.4688 325.5656,382.3281 325.7375,382.1094 C325.8469,381.9531 325.8781,381.7656 325.8781,381.3438 L325.8781,379.9219 C325.8781,379.4844 325.8625,379.3594 325.7688,379.2031 C325.6125,378.9375 325.3313,378.7969 325.0344,378.7969 C324.7375,378.7969 324.5344,378.8906 324.3156,379.2031 L324.1438,379.125 Z " fill="#000000"/><text fill="#000000" font-family="sans-serif" font-size="12" lengthAdjust="spacing" textLength="29" x="338.2" y="387.6074">User</text><line style="stroke:#A80036;stroke-width:1.5;" x1="297" x2="380" y1="399.4531" y2="399.4531"/><text fill="#000000" font-family="sans-serif" font-size="11" lengthAdjust="spacing" textLength="73" x="302" y="413.6636">String name;</text><line style="stroke:#A80036;stroke-width:1.5;" x1="297" x2="380" y1="420.2578" y2="420.2578"/><!--MD5=[12e90e92236ca84f203192a07d84ec5e]
class OrganizationRole--><rect codeLine="23" fill="#FEFECE" filter="url(#f18lmucos2l1i7)" height="86.4141" id="OrganizationRole" style="stroke:#A80036;stroke-width:1.5;" width="134" x="416.5" y="354.9531"/><ellipse cx="431.5" cy="370.9531" fill="#ADD1B2" rx="11" ry="11" style="stroke:#A80036;stroke-width:1.0;"/><path d="M433.8438,366.625 C432.9063,366.1875 432.3125,366.0469 431.4375,366.0469 C428.8125,366.0469 426.8125,368.125 426.8125,370.8438 L426.8125,371.9688 C426.8125,374.5469 428.9219,376.4375 431.8125,376.4375 C433.0313,376.4375 434.1875,376.1406 434.9375,375.5938 C435.5156,375.1875 435.8438,374.7344 435.8438,374.3438 C435.8438,373.8906 435.4531,373.5 434.9844,373.5 C434.7656,373.5 434.5625,373.5781 434.375,373.7656 C433.9219,374.25 433.9219,374.25 433.7344,374.3438 C433.3125,374.6094 432.625,374.7344 431.8594,374.7344 C429.8125,374.7344 428.5156,373.6406 428.5156,371.9375 L428.5156,370.8438 C428.5156,369.0625 429.7656,367.75 431.5,367.75 C432.0781,367.75 432.6875,367.9063 433.1563,368.1563 C433.6406,368.4375 433.8125,368.6563 433.9063,369.0625 C433.9688,369.4688 434,369.5938 434.1406,369.7188 C434.2813,369.8594 434.5156,369.9688 434.7344,369.9688 C435,369.9688 435.2656,369.8281 435.4375,369.6094 C435.5469,369.4531 435.5781,369.2656 435.5781,368.8438 L435.5781,367.4219 C435.5781,366.9844 435.5625,366.8594 435.4688,366.7031 C435.3125,366.4375 435.0313,366.2969 434.7344,366.2969 C434.4375,366.2969 434.2344,366.3906 434.0156,366.7031 L433.8438,366.625 Z " fill="#000000"/><text fill="#000000" font-family="sans-serif" font-size="12" lengthAdjust="spacing" textLength="102" x="445.5" y="375.1074">OrganizationRole</text><line style="stroke:#A80036;stroke-width:1.5;" x1="417.5" x2="549.5" y1="386.9531" y2="386.9531"/><text fill="#000000" font-family="sans-serif" font-size="11" lengthAdjust="spacing" textLength="50" x="422.5" y="401.1636">String id;</text><text fill="#000000" font-family="sans-serif" font-size="11" lengthAdjust="spacing" textLength="102" x="422.5" y="413.9683">String description;</text><text fill="#000000" font-family="sans-serif" font-size="11" lengthAdjust="spacing" textLength="102" x="422.5" y="426.7729">String className;</text><line style="stroke:#A80036;stroke-width:1.5;" x1="417.5" x2="549.5" y1="433.3672" y2="433.3672"/><!--MD5=[78bec0fde86ad92ec1dc3fb343b83709]
class Email--><rect codeLine="29" fill="#FEFECE" filter="url(#f18lmucos2l1i7)" height="60.8047" id="Email" style="stroke:#A80036;stroke-width:1.5;" width="84" x="183.5" y="517.9531"/><ellipse cx="207.95" cy="533.9531" fill="#ADD1B2" rx="11" ry="11" style="stroke:#A80036;stroke-width:1.0;"/><path d="M210.2938,529.625 C209.3563,529.1875 208.7625,529.0469 207.8875,529.0469 C205.2625,529.0469 203.2625,531.125 203.2625,533.8438 L203.2625,534.9688 C203.2625,537.5469 205.3719,539.4375 208.2625,539.4375 C209.4813,539.4375 210.6375,539.1406 211.3875,538.5938 C211.9656,538.1875 212.2938,537.7344 212.2938,537.3438 C212.2938,536.8906 211.9031,536.5 211.4344,536.5 C211.2156,536.5 211.0125,536.5781 210.825,536.7656 C210.3719,537.25 210.3719,537.25 210.1844,537.3438 C209.7625,537.6094 209.075,537.7344 208.3094,537.7344 C206.2625,537.7344 204.9656,536.6406 204.9656,534.9375 L204.9656,533.8438 C204.9656,532.0625 206.2156,530.75 207.95,530.75 C208.5281,530.75 209.1375,530.9063 209.6063,531.1563 C210.0906,531.4375 210.2625,531.6563 210.3563,532.0625 C210.4188,532.4688 210.45,532.5938 210.5906,532.7188 C210.7313,532.8594 210.9656,532.9688 211.1844,532.9688 C211.45,532.9688 211.7156,532.8281 211.8875,532.6094 C211.9969,532.4531 212.0281,532.2656 212.0281,531.8438 L212.0281,530.4219 C212.0281,529.9844 212.0125,529.8594 211.9188,529.7031 C211.7625,529.4375 211.4813,529.2969 211.1844,529.2969 C210.8875,529.2969 210.6844,529.3906 210.4656,529.7031 L210.2938,529.625 Z " fill="#000000"/><text fill="#000000" font-family="sans-serif" font-size="12" lengthAdjust="spacing" textLength="31" x="224.05" y="538.1074">Email</text><line style="stroke:#A80036;stroke-width:1.5;" x1="184.5" x2="266.5" y1="549.9531" y2="549.9531"/><text fill="#000000" font-family="sans-serif" font-size="11" lengthAdjust="spacing" textLength="72" x="189.5" y="564.1636">String email;</text><line style="stroke:#A80036;stroke-width:1.5;" x1="184.5" x2="266.5" y1="570.7578" y2="570.7578"/><!--MD5=[2f01b1126ff33a0669651ec2488a5ef9]
class Password--><rect codeLine="33" fill="#FEFECE" filter="url(#f18lmucos2l1i7)" height="60.8047" id="Password" style="stroke:#A80036;stroke-width:1.5;" width="105" x="306" y="517.9531"/><ellipse cx="327.75" cy="533.9531" fill="#ADD1B2" rx="11" ry="11" style="stroke:#A80036;stroke-width:1.0;"/><path d="M330.0938,529.625 C329.1563,529.1875 328.5625,529.0469 327.6875,529.0469 C325.0625,529.0469 323.0625,531.125 323.0625,533.8438 L323.0625,534.9688 C323.0625,537.5469 325.1719,539.4375 328.0625,539.4375 C329.2813,539.4375 330.4375,539.1406 331.1875,538.5938 C331.7656,538.1875 332.0938,537.7344 332.0938,537.3438 C332.0938,536.8906 331.7031,536.5 331.2344,536.5 C331.0156,536.5 330.8125,536.5781 330.625,536.7656 C330.1719,537.25 330.1719,537.25 329.9844,537.3438 C329.5625,537.6094 328.875,537.7344 328.1094,537.7344 C326.0625,537.7344 324.7656,536.6406 324.7656,534.9375 L324.7656,533.8438 C324.7656,532.0625 326.0156,530.75 327.75,530.75 C328.3281,530.75 328.9375,530.9063 329.4063,531.1563 C329.8906,531.4375 330.0625,531.6563 330.1563,532.0625 C330.2188,532.4688 330.25,532.5938 330.3906,532.7188 C330.5313,532.8594 330.7656,532.9688 330.9844,532.9688 C331.25,532.9688 331.5156,532.8281 331.6875,532.6094 C331.7969,532.4531 331.8281,532.2656 331.8281,531.8438 L331.8281,530.4219 C331.8281,529.9844 331.8125,529.8594 331.7188,529.7031 C331.5625,529.4375 331.2813,529.2969 330.9844,529.2969 C330.6875,529.2969 330.4844,529.3906 330.2656,529.7031 L330.0938,529.625 Z " fill="#000000"/><text fill="#000000" font-family="sans-serif" font-size="12" lengthAdjust="spacing" textLength="58" x="343.25" y="538.1074">Password</text><line style="stroke:#A80036;stroke-width:1.5;" x1="307" x2="410" y1="549.9531" y2="549.9531"/><text fill="#000000" font-family="sans-serif" font-size="11" lengthAdjust="spacing" textLength="93" x="312" y="564.1636">String password;</text><line style="stroke:#A80036;stroke-width:1.5;" x1="307" x2="410" y1="570.7578" y2="570.7578"/><!--MD5=[09366576ee87d48d594df10cacc83f45]
link Company to Employee--><path codeLine="37" d="M420.307,89.0751 C404.274,110.4741 382.143,140.0121 362.89,165.7091 " fill="none" id="Company-Employee" style="stroke:#A80036;stroke-width:1.0;"/><polygon fill="#000000" points="398.502,131.521,406.2775,126.0445,401.5735,122.5201,398.502,131.521" style="stroke:#000000;stroke-width:1.0;"/><text fill="#000000" font-family="sans-serif" font-size="13" lengthAdjust="spacing" textLength="23" x="410.5" y="132.02">has</text><text fill="#000000" font-family="sans-serif" font-size="13" lengthAdjust="spacing" textLength="8" x="406.9047" y="109.0385">1</text><text fill="#000000" font-family="sans-serif" font-size="13" lengthAdjust="spacing" textLength="7" x="360.5078" y="155.0139">*</text><!--MD5=[9abf40ff36e4aa94ac761b2803c1dce8]
link Company to OrganizationRole--><path codeLine="38" d="M446.103,89.1081 C453.401,149.1861 469.952,285.4341 478.373,354.7501 " fill="none" id="Company-OrganizationRole" style="stroke:#A80036;stroke-width:1.0;"/><polygon fill="#000000" points="474.103,226.983,475.9297,217.6496,470.0947,218.3584,474.103,226.983" style="stroke:#000000;stroke-width:1.0;"/><text fill="#000000" font-family="sans-serif" font-size="13" lengthAdjust="spacing" textLength="88" x="482.5" y="226.52">comprehends</text><text fill="#000000" font-family="sans-serif" font-size="13" lengthAdjust="spacing" textLength="8" x="438.0248" y="108.7191">1</text><text fill="#000000" font-family="sans-serif" font-size="13" lengthAdjust="spacing" textLength="7" x="470.052" y="344.0316">*</text><!--MD5=[372bd27a178b4208a6d241b4516ac7e6]
reverse link Employee to SpecialistDoctor--><path codeLine="39" d="M238.075,278.7791 C224.106,288.3841 209.827,298.3631 196.5,307.9531 C169.673,327.2571 140.048,349.8051 117.32,367.3761 " fill="none" id="Employee-backto-SpecialistDoctor" style="stroke:#A80036;stroke-width:1.0;"/><polygon fill="none" points="234.413,272.8031,254.876,267.2991,242.312,284.3621,234.413,272.8031" style="stroke:#A80036;stroke-width:1.0;"/><!--MD5=[22fb9506fac029fc1d2ae00f0eb8d606]
link Employee to User--><path codeLine="40" d="M316.566,278.1821 C316.106,293.3921 316.442,309.8571 318.5,324.9531 C320.427,339.0931 324.391,354.3751 328.285,367.2071 " fill="none" id="Employee-User" style="stroke:#A80036;stroke-width:1.0;"/><polygon fill="#000000" points="324.1526,321.4768,325.8859,312.1255,320.0583,312.8926,324.1526,321.4768" style="stroke:#000000;stroke-width:1.0;"/><text fill="#000000" font-family="sans-serif" font-size="13" lengthAdjust="spacing" textLength="46" x="332.5" y="321.02">acts as</text><text fill="#000000" font-family="sans-serif" font-size="13" lengthAdjust="spacing" textLength="24" x="290.5022" y="298.0227">0..1</text><text fill="#000000" font-family="sans-serif" font-size="13" lengthAdjust="spacing" textLength="8" x="317.3532" y="356.4196">1</text><!--MD5=[241b49406f7a05442b1e788ffaf3787c]
link Employee to OrganizationRole--><path codeLine="41" d="M372.758,278.0081 C395.932,302.8991 422.878,331.8411 444.388,354.9431 " fill="none" id="Employee-OrganizationRole" style="stroke:#A80036;stroke-width:1.0;"/><polygon fill="#000000" points="420.9071,320.179,416.8946,311.5563,412.5926,315.5616,420.9071,320.179" style="stroke:#000000;stroke-width:1.0;"/><text fill="#000000" font-family="sans-serif" font-size="13" lengthAdjust="spacing" textLength="23" x="426.5" y="321.02">has</text><text fill="#000000" font-family="sans-serif" font-size="13" lengthAdjust="spacing" textLength="7" x="371.877" y="298.225">*</text><text fill="#000000" font-family="sans-serif" font-size="13" lengthAdjust="spacing" textLength="8" x="429.517" y="343.9376">1</text><!--MD5=[66cbc168a202ff7e0cd9272912f2f0b9]
link Employee to Email--><path codeLine="42" d="M279.518,278.2041 C264.56,300.8141 249.263,327.9741 240.5,354.9531 C222.481,410.4271 222.027,479.4214 223.585,517.9292 " fill="none" id="Employee-Email" style="stroke:#A80036;stroke-width:1.0;"/><polygon fill="#000000" points="244.3639,402.8888,249.2812,394.748,243.5571,393.4125,244.3639,402.8888" style="stroke:#000000;stroke-width:1.0;"/><text fill="#000000" font-family="sans-serif" font-size="13" lengthAdjust="spacing" textLength="23" x="254.5" y="402.52">has</text><text fill="#000000" font-family="sans-serif" font-size="13" lengthAdjust="spacing" textLength="8" x="265.9139" y="298.0473">1</text><text fill="#000000" font-family="sans-serif" font-size="13" lengthAdjust="spacing" textLength="8" x="214.2911" y="506.7143">1</text><!--MD5=[dbc364445409b51c9b407d19a07b4adf]
link User to Email--><path codeLine="43" d="M315.904,428.6471 C296.196,454.5471 267.753,491.9254 248.056,517.8103 " fill="none" id="User-Email" style="stroke:#A80036;stroke-width:1.0;"/><polygon fill="#000000" points="284.4722,483.4985,292.2883,478.0801,287.6107,474.5208,284.4722,483.4985" style="stroke:#000000;stroke-width:1.0;"/><text fill="#000000" font-family="sans-serif" font-size="13" lengthAdjust="spacing" textLength="23" x="296.5" y="484.02">has</text><text fill="#000000" font-family="sans-serif" font-size="13" lengthAdjust="spacing" textLength="8" x="302.6679" y="448.2658">1</text><text fill="#000000" font-family="sans-serif" font-size="13" lengthAdjust="spacing" textLength="8" x="243.8832" y="507.0441">1</text><!--MD5=[5ab1f46e477a8163e64d30b24bef4255]
link User to Password--><path codeLine="44" d="M342.499,428.6471 C345.987,454.5471 351.022,491.9254 354.508,517.8103 " fill="none" id="User-Password" style="stroke:#A80036;stroke-width:1.0;"/><polygon fill="#000000" points="356.1674,484.4748,357.8727,475.1184,352.0474,475.9029,356.1674,484.4748" style="stroke:#000000;stroke-width:1.0;"/><text fill="#000000" font-family="sans-serif" font-size="13" lengthAdjust="spacing" textLength="23" x="364.5" y="484.02">has</text><text fill="#000000" font-family="sans-serif" font-size="13" lengthAdjust="spacing" textLength="8" x="334.4988" y="448.2658">1</text><text fill="#000000" font-family="sans-serif" font-size="13" lengthAdjust="spacing" textLength="8" x="344.8597" y="507.0441">1</text><!--MD5=[1c3711433d4291c5ea35dac73d8af2b2]
@startuml
title Relationships - Class Diagram

class Company {
    string designation;
}

class Employee {
    String employeeID;
    String name;
    String address;
    String phoneNumber;
    String codeSOC;
}

class SpecialistDoctor {
    int doctorIndexNumber;
}

class User {
  String name;
}

class OrganizationRole {
 String id;
 String description;
 String className;
}

class Email {
 String email;
}

class Password {
 String password;
}

Company "1" - - "*" Employee: has >
Company "1" - - "*" OrganizationRole: comprehends >
Employee <|- - SpecialistDoctor
Employee "0..1" - - "1" User: acts as >
Employee "*" - - "1" OrganizationRole: has >
Employee "1" - - "1" Email: has >
User "1" - - "1" Email: has >
User "1" - - "1" Password: has >
@enduml

PlantUML version 1.2021.6beta6(Unknown compile time)
(GPL source distribution)
Java Runtime: Java(TM) SE Runtime Environment
JVM: Java HotSpot(TM) 64-Bit Server VM
Default Encoding: UTF-8
Language: en
Country: US
--></g></svg>