<?xml version="1.0" encoding="UTF-8" standalone="no"?><svg xmlns="http://www.w3.org/2000/svg" xmlns:xlink="http://www.w3.org/1999/xlink" contentScriptType="application/ecmascript" contentStyleType="text/css" height="528px" preserveAspectRatio="none" style="width:522px;height:528px;background:#FFFFFF;" version="1.1" viewBox="0 0 522 528" width="522px" zoomAndPan="magnify"><defs><filter height="300%" id="f7pg4lhrwftak" width="300%" x="-1" y="-1"><feGaussianBlur result="blurOut" stdDeviation="2.0"/><feColorMatrix in="blurOut" result="blurOut2" type="matrix" values="0 0 0 0 0 0 0 0 0 0 0 0 0 0 0 0 0 0 .4 0"/><feOffset dx="4.0" dy="4.0" in="blurOut2" result="blurOut3"/><feBlend in="SourceGraphic" in2="blurOut3" mode="normal"/></filter></defs><g><text fill="#000000" font-family="sans-serif" font-size="18" lengthAdjust="spacing" textLength="277" x="116.4999" y="16.708">Relationships - Class Diagram</text><!--MD5=[02e4b9b7573f1156f41e60aa5b4e25a4]
class Company--><rect codeLine="3" fill="#FEFECE" filter="url(#f7pg4lhrwftak)" height="60.8047" id="Company" style="stroke:#A80036;stroke-width:1.5;" width="118" x="89.0001" y="27.9531"/><ellipse cx="117.5001" cy="43.9531" fill="#ADD1B2" rx="11" ry="11" style="stroke:#A80036;stroke-width:1.0;"/><path d="M119.8439,39.625 C118.9064,39.1875 118.3126,39.0469 117.4376,39.0469 C114.8126,39.0469 112.8126,41.125 112.8126,43.8438 L112.8126,44.9688 C112.8126,47.5469 114.922,49.4375 117.8126,49.4375 C119.0314,49.4375 120.1876,49.1406 120.9376,48.5938 C121.5157,48.1875 121.8439,47.7344 121.8439,47.3438 C121.8439,46.8906 121.4532,46.5 120.9845,46.5 C120.7657,46.5 120.5626,46.5781 120.3751,46.7656 C119.922,47.25 119.922,47.25 119.7345,47.3438 C119.3126,47.6094 118.6251,47.7344 117.8595,47.7344 C115.8126,47.7344 114.5157,46.6406 114.5157,44.9375 L114.5157,43.8438 C114.5157,42.0625 115.7657,40.75 117.5001,40.75 C118.0782,40.75 118.6876,40.9063 119.1564,41.1563 C119.6407,41.4375 119.8126,41.6563 119.9064,42.0625 C119.9689,42.4688 120.0001,42.5938 120.1407,42.7188 C120.2814,42.8594 120.5157,42.9688 120.7345,42.9688 C121.0001,42.9688 121.2657,42.8281 121.4376,42.6094 C121.547,42.4531 121.5782,42.2656 121.5782,41.8438 L121.5782,40.4219 C121.5782,39.9844 121.5626,39.8594 121.4689,39.7031 C121.3126,39.4375 121.0314,39.2969 120.7345,39.2969 C120.4376,39.2969 120.2345,39.3906 120.0157,39.7031 L119.8439,39.625 Z " fill="#000000"/><text fill="#000000" font-family="sans-serif" font-size="12" lengthAdjust="spacing" textLength="56" x="134.5001" y="48.1074">Company</text><line style="stroke:#A80036;stroke-width:1.5;" x1="90.0001" x2="206.0001" y1="59.9531" y2="59.9531"/><text fill="#000000" font-family="sans-serif" font-size="11" lengthAdjust="spacing" textLength="106" x="95.0001" y="74.1636">String designation;</text><line style="stroke:#A80036;stroke-width:1.5;" x1="90.0001" x2="206.0001" y1="80.7578" y2="80.7578"/><!--MD5=[f8a1b4d6e8615d9b2288a1baa978680f]
class NHSAPI--><rect codeLine="6" fill="#FEFECE" filter="url(#f7pg4lhrwftak)" height="48" id="NHSAPI" style="stroke:#A80036;stroke-width:1.5;" width="74" x="269.9997" y="328.9531"/><ellipse cx="284.9997" cy="344.9531" fill="#ADD1B2" rx="11" ry="11" style="stroke:#A80036;stroke-width:1.0;"/><path d="M287.3435,340.625 C286.406,340.1875 285.8122,340.0469 284.9372,340.0469 C282.3122,340.0469 280.3122,342.125 280.3122,344.8438 L280.3122,345.9688 C280.3122,348.5469 282.4216,350.4375 285.3122,350.4375 C286.531,350.4375 287.6872,350.1406 288.4372,349.5938 C289.0153,349.1875 289.3435,348.7344 289.3435,348.3438 C289.3435,347.8906 288.9528,347.5 288.4841,347.5 C288.2653,347.5 288.0622,347.5781 287.8747,347.7656 C287.4216,348.25 287.4216,348.25 287.2341,348.3438 C286.8122,348.6094 286.1247,348.7344 285.3591,348.7344 C283.3122,348.7344 282.0153,347.6406 282.0153,345.9375 L282.0153,344.8438 C282.0153,343.0625 283.2653,341.75 284.9997,341.75 C285.5778,341.75 286.1872,341.9063 286.656,342.1563 C287.1403,342.4375 287.3122,342.6563 287.406,343.0625 C287.4685,343.4688 287.4997,343.5938 287.6403,343.7188 C287.781,343.8594 288.0153,343.9688 288.2341,343.9688 C288.4997,343.9688 288.7653,343.8281 288.9372,343.6094 C289.0466,343.4531 289.0778,343.2656 289.0778,342.8438 L289.0778,341.4219 C289.0778,340.9844 289.0622,340.8594 288.9685,340.7031 C288.8122,340.4375 288.531,340.2969 288.2341,340.2969 C287.9372,340.2969 287.7341,340.3906 287.5153,340.7031 L287.3435,340.625 Z " fill="#000000"/><text fill="#000000" font-family="sans-serif" font-size="12" lengthAdjust="spacing" textLength="42" x="298.9997" y="349.1074">NHSAPI</text><line style="stroke:#A80036;stroke-width:1.5;" x1="270.9997" x2="342.9997" y1="360.9531" y2="360.9531"/><line style="stroke:#A80036;stroke-width:1.5;" x1="270.9997" x2="342.9997" y1="368.9531" y2="368.9531"/><!--MD5=[df38be88ccee13e832d6fafd6288a4ca]
class Test--><rect codeLine="7" fill="#FEFECE" filter="url(#f7pg4lhrwftak)" height="86.4141" id="Test" style="stroke:#A80036;stroke-width:1.5;" width="114" x="91.0001" y="165.9531"/><ellipse cx="131.2001" cy="181.9531" fill="#ADD1B2" rx="11" ry="11" style="stroke:#A80036;stroke-width:1.0;"/><path d="M133.5439,177.625 C132.6064,177.1875 132.0126,177.0469 131.1376,177.0469 C128.5126,177.0469 126.5126,179.125 126.5126,181.8438 L126.5126,182.9688 C126.5126,185.5469 128.622,187.4375 131.5126,187.4375 C132.7314,187.4375 133.8876,187.1406 134.6376,186.5938 C135.2157,186.1875 135.5439,185.7344 135.5439,185.3438 C135.5439,184.8906 135.1532,184.5 134.6845,184.5 C134.4657,184.5 134.2626,184.5781 134.0751,184.7656 C133.622,185.25 133.622,185.25 133.4345,185.3438 C133.0126,185.6094 132.3251,185.7344 131.5595,185.7344 C129.5126,185.7344 128.2157,184.6406 128.2157,182.9375 L128.2157,181.8438 C128.2157,180.0625 129.4657,178.75 131.2001,178.75 C131.7782,178.75 132.3876,178.9063 132.8564,179.1563 C133.3407,179.4375 133.5126,179.6563 133.6064,180.0625 C133.6689,180.4688 133.7001,180.5938 133.8407,180.7188 C133.9814,180.8594 134.2157,180.9688 134.4345,180.9688 C134.7001,180.9688 134.9657,180.8281 135.1376,180.6094 C135.247,180.4531 135.2782,180.2656 135.2782,179.8438 L135.2782,178.4219 C135.2782,177.9844 135.2626,177.8594 135.1689,177.7031 C135.0126,177.4375 134.7314,177.2969 134.4345,177.2969 C134.1376,177.2969 133.9345,177.3906 133.7157,177.7031 L133.5439,177.625 Z " fill="#000000"/><text fill="#000000" font-family="sans-serif" font-size="12" lengthAdjust="spacing" textLength="26" x="150.8001" y="186.1074">Test</text><line style="stroke:#A80036;stroke-width:1.5;" x1="92.0001" x2="204.0001" y1="197.9531" y2="197.9531"/><text fill="#000000" font-family="sans-serif" font-size="11" lengthAdjust="spacing" textLength="68" x="97.0001" y="212.1636">String code;</text><text fill="#000000" font-family="sans-serif" font-size="11" lengthAdjust="spacing" textLength="94" x="97.0001" y="224.9683">String NHSCode;</text><text fill="#000000" font-family="sans-serif" font-size="11" lengthAdjust="spacing" textLength="102" x="97.0001" y="237.7729">String description;</text><line style="stroke:#A80036;stroke-width:1.5;" x1="92.0001" x2="204.0001" y1="244.3672" y2="244.3672"/><!--MD5=[74783ec010d186752c4ffd5c6de5633a]
class NHSReport--><rect codeLine="12" fill="#FEFECE" filter="url(#f7pg4lhrwftak)" height="60.8047" id="NHSReport" style="stroke:#A80036;stroke-width:1.5;" width="97" x="352.4997" y="453.9531"/><ellipse cx="367.4997" cy="469.9531" fill="#ADD1B2" rx="11" ry="11" style="stroke:#A80036;stroke-width:1.0;"/><path d="M369.8435,465.625 C368.906,465.1875 368.3122,465.0469 367.4372,465.0469 C364.8122,465.0469 362.8122,467.125 362.8122,469.8438 L362.8122,470.9688 C362.8122,473.5469 364.9216,475.4375 367.8122,475.4375 C369.031,475.4375 370.1872,475.1406 370.9372,474.5938 C371.5153,474.1875 371.8435,473.7344 371.8435,473.3438 C371.8435,472.8906 371.4528,472.5 370.9841,472.5 C370.7653,472.5 370.5622,472.5781 370.3747,472.7656 C369.9216,473.25 369.9216,473.25 369.7341,473.3438 C369.3122,473.6094 368.6247,473.7344 367.8591,473.7344 C365.8122,473.7344 364.5153,472.6406 364.5153,470.9375 L364.5153,469.8438 C364.5153,468.0625 365.7653,466.75 367.4997,466.75 C368.0778,466.75 368.6872,466.9063 369.156,467.1563 C369.6403,467.4375 369.8122,467.6563 369.906,468.0625 C369.9685,468.4688 369.9997,468.5938 370.1403,468.7188 C370.281,468.8594 370.5153,468.9688 370.7341,468.9688 C370.9997,468.9688 371.2653,468.8281 371.4372,468.6094 C371.5466,468.4531 371.5778,468.2656 371.5778,467.8438 L371.5778,466.4219 C371.5778,465.9844 371.5622,465.8594 371.4685,465.7031 C371.3122,465.4375 371.031,465.2969 370.7341,465.2969 C370.4372,465.2969 370.2341,465.3906 370.0153,465.7031 L369.8435,465.625 Z " fill="#000000"/><text fill="#000000" font-family="sans-serif" font-size="12" lengthAdjust="spacing" textLength="65" x="381.4997" y="474.1074">NHSReport</text><line style="stroke:#A80036;stroke-width:1.5;" x1="353.4997" x2="448.4997" y1="485.9531" y2="485.9531"/><text fill="#000000" font-family="sans-serif" font-size="11" lengthAdjust="spacing" textLength="63" x="358.4997" y="500.1636">String text;</text><line style="stroke:#A80036;stroke-width:1.5;" x1="353.4997" x2="448.4997" y1="506.7578" y2="506.7578"/><!--MD5=[0a105ea8d9af02dadec02d3e239f1d60]
class NHS--><rect codeLine="15" fill="#FEFECE" filter="url(#f7pg4lhrwftak)" height="48" id="NHS" style="stroke:#A80036;stroke-width:1.5;" width="57" x="430.4997" y="184.9531"/><ellipse cx="445.4997" cy="200.9531" fill="#ADD1B2" rx="11" ry="11" style="stroke:#A80036;stroke-width:1.0;"/><path d="M447.8435,196.625 C446.906,196.1875 446.3122,196.0469 445.4372,196.0469 C442.8122,196.0469 440.8122,198.125 440.8122,200.8438 L440.8122,201.9688 C440.8122,204.5469 442.9216,206.4375 445.8122,206.4375 C447.031,206.4375 448.1872,206.1406 448.9372,205.5938 C449.5153,205.1875 449.8435,204.7344 449.8435,204.3438 C449.8435,203.8906 449.4528,203.5 448.9841,203.5 C448.7653,203.5 448.5622,203.5781 448.3747,203.7656 C447.9216,204.25 447.9216,204.25 447.7341,204.3438 C447.3122,204.6094 446.6247,204.7344 445.8591,204.7344 C443.8122,204.7344 442.5153,203.6406 442.5153,201.9375 L442.5153,200.8438 C442.5153,199.0625 443.7653,197.75 445.4997,197.75 C446.0778,197.75 446.6872,197.9063 447.156,198.1563 C447.6403,198.4375 447.8122,198.6563 447.906,199.0625 C447.9685,199.4688 447.9997,199.5938 448.1403,199.7188 C448.281,199.8594 448.5153,199.9688 448.7341,199.9688 C448.9997,199.9688 449.2653,199.8281 449.4372,199.6094 C449.5466,199.4531 449.5778,199.2656 449.5778,198.8438 L449.5778,197.4219 C449.5778,196.9844 449.5622,196.8594 449.4685,196.7031 C449.3122,196.4375 449.031,196.2969 448.7341,196.2969 C448.4372,196.2969 448.2341,196.3906 448.0153,196.7031 L447.8435,196.625 Z " fill="#000000"/><text fill="#000000" font-family="sans-serif" font-size="12" lengthAdjust="spacing" textLength="25" x="459.4997" y="205.1074">NHS</text><line style="stroke:#A80036;stroke-width:1.5;" x1="431.4997" x2="486.4997" y1="216.9531" y2="216.9531"/><line style="stroke:#A80036;stroke-width:1.5;" x1="431.4997" x2="486.4997" y1="224.9531" y2="224.9531"/><!--MD5=[bed47977468871ebdec4a5c52435d50a]
class AutoReportNHS--><rect codeLine="16" fill="#FEFECE" filter="url(#f7pg4lhrwftak)" height="48" id="AutoReportNHS" style="stroke:#A80036;stroke-width:1.5;" width="124" x="239.9997" y="184.9531"/><ellipse cx="254.9997" cy="200.9531" fill="#ADD1B2" rx="11" ry="11" style="stroke:#A80036;stroke-width:1.0;"/><path d="M257.3435,196.625 C256.406,196.1875 255.8122,196.0469 254.9372,196.0469 C252.3122,196.0469 250.3122,198.125 250.3122,200.8438 L250.3122,201.9688 C250.3122,204.5469 252.4216,206.4375 255.3122,206.4375 C256.531,206.4375 257.6872,206.1406 258.4372,205.5938 C259.0153,205.1875 259.3435,204.7344 259.3435,204.3438 C259.3435,203.8906 258.9528,203.5 258.4841,203.5 C258.2653,203.5 258.0622,203.5781 257.8747,203.7656 C257.4216,204.25 257.4216,204.25 257.2341,204.3438 C256.8122,204.6094 256.1247,204.7344 255.3591,204.7344 C253.3122,204.7344 252.0153,203.6406 252.0153,201.9375 L252.0153,200.8438 C252.0153,199.0625 253.2653,197.75 254.9997,197.75 C255.5778,197.75 256.1872,197.9063 256.656,198.1563 C257.1403,198.4375 257.3122,198.6563 257.406,199.0625 C257.4685,199.4688 257.4997,199.5938 257.6403,199.7188 C257.781,199.8594 258.0153,199.9688 258.2341,199.9688 C258.4997,199.9688 258.7653,199.8281 258.9372,199.6094 C259.0466,199.4531 259.0778,199.2656 259.0778,198.8438 L259.0778,197.4219 C259.0778,196.9844 259.0622,196.8594 258.9685,196.7031 C258.8122,196.4375 258.531,196.2969 258.2341,196.2969 C257.9372,196.2969 257.7341,196.3906 257.5153,196.7031 L257.3435,196.625 Z " fill="#000000"/><text fill="#000000" font-family="sans-serif" font-size="12" lengthAdjust="spacing" textLength="92" x="268.9997" y="205.1074">AutoReportNHS</text><line style="stroke:#A80036;stroke-width:1.5;" x1="240.9997" x2="362.9997" y1="216.9531" y2="216.9531"/><line style="stroke:#A80036;stroke-width:1.5;" x1="240.9997" x2="362.9997" y1="224.9531" y2="224.9531"/><!--MD5=[7e4bc624457760b649895ff2ead938fa]
link Company to Test--><path codeLine="19" d="M147.9997,89.1471 C147.9997,111.1541 147.9997,141.4471 147.9997,165.9351 " fill="none" id="Company-Test" style="stroke:#A80036;stroke-width:1.0;"/><polygon fill="#000000" points="152.9997,132.5195,155.9386,123.4744,150.0608,123.4744,152.9997,132.5195" style="stroke:#000000;stroke-width:1.0;"/><text fill="#000000" font-family="sans-serif" font-size="13" lengthAdjust="spacing" textLength="59" x="161.9997" y="132.02">performs</text><text fill="#000000" font-family="sans-serif" font-size="13" lengthAdjust="spacing" textLength="8" x="139.2121" y="108.7658">1</text><text fill="#000000" font-family="sans-serif" font-size="13" lengthAdjust="spacing" textLength="7" x="140.4418" y="154.9283">*</text><!--MD5=[d516eb85be2662fe71711b1f96716dc7]
link Company to AutoReportNHS--><path codeLine="20" d="M193.5127,89.2371 C205.8737,98.1751 218.8997,108.4201 229.9997,118.9531 C251.3377,139.1991 272.0677,165.7821 285.7617,184.6081 " fill="none" id="Company-AutoReportNHS" style="stroke:#A80036;stroke-width:1.0;"/><polygon fill="#000000" points="254.4759,131.1134,250.2998,122.5688,246.075,126.6553,254.4759,131.1134" style="stroke:#000000;stroke-width:1.0;"/><text fill="#000000" font-family="sans-serif" font-size="13" lengthAdjust="spacing" textLength="59" x="259.9997" y="132.02">activates</text><text fill="#000000" font-family="sans-serif" font-size="13" lengthAdjust="spacing" textLength="8" x="193.6855" y="108.8735">1</text><text fill="#000000" font-family="sans-serif" font-size="13" lengthAdjust="spacing" textLength="8" x="272.8287" y="173.929">1</text><!--MD5=[ba4b449f8b37100074ac83fdf4b68a50]
link AutoReportNHS to NHSAPI--><path codeLine="21" d="M291.6547,233.0101 C284.9037,250.9811 278.1657,276.5591 282.9997,298.9531 C285.2167,309.2211 289.5937,319.8941 294.0087,328.9471 " fill="none" id="AutoReportNHS-NHSAPI" style="stroke:#A80036;stroke-width:1.0;"/><polygon fill="#000000" points="288.1224,295.518,290.8385,286.4036,284.9625,286.5478,288.1224,295.518" style="stroke:#000000;stroke-width:1.0;"/><text fill="#000000" font-family="sans-serif" font-size="13" lengthAdjust="spacing" textLength="28" x="296.9997" y="295.02">calls</text><text fill="#000000" font-family="sans-serif" font-size="13" lengthAdjust="spacing" textLength="8" x="279.9788" y="253.1805">1</text><text fill="#000000" font-family="sans-serif" font-size="13" lengthAdjust="spacing" textLength="8" x="281.6548" y="317.9576">1</text><!--MD5=[859391d06bfa233d044fa9b08e85cd22]
link Company to NHSAPI--><path codeLine="22" d="M98.0364,88.9671 C71.9177,107.4331 42.4474,133.8151 28.0001,165.9531 C12.3286,200.8151 6,220.6971 28.0001,251.9531 C83.5312,330.8471 207.3847,347.8181 269.6907,351.2511 " fill="none" id="Company-NHSAPI" style="stroke:#A80036;stroke-width:1.0;"/><polygon fill="#000000" points="35.7382,213.2032,33.2441,204.0255,28.3259,207.2443,35.7382,213.2032" style="stroke:#000000;stroke-width:1.0;"/><text fill="#000000" font-family="sans-serif" font-size="13" lengthAdjust="spacing" textLength="30" x="42.0001" y="213.52">uses</text><text fill="#000000" font-family="sans-serif" font-size="13" lengthAdjust="spacing" textLength="8" x="78.9064" y="108.9082">1</text><text fill="#000000" font-family="sans-serif" font-size="13" lengthAdjust="spacing" textLength="8" x="254.0744" y="346.6336">1</text><!--MD5=[83b5bff43bc71059bacccd3f18b7f496]
link NHS to NHSAPI--><path codeLine="23" d="M430.4827,229.6091 C411.4027,243.3291 386.1867,262.5871 365.9997,281.9531 C350.8607,296.4771 335.6477,314.6341 324.4617,328.8161 " fill="none" id="NHS-NHSAPI" style="stroke:#A80036;stroke-width:1.0;"/><polygon fill="#000000" points="367.3488,293.9358,375.9614,289.9017,371.9453,285.6098,367.3488,293.9358" style="stroke:#000000;stroke-width:1.0;"/><text fill="#000000" font-family="sans-serif" font-size="13" lengthAdjust="spacing" textLength="67" x="379.9997" y="295.02">distributes</text><text fill="#000000" font-family="sans-serif" font-size="13" lengthAdjust="spacing" textLength="8" x="414.5567" y="229.899">1</text><text fill="#000000" font-family="sans-serif" font-size="13" lengthAdjust="spacing" textLength="8" x="319.9114" y="317.7931">1</text><!--MD5=[c78b42741673ea04da7a87c846a6b396]
link NHS to NHSReport--><path codeLine="24" d="M461.4137,232.9761 C464.7537,273.1221 467.9337,357.9541 443.9997,423.9531 C440.1767,434.4969 433.9007,444.8226 427.3097,453.8342 " fill="none" id="NHS-NHSReport" style="stroke:#A80036;stroke-width:1.0;"/><polygon fill="#000000" points="466.2367,357.961,470.5215,349.4703,464.7125,348.5733,466.2367,357.961" style="stroke:#000000;stroke-width:1.0;"/><text fill="#000000" font-family="sans-serif" font-size="13" lengthAdjust="spacing" textLength="39" x="475.9997" y="357.52">wants</text><text fill="#000000" font-family="sans-serif" font-size="13" lengthAdjust="spacing" textLength="8" x="453.0073" y="253.1378">1</text><text fill="#000000" font-family="sans-serif" font-size="13" lengthAdjust="spacing" textLength="7" x="425.0143" y="443.0729">*</text><!--MD5=[bdd76af07be1dbb1e676cede96b20b2a]
link NHSAPI to NHSReport--><path codeLine="25" d="M323.8057,377.1051 C339.3307,398.4941 362.4797,430.385 379.3777,453.6645 " fill="none" id="NHSAPI-NHSReport" style="stroke:#A80036;stroke-width:1.0;"/><polygon fill="#000000" points="363.9369,419.5659,361.0019,410.5195,356.2451,413.9723,363.9369,419.5659" style="stroke:#000000;stroke-width:1.0;"/><text fill="#000000" font-family="sans-serif" font-size="13" lengthAdjust="spacing" textLength="65" x="369.9997" y="420.02">generates</text><text fill="#000000" font-family="sans-serif" font-size="13" lengthAdjust="spacing" textLength="8" x="318.9272" y="396.9034">1</text><text fill="#000000" font-family="sans-serif" font-size="13" lengthAdjust="spacing" textLength="7" x="367.1963" y="442.8682">*</text><!--MD5=[e75a541afcb79e0c3cd5ef28c4ef70e5]
@startuml
title Relationships - Class Diagram

class Company {
    String designation;
}
class NHSAPI
class Test {
    String code;
    String NHSCode;
    String description;
}
class NHSReport {
	String text;
}
class NHS
class AutoReportNHS


Company "1" - - "*" Test: performs >
Company "1" - - "1" AutoReportNHS: activates >
AutoReportNHS "1" - - "1" NHSAPI: calls >
Company "1" - - "1" NHSAPI: uses >
NHS "1" - - "1" NHSAPI: distributes >
NHS "1" - - "*" NHSReport: wants >
NHSAPI "1" - - "*" NHSReport: generates >
@enduml

PlantUML version 1.2021.7(Sun May 23 12:40:07 UTC 2021)
(GPL source distribution)
Java Runtime: Java(TM) SE Runtime Environment
JVM: Java HotSpot(TM) 64-Bit Server VM
Default Encoding: UTF-8
Language: en
Country: US
--></g></svg>